<?xml version="1.0" encoding="UTF-8" standalone="no"?>
<svg
   xmlns:dc="http://purl.org/dc/elements/1.1/"
   xmlns:cc="http://creativecommons.org/ns#"
   xmlns:rdf="http://www.w3.org/1999/02/22-rdf-syntax-ns#"
   xmlns:svg="http://www.w3.org/2000/svg"
   xmlns="http://www.w3.org/2000/svg"
   xmlns:sodipodi="http://sodipodi.sourceforge.net/DTD/sodipodi-0.dtd"
   xmlns:inkscape="http://www.inkscape.org/namespaces/inkscape"
   enable-background="new 0 0 64 64"
   version="1.1"
   viewBox="0 0 64 64"
   xml:space="preserve"
   id="svg15"
   sodipodi:docname="sechub-logo-vscode-styled.svg"
   inkscape:version="1.0.1 (1.0.1+r74)"><metadata
     id="metadata21"><rdf:RDF><cc:Work
         rdf:about=""><dc:format>image/svg+xml</dc:format><dc:type
           rdf:resource="http://purl.org/dc/dcmitype/StillImage" /><dc:title /></cc:Work></rdf:RDF></metadata><defs
     id="defs19" /><sodipodi:namedview
     pagecolor="#ffffff"
     bordercolor="#666666"
     borderopacity="1"
     objecttolerance="10"
     gridtolerance="10"
     guidetolerance="10"
     inkscape:pageopacity="0"
     inkscape:pageshadow="2"
     inkscape:window-width="3440"
     inkscape:window-height="1389"
     id="namedview17"
     showgrid="false"
     inkscape:zoom="11.375"
     inkscape:cx="12.43956"
     inkscape:cy="32"
     inkscape:window-x="0"
     inkscape:window-y="0"
     inkscape:window-maximized="1"
     inkscape:current-layer="row_1"
     inkscape:document-rotation="0" /><g
     id="row_4" /><g
     id="row_3" /><g
     id="row_2" /><g
     id="row_1"><path
       id="path5"
       d="M 32 2 C 20.9 2 13.600781 4.2007813 8.3007812 9.3007812 L 8 9.5996094 L 8 30.199219 L 8 32 C 8 45.7 17.499219 57.900781 31.699219 62.300781 L 32 62.400391 L 32.300781 62.300781 C 46.500781 57.900781 56 45.7 56 32 L 56 9.5996094 L 55.699219 9.3007812 C 50.399219 4.2007813 43.1 2 32 2 z M 32 8.1992188 C 40.2 8.1992188 45.900781 9.5 49.800781 12.5 L 50 12.599609 L 50 32 C 50 42.5 42.999219 51.900391 32.199219 55.900391 L 32 56 L 31.800781 55.898438 C 21.000781 51.898437 14 42.5 14 32 L 14 12.599609 L 14.199219 12.5 C 18.099219 9.4999998 23.8 8.1992188 32 8.1992188 z "
       style="fill:#ffd42a" /><polygon
       fill="#4caf50"
       points="23.6,26.8 31.5,37.9 40.2,17.2 43.8,18.8 33.8,42.8 30.4,43.2 20.4,29.2 "
       id="polygon11"
       transform="translate(0.3399579,0.5457669)" /></g></svg>
