<?xml version="1.0" encoding="UTF-8" standalone="no"?>
<svg
   xmlns:dc="http://purl.org/dc/elements/1.1/"
   xmlns:cc="http://creativecommons.org/ns#"
   xmlns:rdf="http://www.w3.org/1999/02/22-rdf-syntax-ns#"
   xmlns:svg="http://www.w3.org/2000/svg"
   xmlns="http://www.w3.org/2000/svg"
   xmlns:sodipodi="http://sodipodi.sourceforge.net/DTD/sodipodi-0.dtd"
   xmlns:inkscape="http://www.inkscape.org/namespaces/inkscape"
   enable-background="new 0 0 64 64"
   version="1.1"
   viewBox="0 0 64 64"
   xml:space="preserve"
   id="svg232"
   sodipodi:docname="pluginIcon_dark.svg"
   inkscape:version="1.0.1 (1.0.1+r74)"><metadata
   id="metadata238"><rdf:RDF><cc:Work
       rdf:about=""><dc:format>image/svg+xml</dc:format><dc:type
         rdf:resource="http://purl.org/dc/dcmitype/StillImage" /></cc:Work></rdf:RDF></metadata><defs
   id="defs236" /><sodipodi:namedview
   pagecolor="#ffffff"
   bordercolor="#666666"
   borderopacity="1"
   objecttolerance="10"
   gridtolerance="10"
   guidetolerance="10"
   inkscape:pageopacity="0"
   inkscape:pageshadow="2"
   inkscape:window-width="3440"
   inkscape:window-height="1389"
   id="namedview234"
   showgrid="false"
   inkscape:zoom="18.828125"
   inkscape:cx="26.051452"
   inkscape:cy="32"
   inkscape:window-x="0"
   inkscape:window-y="0"
   inkscape:window-maximized="1"
   inkscape:current-layer="svg232"
   inkscape:document-rotation="0" /><g
   id="row_4" />
    <g
   id="row_3" />
    <g
   id="row_2" />
    <g
   id="row_1"
   transform="matrix(0.66225166,0,0,0.66225166,10.807947,10.875497)"><g
     id="protection"><path
       d="M 55.7,9.3 C 50.4,4.2 43.1,2 32,2 20.9,2 13.6,4.2 8.3,9.3 L 8,9.6 V 30.2 32 c 0,13.7 9.5,25.9 23.7,30.3 l 0.3,0.1 0.3,-0.1 C 46.5,57.9 56,45.7 56,32 V 9.6 Z"
       fill="#cfa420"
       id="path222" /><path
       d="M 49.8,12.5 C 45.9,9.5 40.2,8.2 32,8.2 V 56 l 0.2,-0.1 C 43,51.9 50,42.5 50,32 V 12.6 Z"
       fill="#cfbf91"
       id="path224" /><path
       d="M 14.2,12.5 14,12.6 V 32 c 0,10.5 7,19.9 17.8,23.9 L 32,56 V 8.2 c -8.2,0 -13.9,1.3 -17.8,4.3 z"
       fill="#cfc9b6"
       id="path226" /><polygon
       fill="#3d8e41"
       points="23.6,26.8 31.5,37.9 40.2,17.2 43.8,18.8 33.8,42.8 30.4,43.2 20.4,29.2 "
       id="polygon228" /></g></g></svg>
