<?xml version="1.0" encoding="UTF-8" standalone="no"?><svg xmlns="http://www.w3.org/2000/svg" xmlns:xlink="http://www.w3.org/1999/xlink" contentScriptType="application/ecmascript" contentStyleType="text/css" height="661px" preserveAspectRatio="none" style="width:1053px;height:661px;" version="1.1" viewBox="0 0 1053 661" width="1053px" zoomAndPan="magnify"><defs><filter height="300%" id="flg09ma" width="300%" x="-1" y="-1"><feGaussianBlur result="blurOut" stdDeviation="2.0"/><feColorMatrix in="blurOut" result="blurOut2" type="matrix" values="0 0 0 0 0 0 0 0 0 0 0 0 0 0 0 0 0 0 .4 0"/><feOffset dx="4.0" dy="4.0" in="blurOut2" result="blurOut3"/><feBlend in="SourceGraphic" in2="blurOut3" mode="normal"/></filter></defs><g><!--cluster external--><rect fill="#FFFFFF" filter="url(#flg09ma)" height="518" style="stroke: #000000; stroke-width: 2.0;" width="544" x="502" y="24"/><path d="M577,25 L577,33.2969 L567,43.2969 L502,43.2969 " fill="none" style="stroke: #000000; stroke-width: 2.0;"/><text fill="#000000" font-family="sans-serif" font-size="14" font-weight="bold" lengthAdjust="spacingAndGlyphs" textLength="65" x="505" y="37.9951">external</text><!--cluster User--><rect fill="#FFFFFF" filter="url(#flg09ma)" height="181" style="stroke: #000000; stroke-width: 2.0;" width="203" x="565" y="67"/><path d="M612,68 L612,76.2969 L602,86.2969 L565,86.2969 " fill="none" style="stroke: #000000; stroke-width: 2.0;"/><text fill="#000000" font-family="sans-serif" font-size="14" font-weight="bold" lengthAdjust="spacingAndGlyphs" textLength="37" x="568" y="80.9951">User</text><!--cluster Project--><rect fill="#FFFFFF" filter="url(#flg09ma)" height="229" style="stroke: #000000; stroke-width: 2.0;" width="496" x="526" y="289"/><path d="M592,290 L592,298.2969 L582,308.2969 L526,308.2969 " fill="none" style="stroke: #000000; stroke-width: 2.0;"/><text fill="#000000" font-family="sans-serif" font-size="14" font-weight="bold" lengthAdjust="spacingAndGlyphs" textLength="56" x="529" y="302.9951">Project</text><!--cluster internal--><rect fill="#FFFFFF" filter="url(#flg09ma)" height="630" style="stroke: #000000; stroke-width: 2.0;" width="456" x="22" y="24"/><path d="M207,25 L207,33.2969 L197,43.2969 L22,43.2969 " fill="none" style="stroke: #000000; stroke-width: 2.0;"/><text fill="#000000" font-family="sans-serif" font-size="14" font-weight="bold" lengthAdjust="spacingAndGlyphs" textLength="175" x="25" y="37.9951">SecHub infrastructure</text><!--cluster backend--><rect fill="#FFFFFF" filter="url(#flg09ma)" height="103" style="stroke: #000000; stroke-width: 2.0;" width="207" x="54" y="280"/><path d="M201,281 L201,289.2969 L191,299.2969 L54,299.2969 " fill="none" style="stroke: #000000; stroke-width: 2.0;"/><text fill="#000000" font-family="sans-serif" font-size="14" font-weight="bold" lengthAdjust="spacingAndGlyphs" textLength="132" x="57" y="293.9951">SecHub backend</text><!--cluster products--><rect fill="#FFFFFF" filter="url(#flg09ma)" height="199" style="stroke: #000000; stroke-width: 2.0;" width="392" x="54" y="423"/><path d="M213,424 L213,432.2969 L203,442.2969 L54,442.2969 " fill="none" style="stroke: #000000; stroke-width: 2.0;"/><text fill="#000000" font-family="sans-serif" font-size="14" font-weight="bold" lengthAdjust="spacingAndGlyphs" textLength="149" x="57" y="436.9951">3rd party software</text><!--cluster Administration--><rect fill="#FFFFFF" filter="url(#flg09ma)" height="181" style="stroke: #000000; stroke-width: 2.0;" width="170" x="82" y="67"/><path d="M206,68 L206,76.2969 L196,86.2969 L82,86.2969 " fill="none" style="stroke: #000000; stroke-width: 2.0;"/><text fill="#000000" font-family="sans-serif" font-size="14" font-weight="bold" lengthAdjust="spacingAndGlyphs" textLength="114" x="85" y="80.9951">Administration</text><!--entity Client--><rect fill="#FEFECE" filter="url(#flg09ma)" height="36.2969" style="stroke: #A80036; stroke-width: 1.5;" width="117" x="583.5" y="196"/><rect fill="#FEFECE" height="5" style="stroke: #A80036; stroke-width: 1.5;" width="10" x="578.5" y="201"/><rect fill="#FEFECE" height="5" style="stroke: #A80036; stroke-width: 1.5;" width="10" x="578.5" y="222.2969"/><text fill="#000000" font-family="sans-serif" font-size="14" lengthAdjust="spacingAndGlyphs" textLength="97" x="593.5" y="218.9951">SecHub Client</text><!--entity Developer--><ellipse cx="716" cy="111" fill="#FEFECE" filter="url(#flg09ma)" rx="8" ry="8" style="stroke: #A80036; stroke-width: 2.0;"/><text fill="#000000" font-family="sans-serif" font-size="14" lengthAdjust="spacingAndGlyphs" textLength="71" x="680.5" y="132.9951">Developer</text><!--entity BuildTool--><ellipse cx="613" cy="111" fill="#FEFECE" filter="url(#flg09ma)" rx="8" ry="8" style="stroke: #A80036; stroke-width: 2.0;"/><text fill="#000000" font-family="sans-serif" font-size="14" lengthAdjust="spacingAndGlyphs" textLength="64" x="581" y="132.9951">BuildTool</text><!--entity website--><rect fill="#FEFECE" filter="url(#flg09ma)" height="36.2969" style="stroke: #A80036; stroke-width: 1.5;" width="125" x="542.5" y="466"/><rect fill="#FEFECE" height="5" style="stroke: #A80036; stroke-width: 1.5;" width="10" x="537.5" y="471"/><rect fill="#FEFECE" height="5" style="stroke: #A80036; stroke-width: 1.5;" width="10" x="537.5" y="492.2969"/><text fill="#000000" font-family="sans-serif" font-size="14" lengthAdjust="spacingAndGlyphs" textLength="105" x="552.5" y="488.9951">Target Website</text><!--entity code--><rect fill="#FEFECE" filter="url(#flg09ma)" height="36.2969" style="stroke: #A80036; stroke-width: 1.5;" width="106" x="703" y="466"/><rect fill="#FEFECE" height="5" style="stroke: #A80036; stroke-width: 1.5;" width="10" x="698" y="471"/><rect fill="#FEFECE" height="5" style="stroke: #A80036; stroke-width: 1.5;" width="10" x="698" y="492.2969"/><text fill="#000000" font-family="sans-serif" font-size="14" lengthAdjust="spacingAndGlyphs" textLength="86" x="713" y="488.9951">Target Code</text><!--entity infra--><rect fill="#FEFECE" filter="url(#flg09ma)" height="36.2969" style="stroke: #A80036; stroke-width: 1.5;" width="161" x="844.5" y="466"/><rect fill="#FEFECE" height="5" style="stroke: #A80036; stroke-width: 1.5;" width="10" x="839.5" y="471"/><rect fill="#FEFECE" height="5" style="stroke: #A80036; stroke-width: 1.5;" width="10" x="839.5" y="492.2969"/><text fill="#000000" font-family="sans-serif" font-size="14" lengthAdjust="spacingAndGlyphs" textLength="141" x="854.5" y="488.9951">Target Infrastructure</text><!--entity Owner--><ellipse cx="680" cy="333" fill="#FEFECE" filter="url(#flg09ma)" rx="8" ry="8" style="stroke: #A80036; stroke-width: 2.0;"/><text fill="#000000" font-family="sans-serif" font-size="14" lengthAdjust="spacingAndGlyphs" textLength="45" x="657.5" y="354.9951">Owner</text><!--entity Server--><rect fill="#FEFECE" filter="url(#flg09ma)" height="36.2969" style="stroke: #A80036; stroke-width: 1.5;" width="140" x="97" y="323"/><rect fill="#FEFECE" height="5" style="stroke: #A80036; stroke-width: 1.5;" width="10" x="92" y="328"/><rect fill="#FEFECE" height="5" style="stroke: #A80036; stroke-width: 1.5;" width="10" x="92" y="349.2969"/><text fill="#000000" font-family="sans-serif" font-size="14" lengthAdjust="spacingAndGlyphs" textLength="120" x="107" y="345.9951">SecHub Server(s)</text><!--entity infrascan--><rect fill="#FEFECE" filter="url(#flg09ma)" height="36.2969" style="stroke: #A80036; stroke-width: 1.5;" width="172" x="97" y="466"/><rect fill="#FEFECE" height="5" style="stroke: #A80036; stroke-width: 1.5;" width="10" x="92" y="471"/><rect fill="#FEFECE" height="5" style="stroke: #A80036; stroke-width: 1.5;" width="10" x="92" y="492.2969"/><text fill="#000000" font-family="sans-serif" font-size="14" lengthAdjust="spacingAndGlyphs" textLength="152" x="107" y="488.9951">Infrastructure scanner</text><!--entity codescan--><rect fill="#FEFECE" filter="url(#flg09ma)" height="36.2969" style="stroke: #A80036; stroke-width: 1.5;" width="117" x="304.5" y="466"/><rect fill="#FEFECE" height="5" style="stroke: #A80036; stroke-width: 1.5;" width="10" x="299.5" y="471"/><rect fill="#FEFECE" height="5" style="stroke: #A80036; stroke-width: 1.5;" width="10" x="299.5" y="492.2969"/><text fill="#000000" font-family="sans-serif" font-size="14" lengthAdjust="spacingAndGlyphs" textLength="97" x="314.5" y="488.9951">Code scanner</text><!--entity webscan--><rect fill="#FEFECE" filter="url(#flg09ma)" height="36.2969" style="stroke: #A80036; stroke-width: 1.5;" width="111" x="127.5" y="562"/><rect fill="#FEFECE" height="5" style="stroke: #A80036; stroke-width: 1.5;" width="10" x="122.5" y="567"/><rect fill="#FEFECE" height="5" style="stroke: #A80036; stroke-width: 1.5;" width="10" x="122.5" y="588.2969"/><text fill="#000000" font-family="sans-serif" font-size="14" lengthAdjust="spacingAndGlyphs" textLength="91" x="137.5" y="584.9951">Web scanner</text><!--entity more--><rect fill="#FEFECE" filter="url(#flg09ma)" height="36.2969" style="stroke: #A80036; stroke-width: 1.5;" width="32" x="274" y="562"/><rect fill="#FEFECE" height="5" style="stroke: #A80036; stroke-width: 1.5;" width="10" x="269" y="567"/><rect fill="#FEFECE" height="5" style="stroke: #A80036; stroke-width: 1.5;" width="10" x="269" y="588.2969"/><text fill="#000000" font-family="sans-serif" font-size="14" lengthAdjust="spacingAndGlyphs" textLength="12" x="284" y="584.9951">...</text><!--entity AdminUI--><rect fill="#FEFECE" filter="url(#flg09ma)" height="36.2969" style="stroke: #A80036; stroke-width: 1.5;" width="138" x="98" y="196"/><rect fill="#FEFECE" height="5" style="stroke: #A80036; stroke-width: 1.5;" width="10" x="93" y="201"/><rect fill="#FEFECE" height="5" style="stroke: #A80036; stroke-width: 1.5;" width="10" x="93" y="222.2969"/><text fill="#000000" font-family="sans-serif" font-size="14" lengthAdjust="spacingAndGlyphs" textLength="118" x="108" y="218.9951">SecHub Admin UI</text><!--entity Admin--><ellipse cx="167" cy="111" fill="#FEFECE" filter="url(#flg09ma)" rx="8" ry="8" style="stroke: #A80036; stroke-width: 2.0;"/><text fill="#000000" font-family="sans-serif" font-size="14" lengthAdjust="spacingAndGlyphs" textLength="43" x="145.5" y="132.9951">Admin</text><path d="M702.4273,136.4245 C690.3492,151.9301 672.6132,174.6993 659.4775,191.5627 " fill="none" style="stroke: #A80036; stroke-width: 1.0;"/><polygon fill="#A80036" points="656.2433,195.7147,664.9296,191.0728,659.3159,191.7702,658.6185,186.1565,656.2433,195.7147" style="stroke: #A80036; stroke-width: 1.0;"/><path d="M618.319,136.4245 C622.9721,151.6673 629.768,173.9296 634.8874,190.7002 " fill="none" style="stroke: #A80036; stroke-width: 1.0;"/><polygon fill="#A80036" points="636.4182,195.7147,637.6162,185.939,634.9583,190.9326,629.9648,188.2747,636.4182,195.7147" style="stroke: #A80036; stroke-width: 1.0;"/><path d="M670.9532,358.2491 C656.6938,385.4372 629.1187,438.0137 614.5517,465.788 " fill="none" style="stroke: #A80036; stroke-width: 1.0;"/><path d="M689.1674,358.2491 C703.617,385.4372 731.5598,438.0137 746.3209,465.788 " fill="none" style="stroke: #A80036; stroke-width: 1.0;"/><path d="M702.5097,349.1266 C732.1031,360.2474 785.23,381.7349 827,407 C855.882,424.4696 885.9552,449.2412 905.0428,465.9283 " fill="none" style="stroke: #A80036; stroke-width: 1.0;"/><path d="M167,136.4245 C167,151.6673 167,173.9296 167,190.7002 " fill="none" style="stroke: #A80036; stroke-width: 1.0;"/><polygon fill="#A80036" points="167,195.7147,171,186.7147,167,190.7147,163,186.7147,167,195.7147" style="stroke: #A80036; stroke-width: 1.0;"/><path d="M583.2793,229.7001 C496.3457,252.9434 333.5589,296.4674 239.3719,321.65 " fill="none" style="stroke: #A80036; stroke-width: 1.0;"/><polygon fill="#A80036" points="234.3828,322.984,244.1106,324.5234,239.2131,321.6924,242.0441,316.7949,234.3828,322.984" style="stroke: #A80036; stroke-width: 1.0;"/><path d="M167,232.196 C167,254.7355 167,293.1647 167,317.8007 " fill="none" style="stroke: #A80036; stroke-width: 1.0;"/><polygon fill="#A80036" points="167,322.8378,171,313.8378,167,317.8378,163,313.8378,167,322.8378" style="stroke: #A80036; stroke-width: 1.0;"/><path d="M53.9558,355.3594 C53.9161,355.5329 53.8766,355.7077 53.8374,355.8837 C53.759,356.2357 53.6816,356.5929 53.6052,356.9549 C53.4523,357.6791 53.3035,358.423 53.1588,359.1856 C52.8692,360.7109 52.5957,362.3111 52.3383,363.9779 C50.2792,377.3124 49.2498,394.9098 49.25,412.5066 C49.2503,430.1034 50.2802,447.6996 52.3398,461.0321 C52.5973,462.6986 52.8708,464.2985 53.1604,465.8235 C53.3053,466.586 53.4541,467.3298 53.6069,468.0537 C53.6834,468.4157 53.7608,468.7728 53.8393,469.1247 C53.8785,469.3007 53.9179,469.4754 53.9577,469.6489 " fill="none" style="stroke: #A80036; stroke-width: 2.0;"/><polygon fill="#A80036" points="53.9577,469.6489,55.8473,459.983,52.8414,464.7751,48.0493,461.7691,53.9577,469.6489" style="stroke: #A80036; stroke-width: 1.0;"/></g></svg>