<?xml version="1.0" encoding="UTF-8" standalone="no"?><svg xmlns="http://www.w3.org/2000/svg" xmlns:xlink="http://www.w3.org/1999/xlink" contentScriptType="application/ecmascript" contentStyleType="text/css" height="703px" preserveAspectRatio="none" style="width:1582px;height:703px;" version="1.1" viewBox="0 0 1582 703" width="1582px" zoomAndPan="magnify"><defs><filter height="300%" id="f6e75hcmx4a3p" width="300%" x="-1" y="-1"><feGaussianBlur result="blurOut" stdDeviation="2.0"/><feColorMatrix in="blurOut" result="blurOut2" type="matrix" values="0 0 0 0 0 0 0 0 0 0 0 0 0 0 0 0 0 0 .4 0"/><feOffset dx="4.0" dy="4.0" in="blurOut2" result="blurOut3"/><feBlend in="SourceGraphic" in2="blurOut3" mode="normal"/></filter></defs><g><!--class AbstractInstallSetupProductExecutor--><rect fill="#FEFECE" filter="url(#f6e75hcmx4a3p)" height="60.8047" id="AbstractInstallSetupProductExecutor" style="stroke: #A80036; stroke-width: 1.5;" width="271" x="376.5" y="170"/><ellipse cx="395.55" cy="186" fill="#A9DCDF" rx="11" ry="11" style="stroke: #A80036; stroke-width: 1.0;"/><path d="M395.6594,181.3438 L394.5031,186.4219 L396.8313,186.4219 L395.6594,181.3438 Z M394.175,179.1094 L397.1594,179.1094 L400.5188,191.5 L398.0656,191.5 L397.3,188.4375 L394.0188,188.4375 L393.2688,191.5 L390.8313,191.5 L394.175,179.1094 Z "/><text fill="#000000" font-family="sans-serif" font-size="12" font-style="italic" lengthAdjust="spacingAndGlyphs" textLength="230" x="410.45" y="190.1543">AbstractInstallSetupProductExecutor</text><line style="stroke: #A80036; stroke-width: 1.5;" x1="377.5" x2="646.5" y1="202" y2="202"/><line style="stroke: #A80036; stroke-width: 1.5;" x1="377.5" x2="646.5" y1="210" y2="210"/><polygon fill="#FFFF44" points="387.5,216.9023,391.5,220.9023,387.5,224.9023,383.5,220.9023" style="stroke: #B38D22; stroke-width: 1.0;"/><text fill="#000000" font-family="sans-serif" font-size="11" lengthAdjust="spacingAndGlyphs" textLength="245" x="396.5" y="224.2104">&lt;I extends InstallSetup&gt; I getInstallSetup()</text><!--class ProductExecutor--><rect fill="#FEFECE" filter="url(#f6e75hcmx4a3p)" height="48" id="ProductExecutor" style="stroke: #A80036; stroke-width: 1.5;" width="136" x="532" y="34.5"/><ellipse cx="547" cy="50.5" fill="#B4A7E5" rx="11" ry="11" style="stroke: #A80036; stroke-width: 1.0;"/><path d="M542.9219,46.2656 L542.9219,44.1094 L550.3125,44.1094 L550.3125,46.2656 L547.8438,46.2656 L547.8438,54.3438 L550.3125,54.3438 L550.3125,56.5 L542.9219,56.5 L542.9219,54.3438 L545.3906,54.3438 L545.3906,46.2656 L542.9219,46.2656 Z "/><text fill="#000000" font-family="sans-serif" font-size="12" font-style="italic" lengthAdjust="spacingAndGlyphs" textLength="104" x="561" y="54.6543">ProductExecutor</text><line style="stroke: #A80036; stroke-width: 1.5;" x1="533" x2="667" y1="66.5" y2="66.5"/><line style="stroke: #A80036; stroke-width: 1.5;" x1="533" x2="667" y1="74.5" y2="74.5"/><!--class InstallSetup--><rect fill="#FEFECE" filter="url(#f6e75hcmx4a3p)" height="60.8047" id="InstallSetup" style="stroke: #A80036; stroke-width: 1.5;" width="288" x="811" y="170"/><ellipse cx="913.75" cy="186" fill="#B4A7E5" rx="11" ry="11" style="stroke: #A80036; stroke-width: 1.0;"/><path d="M909.6719,181.7656 L909.6719,179.6094 L917.0625,179.6094 L917.0625,181.7656 L914.5938,181.7656 L914.5938,189.8438 L917.0625,189.8438 L917.0625,192 L909.6719,192 L909.6719,189.8438 L912.1406,189.8438 L912.1406,181.7656 L909.6719,181.7656 Z "/><text fill="#000000" font-family="sans-serif" font-size="12" font-style="italic" lengthAdjust="spacingAndGlyphs" textLength="74" x="934.25" y="190.1543">InstallSetup</text><line style="stroke: #A80036; stroke-width: 1.5;" x1="812" x2="1098" y1="202" y2="202"/><line style="stroke: #A80036; stroke-width: 1.5;" x1="812" x2="1098" y1="210" y2="210"/><ellipse cx="822" cy="221.9023" fill="#84BE84" rx="3" ry="3" style="stroke: #038048; stroke-width: 1.0;"/><text fill="#000000" font-family="sans-serif" font-size="11" lengthAdjust="spacingAndGlyphs" textLength="262" x="831" y="224.2104">boolean isAbleToScan(TargetType targetType)</text><!--class TargetResolver--><rect fill="#FEFECE" filter="url(#f6e75hcmx4a3p)" height="48" id="TargetResolver" style="stroke: #A80036; stroke-width: 1.5;" width="125" x="93.5" y="308"/><ellipse cx="108.5" cy="324" fill="#B4A7E5" rx="11" ry="11" style="stroke: #A80036; stroke-width: 1.0;"/><path d="M104.4219,319.7656 L104.4219,317.6094 L111.8125,317.6094 L111.8125,319.7656 L109.3438,319.7656 L109.3438,327.8438 L111.8125,327.8438 L111.8125,330 L104.4219,330 L104.4219,327.8438 L106.8906,327.8438 L106.8906,319.7656 L104.4219,319.7656 Z "/><text fill="#000000" font-family="sans-serif" font-size="12" font-style="italic" lengthAdjust="spacingAndGlyphs" textLength="93" x="122.5" y="328.1543">TargetResolver</text><line style="stroke: #A80036; stroke-width: 1.5;" x1="94.5" x2="217.5" y1="340" y2="340"/><line style="stroke: #A80036; stroke-width: 1.5;" x1="94.5" x2="217.5" y1="348" y2="348"/><!--class TargetRegistry--><rect fill="#FEFECE" filter="url(#f6e75hcmx4a3p)" height="48" id="TargetRegistry" style="stroke: #A80036; stroke-width: 1.5;" width="123" x="623.5" y="308"/><ellipse cx="638.5" cy="324" fill="#ADD1B2" rx="11" ry="11" style="stroke: #A80036; stroke-width: 1.0;"/><path d="M641.4688,329.6406 Q640.8906,329.9375 640.25,330.0781 Q639.6094,330.2344 638.9063,330.2344 Q636.4063,330.2344 635.0781,328.5938 Q633.7656,326.9375 633.7656,323.8125 Q633.7656,320.6875 635.0781,319.0313 Q636.4063,317.375 638.9063,317.375 Q639.6094,317.375 640.25,317.5313 Q640.9063,317.6875 641.4688,317.9844 L641.4688,320.7031 Q640.8438,320.125 640.25,319.8594 Q639.6563,319.5781 639.0313,319.5781 Q637.6875,319.5781 637,320.6563 Q636.3125,321.7188 636.3125,323.8125 Q636.3125,325.9063 637,326.9844 Q637.6875,328.0469 639.0313,328.0469 Q639.6563,328.0469 640.25,327.7813 Q640.8438,327.5 641.4688,326.9219 L641.4688,329.6406 Z "/><text fill="#000000" font-family="sans-serif" font-size="12" lengthAdjust="spacingAndGlyphs" textLength="91" x="652.5" y="328.1543">TargetRegistry</text><line style="stroke: #A80036; stroke-width: 1.5;" x1="624.5" x2="745.5" y1="340" y2="340"/><line style="stroke: #A80036; stroke-width: 1.5;" x1="624.5" x2="745.5" y1="348" y2="348"/><!--class SecHubWebScanConfiguration--><rect fill="#FEFECE" filter="url(#f6e75hcmx4a3p)" height="48" id="SecHubWebScanConfiguration" style="stroke: #A80036; stroke-width: 1.5;" width="222" x="1087" y="452"/><ellipse cx="1102" cy="468" fill="#ADD1B2" rx="11" ry="11" style="stroke: #A80036; stroke-width: 1.0;"/><path d="M1104.9688,473.6406 Q1104.3906,473.9375 1103.75,474.0781 Q1103.1094,474.2344 1102.4063,474.2344 Q1099.9063,474.2344 1098.5781,472.5938 Q1097.2656,470.9375 1097.2656,467.8125 Q1097.2656,464.6875 1098.5781,463.0313 Q1099.9063,461.375 1102.4063,461.375 Q1103.1094,461.375 1103.75,461.5313 Q1104.4063,461.6875 1104.9688,461.9844 L1104.9688,464.7031 Q1104.3438,464.125 1103.75,463.8594 Q1103.1563,463.5781 1102.5313,463.5781 Q1101.1875,463.5781 1100.5,464.6563 Q1099.8125,465.7188 1099.8125,467.8125 Q1099.8125,469.9063 1100.5,470.9844 Q1101.1875,472.0469 1102.5313,472.0469 Q1103.1563,472.0469 1103.75,471.7813 Q1104.3438,471.5 1104.9688,470.9219 L1104.9688,473.6406 Z "/><text fill="#000000" font-family="sans-serif" font-size="12" lengthAdjust="spacingAndGlyphs" textLength="190" x="1116" y="472.1543">SecHubWebScanConfiguration</text><line style="stroke: #A80036; stroke-width: 1.5;" x1="1088" x2="1308" y1="484" y2="484"/><line style="stroke: #A80036; stroke-width: 1.5;" x1="1088" x2="1308" y1="492" y2="492"/><!--class SecHubInfrastuctureScanConfiguration--><rect fill="#FEFECE" filter="url(#f6e75hcmx4a3p)" height="48" id="SecHubInfrastuctureScanConfiguration" style="stroke: #A80036; stroke-width: 1.5;" width="276" x="776" y="452"/><ellipse cx="791" cy="468" fill="#ADD1B2" rx="11" ry="11" style="stroke: #A80036; stroke-width: 1.0;"/><path d="M793.9688,473.6406 Q793.3906,473.9375 792.75,474.0781 Q792.1094,474.2344 791.4063,474.2344 Q788.9063,474.2344 787.5781,472.5938 Q786.2656,470.9375 786.2656,467.8125 Q786.2656,464.6875 787.5781,463.0313 Q788.9063,461.375 791.4063,461.375 Q792.1094,461.375 792.75,461.5313 Q793.4063,461.6875 793.9688,461.9844 L793.9688,464.7031 Q793.3438,464.125 792.75,463.8594 Q792.1563,463.5781 791.5313,463.5781 Q790.1875,463.5781 789.5,464.6563 Q788.8125,465.7188 788.8125,467.8125 Q788.8125,469.9063 789.5,470.9844 Q790.1875,472.0469 791.5313,472.0469 Q792.1563,472.0469 792.75,471.7813 Q793.3438,471.5 793.9688,470.9219 L793.9688,473.6406 Z "/><text fill="#000000" font-family="sans-serif" font-size="12" lengthAdjust="spacingAndGlyphs" textLength="244" x="805" y="472.1543">SecHubInfrastuctureScanConfiguration</text><line style="stroke: #A80036; stroke-width: 1.5;" x1="777" x2="1051" y1="484" y2="484"/><line style="stroke: #A80036; stroke-width: 1.5;" x1="777" x2="1051" y1="492" y2="492"/><!--class Target--><rect fill="#FEFECE" filter="url(#f6e75hcmx4a3p)" height="86.4141" id="Target" style="stroke: #A80036; stroke-width: 1.5;" width="147" x="593.5" y="433"/><ellipse cx="642.25" cy="449" fill="#ADD1B2" rx="11" ry="11" style="stroke: #A80036; stroke-width: 1.0;"/><path d="M645.2188,454.6406 Q644.6406,454.9375 644,455.0781 Q643.3594,455.2344 642.6563,455.2344 Q640.1563,455.2344 638.8281,453.5938 Q637.5156,451.9375 637.5156,448.8125 Q637.5156,445.6875 638.8281,444.0313 Q640.1563,442.375 642.6563,442.375 Q643.3594,442.375 644,442.5313 Q644.6563,442.6875 645.2188,442.9844 L645.2188,445.7031 Q644.5938,445.125 644,444.8594 Q643.4063,444.5781 642.7813,444.5781 Q641.4375,444.5781 640.75,445.6563 Q640.0625,446.7188 640.0625,448.8125 Q640.0625,450.9063 640.75,451.9844 Q641.4375,453.0469 642.7813,453.0469 Q643.4063,453.0469 644,452.7813 Q644.5938,452.5 645.2188,451.9219 L645.2188,454.6406 Z "/><text fill="#000000" font-family="sans-serif" font-size="12" lengthAdjust="spacingAndGlyphs" textLength="41" x="662.75" y="453.1543">Target</text><line style="stroke: #A80036; stroke-width: 1.5;" x1="594.5" x2="739.5" y1="465" y2="465"/><line style="stroke: #A80036; stroke-width: 1.5;" x1="594.5" x2="739.5" y1="473" y2="473"/><ellipse cx="604.5" cy="484.9023" fill="#84BE84" rx="3" ry="3" style="stroke: #038048; stroke-width: 1.0;"/><text fill="#000000" font-family="sans-serif" font-size="11" lengthAdjust="spacingAndGlyphs" textLength="44" x="613.5" y="487.2104">getURI()</text><ellipse cx="604.5" cy="497.707" fill="#84BE84" rx="3" ry="3" style="stroke: #038048; stroke-width: 1.0;"/><text fill="#000000" font-family="sans-serif" font-size="11" lengthAdjust="spacingAndGlyphs" textLength="36" x="613.5" y="500.0151">getIP()</text><ellipse cx="604.5" cy="510.5117" fill="#84BE84" rx="3" ry="3" style="stroke: #038048; stroke-width: 1.0;"/><text fill="#000000" font-family="sans-serif" font-size="11" lengthAdjust="spacingAndGlyphs" textLength="121" x="613.5" y="512.8198">TargetType getType()</text><!--class TargetData--><rect fill="#FEFECE" filter="url(#f6e75hcmx4a3p)" height="86.4141" id="TargetData" style="stroke: #A80036; stroke-width: 1.5;" width="215" x="343.5" y="433"/><ellipse cx="411.25" cy="449" fill="#ADD1B2" rx="11" ry="11" style="stroke: #A80036; stroke-width: 1.0;"/><path d="M414.2188,454.6406 Q413.6406,454.9375 413,455.0781 Q412.3594,455.2344 411.6563,455.2344 Q409.1563,455.2344 407.8281,453.5938 Q406.5156,451.9375 406.5156,448.8125 Q406.5156,445.6875 407.8281,444.0313 Q409.1563,442.375 411.6563,442.375 Q412.3594,442.375 413,442.5313 Q413.6563,442.6875 414.2188,442.9844 L414.2188,445.7031 Q413.5938,445.125 413,444.8594 Q412.4063,444.5781 411.7813,444.5781 Q410.4375,444.5781 409.75,445.6563 Q409.0625,446.7188 409.0625,448.8125 Q409.0625,450.9063 409.75,451.9844 Q410.4375,453.0469 411.7813,453.0469 Q412.4063,453.0469 413,452.7813 Q413.5938,452.5 414.2188,451.9219 L414.2188,454.6406 Z "/><text fill="#000000" font-family="sans-serif" font-size="12" lengthAdjust="spacingAndGlyphs" textLength="71" x="431.75" y="453.1543">TargetData</text><line style="stroke: #A80036; stroke-width: 1.5;" x1="344.5" x2="557.5" y1="465" y2="465"/><line style="stroke: #A80036; stroke-width: 1.5;" x1="344.5" x2="557.5" y1="473" y2="473"/><ellipse cx="354.5" cy="484.9023" fill="#84BE84" rx="3" ry="3" style="stroke: #038048; stroke-width: 1.0;"/><text fill="#000000" font-family="sans-serif" font-size="11" lengthAdjust="spacingAndGlyphs" textLength="158" x="363.5" y="487.2104">TargetType getTargetType()</text><ellipse cx="354.5" cy="497.707" fill="#84BE84" rx="3" ry="3" style="stroke: #038048; stroke-width: 1.0;"/><text fill="#000000" font-family="sans-serif" font-size="11" lengthAdjust="spacingAndGlyphs" textLength="147" x="363.5" y="500.0151">Set&lt;URI&gt; getTargetURIs()</text><ellipse cx="354.5" cy="510.5117" fill="#84BE84" rx="3" ry="3" style="stroke: #038048; stroke-width: 1.0;"/><text fill="#000000" font-family="sans-serif" font-size="11" lengthAdjust="spacingAndGlyphs" textLength="189" x="363.5" y="512.8198">Set&lt;InetAddress&gt; getTargetIPs()</text><!--class TargetType--><rect fill="#FEFECE" filter="url(#f6e75hcmx4a3p)" height="112.0234" id="TargetType" style="stroke: #A80036; stroke-width: 1.5;" width="102" x="616" y="580"/><ellipse cx="631" cy="596" fill="#EB937F" rx="11" ry="11" style="stroke: #A80036; stroke-width: 1.0;"/><path d="M635.1094,602 L627.3906,602 L627.3906,589.6094 L635.1094,589.6094 L635.1094,591.7656 L629.8438,591.7656 L629.8438,594.4375 L634.6094,594.4375 L634.6094,596.5938 L629.8438,596.5938 L629.8438,599.8438 L635.1094,599.8438 L635.1094,602 Z "/><text fill="#000000" font-family="sans-serif" font-size="12" lengthAdjust="spacingAndGlyphs" textLength="70" x="645" y="600.1543">TargetType</text><line style="stroke: #A80036; stroke-width: 1.5;" x1="617" x2="717" y1="612" y2="612"/><text fill="#000000" font-family="sans-serif" font-size="11" lengthAdjust="spacingAndGlyphs" textLength="54" x="622" y="626.2104">INTERNET</text><text fill="#000000" font-family="sans-serif" font-size="11" lengthAdjust="spacingAndGlyphs" textLength="54" x="622" y="639.0151">INTRANET</text><text fill="#000000" font-family="sans-serif" font-size="11" lengthAdjust="spacingAndGlyphs" textLength="83" x="622" y="651.8198">CODE_UPLOAD</text><text fill="#000000" font-family="sans-serif" font-size="11" lengthAdjust="spacingAndGlyphs" textLength="44" x="622" y="664.6245">ILLEGAL</text><text fill="#000000" font-family="sans-serif" font-size="11" lengthAdjust="spacingAndGlyphs" textLength="57" x="622" y="677.4292">UNKNOWN</text><line style="stroke: #A80036; stroke-width: 1.5;" x1="617" x2="717" y1="684.0234" y2="684.0234"/><!--class AbstractAdapterConfigBuilder--><rect fill="#FEFECE" filter="url(#f6e75hcmx4a3p)" height="48" id="AbstractAdapterConfigBuilder" style="stroke: #A80036; stroke-width: 1.5;" width="217" x="253.5" y="308"/><ellipse cx="268.5" cy="324" fill="#ADD1B2" rx="11" ry="11" style="stroke: #A80036; stroke-width: 1.0;"/><path d="M271.4688,329.6406 Q270.8906,329.9375 270.25,330.0781 Q269.6094,330.2344 268.9063,330.2344 Q266.4063,330.2344 265.0781,328.5938 Q263.7656,326.9375 263.7656,323.8125 Q263.7656,320.6875 265.0781,319.0313 Q266.4063,317.375 268.9063,317.375 Q269.6094,317.375 270.25,317.5313 Q270.9063,317.6875 271.4688,317.9844 L271.4688,320.7031 Q270.8438,320.125 270.25,319.8594 Q269.6563,319.5781 269.0313,319.5781 Q267.6875,319.5781 267,320.6563 Q266.3125,321.7188 266.3125,323.8125 Q266.3125,325.9063 267,326.9844 Q267.6875,328.0469 269.0313,328.0469 Q269.6563,328.0469 270.25,327.7813 Q270.8438,327.5 271.4688,326.9219 L271.4688,329.6406 Z "/><text fill="#000000" font-family="sans-serif" font-size="12" lengthAdjust="spacingAndGlyphs" textLength="185" x="282.5" y="328.1543">AbstractAdapterConfigBuilder</text><line style="stroke: #A80036; stroke-width: 1.5;" x1="254.5" x2="469.5" y1="340" y2="340"/><line style="stroke: #A80036; stroke-width: 1.5;" x1="254.5" x2="469.5" y1="348" y2="348"/><!--class Adapter--><rect fill="#FEFECE" filter="url(#f6e75hcmx4a3p)" height="48" id="Adapter" style="stroke: #A80036; stroke-width: 1.5;" width="82" x="506" y="308"/><ellipse cx="521" cy="324" fill="#ADD1B2" rx="11" ry="11" style="stroke: #A80036; stroke-width: 1.0;"/><path d="M523.9688,329.6406 Q523.3906,329.9375 522.75,330.0781 Q522.1094,330.2344 521.4063,330.2344 Q518.9063,330.2344 517.5781,328.5938 Q516.2656,326.9375 516.2656,323.8125 Q516.2656,320.6875 517.5781,319.0313 Q518.9063,317.375 521.4063,317.375 Q522.1094,317.375 522.75,317.5313 Q523.4063,317.6875 523.9688,317.9844 L523.9688,320.7031 Q523.3438,320.125 522.75,319.8594 Q522.1563,319.5781 521.5313,319.5781 Q520.1875,319.5781 519.5,320.6563 Q518.8125,321.7188 518.8125,323.8125 Q518.8125,325.9063 519.5,326.9844 Q520.1875,328.0469 521.5313,328.0469 Q522.1563,328.0469 522.75,327.7813 Q523.3438,327.5 523.9688,326.9219 L523.9688,329.6406 Z "/><text fill="#000000" font-family="sans-serif" font-size="12" lengthAdjust="spacingAndGlyphs" textLength="50" x="535" y="328.1543">Adapter</text><line style="stroke: #A80036; stroke-width: 1.5;" x1="507" x2="587" y1="340" y2="340"/><line style="stroke: #A80036; stroke-width: 1.5;" x1="507" x2="587" y1="348" y2="348"/><!--class URI--><rect fill="#FEFECE" filter="url(#f6e75hcmx4a3p)" height="48" id="URI" style="stroke: #A80036; stroke-width: 1.5;" width="52" x="888" y="612"/><ellipse cx="903" cy="628" fill="#ADD1B2" rx="11" ry="11" style="stroke: #A80036; stroke-width: 1.0;"/><path d="M905.9688,633.6406 Q905.3906,633.9375 904.75,634.0781 Q904.1094,634.2344 903.4063,634.2344 Q900.9063,634.2344 899.5781,632.5938 Q898.2656,630.9375 898.2656,627.8125 Q898.2656,624.6875 899.5781,623.0313 Q900.9063,621.375 903.4063,621.375 Q904.1094,621.375 904.75,621.5313 Q905.4063,621.6875 905.9688,621.9844 L905.9688,624.7031 Q905.3438,624.125 904.75,623.8594 Q904.1563,623.5781 903.5313,623.5781 Q902.1875,623.5781 901.5,624.6563 Q900.8125,625.7188 900.8125,627.8125 Q900.8125,629.9063 901.5,630.9844 Q902.1875,632.0469 903.5313,632.0469 Q904.1563,632.0469 904.75,631.7813 Q905.3438,631.5 905.9688,630.9219 L905.9688,633.6406 Z "/><text fill="#000000" font-family="sans-serif" font-size="12" lengthAdjust="spacingAndGlyphs" textLength="20" x="917" y="632.1543">URI</text><line style="stroke: #A80036; stroke-width: 1.5;" x1="889" x2="939" y1="644" y2="644"/><line style="stroke: #A80036; stroke-width: 1.5;" x1="889" x2="939" y1="652" y2="652"/><!--class InetAdress--><rect fill="#FEFECE" filter="url(#f6e75hcmx4a3p)" height="48" id="InetAdress" style="stroke: #A80036; stroke-width: 1.5;" width="99" x="753.5" y="612"/><ellipse cx="768.5" cy="628" fill="#ADD1B2" rx="11" ry="11" style="stroke: #A80036; stroke-width: 1.0;"/><path d="M771.4688,633.6406 Q770.8906,633.9375 770.25,634.0781 Q769.6094,634.2344 768.9063,634.2344 Q766.4063,634.2344 765.0781,632.5938 Q763.7656,630.9375 763.7656,627.8125 Q763.7656,624.6875 765.0781,623.0313 Q766.4063,621.375 768.9063,621.375 Q769.6094,621.375 770.25,621.5313 Q770.9063,621.6875 771.4688,621.9844 L771.4688,624.7031 Q770.8438,624.125 770.25,623.8594 Q769.6563,623.5781 769.0313,623.5781 Q767.6875,623.5781 767,624.6563 Q766.3125,625.7188 766.3125,627.8125 Q766.3125,629.9063 767,630.9844 Q767.6875,632.0469 769.0313,632.0469 Q769.6563,632.0469 770.25,631.7813 Q770.8438,631.5 771.4688,630.9219 L771.4688,633.6406 Z "/><text fill="#000000" font-family="sans-serif" font-size="12" lengthAdjust="spacingAndGlyphs" textLength="67" x="782.5" y="632.1543">InetAdress</text><line style="stroke: #A80036; stroke-width: 1.5;" x1="754.5" x2="851.5" y1="644" y2="644"/><line style="stroke: #A80036; stroke-width: 1.5;" x1="754.5" x2="851.5" y1="652" y2="652"/><!--class SecHubConfiguration--><rect fill="#FEFECE" filter="url(#f6e75hcmx4a3p)" height="48" id="SecHubConfiguration" style="stroke: #A80036; stroke-width: 1.5;" width="164" x="1064" y="308"/><ellipse cx="1079" cy="324" fill="#ADD1B2" rx="11" ry="11" style="stroke: #A80036; stroke-width: 1.0;"/><path d="M1081.9688,329.6406 Q1081.3906,329.9375 1080.75,330.0781 Q1080.1094,330.2344 1079.4063,330.2344 Q1076.9063,330.2344 1075.5781,328.5938 Q1074.2656,326.9375 1074.2656,323.8125 Q1074.2656,320.6875 1075.5781,319.0313 Q1076.9063,317.375 1079.4063,317.375 Q1080.1094,317.375 1080.75,317.5313 Q1081.4063,317.6875 1081.9688,317.9844 L1081.9688,320.7031 Q1081.3438,320.125 1080.75,319.8594 Q1080.1563,319.5781 1079.5313,319.5781 Q1078.1875,319.5781 1077.5,320.6563 Q1076.8125,321.7188 1076.8125,323.8125 Q1076.8125,325.9063 1077.5,326.9844 Q1078.1875,328.0469 1079.5313,328.0469 Q1080.1563,328.0469 1080.75,327.7813 Q1081.3438,327.5 1081.9688,326.9219 L1081.9688,329.6406 Z "/><text fill="#000000" font-family="sans-serif" font-size="12" lengthAdjust="spacingAndGlyphs" textLength="132" x="1093" y="328.1543">SecHubConfiguration</text><line style="stroke: #A80036; stroke-width: 1.5;" x1="1065" x2="1227" y1="340" y2="340"/><line style="stroke: #A80036; stroke-width: 1.5;" x1="1065" x2="1227" y1="348" y2="348"/><!--class SecHubCodeScanConfiguration--><rect fill="#FEFECE" filter="url(#f6e75hcmx4a3p)" height="48" id="SecHubCodeScanConfiguration" style="stroke: #A80036; stroke-width: 1.5;" width="227" x="1344.5" y="452"/><ellipse cx="1359.5" cy="468" fill="#ADD1B2" rx="11" ry="11" style="stroke: #A80036; stroke-width: 1.0;"/><path d="M1362.4688,473.6406 Q1361.8906,473.9375 1361.25,474.0781 Q1360.6094,474.2344 1359.9063,474.2344 Q1357.4063,474.2344 1356.0781,472.5938 Q1354.7656,470.9375 1354.7656,467.8125 Q1354.7656,464.6875 1356.0781,463.0313 Q1357.4063,461.375 1359.9063,461.375 Q1360.6094,461.375 1361.25,461.5313 Q1361.9063,461.6875 1362.4688,461.9844 L1362.4688,464.7031 Q1361.8438,464.125 1361.25,463.8594 Q1360.6563,463.5781 1360.0313,463.5781 Q1358.6875,463.5781 1358,464.6563 Q1357.3125,465.7188 1357.3125,467.8125 Q1357.3125,469.9063 1358,470.9844 Q1358.6875,472.0469 1360.0313,472.0469 Q1360.6563,472.0469 1361.25,471.7813 Q1361.8438,471.5 1362.4688,470.9219 L1362.4688,473.6406 Z "/><text fill="#000000" font-family="sans-serif" font-size="12" lengthAdjust="spacingAndGlyphs" textLength="195" x="1373.5" y="472.1543">SecHubCodeScanConfiguration</text><line style="stroke: #A80036; stroke-width: 1.5;" x1="1345.5" x2="1570.5" y1="484" y2="484"/><line style="stroke: #A80036; stroke-width: 1.5;" x1="1345.5" x2="1570.5" y1="492" y2="492"/><path d="M6,173 L6,228.3984 A0,0 0 0 0 6,228.3984 L152,228.3984 L156,307.98 L160,228.3984 L306,228.3984 A0,0 0 0 0 306,228.3984 L306,183 L296,173 L6,173 A0,0 0 0 0 6,173 " fill="#FBFB77" filter="url(#f6e75hcmx4a3p)" style="stroke: #A80036; stroke-width: 1.0;"/><path d="M296,173 L296,183 L306,183 L296,173 " fill="#FBFB77" style="stroke: #A80036; stroke-width: 1.0;"/><text fill="#000000" font-family="sans-serif" font-size="13" lengthAdjust="spacingAndGlyphs" textLength="252" x="12" y="190.0669">Resolves information on given IP or URI.</text><text fill="#000000" font-family="sans-serif" font-size="13" lengthAdjust="spacingAndGlyphs" textLength="209" x="12" y="205.1997">Determines also the TargetType.</text><text fill="#000000" font-family="sans-serif" font-size="13" lengthAdjust="spacingAndGlyphs" textLength="279" x="12" y="220.3325">So dedicated installation setup can be used</text><path d="M341,608.5 L341,663.8984 A0,0 0 0 0 341,663.8984 L561,663.8984 A0,0 0 0 0 561,663.8984 L561,618.5 L551,608.5 L455,608.5 L451,519.34 L447,608.5 L341,608.5 A0,0 0 0 0 341,608.5 " fill="#FBFB77" filter="url(#f6e75hcmx4a3p)" style="stroke: #A80036; stroke-width: 1.0;"/><path d="M551,608.5 L551,618.5 L561,618.5 L551,608.5 " fill="#FBFB77" style="stroke: #A80036; stroke-width: 1.0;"/><text fill="#000000" font-family="sans-serif" font-size="13" lengthAdjust="spacingAndGlyphs" textLength="166" x="347" y="625.5669">Contains information for a</text><text fill="#000000" font-family="sans-serif" font-size="13" lengthAdjust="spacingAndGlyphs" textLength="177" x="347" y="640.6997">dedicated TargetType which</text><text fill="#000000" font-family="sans-serif" font-size="13" lengthAdjust="spacingAndGlyphs" textLength="199" x="347" y="655.8325">can be used to call the adapter</text><path d="M111.5,8 L111.5,108.7969 A0,0 0 0 0 111.5,108.7969 L373.63,108.7969 L468.17,170 L381.63,108.7969 L496.5,108.7969 A0,0 0 0 0 496.5,108.7969 L496.5,18 L486.5,8 L111.5,8 A0,0 0 0 0 111.5,8 " fill="#FBFB77" filter="url(#f6e75hcmx4a3p)" style="stroke: #A80036; stroke-width: 1.0;"/><path d="M486.5,8 L486.5,18 L496.5,18 L486.5,8 " fill="#FBFB77" style="stroke: #A80036; stroke-width: 1.0;"/><text fill="#000000" font-family="sans-serif" font-size="13" lengthAdjust="spacingAndGlyphs" textLength="364" x="117.5" y="25.0669">This abstract implementation is able to automatically call</text><text fill="#000000" font-family="sans-serif" font-size="13" lengthAdjust="spacingAndGlyphs" textLength="331" x="117.5" y="40.1997">adapter for multiple targets with correct setup data.</text><text fill="#000000" font-family="sans-serif" font-size="13" lengthAdjust="spacingAndGlyphs" textLength="0" x="121.5" y="55.3325"/><text fill="#000000" font-family="sans-serif" font-size="13" lengthAdjust="spacingAndGlyphs" textLength="325" x="117.5" y="70.4653">E.g.a netsparker product executor uses its injected</text><text fill="#000000" font-family="sans-serif" font-size="13" lengthAdjust="spacingAndGlyphs" textLength="331" x="117.5" y="85.5981">NetsparkerInstallationSetup and differs Intranet and</text><text fill="#000000" font-family="sans-serif" font-size="13" lengthAdjust="spacingAndGlyphs" textLength="211" x="117.5" y="100.731">Intranet by different agentgroups</text><path d="M790,31 L790,86.3984 A0,0 0 0 0 790,86.3984 L951,86.3984 L955,169.54 L959,86.3984 L1120,86.3984 A0,0 0 0 0 1120,86.3984 L1120,41 L1110,31 L790,31 A0,0 0 0 0 790,31 " fill="#FBFB77" filter="url(#f6e75hcmx4a3p)" style="stroke: #A80036; stroke-width: 1.0;"/><path d="M1110,31 L1110,41 L1120,41 L1110,31 " fill="#FBFB77" style="stroke: #A80036; stroke-width: 1.0;"/><text fill="#000000" font-family="sans-serif" font-size="13" lengthAdjust="spacingAndGlyphs" textLength="305" x="796" y="48.0669">The install setup contains the information about</text><text fill="#000000" font-family="sans-serif" font-size="13" lengthAdjust="spacingAndGlyphs" textLength="276" x="796" y="63.1997">servers, usernames, passwords etc. for the</text><text fill="#000000" font-family="sans-serif" font-size="13" lengthAdjust="spacingAndGlyphs" textLength="130" x="796" y="78.3325">calling of the adaper</text><!--link ProductExecutor to AbstractInstallSetupProductExecutor--><path d="M574.79,99.6 C560.74,121.96 543.54,149.33 530.69,169.76 " fill="none" id="ProductExecutor-AbstractInstallSetupProductExecutor" style="stroke: #A80036; stroke-width: 1.0;"/><polygon fill="none" points="568.9,95.83,585.47,82.62,580.75,103.28,568.9,95.83" style="stroke: #A80036; stroke-width: 1.0;"/><!--link AbstractInstallSetupProductExecutor to TargetResolver--><path d="M418.42,235.54 C355.36,258.48 273.9,288.11 218.59,308.23 " fill="none" id="AbstractInstallSetupProductExecutor-TargetResolver" style="stroke: #A80036; stroke-width: 1.0;"/><polygon fill="#FFFFFF" points="430.77,231.05,423.7641,229.3419,419.4929,235.152,426.4988,236.86,430.77,231.05" style="stroke: #A80036; stroke-width: 1.0;"/><text fill="#000000" font-family="sans-serif" font-size="13" lengthAdjust="spacingAndGlyphs" textLength="30" x="346" y="274.0669">uses</text><!--link AbstractInstallSetupProductExecutor to AbstractAdapterConfigBuilder--><path d="M467.72,239.73 C442.09,261.85 410.68,288.98 388.78,307.88 " fill="none" id="AbstractInstallSetupProductExecutor-AbstractAdapterConfigBuilder" style="stroke: #A80036; stroke-width: 1.0;"/><polygon fill="#FFFFFF" points="477.59,231.21,470.4345,232.1042,468.5078,239.0531,475.6633,238.1589,477.59,231.21" style="stroke: #A80036; stroke-width: 1.0;"/><text fill="#000000" font-family="sans-serif" font-size="13" lengthAdjust="spacingAndGlyphs" textLength="30" x="443" y="274.0669">uses</text><!--link AbstractInstallSetupProductExecutor to Adapter--><path d="M505.13,244.34 C504.73,255.51 505.59,267.38 509,278 C512.46,288.78 519.02,299.22 525.72,307.95 " fill="none" id="AbstractInstallSetupProductExecutor-Adapter" style="stroke: #A80036; stroke-width: 1.0;"/><polygon fill="#FFFFFF" points="506.14,231.21,501.6902,236.8844,505.2166,243.1744,509.6664,237.5,506.14,231.21" style="stroke: #A80036; stroke-width: 1.0;"/><text fill="#000000" font-family="sans-serif" font-size="13" lengthAdjust="spacingAndGlyphs" textLength="231" x="510" y="274.0669">calls the adapter with created config</text><!--link AbstractInstallSetupProductExecutor to InstallSetup--><path d="M647.62,200.5 C699.27,200.5 758.28,200.5 810.7,200.5 " fill="none" id="AbstractInstallSetupProductExecutor-InstallSetup" style="stroke: #A80036; stroke-width: 1.0;"/><text fill="#000000" font-family="sans-serif" font-size="13" lengthAdjust="spacingAndGlyphs" textLength="123" x="665.75" y="178.5669">implementation will</text><text fill="#000000" font-family="sans-serif" font-size="13" lengthAdjust="spacingAndGlyphs" textLength="112" x="673.25" y="193.6997">have this injected</text><text fill="#000000" font-family="sans-serif" font-size="13" lengthAdjust="spacingAndGlyphs" textLength="8" x="655.6918" y="197.1428">1</text><text fill="#000000" font-family="sans-serif" font-size="13" lengthAdjust="spacingAndGlyphs" textLength="8" x="795.0533" y="197.1886">1</text><!--link AbstractInstallSetupProductExecutor to InstallSetup--><path d="M647.57,216 C668.53,217.87 689.95,219.48 710.25,220.5 C741.17,222.06 774.24,221.12 805.75,218.98 " fill="none" id="AbstractInstallSetupProductExecutor-InstallSetup" style="stroke: #A80036; stroke-width: 1.0;"/><polygon fill="#A80036" points="810.8,218.63,801.5468,215.2569,805.8118,218.973,802.0956,223.238,810.8,218.63" style="stroke: #A80036; stroke-width: 1.0;"/><text fill="#000000" font-family="sans-serif" font-size="13" lengthAdjust="spacingAndGlyphs" textLength="36" x="711.25" y="216.5669">reads</text><!--link AbstractInstallSetupProductExecutor to TargetRegistry--><path d="M660.47,224.25 C699.43,233.39 733.96,245.51 746,261 C758.57,277.16 743.65,294.52 725.43,307.9 " fill="none" id="AbstractInstallSetupProductExecutor-TargetRegistry" style="stroke: #A80036; stroke-width: 1.0;"/><polygon fill="#A80036" points="647.69,221.39,652.6701,226.6052,659.3996,224.0141,654.4195,218.7989,647.69,221.39" style="stroke: #A80036; stroke-width: 1.0;"/><text fill="#000000" font-family="sans-serif" font-size="13" lengthAdjust="spacingAndGlyphs" textLength="110" x="752" y="274.0669">creates and uses</text><!--link TargetRegistry to Target--><path d="M680.43,369.05 C677.96,388.51 674.9,412.64 672.33,432.95 " fill="none" id="TargetRegistry-Target" style="stroke: #A80036; stroke-width: 1.0;"/><polygon fill="#A80036" points="682.07,356.13,677.35,361.5817,680.567,368.0355,685.287,362.5838,682.07,356.13" style="stroke: #A80036; stroke-width: 1.0;"/><text fill="#000000" font-family="sans-serif" font-size="13" lengthAdjust="spacingAndGlyphs" textLength="54" x="680" y="399.0669">contains</text><text fill="#000000" font-family="sans-serif" font-size="13" lengthAdjust="spacingAndGlyphs" textLength="8" x="672.3808" y="375.9229">1</text><text fill="#000000" font-family="sans-serif" font-size="13" lengthAdjust="spacingAndGlyphs" textLength="8" x="664.542" y="421.9381">n</text><!--link TargetRegistry to TargetData--><path d="M646.88,356.13 C613.9,376.15 565.25,405.67 524.69,430.28 " fill="none" id="TargetRegistry-TargetData" style="stroke: #A80036; stroke-width: 1.0;"/><polygon fill="#A80036" points="520.29,432.95,530.0594,431.7017,524.5648,430.3566,525.91,424.862,520.29,432.95" style="stroke: #A80036; stroke-width: 1.0;"/><text fill="#000000" font-family="sans-serif" font-size="13" lengthAdjust="spacingAndGlyphs" textLength="54" x="597" y="399.0669">provides</text><!--link TargetResolver to Target--><path d="M218.62,352.22 C224.46,353.64 230.32,354.94 236,356 C381.19,383.2 431.46,327.28 567,386 C589.6,395.79 610.63,412.73 627.51,429.22 " fill="none" id="TargetResolver-Target" style="stroke: #A80036; stroke-width: 1.0;"/><polygon fill="#A80036" points="631.27,432.95,627.6973,423.772,627.7202,429.4288,622.0634,429.4517,631.27,432.95" style="stroke: #A80036; stroke-width: 1.0;"/><text fill="#000000" font-family="sans-serif" font-size="13" lengthAdjust="spacingAndGlyphs" textLength="48" x="198.0604" y="374.6251">creates</text><!--link Target to TargetType--><path d="M667,532.42 C667,547.76 667,564.41 667,579.74 " fill="none" id="Target-TargetType" style="stroke: #A80036; stroke-width: 1.0;"/><polygon fill="#A80036" points="667,519.34,663,525.34,667,531.34,671,525.34,667,519.34" style="stroke: #A80036; stroke-width: 1.0;"/><!--link Target to URI--><path d="M752.48,518.26 C803.2,543.12 859.6,571.54 870,580 C881.1,589.03 891.24,601.29 898.99,611.95 " fill="none" id="Target-URI" style="stroke: #A80036; stroke-width: 1.0;"/><polygon fill="#A80036" points="740.76,512.53,744.3899,518.7609,751.5376,517.8067,747.9077,511.5758,740.76,512.53" style="stroke: #A80036; stroke-width: 1.0;"/><text fill="#000000" font-family="sans-serif" font-size="13" lengthAdjust="spacingAndGlyphs" textLength="8" x="748.4145" y="512.4407">1</text><text fill="#000000" font-family="sans-serif" font-size="13" lengthAdjust="spacingAndGlyphs" textLength="24" x="868.0687" y="600.9492">0..1</text><!--link Target to InetAdress--><path d="M712.06,529.35 C736.03,557.2 764.32,590.06 782.9,611.65 " fill="none" id="Target-InetAdress" style="stroke: #A80036; stroke-width: 1.0;"/><polygon fill="#A80036" points="703.45,519.34,704.3322,526.4969,711.278,528.4352,710.3957,521.2783,703.45,519.34" style="stroke: #A80036; stroke-width: 1.0;"/><text fill="#000000" font-family="sans-serif" font-size="13" lengthAdjust="spacingAndGlyphs" textLength="8" x="700.6217" y="539.4871">1</text><text fill="#000000" font-family="sans-serif" font-size="13" lengthAdjust="spacingAndGlyphs" textLength="24" x="751.0756" y="600.9696">0..1</text><!--link AbstractInstallSetupProductExecutor to SecHubConfiguration--><path d="M647.61,221.19 C715.02,231.68 797.58,245.6 871,261 C934.42,274.3 1005.26,292.41 1059.16,306.88 " fill="none" id="AbstractInstallSetupProductExecutor-SecHubConfiguration" style="stroke: #A80036; stroke-width: 1.0;"/><polygon fill="#A80036" points="1064,308.18,1056.3494,301.9778,1059.1719,306.8801,1054.2696,309.7027,1064,308.18" style="stroke: #A80036; stroke-width: 1.0;"/><text fill="#000000" font-family="sans-serif" font-size="13" lengthAdjust="spacingAndGlyphs" textLength="36" x="941" y="274.0669">reads</text><!--link SecHubConfiguration to SecHubWebScanConfiguration--><path d="M1159.01,368.52 C1168.56,394.6 1181.26,429.29 1189.53,451.88 " fill="none" id="SecHubConfiguration-SecHubWebScanConfiguration" style="stroke: #A80036; stroke-width: 1.0;"/><polygon fill="#A80036" points="1154.47,356.13,1152.7791,363.14,1158.5995,367.3971,1160.2904,360.387,1154.47,356.13" style="stroke: #A80036; stroke-width: 1.0;"/><!--link SecHubConfiguration to SecHubInfrastuctureScanConfiguration--><path d="M1097.08,362.94 C1053.74,389.47 991.37,427.64 951.77,451.88 " fill="none" id="SecHubConfiguration-SecHubInfrastuctureScanConfiguration" style="stroke: #A80036; stroke-width: 1.0;"/><polygon fill="#A80036" points="1108.21,356.13,1101.0043,355.8508,1097.9752,362.3949,1105.1809,362.674,1108.21,356.13" style="stroke: #A80036; stroke-width: 1.0;"/><!--link SecHubConfiguration to SecHubCodeScanConfiguration--><path d="M1208.86,361.61 C1267.32,388.22 1353.32,427.36 1407.46,452 " fill="none" id="SecHubConfiguration-SecHubCodeScanConfiguration" style="stroke: #A80036; stroke-width: 1.0;"/><polygon fill="#A80036" points="1196.82,356.13,1200.6259,362.255,1207.7435,361.0976,1203.9376,354.9726,1196.82,356.13" style="stroke: #A80036; stroke-width: 1.0;"/><!--link SecHubWebScanConfiguration to URI--><path d="M1144.71,506.65 C1083.71,540.58 986.27,594.79 940.01,620.53 " fill="none" id="SecHubWebScanConfiguration-URI" style="stroke: #A80036; stroke-width: 1.0;"/><polygon fill="#A80036" points="1156.4,500.14,1149.2123,499.5595,1145.912,505.9711,1153.0997,506.5515,1156.4,500.14" style="stroke: #A80036; stroke-width: 1.0;"/><text fill="#000000" font-family="sans-serif" font-size="13" lengthAdjust="spacingAndGlyphs" textLength="8" x="1137.285" y="519.9353">1</text><text fill="#000000" font-family="sans-serif" font-size="13" lengthAdjust="spacingAndGlyphs" textLength="8" x="948.0752" y="611.4416">n</text><!--link SecHubInfrastuctureScanConfiguration to URI--><path d="M914,513.71 C914,544 914,586.05 914,611.85 " fill="none" id="SecHubInfrastuctureScanConfiguration-URI" style="stroke: #A80036; stroke-width: 1.0;"/><polygon fill="#A80036" points="914,500.31,910,506.31,914,512.31,918,506.31,914,500.31" style="stroke: #A80036; stroke-width: 1.0;"/><text fill="#000000" font-family="sans-serif" font-size="13" lengthAdjust="spacingAndGlyphs" textLength="8" x="905.025" y="520.1468">1</text><text fill="#000000" font-family="sans-serif" font-size="13" lengthAdjust="spacingAndGlyphs" textLength="8" x="904.975" y="600.8236">n</text><!--link SecHubInfrastuctureScanConfiguration to InetAdress--><path d="M889.93,511.27 C868.54,541.7 837.88,585.35 819.26,611.85 " fill="none" id="SecHubInfrastuctureScanConfiguration-InetAdress" style="stroke: #A80036; stroke-width: 1.0;"/><polygon fill="#A80036" points="897.62,500.31,890.8971,502.9182,890.719,510.1271,897.4419,507.5189,897.62,500.31" style="stroke: #A80036; stroke-width: 1.0;"/><text fill="#000000" font-family="sans-serif" font-size="13" lengthAdjust="spacingAndGlyphs" textLength="8" x="884.6524" y="520.1468">1</text><text fill="#000000" font-family="sans-serif" font-size="13" lengthAdjust="spacingAndGlyphs" textLength="8" x="814.4016" y="600.8236">n</text><!--
@startuml

abstract class AbstractInstallSetupProductExecutor{
   # <I extends InstallSetup> I getInstallSetup()
}
interface ProductExecutor
interface InstallSetup{
    + boolean isAbleToScan(TargetType targetType)
}
interface TargetResolver
class TargetRegistry
class SecHubWebScanConfiguration
class SecHubInfrastuctureScanConfiguration

class Target{
  + getURI()
  + getIP()
  + TargetType getType()
}
class TargetData{
    + TargetType getTargetType()
    + Set<URI> getTargetURIs()
    + Set<InetAddress> getTargetIPs()
}
enum TargetType {
  INTERNET
  INTRANET
  CODE_UPLOAD
  ILLEGAL
  UNKNOWN
}

ProductExecutor <|- - AbstractInstallSetupProductExecutor
AbstractInstallSetupProductExecutor o- - TargetResolver : uses
AbstractInstallSetupProductExecutor o- - AbstractAdapterConfigBuilder: uses
AbstractInstallSetupProductExecutor o- - Adapter: calls the adapter with created config
AbstractInstallSetupProductExecutor "1" - "1" InstallSetup : implementation will \nhave this injected
AbstractInstallSetupProductExecutor - -> InstallSetup : reads
AbstractInstallSetupProductExecutor *- - TargetRegistry: creates and uses

TargetRegistry "1" *- - "n" Target : contains
TargetRegistry - -> TargetData : provides
TargetResolver "creates" - -> Target
Target *- - TargetType
Target "1" *- - "0..1" URI
Target "1" *- - "0..1" InetAdress
AbstractInstallSetupProductExecutor - -> SecHubConfiguration : reads

SecHubConfiguration *- - SecHubWebScanConfiguration
SecHubConfiguration *- - SecHubInfrastuctureScanConfiguration
SecHubConfiguration *- - SecHubCodeScanConfiguration

SecHubWebScanConfiguration "1" *- - "n" URI
SecHubInfrastuctureScanConfiguration "1" *- - "n" URI
SecHubInfrastuctureScanConfiguration "1" *- - "n" InetAdress

note top of TargetResolver: Resolves information on given IP or URI.\nDetermines also the TargetType.\nSo dedicated installation setup can be used
note bottom of TargetData: Contains information for a \ndedicated TargetType which\ncan be used to call the adapter

note top of AbstractInstallSetupProductExecutor: This abstract implementation is able to automatically call\nadapter for multiple targets with correct setup data.\n\nE.g.a netsparker product executor uses its injected\nNetsparkerInstallationSetup and differs Intranet and \nIntranet by different agentgroups
note top of InstallSetup : The install setup contains the information about \nservers, usernames, passwords etc. for the\ncalling of the adaper
@enduml

PlantUML version 1.2018.13(Mon Nov 26 18:11:51 CET 2018)
(APACHE source distribution)
Java Runtime: OpenJDK Runtime Environment
JVM: OpenJDK 64-Bit Server VM
Java Version: 1.8.0_265-8u265-b01-0ubuntu2~20.04-b01
Operating System: Linux
OS Version: 5.4.0-48-generic
Default Encoding: UTF-8
Language: en
Country: US
--></g></svg>