<?xml version="1.0" encoding="UTF-8" standalone="no"?><svg xmlns="http://www.w3.org/2000/svg" xmlns:xlink="http://www.w3.org/1999/xlink" contentScriptType="application/ecmascript" contentStyleType="text/css" height="494px" preserveAspectRatio="none" style="width:1149px;height:494px;" version="1.1" viewBox="0 0 1149 494" width="1149px" zoomAndPan="magnify"><defs><filter height="300%" id="f1olm6n7tz0fw0" width="300%" x="-1" y="-1"><feGaussianBlur result="blurOut" stdDeviation="2.0"/><feColorMatrix in="blurOut" result="blurOut2" type="matrix" values="0 0 0 0 0 0 0 0 0 0 0 0 0 0 0 0 0 0 .4 0"/><feOffset dx="4.0" dy="4.0" in="blurOut2" result="blurOut3"/><feBlend in="SourceGraphic" in2="blurOut3" mode="normal"/></filter></defs><g><text fill="#000000" font-family="sans-serif" font-size="14" font-weight="bold" lengthAdjust="spacingAndGlyphs" textLength="293" x="428" y="23.5352">Technical overview as sequence diagram</text><line style="stroke: #A80036; stroke-width: 1.0; stroke-dasharray: 5.0,5.0;" x1="51" x2="51" y1="68.9766" y2="454.082"/><line style="stroke: #A80036; stroke-width: 1.0; stroke-dasharray: 5.0,5.0;" x1="146" x2="146" y1="68.9766" y2="454.082"/><line style="stroke: #A80036; stroke-width: 1.0; stroke-dasharray: 5.0,5.0;" x1="227" x2="227" y1="68.9766" y2="454.082"/><line style="stroke: #A80036; stroke-width: 1.0; stroke-dasharray: 5.0,5.0;" x1="348.5" x2="348.5" y1="68.9766" y2="454.082"/><line style="stroke: #A80036; stroke-width: 1.0; stroke-dasharray: 5.0,5.0;" x1="436.5" x2="436.5" y1="68.9766" y2="454.082"/><line style="stroke: #A80036; stroke-width: 1.0; stroke-dasharray: 5.0,5.0;" x1="529.5" x2="529.5" y1="68.9766" y2="454.082"/><line style="stroke: #A80036; stroke-width: 1.0; stroke-dasharray: 5.0,5.0;" x1="651.5" x2="651.5" y1="68.9766" y2="454.082"/><line style="stroke: #A80036; stroke-width: 1.0; stroke-dasharray: 5.0,5.0;" x1="798.5" x2="798.5" y1="68.9766" y2="454.082"/><line style="stroke: #A80036; stroke-width: 1.0; stroke-dasharray: 5.0,5.0;" x1="942.5" x2="942.5" y1="68.9766" y2="454.082"/><line style="stroke: #A80036; stroke-width: 1.0; stroke-dasharray: 5.0,5.0;" x1="1054.5" x2="1054.5" y1="68.9766" y2="454.082"/><rect fill="#FEFECE" filter="url(#f1olm6n7tz0fw0)" height="30.4883" style="stroke: #A80036; stroke-width: 1.5;" width="83" x="8" y="33.4883"/><text fill="#000000" font-family="sans-serif" font-size="14" lengthAdjust="spacingAndGlyphs" textLength="69" x="15" y="54.0234">Developer</text><rect fill="#FEFECE" filter="url(#f1olm6n7tz0fw0)" height="30.4883" style="stroke: #A80036; stroke-width: 1.5;" width="83" x="8" y="453.082"/><text fill="#000000" font-family="sans-serif" font-size="14" lengthAdjust="spacingAndGlyphs" textLength="69" x="15" y="473.6172">Developer</text><rect fill="#FEFECE" filter="url(#f1olm6n7tz0fw0)" height="30.4883" style="stroke: #A80036; stroke-width: 1.5;" width="79" x="105" y="33.4883"/><text fill="#000000" font-family="sans-serif" font-size="14" lengthAdjust="spacingAndGlyphs" textLength="65" x="112" y="54.0234">BuildTool</text><rect fill="#FEFECE" filter="url(#f1olm6n7tz0fw0)" height="30.4883" style="stroke: #A80036; stroke-width: 1.5;" width="79" x="105" y="453.082"/><text fill="#000000" font-family="sans-serif" font-size="14" lengthAdjust="spacingAndGlyphs" textLength="65" x="112" y="473.6172">BuildTool</text><rect fill="#FEFECE" filter="url(#f1olm6n7tz0fw0)" height="30.4883" style="stroke: #A80036; stroke-width: 1.5;" width="54" x="198" y="33.4883"/><text fill="#000000" font-family="sans-serif" font-size="14" lengthAdjust="spacingAndGlyphs" textLength="40" x="205" y="54.0234">Client</text><rect fill="#FEFECE" filter="url(#f1olm6n7tz0fw0)" height="30.4883" style="stroke: #A80036; stroke-width: 1.5;" width="54" x="198" y="453.082"/><text fill="#000000" font-family="sans-serif" font-size="14" lengthAdjust="spacingAndGlyphs" textLength="40" x="205" y="473.6172">Client</text><rect fill="#FEFECE" filter="url(#f1olm6n7tz0fw0)" height="30.4883" style="stroke: #A80036; stroke-width: 1.5;" width="65" x="314.5" y="33.4883"/><text fill="#000000" font-family="sans-serif" font-size="14" lengthAdjust="spacingAndGlyphs" textLength="51" x="321.5" y="54.0234">RestAPI</text><rect fill="#FEFECE" filter="url(#f1olm6n7tz0fw0)" height="30.4883" style="stroke: #A80036; stroke-width: 1.5;" width="65" x="314.5" y="453.082"/><text fill="#000000" font-family="sans-serif" font-size="14" lengthAdjust="spacingAndGlyphs" textLength="51" x="321.5" y="473.6172">RestAPI</text><rect fill="#FEFECE" filter="url(#f1olm6n7tz0fw0)" height="30.4883" style="stroke: #A80036; stroke-width: 1.5;" width="82" x="393.5" y="33.4883"/><text fill="#000000" font-family="sans-serif" font-size="14" lengthAdjust="spacingAndGlyphs" textLength="68" x="400.5" y="54.0234">Scheduler</text><rect fill="#FEFECE" filter="url(#f1olm6n7tz0fw0)" height="30.4883" style="stroke: #A80036; stroke-width: 1.5;" width="82" x="393.5" y="453.082"/><text fill="#000000" font-family="sans-serif" font-size="14" lengthAdjust="spacingAndGlyphs" textLength="68" x="400.5" y="473.6172">Scheduler</text><rect fill="#FEFECE" filter="url(#f1olm6n7tz0fw0)" height="30.4883" style="stroke: #A80036; stroke-width: 1.5;" width="77" x="489.5" y="33.4883"/><text fill="#000000" font-family="sans-serif" font-size="14" lengthAdjust="spacingAndGlyphs" textLength="63" x="496.5" y="54.0234">Batch job</text><rect fill="#FEFECE" filter="url(#f1olm6n7tz0fw0)" height="30.4883" style="stroke: #A80036; stroke-width: 1.5;" width="77" x="489.5" y="453.082"/><text fill="#000000" font-family="sans-serif" font-size="14" lengthAdjust="spacingAndGlyphs" textLength="63" x="496.5" y="473.6172">Batch job</text><rect fill="#FEFECE" filter="url(#f1olm6n7tz0fw0)" height="30.4883" style="stroke: #A80036; stroke-width: 1.5;" width="139" x="580.5" y="33.4883"/><text fill="#000000" font-family="sans-serif" font-size="14" lengthAdjust="spacingAndGlyphs" textLength="125" x="587.5" y="54.0234">Product Executors</text><rect fill="#FEFECE" filter="url(#f1olm6n7tz0fw0)" height="30.4883" style="stroke: #A80036; stroke-width: 1.5;" width="139" x="580.5" y="453.082"/><text fill="#000000" font-family="sans-serif" font-size="14" lengthAdjust="spacingAndGlyphs" textLength="125" x="587.5" y="473.6172">Product Executors</text><rect fill="#FEFECE" filter="url(#f1olm6n7tz0fw0)" height="30.4883" style="stroke: #A80036; stroke-width: 1.5;" width="126" x="733.5" y="33.4883"/><text fill="#000000" font-family="sans-serif" font-size="14" lengthAdjust="spacingAndGlyphs" textLength="112" x="740.5" y="54.0234">Product Adapter</text><rect fill="#FEFECE" filter="url(#f1olm6n7tz0fw0)" height="30.4883" style="stroke: #A80036; stroke-width: 1.5;" width="126" x="733.5" y="453.082"/><text fill="#000000" font-family="sans-serif" font-size="14" lengthAdjust="spacingAndGlyphs" textLength="112" x="740.5" y="473.6172">Product Adapter</text><rect fill="#FEFECE" filter="url(#f1olm6n7tz0fw0)" height="30.4883" style="stroke: #A80036; stroke-width: 1.5;" width="135" x="873.5" y="33.4883"/><text fill="#000000" font-family="sans-serif" font-size="14" lengthAdjust="spacingAndGlyphs" textLength="121" x="880.5" y="54.0234">3rd party product</text><rect fill="#FEFECE" filter="url(#f1olm6n7tz0fw0)" height="30.4883" style="stroke: #A80036; stroke-width: 1.5;" width="135" x="873.5" y="453.082"/><text fill="#000000" font-family="sans-serif" font-size="14" lengthAdjust="spacingAndGlyphs" textLength="121" x="880.5" y="473.6172">3rd party product</text><rect fill="#FEFECE" filter="url(#f1olm6n7tz0fw0)" height="30.4883" style="stroke: #A80036; stroke-width: 1.5;" width="60" x="1022.5" y="33.4883"/><text fill="#000000" font-family="sans-serif" font-size="14" lengthAdjust="spacingAndGlyphs" textLength="46" x="1029.5" y="54.0234">Sereco</text><rect fill="#FEFECE" filter="url(#f1olm6n7tz0fw0)" height="30.4883" style="stroke: #A80036; stroke-width: 1.5;" width="60" x="1022.5" y="453.082"/><text fill="#000000" font-family="sans-serif" font-size="14" lengthAdjust="spacingAndGlyphs" textLength="46" x="1029.5" y="473.6172">Sereco</text><polygon fill="#A80036" points="134.5,80.9766,144.5,84.9766,134.5,88.9766,138.5,84.9766" style="stroke: #A80036; stroke-width: 1.0;"/><line style="stroke: #A80036; stroke-width: 1.0;" x1="51.5" x2="140.5" y1="84.9766" y2="84.9766"/><polygon fill="#A80036" points="215,94.9766,225,98.9766,215,102.9766,219,98.9766" style="stroke: #A80036; stroke-width: 1.0;"/><line style="stroke: #A80036; stroke-width: 1.0;" x1="51.5" x2="221" y1="98.9766" y2="98.9766"/><polygon fill="#A80036" points="215,108.9766,225,112.9766,215,116.9766,219,112.9766" style="stroke: #A80036; stroke-width: 1.0;"/><line style="stroke: #A80036; stroke-width: 1.0;" x1="146.5" x2="221" y1="112.9766" y2="112.9766"/><polygon fill="#A80036" points="238,138.2871,228,142.2871,238,146.2871,234,142.2871" style="stroke: #A80036; stroke-width: 1.0;"/><polygon fill="#A80036" points="337,138.2871,347,142.2871,337,146.2871,341,142.2871" style="stroke: #A80036; stroke-width: 1.0;"/><line style="stroke: #A80036; stroke-width: 1.0;" x1="232" x2="343" y1="142.2871" y2="142.2871"/><text fill="#000000" font-family="sans-serif" font-size="13" lengthAdjust="spacingAndGlyphs" textLength="98" x="244" y="137.5449">communication</text><path d="M147,155.2871 L147,210.2871 L302,210.2871 L302,165.2871 L292,155.2871 L147,155.2871 " fill="#FBFB77" filter="url(#f1olm6n7tz0fw0)" style="stroke: #A80036; stroke-width: 1.0;"/><path d="M292,155.2871 L292,165.2871 L302,165.2871 L292,155.2871 " fill="#FBFB77" style="stroke: #A80036; stroke-width: 1.0;"/><text fill="#000000" font-family="sans-serif" font-size="13" lengthAdjust="spacingAndGlyphs" textLength="116" x="153" y="172.8555">sends job request,</text><text fill="#000000" font-family="sans-serif" font-size="13" lengthAdjust="spacingAndGlyphs" textLength="107" x="153" y="188.166">uploads sources,</text><text fill="#000000" font-family="sans-serif" font-size="13" lengthAdjust="spacingAndGlyphs" textLength="134" x="153" y="203.4766">receives job status, ..</text><polygon fill="#A80036" points="360,222.2188,350,226.2188,360,230.2188,356,226.2188" style="stroke: #A80036; stroke-width: 1.0;"/><polygon fill="#A80036" points="424.5,222.2188,434.5,226.2188,424.5,230.2188,428.5,226.2188" style="stroke: #A80036; stroke-width: 1.0;"/><line style="stroke: #A80036; stroke-width: 1.0;" x1="354" x2="430.5" y1="226.2188" y2="226.2188"/><polygon fill="#A80036" points="447.5,236.2188,437.5,240.2188,447.5,244.2188,443.5,240.2188" style="stroke: #A80036; stroke-width: 1.0;"/><polygon fill="#A80036" points="518,236.2188,528,240.2188,518,244.2188,522,240.2188" style="stroke: #A80036; stroke-width: 1.0;"/><line style="stroke: #A80036; stroke-width: 1.0;" x1="441.5" x2="524" y1="240.2188" y2="240.2188"/><polygon fill="#A80036" points="541,250.2188,531,254.2188,541,258.2188,537,254.2188" style="stroke: #A80036; stroke-width: 1.0;"/><polygon fill="#A80036" points="640,250.2188,650,254.2188,640,258.2188,644,254.2188" style="stroke: #A80036; stroke-width: 1.0;"/><line style="stroke: #A80036; stroke-width: 1.0;" x1="535" x2="646" y1="254.2188" y2="254.2188"/><polygon fill="#A80036" points="663,264.2188,653,268.2188,663,272.2188,659,268.2188" style="stroke: #A80036; stroke-width: 1.0;"/><polygon fill="#A80036" points="786.5,264.2188,796.5,268.2188,786.5,272.2188,790.5,268.2188" style="stroke: #A80036; stroke-width: 1.0;"/><line style="stroke: #A80036; stroke-width: 1.0;" x1="657" x2="792.5" y1="268.2188" y2="268.2188"/><polygon fill="#A80036" points="809.5,278.2188,799.5,282.2188,809.5,286.2188,805.5,282.2188" style="stroke: #A80036; stroke-width: 1.0;"/><polygon fill="#A80036" points="931,278.2188,941,282.2188,931,286.2188,935,282.2188" style="stroke: #A80036; stroke-width: 1.0;"/><line style="stroke: #A80036; stroke-width: 1.0;" x1="803.5" x2="937" y1="282.2188" y2="282.2188"/><polygon fill="#A80036" points="809.5,292.2188,799.5,296.2188,809.5,300.2188,805.5,296.2188" style="stroke: #A80036; stroke-width: 1.0;"/><polygon fill="#A80036" points="1042.5,292.2188,1052.5,296.2188,1042.5,300.2188,1046.5,296.2188" style="stroke: #A80036; stroke-width: 1.0;"/><line style="stroke: #A80036; stroke-width: 1.0;" x1="803.5" x2="1048.5" y1="296.2188" y2="296.2188"/><path d="M849,309.2188 L849,395.2188 L1032,395.2188 L1032,319.2188 L1022,309.2188 L849,309.2188 " fill="#FBFB77" filter="url(#f1olm6n7tz0fw0)" style="stroke: #A80036; stroke-width: 1.0;"/><path d="M1022,309.2188 L1022,319.2188 L1032,319.2188 L1022,309.2188 " fill="#FBFB77" style="stroke: #A80036; stroke-width: 1.0;"/><text fill="#000000" font-family="sans-serif" font-size="13" lengthAdjust="spacingAndGlyphs" textLength="135" x="855" y="326.7871">Any security product,</text><text fill="#000000" font-family="sans-serif" font-size="13" lengthAdjust="spacingAndGlyphs" textLength="137" x="859" y="342.0977">- static code analyser</text><text fill="#000000" font-family="sans-serif" font-size="13" lengthAdjust="spacingAndGlyphs" textLength="90" x="859" y="357.4082">- web scanner</text><text fill="#000000" font-family="sans-serif" font-size="13" lengthAdjust="spacingAndGlyphs" textLength="158" x="859" y="372.7188">- infrastructure scanners</text><text fill="#000000" font-family="sans-serif" font-size="13" lengthAdjust="spacingAndGlyphs" textLength="24" x="859" y="388.0293">- ...</text><path d="M968,409.7715 L968,434.7715 L1137,434.7715 L1137,419.7715 L1127,409.7715 L968,409.7715 " fill="#FBFB77" filter="url(#f1olm6n7tz0fw0)" style="stroke: #A80036; stroke-width: 1.0;"/><path d="M1127,409.7715 L1127,419.7715 L1137,419.7715 L1127,409.7715 " fill="#FBFB77" style="stroke: #A80036; stroke-width: 1.0;"/><text fill="#000000" font-family="sans-serif" font-size="13" lengthAdjust="spacingAndGlyphs" textLength="148" x="974" y="427.3398">SecHub report collector</text><!--
@startuml
title Technical overview as sequence diagram

Developer -> BuildTool
Developer -> Client
BuildTool -> Client
Client <-> RestAPI : communication

note over Client
 sends job request,
 uploads sources,
 receives job status, ..
end note

RestAPI <-> Scheduler
Scheduler <-> "Batch job"
"Batch job" <-> "Product Executors"
"Product Executors" <-> "Product Adapter"
"Product Adapter" <-> "3rd party product"
"Product Adapter" <-> "Sereco"
note over "3rd party product"
 Any security product,
  - static code analyser
  - web scanner
  - infrastructure scanners
  - ...
end note
note over "Sereco"
 SecHub report collector
end note
@enduml

PlantUML version 1.2018.13(Mon Nov 26 18:11:51 CET 2018)
(APACHE source distribution)
Java Runtime: OpenJDK Runtime Environment
JVM: OpenJDK 64-Bit Server VM
Java Version: 1.8.0_265-b01
Operating System: Mac OS X
OS Version: 10.15.7
Default Encoding: UTF-8
Language: de
Country: DE
--></g></svg>