<?xml version="1.0" encoding="UTF-8" standalone="no"?><svg xmlns="http://www.w3.org/2000/svg" xmlns:xlink="http://www.w3.org/1999/xlink" contentScriptType="application/ecmascript" contentStyleType="text/css" height="499px" preserveAspectRatio="none" style="width:957px;height:499px;" version="1.1" viewBox="0 0 957 499" width="957px" zoomAndPan="magnify"><defs><filter height="300%" id="f16ypxme5br60o" width="300%" x="-1" y="-1"><feGaussianBlur result="blurOut" stdDeviation="2.0"/><feColorMatrix in="blurOut" result="blurOut2" type="matrix" values="0 0 0 0 0 0 0 0 0 0 0 0 0 0 0 0 0 0 .4 0"/><feOffset dx="4.0" dy="4.0" in="blurOut2" result="blurOut3"/><feBlend in="SourceGraphic" in2="blurOut3" mode="normal"/></filter></defs><g><!--cluster domainScheduler--><polygon fill="#FFFFFF" filter="url(#f16ypxme5br60o)" points="22,24,163,24,170,46.2969,173,46.2969,173,99,22,99,22,24" style="stroke: #000000; stroke-width: 1.5;"/><line style="stroke: #000000; stroke-width: 1.5;" x1="22" x2="170" y1="46.2969" y2="46.2969"/><text fill="#000000" font-family="sans-serif" font-size="14" font-weight="bold" lengthAdjust="spacingAndGlyphs" textLength="135" x="26" y="38.9951">Domain schedule</text><!--cluster domainProduct--><polygon fill="#FFFFFF" filter="url(#f16ypxme5br60o)" points="793,309,924,309,931,331.2969,935,331.2969,935,487,793,487,793,309" style="stroke: #000000; stroke-width: 1.5;"/><line style="stroke: #000000; stroke-width: 1.5;" x1="793" x2="931" y1="331.2969" y2="331.2969"/><text fill="#000000" font-family="sans-serif" font-size="14" font-weight="bold" lengthAdjust="spacingAndGlyphs" textLength="125" x="797" y="323.9951">Domain product</text><!--cluster domainScan--><polygon fill="#FFFFFF" filter="url(#f16ypxme5br60o)" points="197,24,303,24,310,46.2969,554,46.2969,554,384,197,384,197,24" style="stroke: #000000; stroke-width: 1.5;"/><line style="stroke: #000000; stroke-width: 1.5;" x1="197" x2="310" y1="46.2969" y2="46.2969"/><text fill="#000000" font-family="sans-serif" font-size="14" font-weight="bold" lengthAdjust="spacingAndGlyphs" textLength="100" x="201" y="38.9951">Domain scan</text><!--cluster domainAdministration--><polygon fill="#FFFFFF" filter="url(#f16ypxme5br60o)" points="578,309,759,309,766,331.2969,769,331.2969,769,384,578,384,578,309" style="stroke: #000000; stroke-width: 1.5;"/><line style="stroke: #000000; stroke-width: 1.5;" x1="578" x2="766" y1="331.2969" y2="331.2969"/><text fill="#000000" font-family="sans-serif" font-size="14" font-weight="bold" lengthAdjust="spacingAndGlyphs" textLength="175" x="582" y="323.9951">Domain administration</text><!--class scheduler--><rect fill="#FEFECE" filter="url(#f16ypxme5br60o)" height="23.9688" id="scheduler" style="stroke: #A80036; stroke-width: 1.5;" width="117" x="39.5" y="59"/><text fill="#000000" font-family="sans-serif" font-size="12" lengthAdjust="spacingAndGlyphs" textLength="111" x="42.5" y="75.1387">SecHub batch job</text><!--class product--><rect fill="#FEFECE" filter="url(#f16ypxme5br60o)" height="23.9688" id="product" style="stroke: #A80036; stroke-width: 1.5;" width="82" x="823" y="447"/><text fill="#000000" font-family="sans-serif" font-size="12" lengthAdjust="spacingAndGlyphs" textLength="76" x="826" y="463.1387">Product XYZ</text><!--class adapter--><rect fill="#FEFECE" filter="url(#f16ypxme5br60o)" height="23.9688" id="adapter" style="stroke: #A80036; stroke-width: 1.5;" width="109" x="809.5" y="344"/><text fill="#000000" font-family="sans-serif" font-size="12" lengthAdjust="spacingAndGlyphs" textLength="103" x="812.5" y="360.1387">Product adapter</text><!--class execService--><rect fill="#FEFECE" filter="url(#f16ypxme5br60o)" height="23.9688" id="execService" style="stroke: #A80036; stroke-width: 1.5;" width="205" x="333.5" y="59"/><text fill="#000000" font-family="sans-serif" font-size="12" lengthAdjust="spacingAndGlyphs" textLength="199" x="336.5" y="75.1387">Product execution store service</text><!--class profile--><rect fill="#FEFECE" filter="url(#f16ypxme5br60o)" height="23.9688" id="profile" style="stroke: #A80036; stroke-width: 1.5;" width="163" x="219.5" y="207"/><text fill="#000000" font-family="sans-serif" font-size="12" lengthAdjust="spacingAndGlyphs" textLength="157" x="222.5" y="223.1387">Product execution profile</text><!--class config--><rect fill="#FEFECE" filter="url(#f16ypxme5br60o)" height="23.9688" id="config" style="stroke: #A80036; stroke-width: 1.5;" width="160" x="221" y="344"/><text fill="#000000" font-family="sans-serif" font-size="12" lengthAdjust="spacingAndGlyphs" textLength="150" x="224" y="360.1387">Product executor config</text><!--class scanService--><rect fill="#FEFECE" filter="url(#f16ypxme5br60o)" height="23.9688" id="scanService" style="stroke: #A80036; stroke-width: 1.5;" width="85" x="213.5" y="59"/><text fill="#000000" font-family="sans-serif" font-size="12" lengthAdjust="spacingAndGlyphs" textLength="79" x="216.5" y="75.1387">Scan service</text><!--class executor--><rect fill="#FEFECE" filter="url(#f16ypxme5br60o)" height="23.9688" id="executor" style="stroke: #A80036; stroke-width: 1.5;" width="114" x="421" y="207"/><text fill="#000000" font-family="sans-serif" font-size="12" lengthAdjust="spacingAndGlyphs" textLength="108" x="424" y="223.1387">Product executor</text><!--class project--><rect fill="#FEFECE" filter="url(#f16ypxme5br60o)" height="23.9688" id="project" style="stroke: #A80036; stroke-width: 1.5;" width="102" x="594" y="344"/><text fill="#000000" font-family="sans-serif" font-size="12" lengthAdjust="spacingAndGlyphs" textLength="96" x="597" y="360.1387">SecHub project</text><!--link profile to config--><path d="M301,231.05 C301,254.78 301,310.73 301,338.62 " fill="none" id="profile-config" style="stroke: #A80036; stroke-width: 1.0;"/><polygon fill="#A80036" points="301,343.8,305,334.8,301,338.8,297,334.8,301,343.8" style="stroke: #A80036; stroke-width: 1.0;"/><text fill="#000000" font-family="sans-serif" font-size="13" lengthAdjust="spacingAndGlyphs" textLength="73" x="326.5" y="274.0669">Profiles can</text><text fill="#000000" font-family="sans-serif" font-size="13" lengthAdjust="spacingAndGlyphs" textLength="118" x="306" y="289.1997">reuse same config</text><text fill="#000000" font-family="sans-serif" font-size="13" lengthAdjust="spacingAndGlyphs" textLength="8" x="291.35" y="251.2151">1</text><text fill="#000000" font-family="sans-serif" font-size="13" lengthAdjust="spacingAndGlyphs" textLength="8" x="291.35" y="332.7745">n</text><!--link profile to project--><path d="M348.41,231.07 C374.14,237.97 406.09,248.02 433,261 C455.76,271.98 456.28,284.27 480,293 C511.04,304.43 522.62,290.54 554,301 C581.15,310.05 608.96,328.08 626.57,340.82 " fill="none" id="profile-project" style="stroke: #A80036; stroke-width: 1.0; stroke-dasharray: 7.0,7.0;"/><polygon fill="#A80036" points="630.82,343.93,625.9173,335.3881,626.7844,340.9781,621.1943,341.8452,630.82,343.93" style="stroke: #A80036; stroke-width: 1.0;"/><text fill="#000000" font-family="sans-serif" font-size="13" lengthAdjust="spacingAndGlyphs" textLength="332" x="481" y="281.5669">Not direct related to project, only project id is known</text><text fill="#000000" font-family="sans-serif" font-size="13" lengthAdjust="spacingAndGlyphs" textLength="8" x="358.3166" y="251.2434">1</text><text fill="#000000" font-family="sans-serif" font-size="13" lengthAdjust="spacingAndGlyphs" textLength="8" x="615.3208" y="332.9581">n</text><!--link execService to profile--><path d="M425.41,83.46 C401.14,109.7 341.53,174.17 314.6,203.29 " fill="none" id="execService-profile" style="stroke: #A80036; stroke-width: 1.0;"/><polygon fill="#A80036" points="311.17,207,320.2118,203.0955,314.5596,203.3243,314.3308,197.6721,311.17,207" style="stroke: #A80036; stroke-width: 1.0;"/><text fill="#000000" font-family="sans-serif" font-size="13" lengthAdjust="spacingAndGlyphs" textLength="39" x="398" y="150.5669">knows</text><!--link execService to executor--><path d="M439.3,83.46 C446.72,109.28 464.79,172.07 473.35,201.84 " fill="none" id="execService-executor" style="stroke: #A80036; stroke-width: 1.0;"/><polygon fill="#A80036" points="474.83,207,476.1768,197.2437,473.4432,202.1962,468.4907,199.4626,474.83,207" style="stroke: #A80036; stroke-width: 1.0;"/><text fill="#000000" font-family="sans-serif" font-size="13" lengthAdjust="spacingAndGlyphs" textLength="120" x="486" y="128.0669">uses executor only</text><text fill="#000000" font-family="sans-serif" font-size="13" lengthAdjust="spacingAndGlyphs" textLength="162" x="467" y="143.1997">when configured in profile</text><text fill="#000000" font-family="sans-serif" font-size="13" lengthAdjust="spacingAndGlyphs" textLength="127" x="482.5" y="158.3325">and profile matches</text><text fill="#000000" font-family="sans-serif" font-size="13" lengthAdjust="spacingAndGlyphs" textLength="116" x="490" y="173.4653">for project to scan</text><!--link executor to adapter--><path d="M535.05,220.43 C619.81,222.12 773.78,229.57 818,261 C844.08,279.53 856.04,317.04 860.97,338.65 " fill="none" id="executor-adapter" style="stroke: #A80036; stroke-width: 1.0;"/><polygon fill="#A80036" points="862.08,343.79,864.0862,334.1476,861.0226,338.9031,856.2671,335.8395,862.08,343.79" style="stroke: #A80036; stroke-width: 1.0;"/><text fill="#000000" font-family="sans-serif" font-size="13" lengthAdjust="spacingAndGlyphs" textLength="30" x="844" y="281.5669">uses</text><!--link adapter to product--><path d="M864,368.19 C864,386.02 864,420.93 864,441.58 " fill="none" id="adapter-product" style="stroke: #A80036; stroke-width: 1.0;"/><polygon fill="#A80036" points="864,446.76,868,437.76,864,441.76,860,437.76,864,446.76" style="stroke: #A80036; stroke-width: 1.0;"/><text fill="#000000" font-family="sans-serif" font-size="13" lengthAdjust="spacingAndGlyphs" textLength="28" x="865" y="413.0669">calls</text><!--link scheduler to scanService--><path d="M156.63,71 C173.75,71 190.87,71 207.99,71 " fill="none" id="scheduler-scanService" style="stroke: #A80036; stroke-width: 1.0; stroke-dasharray: 7.0,7.0;"/><polygon fill="#A80036" points="213.3,71,204.3,67,208.3,71,204.3,75,213.3,71" style="stroke: #A80036; stroke-width: 1.0;"/><!--link scanService to execService--><path d="M298.54,71 C308.45,71 318.35,71 328.26,71 " fill="none" id="scanService-execService" style="stroke: #A80036; stroke-width: 1.0;"/><polygon fill="#A80036" points="333.44,71,324.44,67,328.44,71,324.44,75,333.44,71" style="stroke: #A80036; stroke-width: 1.0;"/><!--
@startuml

hide circle
hide methods
hide fields

package "Domain schedule" as domainScheduler {

    entity "SecHub batch job" as scheduler {
    }

}

package "Domain product" as domainProduct{
    entity "Product XYZ" as product {

    }
    entity "Product adapter" as adapter {
    }
}

package "Domain scan" as domainScan {

    entity "Product execution store service" as execService{
    }

    entity "Product execution profile" as profile {

        * String **profileId**
        String Description
        Set<String> projectIds
        Set<UUID> configurations

    }

    entity "Product executor config " as config {
        * UUID **uuid**
        String name
    }


    entity "Scan service" as scanService {

    }

    entity "Product executor" as executor {
        ProductIdentifier identifier
        int version
    }

}

package "Domain administration" as domainAdministration{

    entity "SecHub project" as project {

        * String **projectId**

    }
}



profile "1" - -> "n" config : Profiles can\n reuse same config
profile "1" ..> "n" project : Not direct related to project, only project id is known
execService - -> profile : knows
execService - -> executor : uses executor only \nwhen configured in profile\nand profile matches \nfor project to scan
executor - -> adapter: uses
adapter - -> product : calls
scheduler .> scanService
scanService -> execService
@enduml

PlantUML version 1.2018.13(Mon Nov 26 17:11:51 UTC 2018)
(APACHE source distribution)
Java Runtime: OpenJDK Runtime Environment
JVM: OpenJDK 64-Bit Server VM
Java Version: 1.8.0_292-b10
Operating System: Linux
OS Version: 5.4.0-1047-azure
Default Encoding: UTF-8
Language: en
Country: 
--></g></svg>