<?xml version="1.0" encoding="UTF-8" standalone="no"?><svg xmlns="http://www.w3.org/2000/svg" xmlns:xlink="http://www.w3.org/1999/xlink" contentScriptType="application/ecmascript" contentStyleType="text/css" height="492px" preserveAspectRatio="none" style="width:1158px;height:492px;" version="1.1" viewBox="0 0 1158 492" width="1158px" zoomAndPan="magnify"><defs><filter height="300%" id="f1olm6n7tz0fw0" width="300%" x="-1" y="-1"><feGaussianBlur result="blurOut" stdDeviation="2.0"/><feColorMatrix in="blurOut" result="blurOut2" type="matrix" values="0 0 0 0 0 0 0 0 0 0 0 0 0 0 0 0 0 0 .4 0"/><feOffset dx="4.0" dy="4.0" in="blurOut2" result="blurOut3"/><feBlend in="SourceGraphic" in2="blurOut3" mode="normal"/></filter></defs><g><text fill="#000000" font-family="sans-serif" font-size="14" font-weight="bold" lengthAdjust="spacingAndGlyphs" textLength="327" x="415.5" y="22.9951">Technical overview as sequence diagram</text><line style="stroke: #A80036; stroke-width: 1.0; stroke-dasharray: 5.0,5.0;" x1="52" x2="52" y1="68.5938" y2="451.9219"/><line style="stroke: #A80036; stroke-width: 1.0; stroke-dasharray: 5.0,5.0;" x1="148" x2="148" y1="68.5938" y2="451.9219"/><line style="stroke: #A80036; stroke-width: 1.0; stroke-dasharray: 5.0,5.0;" x1="227" x2="227" y1="68.5938" y2="451.9219"/><line style="stroke: #A80036; stroke-width: 1.0; stroke-dasharray: 5.0,5.0;" x1="350" x2="350" y1="68.5938" y2="451.9219"/><line style="stroke: #A80036; stroke-width: 1.0; stroke-dasharray: 5.0,5.0;" x1="440" x2="440" y1="68.5938" y2="451.9219"/><line style="stroke: #A80036; stroke-width: 1.0; stroke-dasharray: 5.0,5.0;" x1="535" x2="535" y1="68.5938" y2="451.9219"/><line style="stroke: #A80036; stroke-width: 1.0; stroke-dasharray: 5.0,5.0;" x1="659" x2="659" y1="68.5938" y2="451.9219"/><line style="stroke: #A80036; stroke-width: 1.0; stroke-dasharray: 5.0,5.0;" x1="807" x2="807" y1="68.5938" y2="451.9219"/><line style="stroke: #A80036; stroke-width: 1.0; stroke-dasharray: 5.0,5.0;" x1="950" x2="950" y1="68.5938" y2="451.9219"/><line style="stroke: #A80036; stroke-width: 1.0; stroke-dasharray: 5.0,5.0;" x1="1062" x2="1062" y1="68.5938" y2="451.9219"/><rect fill="#FEFECE" filter="url(#f1olm6n7tz0fw0)" height="30.2969" style="stroke: #A80036; stroke-width: 1.5;" width="85" x="8" y="33.2969"/><text fill="#000000" font-family="sans-serif" font-size="14" lengthAdjust="spacingAndGlyphs" textLength="71" x="15" y="53.292">Developer</text><rect fill="#FEFECE" filter="url(#f1olm6n7tz0fw0)" height="30.2969" style="stroke: #A80036; stroke-width: 1.5;" width="85" x="8" y="450.9219"/><text fill="#000000" font-family="sans-serif" font-size="14" lengthAdjust="spacingAndGlyphs" textLength="71" x="15" y="470.917">Developer</text><rect fill="#FEFECE" filter="url(#f1olm6n7tz0fw0)" height="30.2969" style="stroke: #A80036; stroke-width: 1.5;" width="78" x="107" y="33.2969"/><text fill="#000000" font-family="sans-serif" font-size="14" lengthAdjust="spacingAndGlyphs" textLength="64" x="114" y="53.292">BuildTool</text><rect fill="#FEFECE" filter="url(#f1olm6n7tz0fw0)" height="30.2969" style="stroke: #A80036; stroke-width: 1.5;" width="78" x="107" y="450.9219"/><text fill="#000000" font-family="sans-serif" font-size="14" lengthAdjust="spacingAndGlyphs" textLength="64" x="114" y="470.917">BuildTool</text><rect fill="#FEFECE" filter="url(#f1olm6n7tz0fw0)" height="30.2969" style="stroke: #A80036; stroke-width: 1.5;" width="53" x="199" y="33.2969"/><text fill="#000000" font-family="sans-serif" font-size="14" lengthAdjust="spacingAndGlyphs" textLength="39" x="206" y="53.292">Client</text><rect fill="#FEFECE" filter="url(#f1olm6n7tz0fw0)" height="30.2969" style="stroke: #A80036; stroke-width: 1.5;" width="53" x="199" y="450.9219"/><text fill="#000000" font-family="sans-serif" font-size="14" lengthAdjust="spacingAndGlyphs" textLength="39" x="206" y="470.917">Client</text><rect fill="#FEFECE" filter="url(#f1olm6n7tz0fw0)" height="30.2969" style="stroke: #A80036; stroke-width: 1.5;" width="67" x="315" y="33.2969"/><text fill="#000000" font-family="sans-serif" font-size="14" lengthAdjust="spacingAndGlyphs" textLength="53" x="322" y="53.292">RestAPI</text><rect fill="#FEFECE" filter="url(#f1olm6n7tz0fw0)" height="30.2969" style="stroke: #A80036; stroke-width: 1.5;" width="67" x="315" y="450.9219"/><text fill="#000000" font-family="sans-serif" font-size="14" lengthAdjust="spacingAndGlyphs" textLength="53" x="322" y="470.917">RestAPI</text><rect fill="#FEFECE" filter="url(#f1olm6n7tz0fw0)" height="30.2969" style="stroke: #A80036; stroke-width: 1.5;" width="84" x="396" y="33.2969"/><text fill="#000000" font-family="sans-serif" font-size="14" lengthAdjust="spacingAndGlyphs" textLength="70" x="403" y="53.292">Scheduler</text><rect fill="#FEFECE" filter="url(#f1olm6n7tz0fw0)" height="30.2969" style="stroke: #A80036; stroke-width: 1.5;" width="84" x="396" y="450.9219"/><text fill="#000000" font-family="sans-serif" font-size="14" lengthAdjust="spacingAndGlyphs" textLength="70" x="403" y="470.917">Scheduler</text><rect fill="#FEFECE" filter="url(#f1olm6n7tz0fw0)" height="30.2969" style="stroke: #A80036; stroke-width: 1.5;" width="79" x="494" y="33.2969"/><text fill="#000000" font-family="sans-serif" font-size="14" lengthAdjust="spacingAndGlyphs" textLength="65" x="501" y="53.292">Batch job</text><rect fill="#FEFECE" filter="url(#f1olm6n7tz0fw0)" height="30.2969" style="stroke: #A80036; stroke-width: 1.5;" width="79" x="494" y="450.9219"/><text fill="#000000" font-family="sans-serif" font-size="14" lengthAdjust="spacingAndGlyphs" textLength="65" x="501" y="470.917">Batch job</text><rect fill="#FEFECE" filter="url(#f1olm6n7tz0fw0)" height="30.2969" style="stroke: #A80036; stroke-width: 1.5;" width="141" x="587" y="33.2969"/><text fill="#000000" font-family="sans-serif" font-size="14" lengthAdjust="spacingAndGlyphs" textLength="127" x="594" y="53.292">Product Executors</text><rect fill="#FEFECE" filter="url(#f1olm6n7tz0fw0)" height="30.2969" style="stroke: #A80036; stroke-width: 1.5;" width="141" x="587" y="450.9219"/><text fill="#000000" font-family="sans-serif" font-size="14" lengthAdjust="spacingAndGlyphs" textLength="127" x="594" y="470.917">Product Executors</text><rect fill="#FEFECE" filter="url(#f1olm6n7tz0fw0)" height="30.2969" style="stroke: #A80036; stroke-width: 1.5;" width="126" x="742" y="33.2969"/><text fill="#000000" font-family="sans-serif" font-size="14" lengthAdjust="spacingAndGlyphs" textLength="112" x="749" y="53.292">Product Adapter</text><rect fill="#FEFECE" filter="url(#f1olm6n7tz0fw0)" height="30.2969" style="stroke: #A80036; stroke-width: 1.5;" width="126" x="742" y="450.9219"/><text fill="#000000" font-family="sans-serif" font-size="14" lengthAdjust="spacingAndGlyphs" textLength="112" x="749" y="470.917">Product Adapter</text><rect fill="#FEFECE" filter="url(#f1olm6n7tz0fw0)" height="30.2969" style="stroke: #A80036; stroke-width: 1.5;" width="133" x="882" y="33.2969"/><text fill="#000000" font-family="sans-serif" font-size="14" lengthAdjust="spacingAndGlyphs" textLength="119" x="889" y="53.292">3rd party product</text><rect fill="#FEFECE" filter="url(#f1olm6n7tz0fw0)" height="30.2969" style="stroke: #A80036; stroke-width: 1.5;" width="133" x="882" y="450.9219"/><text fill="#000000" font-family="sans-serif" font-size="14" lengthAdjust="spacingAndGlyphs" textLength="119" x="889" y="470.917">3rd party product</text><rect fill="#FEFECE" filter="url(#f1olm6n7tz0fw0)" height="30.2969" style="stroke: #A80036; stroke-width: 1.5;" width="63" x="1029" y="33.2969"/><text fill="#000000" font-family="sans-serif" font-size="14" lengthAdjust="spacingAndGlyphs" textLength="49" x="1036" y="53.292">Sereco</text><rect fill="#FEFECE" filter="url(#f1olm6n7tz0fw0)" height="30.2969" style="stroke: #A80036; stroke-width: 1.5;" width="63" x="1029" y="450.9219"/><text fill="#000000" font-family="sans-serif" font-size="14" lengthAdjust="spacingAndGlyphs" textLength="49" x="1036" y="470.917">Sereco</text><polygon fill="#A80036" points="136,80.5938,146,84.5938,136,88.5938,140,84.5938" style="stroke: #A80036; stroke-width: 1.0;"/><line style="stroke: #A80036; stroke-width: 1.0;" x1="52.5" x2="142" y1="84.5938" y2="84.5938"/><polygon fill="#A80036" points="215.5,94.5938,225.5,98.5938,215.5,102.5938,219.5,98.5938" style="stroke: #A80036; stroke-width: 1.0;"/><line style="stroke: #A80036; stroke-width: 1.0;" x1="52.5" x2="221.5" y1="98.5938" y2="98.5938"/><polygon fill="#A80036" points="215.5,108.5938,225.5,112.5938,215.5,116.5938,219.5,112.5938" style="stroke: #A80036; stroke-width: 1.0;"/><line style="stroke: #A80036; stroke-width: 1.0;" x1="148" x2="221.5" y1="112.5938" y2="112.5938"/><polygon fill="#A80036" points="238.5,137.7266,228.5,141.7266,238.5,145.7266,234.5,141.7266" style="stroke: #A80036; stroke-width: 1.0;"/><polygon fill="#A80036" points="338.5,137.7266,348.5,141.7266,338.5,145.7266,342.5,141.7266" style="stroke: #A80036; stroke-width: 1.0;"/><line style="stroke: #A80036; stroke-width: 1.0;" x1="232.5" x2="344.5" y1="141.7266" y2="141.7266"/><text fill="#000000" font-family="sans-serif" font-size="13" lengthAdjust="spacingAndGlyphs" textLength="99" x="244.5" y="136.6606">communication</text><path d="M147,154.7266 L147,209.7266 L304,209.7266 L304,164.7266 L294,154.7266 L147,154.7266 " fill="#FBFB77" filter="url(#f1olm6n7tz0fw0)" style="stroke: #A80036; stroke-width: 1.0;"/><path d="M294,154.7266 L294,164.7266 L304,164.7266 L294,154.7266 " fill="#FBFB77" style="stroke: #A80036; stroke-width: 1.0;"/><text fill="#000000" font-family="sans-serif" font-size="13" lengthAdjust="spacingAndGlyphs" textLength="118" x="153" y="171.7935">sends job request,</text><text fill="#000000" font-family="sans-serif" font-size="13" lengthAdjust="spacingAndGlyphs" textLength="108" x="153" y="186.9263">uploads sources,</text><text fill="#000000" font-family="sans-serif" font-size="13" lengthAdjust="spacingAndGlyphs" textLength="136" x="153" y="202.0591">receives job status, ..</text><polygon fill="#A80036" points="361.5,221.125,351.5,225.125,361.5,229.125,357.5,225.125" style="stroke: #A80036; stroke-width: 1.0;"/><polygon fill="#A80036" points="428,221.125,438,225.125,428,229.125,432,225.125" style="stroke: #A80036; stroke-width: 1.0;"/><line style="stroke: #A80036; stroke-width: 1.0;" x1="355.5" x2="434" y1="225.125" y2="225.125"/><polygon fill="#A80036" points="451,235.125,441,239.125,451,243.125,447,239.125" style="stroke: #A80036; stroke-width: 1.0;"/><polygon fill="#A80036" points="523.5,235.125,533.5,239.125,523.5,243.125,527.5,239.125" style="stroke: #A80036; stroke-width: 1.0;"/><line style="stroke: #A80036; stroke-width: 1.0;" x1="445" x2="529.5" y1="239.125" y2="239.125"/><polygon fill="#A80036" points="546.5,249.125,536.5,253.125,546.5,257.125,542.5,253.125" style="stroke: #A80036; stroke-width: 1.0;"/><polygon fill="#A80036" points="647.5,249.125,657.5,253.125,647.5,257.125,651.5,253.125" style="stroke: #A80036; stroke-width: 1.0;"/><line style="stroke: #A80036; stroke-width: 1.0;" x1="540.5" x2="653.5" y1="253.125" y2="253.125"/><polygon fill="#A80036" points="670.5,263.125,660.5,267.125,670.5,271.125,666.5,267.125" style="stroke: #A80036; stroke-width: 1.0;"/><polygon fill="#A80036" points="795,263.125,805,267.125,795,271.125,799,267.125" style="stroke: #A80036; stroke-width: 1.0;"/><line style="stroke: #A80036; stroke-width: 1.0;" x1="664.5" x2="801" y1="267.125" y2="267.125"/><polygon fill="#A80036" points="818,277.125,808,281.125,818,285.125,814,281.125" style="stroke: #A80036; stroke-width: 1.0;"/><polygon fill="#A80036" points="938.5,277.125,948.5,281.125,938.5,285.125,942.5,281.125" style="stroke: #A80036; stroke-width: 1.0;"/><line style="stroke: #A80036; stroke-width: 1.0;" x1="812" x2="944.5" y1="281.125" y2="281.125"/><polygon fill="#A80036" points="818,291.125,808,295.125,818,299.125,814,295.125" style="stroke: #A80036; stroke-width: 1.0;"/><polygon fill="#A80036" points="1050.5,291.125,1060.5,295.125,1050.5,299.125,1054.5,295.125" style="stroke: #A80036; stroke-width: 1.0;"/><line style="stroke: #A80036; stroke-width: 1.0;" x1="812" x2="1056.5" y1="295.125" y2="295.125"/><path d="M857,308.125 L857,393.125 L1039,393.125 L1039,318.125 L1029,308.125 L857,308.125 " fill="#FBFB77" filter="url(#f1olm6n7tz0fw0)" style="stroke: #A80036; stroke-width: 1.0;"/><path d="M1029,308.125 L1029,318.125 L1039,318.125 L1029,308.125 " fill="#FBFB77" style="stroke: #A80036; stroke-width: 1.0;"/><text fill="#000000" font-family="sans-serif" font-size="13" lengthAdjust="spacingAndGlyphs" textLength="135" x="863" y="325.1919">Any security product,</text><text fill="#000000" font-family="sans-serif" font-size="13" lengthAdjust="spacingAndGlyphs" textLength="137" x="867" y="340.3247">- static code analyser</text><text fill="#000000" font-family="sans-serif" font-size="13" lengthAdjust="spacingAndGlyphs" textLength="89" x="867" y="355.4575">- web scanner</text><text fill="#000000" font-family="sans-serif" font-size="13" lengthAdjust="spacingAndGlyphs" textLength="157" x="867" y="370.5903">- infrastructure scanners</text><text fill="#000000" font-family="sans-serif" font-size="13" lengthAdjust="spacingAndGlyphs" textLength="21" x="867" y="385.7231">- ...</text><path d="M974,407.7891 L974,432.7891 L1146,432.7891 L1146,417.7891 L1136,407.7891 L974,407.7891 " fill="#FBFB77" filter="url(#f1olm6n7tz0fw0)" style="stroke: #A80036; stroke-width: 1.0;"/><path d="M1136,407.7891 L1136,417.7891 L1146,417.7891 L1136,407.7891 " fill="#FBFB77" style="stroke: #A80036; stroke-width: 1.0;"/><text fill="#000000" font-family="sans-serif" font-size="13" lengthAdjust="spacingAndGlyphs" textLength="151" x="980" y="424.856">SecHub report collector</text><!--
@startuml
title Technical overview as sequence diagram

Developer -> BuildTool
Developer -> Client
BuildTool -> Client
Client <-> RestAPI : communication

note over Client
 sends job request,
 uploads sources,
 receives job status, ..
end note

RestAPI <-> Scheduler
Scheduler <-> "Batch job"
"Batch job" <-> "Product Executors"
"Product Executors" <-> "Product Adapter"
"Product Adapter" <-> "3rd party product"
"Product Adapter" <-> "Sereco"
note over "3rd party product"
 Any security product,
  - static code analyser
  - web scanner
  - infrastructure scanners
  - ...
end note
note over "Sereco"
 SecHub report collector
end note
@enduml

PlantUML version 1.2018.13(Mon Nov 26 18:11:51 CET 2018)
(APACHE source distribution)
Java Runtime: OpenJDK Runtime Environment
JVM: OpenJDK 64-Bit Server VM
Java Version: 1.8.0_265-8u265-b01-0ubuntu2~20.04-b01
Operating System: Linux
OS Version: 5.4.0-48-generic
Default Encoding: UTF-8
Language: en
Country: US
--></g></svg>