<?xml version="1.0" encoding="UTF-8" standalone="no"?><svg xmlns="http://www.w3.org/2000/svg" xmlns:xlink="http://www.w3.org/1999/xlink" contentScriptType="application/ecmascript" contentStyleType="text/css" height="519px" preserveAspectRatio="none" style="width:974px;height:519px;" version="1.1" viewBox="0 0 974 519" width="974px" zoomAndPan="magnify"><defs><filter height="300%" id="fbkyxnvx45mxo" width="300%" x="-1" y="-1"><feGaussianBlur result="blurOut" stdDeviation="2.0"/><feColorMatrix in="blurOut" result="blurOut2" type="matrix" values="0 0 0 0 0 0 0 0 0 0 0 0 0 0 0 0 0 0 .4 0"/><feOffset dx="4.0" dy="4.0" in="blurOut2" result="blurOut3"/><feBlend in="SourceGraphic" in2="blurOut3" mode="normal"/></filter></defs><g><!--cluster Sechub CLI client--><polygon fill="#FFFFFF" filter="url(#fbkyxnvx45mxo)" points="14,16,156,16,163,38.2969,166,38.2969,166,87,14,87,14,16" style="stroke: #000000; stroke-width: 1.5;"/><line style="stroke: #000000; stroke-width: 1.5;" x1="14" x2="163" y1="38.2969" y2="38.2969"/><text fill="#000000" font-family="sans-serif" font-size="14" font-weight="bold" lengthAdjust="spacingAndGlyphs" textLength="136" x="18" y="30.9951">Sechub CLI client</text><!--cluster Kubernetes cluster--><path d="M110,102 C110,99 112,97 115,97 C118,97 120,99 120,102 C120,99 122,97 125,97 C128,97 130,99 130,102 C130,99 132,97 135,97 C138,97 140,99 140,102 C140,99 142,97 145,97 C148,97 150,99 150,102 C150,99 152,97 155,97 C158,97 160,99 160,102 C160,99 162,97 165,97 C168,97 170,99 170,102 C170,99 172,97 175,97 C178,97 180,99 180,102 C180,99 182,97 185,97 C188,97 190,99 190,102 C190,99 192,97 195,97 C198,97 200,99 200,102 C200,99 202,97 205,97 C208,97 210,99 210,102 C210,99 212,97 215,97 C218,97 220,99 220,102 C220,99 222,97 225,97 C228,97 230,99 230,102 C230,99 232,97 235,97 C238,97 240,99 240,102 C240,99 242,97 245,97 C248,97 250,99 250,102 C250,99 252,97 255,97 C258,97 260,99 260,102 C260,99 262,97 265,97 C268,97 270,99 270,102 C270,99 272,97 275,97 C278,97 280,99 280,102 C280,99 282,97 285,97 C288,97 290,99 290,102 C290,99 292,97 295,97 C298,97 300,99 300,102 C300,99 302,97 305,97 C308,97 310,99 310,102 C310,99 312,97 315,97 C318,97 320,99 320,102 C320,99 322,97 325,97 C328,97 330,99 330,102 C330,99 332,97 335,97 C338,97 340,99 340,102 C340,99 342,97 345,97 C348,97 350,99 350,102 C350,99 352,97 355,97 C358,97 360,99 360,102 C360,99 362,97 365,97 C368,97 370,99 370,102 C370,99 372,97 375,97 C378,97 380,99 380,102 C380,99 382,97 385,97 C388,97 390,99 390,102 C390,99 392,97 395,97 C398,97 400,99 400,102 C400,99 402,97 405,97 C408,97 410,99 410,102 C410,99 412,97 415,97 C418,97 420,99 420,102 C420,99 422,97 425,97 C428,97 430,99 430,102 C430,99 432,97 435,97 C438,97 440,99 440,102 C440,99 442,97 445,97 C448,97 450,99 450,102 C450,99 452,97 455,97 C458,97 460,99 460,102 C460,99 462,97 465,97 C468,97 470,99 470,102 C470,99 472,97 475,97 C478,97 480,99 480,102 C480,99 482,97 485,97 C488,97 490,99 490,102 C490,99 492,97 495,97 C498,97 500,99 500,102 C500,99 502,97 505,97 C508,97 510,99 510,102 C510,99 512,97 515,97 C518,97 520,99 520,102 C520,99 522,97 525,97 C528,97 530,99 530,102 C530,99 532,97 535,97 C538,97 540,99 540,102 C540,99 542,97 545,97 C548,97 550,99 550,102 C553,102 555,104 555,107 C555,110 553,112 550,112 C553,112 555,114 555,117 C555,120 553,122 550,122 C553,122 555,124 555,127 C555,130 553,132 550,132 C553,132 555,134 555,137 C555,140 553,142 550,142 C553,142 555,144 555,147 C555,150 553,152 550,152 C553,152 555,154 555,157 C555,160 553,162 550,162 C553,162 555,164 555,167 C555,170 553,172 550,172 C553,172 555,174 555,177 C555,180 553,182 550,182 C553,182 555,184 555,187 C555,190 553,192 550,192 C553,192 555,194 555,197 C555,200 553,202 550,202 C553,202 555,204 555,207 C555,210 553,212 550,212 C553,212 555,214 555,217 C555,220 553,222 550,222 C553,222 555,224 555,227 C555,230 553,232 550,232 C553,232 555,234 555,237 C555,240 553,242 550,242 C553,242 555,244 555,247 C555,250 553,252 550,252 C553,252 555,254 555,257 C555,260 553,262 550,262 C553,262 555,264 555,267 C555,270 553,272 550,272 C553,272 555,274 555,277 C555,280 553,282 550,282 C553,282 555,284 555,287 C555,290 553,292 550,292 C553,292 555,294 555,297 C555,300 553,302 550,302 C553,302 555,304 555,307 C555,310 553,312 550,312 C553,312 555,314 555,317 C555,320 553,322 550,322 C553,322 555,324 555,327 C555,330 553,332 550,332 C553,332 555,334 555,337 C555,340 553,342 550,342 C553,342 555,344 555,347 C555,350 553,352 550,352 C553,352 555,354 555,357 C555,360 553,362 550,362 C553,362 555,364 555,367 C555,370 553,372 550,372 C553,372 555,374 555,377 C555,380 553,382 550,382 C553,382 555,384 555,387 C555,390 553,392 550,392 C553,392 555,394 555,397 C555,400 553,402 550,402 C553,402 555,404 555,407 C555,410 553,412 550,412 C553,412 555,414 555,417 C555,420 553,422 550,422 C553,422 555,424 555,427 C555,430 553,432 550,432 C553,432 555,434 555,437 C555,440 553,442 550,442 C553,442 555,444 555,447 C555,450 553,452 550,452 C553,452 555,454 555,457 C555,460 553,462 550,462 C553,462 555,464 555,467 C555,470 553,472 550,472 C553,472 555,474 555,477 C555,480 553,482 550,482 C553,482 555,484 555,487 C555,490 553,492 550,492 C553,492 555,494 555,497 C555,500 553,502 550,502 C550,505 547,507 545,507 C542,507 540,505 540,502 C540,505 537,507 535,507 C532,507 530,505 530,502 C530,505 527,507 525,507 C522,507 520,505 520,502 C520,505 517,507 515,507 C512,507 510,505 510,502 C510,505 507,507 505,507 C502,507 500,505 500,502 C500,505 497,507 495,507 C492,507 490,505 490,502 C490,505 487,507 485,507 C482,507 480,505 480,502 C480,505 477,507 475,507 C472,507 470,505 470,502 C470,505 467,507 465,507 C462,507 460,505 460,502 C460,505 457,507 455,507 C452,507 450,505 450,502 C450,505 447,507 445,507 C442,507 440,505 440,502 C440,505 437,507 435,507 C432,507 430,505 430,502 C430,505 427,507 425,507 C422,507 420,505 420,502 C420,505 417,507 415,507 C412,507 410,505 410,502 C410,505 407,507 405,507 C402,507 400,505 400,502 C400,505 397,507 395,507 C392,507 390,505 390,502 C390,505 387,507 385,507 C382,507 380,505 380,502 C380,505 377,507 375,507 C372,507 370,505 370,502 C370,505 367,507 365,507 C362,507 360,505 360,502 C360,505 357,507 355,507 C352,507 350,505 350,502 C350,505 347,507 345,507 C342,507 340,505 340,502 C340,505 337,507 335,507 C332,507 330,505 330,502 C330,505 327,507 325,507 C322,507 320,505 320,502 C320,505 317,507 315,507 C312,507 310,505 310,502 C310,505 307,507 305,507 C302,507 300,505 300,502 C300,505 297,507 295,507 C292,507 290,505 290,502 C290,505 287,507 285,507 C282,507 280,505 280,502 C280,505 277,507 275,507 C272,507 270,505 270,502 C270,505 267,507 265,507 C262,507 260,505 260,502 C260,505 257,507 255,507 C252,507 250,505 250,502 C250,505 247,507 245,507 C242,507 240,505 240,502 C240,505 237,507 235,507 C232,507 230,505 230,502 C230,505 227,507 225,507 C222,507 220,505 220,502 C220,505 217,507 215,507 C212,507 210,505 210,502 C210,505 207,507 205,507 C202,507 200,505 200,502 C200,505 197,507 195,507 C192,507 190,505 190,502 C190,505 187,507 185,507 C182,507 180,505 180,502 C180,505 177,507 175,507 C172,507 170,505 170,502 C170,505 167,507 165,507 C162,507 160,505 160,502 C160,505 157,507 155,507 C152,507 150,505 150,502 C150,505 147,507 145,507 C142,507 140,505 140,502 C140,505 137,507 135,507 C132,507 130,505 130,502 C130,505 127,507 125,507 C122,507 120,505 120,502 C120,505 117,507 115,507 C112,507 110,505 110,502 C107,502 105,500 105,497 C105,494 107,492 110,492 C107,492 105,490 105,487 C105,484 107,482 110,482 C107,482 105,480 105,477 C105,474 107,472 110,472 C107,472 105,470 105,467 C105,464 107,462 110,462 C107,462 105,460 105,457 C105,454 107,452 110,452 C107,452 105,450 105,447 C105,444 107,442 110,442 C107,442 105,440 105,437 C105,434 107,432 110,432 C107,432 105,430 105,427 C105,424 107,422 110,422 C107,422 105,420 105,417 C105,414 107,412 110,412 C107,412 105,410 105,407 C105,404 107,402 110,402 C107,402 105,400 105,397 C105,394 107,392 110,392 C107,392 105,390 105,387 C105,384 107,382 110,382 C107,382 105,380 105,377 C105,374 107,372 110,372 C107,372 105,370 105,367 C105,364 107,362 110,362 C107,362 105,360 105,357 C105,354 107,352 110,352 C107,352 105,350 105,347 C105,344 107,342 110,342 C107,342 105,340 105,337 C105,334 107,332 110,332 C107,332 105,330 105,327 C105,324 107,322 110,322 C107,322 105,320 105,317 C105,314 107,312 110,312 C107,312 105,310 105,307 C105,304 107,302 110,302 C107,302 105,300 105,297 C105,294 107,292 110,292 C107,292 105,290 105,287 C105,284 107,282 110,282 C107,282 105,280 105,277 C105,274 107,272 110,272 C107,272 105,270 105,267 C105,264 107,262 110,262 C107,262 105,260 105,257 C105,254 107,252 110,252 C107,252 105,250 105,247 C105,244 107,242 110,242 C107,242 105,240 105,237 C105,234 107,232 110,232 C107,232 105,230 105,227 C105,224 107,222 110,222 C107,222 105,220 105,217 C105,214 107,212 110,212 C107,212 105,210 105,207 C105,204 107,202 110,202 C107,202 105,200 105,197 C105,194 107,192 110,192 C107,192 105,190 105,187 C105,184 107,182 110,182 C107,182 105,180 105,177 C105,174 107,172 110,172 C107,172 105,170 105,167 C105,164 107,162 110,162 C107,162 105,160 105,157 C105,154 107,152 110,152 C107,152 105,150 105,147 C105,144 107,142 110,142 C107,142 105,140 105,137 C105,134 107,132 110,132 C107,132 105,130 105,127 C105,124 107,122 110,122 C107,122 105,120 105,117 C105,114 107,112 110,112 C107,112 105,110 105,107 C105,104 107,102 110,102 " fill="#FFFFFF" filter="url(#fbkyxnvx45mxo)" style="stroke: #000000; stroke-width: 1.5;"/><text fill="#000000" font-family="sans-serif" font-size="14" font-weight="bold" lengthAdjust="spacingAndGlyphs" textLength="153" x="254.5" y="120.9951">Kubernetes cluster</text><!--cluster Sechub Server POD (1..n)--><polygon fill="#FFFFFF" filter="url(#fbkyxnvx45mxo)" points="115,122,323,122,330,144.2969,384,144.2969,384,395,115,395,115,122" style="stroke: #000000; stroke-width: 1.5;"/><line style="stroke: #000000; stroke-width: 1.5;" x1="115" x2="330" y1="144.2969" y2="144.2969"/><text fill="#000000" font-family="sans-serif" font-size="14" font-weight="bold" lengthAdjust="spacingAndGlyphs" textLength="202" x="119" y="136.9951">Sechub Server POD (1..n)</text><!--cluster Database POD (1)--><polygon fill="#FFFFFF" filter="url(#fbkyxnvx45mxo)" points="256,420,400,420,407,442.2969,410,442.2969,410,500,256,500,256,420" style="stroke: #000000; stroke-width: 1.5;"/><line style="stroke: #000000; stroke-width: 1.5;" x1="256" x2="407" y1="442.2969" y2="442.2969"/><text fill="#000000" font-family="sans-serif" font-size="14" font-weight="bold" lengthAdjust="spacingAndGlyphs" textLength="138" x="260" y="434.9951">Database POD (1)</text><!--cluster Shared Volumes--><polygon fill="#FFFFFF" filter="url(#fbkyxnvx45mxo)" points="392,319,527,319,534,341.2969,537,341.2969,537,390,392,390,392,319" style="stroke: #000000; stroke-width: 1.5;"/><line style="stroke: #000000; stroke-width: 1.5;" x1="392" x2="534" y1="341.2969" y2="341.2969"/><text fill="#000000" font-family="sans-serif" font-size="14" font-weight="bold" lengthAdjust="spacingAndGlyphs" textLength="129" x="396" y="333.9951">Shared Volumes</text><!--cluster Hosted 3rdParty security products--><path d="M577,225 C577,222 579,220 582,220 C585,220 587,222 587,225 C587,222 589,220 592,220 C595,220 597,222 597,225 C597,222 599,220 602,220 C605,220 607,222 607,225 C607,222 609,220 612,220 C615,220 617,222 617,225 C617,222 619,220 622,220 C625,220 627,222 627,225 C627,222 629,220 632,220 C635,220 637,222 637,225 C637,222 639,220 642,220 C645,220 647,222 647,225 C647,222 649,220 652,220 C655,220 657,222 657,225 C657,222 659,220 662,220 C665,220 667,222 667,225 C667,222 669,220 672,220 C675,220 677,222 677,225 C677,222 679,220 682,220 C685,220 687,222 687,225 C687,222 689,220 692,220 C695,220 697,222 697,225 C697,222 699,220 702,220 C705,220 707,222 707,225 C707,222 709,220 712,220 C715,220 717,222 717,225 C717,222 719,220 722,220 C725,220 727,222 727,225 C727,222 729,220 732,220 C735,220 737,222 737,225 C737,222 739,220 742,220 C745,220 747,222 747,225 C747,222 749,220 752,220 C755,220 757,222 757,225 C757,222 759,220 762,220 C765,220 767,222 767,225 C767,222 769,220 772,220 C775,220 777,222 777,225 C777,222 779,220 782,220 C785,220 787,222 787,225 C787,222 789,220 792,220 C795,220 797,222 797,225 C797,222 799,220 802,220 C805,220 807,222 807,225 C807,222 809,220 812,220 C815,220 817,222 817,225 C817,222 819,220 822,220 C825,220 827,222 827,225 C827,222 829,220 832,220 C835,220 837,222 837,225 C837,222 839,220 842,220 C845,220 847,222 847,225 C847,222 849,220 852,220 C855,220 857,222 857,225 C857,222 859,220 862,220 C865,220 867,222 867,225 C867,222 869,220 872,220 C875,220 877,222 877,225 C877,222 879,220 882,220 C885,220 887,222 887,225 C887,222 889,220 892,220 C895,220 897,222 897,225 C897,222 899,220 902,220 C905,220 907,222 907,225 C907,222 909,220 912,220 C915,220 917,222 917,225 C917,222 919,220 922,220 C925,220 927,222 927,225 C927,222 929,220 932,220 C935,220 937,222 937,225 C937,222 939,220 942,220 C945,220 947,222 947,225 C947,222 949,220 952,220 C955,220 957,222 957,225 C960,225 962,227 962,230 C962,233 960,235 957,235 C960,235 962,237 962,240 C962,243 960,245 957,245 C960,245 962,247 962,250 C962,253 960,255 957,255 C960,255 962,257 962,260 C962,263 960,265 957,265 C960,265 962,267 962,270 C962,273 960,275 957,275 C960,275 962,277 962,280 C962,283 960,285 957,285 C957,288 954,290 952,290 C949,290 947,288 947,285 C947,288 944,290 942,290 C939,290 937,288 937,285 C937,288 934,290 932,290 C929,290 927,288 927,285 C927,288 924,290 922,290 C919,290 917,288 917,285 C917,288 914,290 912,290 C909,290 907,288 907,285 C907,288 904,290 902,290 C899,290 897,288 897,285 C897,288 894,290 892,290 C889,290 887,288 887,285 C887,288 884,290 882,290 C879,290 877,288 877,285 C877,288 874,290 872,290 C869,290 867,288 867,285 C867,288 864,290 862,290 C859,290 857,288 857,285 C857,288 854,290 852,290 C849,290 847,288 847,285 C847,288 844,290 842,290 C839,290 837,288 837,285 C837,288 834,290 832,290 C829,290 827,288 827,285 C827,288 824,290 822,290 C819,290 817,288 817,285 C817,288 814,290 812,290 C809,290 807,288 807,285 C807,288 804,290 802,290 C799,290 797,288 797,285 C797,288 794,290 792,290 C789,290 787,288 787,285 C787,288 784,290 782,290 C779,290 777,288 777,285 C777,288 774,290 772,290 C769,290 767,288 767,285 C767,288 764,290 762,290 C759,290 757,288 757,285 C757,288 754,290 752,290 C749,290 747,288 747,285 C747,288 744,290 742,290 C739,290 737,288 737,285 C737,288 734,290 732,290 C729,290 727,288 727,285 C727,288 724,290 722,290 C719,290 717,288 717,285 C717,288 714,290 712,290 C709,290 707,288 707,285 C707,288 704,290 702,290 C699,290 697,288 697,285 C697,288 694,290 692,290 C689,290 687,288 687,285 C687,288 684,290 682,290 C679,290 677,288 677,285 C677,288 674,290 672,290 C669,290 667,288 667,285 C667,288 664,290 662,290 C659,290 657,288 657,285 C657,288 654,290 652,290 C649,290 647,288 647,285 C647,288 644,290 642,290 C639,290 637,288 637,285 C637,288 634,290 632,290 C629,290 627,288 627,285 C627,288 624,290 622,290 C619,290 617,288 617,285 C617,288 614,290 612,290 C609,290 607,288 607,285 C607,288 604,290 602,290 C599,290 597,288 597,285 C597,288 594,290 592,290 C589,290 587,288 587,285 C587,288 584,290 582,290 C579,290 577,288 577,285 C574,285 572,283 572,280 C572,277 574,275 577,275 C574,275 572,273 572,270 C572,267 574,265 577,265 C574,265 572,263 572,260 C572,257 574,255 577,255 C574,255 572,253 572,250 C572,247 574,245 577,245 C574,245 572,243 572,240 C572,237 574,235 577,235 C574,235 572,233 572,230 C572,227 574,225 577,225 " fill="#FFFFFF" filter="url(#fbkyxnvx45mxo)" style="stroke: #000000; stroke-width: 1.5;"/><text fill="#000000" font-family="sans-serif" font-size="14" font-weight="bold" lengthAdjust="spacingAndGlyphs" textLength="274" x="630" y="243.9951">Hosted 3rdParty security products</text><!--entity cli--><rect fill="#FEFECE" filter="url(#fbkyxnvx45mxo)" height="36.2969" style="stroke: #A80036; stroke-width: 1.5;" width="40" x="70" y="43"/><rect fill="#FEFECE" height="5" style="stroke: #A80036; stroke-width: 1.5;" width="10" x="65" y="48"/><rect fill="#FEFECE" height="5" style="stroke: #A80036; stroke-width: 1.5;" width="10" x="65" y="69.2969"/><text fill="#000000" font-family="sans-serif" font-size="14" lengthAdjust="spacingAndGlyphs" textLength="20" x="80" y="65.9951">CLI</text><!--entity job_engine--><rect fill="#FEFECE" filter="url(#fbkyxnvx45mxo)" height="36.2969" style="stroke: #A80036; stroke-width: 1.5;" width="85" x="201.5" y="149"/><rect fill="#FEFECE" height="5" style="stroke: #A80036; stroke-width: 1.5;" width="10" x="196.5" y="154"/><rect fill="#FEFECE" height="5" style="stroke: #A80036; stroke-width: 1.5;" width="10" x="196.5" y="175.2969"/><text fill="#000000" font-family="sans-serif" font-size="14" lengthAdjust="spacingAndGlyphs" textLength="65" x="211.5" y="171.9951">Schedule</text><!--entity source_upload--><rect fill="#FEFECE" filter="url(#fbkyxnvx45mxo)" height="36.2969" style="stroke: #A80036; stroke-width: 1.5;" width="121" x="254.5" y="346"/><rect fill="#FEFECE" height="5" style="stroke: #A80036; stroke-width: 1.5;" width="10" x="249.5" y="351"/><rect fill="#FEFECE" height="5" style="stroke: #A80036; stroke-width: 1.5;" width="10" x="249.5" y="372.2969"/><text fill="#000000" font-family="sans-serif" font-size="14" lengthAdjust="spacingAndGlyphs" textLength="101" x="264.5" y="368.9951">Source Upload</text><!--entity scan_engine--><rect fill="#FEFECE" filter="url(#fbkyxnvx45mxo)" height="36.2969" style="stroke: #A80036; stroke-width: 1.5;" width="54" x="322" y="149"/><rect fill="#FEFECE" height="5" style="stroke: #A80036; stroke-width: 1.5;" width="10" x="317" y="154"/><rect fill="#FEFECE" height="5" style="stroke: #A80036; stroke-width: 1.5;" width="10" x="317" y="175.2969"/><text fill="#000000" font-family="sans-serif" font-size="14" lengthAdjust="spacingAndGlyphs" textLength="34" x="332" y="171.9951">Scan</text><!--entity report_service--><rect fill="#FEFECE" filter="url(#fbkyxnvx45mxo)" height="36.2969" style="stroke: #A80036; stroke-width: 1.5;" width="67" x="130.5" y="245"/><rect fill="#FEFECE" height="5" style="stroke: #A80036; stroke-width: 1.5;" width="10" x="125.5" y="250"/><rect fill="#FEFECE" height="5" style="stroke: #A80036; stroke-width: 1.5;" width="10" x="125.5" y="271.2969"/><text fill="#000000" font-family="sans-serif" font-size="14" lengthAdjust="spacingAndGlyphs" textLength="47" x="140.5" y="267.9951">Report</text><!--entity sereco--><polygon fill="#FFFFFF" filter="url(#fbkyxnvx45mxo)" points="123,351,133,341,219,341,219,377.2969,209,387.2969,123,387.2969,123,351" style="stroke: #000000; stroke-width: 1.5;"/><line style="stroke: #000000; stroke-width: 1.5;" x1="209" x2="218" y1="351" y2="342"/><line style="stroke: #000000; stroke-width: 1.5;" x1="123" x2="209" y1="351" y2="351"/><line style="stroke: #000000; stroke-width: 1.5;" x1="209" x2="209" y1="351" y2="387.2969"/><text fill="#000000" font-family="sans-serif" font-size="14" lengthAdjust="spacingAndGlyphs" textLength="56" x="138" y="373.9951">SeReCo</text><!--entity db--><path d="M267,457 C267,447 308,447 308,447 C308,447 349,447 349,457 L349,482.2969 C349,492.2969 308,492.2969 308,492.2969 C308,492.2969 267,492.2969 267,482.2969 L267,457 " fill="#FFFFFF" filter="url(#fbkyxnvx45mxo)" style="stroke: #000000; stroke-width: 1.5;"/><path d="M267,457 C267,467 308,467 308,467 C308,467 349,467 349,457 " fill="none" style="stroke: #000000; stroke-width: 1.5;"/><text fill="#000000" font-family="sans-serif" font-size="14" lengthAdjust="spacingAndGlyphs" textLength="62" x="277" y="483.9951">Postgres</text><!--entity NFS--><rect fill="#FEFECE" filter="url(#fbkyxnvx45mxo)" height="36.2969" rx="35" ry="35" style="stroke: #000000; stroke-width: 1.5;" width="47" x="410.5" y="346"/><text fill="#000000" font-family="sans-serif" font-size="14" lengthAdjust="spacingAndGlyphs" textLength="27" x="420.5" y="368.9951">NFS</text><!--entity product1--><rect fill="#FEFECE" filter="url(#fbkyxnvx45mxo)" height="36.2969" style="stroke: #A80036; stroke-width: 1.5;" width="133" x="818.5" y="245"/><rect fill="#FEFECE" height="5" style="stroke: #A80036; stroke-width: 1.5;" width="10" x="813.5" y="250"/><rect fill="#FEFECE" height="5" style="stroke: #A80036; stroke-width: 1.5;" width="10" x="813.5" y="271.2969"/><text fill="#000000" font-family="sans-serif" font-size="14" lengthAdjust="spacingAndGlyphs" textLength="113" x="828.5" y="267.9951">Security Product</text><!--entity moreProducts--><rect fill="#FEFECE" filter="url(#fbkyxnvx45mxo)" height="36.2969" style="stroke: #A80036; stroke-width: 1.5;" width="32" x="751" y="245"/><rect fill="#FEFECE" height="5" style="stroke: #A80036; stroke-width: 1.5;" width="10" x="746" y="250"/><rect fill="#FEFECE" height="5" style="stroke: #A80036; stroke-width: 1.5;" width="10" x="746" y="271.2969"/><text fill="#000000" font-family="sans-serif" font-size="14" lengthAdjust="spacingAndGlyphs" textLength="12" x="761" y="267.9951">...</text><!--entity productn--><rect fill="#FEFECE" filter="url(#fbkyxnvx45mxo)" height="36.2969" style="stroke: #A80036; stroke-width: 1.5;" width="133" x="582.5" y="245"/><rect fill="#FEFECE" height="5" style="stroke: #A80036; stroke-width: 1.5;" width="10" x="577.5" y="250"/><rect fill="#FEFECE" height="5" style="stroke: #A80036; stroke-width: 1.5;" width="10" x="577.5" y="271.2969"/><text fill="#000000" font-family="sans-serif" font-size="14" lengthAdjust="spacingAndGlyphs" textLength="113" x="592.5" y="267.9951">Security Product</text><!--entity HTTPS--><ellipse cx="90" cy="167" fill="#FEFECE" filter="url(#fbkyxnvx45mxo)" rx="8" ry="8" style="stroke: #A80036; stroke-width: 2.0;"/><text fill="#000000" font-family="sans-serif" font-size="14" lengthAdjust="spacingAndGlyphs" textLength="46" x="67" y="196.9951">HTTPS</text><!--link HTTPS to job_engine--><path d="M99.0234,167 C131.3664,167 163.7094,167 196.0524,167 " fill="none" id="HTTPS-job_engine" style="stroke: #A80036; stroke-width: 1.0;"/><polygon fill="#A80036" points="201.2432,167,192.2432,163,196.2432,167,192.2432,171,201.2432,167" style="stroke: #A80036; stroke-width: 1.0;"/><!--link HTTPS to report_service--><path d="M97.0954,176.2049 C108.4906,190.9878 131.1886,220.4339 146.9685,240.9051 " fill="none" id="HTTPS-report_service" style="stroke: #A80036; stroke-width: 1.0;"/><polygon fill="#A80036" points="150.0268,244.8726,147.7003,235.3025,146.9743,240.9125,141.3642,240.1865,150.0268,244.8726" style="stroke: #A80036; stroke-width: 1.0;"/><!--link job_engine to source_upload--><path d="M242.7827,185.1802 C249.3964,221.2435 278.1656,301.7531 298.2923,341.2554 " fill="none" id="job_engine-source_upload" style="stroke: #A80036; stroke-width: 1.0;"/><polygon fill="#A80036" points="300.7018,345.8638,300.0761,336.0348,298.385,341.433,292.9868,339.7418,300.7018,345.8638" style="stroke: #A80036; stroke-width: 1.0;"/><!--link job_engine to source_upload--><!--link NFS to source_upload--><path d="M405.2735,364 C395.4805,364 385.6875,364 375.8945,364 " fill="none" id="NFS-source_upload" style="stroke: #A80036; stroke-width: 1.0;"/><polygon fill="#A80036" points="410.3947,364,401.3947,360,405.3947,364,401.3947,368,410.3947,364" style="stroke: #A80036; stroke-width: 1.0;"/><!--link scan_engine to NFS--><path d="M356.8442,185.1802 C372.4046,221.2435 407.1422,301.7531 424.1864,341.2554 " fill="none" id="scan_engine-NFS" style="stroke: #A80036; stroke-width: 1.0;"/><polygon fill="#A80036" points="426.1747,345.8638,426.2818,336.0155,424.1938,341.2729,418.9364,339.1849,426.1747,345.8638" style="stroke: #A80036; stroke-width: 1.0;"/><!--link job_engine to scan_engine--><path d="M286.6563,167 C296.6105,167 306.5648,167 316.5191,167 " fill="none" id="job_engine-scan_engine" style="stroke: #A80036; stroke-width: 1.0;"/><polygon fill="#A80036" points="321.7246,167,312.7246,163,316.7246,167,312.7246,171,321.7246,167" style="stroke: #A80036; stroke-width: 1.0;"/><!--link cli to HTTPS--><path d="M90,79.4638 C90,100.2132 90,133.4714 90,152.4598 " fill="none" id="cli-HTTPS" style="stroke: #A80036; stroke-width: 1.0;"/><polygon fill="#A80036" points="90,157.865,94,148.865,90,152.865,86,148.865,90,157.865" style="stroke: #A80036; stroke-width: 1.0;"/><!--link scan_engine to product1--><path d="M376.1773,168.7155 C461.1172,174.2883 720.7051,192.9785 801,218 C819.1791,223.665 837.9907,233.3319 853.1916,242.2572 " fill="none" id="scan_engine-product1" style="stroke: #A80036; stroke-width: 1.0;"/><polygon fill="#A80036" points="857.7886,244.9981,852.1068,236.9534,853.494,242.4375,848.0099,243.8247,857.7886,244.9981" style="stroke: #A80036; stroke-width: 1.0;"/><!--link scan_engine to productn--><path d="M376.1832,171.8924 C416.0949,179.4846 492.58,195.5971 555,218 C573.8349,224.76 593.9407,234.0783 610.7036,242.4827 " fill="none" id="scan_engine-productn" style="stroke: #A80036; stroke-width: 1.0;"/><polygon fill="#A80036" points="615.3391,244.826,609.1116,237.1959,610.8768,242.5703,605.5025,244.3355,615.3391,244.826" style="stroke: #A80036; stroke-width: 1.0;"/><!--link report_service to sereco--><path d="M165.2515,281.0568 C166.2992,296.1746 167.8132,318.0194 169.0245,335.4959 " fill="none" id="report_service-sereco" style="stroke: #A80036; stroke-width: 1.0;"/><polygon fill="#A80036" points="169.3898,340.7672,172.7577,331.5121,169.0439,335.7792,164.7768,332.0654,169.3898,340.7672" style="stroke: #A80036; stroke-width: 1.0;"/><!--link sereco to db--><path d="M201.0652,387.1524 C222.7173,403.8261 251.9442,426.333 274.3709,443.6031 " fill="none" id="sereco-db" style="stroke: #A80036; stroke-width: 1.0;"/><polygon fill="#A80036" points="278.4759,446.7643,273.7855,438.104,274.5143,443.7137,268.9046,444.4425,278.4759,446.7643" style="stroke: #A80036; stroke-width: 1.0;"/><!--link scan_engine to db--><path d="M376.2725,180.34 C442.8047,214.6574 603.5565,309.3216 541,395 C518.8339,425.359 415.91,449.3552 354.5151,461.2717 " fill="none" id="scan_engine-db" style="stroke: #A80036; stroke-width: 1.0;"/><polygon fill="#A80036" points="349.4384,462.2479,359.0319,464.4762,354.3484,461.3036,357.521,456.6202,349.4384,462.2479" style="stroke: #A80036; stroke-width: 1.0;"/><!--link job_engine to sereco--><!--
@startuml

package "Sechub CLI client" {
  [CLI] as cli
}

cloud "Kubernetes cluster"{

	package "Sechub Server POD (1..n)" {
	  	[Schedule] as job_engine
	    [Source Upload] as source_upload
	  	[Scan] as scan_engine
	  	[Report] as report_service


		node "SeReCo" as sereco {
		}

	}
    package "Database POD (1)" {
    	database "Postgres" as db {
    	}
    }

    package "Shared Volumes"{
	   storage "NFS"
    }


}

cloud "Hosted 3rdParty security products" {
  [Security Product] as product1
  [...] as moreProducts
  [Security Product] as productn
}

HTTPS -> job_engine
HTTPS -> report_service

job_engine -> source_upload

NFS <- source_upload
scan_engine -> NFS
job_engine -> scan_engine




cli - -> HTTPS
scan_engine - -> product1
scan_engine - -> productn
report_service - -> sereco
sereco - -> db
scan_engine - -> db

job_engine -[hidden]- -> sereco
job_engine -[hidden]- -> source_upload

@enduml

PlantUML version 1.2018.13(Mon Nov 26 17:11:51 UTC 2018)
(APACHE source distribution)
Java Runtime: OpenJDK Runtime Environment
JVM: OpenJDK 64-Bit Server VM
Java Version: 1.8.0_282-b08
Operating System: Linux
OS Version: 5.4.0-1036-azure
Default Encoding: UTF-8
Language: en
Country: 
--></g></svg>