<?xml version="1.0" encoding="UTF-8" standalone="no"?><svg xmlns="http://www.w3.org/2000/svg" xmlns:xlink="http://www.w3.org/1999/xlink" contentScriptType="application/ecmascript" contentStyleType="text/css" height="561px" preserveAspectRatio="none" style="width:921px;height:561px;" version="1.1" viewBox="0 0 921 561" width="921px" zoomAndPan="magnify"><defs><filter height="300%" id="f1jflmt8y2bdh0" width="300%" x="-1" y="-1"><feGaussianBlur result="blurOut" stdDeviation="2.0"/><feColorMatrix in="blurOut" result="blurOut2" type="matrix" values="0 0 0 0 0 0 0 0 0 0 0 0 0 0 0 0 0 0 .4 0"/><feOffset dx="4.0" dy="4.0" in="blurOut2" result="blurOut3"/><feBlend in="SourceGraphic" in2="blurOut3" mode="normal"/></filter></defs><g><!--cluster external--><rect fill="#FFFFFF" filter="url(#f1jflmt8y2bdh0)" height="438" style="stroke: #000000; stroke-width: 1.5;" width="496" x="414" y="16"/><path d="M489,17 L489,25.2969 L479,35.2969 L414,35.2969 " fill="none" style="stroke: #000000; stroke-width: 1.5;"/><text fill="#000000" font-family="sans-serif" font-size="14" font-weight="bold" lengthAdjust="spacingAndGlyphs" textLength="65" x="417" y="29.9951">external</text><!--cluster User--><rect fill="#FFFFFF" filter="url(#f1jflmt8y2bdh0)" height="189" style="stroke: #000000; stroke-width: 1.5;" width="217" x="461" y="43"/><path d="M508,44 L508,52.2969 L498,62.2969 L461,62.2969 " fill="none" style="stroke: #000000; stroke-width: 1.5;"/><text fill="#000000" font-family="sans-serif" font-size="14" font-weight="bold" lengthAdjust="spacingAndGlyphs" textLength="37" x="464" y="56.9951">User</text><!--cluster Project--><rect fill="#FFFFFF" filter="url(#f1jflmt8y2bdh0)" height="189" style="stroke: #000000; stroke-width: 1.5;" width="480" x="422" y="257"/><path d="M488,258 L488,266.2969 L478,276.2969 L422,276.2969 " fill="none" style="stroke: #000000; stroke-width: 1.5;"/><text fill="#000000" font-family="sans-serif" font-size="14" font-weight="bold" lengthAdjust="spacingAndGlyphs" textLength="56" x="425" y="270.9951">Project</text><!--cluster internal--><rect fill="#FFFFFF" filter="url(#f1jflmt8y2bdh0)" height="534" style="stroke: #000000; stroke-width: 1.5;" width="392" x="14" y="16"/><path d="M199,17 L199,25.2969 L189,35.2969 L14,35.2969 " fill="none" style="stroke: #000000; stroke-width: 1.5;"/><text fill="#000000" font-family="sans-serif" font-size="14" font-weight="bold" lengthAdjust="spacingAndGlyphs" textLength="175" x="17" y="29.9951">SecHub infrastructure</text><!--cluster backend--><rect fill="#FFFFFF" filter="url(#f1jflmt8y2bdh0)" height="71" style="stroke: #000000; stroke-width: 1.5;" width="191" x="207" y="268"/><path d="M354,269 L354,277.2969 L344,287.2969 L207,287.2969 " fill="none" style="stroke: #000000; stroke-width: 1.5;"/><text fill="#000000" font-family="sans-serif" font-size="14" font-weight="bold" lengthAdjust="spacingAndGlyphs" textLength="132" x="210" y="281.9951">SecHub backend</text><!--cluster products--><rect fill="#FFFFFF" filter="url(#f1jflmt8y2bdh0)" height="167" style="stroke: #000000; stroke-width: 1.5;" width="376" x="22" y="375"/><path d="M181,376 L181,384.2969 L171,394.2969 L22,394.2969 " fill="none" style="stroke: #000000; stroke-width: 1.5;"/><text fill="#000000" font-family="sans-serif" font-size="14" font-weight="bold" lengthAdjust="spacingAndGlyphs" textLength="149" x="25" y="388.9951">3rd party software</text><!--cluster Administration--><rect fill="#FFFFFF" filter="url(#f1jflmt8y2bdh0)" height="189" style="stroke: #000000; stroke-width: 1.5;" width="154" x="208" y="43"/><path d="M332,44 L332,52.2969 L322,62.2969 L208,62.2969 " fill="none" style="stroke: #000000; stroke-width: 1.5;"/><text fill="#000000" font-family="sans-serif" font-size="14" font-weight="bold" lengthAdjust="spacingAndGlyphs" textLength="114" x="211" y="56.9951">Administration</text><!--entity Client--><rect fill="#FEFECE" filter="url(#f1jflmt8y2bdh0)" height="36.2969" style="stroke: #A80036; stroke-width: 1.5;" width="117" x="471.5" y="188"/><rect fill="#FEFECE" height="5" style="stroke: #A80036; stroke-width: 1.5;" width="10" x="466.5" y="193"/><rect fill="#FEFECE" height="5" style="stroke: #A80036; stroke-width: 1.5;" width="10" x="466.5" y="214.2969"/><text fill="#000000" font-family="sans-serif" font-size="14" lengthAdjust="spacingAndGlyphs" textLength="97" x="481.5" y="210.9951">SecHub Client</text><!--entity Developer--><ellipse cx="627" cy="99" fill="#FEFECE" filter="url(#f1jflmt8y2bdh0)" rx="8" ry="8" style="stroke: #A80036; stroke-width: 2.0;"/><text fill="#000000" font-family="sans-serif" font-size="14" lengthAdjust="spacingAndGlyphs" textLength="71" x="591.5" y="128.9951">Developer</text><!--entity BuildTool--><ellipse cx="509" cy="99" fill="#FEFECE" filter="url(#f1jflmt8y2bdh0)" rx="8" ry="8" style="stroke: #A80036; stroke-width: 2.0;"/><text fill="#000000" font-family="sans-serif" font-size="14" lengthAdjust="spacingAndGlyphs" textLength="64" x="477" y="128.9951">BuildTool</text><!--entity website--><rect fill="#FEFECE" filter="url(#f1jflmt8y2bdh0)" height="36.2969" style="stroke: #A80036; stroke-width: 1.5;" width="125" x="430.5" y="402"/><rect fill="#FEFECE" height="5" style="stroke: #A80036; stroke-width: 1.5;" width="10" x="425.5" y="407"/><rect fill="#FEFECE" height="5" style="stroke: #A80036; stroke-width: 1.5;" width="10" x="425.5" y="428.2969"/><text fill="#000000" font-family="sans-serif" font-size="14" lengthAdjust="spacingAndGlyphs" textLength="105" x="440.5" y="424.9951">Target Website</text><!--entity code--><rect fill="#FEFECE" filter="url(#f1jflmt8y2bdh0)" height="36.2969" style="stroke: #A80036; stroke-width: 1.5;" width="106" x="591" y="402"/><rect fill="#FEFECE" height="5" style="stroke: #A80036; stroke-width: 1.5;" width="10" x="586" y="407"/><rect fill="#FEFECE" height="5" style="stroke: #A80036; stroke-width: 1.5;" width="10" x="586" y="428.2969"/><text fill="#000000" font-family="sans-serif" font-size="14" lengthAdjust="spacingAndGlyphs" textLength="86" x="601" y="424.9951">Target Code</text><!--entity infra--><rect fill="#FEFECE" filter="url(#f1jflmt8y2bdh0)" height="36.2969" style="stroke: #A80036; stroke-width: 1.5;" width="161" x="732.5" y="402"/><rect fill="#FEFECE" height="5" style="stroke: #A80036; stroke-width: 1.5;" width="10" x="727.5" y="407"/><rect fill="#FEFECE" height="5" style="stroke: #A80036; stroke-width: 1.5;" width="10" x="727.5" y="428.2969"/><text fill="#000000" font-family="sans-serif" font-size="14" lengthAdjust="spacingAndGlyphs" textLength="141" x="742.5" y="424.9951">Target Infrastructure</text><!--entity Owner--><ellipse cx="568" cy="313" fill="#FEFECE" filter="url(#f1jflmt8y2bdh0)" rx="8" ry="8" style="stroke: #A80036; stroke-width: 2.0;"/><text fill="#000000" font-family="sans-serif" font-size="14" lengthAdjust="spacingAndGlyphs" textLength="45" x="545.5" y="342.9951">Owner</text><!--entity Server--><rect fill="#FEFECE" filter="url(#f1jflmt8y2bdh0)" height="36.2969" style="stroke: #A80036; stroke-width: 1.5;" width="140" x="215" y="295"/><rect fill="#FEFECE" height="5" style="stroke: #A80036; stroke-width: 1.5;" width="10" x="210" y="300"/><rect fill="#FEFECE" height="5" style="stroke: #A80036; stroke-width: 1.5;" width="10" x="210" y="321.2969"/><text fill="#000000" font-family="sans-serif" font-size="14" lengthAdjust="spacingAndGlyphs" textLength="120" x="225" y="317.9951">SecHub Server(s)</text><!--entity infrascan--><rect fill="#FEFECE" filter="url(#f1jflmt8y2bdh0)" height="36.2969" style="stroke: #A80036; stroke-width: 1.5;" width="172" x="30" y="402"/><rect fill="#FEFECE" height="5" style="stroke: #A80036; stroke-width: 1.5;" width="10" x="25" y="407"/><rect fill="#FEFECE" height="5" style="stroke: #A80036; stroke-width: 1.5;" width="10" x="25" y="428.2969"/><text fill="#000000" font-family="sans-serif" font-size="14" lengthAdjust="spacingAndGlyphs" textLength="152" x="40" y="424.9951">Infrastructure scanner</text><!--entity codescan--><rect fill="#FEFECE" filter="url(#f1jflmt8y2bdh0)" height="36.2969" style="stroke: #A80036; stroke-width: 1.5;" width="117" x="237.5" y="402"/><rect fill="#FEFECE" height="5" style="stroke: #A80036; stroke-width: 1.5;" width="10" x="232.5" y="407"/><rect fill="#FEFECE" height="5" style="stroke: #A80036; stroke-width: 1.5;" width="10" x="232.5" y="428.2969"/><text fill="#000000" font-family="sans-serif" font-size="14" lengthAdjust="spacingAndGlyphs" textLength="97" x="247.5" y="424.9951">Code scanner</text><!--entity webscan--><rect fill="#FEFECE" filter="url(#f1jflmt8y2bdh0)" height="36.2969" style="stroke: #A80036; stroke-width: 1.5;" width="111" x="60.5" y="498"/><rect fill="#FEFECE" height="5" style="stroke: #A80036; stroke-width: 1.5;" width="10" x="55.5" y="503"/><rect fill="#FEFECE" height="5" style="stroke: #A80036; stroke-width: 1.5;" width="10" x="55.5" y="524.2969"/><text fill="#000000" font-family="sans-serif" font-size="14" lengthAdjust="spacingAndGlyphs" textLength="91" x="70.5" y="520.9951">Web scanner</text><!--entity more--><rect fill="#FEFECE" filter="url(#f1jflmt8y2bdh0)" height="36.2969" style="stroke: #A80036; stroke-width: 1.5;" width="32" x="207" y="498"/><rect fill="#FEFECE" height="5" style="stroke: #A80036; stroke-width: 1.5;" width="10" x="202" y="503"/><rect fill="#FEFECE" height="5" style="stroke: #A80036; stroke-width: 1.5;" width="10" x="202" y="524.2969"/><text fill="#000000" font-family="sans-serif" font-size="14" lengthAdjust="spacingAndGlyphs" textLength="12" x="217" y="520.9951">...</text><!--entity AdminUI--><rect fill="#FEFECE" filter="url(#f1jflmt8y2bdh0)" height="36.2969" style="stroke: #A80036; stroke-width: 1.5;" width="138" x="216" y="188"/><rect fill="#FEFECE" height="5" style="stroke: #A80036; stroke-width: 1.5;" width="10" x="211" y="193"/><rect fill="#FEFECE" height="5" style="stroke: #A80036; stroke-width: 1.5;" width="10" x="211" y="214.2969"/><text fill="#000000" font-family="sans-serif" font-size="14" lengthAdjust="spacingAndGlyphs" textLength="118" x="226" y="210.9951">SecHub Admin UI</text><!--entity Admin--><ellipse cx="285" cy="99" fill="#FEFECE" filter="url(#f1jflmt8y2bdh0)" rx="8" ry="8" style="stroke: #A80036; stroke-width: 2.0;"/><text fill="#000000" font-family="sans-serif" font-size="14" lengthAdjust="spacingAndGlyphs" textLength="43" x="263.5" y="128.9951">Admin</text><!--link Developer to Client--><path d="M618.7298,108.1228 C603.6581,124.7483 571.3239,160.4159 550.1321,183.7924 " fill="none" id="Developer-Client" style="stroke: #A80036; stroke-width: 1.0;"/><polygon fill="#A80036" points="546.5716,187.72,555.5799,183.7387,549.9298,184.0156,549.6529,178.3656,546.5716,187.72" style="stroke: #A80036; stroke-width: 1.0;"/><!--link BuildTool to Client--><path d="M510.7904,108.1228 C513.9995,124.4735 520.8232,159.242 525.4121,182.6233 " fill="none" id="BuildTool-Client" style="stroke: #A80036; stroke-width: 1.0;"/><polygon fill="#A80036" points="526.4123,187.72,528.604,178.1181,525.4493,182.8136,520.7538,179.6589,526.4123,187.72" style="stroke: #A80036; stroke-width: 1.0;"/><!--link Owner to website--><path d="M561.6055,322.1228 C549.278,339.7101 522.0141,378.6065 505.8131,401.72 " fill="none" id="Owner-website" style="stroke: #A80036; stroke-width: 1.0;"/><!--link Owner to code--><path d="M574.4797,322.1228 C586.9716,339.7101 614.599,378.6065 631.0161,401.72 " fill="none" id="Owner-code" style="stroke: #A80036; stroke-width: 1.0;"/><!--link Owner to infra--><path d="M577.3307,316.8165 C600.6455,326.3786 663.2879,352.2287 715,375 C734.7043,383.6767 756.4817,393.6389 774.4933,401.9806 " fill="none" id="Owner-infra" style="stroke: #A80036; stroke-width: 1.0;"/><!--link Admin to AdminUI--><path d="M285,108.1228 C285,124.4735 285,159.242 285,182.6233 " fill="none" id="Admin-AdminUI" style="stroke: #A80036; stroke-width: 1.0;"/><polygon fill="#A80036" points="285,187.72,289,178.72,285,182.72,281,178.72,285,187.72" style="stroke: #A80036; stroke-width: 1.0;"/><!--link Client to Server--><path d="M471.201,221.0335 C440.8522,229.7686 403.6546,242.0174 372,257 C351.6684,266.6233 330.4102,280.2317 313.9969,291.6237 " fill="none" id="Client-Server" style="stroke: #A80036; stroke-width: 1.0;"/><polygon fill="#A80036" points="309.5008,294.7729,319.1672,292.8861,313.5962,291.9045,314.5778,286.3335,309.5008,294.7729" style="stroke: #A80036; stroke-width: 1.0;"/><!--link AdminUI to Server--><path d="M285,224.1511 C285,242.213 285,270.0045 285,289.6895 " fill="none" id="AdminUI-Server" style="stroke: #A80036; stroke-width: 1.0;"/><polygon fill="#A80036" points="285,294.7599,289,285.7599,285,289.7599,281,285.7599,285,294.7599" style="stroke: #A80036; stroke-width: 1.0;"/><!--link backend to products--><path d="M378.8453,339.2978 C378.799,339.6578 378.7538,340.02 378.7096,340.3844 C378.6211,341.1131 378.5366,341.8504 378.4562,342.5955 C378.2954,344.0856 378.1506,345.6069 378.0219,347.1531 C377.5072,353.338 377.2499,359.9215 377.25,366.5049 C377.2501,368.1508 377.2662,369.7966 377.2984,371.4362 C377.3145,372.256 377.3346,373.0743 377.3588,373.8902 C377.3648,374.0942 377.3711,374.298 377.3776,374.5017 C377.3809,374.6035 377.3842,374.7053 377.3876,374.8071 " fill="none" id="backend-products" style="stroke: #A80036; stroke-width: 2.0;"/><polygon fill="#A80036" points="377.3876,374.8071,381.0852,365.6787,377.2209,369.8098,373.0897,365.9455,377.3876,374.8071" style="stroke: #A80036; stroke-width: 1.0;"/><!--link backend to products--><!--link Client to Owner--><!--link infrascan to codescan--><!--link infrascan to webscan--><!--link webscan to more--><!--
@startuml
frame external{
    frame "User" {
        [SecHub Client] as Client
        Developer - -> Client
        BuildTool - -> Client
    }

    frame "Project" {
        [Target Website] as website
        [Target Code] as code
        [Target Infrastructure] as infra

        Owner - - website
        Owner - - code
        Owner - - infra
    }

}

frame "SecHub infrastructure" as internal{

    frame "SecHub backend " as backend{
        [SecHub Server(s)] as Server

    }

    frame "3rd party software" as products{
        [Infrastructure scanner] as infrascan
        [Code scanner] as codescan
        [Web scanner] as webscan
        [...] as more
    }

    frame "Administration" {
        [SecHub Admin UI] as AdminUI
        Admin - -> AdminUI
    }
}

Client - -> Server
AdminUI - -> Server

backend => products


Client -[hidden]- Owner
backend -[hidden]- products


@enduml

PlantUML version 1.2018.13(Mon Nov 26 17:11:51 UTC 2018)
(APACHE source distribution)
Java Runtime: OpenJDK Runtime Environment
JVM: OpenJDK 64-Bit Server VM
Java Version: 1.8.0_265-b11
Operating System: Linux
OS Version: 5.4.0-1026-azure
Default Encoding: UTF-8
Language: en
Country: 
--></g></svg>