<?xml version="1.0" encoding="UTF-8" standalone="no"?><svg xmlns="http://www.w3.org/2000/svg" xmlns:xlink="http://www.w3.org/1999/xlink" contentScriptType="application/ecmascript" contentStyleType="text/css" height="575px" preserveAspectRatio="none" style="width:889px;height:575px;" version="1.1" viewBox="0 0 889 575" width="889px" zoomAndPan="magnify"><defs><filter height="300%" id="f16ypxme5br60o" width="300%" x="-1" y="-1"><feGaussianBlur result="blurOut" stdDeviation="2.0"/><feColorMatrix in="blurOut" result="blurOut2" type="matrix" values="0 0 0 0 0 0 0 0 0 0 0 0 0 0 0 0 0 0 .4 0"/><feOffset dx="4.0" dy="4.0" in="blurOut2" result="blurOut3"/><feBlend in="SourceGraphic" in2="blurOut3" mode="normal"/></filter></defs><g><!--cluster domainScheduler--><polygon fill="#FFFFFF" filter="url(#f16ypxme5br60o)" points="14,16,155,16,162,38.2969,165,38.2969,165,75,14,75,14,16" style="stroke: #000000; stroke-width: 1.5;"/><line style="stroke: #000000; stroke-width: 1.5;" x1="14" x2="162" y1="38.2969" y2="38.2969"/><text fill="#000000" font-family="sans-serif" font-size="14" font-weight="bold" lengthAdjust="spacingAndGlyphs" textLength="135" x="18" y="30.9951">Domain schedule</text><!--cluster domainProduct--><polygon fill="#FFFFFF" filter="url(#f16ypxme5br60o)" points="726,330,857,330,864,352.2969,867,352.2969,867,563,726,563,726,330" style="stroke: #000000; stroke-width: 1.5;"/><line style="stroke: #000000; stroke-width: 1.5;" x1="726" x2="864" y1="352.2969" y2="352.2969"/><text fill="#000000" font-family="sans-serif" font-size="14" font-weight="bold" lengthAdjust="spacingAndGlyphs" textLength="125" x="730" y="344.9951">Domain product</text><!--cluster domainScan--><polygon fill="#FFFFFF" filter="url(#f16ypxme5br60o)" points="178,16,284,16,291,38.2969,519,38.2969,519,478,178,478,178,16" style="stroke: #000000; stroke-width: 1.5;"/><line style="stroke: #000000; stroke-width: 1.5;" x1="178" x2="291" y1="38.2969" y2="38.2969"/><text fill="#000000" font-family="sans-serif" font-size="14" font-weight="bold" lengthAdjust="spacingAndGlyphs" textLength="100" x="182" y="30.9951">Domain scan</text><!--cluster domainAdministration--><polygon fill="#FFFFFF" filter="url(#f16ypxme5br60o)" points="527,330,708,330,715,352.2969,718,352.2969,718,389,527,389,527,330" style="stroke: #000000; stroke-width: 1.5;"/><line style="stroke: #000000; stroke-width: 1.5;" x1="527" x2="715" y1="352.2969" y2="352.2969"/><text fill="#000000" font-family="sans-serif" font-size="14" font-weight="bold" lengthAdjust="spacingAndGlyphs" textLength="175" x="531" y="344.9951">Domain administration</text><!--class scheduler--><rect fill="#FEFECE" filter="url(#f16ypxme5br60o)" height="23.9688" id="scheduler" style="stroke: #A80036; stroke-width: 1.5;" width="117" x="34.5" y="43"/><text fill="#000000" font-family="sans-serif" font-size="12" lengthAdjust="spacingAndGlyphs" textLength="111" x="37.5" y="59.1387">SecHub batch job</text><!--class product--><rect fill="#FEFECE" filter="url(#f16ypxme5br60o)" height="23.9688" id="product" style="stroke: #A80036; stroke-width: 1.5;" width="82" x="748" y="531"/><text fill="#000000" font-family="sans-serif" font-size="12" lengthAdjust="spacingAndGlyphs" textLength="76" x="751" y="547.1387">Product XYZ</text><!--class adapter--><rect fill="#FEFECE" filter="url(#f16ypxme5br60o)" height="23.9688" id="adapter" style="stroke: #A80036; stroke-width: 1.5;" width="109" x="734.5" y="357"/><text fill="#000000" font-family="sans-serif" font-size="12" lengthAdjust="spacingAndGlyphs" textLength="103" x="737.5" y="373.1387">Product adapter</text><!--class execService--><rect fill="#FEFECE" filter="url(#f16ypxme5br60o)" height="23.9688" id="execService" style="stroke: #A80036; stroke-width: 1.5;" width="205" x="306.5" y="43"/><text fill="#000000" font-family="sans-serif" font-size="12" lengthAdjust="spacingAndGlyphs" textLength="199" x="309.5" y="59.1387">Product execution store service</text><!--class profile--><rect fill="#FEFECE" filter="url(#f16ypxme5br60o)" height="23.9688" id="profile" style="stroke: #A80036; stroke-width: 1.5;" width="163" x="192.5" y="251"/><text fill="#000000" font-family="sans-serif" font-size="12" lengthAdjust="spacingAndGlyphs" textLength="157" x="195.5" y="267.1387">Product execution profile</text><!--class config--><rect fill="#FEFECE" filter="url(#f16ypxme5br60o)" height="23.9688" id="config" style="stroke: #A80036; stroke-width: 1.5;" width="160" x="194" y="446"/><text fill="#000000" font-family="sans-serif" font-size="12" lengthAdjust="spacingAndGlyphs" textLength="150" x="197" y="462.1387">Product executor config</text><!--class scanService--><rect fill="#FEFECE" filter="url(#f16ypxme5br60o)" height="23.9688" id="scanService" style="stroke: #A80036; stroke-width: 1.5;" width="85" x="186.5" y="43"/><text fill="#000000" font-family="sans-serif" font-size="12" lengthAdjust="spacingAndGlyphs" textLength="79" x="189.5" y="59.1387">Scan service</text><!--class executor--><rect fill="#FEFECE" filter="url(#f16ypxme5br60o)" height="23.9688" id="executor" style="stroke: #A80036; stroke-width: 1.5;" width="114" x="394" y="251"/><text fill="#000000" font-family="sans-serif" font-size="12" lengthAdjust="spacingAndGlyphs" textLength="108" x="397" y="267.1387">Product executor</text><!--class project--><rect fill="#FEFECE" filter="url(#f16ypxme5br60o)" height="23.9688" id="project" style="stroke: #A80036; stroke-width: 1.5;" width="102" x="535" y="357"/><text fill="#000000" font-family="sans-serif" font-size="12" lengthAdjust="spacingAndGlyphs" textLength="96" x="538" y="373.1387">SecHub project</text><!--link profile to config--><path d="M274,275.1981 C274,308.5759 274,401.508 274,440.464 " fill="none" id="profile-config" style="stroke: #A80036; stroke-width: 1.0;"/><polygon fill="#A80036" points="274,445.8065,278,436.8065,274,440.8065,270,436.8065,274,445.8065" style="stroke: #A80036; stroke-width: 1.0;"/><text fill="#000000" font-family="sans-serif" font-size="13" lengthAdjust="spacingAndGlyphs" textLength="73" x="299.5" y="366.0669">Profiles can</text><text fill="#000000" font-family="sans-serif" font-size="13" lengthAdjust="spacingAndGlyphs" textLength="118" x="279" y="381.1997">reuse same config</text><text fill="#000000" font-family="sans-serif" font-size="13" lengthAdjust="spacingAndGlyphs" textLength="8" x="264.425" y="295.0534">1</text><text fill="#000000" font-family="sans-serif" font-size="13" lengthAdjust="spacingAndGlyphs" textLength="8" x="264.35" y="434.7837">n</text><!--link profile to project--><path d="M291.4103,275.1146 C312.8014,289.2609 350.7314,311.9961 387,322 C447.0801,338.5717 467.8515,310.3607 527,330 C542.0197,334.9871 556.8712,344.8385 567.9164,353.3919 " fill="none" id="profile-project" style="stroke: #A80036; stroke-width: 1.0; stroke-dasharray: 7.0,7.0;"/><polygon fill="#A80036" points="572.1053,356.7151,567.5407,347.9879,568.1883,353.6075,562.5686,354.2551,572.1053,356.7151" style="stroke: #A80036; stroke-width: 1.0;"/><text fill="#000000" font-family="sans-serif" font-size="13" lengthAdjust="spacingAndGlyphs" textLength="332" x="388" y="318.0669">Not direct related to project, only project id is known</text><text fill="#000000" font-family="sans-serif" font-size="13" lengthAdjust="spacingAndGlyphs" textLength="8" x="288.6906" y="294.937">1</text><text fill="#000000" font-family="sans-serif" font-size="13" lengthAdjust="spacingAndGlyphs" textLength="8" x="557.0593" y="346.024">n</text><!--link execService to profile--><path d="M401.1583,67.082 C378.2302,102.4083 311.2691,205.578 284.8753,246.244 " fill="none" id="execService-profile" style="stroke: #A80036; stroke-width: 1.0;"/><polygon fill="#A80036" points="281.8633,250.8846,290.1184,245.5131,284.5855,246.6906,283.408,241.1576,281.8633,250.8846" style="stroke: #A80036; stroke-width: 1.0;"/><text fill="#000000" font-family="sans-serif" font-size="13" lengthAdjust="spacingAndGlyphs" textLength="39" x="363" y="163.5669">knows</text><!--link execService to executor--><path d="M411.4396,67.082 C418.5438,102.2647 439.236,204.7403 447.5158,245.745 " fill="none" id="execService-executor" style="stroke: #A80036; stroke-width: 1.0;"/><polygon fill="#A80036" points="448.5536,250.8846,450.693,241.2709,447.5639,245.9835,442.8513,242.8544,448.5536,250.8846" style="stroke: #A80036; stroke-width: 1.0;"/><text fill="#000000" font-family="sans-serif" font-size="13" lengthAdjust="spacingAndGlyphs" textLength="120" x="457" y="141.0669">uses executor only</text><text fill="#000000" font-family="sans-serif" font-size="13" lengthAdjust="spacingAndGlyphs" textLength="162" x="438" y="156.1997">when configured in profile</text><text fill="#000000" font-family="sans-serif" font-size="13" lengthAdjust="spacingAndGlyphs" textLength="127" x="453.5" y="171.3325">and profile matches</text><text fill="#000000" font-family="sans-serif" font-size="13" lengthAdjust="spacingAndGlyphs" textLength="116" x="461" y="186.4653">for project to scan</text><!--link executor to adapter--><path d="M508.2156,267.5591 C577.0811,273.7702 688.0768,286.3023 725,305 C747.0398,316.1608 766.1471,337.7515 777.6113,352.7519 " fill="none" id="executor-adapter" style="stroke: #A80036; stroke-width: 1.0;"/><polygon fill="#A80036" points="780.6382,356.7939,778.4451,347.1923,777.6411,352.7918,772.0416,351.9878,780.6382,356.7939" style="stroke: #A80036; stroke-width: 1.0;"/><text fill="#000000" font-family="sans-serif" font-size="13" lengthAdjust="spacingAndGlyphs" textLength="30" x="750" y="318.0669">uses</text><!--link adapter to product--><path d="M789,381.2353 C789,411.4874 789,489.903 789,525.2552 " fill="none" id="adapter-product" style="stroke: #A80036; stroke-width: 1.0;"/><polygon fill="#A80036" points="789,530.5453,793,521.5453,789,525.5453,785,521.5453,789,530.5453" style="stroke: #A80036; stroke-width: 1.0;"/><text fill="#000000" font-family="sans-serif" font-size="13" lengthAdjust="spacingAndGlyphs" textLength="28" x="790" y="462.5669">calls</text><!--link scheduler to scanService--><path d="M151.7031,55 C161.5595,55 171.4158,55 181.2721,55 " fill="none" id="scheduler-scanService" style="stroke: #A80036; stroke-width: 1.0; stroke-dasharray: 7.0,7.0;"/><polygon fill="#A80036" points="186.4263,55,177.4263,51,181.4263,55,177.4263,59,186.4263,55" style="stroke: #A80036; stroke-width: 1.0;"/><!--link scanService to execService--><path d="M271.5391,55 C281.4462,55 291.3533,55 301.2605,55 " fill="none" id="scanService-execService" style="stroke: #A80036; stroke-width: 1.0;"/><polygon fill="#A80036" points="306.4413,55,297.4413,51,301.4413,55,297.4413,59,306.4413,55" style="stroke: #A80036; stroke-width: 1.0;"/><!--
@startuml

hide circle
hide methods
hide fields

package "Domain schedule" as domainScheduler {

    entity "SecHub batch job" as scheduler {
    }

}

package "Domain product" as domainProduct{
    entity "Product XYZ" as product {

    }
    entity "Product adapter" as adapter {
    }
}

package "Domain scan" as domainScan {

    entity "Product execution store service" as execService{
    }

    entity "Product execution profile" as profile {

        * String **profileId**
        String Description
        Set<String> projectIds
        Set<UUID> configurations

    }

    entity "Product executor config " as config {
        * UUID **uuid**
        String name
    }


    entity "Scan service" as scanService {

    }

    entity "Product executor" as executor {
        ProductIdentifier identifier
        int version
    }

}

package "Domain administration" as domainAdministration{

    entity "SecHub project" as project {

        * String **projectId**

    }
}



profile "1" - -> "n" config : Profiles can\n reuse same config
profile "1" ..> "n" project : Not direct related to project, only project id is known
execService - -> profile : knows
execService - -> executor : uses executor only \nwhen configured in profile\nand profile matches \nfor project to scan
executor - -> adapter: uses
adapter - -> product : calls
scheduler .> scanService
scanService -> execService
@enduml

PlantUML version 1.2018.13(Mon Nov 26 17:11:51 UTC 2018)
(APACHE source distribution)
Java Runtime: OpenJDK Runtime Environment
JVM: OpenJDK 64-Bit Server VM
Java Version: 1.8.0_282-b08
Operating System: Linux
OS Version: 5.4.0-1039-azure
Default Encoding: UTF-8
Language: en
Country: 
--></g></svg>