<?xml version="1.0" encoding="UTF-8" standalone="no"?><svg xmlns="http://www.w3.org/2000/svg" xmlns:xlink="http://www.w3.org/1999/xlink" contentScriptType="application/ecmascript" contentStyleType="text/css" height="629px" preserveAspectRatio="none" style="width:1079px;height:629px;" version="1.1" viewBox="0 0 1079 629" width="1079px" zoomAndPan="magnify"><defs><filter height="300%" id="fbkyxnvx45mxo" width="300%" x="-1" y="-1"><feGaussianBlur result="blurOut" stdDeviation="2.0"/><feColorMatrix in="blurOut" result="blurOut2" type="matrix" values="0 0 0 0 0 0 0 0 0 0 0 0 0 0 0 0 0 0 .4 0"/><feOffset dx="4.0" dy="4.0" in="blurOut2" result="blurOut3"/><feBlend in="SourceGraphic" in2="blurOut3" mode="normal"/></filter></defs><g><!--cluster Sechub CLI client--><polygon fill="#FFFFFF" filter="url(#fbkyxnvx45mxo)" points="22,24,164,24,171,46.2969,174,46.2969,174,111,22,111,22,24" style="stroke: #000000; stroke-width: 1.5;"/><line style="stroke: #000000; stroke-width: 1.5;" x1="22" x2="171" y1="46.2969" y2="46.2969"/><text fill="#000000" font-family="sans-serif" font-size="14" font-weight="bold" lengthAdjust="spacingAndGlyphs" textLength="136" x="26" y="38.9951">Sechub CLI client</text><!--cluster Kubernetes cluster--><path d="M126,142 C126,139 128,137 131,137 C134,137 136,139 136,142 C136,139 138,137 141,137 C144,137 146,139 146,142 C146,139 148,137 151,137 C154,137 156,139 156,142 C156,139 158,137 161,137 C164,137 166,139 166,142 C166,139 168,137 171,137 C174,137 176,139 176,142 C176,139 178,137 181,137 C184,137 186,139 186,142 C186,139 188,137 191,137 C194,137 196,139 196,142 C196,139 198,137 201,137 C204,137 206,139 206,142 C206,139 208,137 211,137 C214,137 216,139 216,142 C216,139 218,137 221,137 C224,137 226,139 226,142 C226,139 228,137 231,137 C234,137 236,139 236,142 C236,139 238,137 241,137 C244,137 246,139 246,142 C246,139 248,137 251,137 C254,137 256,139 256,142 C256,139 258,137 261,137 C264,137 266,139 266,142 C266,139 268,137 271,137 C274,137 276,139 276,142 C276,139 278,137 281,137 C284,137 286,139 286,142 C286,139 288,137 291,137 C294,137 296,139 296,142 C296,139 298,137 301,137 C304,137 306,139 306,142 C306,139 308,137 311,137 C314,137 316,139 316,142 C316,139 318,137 321,137 C324,137 326,139 326,142 C326,139 328,137 331,137 C334,137 336,139 336,142 C336,139 338,137 341,137 C344,137 346,139 346,142 C346,139 348,137 351,137 C354,137 356,139 356,142 C356,139 358,137 361,137 C364,137 366,139 366,142 C366,139 368,137 371,137 C374,137 376,139 376,142 C376,139 378,137 381,137 C384,137 386,139 386,142 C386,139 388,137 391,137 C394,137 396,139 396,142 C396,139 398,137 401,137 C404,137 406,139 406,142 C406,139 408,137 411,137 C414,137 416,139 416,142 C416,139 418,137 421,137 C424,137 426,139 426,142 C426,139 428,137 431,137 C434,137 436,139 436,142 C436,139 438,137 441,137 C444,137 446,139 446,142 C446,139 448,137 451,137 C454,137 456,139 456,142 C456,139 458,137 461,137 C464,137 466,139 466,142 C466,139 468,137 471,137 C474,137 476,139 476,142 C476,139 478,137 481,137 C484,137 486,139 486,142 C486,139 488,137 491,137 C494,137 496,139 496,142 C496,139 498,137 501,137 C504,137 506,139 506,142 C506,139 508,137 511,137 C514,137 516,139 516,142 C516,139 518,137 521,137 C524,137 526,139 526,142 C526,139 528,137 531,137 C534,137 536,139 536,142 C536,139 538,137 541,137 C544,137 546,139 546,142 C546,139 548,137 551,137 C554,137 556,139 556,142 C556,139 558,137 561,137 C564,137 566,139 566,142 C566,139 568,137 571,137 C574,137 576,139 576,142 C576,139 578,137 581,137 C584,137 586,139 586,142 C586,139 588,137 591,137 C594,137 596,139 596,142 C596,139 598,137 601,137 C604,137 606,139 606,142 C606,139 608,137 611,137 C614,137 616,139 616,142 C616,139 618,137 621,137 C624,137 626,139 626,142 C626,139 628,137 631,137 C634,137 636,139 636,142 C639,142 641,144 641,147 C641,150 639,152 636,152 C639,152 641,154 641,157 C641,160 639,162 636,162 C639,162 641,164 641,167 C641,170 639,172 636,172 C639,172 641,174 641,177 C641,180 639,182 636,182 C639,182 641,184 641,187 C641,190 639,192 636,192 C639,192 641,194 641,197 C641,200 639,202 636,202 C639,202 641,204 641,207 C641,210 639,212 636,212 C639,212 641,214 641,217 C641,220 639,222 636,222 C639,222 641,224 641,227 C641,230 639,232 636,232 C639,232 641,234 641,237 C641,240 639,242 636,242 C639,242 641,244 641,247 C641,250 639,252 636,252 C639,252 641,254 641,257 C641,260 639,262 636,262 C639,262 641,264 641,267 C641,270 639,272 636,272 C639,272 641,274 641,277 C641,280 639,282 636,282 C639,282 641,284 641,287 C641,290 639,292 636,292 C639,292 641,294 641,297 C641,300 639,302 636,302 C639,302 641,304 641,307 C641,310 639,312 636,312 C639,312 641,314 641,317 C641,320 639,322 636,322 C639,322 641,324 641,327 C641,330 639,332 636,332 C639,332 641,334 641,337 C641,340 639,342 636,342 C639,342 641,344 641,347 C641,350 639,352 636,352 C639,352 641,354 641,357 C641,360 639,362 636,362 C639,362 641,364 641,367 C641,370 639,372 636,372 C639,372 641,374 641,377 C641,380 639,382 636,382 C639,382 641,384 641,387 C641,390 639,392 636,392 C639,392 641,394 641,397 C641,400 639,402 636,402 C639,402 641,404 641,407 C641,410 639,412 636,412 C639,412 641,414 641,417 C641,420 639,422 636,422 C639,422 641,424 641,427 C641,430 639,432 636,432 C639,432 641,434 641,437 C641,440 639,442 636,442 C639,442 641,444 641,447 C641,450 639,452 636,452 C639,452 641,454 641,457 C641,460 639,462 636,462 C639,462 641,464 641,467 C641,470 639,472 636,472 C639,472 641,474 641,477 C641,480 639,482 636,482 C639,482 641,484 641,487 C641,490 639,492 636,492 C639,492 641,494 641,497 C641,500 639,502 636,502 C639,502 641,504 641,507 C641,510 639,512 636,512 C639,512 641,514 641,517 C641,520 639,522 636,522 C639,522 641,524 641,527 C641,530 639,532 636,532 C639,532 641,534 641,537 C641,540 639,542 636,542 C639,542 641,544 641,547 C641,550 639,552 636,552 C639,552 641,554 641,557 C641,560 639,562 636,562 C639,562 641,564 641,567 C641,570 639,572 636,572 C639,572 641,574 641,577 C641,580 639,582 636,582 C639,582 641,584 641,587 C641,590 639,592 636,592 C639,592 641,594 641,597 C641,600 639,602 636,602 C639,602 641,604 641,607 C641,610 639,612 636,612 C636,615 633,617 631,617 C628,617 626,615 626,612 C626,615 623,617 621,617 C618,617 616,615 616,612 C616,615 613,617 611,617 C608,617 606,615 606,612 C606,615 603,617 601,617 C598,617 596,615 596,612 C596,615 593,617 591,617 C588,617 586,615 586,612 C586,615 583,617 581,617 C578,617 576,615 576,612 C576,615 573,617 571,617 C568,617 566,615 566,612 C566,615 563,617 561,617 C558,617 556,615 556,612 C556,615 553,617 551,617 C548,617 546,615 546,612 C546,615 543,617 541,617 C538,617 536,615 536,612 C536,615 533,617 531,617 C528,617 526,615 526,612 C526,615 523,617 521,617 C518,617 516,615 516,612 C516,615 513,617 511,617 C508,617 506,615 506,612 C506,615 503,617 501,617 C498,617 496,615 496,612 C496,615 493,617 491,617 C488,617 486,615 486,612 C486,615 483,617 481,617 C478,617 476,615 476,612 C476,615 473,617 471,617 C468,617 466,615 466,612 C466,615 463,617 461,617 C458,617 456,615 456,612 C456,615 453,617 451,617 C448,617 446,615 446,612 C446,615 443,617 441,617 C438,617 436,615 436,612 C436,615 433,617 431,617 C428,617 426,615 426,612 C426,615 423,617 421,617 C418,617 416,615 416,612 C416,615 413,617 411,617 C408,617 406,615 406,612 C406,615 403,617 401,617 C398,617 396,615 396,612 C396,615 393,617 391,617 C388,617 386,615 386,612 C386,615 383,617 381,617 C378,617 376,615 376,612 C376,615 373,617 371,617 C368,617 366,615 366,612 C366,615 363,617 361,617 C358,617 356,615 356,612 C356,615 353,617 351,617 C348,617 346,615 346,612 C346,615 343,617 341,617 C338,617 336,615 336,612 C336,615 333,617 331,617 C328,617 326,615 326,612 C326,615 323,617 321,617 C318,617 316,615 316,612 C316,615 313,617 311,617 C308,617 306,615 306,612 C306,615 303,617 301,617 C298,617 296,615 296,612 C296,615 293,617 291,617 C288,617 286,615 286,612 C286,615 283,617 281,617 C278,617 276,615 276,612 C276,615 273,617 271,617 C268,617 266,615 266,612 C266,615 263,617 261,617 C258,617 256,615 256,612 C256,615 253,617 251,617 C248,617 246,615 246,612 C246,615 243,617 241,617 C238,617 236,615 236,612 C236,615 233,617 231,617 C228,617 226,615 226,612 C226,615 223,617 221,617 C218,617 216,615 216,612 C216,615 213,617 211,617 C208,617 206,615 206,612 C206,615 203,617 201,617 C198,617 196,615 196,612 C196,615 193,617 191,617 C188,617 186,615 186,612 C186,615 183,617 181,617 C178,617 176,615 176,612 C176,615 173,617 171,617 C168,617 166,615 166,612 C166,615 163,617 161,617 C158,617 156,615 156,612 C156,615 153,617 151,617 C148,617 146,615 146,612 C146,615 143,617 141,617 C138,617 136,615 136,612 C136,615 133,617 131,617 C128,617 126,615 126,612 C123,612 121,610 121,607 C121,604 123,602 126,602 C123,602 121,600 121,597 C121,594 123,592 126,592 C123,592 121,590 121,587 C121,584 123,582 126,582 C123,582 121,580 121,577 C121,574 123,572 126,572 C123,572 121,570 121,567 C121,564 123,562 126,562 C123,562 121,560 121,557 C121,554 123,552 126,552 C123,552 121,550 121,547 C121,544 123,542 126,542 C123,542 121,540 121,537 C121,534 123,532 126,532 C123,532 121,530 121,527 C121,524 123,522 126,522 C123,522 121,520 121,517 C121,514 123,512 126,512 C123,512 121,510 121,507 C121,504 123,502 126,502 C123,502 121,500 121,497 C121,494 123,492 126,492 C123,492 121,490 121,487 C121,484 123,482 126,482 C123,482 121,480 121,477 C121,474 123,472 126,472 C123,472 121,470 121,467 C121,464 123,462 126,462 C123,462 121,460 121,457 C121,454 123,452 126,452 C123,452 121,450 121,447 C121,444 123,442 126,442 C123,442 121,440 121,437 C121,434 123,432 126,432 C123,432 121,430 121,427 C121,424 123,422 126,422 C123,422 121,420 121,417 C121,414 123,412 126,412 C123,412 121,410 121,407 C121,404 123,402 126,402 C123,402 121,400 121,397 C121,394 123,392 126,392 C123,392 121,390 121,387 C121,384 123,382 126,382 C123,382 121,380 121,377 C121,374 123,372 126,372 C123,372 121,370 121,367 C121,364 123,362 126,362 C123,362 121,360 121,357 C121,354 123,352 126,352 C123,352 121,350 121,347 C121,344 123,342 126,342 C123,342 121,340 121,337 C121,334 123,332 126,332 C123,332 121,330 121,327 C121,324 123,322 126,322 C123,322 121,320 121,317 C121,314 123,312 126,312 C123,312 121,310 121,307 C121,304 123,302 126,302 C123,302 121,300 121,297 C121,294 123,292 126,292 C123,292 121,290 121,287 C121,284 123,282 126,282 C123,282 121,280 121,277 C121,274 123,272 126,272 C123,272 121,270 121,267 C121,264 123,262 126,262 C123,262 121,260 121,257 C121,254 123,252 126,252 C123,252 121,250 121,247 C121,244 123,242 126,242 C123,242 121,240 121,237 C121,234 123,232 126,232 C123,232 121,230 121,227 C121,224 123,222 126,222 C123,222 121,220 121,217 C121,214 123,212 126,212 C123,212 121,210 121,207 C121,204 123,202 126,202 C123,202 121,200 121,197 C121,194 123,192 126,192 C123,192 121,190 121,187 C121,184 123,182 126,182 C123,182 121,180 121,177 C121,174 123,172 126,172 C123,172 121,170 121,167 C121,164 123,162 126,162 C123,162 121,160 121,157 C121,154 123,152 126,152 C123,152 121,150 121,147 C121,144 123,142 126,142 " fill="#FFFFFF" filter="url(#fbkyxnvx45mxo)" style="stroke: #000000; stroke-width: 1.5;"/><text fill="#000000" font-family="sans-serif" font-size="14" font-weight="bold" lengthAdjust="spacingAndGlyphs" textLength="153" x="302.5" y="160.9951">Kubernetes cluster</text><!--cluster Sechub Server POD (1..n)--><polygon fill="#FFFFFF" filter="url(#fbkyxnvx45mxo)" points="147,178,355,178,362,200.2969,432,200.2969,432,477,147,477,147,178" style="stroke: #000000; stroke-width: 1.5;"/><line style="stroke: #000000; stroke-width: 1.5;" x1="147" x2="362" y1="200.2969" y2="200.2969"/><text fill="#000000" font-family="sans-serif" font-size="14" font-weight="bold" lengthAdjust="spacingAndGlyphs" textLength="202" x="151" y="192.9951">Sechub Server POD (1..n)</text><!--cluster Database POD (1)--><polygon fill="#FFFFFF" filter="url(#fbkyxnvx45mxo)" points="304,501,448,501,455,523.2969,458,523.2969,458,597,304,597,304,501" style="stroke: #000000; stroke-width: 1.5;"/><line style="stroke: #000000; stroke-width: 1.5;" x1="304" x2="455" y1="523.2969" y2="523.2969"/><text fill="#000000" font-family="sans-serif" font-size="14" font-weight="bold" lengthAdjust="spacingAndGlyphs" textLength="138" x="308" y="515.9951">Database POD (1)</text><!--cluster Shared Volumes--><polygon fill="#FFFFFF" filter="url(#fbkyxnvx45mxo)" points="456,385,591,385,598,407.2969,601,407.2969,601,472,456,472,456,385" style="stroke: #000000; stroke-width: 1.5;"/><line style="stroke: #000000; stroke-width: 1.5;" x1="456" x2="598" y1="407.2969" y2="407.2969"/><text fill="#000000" font-family="sans-serif" font-size="14" font-weight="bold" lengthAdjust="spacingAndGlyphs" textLength="129" x="460" y="399.9951">Shared Volumes</text><!--cluster Hosted 3rdParty security products--><path d="M662,281 C662,278 664,276 667,276 C670,276 672,278 672,281 C672,278 674,276 677,276 C680,276 682,278 682,281 C682,278 684,276 687,276 C690,276 692,278 692,281 C692,278 694,276 697,276 C700,276 702,278 702,281 C702,278 704,276 707,276 C710,276 712,278 712,281 C712,278 714,276 717,276 C720,276 722,278 722,281 C722,278 724,276 727,276 C730,276 732,278 732,281 C732,278 734,276 737,276 C740,276 742,278 742,281 C742,278 744,276 747,276 C750,276 752,278 752,281 C752,278 754,276 757,276 C760,276 762,278 762,281 C762,278 764,276 767,276 C770,276 772,278 772,281 C772,278 774,276 777,276 C780,276 782,278 782,281 C782,278 784,276 787,276 C790,276 792,278 792,281 C792,278 794,276 797,276 C800,276 802,278 802,281 C802,278 804,276 807,276 C810,276 812,278 812,281 C812,278 814,276 817,276 C820,276 822,278 822,281 C822,278 824,276 827,276 C830,276 832,278 832,281 C832,278 834,276 837,276 C840,276 842,278 842,281 C842,278 844,276 847,276 C850,276 852,278 852,281 C852,278 854,276 857,276 C860,276 862,278 862,281 C862,278 864,276 867,276 C870,276 872,278 872,281 C872,278 874,276 877,276 C880,276 882,278 882,281 C882,278 884,276 887,276 C890,276 892,278 892,281 C892,278 894,276 897,276 C900,276 902,278 902,281 C902,278 904,276 907,276 C910,276 912,278 912,281 C912,278 914,276 917,276 C920,276 922,278 922,281 C922,278 924,276 927,276 C930,276 932,278 932,281 C932,278 934,276 937,276 C940,276 942,278 942,281 C942,278 944,276 947,276 C950,276 952,278 952,281 C952,278 954,276 957,276 C960,276 962,278 962,281 C962,278 964,276 967,276 C970,276 972,278 972,281 C972,278 974,276 977,276 C980,276 982,278 982,281 C982,278 984,276 987,276 C990,276 992,278 992,281 C992,278 994,276 997,276 C1000,276 1002,278 1002,281 C1002,278 1004,276 1007,276 C1010,276 1012,278 1012,281 C1012,278 1014,276 1017,276 C1020,276 1022,278 1022,281 C1022,278 1024,276 1027,276 C1030,276 1032,278 1032,281 C1032,278 1034,276 1037,276 C1040,276 1042,278 1042,281 C1042,278 1044,276 1047,276 C1050,276 1052,278 1052,281 C1052,278 1054,276 1057,276 C1060,276 1062,278 1062,281 C1065,281 1067,283 1067,286 C1067,289 1065,291 1062,291 C1065,291 1067,293 1067,296 C1067,299 1065,301 1062,301 C1065,301 1067,303 1067,306 C1067,309 1065,311 1062,311 C1065,311 1067,313 1067,316 C1067,319 1065,321 1062,321 C1065,321 1067,323 1067,326 C1067,329 1065,331 1062,331 C1065,331 1067,333 1067,336 C1067,339 1065,341 1062,341 C1065,341 1067,343 1067,346 C1067,349 1065,351 1062,351 C1062,354 1059,356 1057,356 C1054,356 1052,354 1052,351 C1052,354 1049,356 1047,356 C1044,356 1042,354 1042,351 C1042,354 1039,356 1037,356 C1034,356 1032,354 1032,351 C1032,354 1029,356 1027,356 C1024,356 1022,354 1022,351 C1022,354 1019,356 1017,356 C1014,356 1012,354 1012,351 C1012,354 1009,356 1007,356 C1004,356 1002,354 1002,351 C1002,354 999,356 997,356 C994,356 992,354 992,351 C992,354 989,356 987,356 C984,356 982,354 982,351 C982,354 979,356 977,356 C974,356 972,354 972,351 C972,354 969,356 967,356 C964,356 962,354 962,351 C962,354 959,356 957,356 C954,356 952,354 952,351 C952,354 949,356 947,356 C944,356 942,354 942,351 C942,354 939,356 937,356 C934,356 932,354 932,351 C932,354 929,356 927,356 C924,356 922,354 922,351 C922,354 919,356 917,356 C914,356 912,354 912,351 C912,354 909,356 907,356 C904,356 902,354 902,351 C902,354 899,356 897,356 C894,356 892,354 892,351 C892,354 889,356 887,356 C884,356 882,354 882,351 C882,354 879,356 877,356 C874,356 872,354 872,351 C872,354 869,356 867,356 C864,356 862,354 862,351 C862,354 859,356 857,356 C854,356 852,354 852,351 C852,354 849,356 847,356 C844,356 842,354 842,351 C842,354 839,356 837,356 C834,356 832,354 832,351 C832,354 829,356 827,356 C824,356 822,354 822,351 C822,354 819,356 817,356 C814,356 812,354 812,351 C812,354 809,356 807,356 C804,356 802,354 802,351 C802,354 799,356 797,356 C794,356 792,354 792,351 C792,354 789,356 787,356 C784,356 782,354 782,351 C782,354 779,356 777,356 C774,356 772,354 772,351 C772,354 769,356 767,356 C764,356 762,354 762,351 C762,354 759,356 757,356 C754,356 752,354 752,351 C752,354 749,356 747,356 C744,356 742,354 742,351 C742,354 739,356 737,356 C734,356 732,354 732,351 C732,354 729,356 727,356 C724,356 722,354 722,351 C722,354 719,356 717,356 C714,356 712,354 712,351 C712,354 709,356 707,356 C704,356 702,354 702,351 C702,354 699,356 697,356 C694,356 692,354 692,351 C692,354 689,356 687,356 C684,356 682,354 682,351 C682,354 679,356 677,356 C674,356 672,354 672,351 C672,354 669,356 667,356 C664,356 662,354 662,351 C659,351 657,349 657,346 C657,343 659,341 662,341 C659,341 657,339 657,336 C657,333 659,331 662,331 C659,331 657,329 657,326 C657,323 659,321 662,321 C659,321 657,319 657,316 C657,313 659,311 662,311 C659,311 657,309 657,306 C657,303 659,301 662,301 C659,301 657,299 657,296 C657,293 659,291 662,291 C659,291 657,289 657,286 C657,283 659,281 662,281 " fill="#FFFFFF" filter="url(#fbkyxnvx45mxo)" style="stroke: #000000; stroke-width: 1.5;"/><text fill="#000000" font-family="sans-serif" font-size="14" font-weight="bold" lengthAdjust="spacingAndGlyphs" textLength="274" x="723" y="299.9951">Hosted 3rdParty security products</text><!--entity cli--><rect fill="#FEFECE" filter="url(#fbkyxnvx45mxo)" height="36.2969" style="stroke: #A80036; stroke-width: 1.5;" width="40" x="78" y="59"/><rect fill="#FEFECE" height="5" style="stroke: #A80036; stroke-width: 1.5;" width="10" x="73" y="64"/><rect fill="#FEFECE" height="5" style="stroke: #A80036; stroke-width: 1.5;" width="10" x="73" y="85.2969"/><text fill="#000000" font-family="sans-serif" font-size="14" lengthAdjust="spacingAndGlyphs" textLength="20" x="88" y="81.9951">CLI</text><!--entity job_engine--><rect fill="#FEFECE" filter="url(#fbkyxnvx45mxo)" height="36.2969" style="stroke: #A80036; stroke-width: 1.5;" width="85" x="241.5" y="213"/><rect fill="#FEFECE" height="5" style="stroke: #A80036; stroke-width: 1.5;" width="10" x="236.5" y="218"/><rect fill="#FEFECE" height="5" style="stroke: #A80036; stroke-width: 1.5;" width="10" x="236.5" y="239.2969"/><text fill="#000000" font-family="sans-serif" font-size="14" lengthAdjust="spacingAndGlyphs" textLength="65" x="251.5" y="235.9951">Schedule</text><!--entity source_upload--><rect fill="#FEFECE" filter="url(#fbkyxnvx45mxo)" height="36.2969" style="stroke: #A80036; stroke-width: 1.5;" width="121" x="294.5" y="420"/><rect fill="#FEFECE" height="5" style="stroke: #A80036; stroke-width: 1.5;" width="10" x="289.5" y="425"/><rect fill="#FEFECE" height="5" style="stroke: #A80036; stroke-width: 1.5;" width="10" x="289.5" y="446.2969"/><text fill="#000000" font-family="sans-serif" font-size="14" lengthAdjust="spacingAndGlyphs" textLength="101" x="304.5" y="442.9951">Source Upload</text><!--entity scan_engine--><rect fill="#FEFECE" filter="url(#fbkyxnvx45mxo)" height="36.2969" style="stroke: #A80036; stroke-width: 1.5;" width="54" x="362" y="213"/><rect fill="#FEFECE" height="5" style="stroke: #A80036; stroke-width: 1.5;" width="10" x="357" y="218"/><rect fill="#FEFECE" height="5" style="stroke: #A80036; stroke-width: 1.5;" width="10" x="357" y="239.2969"/><text fill="#000000" font-family="sans-serif" font-size="14" lengthAdjust="spacingAndGlyphs" textLength="34" x="372" y="235.9951">Scan</text><!--entity report_service--><rect fill="#FEFECE" filter="url(#fbkyxnvx45mxo)" height="36.2969" style="stroke: #A80036; stroke-width: 1.5;" width="67" x="170.5" y="309"/><rect fill="#FEFECE" height="5" style="stroke: #A80036; stroke-width: 1.5;" width="10" x="165.5" y="314"/><rect fill="#FEFECE" height="5" style="stroke: #A80036; stroke-width: 1.5;" width="10" x="165.5" y="335.2969"/><text fill="#000000" font-family="sans-serif" font-size="14" lengthAdjust="spacingAndGlyphs" textLength="47" x="180.5" y="331.9951">Report</text><!--entity sereco--><polygon fill="#FFFFFF" filter="url(#fbkyxnvx45mxo)" points="163,425,173,415,259,415,259,451.2969,249,461.2969,163,461.2969,163,425" style="stroke: #000000; stroke-width: 1.5;"/><line style="stroke: #000000; stroke-width: 1.5;" x1="249" x2="258" y1="425" y2="416"/><line style="stroke: #000000; stroke-width: 1.5;" x1="163" x2="249" y1="425" y2="425"/><line style="stroke: #000000; stroke-width: 1.5;" x1="249" x2="249" y1="425" y2="461.2969"/><text fill="#000000" font-family="sans-serif" font-size="14" lengthAdjust="spacingAndGlyphs" textLength="56" x="178" y="447.9951">SeReCo</text><!--entity db--><path d="M323,546 C323,536 364,536 364,536 C364,536 405,536 405,546 L405,571.2969 C405,581.2969 364,581.2969 364,581.2969 C364,581.2969 323,581.2969 323,571.2969 L323,546 " fill="#FFFFFF" filter="url(#fbkyxnvx45mxo)" style="stroke: #000000; stroke-width: 1.5;"/><path d="M323,546 C323,556 364,556 364,556 C364,556 405,556 405,546 " fill="none" style="stroke: #000000; stroke-width: 1.5;"/><text fill="#000000" font-family="sans-serif" font-size="14" lengthAdjust="spacingAndGlyphs" textLength="62" x="333" y="572.9951">Postgres</text><!--entity NFS--><rect fill="#FEFECE" filter="url(#fbkyxnvx45mxo)" height="36.2969" rx="35" ry="35" style="stroke: #000000; stroke-width: 1.5;" width="47" x="472.5" y="420"/><text fill="#000000" font-family="sans-serif" font-size="14" lengthAdjust="spacingAndGlyphs" textLength="27" x="482.5" y="442.9951">NFS</text><!--entity product1--><rect fill="#FEFECE" filter="url(#fbkyxnvx45mxo)" height="36.2969" style="stroke: #A80036; stroke-width: 1.5;" width="133" x="911.5" y="309"/><rect fill="#FEFECE" height="5" style="stroke: #A80036; stroke-width: 1.5;" width="10" x="906.5" y="314"/><rect fill="#FEFECE" height="5" style="stroke: #A80036; stroke-width: 1.5;" width="10" x="906.5" y="335.2969"/><text fill="#000000" font-family="sans-serif" font-size="14" lengthAdjust="spacingAndGlyphs" textLength="113" x="921.5" y="331.9951">Security Product</text><!--entity moreProducts--><rect fill="#FEFECE" filter="url(#fbkyxnvx45mxo)" height="36.2969" style="stroke: #A80036; stroke-width: 1.5;" width="32" x="844" y="309"/><rect fill="#FEFECE" height="5" style="stroke: #A80036; stroke-width: 1.5;" width="10" x="839" y="314"/><rect fill="#FEFECE" height="5" style="stroke: #A80036; stroke-width: 1.5;" width="10" x="839" y="335.2969"/><text fill="#000000" font-family="sans-serif" font-size="14" lengthAdjust="spacingAndGlyphs" textLength="12" x="854" y="331.9951">...</text><!--entity productn--><rect fill="#FEFECE" filter="url(#fbkyxnvx45mxo)" height="36.2969" style="stroke: #A80036; stroke-width: 1.5;" width="133" x="675.5" y="309"/><rect fill="#FEFECE" height="5" style="stroke: #A80036; stroke-width: 1.5;" width="10" x="670.5" y="314"/><rect fill="#FEFECE" height="5" style="stroke: #A80036; stroke-width: 1.5;" width="10" x="670.5" y="335.2969"/><text fill="#000000" font-family="sans-serif" font-size="14" lengthAdjust="spacingAndGlyphs" textLength="113" x="685.5" y="331.9951">Security Product</text><!--entity HTTPS--><ellipse cx="98" cy="231" fill="#FEFECE" filter="url(#fbkyxnvx45mxo)" rx="8" ry="8" style="stroke: #A80036; stroke-width: 2.0;"/><text fill="#000000" font-family="sans-serif" font-size="14" lengthAdjust="spacingAndGlyphs" textLength="46" x="75" y="260.9951">HTTPS</text><!--link HTTPS to job_engine--><path d="M107.08,231 C150.14,231 193.19,231 236.25,231 " fill="none" id="HTTPS-job_engine" style="stroke: #A80036; stroke-width: 1.0;"/><polygon fill="#A80036" points="241.5,231,232.5,227,236.5,231,232.5,235,241.5,231" style="stroke: #A80036; stroke-width: 1.0;"/><!--link HTTPS to report_service--><path d="M107.04,240.01 C123.22,254.37 157.63,284.88 180.79,305.42 " fill="none" id="HTTPS-report_service" style="stroke: #A80036; stroke-width: 1.0;"/><polygon fill="#A80036" points="184.69,308.88,180.6038,299.9188,180.9467,305.5653,175.3002,305.9082,184.69,308.88" style="stroke: #A80036; stroke-width: 1.0;"/><!--link job_engine to source_upload--><path d="M282.48,249.13 C288.54,286.21 318.64,373.89 339.12,415 " fill="none" id="job_engine-source_upload" style="stroke: #A80036; stroke-width: 1.0;"/><polygon fill="#A80036" points="341.56,419.78,340.9996,409.9471,339.2726,415.3339,333.8858,413.6069,341.56,419.78" style="stroke: #A80036; stroke-width: 1.0;"/><!--link job_engine to source_upload--><!--link NFS to source_upload--><path d="M467.11,438 C449.94,438 432.76,438 415.59,438 " fill="none" id="NFS-source_upload" style="stroke: #A80036; stroke-width: 1.0;"/><polygon fill="#A80036" points="472.44,438,463.44,434,467.44,438,463.44,442,472.44,438" style="stroke: #A80036; stroke-width: 1.0;"/><!--link scan_engine to NFS--><path d="M397.94,249.13 C417.29,286.21 463.06,373.89 484.52,415 " fill="none" id="scan_engine-NFS" style="stroke: #A80036; stroke-width: 1.0;"/><polygon fill="#A80036" points="487.01,419.78,486.3867,409.9509,484.6942,415.3486,479.2965,413.6561,487.01,419.78" style="stroke: #A80036; stroke-width: 1.0;"/><!--link job_engine to scan_engine--><path d="M326.66,231 C336.61,231 346.56,231 356.52,231 " fill="none" id="job_engine-scan_engine" style="stroke: #A80036; stroke-width: 1.0;"/><polygon fill="#A80036" points="361.72,231,352.72,227,356.72,231,352.72,235,361.72,231" style="stroke: #A80036; stroke-width: 1.0;"/><!--link cli to HTTPS--><path d="M98,95.14 C98,125.71 98,189.02 98,216.63 " fill="none" id="cli-HTTPS" style="stroke: #A80036; stroke-width: 1.0;"/><polygon fill="#A80036" points="98,221.66,102,212.66,98,216.66,94,212.66,98,221.66" style="stroke: #A80036; stroke-width: 1.0;"/><!--link scan_engine to product1--><path d="M416.23,231.89 C507.94,231.81 804.86,234.09 894,266 C917.64,274.46 940.57,291.64 956.48,305.45 " fill="none" id="scan_engine-product1" style="stroke: #A80036; stroke-width: 1.0;"/><polygon fill="#A80036" points="960.37,308.88,956.2476,299.9354,956.6133,305.5804,950.9683,305.9461,960.37,308.88" style="stroke: #A80036; stroke-width: 1.0;"/><!--link scan_engine to productn--><path d="M416.08,232.9 C460.95,235.04 553.1,242.21 627,266 C657.14,275.7 688.87,292.85 711.35,306.34 " fill="none" id="scan_engine-productn" style="stroke: #A80036; stroke-width: 1.0;"/><polygon fill="#A80036" points="715.72,308.98,710.1,300.892,711.4452,306.3866,705.9506,307.7317,715.72,308.98" style="stroke: #A80036; stroke-width: 1.0;"/><!--link report_service to sereco--><path d="M205.09,345.03 C206.21,362.36 207.95,389.49 209.25,409.8 " fill="none" id="report_service-sereco" style="stroke: #A80036; stroke-width: 1.0;"/><polygon fill="#A80036" points="209.58,414.81,213.0059,405.5762,209.2654,409.8199,205.0217,406.0795,209.58,414.81" style="stroke: #A80036; stroke-width: 1.0;"/><!--link sereco to db--><path d="M239.42,461.01 C265.59,481.28 304.38,511.32 331.71,532.49 " fill="none" id="sereco-db" style="stroke: #A80036; stroke-width: 1.0;"/><polygon fill="#A80036" points="335.99,535.81,331.3133,527.1423,332.0333,532.7532,326.4224,533.4731,335.99,535.81" style="stroke: #A80036; stroke-width: 1.0;"/><!--link scan_engine to db--><path d="M416.07,247.9 C452.15,270.95 514.01,317.48 536,377 C552.64,422.02 562.54,445.01 536,485 C508.3,526.73 451.35,544.5 410.57,552.03 " fill="none" id="scan_engine-db" style="stroke: #A80036; stroke-width: 1.0;"/><polygon fill="#A80036" points="405.18,552.98,414.7402,555.3471,410.1032,552.107,413.3433,547.47,405.18,552.98" style="stroke: #A80036; stroke-width: 1.0;"/><!--link job_engine to sereco--><!--
@startuml

package "Sechub CLI client" {
  [CLI] as cli
}

cloud "Kubernetes cluster"{

	package "Sechub Server POD (1..n)" {
	  	[Schedule] as job_engine
	    [Source Upload] as source_upload
	  	[Scan] as scan_engine
	  	[Report] as report_service


		node "SeReCo" as sereco {
		}

	}
    package "Database POD (1)" {
    	database "Postgres" as db {
    	}
    }

    package "Shared Volumes"{
	   storage "NFS"
    }


}

cloud "Hosted 3rdParty security products" {
  [Security Product] as product1
  [...] as moreProducts
  [Security Product] as productn
}

HTTPS -> job_engine
HTTPS -> report_service

job_engine -> source_upload

NFS <- source_upload
scan_engine -> NFS
job_engine -> scan_engine




cli - -> HTTPS
scan_engine - -> product1
scan_engine - -> productn
report_service - -> sereco
sereco - -> db
scan_engine - -> db

job_engine -[hidden]- -> sereco
job_engine -[hidden]- -> source_upload

@enduml

PlantUML version 1.2018.13(Mon Nov 26 18:11:51 CET 2018)
(APACHE source distribution)
Java Runtime: OpenJDK Runtime Environment
JVM: OpenJDK 64-Bit Server VM
Java Version: 1.8.0_265-8u265-b01-0ubuntu2~20.04-b01
Operating System: Linux
OS Version: 5.4.0-48-generic
Default Encoding: UTF-8
Language: en
Country: US
--></g></svg>