<?xml version="1.0" encoding="UTF-8" standalone="no"?><svg xmlns="http://www.w3.org/2000/svg" xmlns:xlink="http://www.w3.org/1999/xlink" contentScriptType="application/ecmascript" contentStyleType="text/css" height="724px" preserveAspectRatio="none" style="width:1016px;height:724px;" version="1.1" viewBox="0 0 1016 724" width="1016px" zoomAndPan="magnify"><defs><filter height="300%" id="f4myl05" width="300%" x="-1" y="-1"><feGaussianBlur result="blurOut" stdDeviation="2.0"/><feColorMatrix in="blurOut" result="blurOut2" type="matrix" values="0 0 0 0 0 0 0 0 0 0 0 0 0 0 0 0 0 0 .4 0"/><feOffset dx="4.0" dy="4.0" in="blurOut2" result="blurOut3"/><feBlend in="SourceGraphic" in2="blurOut3" mode="normal"/></filter></defs><g><!--cluster Sechub CLI client--><polygon fill="#FFFFFF" filter="url(#f4myl05)" points="857,24,999,24,1006,46.2969,1009,46.2969,1009,111,857,111,857,24" style="stroke: #000000; stroke-width: 2.0;"/><line style="stroke: #000000; stroke-width: 2.0;" x1="857" x2="1006" y1="46.2969" y2="46.2969"/><text fill="#000000" font-family="sans-serif" font-size="14" font-weight="bold" lengthAdjust="spacingAndGlyphs" textLength="136" x="861" y="38.9951">Sechub CLI client</text><!--cluster Kubernetes cluster--><path d="M451,142 C451,139 453,137 456,137 C459,137 461,139 461,142 C461,139 463,137 466,137 C469,137 471,139 471,142 C471,139 473,137 476,137 C479,137 481,139 481,142 C481,139 483,137 486,137 C489,137 491,139 491,142 C491,139 493,137 496,137 C499,137 501,139 501,142 C501,139 503,137 506,137 C509,137 511,139 511,142 C511,139 513,137 516,137 C519,137 521,139 521,142 C521,139 523,137 526,137 C529,137 531,139 531,142 C531,139 533,137 536,137 C539,137 541,139 541,142 C541,139 543,137 546,137 C549,137 551,139 551,142 C551,139 553,137 556,137 C559,137 561,139 561,142 C561,139 563,137 566,137 C569,137 571,139 571,142 C571,139 573,137 576,137 C579,137 581,139 581,142 C581,139 583,137 586,137 C589,137 591,139 591,142 C591,139 593,137 596,137 C599,137 601,139 601,142 C601,139 603,137 606,137 C609,137 611,139 611,142 C611,139 613,137 616,137 C619,137 621,139 621,142 C621,139 623,137 626,137 C629,137 631,139 631,142 C631,139 633,137 636,137 C639,137 641,139 641,142 C641,139 643,137 646,137 C649,137 651,139 651,142 C651,139 653,137 656,137 C659,137 661,139 661,142 C661,139 663,137 666,137 C669,137 671,139 671,142 C671,139 673,137 676,137 C679,137 681,139 681,142 C681,139 683,137 686,137 C689,137 691,139 691,142 C691,139 693,137 696,137 C699,137 701,139 701,142 C701,139 703,137 706,137 C709,137 711,139 711,142 C711,139 713,137 716,137 C719,137 721,139 721,142 C721,139 723,137 726,137 C729,137 731,139 731,142 C731,139 733,137 736,137 C739,137 741,139 741,142 C741,139 743,137 746,137 C749,137 751,139 751,142 C751,139 753,137 756,137 C759,137 761,139 761,142 C761,139 763,137 766,137 C769,137 771,139 771,142 C771,139 773,137 776,137 C779,137 781,139 781,142 C781,139 783,137 786,137 C789,137 791,139 791,142 C791,139 793,137 796,137 C799,137 801,139 801,142 C801,139 803,137 806,137 C809,137 811,139 811,142 C811,139 813,137 816,137 C819,137 821,139 821,142 C821,139 823,137 826,137 C829,137 831,139 831,142 C831,139 833,137 836,137 C839,137 841,139 841,142 C841,139 843,137 846,137 C849,137 851,139 851,142 C851,139 853,137 856,137 C859,137 861,139 861,142 C861,139 863,137 866,137 C869,137 871,139 871,142 C871,139 873,137 876,137 C879,137 881,139 881,142 C881,139 883,137 886,137 C889,137 891,139 891,142 C894,142 896,144 896,147 C896,150 894,152 891,152 C894,152 896,154 896,157 C896,160 894,162 891,162 C894,162 896,164 896,167 C896,170 894,172 891,172 C894,172 896,174 896,177 C896,180 894,182 891,182 C894,182 896,184 896,187 C896,190 894,192 891,192 C894,192 896,194 896,197 C896,200 894,202 891,202 C894,202 896,204 896,207 C896,210 894,212 891,212 C894,212 896,214 896,217 C896,220 894,222 891,222 C894,222 896,224 896,227 C896,230 894,232 891,232 C894,232 896,234 896,237 C896,240 894,242 891,242 C894,242 896,244 896,247 C896,250 894,252 891,252 C894,252 896,254 896,257 C896,260 894,262 891,262 C894,262 896,264 896,267 C896,270 894,272 891,272 C894,272 896,274 896,277 C896,280 894,282 891,282 C894,282 896,284 896,287 C896,290 894,292 891,292 C894,292 896,294 896,297 C896,300 894,302 891,302 C894,302 896,304 896,307 C896,310 894,312 891,312 C894,312 896,314 896,317 C896,320 894,322 891,322 C894,322 896,324 896,327 C896,330 894,332 891,332 C894,332 896,334 896,337 C896,340 894,342 891,342 C894,342 896,344 896,347 C896,350 894,352 891,352 C894,352 896,354 896,357 C896,360 894,362 891,362 C894,362 896,364 896,367 C896,370 894,372 891,372 C894,372 896,374 896,377 C896,380 894,382 891,382 C894,382 896,384 896,387 C896,390 894,392 891,392 C894,392 896,394 896,397 C896,400 894,402 891,402 C894,402 896,404 896,407 C896,410 894,412 891,412 C894,412 896,414 896,417 C896,420 894,422 891,422 C894,422 896,424 896,427 C896,430 894,432 891,432 C894,432 896,434 896,437 C896,440 894,442 891,442 C894,442 896,444 896,447 C896,450 894,452 891,452 C894,452 896,454 896,457 C896,460 894,462 891,462 C894,462 896,464 896,467 C896,470 894,472 891,472 C894,472 896,474 896,477 C896,480 894,482 891,482 C894,482 896,484 896,487 C896,490 894,492 891,492 C894,492 896,494 896,497 C896,500 894,502 891,502 C894,502 896,504 896,507 C896,510 894,512 891,512 C894,512 896,514 896,517 C896,520 894,522 891,522 C894,522 896,524 896,527 C896,530 894,532 891,532 C894,532 896,534 896,537 C896,540 894,542 891,542 C894,542 896,544 896,547 C896,550 894,552 891,552 C894,552 896,554 896,557 C896,560 894,562 891,562 C894,562 896,564 896,567 C896,570 894,572 891,572 C894,572 896,574 896,577 C896,580 894,582 891,582 C894,582 896,584 896,587 C896,590 894,592 891,592 C894,592 896,594 896,597 C896,600 894,602 891,602 C894,602 896,604 896,607 C896,610 894,612 891,612 C894,612 896,614 896,617 C896,620 894,622 891,622 C894,622 896,624 896,627 C896,630 894,632 891,632 C894,632 896,634 896,637 C896,640 894,642 891,642 C894,642 896,644 896,647 C896,650 894,652 891,652 C894,652 896,654 896,657 C896,660 894,662 891,662 C894,662 896,664 896,667 C896,670 894,672 891,672 C894,672 896,674 896,677 C896,680 894,682 891,682 C894,682 896,684 896,687 C896,690 894,692 891,692 C894,692 896,694 896,697 C896,700 894,702 891,702 C894,702 896,704 896,707 C896,710 894,712 891,712 C891,715 888,717 886,717 C883,717 881,715 881,712 C881,715 878,717 876,717 C873,717 871,715 871,712 C871,715 868,717 866,717 C863,717 861,715 861,712 C861,715 858,717 856,717 C853,717 851,715 851,712 C851,715 848,717 846,717 C843,717 841,715 841,712 C841,715 838,717 836,717 C833,717 831,715 831,712 C831,715 828,717 826,717 C823,717 821,715 821,712 C821,715 818,717 816,717 C813,717 811,715 811,712 C811,715 808,717 806,717 C803,717 801,715 801,712 C801,715 798,717 796,717 C793,717 791,715 791,712 C791,715 788,717 786,717 C783,717 781,715 781,712 C781,715 778,717 776,717 C773,717 771,715 771,712 C771,715 768,717 766,717 C763,717 761,715 761,712 C761,715 758,717 756,717 C753,717 751,715 751,712 C751,715 748,717 746,717 C743,717 741,715 741,712 C741,715 738,717 736,717 C733,717 731,715 731,712 C731,715 728,717 726,717 C723,717 721,715 721,712 C721,715 718,717 716,717 C713,717 711,715 711,712 C711,715 708,717 706,717 C703,717 701,715 701,712 C701,715 698,717 696,717 C693,717 691,715 691,712 C691,715 688,717 686,717 C683,717 681,715 681,712 C681,715 678,717 676,717 C673,717 671,715 671,712 C671,715 668,717 666,717 C663,717 661,715 661,712 C661,715 658,717 656,717 C653,717 651,715 651,712 C651,715 648,717 646,717 C643,717 641,715 641,712 C641,715 638,717 636,717 C633,717 631,715 631,712 C631,715 628,717 626,717 C623,717 621,715 621,712 C621,715 618,717 616,717 C613,717 611,715 611,712 C611,715 608,717 606,717 C603,717 601,715 601,712 C601,715 598,717 596,717 C593,717 591,715 591,712 C591,715 588,717 586,717 C583,717 581,715 581,712 C581,715 578,717 576,717 C573,717 571,715 571,712 C571,715 568,717 566,717 C563,717 561,715 561,712 C561,715 558,717 556,717 C553,717 551,715 551,712 C551,715 548,717 546,717 C543,717 541,715 541,712 C541,715 538,717 536,717 C533,717 531,715 531,712 C531,715 528,717 526,717 C523,717 521,715 521,712 C521,715 518,717 516,717 C513,717 511,715 511,712 C511,715 508,717 506,717 C503,717 501,715 501,712 C501,715 498,717 496,717 C493,717 491,715 491,712 C491,715 488,717 486,717 C483,717 481,715 481,712 C481,715 478,717 476,717 C473,717 471,715 471,712 C471,715 468,717 466,717 C463,717 461,715 461,712 C461,715 458,717 456,717 C453,717 451,715 451,712 C448,712 446,710 446,707 C446,704 448,702 451,702 C448,702 446,700 446,697 C446,694 448,692 451,692 C448,692 446,690 446,687 C446,684 448,682 451,682 C448,682 446,680 446,677 C446,674 448,672 451,672 C448,672 446,670 446,667 C446,664 448,662 451,662 C448,662 446,660 446,657 C446,654 448,652 451,652 C448,652 446,650 446,647 C446,644 448,642 451,642 C448,642 446,640 446,637 C446,634 448,632 451,632 C448,632 446,630 446,627 C446,624 448,622 451,622 C448,622 446,620 446,617 C446,614 448,612 451,612 C448,612 446,610 446,607 C446,604 448,602 451,602 C448,602 446,600 446,597 C446,594 448,592 451,592 C448,592 446,590 446,587 C446,584 448,582 451,582 C448,582 446,580 446,577 C446,574 448,572 451,572 C448,572 446,570 446,567 C446,564 448,562 451,562 C448,562 446,560 446,557 C446,554 448,552 451,552 C448,552 446,550 446,547 C446,544 448,542 451,542 C448,542 446,540 446,537 C446,534 448,532 451,532 C448,532 446,530 446,527 C446,524 448,522 451,522 C448,522 446,520 446,517 C446,514 448,512 451,512 C448,512 446,510 446,507 C446,504 448,502 451,502 C448,502 446,500 446,497 C446,494 448,492 451,492 C448,492 446,490 446,487 C446,484 448,482 451,482 C448,482 446,480 446,477 C446,474 448,472 451,472 C448,472 446,470 446,467 C446,464 448,462 451,462 C448,462 446,460 446,457 C446,454 448,452 451,452 C448,452 446,450 446,447 C446,444 448,442 451,442 C448,442 446,440 446,437 C446,434 448,432 451,432 C448,432 446,430 446,427 C446,424 448,422 451,422 C448,422 446,420 446,417 C446,414 448,412 451,412 C448,412 446,410 446,407 C446,404 448,402 451,402 C448,402 446,400 446,397 C446,394 448,392 451,392 C448,392 446,390 446,387 C446,384 448,382 451,382 C448,382 446,380 446,377 C446,374 448,372 451,372 C448,372 446,370 446,367 C446,364 448,362 451,362 C448,362 446,360 446,357 C446,354 448,352 451,352 C448,352 446,350 446,347 C446,344 448,342 451,342 C448,342 446,340 446,337 C446,334 448,332 451,332 C448,332 446,330 446,327 C446,324 448,322 451,322 C448,322 446,320 446,317 C446,314 448,312 451,312 C448,312 446,310 446,307 C446,304 448,302 451,302 C448,302 446,300 446,297 C446,294 448,292 451,292 C448,292 446,290 446,287 C446,284 448,282 451,282 C448,282 446,280 446,277 C446,274 448,272 451,272 C448,272 446,270 446,267 C446,264 448,262 451,262 C448,262 446,260 446,257 C446,254 448,252 451,252 C448,252 446,250 446,247 C446,244 448,242 451,242 C448,242 446,240 446,237 C446,234 448,232 451,232 C448,232 446,230 446,227 C446,224 448,222 451,222 C448,222 446,220 446,217 C446,214 448,212 451,212 C448,212 446,210 446,207 C446,204 448,202 451,202 C448,202 446,200 446,197 C446,194 448,192 451,192 C448,192 446,190 446,187 C446,184 448,182 451,182 C448,182 446,180 446,177 C446,174 448,172 451,172 C448,172 446,170 446,167 C446,164 448,162 451,162 C448,162 446,160 446,157 C446,154 448,152 451,152 C448,152 446,150 446,147 C446,144 448,142 451,142 " fill="#FFFFFF" filter="url(#f4myl05)" style="stroke: #000000; stroke-width: 2.0;"/><text fill="#000000" font-family="sans-serif" font-size="14" font-weight="bold" lengthAdjust="spacingAndGlyphs" textLength="153" x="594.5" y="160.9951">Kubernetes cluster</text><!--cluster Sechub Server POD (1..n)--><polygon fill="#FFFFFF" filter="url(#f4myl05)" points="472,289,680,289,687,311.2969,870,311.2969,870,578,472,578,472,289" style="stroke: #000000; stroke-width: 2.0;"/><line style="stroke: #000000; stroke-width: 2.0;" x1="472" x2="687" y1="311.2969" y2="311.2969"/><text fill="#000000" font-family="sans-serif" font-size="14" font-weight="bold" lengthAdjust="spacingAndGlyphs" textLength="202" x="476" y="303.9951">Sechub Server POD (1..n)</text><!--cluster Database POD (1)--><polygon fill="#FFFFFF" filter="url(#f4myl05)" points="582,602,726,602,733,624.2969,736,624.2969,736,698,582,698,582,602" style="stroke: #000000; stroke-width: 2.0;"/><line style="stroke: #000000; stroke-width: 2.0;" x1="582" x2="733" y1="624.2969" y2="624.2969"/><text fill="#000000" font-family="sans-serif" font-size="14" font-weight="bold" lengthAdjust="spacingAndGlyphs" textLength="138" x="586" y="616.9951">Database POD (1)</text><!--cluster Shared Volumes--><polygon fill="#FFFFFF" filter="url(#f4myl05)" points="535,178,670,178,677,200.2969,680,200.2969,680,265,535,265,535,178" style="stroke: #000000; stroke-width: 2.0;"/><line style="stroke: #000000; stroke-width: 2.0;" x1="535" x2="677" y1="200.2969" y2="200.2969"/><text fill="#000000" font-family="sans-serif" font-size="14" font-weight="bold" lengthAdjust="spacingAndGlyphs" textLength="129" x="539" y="192.9951">Shared Volumes</text><!--cluster Hosted 3rdParty security products--><path d="M25,392 C25,389 27,387 30,387 C33,387 35,389 35,392 C35,389 37,387 40,387 C43,387 45,389 45,392 C45,389 47,387 50,387 C53,387 55,389 55,392 C55,389 57,387 60,387 C63,387 65,389 65,392 C65,389 67,387 70,387 C73,387 75,389 75,392 C75,389 77,387 80,387 C83,387 85,389 85,392 C85,389 87,387 90,387 C93,387 95,389 95,392 C95,389 97,387 100,387 C103,387 105,389 105,392 C105,389 107,387 110,387 C113,387 115,389 115,392 C115,389 117,387 120,387 C123,387 125,389 125,392 C125,389 127,387 130,387 C133,387 135,389 135,392 C135,389 137,387 140,387 C143,387 145,389 145,392 C145,389 147,387 150,387 C153,387 155,389 155,392 C155,389 157,387 160,387 C163,387 165,389 165,392 C165,389 167,387 170,387 C173,387 175,389 175,392 C175,389 177,387 180,387 C183,387 185,389 185,392 C185,389 187,387 190,387 C193,387 195,389 195,392 C195,389 197,387 200,387 C203,387 205,389 205,392 C205,389 207,387 210,387 C213,387 215,389 215,392 C215,389 217,387 220,387 C223,387 225,389 225,392 C225,389 227,387 230,387 C233,387 235,389 235,392 C235,389 237,387 240,387 C243,387 245,389 245,392 C245,389 247,387 250,387 C253,387 255,389 255,392 C255,389 257,387 260,387 C263,387 265,389 265,392 C265,389 267,387 270,387 C273,387 275,389 275,392 C275,389 277,387 280,387 C283,387 285,389 285,392 C285,389 287,387 290,387 C293,387 295,389 295,392 C295,389 297,387 300,387 C303,387 305,389 305,392 C305,389 307,387 310,387 C313,387 315,389 315,392 C315,389 317,387 320,387 C323,387 325,389 325,392 C325,389 327,387 330,387 C333,387 335,389 335,392 C335,389 337,387 340,387 C343,387 345,389 345,392 C345,389 347,387 350,387 C353,387 355,389 355,392 C355,389 357,387 360,387 C363,387 365,389 365,392 C365,389 367,387 370,387 C373,387 375,389 375,392 C375,389 377,387 380,387 C383,387 385,389 385,392 C385,389 387,387 390,387 C393,387 395,389 395,392 C395,389 397,387 400,387 C403,387 405,389 405,392 C405,389 407,387 410,387 C413,387 415,389 415,392 C415,389 417,387 420,387 C423,387 425,389 425,392 C428,392 430,394 430,397 C430,400 428,402 425,402 C428,402 430,404 430,407 C430,410 428,412 425,412 C428,412 430,414 430,417 C430,420 428,422 425,422 C428,422 430,424 430,427 C430,430 428,432 425,432 C428,432 430,434 430,437 C430,440 428,442 425,442 C428,442 430,444 430,447 C430,450 428,452 425,452 C428,452 430,454 430,457 C430,460 428,462 425,462 C425,465 422,467 420,467 C417,467 415,465 415,462 C415,465 412,467 410,467 C407,467 405,465 405,462 C405,465 402,467 400,467 C397,467 395,465 395,462 C395,465 392,467 390,467 C387,467 385,465 385,462 C385,465 382,467 380,467 C377,467 375,465 375,462 C375,465 372,467 370,467 C367,467 365,465 365,462 C365,465 362,467 360,467 C357,467 355,465 355,462 C355,465 352,467 350,467 C347,467 345,465 345,462 C345,465 342,467 340,467 C337,467 335,465 335,462 C335,465 332,467 330,467 C327,467 325,465 325,462 C325,465 322,467 320,467 C317,467 315,465 315,462 C315,465 312,467 310,467 C307,467 305,465 305,462 C305,465 302,467 300,467 C297,467 295,465 295,462 C295,465 292,467 290,467 C287,467 285,465 285,462 C285,465 282,467 280,467 C277,467 275,465 275,462 C275,465 272,467 270,467 C267,467 265,465 265,462 C265,465 262,467 260,467 C257,467 255,465 255,462 C255,465 252,467 250,467 C247,467 245,465 245,462 C245,465 242,467 240,467 C237,467 235,465 235,462 C235,465 232,467 230,467 C227,467 225,465 225,462 C225,465 222,467 220,467 C217,467 215,465 215,462 C215,465 212,467 210,467 C207,467 205,465 205,462 C205,465 202,467 200,467 C197,467 195,465 195,462 C195,465 192,467 190,467 C187,467 185,465 185,462 C185,465 182,467 180,467 C177,467 175,465 175,462 C175,465 172,467 170,467 C167,467 165,465 165,462 C165,465 162,467 160,467 C157,467 155,465 155,462 C155,465 152,467 150,467 C147,467 145,465 145,462 C145,465 142,467 140,467 C137,467 135,465 135,462 C135,465 132,467 130,467 C127,467 125,465 125,462 C125,465 122,467 120,467 C117,467 115,465 115,462 C115,465 112,467 110,467 C107,467 105,465 105,462 C105,465 102,467 100,467 C97,467 95,465 95,462 C95,465 92,467 90,467 C87,467 85,465 85,462 C85,465 82,467 80,467 C77,467 75,465 75,462 C75,465 72,467 70,467 C67,467 65,465 65,462 C65,465 62,467 60,467 C57,467 55,465 55,462 C55,465 52,467 50,467 C47,467 45,465 45,462 C45,465 42,467 40,467 C37,467 35,465 35,462 C35,465 32,467 30,467 C27,467 25,465 25,462 C22,462 20,460 20,457 C20,454 22,452 25,452 C22,452 20,450 20,447 C20,444 22,442 25,442 C22,442 20,440 20,437 C20,434 22,432 25,432 C22,432 20,430 20,427 C20,424 22,422 25,422 C22,422 20,420 20,417 C20,414 22,412 25,412 C22,412 20,410 20,407 C20,404 22,402 25,402 C22,402 20,400 20,397 C20,394 22,392 25,392 " fill="#FFFFFF" filter="url(#f4myl05)" style="stroke: #000000; stroke-width: 2.0;"/><text fill="#000000" font-family="sans-serif" font-size="14" font-weight="bold" lengthAdjust="spacingAndGlyphs" textLength="274" x="86" y="410.9951">Hosted 3rdParty security products</text><!--entity cli--><rect fill="#FEFECE" filter="url(#f4myl05)" height="36.2969" style="stroke: #A80036; stroke-width: 1.5;" width="40" x="913" y="59"/><rect fill="#FEFECE" height="5" style="stroke: #A80036; stroke-width: 1.5;" width="10" x="908" y="64"/><rect fill="#FEFECE" height="5" style="stroke: #A80036; stroke-width: 1.5;" width="10" x="908" y="85.2969"/><text fill="#000000" font-family="sans-serif" font-size="14" lengthAdjust="spacingAndGlyphs" textLength="20" x="923" y="81.9951">CLI</text><!--entity job_engine--><rect fill="#FEFECE" filter="url(#f4myl05)" height="36.2969" style="stroke: #A80036; stroke-width: 1.5;" width="85" x="768.5" y="324"/><rect fill="#FEFECE" height="5" style="stroke: #A80036; stroke-width: 1.5;" width="10" x="763.5" y="329"/><rect fill="#FEFECE" height="5" style="stroke: #A80036; stroke-width: 1.5;" width="10" x="763.5" y="350.2969"/><text fill="#000000" font-family="sans-serif" font-size="14" lengthAdjust="spacingAndGlyphs" textLength="65" x="778.5" y="346.9951">Schedule</text><!--entity source_upload--><rect fill="#FEFECE" filter="url(#f4myl05)" height="36.2969" style="stroke: #A80036; stroke-width: 1.5;" width="121" x="577.5" y="324"/><rect fill="#FEFECE" height="5" style="stroke: #A80036; stroke-width: 1.5;" width="10" x="572.5" y="329"/><rect fill="#FEFECE" height="5" style="stroke: #A80036; stroke-width: 1.5;" width="10" x="572.5" y="350.2969"/><text fill="#000000" font-family="sans-serif" font-size="14" lengthAdjust="spacingAndGlyphs" textLength="101" x="587.5" y="346.9951">Source Upload</text><!--entity scan_engine--><rect fill="#FEFECE" filter="url(#f4myl05)" height="36.2969" style="stroke: #A80036; stroke-width: 1.5;" width="54" x="488" y="324"/><rect fill="#FEFECE" height="5" style="stroke: #A80036; stroke-width: 1.5;" width="10" x="483" y="329"/><rect fill="#FEFECE" height="5" style="stroke: #A80036; stroke-width: 1.5;" width="10" x="483" y="350.2969"/><text fill="#000000" font-family="sans-serif" font-size="14" lengthAdjust="spacingAndGlyphs" textLength="34" x="498" y="346.9951">Scan</text><!--entity report_service--><rect fill="#FEFECE" filter="url(#f4myl05)" height="36.2969" style="stroke: #A80036; stroke-width: 1.5;" width="67" x="786.5" y="420"/><rect fill="#FEFECE" height="5" style="stroke: #A80036; stroke-width: 1.5;" width="10" x="781.5" y="425"/><rect fill="#FEFECE" height="5" style="stroke: #A80036; stroke-width: 1.5;" width="10" x="781.5" y="446.2969"/><text fill="#000000" font-family="sans-serif" font-size="14" lengthAdjust="spacingAndGlyphs" textLength="47" x="796.5" y="442.9951">Report</text><!--entity sereco--><polygon fill="#FFFFFF" filter="url(#f4myl05)" points="702,526,712,516,798,516,798,552.2969,788,562.2969,702,562.2969,702,526" style="stroke: #000000; stroke-width: 1.5;"/><line style="stroke: #000000; stroke-width: 1.5;" x1="788" x2="797" y1="526" y2="517"/><line style="stroke: #000000; stroke-width: 1.5;" x1="702" x2="788" y1="526" y2="526"/><line style="stroke: #000000; stroke-width: 1.5;" x1="788" x2="788" y1="526" y2="562.2969"/><text fill="#000000" font-family="sans-serif" font-size="14" lengthAdjust="spacingAndGlyphs" textLength="56" x="717" y="548.9951">SeReCo</text><!--entity db--><path d="M618,647 C618,637 659,637 659,637 C659,637 700,637 700,647 L700,672.2969 C700,682.2969 659,682.2969 659,682.2969 C659,682.2969 618,682.2969 618,672.2969 L618,647 " fill="#FFFFFF" filter="url(#f4myl05)" style="stroke: #000000; stroke-width: 1.5;"/><path d="M618,647 C618,657 659,657 659,657 C659,657 700,657 700,647 " fill="none" style="stroke: #000000; stroke-width: 1.5;"/><text fill="#000000" font-family="sans-serif" font-size="14" lengthAdjust="spacingAndGlyphs" textLength="62" x="628" y="673.9951">Postgres</text><!--entity NFS--><rect fill="#FEFECE" filter="url(#f4myl05)" height="36.2969" rx="35" ry="35" style="stroke: #000000; stroke-width: 1.5;" width="47" x="552.5" y="213"/><text fill="#000000" font-family="sans-serif" font-size="14" lengthAdjust="spacingAndGlyphs" textLength="27" x="562.5" y="235.9951">NFS</text><!--entity product1--><rect fill="#FEFECE" filter="url(#f4myl05)" height="36.2969" style="stroke: #A80036; stroke-width: 1.5;" width="133" x="274.5" y="420"/><rect fill="#FEFECE" height="5" style="stroke: #A80036; stroke-width: 1.5;" width="10" x="269.5" y="425"/><rect fill="#FEFECE" height="5" style="stroke: #A80036; stroke-width: 1.5;" width="10" x="269.5" y="446.2969"/><text fill="#000000" font-family="sans-serif" font-size="14" lengthAdjust="spacingAndGlyphs" textLength="113" x="284.5" y="442.9951">Security Product</text><!--entity moreProducts--><rect fill="#FEFECE" filter="url(#f4myl05)" height="36.2969" style="stroke: #A80036; stroke-width: 1.5;" width="32" x="207" y="420"/><rect fill="#FEFECE" height="5" style="stroke: #A80036; stroke-width: 1.5;" width="10" x="202" y="425"/><rect fill="#FEFECE" height="5" style="stroke: #A80036; stroke-width: 1.5;" width="10" x="202" y="446.2969"/><text fill="#000000" font-family="sans-serif" font-size="14" lengthAdjust="spacingAndGlyphs" textLength="12" x="217" y="442.9951">...</text><!--entity productn--><rect fill="#FEFECE" filter="url(#f4myl05)" height="36.2969" style="stroke: #A80036; stroke-width: 1.5;" width="133" x="38.5" y="420"/><rect fill="#FEFECE" height="5" style="stroke: #A80036; stroke-width: 1.5;" width="10" x="33.5" y="425"/><rect fill="#FEFECE" height="5" style="stroke: #A80036; stroke-width: 1.5;" width="10" x="33.5" y="446.2969"/><text fill="#000000" font-family="sans-serif" font-size="14" lengthAdjust="spacingAndGlyphs" textLength="113" x="48.5" y="442.9951">Security Product</text><!--entity HTTPS--><ellipse cx="933" cy="223" fill="#FEFECE" filter="url(#f4myl05)" rx="8" ry="8" style="stroke: #A80036; stroke-width: 2.0;"/><text fill="#000000" font-family="sans-serif" font-size="14" lengthAdjust="spacingAndGlyphs" textLength="46" x="910" y="244.9951">HTTPS</text><path d="M914.2049,248.1005 C892.8485,267.5313 857.9547,299.2789 834.7368,320.4034 " fill="none" style="stroke: #A80036; stroke-width: 1.0;"/><polygon fill="#A80036" points="830.8294,323.9585,840.1783,320.8605,834.5278,320.5937,834.7946,314.9431,830.8294,323.9585" style="stroke: #A80036; stroke-width: 1.0;"/><path d="M925.6612,248.0571 C914.6983,273.0934 892.973,321.0427 871,360 C860.1019,379.3219 846.2481,400.3211 835.7309,415.6585 " fill="none" style="stroke: #A80036; stroke-width: 1.0;"/><polygon fill="#A80036" points="832.8581,419.8281,841.2581,414.6861,835.6948,415.7107,834.6702,410.1474,832.8581,419.8281" style="stroke: #A80036; stroke-width: 1.0;"/><path d="M768.4944,352.0078 C746.9934,355.4212 725.4924,356.3323 703.9914,354.7411 " fill="none" style="stroke: #A80036; stroke-width: 1.0;"/><polygon fill="#A80036" points="698.8203,354.3102,707.457,359.0439,703.803,354.7255,708.1214,351.0715,698.8203,354.3102" style="stroke: #A80036; stroke-width: 1.0;"/><path d="M588.7607,253.8458 C600.2963,274.4982 617.0611,304.5126 627.7468,323.6434 " fill="none" style="stroke: #A80036; stroke-width: 1.0;"/><polygon fill="#A80036" points="586.238,249.3294,587.1348,259.1373,588.6763,253.6946,594.1191,255.2361,586.238,249.3294" style="stroke: #A80036; stroke-width: 1.0;"/><path d="M525.0879,323.6434 C535.6012,304.5126 552.0956,274.4982 563.4451,253.8458 " fill="none" style="stroke: #A80036; stroke-width: 1.0;"/><polygon fill="#A80036" points="565.9271,249.3294,558.0869,255.2902,563.5189,253.7113,565.0979,259.1433,565.9271,249.3294" style="stroke: #A80036; stroke-width: 1.0;"/><path d="M791.3224,323.8019 C770.2173,306.0382 734.8118,281.0971 698.5,277 C671.7807,273.9852 604.2193,273.9852 577.5,277 C569.5719,277.8945 566.6738,276.6279 560,281 C545.5603,290.4596 534.1036,306.2404 526.3641,319.3809 " fill="none" style="stroke: #A80036; stroke-width: 1.0;"/><polygon fill="#A80036" points="523.883,323.7231,531.8212,317.8934,526.3637,319.3819,524.8752,313.9244,523.883,323.7231" style="stroke: #A80036; stroke-width: 1.0;"/><path d="M933,95.2706 C933,123.5896 933,178.0022 933,208.6314 " fill="none" style="stroke: #A80036; stroke-width: 1.0;"/><polygon fill="#A80036" points="933,213.6988,937,204.6988,933,208.6988,929,204.6988,933,213.6988" style="stroke: #A80036; stroke-width: 1.0;"/><path d="M487.8125,357 C458.387,373.2348 411.2682,399.2313 378.3724,417.3807 " fill="none" style="stroke: #A80036; stroke-width: 1.0;"/><polygon fill="#A80036" points="373.626,419.9995,383.4385,419.154,378.0039,417.5841,379.5738,412.1494,373.626,419.9995" style="stroke: #A80036; stroke-width: 1.0;"/><path d="M487.8231,343.1178 C419.7423,346.2035 243.4493,356.0363 189,377 C165.8969,385.895 143.4029,402.8063 127.5157,416.5706 " fill="none" style="stroke: #A80036; stroke-width: 1.0;"/><polygon fill="#A80036" points="123.6225,419.9954,133.0219,417.0541,127.3766,416.6929,127.7379,411.0476,123.6225,419.9954" style="stroke: #A80036; stroke-width: 1.0;"/><path d="M807.4854,456.0568 C796.8271,471.4352 781.3443,493.7746 769.1315,511.3959 " fill="none" style="stroke: #A80036; stroke-width: 1.0;"/><polygon fill="#A80036" points="766.102,515.7672,774.5162,510.6485,768.9501,511.6577,767.941,506.0916,766.102,515.7672" style="stroke: #A80036; stroke-width: 1.0;"/><path d="M732.4543,562.2336 C717.2505,582.366 695.2479,611.5014 679.2903,632.632 " fill="none" style="stroke: #A80036; stroke-width: 1.0;"/><polygon fill="#A80036" points="676.1832,636.7464,684.799,631.9748,679.1964,632.7563,678.4149,627.1537,676.1832,636.7464" style="stroke: #A80036; stroke-width: 1.0;"/><path d="M523.3645,360.4425 C547.5841,413.8434 617.8661,568.8054 646.5689,632.0912 " fill="none" style="stroke: #A80036; stroke-width: 1.0;"/><polygon fill="#A80036" points="648.726,636.8473,648.6513,626.9987,646.6607,632.2938,641.3657,630.3032,648.726,636.8473" style="stroke: #A80036; stroke-width: 1.0;"/></g></svg>