<?xml version="1.0" encoding="UTF-8" standalone="no"?><svg xmlns="http://www.w3.org/2000/svg" xmlns:xlink="http://www.w3.org/1999/xlink" contentScriptType="application/ecmascript" contentStyleType="text/css" height="675px" preserveAspectRatio="none" style="width:1580px;height:675px;" version="1.1" viewBox="0 0 1580 675" width="1580px" zoomAndPan="magnify"><defs><filter height="300%" id="fe49s1c" width="300%" x="-1" y="-1"><feGaussianBlur result="blurOut" stdDeviation="2.0"/><feColorMatrix in="blurOut" result="blurOut2" type="matrix" values="0 0 0 0 0 0 0 0 0 0 0 0 0 0 0 0 0 0 .4 0"/><feOffset dx="4.0" dy="4.0" in="blurOut2" result="blurOut3"/><feBlend in="SourceGraphic" in2="blurOut3" mode="normal"/></filter></defs><g><!--class AbstractInstallSetupProductExecutor--><rect fill="#FEFECE" filter="url(#fe49s1c)" height="60.8047" style="stroke: #A80036; stroke-width: 1.5;" width="271" x="376.5" y="170"/><ellipse cx="395.55" cy="186" fill="#A9DCDF" rx="11" ry="11" style="stroke: #A80036; stroke-width: 1.0;"/><path d="M395.6594,181.3438 L394.5031,186.4219 L396.8313,186.4219 L395.6594,181.3438 Z M394.175,179.1094 L397.1594,179.1094 L400.5188,191.5 L398.0656,191.5 L397.3,188.4375 L394.0188,188.4375 L393.2688,191.5 L390.8313,191.5 L394.175,179.1094 Z "/><text fill="#000000" font-family="sans-serif" font-size="12" font-style="italic" lengthAdjust="spacingAndGlyphs" textLength="230" x="410.45" y="190.1543">AbstractInstallSetupProductExecutor</text><line style="stroke: #A80036; stroke-width: 1.5;" x1="377.5" x2="646.5" y1="202" y2="202"/><line style="stroke: #A80036; stroke-width: 1.5;" x1="377.5" x2="646.5" y1="210" y2="210"/><polygon fill="#FFFF44" points="387.5,216.9023,391.5,220.9023,387.5,224.9023,383.5,220.9023" style="stroke: #B38D22; stroke-width: 1.0;"/><text fill="#000000" font-family="sans-serif" font-size="11" lengthAdjust="spacingAndGlyphs" textLength="245" x="396.5" y="224.2104">&lt;I extends InstallSetup&gt; I getInstallSetup()</text><!--class ProductExecutor--><rect fill="#FEFECE" filter="url(#fe49s1c)" height="48" style="stroke: #A80036; stroke-width: 1.5;" width="136" x="529" y="34.5"/><ellipse cx="544" cy="50.5" fill="#B4A7E5" rx="11" ry="11" style="stroke: #A80036; stroke-width: 1.0;"/><path d="M539.9219,46.2656 L539.9219,44.1094 L547.3125,44.1094 L547.3125,46.2656 L544.8438,46.2656 L544.8438,54.3438 L547.3125,54.3438 L547.3125,56.5 L539.9219,56.5 L539.9219,54.3438 L542.3906,54.3438 L542.3906,46.2656 L539.9219,46.2656 Z "/><text fill="#000000" font-family="sans-serif" font-size="12" font-style="italic" lengthAdjust="spacingAndGlyphs" textLength="104" x="558" y="54.6543">ProductExecutor</text><line style="stroke: #A80036; stroke-width: 1.5;" x1="530" x2="664" y1="66.5" y2="66.5"/><line style="stroke: #A80036; stroke-width: 1.5;" x1="530" x2="664" y1="74.5" y2="74.5"/><!--class InstallSetup--><rect fill="#FEFECE" filter="url(#fe49s1c)" height="60.8047" style="stroke: #A80036; stroke-width: 1.5;" width="288" x="806" y="170"/><ellipse cx="908.75" cy="186" fill="#B4A7E5" rx="11" ry="11" style="stroke: #A80036; stroke-width: 1.0;"/><path d="M904.6719,181.7656 L904.6719,179.6094 L912.0625,179.6094 L912.0625,181.7656 L909.5938,181.7656 L909.5938,189.8438 L912.0625,189.8438 L912.0625,192 L904.6719,192 L904.6719,189.8438 L907.1406,189.8438 L907.1406,181.7656 L904.6719,181.7656 Z "/><text fill="#000000" font-family="sans-serif" font-size="12" font-style="italic" lengthAdjust="spacingAndGlyphs" textLength="74" x="929.25" y="190.1543">InstallSetup</text><line style="stroke: #A80036; stroke-width: 1.5;" x1="807" x2="1093" y1="202" y2="202"/><line style="stroke: #A80036; stroke-width: 1.5;" x1="807" x2="1093" y1="210" y2="210"/><ellipse cx="817" cy="221.9023" fill="#84BE84" rx="3" ry="3" style="stroke: #038048; stroke-width: 1.0;"/><text fill="#000000" font-family="sans-serif" font-size="11" lengthAdjust="spacingAndGlyphs" textLength="262" x="826" y="224.2104">boolean isAbleToScan(TargetType targetType)</text><!--class TargetResolver--><rect fill="#FEFECE" filter="url(#fe49s1c)" height="48" style="stroke: #A80036; stroke-width: 1.5;" width="125" x="93.5" y="308"/><ellipse cx="108.5" cy="324" fill="#B4A7E5" rx="11" ry="11" style="stroke: #A80036; stroke-width: 1.0;"/><path d="M104.4219,319.7656 L104.4219,317.6094 L111.8125,317.6094 L111.8125,319.7656 L109.3438,319.7656 L109.3438,327.8438 L111.8125,327.8438 L111.8125,330 L104.4219,330 L104.4219,327.8438 L106.8906,327.8438 L106.8906,319.7656 L104.4219,319.7656 Z "/><text fill="#000000" font-family="sans-serif" font-size="12" font-style="italic" lengthAdjust="spacingAndGlyphs" textLength="93" x="122.5" y="328.1543">TargetResolver</text><line style="stroke: #A80036; stroke-width: 1.5;" x1="94.5" x2="217.5" y1="340" y2="340"/><line style="stroke: #A80036; stroke-width: 1.5;" x1="94.5" x2="217.5" y1="348" y2="348"/><!--class TargetRegistry--><rect fill="#FEFECE" filter="url(#fe49s1c)" height="48" style="stroke: #A80036; stroke-width: 1.5;" width="123" x="623.5" y="308"/><ellipse cx="638.5" cy="324" fill="#ADD1B2" rx="11" ry="11" style="stroke: #A80036; stroke-width: 1.0;"/><path d="M641.4688,329.6406 Q640.8906,329.9375 640.25,330.0859 Q639.6094,330.2344 638.9063,330.2344 Q636.4063,330.2344 635.0859,328.5859 Q633.7656,326.9375 633.7656,323.8125 Q633.7656,320.6875 635.0859,319.0313 Q636.4063,317.375 638.9063,317.375 Q639.6094,317.375 640.2578,317.5313 Q640.9063,317.6875 641.4688,317.9844 L641.4688,320.7031 Q640.8438,320.125 640.25,319.8516 Q639.6563,319.5781 639.0313,319.5781 Q637.6875,319.5781 637,320.6484 Q636.3125,321.7188 636.3125,323.8125 Q636.3125,325.9063 637,326.9766 Q637.6875,328.0469 639.0313,328.0469 Q639.6563,328.0469 640.25,327.7734 Q640.8438,327.5 641.4688,326.9219 L641.4688,329.6406 Z "/><text fill="#000000" font-family="sans-serif" font-size="12" lengthAdjust="spacingAndGlyphs" textLength="91" x="652.5" y="328.1543">TargetRegistry</text><line style="stroke: #A80036; stroke-width: 1.5;" x1="624.5" x2="745.5" y1="340" y2="340"/><line style="stroke: #A80036; stroke-width: 1.5;" x1="624.5" x2="745.5" y1="348" y2="348"/><!--class SecHubWebScanConfiguration--><rect fill="#FEFECE" filter="url(#fe49s1c)" height="48" style="stroke: #A80036; stroke-width: 1.5;" width="222" x="1087" y="452"/><ellipse cx="1102" cy="468" fill="#ADD1B2" rx="11" ry="11" style="stroke: #A80036; stroke-width: 1.0;"/><path d="M1104.9688,473.6406 Q1104.3906,473.9375 1103.75,474.0859 Q1103.1094,474.2344 1102.4063,474.2344 Q1099.9063,474.2344 1098.5859,472.5859 Q1097.2656,470.9375 1097.2656,467.8125 Q1097.2656,464.6875 1098.5859,463.0313 Q1099.9063,461.375 1102.4063,461.375 Q1103.1094,461.375 1103.7578,461.5313 Q1104.4063,461.6875 1104.9688,461.9844 L1104.9688,464.7031 Q1104.3438,464.125 1103.75,463.8516 Q1103.1563,463.5781 1102.5313,463.5781 Q1101.1875,463.5781 1100.5,464.6484 Q1099.8125,465.7188 1099.8125,467.8125 Q1099.8125,469.9063 1100.5,470.9766 Q1101.1875,472.0469 1102.5313,472.0469 Q1103.1563,472.0469 1103.75,471.7734 Q1104.3438,471.5 1104.9688,470.9219 L1104.9688,473.6406 Z "/><text fill="#000000" font-family="sans-serif" font-size="12" lengthAdjust="spacingAndGlyphs" textLength="190" x="1116" y="472.1543">SecHubWebScanConfiguration</text><line style="stroke: #A80036; stroke-width: 1.5;" x1="1088" x2="1308" y1="484" y2="484"/><line style="stroke: #A80036; stroke-width: 1.5;" x1="1088" x2="1308" y1="492" y2="492"/><!--class SecHubInfrastuctureScanConfiguration--><rect fill="#FEFECE" filter="url(#fe49s1c)" height="48" style="stroke: #A80036; stroke-width: 1.5;" width="276" x="776" y="452"/><ellipse cx="791" cy="468" fill="#ADD1B2" rx="11" ry="11" style="stroke: #A80036; stroke-width: 1.0;"/><path d="M793.9688,473.6406 Q793.3906,473.9375 792.75,474.0859 Q792.1094,474.2344 791.4063,474.2344 Q788.9063,474.2344 787.5859,472.5859 Q786.2656,470.9375 786.2656,467.8125 Q786.2656,464.6875 787.5859,463.0313 Q788.9063,461.375 791.4063,461.375 Q792.1094,461.375 792.7578,461.5313 Q793.4063,461.6875 793.9688,461.9844 L793.9688,464.7031 Q793.3438,464.125 792.75,463.8516 Q792.1563,463.5781 791.5313,463.5781 Q790.1875,463.5781 789.5,464.6484 Q788.8125,465.7188 788.8125,467.8125 Q788.8125,469.9063 789.5,470.9766 Q790.1875,472.0469 791.5313,472.0469 Q792.1563,472.0469 792.75,471.7734 Q793.3438,471.5 793.9688,470.9219 L793.9688,473.6406 Z "/><text fill="#000000" font-family="sans-serif" font-size="12" lengthAdjust="spacingAndGlyphs" textLength="244" x="805" y="472.1543">SecHubInfrastuctureScanConfiguration</text><line style="stroke: #A80036; stroke-width: 1.5;" x1="777" x2="1051" y1="484" y2="484"/><line style="stroke: #A80036; stroke-width: 1.5;" x1="777" x2="1051" y1="492" y2="492"/><!--class Target--><rect fill="#FEFECE" filter="url(#fe49s1c)" height="86.4141" style="stroke: #A80036; stroke-width: 1.5;" width="147" x="593.5" y="433"/><ellipse cx="642.25" cy="449" fill="#ADD1B2" rx="11" ry="11" style="stroke: #A80036; stroke-width: 1.0;"/><path d="M645.2188,454.6406 Q644.6406,454.9375 644,455.0859 Q643.3594,455.2344 642.6563,455.2344 Q640.1563,455.2344 638.8359,453.5859 Q637.5156,451.9375 637.5156,448.8125 Q637.5156,445.6875 638.8359,444.0313 Q640.1563,442.375 642.6563,442.375 Q643.3594,442.375 644.0078,442.5313 Q644.6563,442.6875 645.2188,442.9844 L645.2188,445.7031 Q644.5938,445.125 644,444.8516 Q643.4063,444.5781 642.7813,444.5781 Q641.4375,444.5781 640.75,445.6484 Q640.0625,446.7188 640.0625,448.8125 Q640.0625,450.9063 640.75,451.9766 Q641.4375,453.0469 642.7813,453.0469 Q643.4063,453.0469 644,452.7734 Q644.5938,452.5 645.2188,451.9219 L645.2188,454.6406 Z "/><text fill="#000000" font-family="sans-serif" font-size="12" lengthAdjust="spacingAndGlyphs" textLength="41" x="662.75" y="453.1543">Target</text><line style="stroke: #A80036; stroke-width: 1.5;" x1="594.5" x2="739.5" y1="465" y2="465"/><line style="stroke: #A80036; stroke-width: 1.5;" x1="594.5" x2="739.5" y1="473" y2="473"/><ellipse cx="604.5" cy="484.9023" fill="#84BE84" rx="3" ry="3" style="stroke: #038048; stroke-width: 1.0;"/><text fill="#000000" font-family="sans-serif" font-size="11" lengthAdjust="spacingAndGlyphs" textLength="44" x="613.5" y="487.2104">getURI()</text><ellipse cx="604.5" cy="497.707" fill="#84BE84" rx="3" ry="3" style="stroke: #038048; stroke-width: 1.0;"/><text fill="#000000" font-family="sans-serif" font-size="11" lengthAdjust="spacingAndGlyphs" textLength="36" x="613.5" y="500.0151">getIP()</text><ellipse cx="604.5" cy="510.5117" fill="#84BE84" rx="3" ry="3" style="stroke: #038048; stroke-width: 1.0;"/><text fill="#000000" font-family="sans-serif" font-size="11" lengthAdjust="spacingAndGlyphs" textLength="121" x="613.5" y="512.8198">TargetType getType()</text><!--class TargetData--><rect fill="#FEFECE" filter="url(#fe49s1c)" height="86.4141" style="stroke: #A80036; stroke-width: 1.5;" width="215" x="343.5" y="433"/><ellipse cx="411.25" cy="449" fill="#ADD1B2" rx="11" ry="11" style="stroke: #A80036; stroke-width: 1.0;"/><path d="M414.2188,454.6406 Q413.6406,454.9375 413,455.0859 Q412.3594,455.2344 411.6563,455.2344 Q409.1563,455.2344 407.8359,453.5859 Q406.5156,451.9375 406.5156,448.8125 Q406.5156,445.6875 407.8359,444.0313 Q409.1563,442.375 411.6563,442.375 Q412.3594,442.375 413.0078,442.5313 Q413.6563,442.6875 414.2188,442.9844 L414.2188,445.7031 Q413.5938,445.125 413,444.8516 Q412.4063,444.5781 411.7813,444.5781 Q410.4375,444.5781 409.75,445.6484 Q409.0625,446.7188 409.0625,448.8125 Q409.0625,450.9063 409.75,451.9766 Q410.4375,453.0469 411.7813,453.0469 Q412.4063,453.0469 413,452.7734 Q413.5938,452.5 414.2188,451.9219 L414.2188,454.6406 Z "/><text fill="#000000" font-family="sans-serif" font-size="12" lengthAdjust="spacingAndGlyphs" textLength="71" x="431.75" y="453.1543">TargetData</text><line style="stroke: #A80036; stroke-width: 1.5;" x1="344.5" x2="557.5" y1="465" y2="465"/><line style="stroke: #A80036; stroke-width: 1.5;" x1="344.5" x2="557.5" y1="473" y2="473"/><ellipse cx="354.5" cy="484.9023" fill="#84BE84" rx="3" ry="3" style="stroke: #038048; stroke-width: 1.0;"/><text fill="#000000" font-family="sans-serif" font-size="11" lengthAdjust="spacingAndGlyphs" textLength="158" x="363.5" y="487.2104">TargetType getTargetType()</text><ellipse cx="354.5" cy="497.707" fill="#84BE84" rx="3" ry="3" style="stroke: #038048; stroke-width: 1.0;"/><text fill="#000000" font-family="sans-serif" font-size="11" lengthAdjust="spacingAndGlyphs" textLength="147" x="363.5" y="500.0151">Set&lt;URI&gt; getTargetURIs()</text><ellipse cx="354.5" cy="510.5117" fill="#84BE84" rx="3" ry="3" style="stroke: #038048; stroke-width: 1.0;"/><text fill="#000000" font-family="sans-serif" font-size="11" lengthAdjust="spacingAndGlyphs" textLength="189" x="363.5" y="512.8198">Set&lt;InetAddress&gt; getTargetIPs()</text><!--class TargetType--><rect fill="#FEFECE" filter="url(#fe49s1c)" height="86.4141" style="stroke: #A80036; stroke-width: 1.5;" width="119" x="605.5" y="580"/><ellipse cx="628.15" cy="596" fill="#EB937F" rx="11" ry="11" style="stroke: #A80036; stroke-width: 1.0;"/><path d="M632.2594,602 L624.5406,602 L624.5406,589.6094 L632.2594,589.6094 L632.2594,591.7656 L626.9938,591.7656 L626.9938,594.4375 L631.7594,594.4375 L631.7594,596.5938 L626.9938,596.5938 L626.9938,599.8438 L632.2594,599.8438 L632.2594,602 Z "/><text fill="#000000" font-family="sans-serif" font-size="12" lengthAdjust="spacingAndGlyphs" textLength="70" x="643.85" y="600.1543">TargetType</text><line style="stroke: #A80036; stroke-width: 1.5;" x1="606.5" x2="723.5" y1="612" y2="612"/><text fill="#000000" font-family="sans-serif" font-size="11" lengthAdjust="spacingAndGlyphs" textLength="54" x="611.5" y="626.2104">INTERNET</text><text fill="#000000" font-family="sans-serif" font-size="11" lengthAdjust="spacingAndGlyphs" textLength="107" x="611.5" y="639.0151">DAIMLER_INTRANET</text><text fill="#000000" font-family="sans-serif" font-size="11" lengthAdjust="spacingAndGlyphs" textLength="57" x="611.5" y="651.8198">UNKNOWN</text><line style="stroke: #A80036; stroke-width: 1.5;" x1="606.5" x2="723.5" y1="658.4141" y2="658.4141"/><!--class AbstractAdapterConfigBuilder--><rect fill="#FEFECE" filter="url(#fe49s1c)" height="48" style="stroke: #A80036; stroke-width: 1.5;" width="217" x="253.5" y="308"/><ellipse cx="268.5" cy="324" fill="#ADD1B2" rx="11" ry="11" style="stroke: #A80036; stroke-width: 1.0;"/><path d="M271.4688,329.6406 Q270.8906,329.9375 270.25,330.0859 Q269.6094,330.2344 268.9063,330.2344 Q266.4063,330.2344 265.0859,328.5859 Q263.7656,326.9375 263.7656,323.8125 Q263.7656,320.6875 265.0859,319.0313 Q266.4063,317.375 268.9063,317.375 Q269.6094,317.375 270.2578,317.5313 Q270.9063,317.6875 271.4688,317.9844 L271.4688,320.7031 Q270.8438,320.125 270.25,319.8516 Q269.6563,319.5781 269.0313,319.5781 Q267.6875,319.5781 267,320.6484 Q266.3125,321.7188 266.3125,323.8125 Q266.3125,325.9063 267,326.9766 Q267.6875,328.0469 269.0313,328.0469 Q269.6563,328.0469 270.25,327.7734 Q270.8438,327.5 271.4688,326.9219 L271.4688,329.6406 Z "/><text fill="#000000" font-family="sans-serif" font-size="12" lengthAdjust="spacingAndGlyphs" textLength="185" x="282.5" y="328.1543">AbstractAdapterConfigBuilder</text><line style="stroke: #A80036; stroke-width: 1.5;" x1="254.5" x2="469.5" y1="340" y2="340"/><line style="stroke: #A80036; stroke-width: 1.5;" x1="254.5" x2="469.5" y1="348" y2="348"/><!--class Adapter--><rect fill="#FEFECE" filter="url(#fe49s1c)" height="48" style="stroke: #A80036; stroke-width: 1.5;" width="82" x="506" y="308"/><ellipse cx="521" cy="324" fill="#ADD1B2" rx="11" ry="11" style="stroke: #A80036; stroke-width: 1.0;"/><path d="M523.9688,329.6406 Q523.3906,329.9375 522.75,330.0859 Q522.1094,330.2344 521.4063,330.2344 Q518.9063,330.2344 517.5859,328.5859 Q516.2656,326.9375 516.2656,323.8125 Q516.2656,320.6875 517.5859,319.0313 Q518.9063,317.375 521.4063,317.375 Q522.1094,317.375 522.7578,317.5313 Q523.4063,317.6875 523.9688,317.9844 L523.9688,320.7031 Q523.3438,320.125 522.75,319.8516 Q522.1563,319.5781 521.5313,319.5781 Q520.1875,319.5781 519.5,320.6484 Q518.8125,321.7188 518.8125,323.8125 Q518.8125,325.9063 519.5,326.9766 Q520.1875,328.0469 521.5313,328.0469 Q522.1563,328.0469 522.75,327.7734 Q523.3438,327.5 523.9688,326.9219 L523.9688,329.6406 Z "/><text fill="#000000" font-family="sans-serif" font-size="12" lengthAdjust="spacingAndGlyphs" textLength="50" x="535" y="328.1543">Adapter</text><line style="stroke: #A80036; stroke-width: 1.5;" x1="507" x2="587" y1="340" y2="340"/><line style="stroke: #A80036; stroke-width: 1.5;" x1="507" x2="587" y1="348" y2="348"/><!--class URI--><rect fill="#FEFECE" filter="url(#fe49s1c)" height="48" style="stroke: #A80036; stroke-width: 1.5;" width="52" x="894" y="599"/><ellipse cx="909" cy="615" fill="#ADD1B2" rx="11" ry="11" style="stroke: #A80036; stroke-width: 1.0;"/><path d="M911.9688,620.6406 Q911.3906,620.9375 910.75,621.0859 Q910.1094,621.2344 909.4063,621.2344 Q906.9063,621.2344 905.5859,619.5859 Q904.2656,617.9375 904.2656,614.8125 Q904.2656,611.6875 905.5859,610.0313 Q906.9063,608.375 909.4063,608.375 Q910.1094,608.375 910.7578,608.5313 Q911.4063,608.6875 911.9688,608.9844 L911.9688,611.7031 Q911.3438,611.125 910.75,610.8516 Q910.1563,610.5781 909.5313,610.5781 Q908.1875,610.5781 907.5,611.6484 Q906.8125,612.7188 906.8125,614.8125 Q906.8125,616.9063 907.5,617.9766 Q908.1875,619.0469 909.5313,619.0469 Q910.1563,619.0469 910.75,618.7734 Q911.3438,618.5 911.9688,617.9219 L911.9688,620.6406 Z "/><text fill="#000000" font-family="sans-serif" font-size="12" lengthAdjust="spacingAndGlyphs" textLength="20" x="923" y="619.1543">URI</text><line style="stroke: #A80036; stroke-width: 1.5;" x1="895" x2="945" y1="631" y2="631"/><line style="stroke: #A80036; stroke-width: 1.5;" x1="895" x2="945" y1="639" y2="639"/><!--class InetAdress--><rect fill="#FEFECE" filter="url(#fe49s1c)" height="48" style="stroke: #A80036; stroke-width: 1.5;" width="99" x="759.5" y="599"/><ellipse cx="774.5" cy="615" fill="#ADD1B2" rx="11" ry="11" style="stroke: #A80036; stroke-width: 1.0;"/><path d="M777.4688,620.6406 Q776.8906,620.9375 776.25,621.0859 Q775.6094,621.2344 774.9063,621.2344 Q772.4063,621.2344 771.0859,619.5859 Q769.7656,617.9375 769.7656,614.8125 Q769.7656,611.6875 771.0859,610.0313 Q772.4063,608.375 774.9063,608.375 Q775.6094,608.375 776.2578,608.5313 Q776.9063,608.6875 777.4688,608.9844 L777.4688,611.7031 Q776.8438,611.125 776.25,610.8516 Q775.6563,610.5781 775.0313,610.5781 Q773.6875,610.5781 773,611.6484 Q772.3125,612.7188 772.3125,614.8125 Q772.3125,616.9063 773,617.9766 Q773.6875,619.0469 775.0313,619.0469 Q775.6563,619.0469 776.25,618.7734 Q776.8438,618.5 777.4688,617.9219 L777.4688,620.6406 Z "/><text fill="#000000" font-family="sans-serif" font-size="12" lengthAdjust="spacingAndGlyphs" textLength="67" x="788.5" y="619.1543">InetAdress</text><line style="stroke: #A80036; stroke-width: 1.5;" x1="760.5" x2="857.5" y1="631" y2="631"/><line style="stroke: #A80036; stroke-width: 1.5;" x1="760.5" x2="857.5" y1="639" y2="639"/><!--class SecHubConfiguration--><rect fill="#FEFECE" filter="url(#fe49s1c)" height="48" style="stroke: #A80036; stroke-width: 1.5;" width="164" x="1064" y="308"/><ellipse cx="1079" cy="324" fill="#ADD1B2" rx="11" ry="11" style="stroke: #A80036; stroke-width: 1.0;"/><path d="M1081.9688,329.6406 Q1081.3906,329.9375 1080.75,330.0859 Q1080.1094,330.2344 1079.4063,330.2344 Q1076.9063,330.2344 1075.5859,328.5859 Q1074.2656,326.9375 1074.2656,323.8125 Q1074.2656,320.6875 1075.5859,319.0313 Q1076.9063,317.375 1079.4063,317.375 Q1080.1094,317.375 1080.7578,317.5313 Q1081.4063,317.6875 1081.9688,317.9844 L1081.9688,320.7031 Q1081.3438,320.125 1080.75,319.8516 Q1080.1563,319.5781 1079.5313,319.5781 Q1078.1875,319.5781 1077.5,320.6484 Q1076.8125,321.7188 1076.8125,323.8125 Q1076.8125,325.9063 1077.5,326.9766 Q1078.1875,328.0469 1079.5313,328.0469 Q1080.1563,328.0469 1080.75,327.7734 Q1081.3438,327.5 1081.9688,326.9219 L1081.9688,329.6406 Z "/><text fill="#000000" font-family="sans-serif" font-size="12" lengthAdjust="spacingAndGlyphs" textLength="132" x="1093" y="328.1543">SecHubConfiguration</text><line style="stroke: #A80036; stroke-width: 1.5;" x1="1065" x2="1227" y1="340" y2="340"/><line style="stroke: #A80036; stroke-width: 1.5;" x1="1065" x2="1227" y1="348" y2="348"/><!--class SecHubCodeScanConfiguration--><rect fill="#FEFECE" filter="url(#fe49s1c)" height="48" style="stroke: #A80036; stroke-width: 1.5;" width="227" x="1344.5" y="452"/><ellipse cx="1359.5" cy="468" fill="#ADD1B2" rx="11" ry="11" style="stroke: #A80036; stroke-width: 1.0;"/><path d="M1362.4688,473.6406 Q1361.8906,473.9375 1361.25,474.0859 Q1360.6094,474.2344 1359.9063,474.2344 Q1357.4063,474.2344 1356.0859,472.5859 Q1354.7656,470.9375 1354.7656,467.8125 Q1354.7656,464.6875 1356.0859,463.0313 Q1357.4063,461.375 1359.9063,461.375 Q1360.6094,461.375 1361.2578,461.5313 Q1361.9063,461.6875 1362.4688,461.9844 L1362.4688,464.7031 Q1361.8438,464.125 1361.25,463.8516 Q1360.6563,463.5781 1360.0313,463.5781 Q1358.6875,463.5781 1358,464.6484 Q1357.3125,465.7188 1357.3125,467.8125 Q1357.3125,469.9063 1358,470.9766 Q1358.6875,472.0469 1360.0313,472.0469 Q1360.6563,472.0469 1361.25,471.7734 Q1361.8438,471.5 1362.4688,470.9219 L1362.4688,473.6406 Z "/><text fill="#000000" font-family="sans-serif" font-size="12" lengthAdjust="spacingAndGlyphs" textLength="195" x="1373.5" y="472.1543">SecHubCodeScanConfiguration</text><line style="stroke: #A80036; stroke-width: 1.5;" x1="1345.5" x2="1570.5" y1="484" y2="484"/><line style="stroke: #A80036; stroke-width: 1.5;" x1="1345.5" x2="1570.5" y1="492" y2="492"/><polygon fill="#FBFB77" filter="url(#fe49s1c)" points="6,173,6,228.3984,306,228.3984,306,183,296,173,6,173" style="stroke: #A80036; stroke-width: 1.0;"/><polygon fill="#FBFB77" points="6,173,6,228.3984,152,228.3984,156,307.5692,160,228.3984,306,228.3984,306,183,296,173,6,173" style="stroke: #A80036; stroke-width: 1.0;"/><line style="stroke: #A80036; stroke-width: 1.0;" x1="296" x2="296" y1="173" y2="183"/><line style="stroke: #A80036; stroke-width: 1.0;" x1="306" x2="296" y1="183" y2="183"/><text fill="#000000" font-family="sans-serif" font-size="13" lengthAdjust="spacingAndGlyphs" textLength="252" x="12" y="190.0669">Resolves information on given IP or URI.</text><text fill="#000000" font-family="sans-serif" font-size="13" lengthAdjust="spacingAndGlyphs" textLength="209" x="12" y="205.1997">Determines also the TargetType.</text><text fill="#000000" font-family="sans-serif" font-size="13" lengthAdjust="spacingAndGlyphs" textLength="279" x="12" y="220.3325">So dedicated installation setup can be used</text><polygon fill="#FBFB77" filter="url(#fe49s1c)" points="341,595.5,341,650.8984,561,650.8984,561,605.5,551,595.5,341,595.5" style="stroke: #A80036; stroke-width: 1.0;"/><polygon fill="#FBFB77" points="341,595.5,341,650.8984,561,650.8984,561,605.5,551,595.5,455,595.5,451,519.3098,447,595.5,341,595.5" style="stroke: #A80036; stroke-width: 1.0;"/><line style="stroke: #A80036; stroke-width: 1.0;" x1="551" x2="551" y1="595.5" y2="605.5"/><line style="stroke: #A80036; stroke-width: 1.0;" x1="561" x2="551" y1="605.5" y2="605.5"/><text fill="#000000" font-family="sans-serif" font-size="13" lengthAdjust="spacingAndGlyphs" textLength="166" x="347" y="612.5669">Contains information for a</text><text fill="#000000" font-family="sans-serif" font-size="13" lengthAdjust="spacingAndGlyphs" textLength="177" x="347" y="627.6997">dedicated TargetType which</text><text fill="#000000" font-family="sans-serif" font-size="13" lengthAdjust="spacingAndGlyphs" textLength="199" x="347" y="642.8325">can be used to call the adapter</text><polygon fill="#FBFB77" filter="url(#fe49s1c)" points="108.5,8,108.5,108.7969,493.5,108.7969,493.5,18,483.5,8,108.5,8" style="stroke: #A80036; stroke-width: 1.0;"/><polygon fill="#FBFB77" points="108.5,8,108.5,108.7969,372.2822,108.7969,466.5555,169.9165,380.2822,108.7969,493.5,108.7969,493.5,18,483.5,8,108.5,8" style="stroke: #A80036; stroke-width: 1.0;"/><line style="stroke: #A80036; stroke-width: 1.0;" x1="483.5" x2="483.5" y1="8" y2="18"/><line style="stroke: #A80036; stroke-width: 1.0;" x1="493.5" x2="483.5" y1="18" y2="18"/><text fill="#000000" font-family="sans-serif" font-size="13" lengthAdjust="spacingAndGlyphs" textLength="364" x="114.5" y="25.0669">This abstract implementation is able to automatically call</text><text fill="#000000" font-family="sans-serif" font-size="13" lengthAdjust="spacingAndGlyphs" textLength="331" x="114.5" y="40.1997">adapter for multiple targets with correct setup data.</text><text fill="#000000" font-family="sans-serif" font-size="13" lengthAdjust="spacingAndGlyphs" textLength="0" x="118.5" y="55.3325"/><text fill="#000000" font-family="sans-serif" font-size="13" lengthAdjust="spacingAndGlyphs" textLength="325" x="114.5" y="70.4653">E.g.a netsparker product executor uses its injected</text><text fill="#000000" font-family="sans-serif" font-size="13" lengthAdjust="spacingAndGlyphs" textLength="331" x="114.5" y="85.5981">NetsparkerInstallationSetup and differs Intranet and</text><text fill="#000000" font-family="sans-serif" font-size="13" lengthAdjust="spacingAndGlyphs" textLength="211" x="114.5" y="100.731">Intranet by different agentgroups</text><polygon fill="#FBFB77" filter="url(#fe49s1c)" points="785,31,785,86.3984,1115,86.3984,1115,41,1105,31,785,31" style="stroke: #A80036; stroke-width: 1.0;"/><polygon fill="#FBFB77" points="785,31,785,86.3984,946,86.3984,950,169.8998,954,86.3984,1115,86.3984,1115,41,1105,31,785,31" style="stroke: #A80036; stroke-width: 1.0;"/><line style="stroke: #A80036; stroke-width: 1.0;" x1="1105" x2="1105" y1="31" y2="41"/><line style="stroke: #A80036; stroke-width: 1.0;" x1="1115" x2="1105" y1="41" y2="41"/><text fill="#000000" font-family="sans-serif" font-size="13" lengthAdjust="spacingAndGlyphs" textLength="305" x="791" y="48.0669">The install setup contains the information about</text><text fill="#000000" font-family="sans-serif" font-size="13" lengthAdjust="spacingAndGlyphs" textLength="276" x="791" y="63.1997">servers, usernames, passwords etc. for the</text><text fill="#000000" font-family="sans-serif" font-size="13" lengthAdjust="spacingAndGlyphs" textLength="130" x="791" y="78.3325">calling of the adaper</text><path d="M572.1641,99.9906 C558.7898,122.3336 542.5764,149.4194 530.3522,169.8411 " fill="none" style="stroke: #A80036; stroke-width: 1.0;"/><polygon fill="none" points="566.3025,96.1536,582.5809,82.5884,578.3149,103.3442,566.3025,96.1536" style="stroke: #A80036; stroke-width: 1.0;"/><path d="M416.6639,235.7154 C353.8259,258.9267 273.3196,288.6643 218.5143,308.9084 " fill="none" style="stroke: #A80036; stroke-width: 1.0;"/><polygon fill="#FFFFFF" points="428.9831,231.1649,421.9688,229.4917,417.7265,235.3229,424.7408,236.9961,428.9831,231.1649" style="stroke: #A80036; stroke-width: 1.0;"/><text fill="#000000" font-family="sans-serif" font-size="13" lengthAdjust="spacingAndGlyphs" textLength="30" x="346" y="274.0669">uses</text><path d="M466.7636,240.1572 C441.5788,262.2359 411.0491,289.0003 389.4605,307.9263 " fill="none" style="stroke: #A80036; stroke-width: 1.0;"/><polygon fill="#FFFFFF" points="476.8317,231.3309,469.6831,232.2784,467.8083,239.2415,474.9569,238.294,476.8317,231.3309" style="stroke: #A80036; stroke-width: 1.0;"/><text fill="#000000" font-family="sans-serif" font-size="13" lengthAdjust="spacingAndGlyphs" textLength="30" x="443" y="274.0669">uses</text><path d="M505.1134,244.4606 C504.7676,255.6051 505.6485,267.4135 509,278 C512.3908,288.7104 518.7542,299.1341 525.3175,307.921 " fill="none" style="stroke: #A80036; stroke-width: 1.0;"/><polygon fill="#FFFFFF" points="506.06,231.3229,501.6391,237.0199,505.1976,243.2919,509.6184,237.5949,506.06,231.3229" style="stroke: #A80036; stroke-width: 1.0;"/><text fill="#000000" font-family="sans-serif" font-size="13" lengthAdjust="spacingAndGlyphs" textLength="231" x="510" y="274.0669">calls the adapter with created config</text><path d="M647.5864,200.5 C697.8348,200.5 754.9714,200.5 805.9473,200.5 " fill="none" style="stroke: #A80036; stroke-width: 1.0;"/><text fill="#000000" font-family="sans-serif" font-size="13" lengthAdjust="spacingAndGlyphs" textLength="118" x="665.75" y="178.5669">implemenation will</text><text fill="#000000" font-family="sans-serif" font-size="13" lengthAdjust="spacingAndGlyphs" textLength="112" x="670.75" y="193.6997">have this injected</text><text fill="#000000" font-family="sans-serif" font-size="13" lengthAdjust="spacingAndGlyphs" textLength="8" x="655.6562" y="197.1428">1</text><text fill="#000000" font-family="sans-serif" font-size="13" lengthAdjust="spacingAndGlyphs" textLength="8" x="789.8507" y="197.1657">1</text><path d="M647.7053,216.1708 C667.812,217.968 688.3033,219.5091 707.75,220.5 C737.8299,222.0327 769.9666,221.1562 800.6755,219.0948 " fill="none" style="stroke: #A80036; stroke-width: 1.0;"/><polygon fill="#A80036" points="805.9901,218.7254,796.7343,215.3594,801.0021,219.0723,797.2893,223.3401,805.9901,218.7254" style="stroke: #A80036; stroke-width: 1.0;"/><text fill="#000000" font-family="sans-serif" font-size="13" lengthAdjust="spacingAndGlyphs" textLength="36" x="708.75" y="216.5669">reads</text><path d="M660.4921,223.9 C699.4509,233.2077 733.9746,245.4701 746,261 C758.4369,277.0614 744.1849,294.3656 726.3421,307.8695 " fill="none" style="stroke: #A80036; stroke-width: 1.0;"/><polygon fill="#A80036" points="647.7101,220.9814,652.6691,226.2167,659.409,223.6526,654.45,218.4174,647.7101,220.9814" style="stroke: #A80036; stroke-width: 1.0;"/><text fill="#000000" font-family="sans-serif" font-size="13" lengthAdjust="spacingAndGlyphs" textLength="110" x="752" y="274.0669">creates and uses</text><path d="M680.3655,369.0761 C677.9295,388.5643 674.9304,412.5571 672.3908,432.8738 " fill="none" style="stroke: #A80036; stroke-width: 1.0;"/><polygon fill="#A80036" points="681.9872,356.1024,677.2738,361.5599,680.4987,368.0097,685.212,362.5522,681.9872,356.1024" style="stroke: #A80036; stroke-width: 1.0;"/><text fill="#000000" font-family="sans-serif" font-size="13" lengthAdjust="spacingAndGlyphs" textLength="54" x="680" y="399.0669">contains</text><text fill="#000000" font-family="sans-serif" font-size="13" lengthAdjust="spacingAndGlyphs" textLength="8" x="672.2778" y="375.8886">1</text><text fill="#000000" font-family="sans-serif" font-size="13" lengthAdjust="spacingAndGlyphs" textLength="8" x="664.6125" y="421.8497">n</text><path d="M645.8337,356.1024 C613.0699,376.2647 565.4031,405.5981 525.4192,430.2036 " fill="none" style="stroke: #A80036; stroke-width: 1.0;"/><polygon fill="#A80036" points="521.0801,432.8738,530.8414,431.5636,525.3384,430.2534,526.6487,424.7503,521.0801,432.8738" style="stroke: #A80036; stroke-width: 1.0;"/><text fill="#000000" font-family="sans-serif" font-size="13" lengthAdjust="spacingAndGlyphs" textLength="54" x="597" y="399.0669">provides</text><path d="M218.5884,352.0746 C224.4369,353.5567 230.3052,354.8993 236,356 C381.0301,384.0309 431.6228,326.9029 567,386 C589.2892,395.7301 609.9903,412.4342 626.7077,428.8294 " fill="none" style="stroke: #A80036; stroke-width: 1.0;"/><polygon fill="#A80036" points="630.4313,432.5409,626.8807,423.3543,626.89,429.0112,621.2331,429.0204,630.4313,432.5409" style="stroke: #A80036; stroke-width: 1.0;"/><text fill="#000000" font-family="sans-serif" font-size="13" lengthAdjust="spacingAndGlyphs" textLength="48" x="198.017" y="374.4256">creates</text><path d="M666.2279,532.7508 C666.0143,548.449 665.7861,565.2239 665.585,579.9998 " fill="none" style="stroke: #A80036; stroke-width: 1.0;"/><polygon fill="#A80036" points="666.4108,519.3098,662.3295,525.2548,666.2474,531.3087,670.3287,525.3637,666.4108,519.3098" style="stroke: #A80036; stroke-width: 1.0;"/><path d="M752.48,516.9819 C805.1117,542.4862 864.6358,571.9244 876,580 C883.6617,585.4446 891.2553,592.2271 897.9221,598.7843 " fill="none" style="stroke: #A80036; stroke-width: 1.0;"/><polygon fill="#A80036" points="740.6805,511.2737,744.3397,517.4874,751.4829,516.4995,747.8236,510.2858,740.6805,511.2737" style="stroke: #A80036; stroke-width: 1.0;"/><text fill="#000000" font-family="sans-serif" font-size="13" lengthAdjust="spacingAndGlyphs" textLength="8" x="748.6913" y="511.1903">1</text><text fill="#000000" font-family="sans-serif" font-size="13" lengthAdjust="spacingAndGlyphs" textLength="24" x="865.1896" y="587.7411">0..1</text><path d="M718.1602,528.9616 C741.2032,552.816 767.2777,579.8086 785.5615,598.7362 " fill="none" style="stroke: #A80036; stroke-width: 1.0;"/><polygon fill="#A80036" points="708.8367,519.3098,710.1284,526.4043,717.1739,527.9406,715.8822,520.8461,708.8367,519.3098" style="stroke: #A80036; stroke-width: 1.0;"/><text fill="#000000" font-family="sans-serif" font-size="13" lengthAdjust="spacingAndGlyphs" textLength="8" x="706.8669" y="539.4521">1</text><text fill="#000000" font-family="sans-serif" font-size="13" lengthAdjust="spacingAndGlyphs" textLength="24" x="752.9234" y="588.0769">0..1</text><path d="M647.6209,220.5434 C715.0377,231.2201 797.5897,245.3678 871,261 C934.3165,274.4828 1005.0172,292.81 1058.8755,307.4667 " fill="none" style="stroke: #A80036; stroke-width: 1.0;"/><polygon fill="#A80036" points="1063.7054,308.7835,1056.0746,302.5568,1058.8815,307.4682,1053.9701,310.2751,1063.7054,308.7835" style="stroke: #A80036; stroke-width: 1.0;"/><text fill="#000000" font-family="sans-serif" font-size="13" lengthAdjust="spacingAndGlyphs" textLength="36" x="941" y="274.0669">reads</text><path d="M1159.1917,368.5308 C1168.6211,394.6432 1181.0467,429.0524 1189.268,451.819 " fill="none" style="stroke: #A80036; stroke-width: 1.0;"/><polygon fill="#A80036" points="1154.7036,356.1024,1152.9793,363.1043,1158.7794,367.389,1160.5037,360.3871,1154.7036,356.1024" style="stroke: #A80036; stroke-width: 1.0;"/><path d="M1095.8653,363.1181 C1053.0162,389.7141 992.2338,427.4411 952.9583,451.819 " fill="none" style="stroke: #A80036; stroke-width: 1.0;"/><polygon fill="#A80036" points="1107.1684,356.1024,1099.9611,355.868,1096.9727,362.4308,1104.18,362.6651,1107.1684,356.1024" style="stroke: #A80036; stroke-width: 1.0;"/><path d="M1210.1507,361.608 C1268.0105,388.3126 1352.0519,427.1009 1405.8681,451.9391 " fill="none" style="stroke: #A80036; stroke-width: 1.0;"/><polygon fill="#A80036" points="1198.2218,356.1024,1201.9933,362.2486,1209.1173,361.1312,1205.3458,354.985,1198.2218,356.1024" style="stroke: #A80036; stroke-width: 1.0;"/><path d="M1140.5671,506.3692 C1081.04,537.8458 990.628,585.6535 946.3312,609.0767 " fill="none" style="stroke: #A80036; stroke-width: 1.0;"/><polygon fill="#A80036" points="1152.4053,500.1095,1145.2314,499.3782,1141.7971,505.7189,1148.971,506.4503,1152.4053,500.1095" style="stroke: #A80036; stroke-width: 1.0;"/><text fill="#000000" font-family="sans-serif" font-size="13" lengthAdjust="spacingAndGlyphs" textLength="8" x="1132.3166" y="519.8974">1</text><text fill="#000000" font-family="sans-serif" font-size="13" lengthAdjust="spacingAndGlyphs" textLength="8" x="954.1036" y="600.6709">n</text><path d="M915.5264,513.3971 C916.6198,540.1844 918.0606,575.4836 919.0078,598.6899 " fill="none" style="stroke: #A80036; stroke-width: 1.0;"/><polygon fill="#A80036" points="914.9908,500.2741,911.2388,506.4322,915.4802,512.2641,919.2322,506.106,914.9908,500.2741" style="stroke: #A80036; stroke-width: 1.0;"/><text fill="#000000" font-family="sans-serif" font-size="13" lengthAdjust="spacingAndGlyphs" textLength="8" x="906.2573" y="520.1021">1</text><text fill="#000000" font-family="sans-serif" font-size="13" lengthAdjust="spacingAndGlyphs" textLength="8" x="909.791" y="588.0193">n</text><path d="M888.8535,511.2051 C869.5485,538.2321 843.3965,574.8449 826.3644,598.6899 " fill="none" style="stroke: #A80036; stroke-width: 1.0;"/><polygon fill="#A80036" points="896.6614,500.2741,889.919,502.8315,889.6865,510.0388,896.4288,507.4815,896.6614,500.2741" style="stroke: #A80036; stroke-width: 1.0;"/><text fill="#000000" font-family="sans-serif" font-size="13" lengthAdjust="spacingAndGlyphs" textLength="8" x="883.4601" y="520.1021">1</text><text fill="#000000" font-family="sans-serif" font-size="13" lengthAdjust="spacingAndGlyphs" textLength="8" x="821.622" y="588.0193">n</text></g></svg>