<?xml version="1.0" encoding="UTF-8" standalone="no"?><svg xmlns="http://www.w3.org/2000/svg" xmlns:xlink="http://www.w3.org/1999/xlink" contentScriptType="application/ecmascript" contentStyleType="text/css" height="703px" preserveAspectRatio="none" style="width:1583px;height:703px;" version="1.1" viewBox="0 0 1583 703" width="1583px" zoomAndPan="magnify"><defs><filter height="300%" id="f6e75hcmx4a3p" width="300%" x="-1" y="-1"><feGaussianBlur result="blurOut" stdDeviation="2.0"/><feColorMatrix in="blurOut" result="blurOut2" type="matrix" values="0 0 0 0 0 0 0 0 0 0 0 0 0 0 0 0 0 0 .4 0"/><feOffset dx="4.0" dy="4.0" in="blurOut2" result="blurOut3"/><feBlend in="SourceGraphic" in2="blurOut3" mode="normal"/></filter></defs><g><!--class AbstractInstallSetupProductExecutor--><rect fill="#FEFECE" filter="url(#f6e75hcmx4a3p)" height="60.8047" id="AbstractInstallSetupProductExecutor" style="stroke: #A80036; stroke-width: 1.5;" width="271" x="376.5" y="170"/><ellipse cx="395.1" cy="186" fill="#A9DCDF" rx="11" ry="11" style="stroke: #A80036; stroke-width: 1.0;"/><path d="M395.2094,181.3438 L394.0531,186.4219 L396.3813,186.4219 L395.2094,181.3438 Z M393.725,179.1094 L396.7094,179.1094 L400.0688,191.5 L397.6156,191.5 L396.85,188.4375 L393.5688,188.4375 L392.8188,191.5 L390.3813,191.5 L393.725,179.1094 Z "/><text fill="#000000" font-family="sans-serif" font-size="12" font-style="italic" lengthAdjust="spacingAndGlyphs" textLength="231" x="409.9" y="190.1543">AbstractInstallSetupProductExecutor</text><line style="stroke: #A80036; stroke-width: 1.5;" x1="377.5" x2="646.5" y1="202" y2="202"/><line style="stroke: #A80036; stroke-width: 1.5;" x1="377.5" x2="646.5" y1="210" y2="210"/><polygon fill="#FFFF44" points="387.5,216.9023,391.5,220.9023,387.5,224.9023,383.5,220.9023" style="stroke: #B38D22; stroke-width: 1.0;"/><text fill="#000000" font-family="sans-serif" font-size="11" lengthAdjust="spacingAndGlyphs" textLength="245" x="396.5" y="224.2104">&lt;I extends InstallSetup&gt; I getInstallSetup()</text><!--class ProductExecutor--><rect fill="#FEFECE" filter="url(#f6e75hcmx4a3p)" height="48" id="ProductExecutor" style="stroke: #A80036; stroke-width: 1.5;" width="136" x="532" y="34.5"/><ellipse cx="547" cy="50.5" fill="#B4A7E5" rx="11" ry="11" style="stroke: #A80036; stroke-width: 1.0;"/><path d="M542.9219,46.2656 L542.9219,44.1094 L550.3125,44.1094 L550.3125,46.2656 L547.8438,46.2656 L547.8438,54.3438 L550.3125,54.3438 L550.3125,56.5 L542.9219,56.5 L542.9219,54.3438 L545.3906,54.3438 L545.3906,46.2656 L542.9219,46.2656 Z "/><text fill="#000000" font-family="sans-serif" font-size="12" font-style="italic" lengthAdjust="spacingAndGlyphs" textLength="104" x="561" y="54.6543">ProductExecutor</text><line style="stroke: #A80036; stroke-width: 1.5;" x1="533" x2="667" y1="66.5" y2="66.5"/><line style="stroke: #A80036; stroke-width: 1.5;" x1="533" x2="667" y1="74.5" y2="74.5"/><!--class InstallSetup--><rect fill="#FEFECE" filter="url(#f6e75hcmx4a3p)" height="60.8047" id="InstallSetup" style="stroke: #A80036; stroke-width: 1.5;" width="288" x="811" y="170"/><ellipse cx="913.75" cy="186" fill="#B4A7E5" rx="11" ry="11" style="stroke: #A80036; stroke-width: 1.0;"/><path d="M909.6719,181.7656 L909.6719,179.6094 L917.0625,179.6094 L917.0625,181.7656 L914.5938,181.7656 L914.5938,189.8438 L917.0625,189.8438 L917.0625,192 L909.6719,192 L909.6719,189.8438 L912.1406,189.8438 L912.1406,181.7656 L909.6719,181.7656 Z "/><text fill="#000000" font-family="sans-serif" font-size="12" font-style="italic" lengthAdjust="spacingAndGlyphs" textLength="74" x="934.25" y="190.1543">InstallSetup</text><line style="stroke: #A80036; stroke-width: 1.5;" x1="812" x2="1098" y1="202" y2="202"/><line style="stroke: #A80036; stroke-width: 1.5;" x1="812" x2="1098" y1="210" y2="210"/><ellipse cx="822" cy="221.9023" fill="#84BE84" rx="3" ry="3" style="stroke: #038048; stroke-width: 1.0;"/><text fill="#000000" font-family="sans-serif" font-size="11" lengthAdjust="spacingAndGlyphs" textLength="262" x="831" y="224.2104">boolean isAbleToScan(TargetType targetType)</text><!--class TargetResolver--><rect fill="#FEFECE" filter="url(#f6e75hcmx4a3p)" height="48" id="TargetResolver" style="stroke: #A80036; stroke-width: 1.5;" width="126" x="93" y="308"/><ellipse cx="108" cy="324" fill="#B4A7E5" rx="11" ry="11" style="stroke: #A80036; stroke-width: 1.0;"/><path d="M103.9219,319.7656 L103.9219,317.6094 L111.3125,317.6094 L111.3125,319.7656 L108.8438,319.7656 L108.8438,327.8438 L111.3125,327.8438 L111.3125,330 L103.9219,330 L103.9219,327.8438 L106.3906,327.8438 L106.3906,319.7656 L103.9219,319.7656 Z "/><text fill="#000000" font-family="sans-serif" font-size="12" font-style="italic" lengthAdjust="spacingAndGlyphs" textLength="94" x="122" y="328.1543">TargetResolver</text><line style="stroke: #A80036; stroke-width: 1.5;" x1="94" x2="218" y1="340" y2="340"/><line style="stroke: #A80036; stroke-width: 1.5;" x1="94" x2="218" y1="348" y2="348"/><!--class TargetRegistry--><rect fill="#FEFECE" filter="url(#f6e75hcmx4a3p)" height="48" id="TargetRegistry" style="stroke: #A80036; stroke-width: 1.5;" width="123" x="624.5" y="308"/><ellipse cx="639.5" cy="324" fill="#ADD1B2" rx="11" ry="11" style="stroke: #A80036; stroke-width: 1.0;"/><path d="M642.4688,329.6406 Q641.8906,329.9375 641.25,330.0781 Q640.6094,330.2344 639.9063,330.2344 Q637.4063,330.2344 636.0781,328.5938 Q634.7656,326.9375 634.7656,323.8125 Q634.7656,320.6875 636.0781,319.0313 Q637.4063,317.375 639.9063,317.375 Q640.6094,317.375 641.25,317.5313 Q641.9063,317.6875 642.4688,317.9844 L642.4688,320.7031 Q641.8438,320.125 641.25,319.8594 Q640.6563,319.5781 640.0313,319.5781 Q638.6875,319.5781 638,320.6563 Q637.3125,321.7188 637.3125,323.8125 Q637.3125,325.9063 638,326.9844 Q638.6875,328.0469 640.0313,328.0469 Q640.6563,328.0469 641.25,327.7813 Q641.8438,327.5 642.4688,326.9219 L642.4688,329.6406 Z "/><text fill="#000000" font-family="sans-serif" font-size="12" lengthAdjust="spacingAndGlyphs" textLength="91" x="653.5" y="328.1543">TargetRegistry</text><line style="stroke: #A80036; stroke-width: 1.5;" x1="625.5" x2="746.5" y1="340" y2="340"/><line style="stroke: #A80036; stroke-width: 1.5;" x1="625.5" x2="746.5" y1="348" y2="348"/><!--class SecHubWebScanConfiguration--><rect fill="#FEFECE" filter="url(#f6e75hcmx4a3p)" height="48" id="SecHubWebScanConfiguration" style="stroke: #A80036; stroke-width: 1.5;" width="222" x="1088" y="452"/><ellipse cx="1103" cy="468" fill="#ADD1B2" rx="11" ry="11" style="stroke: #A80036; stroke-width: 1.0;"/><path d="M1105.9688,473.6406 Q1105.3906,473.9375 1104.75,474.0781 Q1104.1094,474.2344 1103.4063,474.2344 Q1100.9063,474.2344 1099.5781,472.5938 Q1098.2656,470.9375 1098.2656,467.8125 Q1098.2656,464.6875 1099.5781,463.0313 Q1100.9063,461.375 1103.4063,461.375 Q1104.1094,461.375 1104.75,461.5313 Q1105.4063,461.6875 1105.9688,461.9844 L1105.9688,464.7031 Q1105.3438,464.125 1104.75,463.8594 Q1104.1563,463.5781 1103.5313,463.5781 Q1102.1875,463.5781 1101.5,464.6563 Q1100.8125,465.7188 1100.8125,467.8125 Q1100.8125,469.9063 1101.5,470.9844 Q1102.1875,472.0469 1103.5313,472.0469 Q1104.1563,472.0469 1104.75,471.7813 Q1105.3438,471.5 1105.9688,470.9219 L1105.9688,473.6406 Z "/><text fill="#000000" font-family="sans-serif" font-size="12" lengthAdjust="spacingAndGlyphs" textLength="190" x="1117" y="472.1543">SecHubWebScanConfiguration</text><line style="stroke: #A80036; stroke-width: 1.5;" x1="1089" x2="1309" y1="484" y2="484"/><line style="stroke: #A80036; stroke-width: 1.5;" x1="1089" x2="1309" y1="492" y2="492"/><!--class SecHubInfrastuctureScanConfiguration--><rect fill="#FEFECE" filter="url(#f6e75hcmx4a3p)" height="48" id="SecHubInfrastuctureScanConfiguration" style="stroke: #A80036; stroke-width: 1.5;" width="276" x="777" y="452"/><ellipse cx="792" cy="468" fill="#ADD1B2" rx="11" ry="11" style="stroke: #A80036; stroke-width: 1.0;"/><path d="M794.9688,473.6406 Q794.3906,473.9375 793.75,474.0781 Q793.1094,474.2344 792.4063,474.2344 Q789.9063,474.2344 788.5781,472.5938 Q787.2656,470.9375 787.2656,467.8125 Q787.2656,464.6875 788.5781,463.0313 Q789.9063,461.375 792.4063,461.375 Q793.1094,461.375 793.75,461.5313 Q794.4063,461.6875 794.9688,461.9844 L794.9688,464.7031 Q794.3438,464.125 793.75,463.8594 Q793.1563,463.5781 792.5313,463.5781 Q791.1875,463.5781 790.5,464.6563 Q789.8125,465.7188 789.8125,467.8125 Q789.8125,469.9063 790.5,470.9844 Q791.1875,472.0469 792.5313,472.0469 Q793.1563,472.0469 793.75,471.7813 Q794.3438,471.5 794.9688,470.9219 L794.9688,473.6406 Z "/><text fill="#000000" font-family="sans-serif" font-size="12" lengthAdjust="spacingAndGlyphs" textLength="244" x="806" y="472.1543">SecHubInfrastuctureScanConfiguration</text><line style="stroke: #A80036; stroke-width: 1.5;" x1="778" x2="1052" y1="484" y2="484"/><line style="stroke: #A80036; stroke-width: 1.5;" x1="778" x2="1052" y1="492" y2="492"/><!--class Target--><rect fill="#FEFECE" filter="url(#f6e75hcmx4a3p)" height="86.4141" id="Target" style="stroke: #A80036; stroke-width: 1.5;" width="147" x="594.5" y="433"/><ellipse cx="643.25" cy="449" fill="#ADD1B2" rx="11" ry="11" style="stroke: #A80036; stroke-width: 1.0;"/><path d="M646.2188,454.6406 Q645.6406,454.9375 645,455.0781 Q644.3594,455.2344 643.6563,455.2344 Q641.1563,455.2344 639.8281,453.5938 Q638.5156,451.9375 638.5156,448.8125 Q638.5156,445.6875 639.8281,444.0313 Q641.1563,442.375 643.6563,442.375 Q644.3594,442.375 645,442.5313 Q645.6563,442.6875 646.2188,442.9844 L646.2188,445.7031 Q645.5938,445.125 645,444.8594 Q644.4063,444.5781 643.7813,444.5781 Q642.4375,444.5781 641.75,445.6563 Q641.0625,446.7188 641.0625,448.8125 Q641.0625,450.9063 641.75,451.9844 Q642.4375,453.0469 643.7813,453.0469 Q644.4063,453.0469 645,452.7813 Q645.5938,452.5 646.2188,451.9219 L646.2188,454.6406 Z "/><text fill="#000000" font-family="sans-serif" font-size="12" lengthAdjust="spacingAndGlyphs" textLength="41" x="663.75" y="453.1543">Target</text><line style="stroke: #A80036; stroke-width: 1.5;" x1="595.5" x2="740.5" y1="465" y2="465"/><line style="stroke: #A80036; stroke-width: 1.5;" x1="595.5" x2="740.5" y1="473" y2="473"/><ellipse cx="605.5" cy="484.9023" fill="#84BE84" rx="3" ry="3" style="stroke: #038048; stroke-width: 1.0;"/><text fill="#000000" font-family="sans-serif" font-size="11" lengthAdjust="spacingAndGlyphs" textLength="44" x="614.5" y="487.2104">getURI()</text><ellipse cx="605.5" cy="497.707" fill="#84BE84" rx="3" ry="3" style="stroke: #038048; stroke-width: 1.0;"/><text fill="#000000" font-family="sans-serif" font-size="11" lengthAdjust="spacingAndGlyphs" textLength="36" x="614.5" y="500.0151">getIP()</text><ellipse cx="605.5" cy="510.5117" fill="#84BE84" rx="3" ry="3" style="stroke: #038048; stroke-width: 1.0;"/><text fill="#000000" font-family="sans-serif" font-size="11" lengthAdjust="spacingAndGlyphs" textLength="121" x="614.5" y="512.8198">TargetType getType()</text><!--class TargetData--><rect fill="#FEFECE" filter="url(#f6e75hcmx4a3p)" height="86.4141" id="TargetData" style="stroke: #A80036; stroke-width: 1.5;" width="215" x="344.5" y="433"/><ellipse cx="412.25" cy="449" fill="#ADD1B2" rx="11" ry="11" style="stroke: #A80036; stroke-width: 1.0;"/><path d="M415.2188,454.6406 Q414.6406,454.9375 414,455.0781 Q413.3594,455.2344 412.6563,455.2344 Q410.1563,455.2344 408.8281,453.5938 Q407.5156,451.9375 407.5156,448.8125 Q407.5156,445.6875 408.8281,444.0313 Q410.1563,442.375 412.6563,442.375 Q413.3594,442.375 414,442.5313 Q414.6563,442.6875 415.2188,442.9844 L415.2188,445.7031 Q414.5938,445.125 414,444.8594 Q413.4063,444.5781 412.7813,444.5781 Q411.4375,444.5781 410.75,445.6563 Q410.0625,446.7188 410.0625,448.8125 Q410.0625,450.9063 410.75,451.9844 Q411.4375,453.0469 412.7813,453.0469 Q413.4063,453.0469 414,452.7813 Q414.5938,452.5 415.2188,451.9219 L415.2188,454.6406 Z "/><text fill="#000000" font-family="sans-serif" font-size="12" lengthAdjust="spacingAndGlyphs" textLength="71" x="432.75" y="453.1543">TargetData</text><line style="stroke: #A80036; stroke-width: 1.5;" x1="345.5" x2="558.5" y1="465" y2="465"/><line style="stroke: #A80036; stroke-width: 1.5;" x1="345.5" x2="558.5" y1="473" y2="473"/><ellipse cx="355.5" cy="484.9023" fill="#84BE84" rx="3" ry="3" style="stroke: #038048; stroke-width: 1.0;"/><text fill="#000000" font-family="sans-serif" font-size="11" lengthAdjust="spacingAndGlyphs" textLength="158" x="364.5" y="487.2104">TargetType getTargetType()</text><ellipse cx="355.5" cy="497.707" fill="#84BE84" rx="3" ry="3" style="stroke: #038048; stroke-width: 1.0;"/><text fill="#000000" font-family="sans-serif" font-size="11" lengthAdjust="spacingAndGlyphs" textLength="147" x="364.5" y="500.0151">Set&lt;URI&gt; getTargetURIs()</text><ellipse cx="355.5" cy="510.5117" fill="#84BE84" rx="3" ry="3" style="stroke: #038048; stroke-width: 1.0;"/><text fill="#000000" font-family="sans-serif" font-size="11" lengthAdjust="spacingAndGlyphs" textLength="189" x="364.5" y="512.8198">Set&lt;InetAddress&gt; getTargetIPs()</text><!--class TargetType--><rect fill="#FEFECE" filter="url(#f6e75hcmx4a3p)" height="112.0234" id="TargetType" style="stroke: #A80036; stroke-width: 1.5;" width="102" x="617" y="580"/><ellipse cx="632" cy="596" fill="#EB937F" rx="11" ry="11" style="stroke: #A80036; stroke-width: 1.0;"/><path d="M636.1094,602 L628.3906,602 L628.3906,589.6094 L636.1094,589.6094 L636.1094,591.7656 L630.8438,591.7656 L630.8438,594.4375 L635.6094,594.4375 L635.6094,596.5938 L630.8438,596.5938 L630.8438,599.8438 L636.1094,599.8438 L636.1094,602 Z "/><text fill="#000000" font-family="sans-serif" font-size="12" lengthAdjust="spacingAndGlyphs" textLength="70" x="646" y="600.1543">TargetType</text><line style="stroke: #A80036; stroke-width: 1.5;" x1="618" x2="718" y1="612" y2="612"/><text fill="#000000" font-family="sans-serif" font-size="11" lengthAdjust="spacingAndGlyphs" textLength="54" x="623" y="626.2104">INTERNET</text><text fill="#000000" font-family="sans-serif" font-size="11" lengthAdjust="spacingAndGlyphs" textLength="54" x="623" y="639.0151">INTRANET</text><text fill="#000000" font-family="sans-serif" font-size="11" lengthAdjust="spacingAndGlyphs" textLength="83" x="623" y="651.8198">CODE_UPLOAD</text><text fill="#000000" font-family="sans-serif" font-size="11" lengthAdjust="spacingAndGlyphs" textLength="44" x="623" y="664.6245">ILLEGAL</text><text fill="#000000" font-family="sans-serif" font-size="11" lengthAdjust="spacingAndGlyphs" textLength="57" x="623" y="677.4292">UNKNOWN</text><line style="stroke: #A80036; stroke-width: 1.5;" x1="618" x2="718" y1="684.0234" y2="684.0234"/><!--class AbstractAdapterConfigBuilder--><rect fill="#FEFECE" filter="url(#f6e75hcmx4a3p)" height="48" id="AbstractAdapterConfigBuilder" style="stroke: #A80036; stroke-width: 1.5;" width="217" x="254.5" y="308"/><ellipse cx="269.5" cy="324" fill="#ADD1B2" rx="11" ry="11" style="stroke: #A80036; stroke-width: 1.0;"/><path d="M272.4688,329.6406 Q271.8906,329.9375 271.25,330.0781 Q270.6094,330.2344 269.9063,330.2344 Q267.4063,330.2344 266.0781,328.5938 Q264.7656,326.9375 264.7656,323.8125 Q264.7656,320.6875 266.0781,319.0313 Q267.4063,317.375 269.9063,317.375 Q270.6094,317.375 271.25,317.5313 Q271.9063,317.6875 272.4688,317.9844 L272.4688,320.7031 Q271.8438,320.125 271.25,319.8594 Q270.6563,319.5781 270.0313,319.5781 Q268.6875,319.5781 268,320.6563 Q267.3125,321.7188 267.3125,323.8125 Q267.3125,325.9063 268,326.9844 Q268.6875,328.0469 270.0313,328.0469 Q270.6563,328.0469 271.25,327.7813 Q271.8438,327.5 272.4688,326.9219 L272.4688,329.6406 Z "/><text fill="#000000" font-family="sans-serif" font-size="12" lengthAdjust="spacingAndGlyphs" textLength="185" x="283.5" y="328.1543">AbstractAdapterConfigBuilder</text><line style="stroke: #A80036; stroke-width: 1.5;" x1="255.5" x2="470.5" y1="340" y2="340"/><line style="stroke: #A80036; stroke-width: 1.5;" x1="255.5" x2="470.5" y1="348" y2="348"/><!--class Adapter--><rect fill="#FEFECE" filter="url(#f6e75hcmx4a3p)" height="48" id="Adapter" style="stroke: #A80036; stroke-width: 1.5;" width="82" x="507" y="308"/><ellipse cx="522" cy="324" fill="#ADD1B2" rx="11" ry="11" style="stroke: #A80036; stroke-width: 1.0;"/><path d="M524.9688,329.6406 Q524.3906,329.9375 523.75,330.0781 Q523.1094,330.2344 522.4063,330.2344 Q519.9063,330.2344 518.5781,328.5938 Q517.2656,326.9375 517.2656,323.8125 Q517.2656,320.6875 518.5781,319.0313 Q519.9063,317.375 522.4063,317.375 Q523.1094,317.375 523.75,317.5313 Q524.4063,317.6875 524.9688,317.9844 L524.9688,320.7031 Q524.3438,320.125 523.75,319.8594 Q523.1563,319.5781 522.5313,319.5781 Q521.1875,319.5781 520.5,320.6563 Q519.8125,321.7188 519.8125,323.8125 Q519.8125,325.9063 520.5,326.9844 Q521.1875,328.0469 522.5313,328.0469 Q523.1563,328.0469 523.75,327.7813 Q524.3438,327.5 524.9688,326.9219 L524.9688,329.6406 Z "/><text fill="#000000" font-family="sans-serif" font-size="12" lengthAdjust="spacingAndGlyphs" textLength="50" x="536" y="328.1543">Adapter</text><line style="stroke: #A80036; stroke-width: 1.5;" x1="508" x2="588" y1="340" y2="340"/><line style="stroke: #A80036; stroke-width: 1.5;" x1="508" x2="588" y1="348" y2="348"/><!--class URI--><rect fill="#FEFECE" filter="url(#f6e75hcmx4a3p)" height="48" id="URI" style="stroke: #A80036; stroke-width: 1.5;" width="52" x="889" y="612"/><ellipse cx="904" cy="628" fill="#ADD1B2" rx="11" ry="11" style="stroke: #A80036; stroke-width: 1.0;"/><path d="M906.9688,633.6406 Q906.3906,633.9375 905.75,634.0781 Q905.1094,634.2344 904.4063,634.2344 Q901.9063,634.2344 900.5781,632.5938 Q899.2656,630.9375 899.2656,627.8125 Q899.2656,624.6875 900.5781,623.0313 Q901.9063,621.375 904.4063,621.375 Q905.1094,621.375 905.75,621.5313 Q906.4063,621.6875 906.9688,621.9844 L906.9688,624.7031 Q906.3438,624.125 905.75,623.8594 Q905.1563,623.5781 904.5313,623.5781 Q903.1875,623.5781 902.5,624.6563 Q901.8125,625.7188 901.8125,627.8125 Q901.8125,629.9063 902.5,630.9844 Q903.1875,632.0469 904.5313,632.0469 Q905.1563,632.0469 905.75,631.7813 Q906.3438,631.5 906.9688,630.9219 L906.9688,633.6406 Z "/><text fill="#000000" font-family="sans-serif" font-size="12" lengthAdjust="spacingAndGlyphs" textLength="20" x="918" y="632.1543">URI</text><line style="stroke: #A80036; stroke-width: 1.5;" x1="890" x2="940" y1="644" y2="644"/><line style="stroke: #A80036; stroke-width: 1.5;" x1="890" x2="940" y1="652" y2="652"/><!--class InetAdress--><rect fill="#FEFECE" filter="url(#f6e75hcmx4a3p)" height="48" id="InetAdress" style="stroke: #A80036; stroke-width: 1.5;" width="99" x="754.5" y="612"/><ellipse cx="769.5" cy="628" fill="#ADD1B2" rx="11" ry="11" style="stroke: #A80036; stroke-width: 1.0;"/><path d="M772.4688,633.6406 Q771.8906,633.9375 771.25,634.0781 Q770.6094,634.2344 769.9063,634.2344 Q767.4063,634.2344 766.0781,632.5938 Q764.7656,630.9375 764.7656,627.8125 Q764.7656,624.6875 766.0781,623.0313 Q767.4063,621.375 769.9063,621.375 Q770.6094,621.375 771.25,621.5313 Q771.9063,621.6875 772.4688,621.9844 L772.4688,624.7031 Q771.8438,624.125 771.25,623.8594 Q770.6563,623.5781 770.0313,623.5781 Q768.6875,623.5781 768,624.6563 Q767.3125,625.7188 767.3125,627.8125 Q767.3125,629.9063 768,630.9844 Q768.6875,632.0469 770.0313,632.0469 Q770.6563,632.0469 771.25,631.7813 Q771.8438,631.5 772.4688,630.9219 L772.4688,633.6406 Z "/><text fill="#000000" font-family="sans-serif" font-size="12" lengthAdjust="spacingAndGlyphs" textLength="67" x="783.5" y="632.1543">InetAdress</text><line style="stroke: #A80036; stroke-width: 1.5;" x1="755.5" x2="852.5" y1="644" y2="644"/><line style="stroke: #A80036; stroke-width: 1.5;" x1="755.5" x2="852.5" y1="652" y2="652"/><!--class SecHubConfiguration--><rect fill="#FEFECE" filter="url(#f6e75hcmx4a3p)" height="48" id="SecHubConfiguration" style="stroke: #A80036; stroke-width: 1.5;" width="164" x="1065" y="308"/><ellipse cx="1080" cy="324" fill="#ADD1B2" rx="11" ry="11" style="stroke: #A80036; stroke-width: 1.0;"/><path d="M1082.9688,329.6406 Q1082.3906,329.9375 1081.75,330.0781 Q1081.1094,330.2344 1080.4063,330.2344 Q1077.9063,330.2344 1076.5781,328.5938 Q1075.2656,326.9375 1075.2656,323.8125 Q1075.2656,320.6875 1076.5781,319.0313 Q1077.9063,317.375 1080.4063,317.375 Q1081.1094,317.375 1081.75,317.5313 Q1082.4063,317.6875 1082.9688,317.9844 L1082.9688,320.7031 Q1082.3438,320.125 1081.75,319.8594 Q1081.1563,319.5781 1080.5313,319.5781 Q1079.1875,319.5781 1078.5,320.6563 Q1077.8125,321.7188 1077.8125,323.8125 Q1077.8125,325.9063 1078.5,326.9844 Q1079.1875,328.0469 1080.5313,328.0469 Q1081.1563,328.0469 1081.75,327.7813 Q1082.3438,327.5 1082.9688,326.9219 L1082.9688,329.6406 Z "/><text fill="#000000" font-family="sans-serif" font-size="12" lengthAdjust="spacingAndGlyphs" textLength="132" x="1094" y="328.1543">SecHubConfiguration</text><line style="stroke: #A80036; stroke-width: 1.5;" x1="1066" x2="1228" y1="340" y2="340"/><line style="stroke: #A80036; stroke-width: 1.5;" x1="1066" x2="1228" y1="348" y2="348"/><!--class SecHubCodeScanConfiguration--><rect fill="#FEFECE" filter="url(#f6e75hcmx4a3p)" height="48" id="SecHubCodeScanConfiguration" style="stroke: #A80036; stroke-width: 1.5;" width="227" x="1345.5" y="452"/><ellipse cx="1360.5" cy="468" fill="#ADD1B2" rx="11" ry="11" style="stroke: #A80036; stroke-width: 1.0;"/><path d="M1363.4688,473.6406 Q1362.8906,473.9375 1362.25,474.0781 Q1361.6094,474.2344 1360.9063,474.2344 Q1358.4063,474.2344 1357.0781,472.5938 Q1355.7656,470.9375 1355.7656,467.8125 Q1355.7656,464.6875 1357.0781,463.0313 Q1358.4063,461.375 1360.9063,461.375 Q1361.6094,461.375 1362.25,461.5313 Q1362.9063,461.6875 1363.4688,461.9844 L1363.4688,464.7031 Q1362.8438,464.125 1362.25,463.8594 Q1361.6563,463.5781 1361.0313,463.5781 Q1359.6875,463.5781 1359,464.6563 Q1358.3125,465.7188 1358.3125,467.8125 Q1358.3125,469.9063 1359,470.9844 Q1359.6875,472.0469 1361.0313,472.0469 Q1361.6563,472.0469 1362.25,471.7813 Q1362.8438,471.5 1363.4688,470.9219 L1363.4688,473.6406 Z "/><text fill="#000000" font-family="sans-serif" font-size="12" lengthAdjust="spacingAndGlyphs" textLength="195" x="1374.5" y="472.1543">SecHubCodeScanConfiguration</text><line style="stroke: #A80036; stroke-width: 1.5;" x1="1346.5" x2="1571.5" y1="484" y2="484"/><line style="stroke: #A80036; stroke-width: 1.5;" x1="1346.5" x2="1571.5" y1="492" y2="492"/><path d="M6,173 L6,228.3984 A0,0 0 0 0 6,228.3984 L152,228.3984 L156,307.5692 L160,228.3984 L306,228.3984 A0,0 0 0 0 306,228.3984 L306,183 L296,173 L6,173 A0,0 0 0 0 6,173 " fill="#FBFB77" filter="url(#f6e75hcmx4a3p)" style="stroke: #A80036; stroke-width: 1.0;"/><path d="M296,173 L296,183 L306,183 L296,173 " fill="#FBFB77" style="stroke: #A80036; stroke-width: 1.0;"/><text fill="#000000" font-family="sans-serif" font-size="13" lengthAdjust="spacingAndGlyphs" textLength="252" x="12" y="190.0669">Resolves information on given IP or URI.</text><text fill="#000000" font-family="sans-serif" font-size="13" lengthAdjust="spacingAndGlyphs" textLength="209" x="12" y="205.1997">Determines also the TargetType.</text><text fill="#000000" font-family="sans-serif" font-size="13" lengthAdjust="spacingAndGlyphs" textLength="279" x="12" y="220.3325">So dedicated installation setup can be used</text><path d="M342,608.5 L342,663.8984 A0,0 0 0 0 342,663.8984 L562,663.8984 A0,0 0 0 0 562,663.8984 L562,618.5 L552,608.5 L456,608.5 L452,519.2983 L448,608.5 L342,608.5 A0,0 0 0 0 342,608.5 " fill="#FBFB77" filter="url(#f6e75hcmx4a3p)" style="stroke: #A80036; stroke-width: 1.0;"/><path d="M552,608.5 L552,618.5 L562,618.5 L552,608.5 " fill="#FBFB77" style="stroke: #A80036; stroke-width: 1.0;"/><text fill="#000000" font-family="sans-serif" font-size="13" lengthAdjust="spacingAndGlyphs" textLength="166" x="348" y="625.5669">Contains information for a</text><text fill="#000000" font-family="sans-serif" font-size="13" lengthAdjust="spacingAndGlyphs" textLength="177" x="348" y="640.6997">dedicated TargetType which</text><text fill="#000000" font-family="sans-serif" font-size="13" lengthAdjust="spacingAndGlyphs" textLength="199" x="348" y="655.8325">can be used to call the adapter</text><path d="M111.5,8 L111.5,108.7969 A0,0 0 0 0 111.5,108.7969 L374.2119,108.7969 L467.2016,169.9165 L382.2119,108.7969 L496.5,108.7969 A0,0 0 0 0 496.5,108.7969 L496.5,18 L486.5,8 L111.5,8 A0,0 0 0 0 111.5,8 " fill="#FBFB77" filter="url(#f6e75hcmx4a3p)" style="stroke: #A80036; stroke-width: 1.0;"/><path d="M486.5,8 L486.5,18 L496.5,18 L486.5,8 " fill="#FBFB77" style="stroke: #A80036; stroke-width: 1.0;"/><text fill="#000000" font-family="sans-serif" font-size="13" lengthAdjust="spacingAndGlyphs" textLength="364" x="117.5" y="25.0669">This abstract implementation is able to automatically call</text><text fill="#000000" font-family="sans-serif" font-size="13" lengthAdjust="spacingAndGlyphs" textLength="331" x="117.5" y="40.1997">adapter for multiple targets with correct setup data.</text><text fill="#000000" font-family="sans-serif" font-size="13" lengthAdjust="spacingAndGlyphs" textLength="0" x="121.5" y="55.3325"/><text fill="#000000" font-family="sans-serif" font-size="13" lengthAdjust="spacingAndGlyphs" textLength="325" x="117.5" y="70.4653">E.g.a netsparker product executor uses its injected</text><text fill="#000000" font-family="sans-serif" font-size="13" lengthAdjust="spacingAndGlyphs" textLength="331" x="117.5" y="85.5981">NetsparkerInstallationSetup and differs Intranet and</text><text fill="#000000" font-family="sans-serif" font-size="13" lengthAdjust="spacingAndGlyphs" textLength="211" x="117.5" y="100.731">Intranet by different agentgroups</text><path d="M790,31 L790,86.3984 A0,0 0 0 0 790,86.3984 L951,86.3984 L955,169.8998 L959,86.3984 L1120,86.3984 A0,0 0 0 0 1120,86.3984 L1120,41 L1110,31 L790,31 A0,0 0 0 0 790,31 " fill="#FBFB77" filter="url(#f6e75hcmx4a3p)" style="stroke: #A80036; stroke-width: 1.0;"/><path d="M1110,31 L1110,41 L1120,41 L1110,31 " fill="#FBFB77" style="stroke: #A80036; stroke-width: 1.0;"/><text fill="#000000" font-family="sans-serif" font-size="13" lengthAdjust="spacingAndGlyphs" textLength="305" x="796" y="48.0669">The install setup contains the information about</text><text fill="#000000" font-family="sans-serif" font-size="13" lengthAdjust="spacingAndGlyphs" textLength="276" x="796" y="63.1997">servers, usernames, passwords etc. for the</text><text fill="#000000" font-family="sans-serif" font-size="13" lengthAdjust="spacingAndGlyphs" textLength="130" x="796" y="78.3325">calling of the adaper</text><!--link ProductExecutor to AbstractInstallSetupProductExecutor--><path d="M574.495,99.6558 C560.6091,122.0626 543.7189,149.3173 530.9999,169.8411 " fill="none" id="ProductExecutor-AbstractInstallSetupProductExecutor" style="stroke: #A80036; stroke-width: 1.0;"/><polygon fill="none" points="568.5865,95.9012,585.072,82.5884,580.4867,103.276,568.5865,95.9012" style="stroke: #A80036; stroke-width: 1.0;"/><!--link AbstractInstallSetupProductExecutor to TargetResolver--><path d="M416.7041,235.7006 C354.0743,258.8349 273.8798,288.4573 219.0755,308.7011 " fill="none" id="AbstractInstallSetupProductExecutor-TargetResolver" style="stroke: #A80036; stroke-width: 1.0;"/><polygon fill="#FFFFFF" points="428.9831,231.1649,421.9688,229.4917,417.7265,235.3229,424.7408,236.9961,428.9831,231.1649" style="stroke: #A80036; stroke-width: 1.0;"/><text fill="#000000" font-family="sans-serif" font-size="13" lengthAdjust="spacingAndGlyphs" textLength="30" x="346" y="274.0669">uses</text><!--link AbstractInstallSetupProductExecutor to AbstractAdapterConfigBuilder--><path d="M467.0652,240.1572 C442.0482,262.2359 411.7221,289.0003 390.2774,307.9263 " fill="none" id="AbstractInstallSetupProductExecutor-AbstractAdapterConfigBuilder" style="stroke: #A80036; stroke-width: 1.0;"/><polygon fill="#FFFFFF" points="477.0661,231.3309,469.9207,232.3021,468.069,239.2714,475.2144,238.3002,477.0661,231.3309" style="stroke: #A80036; stroke-width: 1.0;"/><text fill="#000000" font-family="sans-serif" font-size="13" lengthAdjust="spacingAndGlyphs" textLength="30" x="443" y="274.0669">uses</text><!--link AbstractInstallSetupProductExecutor to Adapter--><path d="M505.0239,244.4892 C504.6796,255.6332 505.5835,267.4343 509,278 C512.4513,288.6733 518.8863,299.011 525.5486,307.7351 " fill="none" id="AbstractInstallSetupProductExecutor-Adapter" style="stroke: #A80036; stroke-width: 1.0;"/><polygon fill="#FFFFFF" points="505.978,231.3491,501.5539,237.0436,505.1089,243.3176,509.5329,237.6231,505.978,231.3491" style="stroke: #A80036; stroke-width: 1.0;"/><text fill="#000000" font-family="sans-serif" font-size="13" lengthAdjust="spacingAndGlyphs" textLength="231" x="510" y="274.0669">calls the adapter with created config</text><!--link AbstractInstallSetupProductExecutor to InstallSetup--><path d="M647.6234,200.5 C699.2655,200.5 758.2767,200.5 810.6952,200.5 " fill="none" id="AbstractInstallSetupProductExecutor-InstallSetup" style="stroke: #A80036; stroke-width: 1.0;"/><text fill="#000000" font-family="sans-serif" font-size="13" lengthAdjust="spacingAndGlyphs" textLength="123" x="665.75" y="178.5669">implementation will</text><text fill="#000000" font-family="sans-serif" font-size="13" lengthAdjust="spacingAndGlyphs" textLength="112" x="673.25" y="193.6997">have this injected</text><text fill="#000000" font-family="sans-serif" font-size="13" lengthAdjust="spacingAndGlyphs" textLength="8" x="655.6954" y="197.1428">1</text><text fill="#000000" font-family="sans-serif" font-size="13" lengthAdjust="spacingAndGlyphs" textLength="8" x="795.0482" y="197.1886">1</text><!--link AbstractInstallSetupProductExecutor to InstallSetup--><path d="M647.5675,216.0046 C668.5296,217.8729 689.9522,219.4787 710.25,220.5 C741.1689,222.0556 774.2397,221.1196 805.7539,218.9802 " fill="none" id="AbstractInstallSetupProductExecutor-InstallSetup" style="stroke: #A80036; stroke-width: 1.0;"/><polygon fill="#A80036" points="810.7978,218.6267,801.5401,215.266,805.81,218.9764,802.0996,223.2464,810.7978,218.6267" style="stroke: #A80036; stroke-width: 1.0;"/><text fill="#000000" font-family="sans-serif" font-size="13" lengthAdjust="spacingAndGlyphs" textLength="36" x="711.25" y="216.5669">reads</text><!--link AbstractInstallSetupProductExecutor to TargetRegistry--><path d="M660.4921,223.9 C699.4509,233.2077 733.9746,245.4701 746,261 C758.3508,276.9501 744.3351,294.2517 726.7569,307.7821 " fill="none" id="AbstractInstallSetupProductExecutor-TargetRegistry" style="stroke: #A80036; stroke-width: 1.0;"/><polygon fill="#A80036" points="647.7101,220.9814,652.6691,226.2167,659.409,223.6526,654.45,218.4174,647.7101,220.9814" style="stroke: #A80036; stroke-width: 1.0;"/><text fill="#000000" font-family="sans-serif" font-size="13" lengthAdjust="spacingAndGlyphs" textLength="110" x="752" y="274.0669">creates and uses</text><!--link TargetRegistry to Target--><path d="M681.3655,369.0761 C678.9295,388.5643 675.9304,412.5571 673.3908,432.8738 " fill="none" id="TargetRegistry-Target" style="stroke: #A80036; stroke-width: 1.0;"/><polygon fill="#A80036" points="682.9872,356.1024,678.2738,361.5599,681.4987,368.0097,686.212,362.5522,682.9872,356.1024" style="stroke: #A80036; stroke-width: 1.0;"/><text fill="#000000" font-family="sans-serif" font-size="13" lengthAdjust="spacingAndGlyphs" textLength="54" x="681" y="399.0669">contains</text><text fill="#000000" font-family="sans-serif" font-size="13" lengthAdjust="spacingAndGlyphs" textLength="8" x="673.2778" y="375.8886">1</text><text fill="#000000" font-family="sans-serif" font-size="13" lengthAdjust="spacingAndGlyphs" textLength="8" x="665.6125" y="421.8497">n</text><!--link TargetRegistry to TargetData--><path d="M646.8337,356.1024 C614.0699,376.2647 566.4031,405.5981 526.4192,430.2036 " fill="none" id="TargetRegistry-TargetData" style="stroke: #A80036; stroke-width: 1.0;"/><polygon fill="#A80036" points="522.0801,432.8738,531.8414,431.5636,526.3384,430.2534,527.6487,424.7503,522.0801,432.8738" style="stroke: #A80036; stroke-width: 1.0;"/><text fill="#000000" font-family="sans-serif" font-size="13" lengthAdjust="spacingAndGlyphs" textLength="54" x="598" y="399.0669">provides</text><!--link TargetResolver to Target--><path d="M219.3792,352.0685 C225.2991,353.5519 231.238,354.8965 237,356 C382.0776,383.7842 432.6228,326.9029 568,386 C590.2892,395.7301 610.9903,412.4342 627.7077,428.8294 " fill="none" id="TargetResolver-Target" style="stroke: #A80036; stroke-width: 1.0;"/><polygon fill="#A80036" points="631.4313,432.5409,627.8807,423.3543,627.89,429.0112,622.2331,429.0204,631.4313,432.5409" style="stroke: #A80036; stroke-width: 1.0;"/><text fill="#000000" font-family="sans-serif" font-size="13" lengthAdjust="spacingAndGlyphs" textLength="48" x="198.1597" y="374.2003">creates</text><!--link Target to TargetType--><path d="M668,532.3983 C668,547.7514 668,564.3782 668,579.7245 " fill="none" id="Target-TargetType" style="stroke: #A80036; stroke-width: 1.0;"/><polygon fill="#A80036" points="668,519.2983,664,525.2983,668,531.2983,672,525.2983,668,519.2983" style="stroke: #A80036; stroke-width: 1.0;"/><!--link Target to URI--><path d="M753.2446,517.5362 C804.0387,542.6592 860.6155,571.4443 871,580 C881.974,589.0414 891.9677,601.2603 899.6472,611.9774 " fill="none" id="Target-URI" style="stroke: #A80036; stroke-width: 1.0;"/><polygon fill="#A80036" points="741.5046,511.7433,745.1152,517.9854,752.2658,517.0532,748.6552,510.8112,741.5046,511.7433" style="stroke: #A80036; stroke-width: 1.0;"/><text fill="#000000" font-family="sans-serif" font-size="13" lengthAdjust="spacingAndGlyphs" textLength="8" x="749.4973" y="511.7083">1</text><text fill="#000000" font-family="sans-serif" font-size="13" lengthAdjust="spacingAndGlyphs" textLength="24" x="868.638" y="600.9836">0..1</text><!--link Target to InetAdress--><path d="M713.3001,529.2942 C736.9369,557.1022 764.7072,589.7731 783.2335,611.5689 " fill="none" id="Target-InetAdress" style="stroke: #A80036; stroke-width: 1.0;"/><polygon fill="#A80036" points="704.8036,519.2983,705.6418,526.4605,712.5754,528.4415,711.7373,521.2793,704.8036,519.2983" style="stroke: #A80036; stroke-width: 1.0;"/><text fill="#000000" font-family="sans-serif" font-size="13" lengthAdjust="spacingAndGlyphs" textLength="8" x="702.0317" y="539.4388">1</text><text fill="#000000" font-family="sans-serif" font-size="13" lengthAdjust="spacingAndGlyphs" textLength="24" x="751.2467" y="600.8688">0..1</text><!--link AbstractInstallSetupProductExecutor to SecHubConfiguration--><path d="M647.6149,220.5712 C715.0303,231.2547 797.5829,245.4 871,261 C934.6557,274.5259 1005.7586,292.8954 1059.8523,307.5608 " fill="none" id="AbstractInstallSetupProductExecutor-SecHubConfiguration" style="stroke: #A80036; stroke-width: 1.0;"/><polygon fill="#A80036" points="1064.703,308.8783,1057.0661,302.6591,1059.8778,307.5677,1054.9692,310.3794,1064.703,308.8783" style="stroke: #A80036; stroke-width: 1.0;"/><text fill="#000000" font-family="sans-serif" font-size="13" lengthAdjust="spacingAndGlyphs" textLength="36" x="941" y="274.0669">reads</text><!--link SecHubConfiguration to SecHubWebScanConfiguration--><path d="M1160.1917,368.5308 C1169.6211,394.6432 1182.0467,429.0524 1190.268,451.819 " fill="none" id="SecHubConfiguration-SecHubWebScanConfiguration" style="stroke: #A80036; stroke-width: 1.0;"/><polygon fill="#A80036" points="1155.7036,356.1024,1153.9793,363.1043,1159.7794,367.389,1161.5037,360.3871,1155.7036,356.1024" style="stroke: #A80036; stroke-width: 1.0;"/><!--link SecHubConfiguration to SecHubInfrastuctureScanConfiguration--><path d="M1096.8653,363.1181 C1054.0162,389.7141 993.2338,427.4411 953.9583,451.819 " fill="none" id="SecHubConfiguration-SecHubInfrastuctureScanConfiguration" style="stroke: #A80036; stroke-width: 1.0;"/><polygon fill="#A80036" points="1108.1684,356.1024,1100.9611,355.868,1097.9727,362.4308,1105.18,362.6651,1108.1684,356.1024" style="stroke: #A80036; stroke-width: 1.0;"/><!--link SecHubConfiguration to SecHubCodeScanConfiguration--><path d="M1211.1507,361.608 C1269.0105,388.3126 1353.0519,427.1009 1406.8681,451.9391 " fill="none" id="SecHubConfiguration-SecHubCodeScanConfiguration" style="stroke: #A80036; stroke-width: 1.0;"/><polygon fill="#A80036" points="1199.2218,356.1024,1202.9933,362.2486,1210.1173,361.1312,1206.3458,354.985,1199.2218,356.1024" style="stroke: #A80036; stroke-width: 1.0;"/><!--link SecHubWebScanConfiguration to URI--><path d="M1144.8485,506.5079 C1083.8532,540.8714 987.2395,595.3017 941.1432,621.2715 " fill="none" id="SecHubWebScanConfiguration-URI" style="stroke: #A80036; stroke-width: 1.0;"/><polygon fill="#A80036" points="1156.1748,500.1269,1148.9839,499.587,1145.7199,506.0171,1152.9107,506.557,1156.1748,500.1269" style="stroke: #A80036; stroke-width: 1.0;"/><text fill="#000000" font-family="sans-serif" font-size="13" lengthAdjust="spacingAndGlyphs" textLength="8" x="1136.7612" y="519.919">1</text><text fill="#000000" font-family="sans-serif" font-size="13" lengthAdjust="spacingAndGlyphs" textLength="8" x="948.8674" y="612.6594">n</text><!--link SecHubInfrastuctureScanConfiguration to URI--><path d="M915,513.3692 C915,543.8102 915,585.8844 915,611.995 " fill="none" id="SecHubInfrastuctureScanConfiguration-URI" style="stroke: #A80036; stroke-width: 1.0;"/><polygon fill="#A80036" points="915,500.3006,911,506.3006,915,512.3006,919,506.3006,915,500.3006" style="stroke: #A80036; stroke-width: 1.0;"/><text fill="#000000" font-family="sans-serif" font-size="13" lengthAdjust="spacingAndGlyphs" textLength="8" x="906.025" y="520.1351">1</text><text fill="#000000" font-family="sans-serif" font-size="13" lengthAdjust="spacingAndGlyphs" textLength="8" x="905.975" y="601.0058">n</text><!--link SecHubInfrastuctureScanConfiguration to InetAdress--><path d="M890.4895,511.3304 C869.2771,541.9069 839.1757,585.2964 820.6535,611.995 " fill="none" id="SecHubInfrastuctureScanConfiguration-InetAdress" style="stroke: #A80036; stroke-width: 1.0;"/><polygon fill="#A80036" points="898.1415,500.3006,891.4349,502.9504,891.3014,510.1602,898.008,507.5105,898.1415,500.3006" style="stroke: #A80036; stroke-width: 1.0;"/><text fill="#000000" font-family="sans-serif" font-size="13" lengthAdjust="spacingAndGlyphs" textLength="8" x="885.0572" y="520.1351">1</text><text fill="#000000" font-family="sans-serif" font-size="13" lengthAdjust="spacingAndGlyphs" textLength="8" x="815.896" y="601.0058">n</text><!--
@startuml

abstract class AbstractInstallSetupProductExecutor{
   # <I extends InstallSetup> I getInstallSetup()
}
interface ProductExecutor
interface InstallSetup{
    + boolean isAbleToScan(TargetType targetType)
}
interface TargetResolver
class TargetRegistry
class SecHubWebScanConfiguration
class SecHubInfrastuctureScanConfiguration

class Target{
  + getURI()
  + getIP()
  + TargetType getType()
}
class TargetData{
    + TargetType getTargetType()
    + Set<URI> getTargetURIs()
    + Set<InetAddress> getTargetIPs()
}
enum TargetType {
  INTERNET
  INTRANET
  CODE_UPLOAD
  ILLEGAL
  UNKNOWN
}

ProductExecutor <|- - AbstractInstallSetupProductExecutor
AbstractInstallSetupProductExecutor o- - TargetResolver : uses
AbstractInstallSetupProductExecutor o- - AbstractAdapterConfigBuilder: uses
AbstractInstallSetupProductExecutor o- - Adapter: calls the adapter with created config
AbstractInstallSetupProductExecutor "1" - "1" InstallSetup : implementation will \nhave this injected
AbstractInstallSetupProductExecutor - -> InstallSetup : reads
AbstractInstallSetupProductExecutor *- - TargetRegistry: creates and uses

TargetRegistry "1" *- - "n" Target : contains
TargetRegistry - -> TargetData : provides
TargetResolver "creates" - -> Target
Target *- - TargetType
Target "1" *- - "0..1" URI
Target "1" *- - "0..1" InetAdress
AbstractInstallSetupProductExecutor - -> SecHubConfiguration : reads

SecHubConfiguration *- - SecHubWebScanConfiguration
SecHubConfiguration *- - SecHubInfrastuctureScanConfiguration
SecHubConfiguration *- - SecHubCodeScanConfiguration

SecHubWebScanConfiguration "1" *- - "n" URI
SecHubInfrastuctureScanConfiguration "1" *- - "n" URI
SecHubInfrastuctureScanConfiguration "1" *- - "n" InetAdress

note top of TargetResolver: Resolves information on given IP or URI.\nDetermines also the TargetType.\nSo dedicated installation setup can be used
note bottom of TargetData: Contains information for a \ndedicated TargetType which\ncan be used to call the adapter

note top of AbstractInstallSetupProductExecutor: This abstract implementation is able to automatically call\nadapter for multiple targets with correct setup data.\n\nE.g.a netsparker product executor uses its injected\nNetsparkerInstallationSetup and differs Intranet and \nIntranet by different agentgroups
note top of InstallSetup : The install setup contains the information about \nservers, usernames, passwords etc. for the\ncalling of the adaper
@enduml

PlantUML version 1.2018.13(Mon Nov 26 17:11:51 UTC 2018)
(APACHE source distribution)
Java Runtime: OpenJDK Runtime Environment
JVM: OpenJDK 64-Bit Server VM
Java Version: 1.8.0_275-b01
Operating System: Linux
OS Version: 5.4.0-1031-azure
Default Encoding: UTF-8
Language: en
Country: 
--></g></svg>