<?xml version="1.0" encoding="UTF-8" standalone="no"?><svg xmlns="http://www.w3.org/2000/svg" xmlns:xlink="http://www.w3.org/1999/xlink" contentScriptType="application/ecmascript" contentStyleType="text/css" height="701px" preserveAspectRatio="none" style="width:1580px;height:701px;" version="1.1" viewBox="0 0 1580 701" width="1580px" zoomAndPan="magnify"><defs><filter height="300%" id="fgztesy" width="300%" x="-1" y="-1"><feGaussianBlur result="blurOut" stdDeviation="2.0"/><feColorMatrix in="blurOut" result="blurOut2" type="matrix" values="0 0 0 0 0 0 0 0 0 0 0 0 0 0 0 0 0 0 .4 0"/><feOffset dx="4.0" dy="4.0" in="blurOut2" result="blurOut3"/><feBlend in="SourceGraphic" in2="blurOut3" mode="normal"/></filter></defs><g><!--class AbstractInstallSetupProductExecutor--><rect fill="#FEFECE" filter="url(#fgztesy)" height="60.8047" style="stroke: #A80036; stroke-width: 1.5;" width="271" x="376.5" y="170"/><ellipse cx="395.55" cy="186" fill="#A9DCDF" rx="11" ry="11" style="stroke: #A80036; stroke-width: 1.0;"/><path d="M395.6594,181.3438 L394.5031,186.4219 L396.8313,186.4219 L395.6594,181.3438 Z M394.175,179.1094 L397.1594,179.1094 L400.5188,191.5 L398.0656,191.5 L397.3,188.4375 L394.0188,188.4375 L393.2688,191.5 L390.8313,191.5 L394.175,179.1094 Z "/><text fill="#000000" font-family="sans-serif" font-size="12" font-style="italic" lengthAdjust="spacingAndGlyphs" textLength="230" x="410.45" y="190.1543">AbstractInstallSetupProductExecutor</text><line style="stroke: #A80036; stroke-width: 1.5;" x1="377.5" x2="646.5" y1="202" y2="202"/><line style="stroke: #A80036; stroke-width: 1.5;" x1="377.5" x2="646.5" y1="210" y2="210"/><polygon fill="#FFFF44" points="387.5,216.9023,391.5,220.9023,387.5,224.9023,383.5,220.9023" style="stroke: #B38D22; stroke-width: 1.0;"/><text fill="#000000" font-family="sans-serif" font-size="11" lengthAdjust="spacingAndGlyphs" textLength="245" x="396.5" y="224.2104">&lt;I extends InstallSetup&gt; I getInstallSetup()</text><!--class ProductExecutor--><rect fill="#FEFECE" filter="url(#fgztesy)" height="48" style="stroke: #A80036; stroke-width: 1.5;" width="136" x="532" y="34.5"/><ellipse cx="547" cy="50.5" fill="#B4A7E5" rx="11" ry="11" style="stroke: #A80036; stroke-width: 1.0;"/><path d="M542.9219,46.2656 L542.9219,44.1094 L550.3125,44.1094 L550.3125,46.2656 L547.8438,46.2656 L547.8438,54.3438 L550.3125,54.3438 L550.3125,56.5 L542.9219,56.5 L542.9219,54.3438 L545.3906,54.3438 L545.3906,46.2656 L542.9219,46.2656 Z "/><text fill="#000000" font-family="sans-serif" font-size="12" font-style="italic" lengthAdjust="spacingAndGlyphs" textLength="104" x="561" y="54.6543">ProductExecutor</text><line style="stroke: #A80036; stroke-width: 1.5;" x1="533" x2="667" y1="66.5" y2="66.5"/><line style="stroke: #A80036; stroke-width: 1.5;" x1="533" x2="667" y1="74.5" y2="74.5"/><!--class InstallSetup--><rect fill="#FEFECE" filter="url(#fgztesy)" height="60.8047" style="stroke: #A80036; stroke-width: 1.5;" width="288" x="811" y="170"/><ellipse cx="913.75" cy="186" fill="#B4A7E5" rx="11" ry="11" style="stroke: #A80036; stroke-width: 1.0;"/><path d="M909.6719,181.7656 L909.6719,179.6094 L917.0625,179.6094 L917.0625,181.7656 L914.5938,181.7656 L914.5938,189.8438 L917.0625,189.8438 L917.0625,192 L909.6719,192 L909.6719,189.8438 L912.1406,189.8438 L912.1406,181.7656 L909.6719,181.7656 Z "/><text fill="#000000" font-family="sans-serif" font-size="12" font-style="italic" lengthAdjust="spacingAndGlyphs" textLength="74" x="934.25" y="190.1543">InstallSetup</text><line style="stroke: #A80036; stroke-width: 1.5;" x1="812" x2="1098" y1="202" y2="202"/><line style="stroke: #A80036; stroke-width: 1.5;" x1="812" x2="1098" y1="210" y2="210"/><ellipse cx="822" cy="221.9023" fill="#84BE84" rx="3" ry="3" style="stroke: #038048; stroke-width: 1.0;"/><text fill="#000000" font-family="sans-serif" font-size="11" lengthAdjust="spacingAndGlyphs" textLength="262" x="831" y="224.2104">boolean isAbleToScan(TargetType targetType)</text><!--class TargetResolver--><rect fill="#FEFECE" filter="url(#fgztesy)" height="48" style="stroke: #A80036; stroke-width: 1.5;" width="125" x="93.5" y="308"/><ellipse cx="108.5" cy="324" fill="#B4A7E5" rx="11" ry="11" style="stroke: #A80036; stroke-width: 1.0;"/><path d="M104.4219,319.7656 L104.4219,317.6094 L111.8125,317.6094 L111.8125,319.7656 L109.3438,319.7656 L109.3438,327.8438 L111.8125,327.8438 L111.8125,330 L104.4219,330 L104.4219,327.8438 L106.8906,327.8438 L106.8906,319.7656 L104.4219,319.7656 Z "/><text fill="#000000" font-family="sans-serif" font-size="12" font-style="italic" lengthAdjust="spacingAndGlyphs" textLength="93" x="122.5" y="328.1543">TargetResolver</text><line style="stroke: #A80036; stroke-width: 1.5;" x1="94.5" x2="217.5" y1="340" y2="340"/><line style="stroke: #A80036; stroke-width: 1.5;" x1="94.5" x2="217.5" y1="348" y2="348"/><!--class TargetRegistry--><rect fill="#FEFECE" filter="url(#fgztesy)" height="48" style="stroke: #A80036; stroke-width: 1.5;" width="123" x="623.5" y="308"/><ellipse cx="638.5" cy="324" fill="#ADD1B2" rx="11" ry="11" style="stroke: #A80036; stroke-width: 1.0;"/><path d="M641.4688,329.6406 Q640.8906,329.9375 640.25,330.0859 Q639.6094,330.2344 638.9063,330.2344 Q636.4063,330.2344 635.0859,328.5859 Q633.7656,326.9375 633.7656,323.8125 Q633.7656,320.6875 635.0859,319.0313 Q636.4063,317.375 638.9063,317.375 Q639.6094,317.375 640.2578,317.5313 Q640.9063,317.6875 641.4688,317.9844 L641.4688,320.7031 Q640.8438,320.125 640.25,319.8516 Q639.6563,319.5781 639.0313,319.5781 Q637.6875,319.5781 637,320.6484 Q636.3125,321.7188 636.3125,323.8125 Q636.3125,325.9063 637,326.9766 Q637.6875,328.0469 639.0313,328.0469 Q639.6563,328.0469 640.25,327.7734 Q640.8438,327.5 641.4688,326.9219 L641.4688,329.6406 Z "/><text fill="#000000" font-family="sans-serif" font-size="12" lengthAdjust="spacingAndGlyphs" textLength="91" x="652.5" y="328.1543">TargetRegistry</text><line style="stroke: #A80036; stroke-width: 1.5;" x1="624.5" x2="745.5" y1="340" y2="340"/><line style="stroke: #A80036; stroke-width: 1.5;" x1="624.5" x2="745.5" y1="348" y2="348"/><!--class SecHubWebScanConfiguration--><rect fill="#FEFECE" filter="url(#fgztesy)" height="48" style="stroke: #A80036; stroke-width: 1.5;" width="222" x="1087" y="452"/><ellipse cx="1102" cy="468" fill="#ADD1B2" rx="11" ry="11" style="stroke: #A80036; stroke-width: 1.0;"/><path d="M1104.9688,473.6406 Q1104.3906,473.9375 1103.75,474.0859 Q1103.1094,474.2344 1102.4063,474.2344 Q1099.9063,474.2344 1098.5859,472.5859 Q1097.2656,470.9375 1097.2656,467.8125 Q1097.2656,464.6875 1098.5859,463.0313 Q1099.9063,461.375 1102.4063,461.375 Q1103.1094,461.375 1103.7578,461.5313 Q1104.4063,461.6875 1104.9688,461.9844 L1104.9688,464.7031 Q1104.3438,464.125 1103.75,463.8516 Q1103.1563,463.5781 1102.5313,463.5781 Q1101.1875,463.5781 1100.5,464.6484 Q1099.8125,465.7188 1099.8125,467.8125 Q1099.8125,469.9063 1100.5,470.9766 Q1101.1875,472.0469 1102.5313,472.0469 Q1103.1563,472.0469 1103.75,471.7734 Q1104.3438,471.5 1104.9688,470.9219 L1104.9688,473.6406 Z "/><text fill="#000000" font-family="sans-serif" font-size="12" lengthAdjust="spacingAndGlyphs" textLength="190" x="1116" y="472.1543">SecHubWebScanConfiguration</text><line style="stroke: #A80036; stroke-width: 1.5;" x1="1088" x2="1308" y1="484" y2="484"/><line style="stroke: #A80036; stroke-width: 1.5;" x1="1088" x2="1308" y1="492" y2="492"/><!--class SecHubInfrastuctureScanConfiguration--><rect fill="#FEFECE" filter="url(#fgztesy)" height="48" style="stroke: #A80036; stroke-width: 1.5;" width="276" x="776" y="452"/><ellipse cx="791" cy="468" fill="#ADD1B2" rx="11" ry="11" style="stroke: #A80036; stroke-width: 1.0;"/><path d="M793.9688,473.6406 Q793.3906,473.9375 792.75,474.0859 Q792.1094,474.2344 791.4063,474.2344 Q788.9063,474.2344 787.5859,472.5859 Q786.2656,470.9375 786.2656,467.8125 Q786.2656,464.6875 787.5859,463.0313 Q788.9063,461.375 791.4063,461.375 Q792.1094,461.375 792.7578,461.5313 Q793.4063,461.6875 793.9688,461.9844 L793.9688,464.7031 Q793.3438,464.125 792.75,463.8516 Q792.1563,463.5781 791.5313,463.5781 Q790.1875,463.5781 789.5,464.6484 Q788.8125,465.7188 788.8125,467.8125 Q788.8125,469.9063 789.5,470.9766 Q790.1875,472.0469 791.5313,472.0469 Q792.1563,472.0469 792.75,471.7734 Q793.3438,471.5 793.9688,470.9219 L793.9688,473.6406 Z "/><text fill="#000000" font-family="sans-serif" font-size="12" lengthAdjust="spacingAndGlyphs" textLength="244" x="805" y="472.1543">SecHubInfrastuctureScanConfiguration</text><line style="stroke: #A80036; stroke-width: 1.5;" x1="777" x2="1051" y1="484" y2="484"/><line style="stroke: #A80036; stroke-width: 1.5;" x1="777" x2="1051" y1="492" y2="492"/><!--class Target--><rect fill="#FEFECE" filter="url(#fgztesy)" height="86.4141" style="stroke: #A80036; stroke-width: 1.5;" width="147" x="593.5" y="433"/><ellipse cx="642.25" cy="449" fill="#ADD1B2" rx="11" ry="11" style="stroke: #A80036; stroke-width: 1.0;"/><path d="M645.2188,454.6406 Q644.6406,454.9375 644,455.0859 Q643.3594,455.2344 642.6563,455.2344 Q640.1563,455.2344 638.8359,453.5859 Q637.5156,451.9375 637.5156,448.8125 Q637.5156,445.6875 638.8359,444.0313 Q640.1563,442.375 642.6563,442.375 Q643.3594,442.375 644.0078,442.5313 Q644.6563,442.6875 645.2188,442.9844 L645.2188,445.7031 Q644.5938,445.125 644,444.8516 Q643.4063,444.5781 642.7813,444.5781 Q641.4375,444.5781 640.75,445.6484 Q640.0625,446.7188 640.0625,448.8125 Q640.0625,450.9063 640.75,451.9766 Q641.4375,453.0469 642.7813,453.0469 Q643.4063,453.0469 644,452.7734 Q644.5938,452.5 645.2188,451.9219 L645.2188,454.6406 Z "/><text fill="#000000" font-family="sans-serif" font-size="12" lengthAdjust="spacingAndGlyphs" textLength="41" x="662.75" y="453.1543">Target</text><line style="stroke: #A80036; stroke-width: 1.5;" x1="594.5" x2="739.5" y1="465" y2="465"/><line style="stroke: #A80036; stroke-width: 1.5;" x1="594.5" x2="739.5" y1="473" y2="473"/><ellipse cx="604.5" cy="484.9023" fill="#84BE84" rx="3" ry="3" style="stroke: #038048; stroke-width: 1.0;"/><text fill="#000000" font-family="sans-serif" font-size="11" lengthAdjust="spacingAndGlyphs" textLength="44" x="613.5" y="487.2104">getURI()</text><ellipse cx="604.5" cy="497.707" fill="#84BE84" rx="3" ry="3" style="stroke: #038048; stroke-width: 1.0;"/><text fill="#000000" font-family="sans-serif" font-size="11" lengthAdjust="spacingAndGlyphs" textLength="36" x="613.5" y="500.0151">getIP()</text><ellipse cx="604.5" cy="510.5117" fill="#84BE84" rx="3" ry="3" style="stroke: #038048; stroke-width: 1.0;"/><text fill="#000000" font-family="sans-serif" font-size="11" lengthAdjust="spacingAndGlyphs" textLength="121" x="613.5" y="512.8198">TargetType getType()</text><!--class TargetData--><rect fill="#FEFECE" filter="url(#fgztesy)" height="86.4141" style="stroke: #A80036; stroke-width: 1.5;" width="215" x="343.5" y="433"/><ellipse cx="411.25" cy="449" fill="#ADD1B2" rx="11" ry="11" style="stroke: #A80036; stroke-width: 1.0;"/><path d="M414.2188,454.6406 Q413.6406,454.9375 413,455.0859 Q412.3594,455.2344 411.6563,455.2344 Q409.1563,455.2344 407.8359,453.5859 Q406.5156,451.9375 406.5156,448.8125 Q406.5156,445.6875 407.8359,444.0313 Q409.1563,442.375 411.6563,442.375 Q412.3594,442.375 413.0078,442.5313 Q413.6563,442.6875 414.2188,442.9844 L414.2188,445.7031 Q413.5938,445.125 413,444.8516 Q412.4063,444.5781 411.7813,444.5781 Q410.4375,444.5781 409.75,445.6484 Q409.0625,446.7188 409.0625,448.8125 Q409.0625,450.9063 409.75,451.9766 Q410.4375,453.0469 411.7813,453.0469 Q412.4063,453.0469 413,452.7734 Q413.5938,452.5 414.2188,451.9219 L414.2188,454.6406 Z "/><text fill="#000000" font-family="sans-serif" font-size="12" lengthAdjust="spacingAndGlyphs" textLength="71" x="431.75" y="453.1543">TargetData</text><line style="stroke: #A80036; stroke-width: 1.5;" x1="344.5" x2="557.5" y1="465" y2="465"/><line style="stroke: #A80036; stroke-width: 1.5;" x1="344.5" x2="557.5" y1="473" y2="473"/><ellipse cx="354.5" cy="484.9023" fill="#84BE84" rx="3" ry="3" style="stroke: #038048; stroke-width: 1.0;"/><text fill="#000000" font-family="sans-serif" font-size="11" lengthAdjust="spacingAndGlyphs" textLength="158" x="363.5" y="487.2104">TargetType getTargetType()</text><ellipse cx="354.5" cy="497.707" fill="#84BE84" rx="3" ry="3" style="stroke: #038048; stroke-width: 1.0;"/><text fill="#000000" font-family="sans-serif" font-size="11" lengthAdjust="spacingAndGlyphs" textLength="147" x="363.5" y="500.0151">Set&lt;URI&gt; getTargetURIs()</text><ellipse cx="354.5" cy="510.5117" fill="#84BE84" rx="3" ry="3" style="stroke: #038048; stroke-width: 1.0;"/><text fill="#000000" font-family="sans-serif" font-size="11" lengthAdjust="spacingAndGlyphs" textLength="189" x="363.5" y="512.8198">Set&lt;InetAddress&gt; getTargetIPs()</text><!--class TargetType--><rect fill="#FEFECE" filter="url(#fgztesy)" height="112.0234" style="stroke: #A80036; stroke-width: 1.5;" width="102" x="616" y="580"/><ellipse cx="631" cy="596" fill="#EB937F" rx="11" ry="11" style="stroke: #A80036; stroke-width: 1.0;"/><path d="M635.1094,602 L627.3906,602 L627.3906,589.6094 L635.1094,589.6094 L635.1094,591.7656 L629.8438,591.7656 L629.8438,594.4375 L634.6094,594.4375 L634.6094,596.5938 L629.8438,596.5938 L629.8438,599.8438 L635.1094,599.8438 L635.1094,602 Z "/><text fill="#000000" font-family="sans-serif" font-size="12" lengthAdjust="spacingAndGlyphs" textLength="70" x="645" y="600.1543">TargetType</text><line style="stroke: #A80036; stroke-width: 1.5;" x1="617" x2="717" y1="612" y2="612"/><text fill="#000000" font-family="sans-serif" font-size="11" lengthAdjust="spacingAndGlyphs" textLength="54" x="622" y="626.2104">INTERNET</text><text fill="#000000" font-family="sans-serif" font-size="11" lengthAdjust="spacingAndGlyphs" textLength="54" x="622" y="639.0151">INTRANET</text><text fill="#000000" font-family="sans-serif" font-size="11" lengthAdjust="spacingAndGlyphs" textLength="83" x="622" y="651.8198">CODE_UPLOAD</text><text fill="#000000" font-family="sans-serif" font-size="11" lengthAdjust="spacingAndGlyphs" textLength="44" x="622" y="664.6245">ILLEGAL</text><text fill="#000000" font-family="sans-serif" font-size="11" lengthAdjust="spacingAndGlyphs" textLength="57" x="622" y="677.4292">UNKNOWN</text><line style="stroke: #A80036; stroke-width: 1.5;" x1="617" x2="717" y1="684.0234" y2="684.0234"/><!--class AbstractAdapterConfigBuilder--><rect fill="#FEFECE" filter="url(#fgztesy)" height="48" style="stroke: #A80036; stroke-width: 1.5;" width="217" x="253.5" y="308"/><ellipse cx="268.5" cy="324" fill="#ADD1B2" rx="11" ry="11" style="stroke: #A80036; stroke-width: 1.0;"/><path d="M271.4688,329.6406 Q270.8906,329.9375 270.25,330.0859 Q269.6094,330.2344 268.9063,330.2344 Q266.4063,330.2344 265.0859,328.5859 Q263.7656,326.9375 263.7656,323.8125 Q263.7656,320.6875 265.0859,319.0313 Q266.4063,317.375 268.9063,317.375 Q269.6094,317.375 270.2578,317.5313 Q270.9063,317.6875 271.4688,317.9844 L271.4688,320.7031 Q270.8438,320.125 270.25,319.8516 Q269.6563,319.5781 269.0313,319.5781 Q267.6875,319.5781 267,320.6484 Q266.3125,321.7188 266.3125,323.8125 Q266.3125,325.9063 267,326.9766 Q267.6875,328.0469 269.0313,328.0469 Q269.6563,328.0469 270.25,327.7734 Q270.8438,327.5 271.4688,326.9219 L271.4688,329.6406 Z "/><text fill="#000000" font-family="sans-serif" font-size="12" lengthAdjust="spacingAndGlyphs" textLength="185" x="282.5" y="328.1543">AbstractAdapterConfigBuilder</text><line style="stroke: #A80036; stroke-width: 1.5;" x1="254.5" x2="469.5" y1="340" y2="340"/><line style="stroke: #A80036; stroke-width: 1.5;" x1="254.5" x2="469.5" y1="348" y2="348"/><!--class Adapter--><rect fill="#FEFECE" filter="url(#fgztesy)" height="48" style="stroke: #A80036; stroke-width: 1.5;" width="82" x="506" y="308"/><ellipse cx="521" cy="324" fill="#ADD1B2" rx="11" ry="11" style="stroke: #A80036; stroke-width: 1.0;"/><path d="M523.9688,329.6406 Q523.3906,329.9375 522.75,330.0859 Q522.1094,330.2344 521.4063,330.2344 Q518.9063,330.2344 517.5859,328.5859 Q516.2656,326.9375 516.2656,323.8125 Q516.2656,320.6875 517.5859,319.0313 Q518.9063,317.375 521.4063,317.375 Q522.1094,317.375 522.7578,317.5313 Q523.4063,317.6875 523.9688,317.9844 L523.9688,320.7031 Q523.3438,320.125 522.75,319.8516 Q522.1563,319.5781 521.5313,319.5781 Q520.1875,319.5781 519.5,320.6484 Q518.8125,321.7188 518.8125,323.8125 Q518.8125,325.9063 519.5,326.9766 Q520.1875,328.0469 521.5313,328.0469 Q522.1563,328.0469 522.75,327.7734 Q523.3438,327.5 523.9688,326.9219 L523.9688,329.6406 Z "/><text fill="#000000" font-family="sans-serif" font-size="12" lengthAdjust="spacingAndGlyphs" textLength="50" x="535" y="328.1543">Adapter</text><line style="stroke: #A80036; stroke-width: 1.5;" x1="507" x2="587" y1="340" y2="340"/><line style="stroke: #A80036; stroke-width: 1.5;" x1="507" x2="587" y1="348" y2="348"/><!--class URI--><rect fill="#FEFECE" filter="url(#fgztesy)" height="48" style="stroke: #A80036; stroke-width: 1.5;" width="52" x="888" y="612"/><ellipse cx="903" cy="628" fill="#ADD1B2" rx="11" ry="11" style="stroke: #A80036; stroke-width: 1.0;"/><path d="M905.9688,633.6406 Q905.3906,633.9375 904.75,634.0859 Q904.1094,634.2344 903.4063,634.2344 Q900.9063,634.2344 899.5859,632.5859 Q898.2656,630.9375 898.2656,627.8125 Q898.2656,624.6875 899.5859,623.0313 Q900.9063,621.375 903.4063,621.375 Q904.1094,621.375 904.7578,621.5313 Q905.4063,621.6875 905.9688,621.9844 L905.9688,624.7031 Q905.3438,624.125 904.75,623.8516 Q904.1563,623.5781 903.5313,623.5781 Q902.1875,623.5781 901.5,624.6484 Q900.8125,625.7188 900.8125,627.8125 Q900.8125,629.9063 901.5,630.9766 Q902.1875,632.0469 903.5313,632.0469 Q904.1563,632.0469 904.75,631.7734 Q905.3438,631.5 905.9688,630.9219 L905.9688,633.6406 Z "/><text fill="#000000" font-family="sans-serif" font-size="12" lengthAdjust="spacingAndGlyphs" textLength="20" x="917" y="632.1543">URI</text><line style="stroke: #A80036; stroke-width: 1.5;" x1="889" x2="939" y1="644" y2="644"/><line style="stroke: #A80036; stroke-width: 1.5;" x1="889" x2="939" y1="652" y2="652"/><!--class InetAdress--><rect fill="#FEFECE" filter="url(#fgztesy)" height="48" style="stroke: #A80036; stroke-width: 1.5;" width="99" x="753.5" y="612"/><ellipse cx="768.5" cy="628" fill="#ADD1B2" rx="11" ry="11" style="stroke: #A80036; stroke-width: 1.0;"/><path d="M771.4688,633.6406 Q770.8906,633.9375 770.25,634.0859 Q769.6094,634.2344 768.9063,634.2344 Q766.4063,634.2344 765.0859,632.5859 Q763.7656,630.9375 763.7656,627.8125 Q763.7656,624.6875 765.0859,623.0313 Q766.4063,621.375 768.9063,621.375 Q769.6094,621.375 770.2578,621.5313 Q770.9063,621.6875 771.4688,621.9844 L771.4688,624.7031 Q770.8438,624.125 770.25,623.8516 Q769.6563,623.5781 769.0313,623.5781 Q767.6875,623.5781 767,624.6484 Q766.3125,625.7188 766.3125,627.8125 Q766.3125,629.9063 767,630.9766 Q767.6875,632.0469 769.0313,632.0469 Q769.6563,632.0469 770.25,631.7734 Q770.8438,631.5 771.4688,630.9219 L771.4688,633.6406 Z "/><text fill="#000000" font-family="sans-serif" font-size="12" lengthAdjust="spacingAndGlyphs" textLength="67" x="782.5" y="632.1543">InetAdress</text><line style="stroke: #A80036; stroke-width: 1.5;" x1="754.5" x2="851.5" y1="644" y2="644"/><line style="stroke: #A80036; stroke-width: 1.5;" x1="754.5" x2="851.5" y1="652" y2="652"/><!--class SecHubConfiguration--><rect fill="#FEFECE" filter="url(#fgztesy)" height="48" style="stroke: #A80036; stroke-width: 1.5;" width="164" x="1064" y="308"/><ellipse cx="1079" cy="324" fill="#ADD1B2" rx="11" ry="11" style="stroke: #A80036; stroke-width: 1.0;"/><path d="M1081.9688,329.6406 Q1081.3906,329.9375 1080.75,330.0859 Q1080.1094,330.2344 1079.4063,330.2344 Q1076.9063,330.2344 1075.5859,328.5859 Q1074.2656,326.9375 1074.2656,323.8125 Q1074.2656,320.6875 1075.5859,319.0313 Q1076.9063,317.375 1079.4063,317.375 Q1080.1094,317.375 1080.7578,317.5313 Q1081.4063,317.6875 1081.9688,317.9844 L1081.9688,320.7031 Q1081.3438,320.125 1080.75,319.8516 Q1080.1563,319.5781 1079.5313,319.5781 Q1078.1875,319.5781 1077.5,320.6484 Q1076.8125,321.7188 1076.8125,323.8125 Q1076.8125,325.9063 1077.5,326.9766 Q1078.1875,328.0469 1079.5313,328.0469 Q1080.1563,328.0469 1080.75,327.7734 Q1081.3438,327.5 1081.9688,326.9219 L1081.9688,329.6406 Z "/><text fill="#000000" font-family="sans-serif" font-size="12" lengthAdjust="spacingAndGlyphs" textLength="132" x="1093" y="328.1543">SecHubConfiguration</text><line style="stroke: #A80036; stroke-width: 1.5;" x1="1065" x2="1227" y1="340" y2="340"/><line style="stroke: #A80036; stroke-width: 1.5;" x1="1065" x2="1227" y1="348" y2="348"/><!--class SecHubCodeScanConfiguration--><rect fill="#FEFECE" filter="url(#fgztesy)" height="48" style="stroke: #A80036; stroke-width: 1.5;" width="227" x="1344.5" y="452"/><ellipse cx="1359.5" cy="468" fill="#ADD1B2" rx="11" ry="11" style="stroke: #A80036; stroke-width: 1.0;"/><path d="M1362.4688,473.6406 Q1361.8906,473.9375 1361.25,474.0859 Q1360.6094,474.2344 1359.9063,474.2344 Q1357.4063,474.2344 1356.0859,472.5859 Q1354.7656,470.9375 1354.7656,467.8125 Q1354.7656,464.6875 1356.0859,463.0313 Q1357.4063,461.375 1359.9063,461.375 Q1360.6094,461.375 1361.2578,461.5313 Q1361.9063,461.6875 1362.4688,461.9844 L1362.4688,464.7031 Q1361.8438,464.125 1361.25,463.8516 Q1360.6563,463.5781 1360.0313,463.5781 Q1358.6875,463.5781 1358,464.6484 Q1357.3125,465.7188 1357.3125,467.8125 Q1357.3125,469.9063 1358,470.9766 Q1358.6875,472.0469 1360.0313,472.0469 Q1360.6563,472.0469 1361.25,471.7734 Q1361.8438,471.5 1362.4688,470.9219 L1362.4688,473.6406 Z "/><text fill="#000000" font-family="sans-serif" font-size="12" lengthAdjust="spacingAndGlyphs" textLength="195" x="1373.5" y="472.1543">SecHubCodeScanConfiguration</text><line style="stroke: #A80036; stroke-width: 1.5;" x1="1345.5" x2="1570.5" y1="484" y2="484"/><line style="stroke: #A80036; stroke-width: 1.5;" x1="1345.5" x2="1570.5" y1="492" y2="492"/><polygon fill="#FBFB77" filter="url(#fgztesy)" points="6,173,6,228.3984,306,228.3984,306,183,296,173,6,173" style="stroke: #A80036; stroke-width: 1.0;"/><polygon fill="#FBFB77" points="6,173,6,228.3984,152,228.3984,156,307.5692,160,228.3984,306,228.3984,306,183,296,173,6,173" style="stroke: #A80036; stroke-width: 1.0;"/><line style="stroke: #A80036; stroke-width: 1.0;" x1="296" x2="296" y1="173" y2="183"/><line style="stroke: #A80036; stroke-width: 1.0;" x1="306" x2="296" y1="183" y2="183"/><text fill="#000000" font-family="sans-serif" font-size="13" lengthAdjust="spacingAndGlyphs" textLength="252" x="12" y="190.0669">Resolves information on given IP or URI.</text><text fill="#000000" font-family="sans-serif" font-size="13" lengthAdjust="spacingAndGlyphs" textLength="209" x="12" y="205.1997">Determines also the TargetType.</text><text fill="#000000" font-family="sans-serif" font-size="13" lengthAdjust="spacingAndGlyphs" textLength="279" x="12" y="220.3325">So dedicated installation setup can be used</text><polygon fill="#FBFB77" filter="url(#fgztesy)" points="341,608.5,341,663.8984,561,663.8984,561,618.5,551,608.5,341,608.5" style="stroke: #A80036; stroke-width: 1.0;"/><polygon fill="#FBFB77" points="341,608.5,341,663.8984,561,663.8984,561,618.5,551,608.5,455,608.5,451,519.2983,447,608.5,341,608.5" style="stroke: #A80036; stroke-width: 1.0;"/><line style="stroke: #A80036; stroke-width: 1.0;" x1="551" x2="551" y1="608.5" y2="618.5"/><line style="stroke: #A80036; stroke-width: 1.0;" x1="561" x2="551" y1="618.5" y2="618.5"/><text fill="#000000" font-family="sans-serif" font-size="13" lengthAdjust="spacingAndGlyphs" textLength="166" x="347" y="625.5669">Contains information for a</text><text fill="#000000" font-family="sans-serif" font-size="13" lengthAdjust="spacingAndGlyphs" textLength="177" x="347" y="640.6997">dedicated TargetType which</text><text fill="#000000" font-family="sans-serif" font-size="13" lengthAdjust="spacingAndGlyphs" textLength="199" x="347" y="655.8325">can be used to call the adapter</text><polygon fill="#FBFB77" filter="url(#fgztesy)" points="111.5,8,111.5,108.7969,496.5,108.7969,496.5,18,486.5,8,111.5,8" style="stroke: #A80036; stroke-width: 1.0;"/><polygon fill="#FBFB77" points="111.5,8,111.5,108.7969,374.2119,108.7969,467.2016,169.9165,382.2119,108.7969,496.5,108.7969,496.5,18,486.5,8,111.5,8" style="stroke: #A80036; stroke-width: 1.0;"/><line style="stroke: #A80036; stroke-width: 1.0;" x1="486.5" x2="486.5" y1="8" y2="18"/><line style="stroke: #A80036; stroke-width: 1.0;" x1="496.5" x2="486.5" y1="18" y2="18"/><text fill="#000000" font-family="sans-serif" font-size="13" lengthAdjust="spacingAndGlyphs" textLength="364" x="117.5" y="25.0669">This abstract implementation is able to automatically call</text><text fill="#000000" font-family="sans-serif" font-size="13" lengthAdjust="spacingAndGlyphs" textLength="331" x="117.5" y="40.1997">adapter for multiple targets with correct setup data.</text><text fill="#000000" font-family="sans-serif" font-size="13" lengthAdjust="spacingAndGlyphs" textLength="0" x="121.5" y="55.3325"/><text fill="#000000" font-family="sans-serif" font-size="13" lengthAdjust="spacingAndGlyphs" textLength="325" x="117.5" y="70.4653">E.g.a netsparker product executor uses its injected</text><text fill="#000000" font-family="sans-serif" font-size="13" lengthAdjust="spacingAndGlyphs" textLength="331" x="117.5" y="85.5981">NetsparkerInstallationSetup and differs Intranet and</text><text fill="#000000" font-family="sans-serif" font-size="13" lengthAdjust="spacingAndGlyphs" textLength="211" x="117.5" y="100.731">Intranet by different agentgroups</text><polygon fill="#FBFB77" filter="url(#fgztesy)" points="790,31,790,86.3984,1120,86.3984,1120,41,1110,31,790,31" style="stroke: #A80036; stroke-width: 1.0;"/><polygon fill="#FBFB77" points="790,31,790,86.3984,951,86.3984,955,169.8998,959,86.3984,1120,86.3984,1120,41,1110,31,790,31" style="stroke: #A80036; stroke-width: 1.0;"/><line style="stroke: #A80036; stroke-width: 1.0;" x1="1110" x2="1110" y1="31" y2="41"/><line style="stroke: #A80036; stroke-width: 1.0;" x1="1120" x2="1110" y1="41" y2="41"/><text fill="#000000" font-family="sans-serif" font-size="13" lengthAdjust="spacingAndGlyphs" textLength="305" x="796" y="48.0669">The install setup contains the information about</text><text fill="#000000" font-family="sans-serif" font-size="13" lengthAdjust="spacingAndGlyphs" textLength="276" x="796" y="63.1997">servers, usernames, passwords etc. for the</text><text fill="#000000" font-family="sans-serif" font-size="13" lengthAdjust="spacingAndGlyphs" textLength="130" x="796" y="78.3325">calling of the adaper</text><path d="M574.495,99.6558 C560.6091,122.0626 543.7189,149.3173 530.9999,169.8411 " fill="none" style="stroke: #A80036; stroke-width: 1.0;"/><polygon fill="none" points="568.5865,95.9012,585.072,82.5884,580.4867,103.276,568.5865,95.9012" style="stroke: #A80036; stroke-width: 1.0;"/><path d="M416.6639,235.7154 C353.8259,258.9267 273.3196,288.6643 218.5143,308.9084 " fill="none" style="stroke: #A80036; stroke-width: 1.0;"/><polygon fill="#FFFFFF" points="428.9831,231.1649,421.9688,229.4917,417.7265,235.3229,424.7408,236.9961,428.9831,231.1649" style="stroke: #A80036; stroke-width: 1.0;"/><text fill="#000000" font-family="sans-serif" font-size="13" lengthAdjust="spacingAndGlyphs" textLength="30" x="346" y="274.0669">uses</text><path d="M466.7636,240.1572 C441.5788,262.2359 411.0491,289.0003 389.4605,307.9263 " fill="none" style="stroke: #A80036; stroke-width: 1.0;"/><polygon fill="#FFFFFF" points="476.8317,231.3309,469.6831,232.2784,467.8083,239.2415,474.9569,238.294,476.8317,231.3309" style="stroke: #A80036; stroke-width: 1.0;"/><text fill="#000000" font-family="sans-serif" font-size="13" lengthAdjust="spacingAndGlyphs" textLength="30" x="443" y="274.0669">uses</text><path d="M505.1134,244.4606 C504.7676,255.6051 505.6485,267.4135 509,278 C512.3908,288.7104 518.7542,299.1341 525.3175,307.921 " fill="none" style="stroke: #A80036; stroke-width: 1.0;"/><polygon fill="#FFFFFF" points="506.06,231.3229,501.6391,237.0199,505.1976,243.2919,509.6184,237.5949,506.06,231.3229" style="stroke: #A80036; stroke-width: 1.0;"/><text fill="#000000" font-family="sans-serif" font-size="13" lengthAdjust="spacingAndGlyphs" textLength="231" x="510" y="274.0669">calls the adapter with created config</text><path d="M647.6234,200.5 C699.2655,200.5 758.2767,200.5 810.6952,200.5 " fill="none" style="stroke: #A80036; stroke-width: 1.0;"/><text fill="#000000" font-family="sans-serif" font-size="13" lengthAdjust="spacingAndGlyphs" textLength="123" x="665.75" y="178.5669">implementation will</text><text fill="#000000" font-family="sans-serif" font-size="13" lengthAdjust="spacingAndGlyphs" textLength="112" x="673.25" y="193.6997">have this injected</text><text fill="#000000" font-family="sans-serif" font-size="13" lengthAdjust="spacingAndGlyphs" textLength="8" x="655.6954" y="197.1428">1</text><text fill="#000000" font-family="sans-serif" font-size="13" lengthAdjust="spacingAndGlyphs" textLength="8" x="795.0482" y="197.1886">1</text><path d="M647.5675,216.0046 C668.5296,217.8729 689.9522,219.4787 710.25,220.5 C741.1689,222.0556 774.2397,221.1196 805.7539,218.9802 " fill="none" style="stroke: #A80036; stroke-width: 1.0;"/><polygon fill="#A80036" points="810.7978,218.6267,801.5401,215.266,805.81,218.9764,802.0996,223.2464,810.7978,218.6267" style="stroke: #A80036; stroke-width: 1.0;"/><text fill="#000000" font-family="sans-serif" font-size="13" lengthAdjust="spacingAndGlyphs" textLength="36" x="711.25" y="216.5669">reads</text><path d="M660.4921,223.9 C699.4509,233.2077 733.9746,245.4701 746,261 C758.4369,277.0614 744.1849,294.3656 726.3421,307.8695 " fill="none" style="stroke: #A80036; stroke-width: 1.0;"/><polygon fill="#A80036" points="647.7101,220.9814,652.6691,226.2167,659.409,223.6526,654.45,218.4174,647.7101,220.9814" style="stroke: #A80036; stroke-width: 1.0;"/><text fill="#000000" font-family="sans-serif" font-size="13" lengthAdjust="spacingAndGlyphs" textLength="110" x="752" y="274.0669">creates and uses</text><path d="M680.3655,369.0761 C677.9295,388.5643 674.9304,412.5571 672.3908,432.8738 " fill="none" style="stroke: #A80036; stroke-width: 1.0;"/><polygon fill="#A80036" points="681.9872,356.1024,677.2738,361.5599,680.4987,368.0097,685.212,362.5522,681.9872,356.1024" style="stroke: #A80036; stroke-width: 1.0;"/><text fill="#000000" font-family="sans-serif" font-size="13" lengthAdjust="spacingAndGlyphs" textLength="54" x="680" y="399.0669">contains</text><text fill="#000000" font-family="sans-serif" font-size="13" lengthAdjust="spacingAndGlyphs" textLength="8" x="672.2778" y="375.8886">1</text><text fill="#000000" font-family="sans-serif" font-size="13" lengthAdjust="spacingAndGlyphs" textLength="8" x="664.6125" y="421.8497">n</text><path d="M645.8337,356.1024 C613.0699,376.2647 565.4031,405.5981 525.4192,430.2036 " fill="none" style="stroke: #A80036; stroke-width: 1.0;"/><polygon fill="#A80036" points="521.0801,432.8738,530.8414,431.5636,525.3384,430.2534,526.6487,424.7503,521.0801,432.8738" style="stroke: #A80036; stroke-width: 1.0;"/><text fill="#000000" font-family="sans-serif" font-size="13" lengthAdjust="spacingAndGlyphs" textLength="54" x="597" y="399.0669">provides</text><path d="M218.5884,352.0746 C224.4369,353.5567 230.3052,354.8993 236,356 C381.0301,384.0309 431.6228,326.9029 567,386 C589.2892,395.7301 609.9903,412.4342 626.7077,428.8294 " fill="none" style="stroke: #A80036; stroke-width: 1.0;"/><polygon fill="#A80036" points="630.4313,432.5409,626.8807,423.3543,626.89,429.0112,621.2331,429.0204,630.4313,432.5409" style="stroke: #A80036; stroke-width: 1.0;"/><text fill="#000000" font-family="sans-serif" font-size="13" lengthAdjust="spacingAndGlyphs" textLength="48" x="198.017" y="374.4256">creates</text><path d="M667,532.3983 C667,547.7514 667,564.3782 667,579.7245 " fill="none" style="stroke: #A80036; stroke-width: 1.0;"/><polygon fill="#A80036" points="667,519.2983,663,525.2983,667,531.2983,671,525.2983,667,519.2983" style="stroke: #A80036; stroke-width: 1.0;"/><path d="M752.2446,517.5362 C803.0387,542.6592 859.6155,571.4443 870,580 C880.974,589.0414 890.9677,601.2603 898.6472,611.9774 " fill="none" style="stroke: #A80036; stroke-width: 1.0;"/><polygon fill="#A80036" points="740.5046,511.7433,744.1152,517.9854,751.2658,517.0532,747.6552,510.8112,740.5046,511.7433" style="stroke: #A80036; stroke-width: 1.0;"/><text fill="#000000" font-family="sans-serif" font-size="13" lengthAdjust="spacingAndGlyphs" textLength="8" x="748.4973" y="511.7083">1</text><text fill="#000000" font-family="sans-serif" font-size="13" lengthAdjust="spacingAndGlyphs" textLength="24" x="867.638" y="600.9836">0..1</text><path d="M712.3001,529.2942 C735.9369,557.1022 763.7072,589.7731 782.2335,611.5689 " fill="none" style="stroke: #A80036; stroke-width: 1.0;"/><polygon fill="#A80036" points="703.8036,519.2983,704.6418,526.4605,711.5754,528.4415,710.7373,521.2793,703.8036,519.2983" style="stroke: #A80036; stroke-width: 1.0;"/><text fill="#000000" font-family="sans-serif" font-size="13" lengthAdjust="spacingAndGlyphs" textLength="8" x="701.0317" y="539.4388">1</text><text fill="#000000" font-family="sans-serif" font-size="13" lengthAdjust="spacingAndGlyphs" textLength="24" x="750.2467" y="600.8688">0..1</text><path d="M647.6209,220.5434 C715.0377,231.2201 797.5897,245.3678 871,261 C934.3165,274.4828 1005.0172,292.81 1058.8755,307.4667 " fill="none" style="stroke: #A80036; stroke-width: 1.0;"/><polygon fill="#A80036" points="1063.7054,308.7835,1056.0746,302.5568,1058.8815,307.4682,1053.9701,310.2751,1063.7054,308.7835" style="stroke: #A80036; stroke-width: 1.0;"/><text fill="#000000" font-family="sans-serif" font-size="13" lengthAdjust="spacingAndGlyphs" textLength="36" x="941" y="274.0669">reads</text><path d="M1159.1917,368.5308 C1168.6211,394.6432 1181.0467,429.0524 1189.268,451.819 " fill="none" style="stroke: #A80036; stroke-width: 1.0;"/><polygon fill="#A80036" points="1154.7036,356.1024,1152.9793,363.1043,1158.7794,367.389,1160.5037,360.3871,1154.7036,356.1024" style="stroke: #A80036; stroke-width: 1.0;"/><path d="M1095.8653,363.1181 C1053.0162,389.7141 992.2338,427.4411 952.9583,451.819 " fill="none" style="stroke: #A80036; stroke-width: 1.0;"/><polygon fill="#A80036" points="1107.1684,356.1024,1099.9611,355.868,1096.9727,362.4308,1104.18,362.6651,1107.1684,356.1024" style="stroke: #A80036; stroke-width: 1.0;"/><path d="M1210.1507,361.608 C1268.0105,388.3126 1352.0519,427.1009 1405.8681,451.9391 " fill="none" style="stroke: #A80036; stroke-width: 1.0;"/><polygon fill="#A80036" points="1198.2218,356.1024,1201.9933,362.2486,1209.1173,361.1312,1205.3458,354.985,1198.2218,356.1024" style="stroke: #A80036; stroke-width: 1.0;"/><path d="M1143.8485,506.5079 C1082.8532,540.8714 986.2395,595.3017 940.1432,621.2715 " fill="none" style="stroke: #A80036; stroke-width: 1.0;"/><polygon fill="#A80036" points="1155.1748,500.1269,1147.9839,499.587,1144.7199,506.0171,1151.9107,506.557,1155.1748,500.1269" style="stroke: #A80036; stroke-width: 1.0;"/><text fill="#000000" font-family="sans-serif" font-size="13" lengthAdjust="spacingAndGlyphs" textLength="8" x="1135.7612" y="519.919">1</text><text fill="#000000" font-family="sans-serif" font-size="13" lengthAdjust="spacingAndGlyphs" textLength="8" x="947.8674" y="612.6594">n</text><path d="M914,513.3692 C914,543.8102 914,585.8844 914,611.995 " fill="none" style="stroke: #A80036; stroke-width: 1.0;"/><polygon fill="#A80036" points="914,500.3006,910,506.3006,914,512.3006,918,506.3006,914,500.3006" style="stroke: #A80036; stroke-width: 1.0;"/><text fill="#000000" font-family="sans-serif" font-size="13" lengthAdjust="spacingAndGlyphs" textLength="8" x="905.025" y="520.1351">1</text><text fill="#000000" font-family="sans-serif" font-size="13" lengthAdjust="spacingAndGlyphs" textLength="8" x="904.975" y="601.0058">n</text><path d="M889.4895,511.3304 C868.2771,541.9069 838.1757,585.2964 819.6535,611.995 " fill="none" style="stroke: #A80036; stroke-width: 1.0;"/><polygon fill="#A80036" points="897.1415,500.3006,890.4349,502.9504,890.3014,510.1602,897.008,507.5105,897.1415,500.3006" style="stroke: #A80036; stroke-width: 1.0;"/><text fill="#000000" font-family="sans-serif" font-size="13" lengthAdjust="spacingAndGlyphs" textLength="8" x="884.0572" y="520.1351">1</text><text fill="#000000" font-family="sans-serif" font-size="13" lengthAdjust="spacingAndGlyphs" textLength="8" x="814.896" y="601.0058">n</text></g></svg>