<?xml version="1.0" encoding="UTF-8" standalone="no"?><svg xmlns="http://www.w3.org/2000/svg" xmlns:xlink="http://www.w3.org/1999/xlink" contentScriptType="application/ecmascript" contentStyleType="text/css" height="689px" preserveAspectRatio="none" style="width:1057px;height:689px;" version="1.1" viewBox="0 0 1057 689" width="1057px" zoomAndPan="magnify"><defs><filter height="300%" id="f1jflmt8y2bdh0" width="300%" x="-1" y="-1"><feGaussianBlur result="blurOut" stdDeviation="2.0"/><feColorMatrix in="blurOut" result="blurOut2" type="matrix" values="0 0 0 0 0 0 0 0 0 0 0 0 0 0 0 0 0 0 .4 0"/><feOffset dx="4.0" dy="4.0" in="blurOut2" result="blurOut3"/><feBlend in="SourceGraphic" in2="blurOut3" mode="normal"/></filter></defs><g><!--cluster external--><rect fill="#FFFFFF" filter="url(#f1jflmt8y2bdh0)" height="542" style="stroke: #000000; stroke-width: 1.5;" width="544" x="502" y="24"/><path d="M577,25 L577,33.2969 L567,43.2969 L502,43.2969 " fill="none" style="stroke: #000000; stroke-width: 1.5;"/><text fill="#000000" font-family="sans-serif" font-size="14" font-weight="bold" lengthAdjust="spacingAndGlyphs" textLength="65" x="505" y="37.9951">external</text><!--cluster User--><rect fill="#FFFFFF" filter="url(#f1jflmt8y2bdh0)" height="205" style="stroke: #000000; stroke-width: 1.5;" width="233" x="565" y="67"/><path d="M612,68 L612,76.2969 L602,86.2969 L565,86.2969 " fill="none" style="stroke: #000000; stroke-width: 1.5;"/><text fill="#000000" font-family="sans-serif" font-size="14" font-weight="bold" lengthAdjust="spacingAndGlyphs" textLength="37" x="568" y="80.9951">User</text><!--cluster Project--><rect fill="#FFFFFF" filter="url(#f1jflmt8y2bdh0)" height="241" style="stroke: #000000; stroke-width: 1.5;" width="496" x="526" y="301"/><path d="M592,302 L592,310.2969 L582,320.2969 L526,320.2969 " fill="none" style="stroke: #000000; stroke-width: 1.5;"/><text fill="#000000" font-family="sans-serif" font-size="14" font-weight="bold" lengthAdjust="spacingAndGlyphs" textLength="56" x="529" y="314.9951">Project</text><!--cluster internal--><rect fill="#FFFFFF" filter="url(#f1jflmt8y2bdh0)" height="654" style="stroke: #000000; stroke-width: 1.5;" width="456" x="22" y="24"/><path d="M207,25 L207,33.2969 L197,43.2969 L22,43.2969 " fill="none" style="stroke: #000000; stroke-width: 1.5;"/><text fill="#000000" font-family="sans-serif" font-size="14" font-weight="bold" lengthAdjust="spacingAndGlyphs" textLength="175" x="25" y="37.9951">SecHub infrastructure</text><!--cluster backend--><rect fill="#FFFFFF" filter="url(#f1jflmt8y2bdh0)" height="103" style="stroke: #000000; stroke-width: 1.5;" width="207" x="54" y="304"/><path d="M201,305 L201,313.2969 L191,323.2969 L54,323.2969 " fill="none" style="stroke: #000000; stroke-width: 1.5;"/><text fill="#000000" font-family="sans-serif" font-size="14" font-weight="bold" lengthAdjust="spacingAndGlyphs" textLength="132" x="57" y="317.9951">SecHub backend</text><!--cluster products--><rect fill="#FFFFFF" filter="url(#f1jflmt8y2bdh0)" height="199" style="stroke: #000000; stroke-width: 1.5;" width="392" x="54" y="447"/><path d="M213,448 L213,456.2969 L203,466.2969 L54,466.2969 " fill="none" style="stroke: #000000; stroke-width: 1.5;"/><text fill="#000000" font-family="sans-serif" font-size="14" font-weight="bold" lengthAdjust="spacingAndGlyphs" textLength="149" x="57" y="460.9951">3rd party software</text><!--cluster Administration--><rect fill="#FFFFFF" filter="url(#f1jflmt8y2bdh0)" height="205" style="stroke: #000000; stroke-width: 1.5;" width="170" x="82" y="67"/><path d="M206,68 L206,76.2969 L196,86.2969 L82,86.2969 " fill="none" style="stroke: #000000; stroke-width: 1.5;"/><text fill="#000000" font-family="sans-serif" font-size="14" font-weight="bold" lengthAdjust="spacingAndGlyphs" textLength="114" x="85" y="80.9951">Administration</text><!--entity Client--><rect fill="#FEFECE" filter="url(#f1jflmt8y2bdh0)" height="36.2969" style="stroke: #A80036; stroke-width: 1.5;" width="117" x="583.5" y="220"/><rect fill="#FEFECE" height="5" style="stroke: #A80036; stroke-width: 1.5;" width="10" x="578.5" y="225"/><rect fill="#FEFECE" height="5" style="stroke: #A80036; stroke-width: 1.5;" width="10" x="578.5" y="246.2969"/><text fill="#000000" font-family="sans-serif" font-size="14" lengthAdjust="spacingAndGlyphs" textLength="97" x="593.5" y="242.9951">SecHub Client</text><!--entity Developer--><ellipse cx="739" cy="131" fill="#FEFECE" filter="url(#f1jflmt8y2bdh0)" rx="8" ry="8" style="stroke: #A80036; stroke-width: 2.0;"/><text fill="#000000" font-family="sans-serif" font-size="14" lengthAdjust="spacingAndGlyphs" textLength="71" x="703.5" y="160.9951">Developer</text><!--entity BuildTool--><ellipse cx="621" cy="131" fill="#FEFECE" filter="url(#f1jflmt8y2bdh0)" rx="8" ry="8" style="stroke: #A80036; stroke-width: 2.0;"/><text fill="#000000" font-family="sans-serif" font-size="14" lengthAdjust="spacingAndGlyphs" textLength="64" x="589" y="160.9951">BuildTool</text><!--entity website--><rect fill="#FEFECE" filter="url(#f1jflmt8y2bdh0)" height="36.2969" style="stroke: #A80036; stroke-width: 1.5;" width="125" x="542.5" y="490"/><rect fill="#FEFECE" height="5" style="stroke: #A80036; stroke-width: 1.5;" width="10" x="537.5" y="495"/><rect fill="#FEFECE" height="5" style="stroke: #A80036; stroke-width: 1.5;" width="10" x="537.5" y="516.2969"/><text fill="#000000" font-family="sans-serif" font-size="14" lengthAdjust="spacingAndGlyphs" textLength="105" x="552.5" y="512.9951">Target Website</text><!--entity code--><rect fill="#FEFECE" filter="url(#f1jflmt8y2bdh0)" height="36.2969" style="stroke: #A80036; stroke-width: 1.5;" width="106" x="703" y="490"/><rect fill="#FEFECE" height="5" style="stroke: #A80036; stroke-width: 1.5;" width="10" x="698" y="495"/><rect fill="#FEFECE" height="5" style="stroke: #A80036; stroke-width: 1.5;" width="10" x="698" y="516.2969"/><text fill="#000000" font-family="sans-serif" font-size="14" lengthAdjust="spacingAndGlyphs" textLength="86" x="713" y="512.9951">Target Code</text><!--entity infra--><rect fill="#FEFECE" filter="url(#f1jflmt8y2bdh0)" height="36.2969" style="stroke: #A80036; stroke-width: 1.5;" width="161" x="844.5" y="490"/><rect fill="#FEFECE" height="5" style="stroke: #A80036; stroke-width: 1.5;" width="10" x="839.5" y="495"/><rect fill="#FEFECE" height="5" style="stroke: #A80036; stroke-width: 1.5;" width="10" x="839.5" y="516.2969"/><text fill="#000000" font-family="sans-serif" font-size="14" lengthAdjust="spacingAndGlyphs" textLength="141" x="854.5" y="512.9951">Target Infrastructure</text><!--entity Owner--><ellipse cx="680" cy="365" fill="#FEFECE" filter="url(#f1jflmt8y2bdh0)" rx="8" ry="8" style="stroke: #A80036; stroke-width: 2.0;"/><text fill="#000000" font-family="sans-serif" font-size="14" lengthAdjust="spacingAndGlyphs" textLength="45" x="657.5" y="394.9951">Owner</text><!--entity Server--><rect fill="#FEFECE" filter="url(#f1jflmt8y2bdh0)" height="36.2969" style="stroke: #A80036; stroke-width: 1.5;" width="140" x="97" y="347"/><rect fill="#FEFECE" height="5" style="stroke: #A80036; stroke-width: 1.5;" width="10" x="92" y="352"/><rect fill="#FEFECE" height="5" style="stroke: #A80036; stroke-width: 1.5;" width="10" x="92" y="373.2969"/><text fill="#000000" font-family="sans-serif" font-size="14" lengthAdjust="spacingAndGlyphs" textLength="120" x="107" y="369.9951">SecHub Server(s)</text><!--entity infrascan--><rect fill="#FEFECE" filter="url(#f1jflmt8y2bdh0)" height="36.2969" style="stroke: #A80036; stroke-width: 1.5;" width="172" x="97" y="490"/><rect fill="#FEFECE" height="5" style="stroke: #A80036; stroke-width: 1.5;" width="10" x="92" y="495"/><rect fill="#FEFECE" height="5" style="stroke: #A80036; stroke-width: 1.5;" width="10" x="92" y="516.2969"/><text fill="#000000" font-family="sans-serif" font-size="14" lengthAdjust="spacingAndGlyphs" textLength="152" x="107" y="512.9951">Infrastructure scanner</text><!--entity codescan--><rect fill="#FEFECE" filter="url(#f1jflmt8y2bdh0)" height="36.2969" style="stroke: #A80036; stroke-width: 1.5;" width="117" x="304.5" y="490"/><rect fill="#FEFECE" height="5" style="stroke: #A80036; stroke-width: 1.5;" width="10" x="299.5" y="495"/><rect fill="#FEFECE" height="5" style="stroke: #A80036; stroke-width: 1.5;" width="10" x="299.5" y="516.2969"/><text fill="#000000" font-family="sans-serif" font-size="14" lengthAdjust="spacingAndGlyphs" textLength="97" x="314.5" y="512.9951">Code scanner</text><!--entity webscan--><rect fill="#FEFECE" filter="url(#f1jflmt8y2bdh0)" height="36.2969" style="stroke: #A80036; stroke-width: 1.5;" width="111" x="127.5" y="586"/><rect fill="#FEFECE" height="5" style="stroke: #A80036; stroke-width: 1.5;" width="10" x="122.5" y="591"/><rect fill="#FEFECE" height="5" style="stroke: #A80036; stroke-width: 1.5;" width="10" x="122.5" y="612.2969"/><text fill="#000000" font-family="sans-serif" font-size="14" lengthAdjust="spacingAndGlyphs" textLength="91" x="137.5" y="608.9951">Web scanner</text><!--entity more--><rect fill="#FEFECE" filter="url(#f1jflmt8y2bdh0)" height="36.2969" style="stroke: #A80036; stroke-width: 1.5;" width="32" x="274" y="586"/><rect fill="#FEFECE" height="5" style="stroke: #A80036; stroke-width: 1.5;" width="10" x="269" y="591"/><rect fill="#FEFECE" height="5" style="stroke: #A80036; stroke-width: 1.5;" width="10" x="269" y="612.2969"/><text fill="#000000" font-family="sans-serif" font-size="14" lengthAdjust="spacingAndGlyphs" textLength="12" x="284" y="608.9951">...</text><!--entity AdminUI--><rect fill="#FEFECE" filter="url(#f1jflmt8y2bdh0)" height="36.2969" style="stroke: #A80036; stroke-width: 1.5;" width="138" x="98" y="220"/><rect fill="#FEFECE" height="5" style="stroke: #A80036; stroke-width: 1.5;" width="10" x="93" y="225"/><rect fill="#FEFECE" height="5" style="stroke: #A80036; stroke-width: 1.5;" width="10" x="93" y="246.2969"/><text fill="#000000" font-family="sans-serif" font-size="14" lengthAdjust="spacingAndGlyphs" textLength="118" x="108" y="242.9951">SecHub Admin UI</text><!--entity Admin--><ellipse cx="167" cy="131" fill="#FEFECE" filter="url(#f1jflmt8y2bdh0)" rx="8" ry="8" style="stroke: #A80036; stroke-width: 2.0;"/><text fill="#000000" font-family="sans-serif" font-size="14" lengthAdjust="spacingAndGlyphs" textLength="43" x="145.5" y="160.9951">Admin</text><!--link Developer to Client--><path d="M731.39,140.24 C716.44,156.42 682.85,192.78 661.37,216.04 " fill="none" id="Developer-Client" style="stroke: #A80036; stroke-width: 1.0;"/><polygon fill="#A80036" points="657.77,219.93,666.8125,216.027,661.1602,216.2549,660.9323,210.6026,657.77,219.93" style="stroke: #A80036; stroke-width: 1.0;"/><!--link BuildTool to Client--><path d="M622.65,140.24 C625.83,156.15 632.92,191.59 637.57,214.87 " fill="none" id="BuildTool-Client" style="stroke: #A80036; stroke-width: 1.0;"/><polygon fill="#A80036" points="638.59,219.93,640.7634,210.324,637.6177,215.0255,632.9162,211.8797,638.59,219.93" style="stroke: #A80036; stroke-width: 1.0;"/><!--link Owner to website--><path d="M675.53,374.4 C663.55,396.93 630.5,459.06 614.26,489.6 " fill="none" id="Owner-website" style="stroke: #A80036; stroke-width: 1.0;"/><!--link Owner to code--><path d="M684.53,374.4 C696.67,396.93 730.16,459.06 746.62,489.6 " fill="none" id="Owner-code" style="stroke: #A80036; stroke-width: 1.0;"/><!--link Owner to infra--><path d="M689.33,369.22 C713.16,377.64 777.88,401.69 827,431 C856.21,448.43 886.7,473.3 905.75,489.78 " fill="none" id="Owner-infra" style="stroke: #A80036; stroke-width: 1.0;"/><!--link Admin to AdminUI--><path d="M167,140.24 C167,156.15 167,191.59 167,214.87 " fill="none" id="Admin-AdminUI" style="stroke: #A80036; stroke-width: 1.0;"/><polygon fill="#A80036" points="167,219.93,171,210.93,167,214.93,163,210.93,167,219.93" style="stroke: #A80036; stroke-width: 1.0;"/><!--link Client to Server--><path d="M583.28,254.45 C495.49,277.55 330.36,321.01 236.62,345.68 " fill="none" id="Client-Server" style="stroke: #A80036; stroke-width: 1.0;"/><polygon fill="#A80036" points="231.66,346.99,241.3807,348.5735,236.4961,345.7203,239.3493,340.8357,231.66,346.99" style="stroke: #A80036; stroke-width: 1.0;"/><!--link AdminUI to Server--><path d="M167,256.12 C167,278.34 167,317.17 167,341.68 " fill="none" id="AdminUI-Server" style="stroke: #A80036; stroke-width: 1.0;"/><polygon fill="#A80036" points="167,346.69,171,337.69,167,341.69,163,337.69,167,346.69" style="stroke: #A80036; stroke-width: 1.0;"/><!--link backend to products--><path d="M53.9529,380.1618 C53.9132,380.3329 53.8737,380.5052 53.8345,380.6787 C53.7561,381.0258 53.6787,381.3779 53.6023,381.7349 C53.4495,382.4489 53.3008,383.1824 53.156,383.9343 C52.8665,385.4382 52.5931,387.0159 52.3358,388.6594 C50.2772,401.8069 49.2481,419.1575 49.2488,436.5075 C49.2494,453.8575 50.2797,471.2069 52.3398,484.3519 C52.5974,485.995 52.871,487.5724 53.1607,489.076 C53.3055,489.8277 53.4544,490.561 53.6073,491.2748 C53.6837,491.6317 53.7612,491.9837 53.8397,492.3307 C53.8789,492.5042 53.9184,492.6765 53.9581,492.8475 " fill="none" id="backend-products" style="stroke: #A80036; stroke-width: 2.0;"/><polygon fill="#A80036" points="53.9581,492.8475,55.8172,483.1757,52.8264,487.9772,48.0248,484.9864,53.9581,492.8475" style="stroke: #A80036; stroke-width: 1.0;"/><!--link backend to products--><!--link Client to Owner--><!--link infrascan to codescan--><!--link infrascan to webscan--><!--link webscan to more--><!--
@startuml
frame external{
    frame "User" {
        [SecHub Client] as Client
        Developer - -> Client
        BuildTool - -> Client
    }

    frame "Project" {
        [Target Website] as website
        [Target Code] as code
        [Target Infrastructure] as infra

        Owner - - website
        Owner - - code
        Owner - - infra
    }

}

frame "SecHub infrastructure" as internal{

    frame "SecHub backend " as backend{
        [SecHub Server(s)] as Server

    }

    frame "3rd party software" as products{
        [Infrastructure scanner] as infrascan
        [Code scanner] as codescan
        [Web scanner] as webscan
        [...] as more
    }

    frame "Administration" {
        [SecHub Admin UI] as AdminUI
        Admin - -> AdminUI
    }
}

Client - -> Server
AdminUI - -> Server

backend => products


Client -[hidden]- Owner
backend -[hidden]- products


@enduml

PlantUML version 1.2018.13(Mon Nov 26 18:11:51 CET 2018)
(APACHE source distribution)
Java Runtime: OpenJDK Runtime Environment
JVM: OpenJDK 64-Bit Server VM
Java Version: 1.8.0_265-8u265-b01-0ubuntu2~20.04-b01
Operating System: Linux
OS Version: 5.4.0-48-generic
Default Encoding: UTF-8
Language: en
Country: US
--></g></svg>