<?xml version="1.0" encoding="UTF-8" standalone="no"?><svg xmlns="http://www.w3.org/2000/svg" xmlns:xlink="http://www.w3.org/1999/xlink" contentScriptType="application/ecmascript" contentStyleType="text/css" height="402px" preserveAspectRatio="none" style="width:894px;height:402px;" version="1.1" viewBox="0 0 894 402" width="894px" zoomAndPan="magnify"><defs/><g><line style="stroke: #A80036; stroke-width: 1.0; stroke-dasharray: 5.0,5.0;" x1="171" x2="171" y1="82.2969" y2="390.3594"/><line style="stroke: #A80036; stroke-width: 1.0; stroke-dasharray: 5.0,5.0;" x1="401" x2="401" y1="82.2969" y2="390.3594"/><line style="stroke: #A80036; stroke-width: 1.0; stroke-dasharray: 5.0,5.0;" x1="670.5" x2="670.5" y1="82.2969" y2="390.3594"/><line style="stroke: #A80036; stroke-width: 1.0; stroke-dasharray: 5.0,5.0;" x1="759.5" x2="759.5" y1="82.2969" y2="390.3594"/><line style="stroke: #A80036; stroke-width: 1.0; stroke-dasharray: 5.0,5.0;" x1="836.5" x2="836.5" y1="82.2969" y2="390.3594"/><text fill="#000000" font-family="sans-serif" font-size="14" lengthAdjust="spacingAndGlyphs" textLength="320" x="8" y="78.9951">UC_ADMIN_UNASSIGNS_USER_FROM_PROJECT</text><ellipse cx="171" cy="13" fill="#FEFECE" rx="8" ry="8" style="stroke: #A80036; stroke-width: 2.0;"/><path d="M171,21 L171,48 M158,29 L184,29 M171,48 L158,63 M171,48 L184,63 " fill="none" style="stroke: #A80036; stroke-width: 2.0;"/><rect fill="#FEFECE" height="30.2969" style="stroke: #A80036; stroke-width: 1.5;" width="111" x="348" y="47"/><rect fill="#FEFECE" height="30.2969" style="stroke: #A80036; stroke-width: 1.5;" width="111" x="344" y="51"/><text fill="#000000" font-family="sans-serif" font-size="14" lengthAdjust="spacingAndGlyphs" textLength="97" x="351" y="70.9951">administration</text><rect fill="#FEFECE" height="30.2969" style="stroke: #A80036; stroke-width: 1.5;" width="104" x="620.5" y="47"/><rect fill="#FEFECE" height="30.2969" style="stroke: #A80036; stroke-width: 1.5;" width="104" x="616.5" y="51"/><text fill="#000000" font-family="sans-serif" font-size="14" lengthAdjust="spacingAndGlyphs" textLength="90" x="623.5" y="70.9951">authorization</text><rect fill="#FEFECE" height="30.2969" style="stroke: #A80036; stroke-width: 1.5;" width="47" x="738.5" y="47"/><rect fill="#FEFECE" height="30.2969" style="stroke: #A80036; stroke-width: 1.5;" width="47" x="734.5" y="51"/><text fill="#000000" font-family="sans-serif" font-size="14" lengthAdjust="spacingAndGlyphs" textLength="33" x="741.5" y="70.9951">scan</text><rect fill="#FEFECE" height="30.2969" style="stroke: #A80036; stroke-width: 1.5;" width="78" x="799.5" y="47"/><rect fill="#FEFECE" height="30.2969" style="stroke: #A80036; stroke-width: 1.5;" width="78" x="795.5" y="51"/><text fill="#000000" font-family="sans-serif" font-size="14" lengthAdjust="spacingAndGlyphs" textLength="64" x="802.5" y="70.9951">schedule</text><rect fill="#EEEEEE" height="3" style="stroke: #EEEEEE; stroke-width: 1.0;" width="879.5" x="3" y="112.8633"/><line style="stroke: #000000; stroke-width: 1.0;" x1="3" x2="882.5" y1="112.8633" y2="112.8633"/><line style="stroke: #000000; stroke-width: 1.0;" x1="3" x2="882.5" y1="115.8633" y2="115.8633"/><rect fill="#EEEEEE" height="23.1328" style="stroke: #000000; stroke-width: 2.0;" width="28" x="428.75" y="102.2969"/><text fill="#000000" font-family="sans-serif" font-size="13" font-weight="bold" lengthAdjust="spacingAndGlyphs" textLength="9" x="434.75" y="118.3638">0</text><polygon fill="#A80036" points="389.5,152.5625,399.5,156.5625,389.5,160.5625" style="stroke: #A80036; stroke-width: 1.0;"/><line style="stroke: #A80036; stroke-width: 1.0;" x1="171" x2="395.5" y1="156.5625" y2="156.5625"/><text fill="#000000" font-family="sans-serif" font-size="13" lengthAdjust="spacingAndGlyphs" textLength="59" x="178" y="151.4966">executed</text><line style="stroke: #A80036; stroke-width: 1.0;" x1="834.5" x2="824.5" y1="185.6953" y2="181.6953"/><line style="stroke: #A80036; stroke-width: 1.0;" x1="834.5" x2="824.5" y1="185.6953" y2="189.6953"/><line style="stroke: #A80036; stroke-width: 1.0;" x1="401.5" x2="835.5" y1="185.6953" y2="185.6953"/><text fill="#000000" font-family="sans-serif" font-size="13" lengthAdjust="spacingAndGlyphs" textLength="209" x="408.5" y="180.6294">USER_REMOVED_FROM_PROJECT</text><line style="stroke: #A80036; stroke-width: 1.0;" x1="758" x2="748" y1="214.8281" y2="210.8281"/><line style="stroke: #A80036; stroke-width: 1.0;" x1="758" x2="748" y1="214.8281" y2="218.8281"/><line style="stroke: #A80036; stroke-width: 1.0;" x1="401.5" x2="759" y1="214.8281" y2="214.8281"/><text fill="#000000" font-family="sans-serif" font-size="13" lengthAdjust="spacingAndGlyphs" textLength="209" x="408.5" y="209.7622">USER_REMOVED_FROM_PROJECT</text><rect fill="#EEEEEE" height="3" style="stroke: #EEEEEE; stroke-width: 1.0;" width="879.5" x="3" y="243.3945"/><line style="stroke: #000000; stroke-width: 1.0;" x1="3" x2="882.5" y1="243.3945" y2="243.3945"/><line style="stroke: #000000; stroke-width: 1.0;" x1="3" x2="882.5" y1="246.3945" y2="246.3945"/><rect fill="#EEEEEE" height="23.1328" style="stroke: #000000; stroke-width: 2.0;" width="28" x="428.75" y="232.8281"/><text fill="#000000" font-family="sans-serif" font-size="13" font-weight="bold" lengthAdjust="spacingAndGlyphs" textLength="9" x="434.75" y="248.895">1</text><line style="stroke: #A80036; stroke-width: 1.0;" x1="401.5" x2="443.5" y1="287.0938" y2="287.0938"/><line style="stroke: #A80036; stroke-width: 1.0;" x1="443.5" x2="443.5" y1="287.0938" y2="300.0938"/><line style="stroke: #A80036; stroke-width: 1.0;" x1="402.5" x2="443.5" y1="300.0938" y2="300.0938"/><line style="stroke: #A80036; stroke-width: 1.0;" x1="402.5" x2="412.5" y1="300.0938" y2="296.0938"/><line style="stroke: #A80036; stroke-width: 1.0;" x1="402.5" x2="412.5" y1="300.0938" y2="304.0938"/><text fill="#000000" font-family="sans-serif" font-size="13" lengthAdjust="spacingAndGlyphs" textLength="255" x="408.5" y="282.0278">REQUEST_USER_ROLE_RECALCULATION</text><rect fill="#EEEEEE" height="3" style="stroke: #EEEEEE; stroke-width: 1.0;" width="879.5" x="3" y="328.6602"/><line style="stroke: #000000; stroke-width: 1.0;" x1="3" x2="882.5" y1="328.6602" y2="328.6602"/><line style="stroke: #000000; stroke-width: 1.0;" x1="3" x2="882.5" y1="331.6602" y2="331.6602"/><rect fill="#EEEEEE" height="23.1328" style="stroke: #000000; stroke-width: 2.0;" width="28" x="428.75" y="318.0938"/><text fill="#000000" font-family="sans-serif" font-size="13" font-weight="bold" lengthAdjust="spacingAndGlyphs" textLength="9" x="434.75" y="334.1606">2</text><line style="stroke: #A80036; stroke-width: 1.0;" x1="668.5" x2="658.5" y1="372.3594" y2="368.3594"/><line style="stroke: #A80036; stroke-width: 1.0;" x1="668.5" x2="658.5" y1="372.3594" y2="376.3594"/><line style="stroke: #A80036; stroke-width: 1.0;" x1="401.5" x2="669.5" y1="372.3594" y2="372.3594"/><text fill="#000000" font-family="sans-serif" font-size="13" lengthAdjust="spacingAndGlyphs" textLength="157" x="408.5" y="367.2935">USER_ROLES_CHANGED</text><!--
@startuml
skinparam style strictuml
actor UC_ADMIN_UNASSIGNS_USER_FROM_PROJECT
collections administration
collections authorization
collections scan
collections schedule
== 0 ==
UC_ADMIN_UNASSIGNS_USER_FROM_PROJECT -> administration: executed
administration ->> schedule : USER_REMOVED_FROM_PROJECT
administration ->> scan : USER_REMOVED_FROM_PROJECT
== 1 ==
administration ->> administration : REQUEST_USER_ROLE_RECALCULATION
== 2 ==
administration ->> authorization : USER_ROLES_CHANGED
@enduml

PlantUML version 1.2018.13(Mon Nov 26 18:11:51 CET 2018)
(APACHE source distribution)
Java Runtime: OpenJDK Runtime Environment
JVM: OpenJDK 64-Bit Server VM
Java Version: 1.8.0_265-8u265-b01-0ubuntu2~20.04-b01
Operating System: Linux
OS Version: 5.4.0-48-generic
Default Encoding: UTF-8
Language: en
Country: US
--></g></svg>