<?xml version="1.0" encoding="UTF-8" standalone="no"?><svg xmlns="http://www.w3.org/2000/svg" xmlns:xlink="http://www.w3.org/1999/xlink" contentScriptType="application/ecmascript" contentStyleType="text/css" height="638px" preserveAspectRatio="none" style="width:784px;height:638px;" version="1.1" viewBox="0 0 784 638" width="784px" zoomAndPan="magnify"><defs/><g><line style="stroke: #A80036; stroke-width: 1.0; stroke-dasharray: 5.0,5.0;" x1="126" x2="126" y1="82.2969" y2="637.2891"/><line style="stroke: #A80036; stroke-width: 1.0; stroke-dasharray: 5.0,5.0;" x1="312" x2="312" y1="82.2969" y2="637.2891"/><line style="stroke: #A80036; stroke-width: 1.0; stroke-dasharray: 5.0,5.0;" x1="426" x2="426" y1="82.2969" y2="637.2891"/><line style="stroke: #A80036; stroke-width: 1.0; stroke-dasharray: 5.0,5.0;" x1="508" x2="508" y1="82.2969" y2="637.2891"/><line style="stroke: #A80036; stroke-width: 1.0; stroke-dasharray: 5.0,5.0;" x1="737.5" x2="737.5" y1="82.2969" y2="637.2891"/><text fill="#000000" font-family="sans-serif" font-size="14" lengthAdjust="spacingAndGlyphs" textLength="231" x="8" y="78.9951">UC_ADMIN_RESTARTS_JOB_HARD</text><ellipse cx="126.5" cy="13" fill="#FEFECE" rx="8" ry="8" style="stroke: #A80036; stroke-width: 2.0;"/><path d="M126.5,21 L126.5,48 M113.5,29 L139.5,29 M126.5,48 L113.5,63 M126.5,48 L139.5,63 " fill="#FEFECE" style="stroke: #A80036; stroke-width: 2.0;"/><rect fill="#FEFECE" height="30.2969" style="stroke: #A80036; stroke-width: 1.5;" width="111" x="259" y="47"/><rect fill="#FEFECE" height="30.2969" style="stroke: #A80036; stroke-width: 1.5;" width="111" x="255" y="51"/><text fill="#000000" font-family="sans-serif" font-size="14" lengthAdjust="spacingAndGlyphs" textLength="97" x="262" y="70.9951">administration</text><rect fill="#FEFECE" height="30.2969" style="stroke: #A80036; stroke-width: 1.5;" width="89" x="384" y="47"/><rect fill="#FEFECE" height="30.2969" style="stroke: #A80036; stroke-width: 1.5;" width="89" x="380" y="51"/><text fill="#000000" font-family="sans-serif" font-size="14" lengthAdjust="spacingAndGlyphs" textLength="75" x="387" y="70.9951">notification</text><rect fill="#FEFECE" height="30.2969" style="stroke: #A80036; stroke-width: 1.5;" width="47" x="487" y="47"/><rect fill="#FEFECE" height="30.2969" style="stroke: #A80036; stroke-width: 1.5;" width="47" x="483" y="51"/><text fill="#000000" font-family="sans-serif" font-size="14" lengthAdjust="spacingAndGlyphs" textLength="33" x="490" y="70.9951">scan</text><rect fill="#FEFECE" height="30.2969" style="stroke: #A80036; stroke-width: 1.5;" width="78" x="700.5" y="47"/><rect fill="#FEFECE" height="30.2969" style="stroke: #A80036; stroke-width: 1.5;" width="78" x="696.5" y="51"/><text fill="#000000" font-family="sans-serif" font-size="14" lengthAdjust="spacingAndGlyphs" textLength="64" x="703.5" y="70.9951">schedule</text><rect fill="#EEEEEE" height="3" style="stroke: #EEEEEE; stroke-width: 1.0;" width="780.5" x="3" y="112.8633"/><line style="stroke: #000000; stroke-width: 1.0;" x1="3" x2="783.5" y1="112.8633" y2="112.8633"/><line style="stroke: #000000; stroke-width: 1.0;" x1="3" x2="783.5" y1="115.8633" y2="115.8633"/><rect fill="#EEEEEE" height="23.1328" style="stroke: #000000; stroke-width: 2.0;" width="28" x="379.25" y="102.2969"/><text fill="#000000" font-family="sans-serif" font-size="13" font-weight="bold" lengthAdjust="spacingAndGlyphs" textLength="9" x="385.25" y="118.3638">0</text><polygon fill="#A80036" points="300.5,152.4297,310.5,156.4297,300.5,160.4297" style="stroke: #A80036; stroke-width: 1.0;"/><line style="stroke: #A80036; stroke-width: 1.0;" x1="126.5" x2="306.5" y1="156.4297" y2="156.4297"/><text fill="#000000" font-family="sans-serif" font-size="13" lengthAdjust="spacingAndGlyphs" textLength="59" x="133.5" y="151.4966">executed</text><line style="stroke: #A80036; stroke-width: 1.0;" x1="735.5" x2="725.5" y1="185.5625" y2="181.5625"/><line style="stroke: #A80036; stroke-width: 1.0;" x1="735.5" x2="725.5" y1="185.5625" y2="189.5625"/><line style="stroke: #A80036; stroke-width: 1.0;" x1="312.5" x2="736.5" y1="185.5625" y2="185.5625"/><text fill="#000000" font-family="sans-serif" font-size="13" lengthAdjust="spacingAndGlyphs" textLength="196" x="319.5" y="180.6294">REQUEST_JOB_RESTART_HARD</text><rect fill="#EEEEEE" height="3" style="stroke: #EEEEEE; stroke-width: 1.0;" width="780.5" x="3" y="214.2617"/><line style="stroke: #000000; stroke-width: 1.0;" x1="3" x2="783.5" y1="214.2617" y2="214.2617"/><line style="stroke: #000000; stroke-width: 1.0;" x1="3" x2="783.5" y1="217.2617" y2="217.2617"/><rect fill="#EEEEEE" height="23.1328" style="stroke: #000000; stroke-width: 2.0;" width="28" x="379.25" y="203.6953"/><text fill="#000000" font-family="sans-serif" font-size="13" font-weight="bold" lengthAdjust="spacingAndGlyphs" textLength="9" x="385.25" y="219.7622">1</text><polygon fill="#A80036" points="519.5,253.8281,509.5,257.8281,519.5,261.8281" style="stroke: #A80036; stroke-width: 1.0;"/><line style="stroke: #A80036; stroke-width: 1.0;" x1="513.5" x2="736.5" y1="257.8281" y2="257.8281"/><text fill="#000000" font-family="sans-serif" font-size="13" lengthAdjust="spacingAndGlyphs" textLength="205" x="525.5" y="252.895">REQUEST_PURGE_JOB_RESULTS</text><rect fill="#EEEEEE" height="3" style="stroke: #EEEEEE; stroke-width: 1.0;" width="780.5" x="3" y="286.5273"/><line style="stroke: #000000; stroke-width: 1.0;" x1="3" x2="783.5" y1="286.5273" y2="286.5273"/><line style="stroke: #000000; stroke-width: 1.0;" x1="3" x2="783.5" y1="289.5273" y2="289.5273"/><rect fill="#EEEEEE" height="23.1328" style="stroke: #000000; stroke-width: 2.0;" width="28" x="379.25" y="275.9609"/><text fill="#000000" font-family="sans-serif" font-size="13" font-weight="bold" lengthAdjust="spacingAndGlyphs" textLength="9" x="385.25" y="292.0278">2</text><line style="stroke: #A80036; stroke-width: 1.0;" x1="426.5" x2="436.5" y1="330.0938" y2="326.0938"/><line style="stroke: #A80036; stroke-width: 1.0;" x1="426.5" x2="436.5" y1="330.0938" y2="334.0938"/><line style="stroke: #A80036; stroke-width: 1.0;" x1="426.5" x2="736.5" y1="330.0938" y2="330.0938"/><text fill="#000000" font-family="sans-serif" font-size="13" lengthAdjust="spacingAndGlyphs" textLength="164" x="443.5" y="325.1606">JOB_RESTART_TRIGGERED</text><rect fill="#EEEEEE" height="3" style="stroke: #EEEEEE; stroke-width: 1.0;" width="780.5" x="3" y="358.793"/><line style="stroke: #000000; stroke-width: 1.0;" x1="3" x2="783.5" y1="358.793" y2="358.793"/><line style="stroke: #000000; stroke-width: 1.0;" x1="3" x2="783.5" y1="361.793" y2="361.793"/><rect fill="#EEEEEE" height="23.1328" style="stroke: #000000; stroke-width: 2.0;" width="28" x="379.25" y="348.2266"/><text fill="#000000" font-family="sans-serif" font-size="13" font-weight="bold" lengthAdjust="spacingAndGlyphs" textLength="9" x="385.25" y="364.2935">3</text><line style="stroke: #A80036; stroke-width: 1.0;" x1="312.5" x2="322.5" y1="402.3594" y2="398.3594"/><line style="stroke: #A80036; stroke-width: 1.0;" x1="312.5" x2="322.5" y1="402.3594" y2="406.3594"/><line style="stroke: #A80036; stroke-width: 1.0;" x1="312.5" x2="736.5" y1="402.3594" y2="402.3594"/><text fill="#000000" font-family="sans-serif" font-size="13" lengthAdjust="spacingAndGlyphs" textLength="87" x="329.5" y="397.4263">JOB_STARTED</text><rect fill="#EEEEEE" height="3" style="stroke: #EEEEEE; stroke-width: 1.0;" width="780.5" x="3" y="431.0586"/><line style="stroke: #000000; stroke-width: 1.0;" x1="3" x2="783.5" y1="431.0586" y2="431.0586"/><line style="stroke: #000000; stroke-width: 1.0;" x1="3" x2="783.5" y1="434.0586" y2="434.0586"/><rect fill="#EEEEEE" height="23.1328" style="stroke: #000000; stroke-width: 2.0;" width="28" x="379.25" y="420.4922"/><text fill="#000000" font-family="sans-serif" font-size="13" font-weight="bold" lengthAdjust="spacingAndGlyphs" textLength="9" x="385.25" y="436.5591">4</text><polygon fill="#A80036" points="519.5,470.625,509.5,474.625,519.5,478.625" style="stroke: #A80036; stroke-width: 1.0;"/><line style="stroke: #A80036; stroke-width: 1.0;" x1="513.5" x2="736.5" y1="474.625" y2="474.625"/><text fill="#000000" font-family="sans-serif" font-size="13" lengthAdjust="spacingAndGlyphs" textLength="84" x="525.5" y="469.6919">START_SCAN</text><rect fill="#EEEEEE" height="3" style="stroke: #EEEEEE; stroke-width: 1.0;" width="780.5" x="3" y="503.3242"/><line style="stroke: #000000; stroke-width: 1.0;" x1="3" x2="783.5" y1="503.3242" y2="503.3242"/><line style="stroke: #000000; stroke-width: 1.0;" x1="3" x2="783.5" y1="506.3242" y2="506.3242"/><rect fill="#EEEEEE" height="23.1328" style="stroke: #000000; stroke-width: 2.0;" width="28" x="379.25" y="492.7578"/><text fill="#000000" font-family="sans-serif" font-size="13" font-weight="bold" lengthAdjust="spacingAndGlyphs" textLength="9" x="385.25" y="508.8247">5</text><polygon fill="#A80036" points="725.5,542.8906,735.5,546.8906,725.5,550.8906" style="stroke: #A80036; stroke-width: 1.0;"/><line style="stroke: #A80036; stroke-width: 1.0;" x1="508.5" x2="731.5" y1="546.8906" y2="546.8906"/><text fill="#000000" font-family="sans-serif" font-size="13" lengthAdjust="spacingAndGlyphs" textLength="198" x="515.5" y="541.9575">REQUEST_BATCH_JOB_STATUS</text><rect fill="#EEEEEE" height="3" style="stroke: #EEEEEE; stroke-width: 1.0;" width="780.5" x="3" y="575.5898"/><line style="stroke: #000000; stroke-width: 1.0;" x1="3" x2="783.5" y1="575.5898" y2="575.5898"/><line style="stroke: #000000; stroke-width: 1.0;" x1="3" x2="783.5" y1="578.5898" y2="578.5898"/><rect fill="#EEEEEE" height="23.1328" style="stroke: #000000; stroke-width: 2.0;" width="28" x="379.25" y="565.0234"/><text fill="#000000" font-family="sans-serif" font-size="13" font-weight="bold" lengthAdjust="spacingAndGlyphs" textLength="9" x="385.25" y="581.0903">6</text><line style="stroke: #A80036; stroke-width: 1.0;" x1="312.5" x2="322.5" y1="619.1563" y2="615.1563"/><line style="stroke: #A80036; stroke-width: 1.0;" x1="312.5" x2="322.5" y1="619.1563" y2="623.1563"/><line style="stroke: #A80036; stroke-width: 1.0;" x1="312.5" x2="736.5" y1="619.1563" y2="619.1563"/><text fill="#000000" font-family="sans-serif" font-size="13" lengthAdjust="spacingAndGlyphs" textLength="67" x="329.5" y="614.2231">JOB_DONE</text></g></svg>