<?xml version="1.0" encoding="UTF-8" standalone="no"?><svg xmlns="http://www.w3.org/2000/svg" xmlns:xlink="http://www.w3.org/1999/xlink" contentScriptType="application/ecmascript" contentStyleType="text/css" height="287px" preserveAspectRatio="none" style="width:670px;height:287px;" version="1.1" viewBox="0 0 670 287" width="670px" zoomAndPan="magnify"><defs/><g><line style="stroke: #A80036; stroke-width: 1.0; stroke-dasharray: 5.0,5.0;" x1="126" x2="126" y1="82.2969" y2="275.9609"/><line style="stroke: #A80036; stroke-width: 1.0; stroke-dasharray: 5.0,5.0;" x1="312" x2="312" y1="82.2969" y2="275.9609"/><line style="stroke: #A80036; stroke-width: 1.0; stroke-dasharray: 5.0,5.0;" x1="426" x2="426" y1="82.2969" y2="275.9609"/><line style="stroke: #A80036; stroke-width: 1.0; stroke-dasharray: 5.0,5.0;" x1="612.5" x2="612.5" y1="82.2969" y2="275.9609"/><text fill="#000000" font-family="sans-serif" font-size="14" lengthAdjust="spacingAndGlyphs" textLength="231" x="8" y="78.9951">UC_ADMIN_RESTARTS_JOB_HARD</text><ellipse cx="126.5" cy="13" fill="#FEFECE" rx="8" ry="8" style="stroke: #A80036; stroke-width: 2.0;"/><path d="M126.5,21 L126.5,48 M113.5,29 L139.5,29 M126.5,48 L113.5,63 M126.5,48 L139.5,63 " fill="none" style="stroke: #A80036; stroke-width: 2.0;"/><rect fill="#FEFECE" height="30.2969" style="stroke: #A80036; stroke-width: 1.5;" width="111" x="259" y="47"/><rect fill="#FEFECE" height="30.2969" style="stroke: #A80036; stroke-width: 1.5;" width="111" x="255" y="51"/><text fill="#000000" font-family="sans-serif" font-size="14" lengthAdjust="spacingAndGlyphs" textLength="97" x="262" y="70.9951">administration</text><rect fill="#FEFECE" height="30.2969" style="stroke: #A80036; stroke-width: 1.5;" width="89" x="384" y="47"/><rect fill="#FEFECE" height="30.2969" style="stroke: #A80036; stroke-width: 1.5;" width="89" x="380" y="51"/><text fill="#000000" font-family="sans-serif" font-size="14" lengthAdjust="spacingAndGlyphs" textLength="75" x="387" y="70.9951">notification</text><rect fill="#FEFECE" height="30.2969" style="stroke: #A80036; stroke-width: 1.5;" width="78" x="575.5" y="47"/><rect fill="#FEFECE" height="30.2969" style="stroke: #A80036; stroke-width: 1.5;" width="78" x="571.5" y="51"/><text fill="#000000" font-family="sans-serif" font-size="14" lengthAdjust="spacingAndGlyphs" textLength="64" x="578.5" y="70.9951">schedule</text><rect fill="#EEEEEE" height="3" style="stroke: #EEEEEE; stroke-width: 1.0;" width="655.5" x="3" y="112.8633"/><line style="stroke: #000000; stroke-width: 1.0;" x1="3" x2="658.5" y1="112.8633" y2="112.8633"/><line style="stroke: #000000; stroke-width: 1.0;" x1="3" x2="658.5" y1="115.8633" y2="115.8633"/><rect fill="#EEEEEE" height="23.1328" style="stroke: #000000; stroke-width: 2.0;" width="28" x="316.75" y="102.2969"/><text fill="#000000" font-family="sans-serif" font-size="13" font-weight="bold" lengthAdjust="spacingAndGlyphs" textLength="9" x="322.75" y="118.3638">0</text><polygon fill="#A80036" points="300.5,152.5625,310.5,156.5625,300.5,160.5625" style="stroke: #A80036; stroke-width: 1.0;"/><line style="stroke: #A80036; stroke-width: 1.0;" x1="126.5" x2="306.5" y1="156.5625" y2="156.5625"/><text fill="#000000" font-family="sans-serif" font-size="13" lengthAdjust="spacingAndGlyphs" textLength="59" x="133.5" y="151.4966">executed</text><line style="stroke: #A80036; stroke-width: 1.0;" x1="610.5" x2="600.5" y1="185.6953" y2="181.6953"/><line style="stroke: #A80036; stroke-width: 1.0;" x1="610.5" x2="600.5" y1="185.6953" y2="189.6953"/><line style="stroke: #A80036; stroke-width: 1.0;" x1="312.5" x2="611.5" y1="185.6953" y2="185.6953"/><text fill="#000000" font-family="sans-serif" font-size="13" lengthAdjust="spacingAndGlyphs" textLength="196" x="319.5" y="180.6294">REQUEST_JOB_RESTART_HARD</text><rect fill="#EEEEEE" height="3" style="stroke: #EEEEEE; stroke-width: 1.0;" width="655.5" x="3" y="214.2617"/><line style="stroke: #000000; stroke-width: 1.0;" x1="3" x2="658.5" y1="214.2617" y2="214.2617"/><line style="stroke: #000000; stroke-width: 1.0;" x1="3" x2="658.5" y1="217.2617" y2="217.2617"/><rect fill="#EEEEEE" height="23.1328" style="stroke: #000000; stroke-width: 2.0;" width="28" x="316.75" y="203.6953"/><text fill="#000000" font-family="sans-serif" font-size="13" font-weight="bold" lengthAdjust="spacingAndGlyphs" textLength="9" x="322.75" y="219.7622">1</text><line style="stroke: #A80036; stroke-width: 1.0;" x1="426.5" x2="436.5" y1="257.9609" y2="253.9609"/><line style="stroke: #A80036; stroke-width: 1.0;" x1="426.5" x2="436.5" y1="257.9609" y2="261.9609"/><line style="stroke: #A80036; stroke-width: 1.0;" x1="426.5" x2="611.5" y1="257.9609" y2="257.9609"/><text fill="#000000" font-family="sans-serif" font-size="13" lengthAdjust="spacingAndGlyphs" textLength="162" x="443.5" y="252.895">JOB_RESTART_CANCELED</text><!--
@startuml
skinparam style strictuml
actor UC_ADMIN_RESTARTS_JOB_HARD
collections administration
collections notification
collections schedule
== 0 ==
UC_ADMIN_RESTARTS_JOB_HARD -> administration: executed
administration ->> schedule : REQUEST_JOB_RESTART_HARD
== 1 ==
schedule ->> notification : JOB_RESTART_CANCELED
@enduml

PlantUML version 1.2018.13(Mon Nov 26 18:11:51 CET 2018)
(APACHE source distribution)
Java Runtime: OpenJDK Runtime Environment
JVM: OpenJDK 64-Bit Server VM
Java Version: 1.8.0_265-8u265-b01-0ubuntu2~20.04-b01
Operating System: Linux
OS Version: 5.4.0-48-generic
Default Encoding: UTF-8
Language: en
Country: US
--></g></svg>