<?xml version="1.0" encoding="UTF-8" standalone="no"?><svg xmlns="http://www.w3.org/2000/svg" xmlns:xlink="http://www.w3.org/1999/xlink" contentScriptType="application/ecmascript" contentStyleType="text/css" height="432px" preserveAspectRatio="none" style="width:737px;height:432px;" version="1.1" viewBox="0 0 737 432" width="737px" zoomAndPan="magnify"><defs/><g><line style="stroke: #A80036; stroke-width: 1.0; stroke-dasharray: 5.0,5.0;" x1="112" x2="112" y1="82.2969" y2="420.4922"/><line style="stroke: #A80036; stroke-width: 1.0; stroke-dasharray: 5.0,5.0;" x1="284" x2="284" y1="82.2969" y2="420.4922"/><line style="stroke: #A80036; stroke-width: 1.0; stroke-dasharray: 5.0,5.0;" x1="563.5" x2="563.5" y1="82.2969" y2="420.4922"/><line style="stroke: #A80036; stroke-width: 1.0; stroke-dasharray: 5.0,5.0;" x1="673.5" x2="673.5" y1="82.2969" y2="420.4922"/><text fill="#000000" font-family="sans-serif" font-size="14" lengthAdjust="spacingAndGlyphs" textLength="203" x="8" y="78.9951">UC_ADMIN_ACCEPTS_SIGNUP</text><ellipse cx="112.5" cy="13" fill="#FEFECE" rx="8" ry="8" style="stroke: #A80036; stroke-width: 2.0;"/><path d="M112.5,21 L112.5,48 M99.5,29 L125.5,29 M112.5,48 L99.5,63 M112.5,48 L125.5,63 " fill="none" style="stroke: #A80036; stroke-width: 2.0;"/><rect fill="#FEFECE" height="30.2969" style="stroke: #A80036; stroke-width: 1.5;" width="111" x="231" y="47"/><rect fill="#FEFECE" height="30.2969" style="stroke: #A80036; stroke-width: 1.5;" width="111" x="227" y="51"/><text fill="#000000" font-family="sans-serif" font-size="14" lengthAdjust="spacingAndGlyphs" textLength="97" x="234" y="70.9951">administration</text><rect fill="#FEFECE" height="30.2969" style="stroke: #A80036; stroke-width: 1.5;" width="104" x="513.5" y="47"/><rect fill="#FEFECE" height="30.2969" style="stroke: #A80036; stroke-width: 1.5;" width="104" x="509.5" y="51"/><text fill="#000000" font-family="sans-serif" font-size="14" lengthAdjust="spacingAndGlyphs" textLength="90" x="516.5" y="70.9951">authorization</text><rect fill="#FEFECE" height="30.2969" style="stroke: #A80036; stroke-width: 1.5;" width="89" x="631.5" y="47"/><rect fill="#FEFECE" height="30.2969" style="stroke: #A80036; stroke-width: 1.5;" width="89" x="627.5" y="51"/><text fill="#000000" font-family="sans-serif" font-size="14" lengthAdjust="spacingAndGlyphs" textLength="75" x="634.5" y="70.9951">notification</text><rect fill="#EEEEEE" height="3" style="stroke: #EEEEEE; stroke-width: 1.0;" width="722.5" x="3" y="112.8633"/><line style="stroke: #000000; stroke-width: 1.0;" x1="3" x2="725.5" y1="112.8633" y2="112.8633"/><line style="stroke: #000000; stroke-width: 1.0;" x1="3" x2="725.5" y1="115.8633" y2="115.8633"/><rect fill="#EEEEEE" height="23.1328" style="stroke: #000000; stroke-width: 2.0;" width="28" x="350.25" y="102.2969"/><text fill="#000000" font-family="sans-serif" font-size="13" font-weight="bold" lengthAdjust="spacingAndGlyphs" textLength="9" x="356.25" y="118.3638">0</text><polygon fill="#A80036" points="272.5,152.5625,282.5,156.5625,272.5,160.5625" style="stroke: #A80036; stroke-width: 1.0;"/><line style="stroke: #A80036; stroke-width: 1.0;" x1="112.5" x2="278.5" y1="156.5625" y2="156.5625"/><text fill="#000000" font-family="sans-serif" font-size="13" lengthAdjust="spacingAndGlyphs" textLength="59" x="119.5" y="151.4966">executed</text><line style="stroke: #A80036; stroke-width: 1.0;" x1="672" x2="662" y1="185.6953" y2="181.6953"/><line style="stroke: #A80036; stroke-width: 1.0;" x1="672" x2="662" y1="185.6953" y2="189.6953"/><line style="stroke: #A80036; stroke-width: 1.0;" x1="284.5" x2="673" y1="185.6953" y2="185.6953"/><text fill="#000000" font-family="sans-serif" font-size="13" lengthAdjust="spacingAndGlyphs" textLength="233" x="291.5" y="180.6294">USER_NEW_API_TOKEN_REQUESTED</text><rect fill="#EEEEEE" height="3" style="stroke: #EEEEEE; stroke-width: 1.0;" width="722.5" x="3" y="214.2617"/><line style="stroke: #000000; stroke-width: 1.0;" x1="3" x2="725.5" y1="214.2617" y2="214.2617"/><line style="stroke: #000000; stroke-width: 1.0;" x1="3" x2="725.5" y1="217.2617" y2="217.2617"/><rect fill="#EEEEEE" height="23.1328" style="stroke: #000000; stroke-width: 2.0;" width="28" x="350.25" y="203.6953"/><text fill="#000000" font-family="sans-serif" font-size="13" font-weight="bold" lengthAdjust="spacingAndGlyphs" textLength="9" x="356.25" y="219.7622">1</text><line style="stroke: #A80036; stroke-width: 1.0;" x1="561.5" x2="551.5" y1="257.9609" y2="253.9609"/><line style="stroke: #A80036; stroke-width: 1.0;" x1="561.5" x2="551.5" y1="257.9609" y2="261.9609"/><line style="stroke: #A80036; stroke-width: 1.0;" x1="284.5" x2="562.5" y1="257.9609" y2="257.9609"/><text fill="#000000" font-family="sans-serif" font-size="13" lengthAdjust="spacingAndGlyphs" textLength="101" x="291.5" y="252.895">USER_CREATED</text><rect fill="#EEEEEE" height="3" style="stroke: #EEEEEE; stroke-width: 1.0;" width="722.5" x="3" y="286.5273"/><line style="stroke: #000000; stroke-width: 1.0;" x1="3" x2="725.5" y1="286.5273" y2="286.5273"/><line style="stroke: #000000; stroke-width: 1.0;" x1="3" x2="725.5" y1="289.5273" y2="289.5273"/><rect fill="#EEEEEE" height="23.1328" style="stroke: #000000; stroke-width: 2.0;" width="28" x="350.25" y="275.9609"/><text fill="#000000" font-family="sans-serif" font-size="13" font-weight="bold" lengthAdjust="spacingAndGlyphs" textLength="9" x="356.25" y="292.0278">2</text><line style="stroke: #A80036; stroke-width: 1.0;" x1="284.5" x2="294.5" y1="330.2266" y2="326.2266"/><line style="stroke: #A80036; stroke-width: 1.0;" x1="284.5" x2="294.5" y1="330.2266" y2="334.2266"/><line style="stroke: #A80036; stroke-width: 1.0;" x1="284.5" x2="562.5" y1="330.2266" y2="330.2266"/><text fill="#000000" font-family="sans-serif" font-size="13" lengthAdjust="spacingAndGlyphs" textLength="255" x="301.5" y="325.1606">REQUEST_USER_ROLE_RECALCULATION</text><rect fill="#EEEEEE" height="3" style="stroke: #EEEEEE; stroke-width: 1.0;" width="722.5" x="3" y="358.793"/><line style="stroke: #000000; stroke-width: 1.0;" x1="3" x2="725.5" y1="358.793" y2="358.793"/><line style="stroke: #000000; stroke-width: 1.0;" x1="3" x2="725.5" y1="361.793" y2="361.793"/><rect fill="#EEEEEE" height="23.1328" style="stroke: #000000; stroke-width: 2.0;" width="28" x="350.25" y="348.2266"/><text fill="#000000" font-family="sans-serif" font-size="13" font-weight="bold" lengthAdjust="spacingAndGlyphs" textLength="9" x="356.25" y="364.2935">3</text><line style="stroke: #A80036; stroke-width: 1.0;" x1="561.5" x2="551.5" y1="402.4922" y2="398.4922"/><line style="stroke: #A80036; stroke-width: 1.0;" x1="561.5" x2="551.5" y1="402.4922" y2="406.4922"/><line style="stroke: #A80036; stroke-width: 1.0;" x1="284.5" x2="562.5" y1="402.4922" y2="402.4922"/><text fill="#000000" font-family="sans-serif" font-size="13" lengthAdjust="spacingAndGlyphs" textLength="157" x="291.5" y="397.4263">USER_ROLES_CHANGED</text><!--
@startuml
skinparam style strictuml
actor UC_ADMIN_ACCEPTS_SIGNUP
collections administration
collections authorization
collections notification
== 0 ==
UC_ADMIN_ACCEPTS_SIGNUP -> administration: executed
administration ->> notification : USER_NEW_API_TOKEN_REQUESTED
== 1 ==
administration ->> authorization : USER_CREATED
== 2 ==
authorization ->> administration : REQUEST_USER_ROLE_RECALCULATION
== 3 ==
administration ->> authorization : USER_ROLES_CHANGED
@enduml

PlantUML version 1.2018.13(Mon Nov 26 18:11:51 CET 2018)
(APACHE source distribution)
Java Runtime: OpenJDK Runtime Environment
JVM: OpenJDK 64-Bit Server VM
Java Version: 1.8.0_265-8u265-b01-0ubuntu2~20.04-b01
Operating System: Linux
OS Version: 5.4.0-48-generic
Default Encoding: UTF-8
Language: en
Country: US
--></g></svg>