<?xml version="1.0" encoding="UTF-8" standalone="no"?><svg xmlns="http://www.w3.org/2000/svg" xmlns:xlink="http://www.w3.org/1999/xlink" contentScriptType="application/ecmascript" contentStyleType="text/css" height="434px" preserveAspectRatio="none" style="width:731px;height:434px;" version="1.1" viewBox="0 0 731 434" width="731px" zoomAndPan="magnify"><defs/><g><line style="stroke: #A80036; stroke-width: 1.0; stroke-dasharray: 5.0,5.0;" x1="111" x2="111" y1="82.4883" y2="422.2832"/><line style="stroke: #A80036; stroke-width: 1.0; stroke-dasharray: 5.0,5.0;" x1="283" x2="283" y1="82.4883" y2="422.2832"/><line style="stroke: #A80036; stroke-width: 1.0; stroke-dasharray: 5.0,5.0;" x1="552.5" x2="552.5" y1="82.4883" y2="422.2832"/><line style="stroke: #A80036; stroke-width: 1.0; stroke-dasharray: 5.0,5.0;" x1="666.5" x2="666.5" y1="82.4883" y2="422.2832"/><text fill="#000000" font-family="sans-serif" font-size="14" lengthAdjust="spacingAndGlyphs" textLength="200" x="8" y="79.5352">UC_ADMIN_ACCEPTS_SIGNUP</text><ellipse cx="111" cy="13" fill="#FEFECE" rx="8" ry="8" style="stroke: #A80036; stroke-width: 2.0;"/><path d="M111,21 L111,48 M98,29 L124,29 M111,48 L98,63 M111,48 L124,63 " fill="none" style="stroke: #A80036; stroke-width: 2.0;"/><rect fill="#FEFECE" height="30.4883" style="stroke: #A80036; stroke-width: 1.5;" width="114" x="228" y="47"/><rect fill="#FEFECE" height="30.4883" style="stroke: #A80036; stroke-width: 1.5;" width="114" x="224" y="51"/><text fill="#000000" font-family="sans-serif" font-size="14" lengthAdjust="spacingAndGlyphs" textLength="100" x="231" y="71.5352">administration</text><rect fill="#FEFECE" height="30.4883" style="stroke: #A80036; stroke-width: 1.5;" width="107" x="501.5" y="47"/><rect fill="#FEFECE" height="30.4883" style="stroke: #A80036; stroke-width: 1.5;" width="107" x="497.5" y="51"/><text fill="#000000" font-family="sans-serif" font-size="14" lengthAdjust="spacingAndGlyphs" textLength="93" x="504.5" y="71.5352">authorization</text><rect fill="#FEFECE" height="30.4883" style="stroke: #A80036; stroke-width: 1.5;" width="92" x="622.5" y="47"/><rect fill="#FEFECE" height="30.4883" style="stroke: #A80036; stroke-width: 1.5;" width="92" x="618.5" y="51"/><text fill="#000000" font-family="sans-serif" font-size="14" lengthAdjust="spacingAndGlyphs" textLength="78" x="625.5" y="71.5352">notification</text><rect fill="#EEEEEE" height="3" style="stroke: #EEEEEE; stroke-width: 1.0;" width="716.5" x="3" y="113.1436"/><line style="stroke: #000000; stroke-width: 1.0;" x1="3" x2="719.5" y1="113.1436" y2="113.1436"/><line style="stroke: #000000; stroke-width: 1.0;" x1="3" x2="719.5" y1="116.1436" y2="116.1436"/><rect fill="#EEEEEE" height="23.3105" style="stroke: #000000; stroke-width: 2.0;" width="27" x="347.75" y="102.4883"/><text fill="#000000" font-family="sans-serif" font-size="13" font-weight="bold" lengthAdjust="spacingAndGlyphs" textLength="9" x="353.75" y="119.0566">0</text><polygon fill="#A80036" points="271,153.1094,281,157.1094,271,161.1094" style="stroke: #A80036; stroke-width: 1.0;"/><line style="stroke: #A80036; stroke-width: 1.0;" x1="111" x2="277" y1="157.1094" y2="157.1094"/><text fill="#000000" font-family="sans-serif" font-size="13" lengthAdjust="spacingAndGlyphs" textLength="57" x="118" y="152.3672">executed</text><line style="stroke: #A80036; stroke-width: 1.0;" x1="664.5" x2="654.5" y1="186.4199" y2="182.4199"/><line style="stroke: #A80036; stroke-width: 1.0;" x1="664.5" x2="654.5" y1="186.4199" y2="190.4199"/><line style="stroke: #A80036; stroke-width: 1.0;" x1="283" x2="665.5" y1="186.4199" y2="186.4199"/><text fill="#000000" font-family="sans-serif" font-size="13" lengthAdjust="spacingAndGlyphs" textLength="223" x="290" y="181.6777">USER_NEW_API_TOKEN_REQUESTED</text><rect fill="#EEEEEE" height="3" style="stroke: #EEEEEE; stroke-width: 1.0;" width="716.5" x="3" y="215.0752"/><line style="stroke: #000000; stroke-width: 1.0;" x1="3" x2="719.5" y1="215.0752" y2="215.0752"/><line style="stroke: #000000; stroke-width: 1.0;" x1="3" x2="719.5" y1="218.0752" y2="218.0752"/><rect fill="#EEEEEE" height="23.3105" style="stroke: #000000; stroke-width: 2.0;" width="27" x="347.75" y="204.4199"/><text fill="#000000" font-family="sans-serif" font-size="13" font-weight="bold" lengthAdjust="spacingAndGlyphs" textLength="9" x="353.75" y="220.9883">1</text><line style="stroke: #A80036; stroke-width: 1.0;" x1="551" x2="541" y1="259.041" y2="255.041"/><line style="stroke: #A80036; stroke-width: 1.0;" x1="551" x2="541" y1="259.041" y2="263.041"/><line style="stroke: #A80036; stroke-width: 1.0;" x1="283" x2="552" y1="259.041" y2="259.041"/><text fill="#000000" font-family="sans-serif" font-size="13" lengthAdjust="spacingAndGlyphs" textLength="96" x="290" y="254.2988">USER_CREATED</text><rect fill="#EEEEEE" height="3" style="stroke: #EEEEEE; stroke-width: 1.0;" width="716.5" x="3" y="287.6963"/><line style="stroke: #000000; stroke-width: 1.0;" x1="3" x2="719.5" y1="287.6963" y2="287.6963"/><line style="stroke: #000000; stroke-width: 1.0;" x1="3" x2="719.5" y1="290.6963" y2="290.6963"/><rect fill="#EEEEEE" height="23.3105" style="stroke: #000000; stroke-width: 2.0;" width="27" x="347.75" y="277.041"/><text fill="#000000" font-family="sans-serif" font-size="13" font-weight="bold" lengthAdjust="spacingAndGlyphs" textLength="9" x="353.75" y="293.6094">2</text><line style="stroke: #A80036; stroke-width: 1.0;" x1="283" x2="293" y1="331.6621" y2="327.6621"/><line style="stroke: #A80036; stroke-width: 1.0;" x1="283" x2="293" y1="331.6621" y2="335.6621"/><line style="stroke: #A80036; stroke-width: 1.0;" x1="283" x2="552" y1="331.6621" y2="331.6621"/><text fill="#000000" font-family="sans-serif" font-size="13" lengthAdjust="spacingAndGlyphs" textLength="246" x="300" y="326.9199">REQUEST_USER_ROLE_RECALCULATION</text><rect fill="#EEEEEE" height="3" style="stroke: #EEEEEE; stroke-width: 1.0;" width="716.5" x="3" y="360.3174"/><line style="stroke: #000000; stroke-width: 1.0;" x1="3" x2="719.5" y1="360.3174" y2="360.3174"/><line style="stroke: #000000; stroke-width: 1.0;" x1="3" x2="719.5" y1="363.3174" y2="363.3174"/><rect fill="#EEEEEE" height="23.3105" style="stroke: #000000; stroke-width: 2.0;" width="27" x="347.75" y="349.6621"/><text fill="#000000" font-family="sans-serif" font-size="13" font-weight="bold" lengthAdjust="spacingAndGlyphs" textLength="9" x="353.75" y="366.2305">3</text><line style="stroke: #A80036; stroke-width: 1.0;" x1="551" x2="541" y1="404.2832" y2="400.2832"/><line style="stroke: #A80036; stroke-width: 1.0;" x1="551" x2="541" y1="404.2832" y2="408.2832"/><line style="stroke: #A80036; stroke-width: 1.0;" x1="283" x2="552" y1="404.2832" y2="404.2832"/><text fill="#000000" font-family="sans-serif" font-size="13" lengthAdjust="spacingAndGlyphs" textLength="148" x="290" y="399.541">USER_ROLES_CHANGED</text><!--
@startuml
skinparam style strictuml
actor UC_ADMIN_ACCEPTS_SIGNUP
collections administration
collections authorization
collections notification
== 0 ==
UC_ADMIN_ACCEPTS_SIGNUP -> administration: executed
administration ->> notification : USER_NEW_API_TOKEN_REQUESTED
== 1 ==
administration ->> authorization : USER_CREATED
== 2 ==
authorization ->> administration : REQUEST_USER_ROLE_RECALCULATION
== 3 ==
administration ->> authorization : USER_ROLES_CHANGED
@enduml

PlantUML version 1.2018.13(Mon Nov 26 18:11:51 CET 2018)
(APACHE source distribution)
Java Runtime: OpenJDK Runtime Environment
JVM: OpenJDK 64-Bit Server VM
Java Version: 1.8.0_265-b01
Operating System: Mac OS X
OS Version: 10.15.7
Default Encoding: UTF-8
Language: de
Country: DE
--></g></svg>