<?xml version="1.0" encoding="UTF-8" standalone="no"?><svg xmlns="http://www.w3.org/2000/svg" xmlns:xlink="http://www.w3.org/1999/xlink" contentScriptType="application/ecmascript" contentStyleType="text/css" height="566px" preserveAspectRatio="none" style="width:730px;height:566px;" version="1.1" viewBox="0 0 730 566" width="730px" zoomAndPan="magnify"><defs/><g><line style="stroke: #A80036; stroke-width: 1.0; stroke-dasharray: 5.0,5.0;" x1="103" x2="103" y1="82.2969" y2="565.0234"/><line style="stroke: #A80036; stroke-width: 1.0; stroke-dasharray: 5.0,5.0;" x1="265" x2="265" y1="82.2969" y2="565.0234"/><line style="stroke: #A80036; stroke-width: 1.0; stroke-dasharray: 5.0,5.0;" x1="379" x2="379" y1="82.2969" y2="565.0234"/><line style="stroke: #A80036; stroke-width: 1.0; stroke-dasharray: 5.0,5.0;" x1="461" x2="461" y1="82.2969" y2="565.0234"/><line style="stroke: #A80036; stroke-width: 1.0; stroke-dasharray: 5.0,5.0;" x1="683.5" x2="683.5" y1="82.2969" y2="565.0234"/><text fill="#000000" font-family="sans-serif" font-size="14" lengthAdjust="spacingAndGlyphs" textLength="184" x="8" y="78.9951">UC_ADMIN_RESTARTS_JOB</text><ellipse cx="103" cy="13" fill="#FEFECE" rx="8" ry="8" style="stroke: #A80036; stroke-width: 2.0;"/><path d="M103,21 L103,48 M90,29 L116,29 M103,48 L90,63 M103,48 L116,63 " fill="#FEFECE" style="stroke: #A80036; stroke-width: 2.0;"/><rect fill="#FEFECE" height="30.2969" style="stroke: #A80036; stroke-width: 1.5;" width="111" x="212" y="47"/><rect fill="#FEFECE" height="30.2969" style="stroke: #A80036; stroke-width: 1.5;" width="111" x="208" y="51"/><text fill="#000000" font-family="sans-serif" font-size="14" lengthAdjust="spacingAndGlyphs" textLength="97" x="215" y="70.9951">administration</text><rect fill="#FEFECE" height="30.2969" style="stroke: #A80036; stroke-width: 1.5;" width="89" x="337" y="47"/><rect fill="#FEFECE" height="30.2969" style="stroke: #A80036; stroke-width: 1.5;" width="89" x="333" y="51"/><text fill="#000000" font-family="sans-serif" font-size="14" lengthAdjust="spacingAndGlyphs" textLength="75" x="340" y="70.9951">notification</text><rect fill="#FEFECE" height="30.2969" style="stroke: #A80036; stroke-width: 1.5;" width="47" x="440" y="47"/><rect fill="#FEFECE" height="30.2969" style="stroke: #A80036; stroke-width: 1.5;" width="47" x="436" y="51"/><text fill="#000000" font-family="sans-serif" font-size="14" lengthAdjust="spacingAndGlyphs" textLength="33" x="443" y="70.9951">scan</text><rect fill="#FEFECE" height="30.2969" style="stroke: #A80036; stroke-width: 1.5;" width="78" x="646.5" y="47"/><rect fill="#FEFECE" height="30.2969" style="stroke: #A80036; stroke-width: 1.5;" width="78" x="642.5" y="51"/><text fill="#000000" font-family="sans-serif" font-size="14" lengthAdjust="spacingAndGlyphs" textLength="64" x="649.5" y="70.9951">schedule</text><rect fill="#EEEEEE" height="3" style="stroke: #EEEEEE; stroke-width: 1.0;" width="726.5" x="3" y="112.8633"/><line style="stroke: #000000; stroke-width: 1.0;" x1="3" x2="729.5" y1="112.8633" y2="112.8633"/><line style="stroke: #000000; stroke-width: 1.0;" x1="3" x2="729.5" y1="115.8633" y2="115.8633"/><rect fill="#EEEEEE" height="23.1328" style="stroke: #000000; stroke-width: 2.0;" width="28" x="352.25" y="102.2969"/><text fill="#000000" font-family="sans-serif" font-size="13" font-weight="bold" lengthAdjust="spacingAndGlyphs" textLength="9" x="358.25" y="118.3638">0</text><polygon fill="#A80036" points="253.5,152.4297,263.5,156.4297,253.5,160.4297" style="stroke: #A80036; stroke-width: 1.0;"/><line style="stroke: #A80036; stroke-width: 1.0;" x1="103" x2="259.5" y1="156.4297" y2="156.4297"/><text fill="#000000" font-family="sans-serif" font-size="13" lengthAdjust="spacingAndGlyphs" textLength="59" x="110" y="151.4966">executed</text><line style="stroke: #A80036; stroke-width: 1.0;" x1="681.5" x2="671.5" y1="185.5625" y2="181.5625"/><line style="stroke: #A80036; stroke-width: 1.0;" x1="681.5" x2="671.5" y1="185.5625" y2="189.5625"/><line style="stroke: #A80036; stroke-width: 1.0;" x1="265.5" x2="682.5" y1="185.5625" y2="185.5625"/><text fill="#000000" font-family="sans-serif" font-size="13" lengthAdjust="spacingAndGlyphs" textLength="152" x="272.5" y="180.6294">REQUEST_JOB_RESTART</text><rect fill="#EEEEEE" height="3" style="stroke: #EEEEEE; stroke-width: 1.0;" width="726.5" x="3" y="214.2617"/><line style="stroke: #000000; stroke-width: 1.0;" x1="3" x2="729.5" y1="214.2617" y2="214.2617"/><line style="stroke: #000000; stroke-width: 1.0;" x1="3" x2="729.5" y1="217.2617" y2="217.2617"/><rect fill="#EEEEEE" height="23.1328" style="stroke: #000000; stroke-width: 2.0;" width="28" x="352.25" y="203.6953"/><text fill="#000000" font-family="sans-serif" font-size="13" font-weight="bold" lengthAdjust="spacingAndGlyphs" textLength="9" x="358.25" y="219.7622">1</text><line style="stroke: #A80036; stroke-width: 1.0;" x1="379.5" x2="389.5" y1="257.8281" y2="253.8281"/><line style="stroke: #A80036; stroke-width: 1.0;" x1="379.5" x2="389.5" y1="257.8281" y2="261.8281"/><line style="stroke: #A80036; stroke-width: 1.0;" x1="379.5" x2="682.5" y1="257.8281" y2="257.8281"/><text fill="#000000" font-family="sans-serif" font-size="13" lengthAdjust="spacingAndGlyphs" textLength="164" x="396.5" y="252.895">JOB_RESTART_TRIGGERED</text><rect fill="#EEEEEE" height="3" style="stroke: #EEEEEE; stroke-width: 1.0;" width="726.5" x="3" y="286.5273"/><line style="stroke: #000000; stroke-width: 1.0;" x1="3" x2="729.5" y1="286.5273" y2="286.5273"/><line style="stroke: #000000; stroke-width: 1.0;" x1="3" x2="729.5" y1="289.5273" y2="289.5273"/><rect fill="#EEEEEE" height="23.1328" style="stroke: #000000; stroke-width: 2.0;" width="28" x="352.25" y="275.9609"/><text fill="#000000" font-family="sans-serif" font-size="13" font-weight="bold" lengthAdjust="spacingAndGlyphs" textLength="9" x="358.25" y="292.0278">2</text><line style="stroke: #A80036; stroke-width: 1.0;" x1="265.5" x2="275.5" y1="330.0938" y2="326.0938"/><line style="stroke: #A80036; stroke-width: 1.0;" x1="265.5" x2="275.5" y1="330.0938" y2="334.0938"/><line style="stroke: #A80036; stroke-width: 1.0;" x1="265.5" x2="682.5" y1="330.0938" y2="330.0938"/><text fill="#000000" font-family="sans-serif" font-size="13" lengthAdjust="spacingAndGlyphs" textLength="87" x="282.5" y="325.1606">JOB_STARTED</text><rect fill="#EEEEEE" height="3" style="stroke: #EEEEEE; stroke-width: 1.0;" width="726.5" x="3" y="358.793"/><line style="stroke: #000000; stroke-width: 1.0;" x1="3" x2="729.5" y1="358.793" y2="358.793"/><line style="stroke: #000000; stroke-width: 1.0;" x1="3" x2="729.5" y1="361.793" y2="361.793"/><rect fill="#EEEEEE" height="23.1328" style="stroke: #000000; stroke-width: 2.0;" width="28" x="352.25" y="348.2266"/><text fill="#000000" font-family="sans-serif" font-size="13" font-weight="bold" lengthAdjust="spacingAndGlyphs" textLength="9" x="358.25" y="364.2935">3</text><polygon fill="#A80036" points="472.5,398.3594,462.5,402.3594,472.5,406.3594" style="stroke: #A80036; stroke-width: 1.0;"/><line style="stroke: #A80036; stroke-width: 1.0;" x1="466.5" x2="682.5" y1="402.3594" y2="402.3594"/><text fill="#000000" font-family="sans-serif" font-size="13" lengthAdjust="spacingAndGlyphs" textLength="84" x="478.5" y="397.4263">START_SCAN</text><rect fill="#EEEEEE" height="3" style="stroke: #EEEEEE; stroke-width: 1.0;" width="726.5" x="3" y="431.0586"/><line style="stroke: #000000; stroke-width: 1.0;" x1="3" x2="729.5" y1="431.0586" y2="431.0586"/><line style="stroke: #000000; stroke-width: 1.0;" x1="3" x2="729.5" y1="434.0586" y2="434.0586"/><rect fill="#EEEEEE" height="23.1328" style="stroke: #000000; stroke-width: 2.0;" width="28" x="352.25" y="420.4922"/><text fill="#000000" font-family="sans-serif" font-size="13" font-weight="bold" lengthAdjust="spacingAndGlyphs" textLength="9" x="358.25" y="436.5591">4</text><polygon fill="#A80036" points="671.5,470.625,681.5,474.625,671.5,478.625" style="stroke: #A80036; stroke-width: 1.0;"/><line style="stroke: #A80036; stroke-width: 1.0;" x1="461.5" x2="677.5" y1="474.625" y2="474.625"/><text fill="#000000" font-family="sans-serif" font-size="13" lengthAdjust="spacingAndGlyphs" textLength="198" x="468.5" y="469.6919">REQUEST_BATCH_JOB_STATUS</text><rect fill="#EEEEEE" height="3" style="stroke: #EEEEEE; stroke-width: 1.0;" width="726.5" x="3" y="503.3242"/><line style="stroke: #000000; stroke-width: 1.0;" x1="3" x2="729.5" y1="503.3242" y2="503.3242"/><line style="stroke: #000000; stroke-width: 1.0;" x1="3" x2="729.5" y1="506.3242" y2="506.3242"/><rect fill="#EEEEEE" height="23.1328" style="stroke: #000000; stroke-width: 2.0;" width="28" x="352.25" y="492.7578"/><text fill="#000000" font-family="sans-serif" font-size="13" font-weight="bold" lengthAdjust="spacingAndGlyphs" textLength="9" x="358.25" y="508.8247">5</text><line style="stroke: #A80036; stroke-width: 1.0;" x1="265.5" x2="275.5" y1="546.8906" y2="542.8906"/><line style="stroke: #A80036; stroke-width: 1.0;" x1="265.5" x2="275.5" y1="546.8906" y2="550.8906"/><line style="stroke: #A80036; stroke-width: 1.0;" x1="265.5" x2="682.5" y1="546.8906" y2="546.8906"/><text fill="#000000" font-family="sans-serif" font-size="13" lengthAdjust="spacingAndGlyphs" textLength="67" x="282.5" y="541.9575">JOB_DONE</text></g></svg>