<?xml version="1.0" encoding="UTF-8" standalone="no"?><svg xmlns="http://www.w3.org/2000/svg" xmlns:xlink="http://www.w3.org/1999/xlink" contentScriptType="application/ecmascript" contentStyleType="text/css" height="403px" preserveAspectRatio="none" style="width:876px;height:403px;" version="1.1" viewBox="0 0 876 403" width="876px" zoomAndPan="magnify"><defs/><g><line style="stroke: #A80036; stroke-width: 1.0; stroke-dasharray: 5.0,5.0;" x1="167" x2="167" y1="82.4883" y2="391.9727"/><line style="stroke: #A80036; stroke-width: 1.0; stroke-dasharray: 5.0,5.0;" x1="396" x2="396" y1="82.4883" y2="391.9727"/><line style="stroke: #A80036; stroke-width: 1.0; stroke-dasharray: 5.0,5.0;" x1="655.5" x2="655.5" y1="82.4883" y2="391.9727"/><line style="stroke: #A80036; stroke-width: 1.0; stroke-dasharray: 5.0,5.0;" x1="745.5" x2="745.5" y1="82.4883" y2="391.9727"/><line style="stroke: #A80036; stroke-width: 1.0; stroke-dasharray: 5.0,5.0;" x1="819.5" x2="819.5" y1="82.4883" y2="391.9727"/><text fill="#000000" font-family="sans-serif" font-size="14" lengthAdjust="spacingAndGlyphs" textLength="313" x="8" y="79.5352">UC_ADMIN_UNASSIGNS_USER_FROM_PROJECT</text><ellipse cx="167.5" cy="13" fill="#FEFECE" rx="8" ry="8" style="stroke: #A80036; stroke-width: 2.0;"/><path d="M167.5,21 L167.5,48 M154.5,29 L180.5,29 M167.5,48 L154.5,63 M167.5,48 L180.5,63 " fill="none" style="stroke: #A80036; stroke-width: 2.0;"/><rect fill="#FEFECE" height="30.4883" style="stroke: #A80036; stroke-width: 1.5;" width="114" x="341" y="47"/><rect fill="#FEFECE" height="30.4883" style="stroke: #A80036; stroke-width: 1.5;" width="114" x="337" y="51"/><text fill="#000000" font-family="sans-serif" font-size="14" lengthAdjust="spacingAndGlyphs" textLength="100" x="344" y="71.5352">administration</text><rect fill="#FEFECE" height="30.4883" style="stroke: #A80036; stroke-width: 1.5;" width="107" x="604.5" y="47"/><rect fill="#FEFECE" height="30.4883" style="stroke: #A80036; stroke-width: 1.5;" width="107" x="600.5" y="51"/><text fill="#000000" font-family="sans-serif" font-size="14" lengthAdjust="spacingAndGlyphs" textLength="93" x="607.5" y="71.5352">authorization</text><rect fill="#FEFECE" height="30.4883" style="stroke: #A80036; stroke-width: 1.5;" width="45" x="725.5" y="47"/><rect fill="#FEFECE" height="30.4883" style="stroke: #A80036; stroke-width: 1.5;" width="45" x="721.5" y="51"/><text fill="#000000" font-family="sans-serif" font-size="14" lengthAdjust="spacingAndGlyphs" textLength="31" x="728.5" y="71.5352">scan</text><rect fill="#FEFECE" height="30.4883" style="stroke: #A80036; stroke-width: 1.5;" width="75" x="784.5" y="47"/><rect fill="#FEFECE" height="30.4883" style="stroke: #A80036; stroke-width: 1.5;" width="75" x="780.5" y="51"/><text fill="#000000" font-family="sans-serif" font-size="14" lengthAdjust="spacingAndGlyphs" textLength="61" x="787.5" y="71.5352">schedule</text><rect fill="#EEEEEE" height="3" style="stroke: #EEEEEE; stroke-width: 1.0;" width="861.5" x="3" y="113.1436"/><line style="stroke: #000000; stroke-width: 1.0;" x1="3" x2="864.5" y1="113.1436" y2="113.1436"/><line style="stroke: #000000; stroke-width: 1.0;" x1="3" x2="864.5" y1="116.1436" y2="116.1436"/><rect fill="#EEEEEE" height="23.3105" style="stroke: #000000; stroke-width: 2.0;" width="27" x="420.25" y="102.4883"/><text fill="#000000" font-family="sans-serif" font-size="13" font-weight="bold" lengthAdjust="spacingAndGlyphs" textLength="9" x="426.25" y="119.0566">0</text><polygon fill="#A80036" points="384,153.1094,394,157.1094,384,161.1094" style="stroke: #A80036; stroke-width: 1.0;"/><line style="stroke: #A80036; stroke-width: 1.0;" x1="167.5" x2="390" y1="157.1094" y2="157.1094"/><text fill="#000000" font-family="sans-serif" font-size="13" lengthAdjust="spacingAndGlyphs" textLength="57" x="174.5" y="152.3672">executed</text><line style="stroke: #A80036; stroke-width: 1.0;" x1="744" x2="734" y1="186.4199" y2="182.4199"/><line style="stroke: #A80036; stroke-width: 1.0;" x1="744" x2="734" y1="186.4199" y2="190.4199"/><line style="stroke: #A80036; stroke-width: 1.0;" x1="396" x2="745" y1="186.4199" y2="186.4199"/><text fill="#000000" font-family="sans-serif" font-size="13" lengthAdjust="spacingAndGlyphs" textLength="202" x="403" y="181.6777">USER_REMOVED_FROM_PROJECT</text><line style="stroke: #A80036; stroke-width: 1.0;" x1="818" x2="808" y1="215.7305" y2="211.7305"/><line style="stroke: #A80036; stroke-width: 1.0;" x1="818" x2="808" y1="215.7305" y2="219.7305"/><line style="stroke: #A80036; stroke-width: 1.0;" x1="396" x2="819" y1="215.7305" y2="215.7305"/><text fill="#000000" font-family="sans-serif" font-size="13" lengthAdjust="spacingAndGlyphs" textLength="202" x="403" y="210.9883">USER_REMOVED_FROM_PROJECT</text><rect fill="#EEEEEE" height="3" style="stroke: #EEEEEE; stroke-width: 1.0;" width="861.5" x="3" y="244.3857"/><line style="stroke: #000000; stroke-width: 1.0;" x1="3" x2="864.5" y1="244.3857" y2="244.3857"/><line style="stroke: #000000; stroke-width: 1.0;" x1="3" x2="864.5" y1="247.3857" y2="247.3857"/><rect fill="#EEEEEE" height="23.3105" style="stroke: #000000; stroke-width: 2.0;" width="27" x="420.25" y="233.7305"/><text fill="#000000" font-family="sans-serif" font-size="13" font-weight="bold" lengthAdjust="spacingAndGlyphs" textLength="9" x="426.25" y="250.2988">1</text><line style="stroke: #A80036; stroke-width: 1.0;" x1="396" x2="438" y1="288.3516" y2="288.3516"/><line style="stroke: #A80036; stroke-width: 1.0;" x1="438" x2="438" y1="288.3516" y2="301.3516"/><line style="stroke: #A80036; stroke-width: 1.0;" x1="397" x2="438" y1="301.3516" y2="301.3516"/><line style="stroke: #A80036; stroke-width: 1.0;" x1="397" x2="407" y1="301.3516" y2="297.3516"/><line style="stroke: #A80036; stroke-width: 1.0;" x1="397" x2="407" y1="301.3516" y2="305.3516"/><text fill="#000000" font-family="sans-serif" font-size="13" lengthAdjust="spacingAndGlyphs" textLength="246" x="403" y="283.6094">REQUEST_USER_ROLE_RECALCULATION</text><rect fill="#EEEEEE" height="3" style="stroke: #EEEEEE; stroke-width: 1.0;" width="861.5" x="3" y="330.0068"/><line style="stroke: #000000; stroke-width: 1.0;" x1="3" x2="864.5" y1="330.0068" y2="330.0068"/><line style="stroke: #000000; stroke-width: 1.0;" x1="3" x2="864.5" y1="333.0068" y2="333.0068"/><rect fill="#EEEEEE" height="23.3105" style="stroke: #000000; stroke-width: 2.0;" width="27" x="420.25" y="319.3516"/><text fill="#000000" font-family="sans-serif" font-size="13" font-weight="bold" lengthAdjust="spacingAndGlyphs" textLength="9" x="426.25" y="335.9199">2</text><line style="stroke: #A80036; stroke-width: 1.0;" x1="654" x2="644" y1="373.9727" y2="369.9727"/><line style="stroke: #A80036; stroke-width: 1.0;" x1="654" x2="644" y1="373.9727" y2="377.9727"/><line style="stroke: #A80036; stroke-width: 1.0;" x1="396" x2="655" y1="373.9727" y2="373.9727"/><text fill="#000000" font-family="sans-serif" font-size="13" lengthAdjust="spacingAndGlyphs" textLength="148" x="403" y="369.2305">USER_ROLES_CHANGED</text><!--
@startuml
skinparam style strictuml
actor UC_ADMIN_UNASSIGNS_USER_FROM_PROJECT
collections administration
collections authorization
collections scan
collections schedule
== 0 ==
UC_ADMIN_UNASSIGNS_USER_FROM_PROJECT -> administration: executed
administration ->> scan : USER_REMOVED_FROM_PROJECT
administration ->> schedule : USER_REMOVED_FROM_PROJECT
== 1 ==
administration ->> administration : REQUEST_USER_ROLE_RECALCULATION
== 2 ==
administration ->> authorization : USER_ROLES_CHANGED
@enduml

PlantUML version 1.2018.13(Mon Nov 26 18:11:51 CET 2018)
(APACHE source distribution)
Java Runtime: OpenJDK Runtime Environment
JVM: OpenJDK 64-Bit Server VM
Java Version: 1.8.0_265-b01
Operating System: Mac OS X
OS Version: 10.15.7
Default Encoding: UTF-8
Language: de
Country: DE
--></g></svg>