<?xml version="1.0" encoding="UTF-8" standalone="no"?><svg xmlns="http://www.w3.org/2000/svg" xmlns:xlink="http://www.w3.org/1999/xlink" contentScriptType="application/ecmascript" contentStyleType="text/css" height="436px" preserveAspectRatio="none" style="width:509px;height:436px;" version="1.1" viewBox="0 0 509 436" width="509px" zoomAndPan="magnify"><defs><filter height="300%" id="fl6zhhf" width="300%" x="-1" y="-1"><feGaussianBlur result="blurOut" stdDeviation="2.0"/><feColorMatrix in="blurOut" result="blurOut2" type="matrix" values="0 0 0 0 0 0 0 0 0 0 0 0 0 0 0 0 0 0 .4 0"/><feOffset dx="4.0" dy="4.0" in="blurOut2" result="blurOut3"/><feBlend in="SourceGraphic" in2="blurOut3" mode="normal"/></filter></defs><g><line style="stroke: #A80036; stroke-width: 1.0; stroke-dasharray: 5.0,5.0;" x1="95" x2="95" y1="86.2969" y2="352.2266"/><line style="stroke: #A80036; stroke-width: 1.0; stroke-dasharray: 5.0,5.0;" x1="251" x2="251" y1="86.2969" y2="352.2266"/><line style="stroke: #A80036; stroke-width: 1.0; stroke-dasharray: 5.0,5.0;" x1="348" x2="348" y1="86.2969" y2="352.2266"/><line style="stroke: #A80036; stroke-width: 1.0; stroke-dasharray: 5.0,5.0;" x1="456.5" x2="456.5" y1="86.2969" y2="352.2266"/><text fill="#000000" font-family="sans-serif" font-size="14" lengthAdjust="spacingAndGlyphs" textLength="168" x="8" y="82.9951">UC_USER_CREATES_JOB</text><ellipse cx="95" cy="13" fill="#FEFECE" filter="url(#fl6zhhf)" rx="8" ry="8" style="stroke: #A80036; stroke-width: 2.0;"/><path d="M95,21 L95,48 M82,29 L108,29 M95,48 L82,63 M95,48 L108,63 " fill="#FEFECE" filter="url(#fl6zhhf)" style="stroke: #A80036; stroke-width: 2.0;"/><text fill="#000000" font-family="sans-serif" font-size="14" lengthAdjust="spacingAndGlyphs" textLength="168" x="8" y="364.2217">UC_USER_CREATES_JOB</text><ellipse cx="95" cy="377.5234" fill="#FEFECE" filter="url(#fl6zhhf)" rx="8" ry="8" style="stroke: #A80036; stroke-width: 2.0;"/><path d="M95,385.5234 L95,412.5234 M82,393.5234 L108,393.5234 M95,412.5234 L82,427.5234 M95,412.5234 L108,427.5234 " fill="#FEFECE" filter="url(#fl6zhhf)" style="stroke: #A80036; stroke-width: 2.0;"/><rect fill="#FEFECE" filter="url(#fl6zhhf)" height="30.2969" style="stroke: #A80036; stroke-width: 1.5;" width="111" x="196" y="47"/><rect fill="#FEFECE" filter="url(#fl6zhhf)" height="30.2969" style="stroke: #A80036; stroke-width: 1.5;" width="111" x="192" y="51"/><text fill="#000000" font-family="sans-serif" font-size="14" lengthAdjust="spacingAndGlyphs" textLength="97" x="199" y="70.9951">administration</text><rect fill="#FEFECE" filter="url(#fl6zhhf)" height="30.2969" style="stroke: #A80036; stroke-width: 1.5;" width="111" x="196" y="351.2266"/><rect fill="#FEFECE" filter="url(#fl6zhhf)" height="30.2969" style="stroke: #A80036; stroke-width: 1.5;" width="111" x="192" y="355.2266"/><text fill="#000000" font-family="sans-serif" font-size="14" lengthAdjust="spacingAndGlyphs" textLength="97" x="199" y="375.2217">administration</text><rect fill="#FEFECE" filter="url(#fl6zhhf)" height="30.2969" style="stroke: #A80036; stroke-width: 1.5;" width="47" x="325" y="47"/><rect fill="#FEFECE" filter="url(#fl6zhhf)" height="30.2969" style="stroke: #A80036; stroke-width: 1.5;" width="47" x="321" y="51"/><text fill="#000000" font-family="sans-serif" font-size="14" lengthAdjust="spacingAndGlyphs" textLength="33" x="328" y="70.9951">scan</text><rect fill="#FEFECE" filter="url(#fl6zhhf)" height="30.2969" style="stroke: #A80036; stroke-width: 1.5;" width="47" x="325" y="351.2266"/><rect fill="#FEFECE" filter="url(#fl6zhhf)" height="30.2969" style="stroke: #A80036; stroke-width: 1.5;" width="47" x="321" y="355.2266"/><text fill="#000000" font-family="sans-serif" font-size="14" lengthAdjust="spacingAndGlyphs" textLength="33" x="328" y="375.2217">scan</text><rect fill="#FEFECE" filter="url(#fl6zhhf)" height="30.2969" style="stroke: #A80036; stroke-width: 1.5;" width="78" x="417.5" y="47"/><rect fill="#FEFECE" filter="url(#fl6zhhf)" height="30.2969" style="stroke: #A80036; stroke-width: 1.5;" width="78" x="413.5" y="51"/><text fill="#000000" font-family="sans-serif" font-size="14" lengthAdjust="spacingAndGlyphs" textLength="64" x="420.5" y="70.9951">schedule</text><rect fill="#FEFECE" filter="url(#fl6zhhf)" height="30.2969" style="stroke: #A80036; stroke-width: 1.5;" width="78" x="417.5" y="351.2266"/><rect fill="#FEFECE" filter="url(#fl6zhhf)" height="30.2969" style="stroke: #A80036; stroke-width: 1.5;" width="78" x="413.5" y="355.2266"/><text fill="#000000" font-family="sans-serif" font-size="14" lengthAdjust="spacingAndGlyphs" textLength="64" x="420.5" y="375.2217">schedule</text><rect fill="#EEEEEE" filter="url(#fl6zhhf)" height="3" style="stroke: #EEEEEE; stroke-width: 1.0;" width="501.5" x="3" y="116.8633"/><line style="stroke: #000000; stroke-width: 1.0;" x1="3" x2="504.5" y1="116.8633" y2="116.8633"/><line style="stroke: #000000; stroke-width: 1.0;" x1="3" x2="504.5" y1="119.8633" y2="119.8633"/><rect fill="#EEEEEE" filter="url(#fl6zhhf)" height="23.1328" style="stroke: #000000; stroke-width: 2.0;" width="28" x="239.75" y="106.2969"/><text fill="#000000" font-family="sans-serif" font-size="13" font-weight="bold" lengthAdjust="spacingAndGlyphs" textLength="9" x="245.75" y="122.3638">0</text><polygon fill="#A80036" points="444.5,156.4297,454.5,160.4297,444.5,164.4297,448.5,160.4297" style="stroke: #A80036; stroke-width: 1.0;"/><line style="stroke: #A80036; stroke-width: 1.0;" x1="95" x2="450.5" y1="160.4297" y2="160.4297"/><text fill="#000000" font-family="sans-serif" font-size="13" lengthAdjust="spacingAndGlyphs" textLength="59" x="102" y="155.4966">executed</text><polygon fill="#A80036" points="262.5,185.5625,252.5,189.5625,262.5,193.5625,258.5,189.5625" style="stroke: #A80036; stroke-width: 1.0;"/><line style="stroke: #A80036; stroke-width: 1.0; stroke-dasharray: 2.0,2.0;" x1="256.5" x2="455.5" y1="189.5625" y2="189.5625"/><text fill="#000000" font-family="sans-serif" font-size="13" lengthAdjust="spacingAndGlyphs" textLength="87" x="268.5" y="184.6294">JOB_STARTED</text><rect fill="#EEEEEE" filter="url(#fl6zhhf)" height="3" style="stroke: #EEEEEE; stroke-width: 1.0;" width="501.5" x="3" y="218.2617"/><line style="stroke: #000000; stroke-width: 1.0;" x1="3" x2="504.5" y1="218.2617" y2="218.2617"/><line style="stroke: #000000; stroke-width: 1.0;" x1="3" x2="504.5" y1="221.2617" y2="221.2617"/><rect fill="#EEEEEE" filter="url(#fl6zhhf)" height="23.1328" style="stroke: #000000; stroke-width: 2.0;" width="28" x="239.75" y="207.6953"/><text fill="#000000" font-family="sans-serif" font-size="13" font-weight="bold" lengthAdjust="spacingAndGlyphs" textLength="9" x="245.75" y="223.7622">1</text><polygon fill="#A80036" points="359.5,257.8281,349.5,261.8281,359.5,265.8281,355.5,261.8281" style="stroke: #A80036; stroke-width: 1.0;"/><line style="stroke: #A80036; stroke-width: 1.0; stroke-dasharray: 2.0,2.0;" x1="353.5" x2="455.5" y1="261.8281" y2="261.8281"/><text fill="#000000" font-family="sans-serif" font-size="13" lengthAdjust="spacingAndGlyphs" textLength="84" x="365.5" y="256.895">START_SCAN</text><rect fill="#EEEEEE" filter="url(#fl6zhhf)" height="3" style="stroke: #EEEEEE; stroke-width: 1.0;" width="501.5" x="3" y="290.5273"/><line style="stroke: #000000; stroke-width: 1.0;" x1="3" x2="504.5" y1="290.5273" y2="290.5273"/><line style="stroke: #000000; stroke-width: 1.0;" x1="3" x2="504.5" y1="293.5273" y2="293.5273"/><rect fill="#EEEEEE" filter="url(#fl6zhhf)" height="23.1328" style="stroke: #000000; stroke-width: 2.0;" width="28" x="239.75" y="279.9609"/><text fill="#000000" font-family="sans-serif" font-size="13" font-weight="bold" lengthAdjust="spacingAndGlyphs" textLength="9" x="245.75" y="296.0278">2</text><polygon fill="#A80036" points="262.5,330.0938,252.5,334.0938,262.5,338.0938,258.5,334.0938" style="stroke: #A80036; stroke-width: 1.0;"/><line style="stroke: #A80036; stroke-width: 1.0; stroke-dasharray: 2.0,2.0;" x1="256.5" x2="455.5" y1="334.0938" y2="334.0938"/><text fill="#000000" font-family="sans-serif" font-size="13" lengthAdjust="spacingAndGlyphs" textLength="67" x="268.5" y="329.1606">JOB_DONE</text></g></svg>