<?xml version="1.0" encoding="UTF-8" standalone="no"?><svg xmlns="http://www.w3.org/2000/svg" xmlns:xlink="http://www.w3.org/1999/xlink" contentScriptType="application/ecmascript" contentStyleType="text/css" height="306px" preserveAspectRatio="none" style="width:904px;height:306px;" version="1.1" viewBox="0 0 904 306" width="904px" zoomAndPan="magnify"><defs/><g><line style="stroke: #A80036; stroke-width: 1.0; stroke-dasharray: 5.0,5.0;" x1="194" x2="194" y1="82.2969" y2="305.0938"/><line style="stroke: #A80036; stroke-width: 1.0; stroke-dasharray: 5.0,5.0;" x1="448" x2="448" y1="82.2969" y2="305.0938"/><line style="stroke: #A80036; stroke-width: 1.0; stroke-dasharray: 5.0,5.0;" x1="562" x2="562" y1="82.2969" y2="305.0938"/><line style="stroke: #A80036; stroke-width: 1.0; stroke-dasharray: 5.0,5.0;" x1="857.5" x2="857.5" y1="82.2969" y2="305.0938"/><text fill="#000000" font-family="sans-serif" font-size="14" lengthAdjust="spacingAndGlyphs" textLength="367" x="8" y="78.9951">UC_ADMIN_DISABLES_SCHEDULER_JOB_PROCESSING</text><ellipse cx="194.5" cy="13" fill="#FEFECE" rx="8" ry="8" style="stroke: #A80036; stroke-width: 2.0;"/><path d="M194.5,21 L194.5,48 M181.5,29 L207.5,29 M194.5,48 L181.5,63 M194.5,48 L207.5,63 " fill="#FEFECE" style="stroke: #A80036; stroke-width: 2.0;"/><rect fill="#FEFECE" height="30.2969" style="stroke: #A80036; stroke-width: 1.5;" width="111" x="395" y="47"/><rect fill="#FEFECE" height="30.2969" style="stroke: #A80036; stroke-width: 1.5;" width="111" x="391" y="51"/><text fill="#000000" font-family="sans-serif" font-size="14" lengthAdjust="spacingAndGlyphs" textLength="97" x="398" y="70.9951">administration</text><rect fill="#FEFECE" height="30.2969" style="stroke: #A80036; stroke-width: 1.5;" width="89" x="520" y="47"/><rect fill="#FEFECE" height="30.2969" style="stroke: #A80036; stroke-width: 1.5;" width="89" x="516" y="51"/><text fill="#000000" font-family="sans-serif" font-size="14" lengthAdjust="spacingAndGlyphs" textLength="75" x="523" y="70.9951">notification</text><rect fill="#FEFECE" height="30.2969" style="stroke: #A80036; stroke-width: 1.5;" width="78" x="820.5" y="47"/><rect fill="#FEFECE" height="30.2969" style="stroke: #A80036; stroke-width: 1.5;" width="78" x="816.5" y="51"/><text fill="#000000" font-family="sans-serif" font-size="14" lengthAdjust="spacingAndGlyphs" textLength="64" x="823.5" y="70.9951">schedule</text><rect fill="#EEEEEE" height="3" style="stroke: #EEEEEE; stroke-width: 1.0;" width="900.5" x="3" y="112.8633"/><line style="stroke: #000000; stroke-width: 1.0;" x1="3" x2="903.5" y1="112.8633" y2="112.8633"/><line style="stroke: #000000; stroke-width: 1.0;" x1="3" x2="903.5" y1="115.8633" y2="115.8633"/><rect fill="#EEEEEE" height="23.1328" style="stroke: #000000; stroke-width: 2.0;" width="28" x="439.25" y="102.2969"/><text fill="#000000" font-family="sans-serif" font-size="13" font-weight="bold" lengthAdjust="spacingAndGlyphs" textLength="9" x="445.25" y="118.3638">0</text><polygon fill="#A80036" points="436.5,152.4297,446.5,156.4297,436.5,160.4297" style="stroke: #A80036; stroke-width: 1.0;"/><line style="stroke: #A80036; stroke-width: 1.0;" x1="194.5" x2="442.5" y1="156.4297" y2="156.4297"/><text fill="#000000" font-family="sans-serif" font-size="13" lengthAdjust="spacingAndGlyphs" textLength="59" x="201.5" y="151.4966">executed</text><line style="stroke: #A80036; stroke-width: 1.0;" x1="855.5" x2="845.5" y1="185.5625" y2="181.5625"/><line style="stroke: #A80036; stroke-width: 1.0;" x1="855.5" x2="845.5" y1="185.5625" y2="189.5625"/><line style="stroke: #A80036; stroke-width: 1.0;" x1="448.5" x2="856.5" y1="185.5625" y2="185.5625"/><text fill="#000000" font-family="sans-serif" font-size="13" lengthAdjust="spacingAndGlyphs" textLength="328" x="455.5" y="180.6294">REQUEST_SCHEDULER_DISABLE_JOB_PROCESSING</text><rect fill="#EEEEEE" height="3" style="stroke: #EEEEEE; stroke-width: 1.0;" width="900.5" x="3" y="214.2617"/><line style="stroke: #000000; stroke-width: 1.0;" x1="3" x2="903.5" y1="214.2617" y2="214.2617"/><line style="stroke: #000000; stroke-width: 1.0;" x1="3" x2="903.5" y1="217.2617" y2="217.2617"/><rect fill="#EEEEEE" height="23.1328" style="stroke: #000000; stroke-width: 2.0;" width="28" x="439.25" y="203.6953"/><text fill="#000000" font-family="sans-serif" font-size="13" font-weight="bold" lengthAdjust="spacingAndGlyphs" textLength="9" x="445.25" y="219.7622">1</text><line style="stroke: #A80036; stroke-width: 1.0;" x1="448.5" x2="458.5" y1="257.8281" y2="253.8281"/><line style="stroke: #A80036; stroke-width: 1.0;" x1="448.5" x2="458.5" y1="257.8281" y2="261.8281"/><line style="stroke: #A80036; stroke-width: 1.0;" x1="448.5" x2="856.5" y1="257.8281" y2="257.8281"/><text fill="#000000" font-family="sans-serif" font-size="13" lengthAdjust="spacingAndGlyphs" textLength="271" x="465.5" y="252.895">SCHEDULER_JOB_PROCESSING_DISABLED</text><line style="stroke: #A80036; stroke-width: 1.0;" x1="562.5" x2="572.5" y1="286.9609" y2="282.9609"/><line style="stroke: #A80036; stroke-width: 1.0;" x1="562.5" x2="572.5" y1="286.9609" y2="290.9609"/><line style="stroke: #A80036; stroke-width: 1.0;" x1="562.5" x2="856.5" y1="286.9609" y2="286.9609"/><text fill="#000000" font-family="sans-serif" font-size="13" lengthAdjust="spacingAndGlyphs" textLength="271" x="579.5" y="282.0278">SCHEDULER_JOB_PROCESSING_DISABLED</text></g></svg>