<?xml version="1.0" encoding="UTF-8" standalone="no"?><svg xmlns="http://www.w3.org/2000/svg" xmlns:xlink="http://www.w3.org/1999/xlink" contentScriptType="application/ecmascript" contentStyleType="text/css" height="402px" preserveAspectRatio="none" style="width:853px;height:402px;" version="1.1" viewBox="0 0 853 402" width="853px" zoomAndPan="magnify"><defs/><g><line style="stroke: #A80036; stroke-width: 1.0; stroke-dasharray: 5.0,5.0;" x1="150" x2="150" y1="82.2969" y2="390.3594"/><line style="stroke: #A80036; stroke-width: 1.0; stroke-dasharray: 5.0,5.0;" x1="360" x2="360" y1="82.2969" y2="390.3594"/><line style="stroke: #A80036; stroke-width: 1.0; stroke-dasharray: 5.0,5.0;" x1="629.5" x2="629.5" y1="82.2969" y2="390.3594"/><line style="stroke: #A80036; stroke-width: 1.0; stroke-dasharray: 5.0,5.0;" x1="718.5" x2="718.5" y1="82.2969" y2="390.3594"/><line style="stroke: #A80036; stroke-width: 1.0; stroke-dasharray: 5.0,5.0;" x1="795.5" x2="795.5" y1="82.2969" y2="390.3594"/><text fill="#000000" font-family="sans-serif" font-size="14" lengthAdjust="spacingAndGlyphs" textLength="279" x="8" y="78.9951">UC_ADMIN_ASSIGNS_USER_TO_PROJECT</text><ellipse cx="150.5" cy="13" fill="#FEFECE" rx="8" ry="8" style="stroke: #A80036; stroke-width: 2.0;"/><path d="M150.5,21 L150.5,48 M137.5,29 L163.5,29 M150.5,48 L137.5,63 M150.5,48 L163.5,63 " fill="none" style="stroke: #A80036; stroke-width: 2.0;"/><rect fill="#FEFECE" height="30.2969" style="stroke: #A80036; stroke-width: 1.5;" width="111" x="307" y="47"/><rect fill="#FEFECE" height="30.2969" style="stroke: #A80036; stroke-width: 1.5;" width="111" x="303" y="51"/><text fill="#000000" font-family="sans-serif" font-size="14" lengthAdjust="spacingAndGlyphs" textLength="97" x="310" y="70.9951">administration</text><rect fill="#FEFECE" height="30.2969" style="stroke: #A80036; stroke-width: 1.5;" width="104" x="579.5" y="47"/><rect fill="#FEFECE" height="30.2969" style="stroke: #A80036; stroke-width: 1.5;" width="104" x="575.5" y="51"/><text fill="#000000" font-family="sans-serif" font-size="14" lengthAdjust="spacingAndGlyphs" textLength="90" x="582.5" y="70.9951">authorization</text><rect fill="#FEFECE" height="30.2969" style="stroke: #A80036; stroke-width: 1.5;" width="47" x="697.5" y="47"/><rect fill="#FEFECE" height="30.2969" style="stroke: #A80036; stroke-width: 1.5;" width="47" x="693.5" y="51"/><text fill="#000000" font-family="sans-serif" font-size="14" lengthAdjust="spacingAndGlyphs" textLength="33" x="700.5" y="70.9951">scan</text><rect fill="#FEFECE" height="30.2969" style="stroke: #A80036; stroke-width: 1.5;" width="78" x="758.5" y="47"/><rect fill="#FEFECE" height="30.2969" style="stroke: #A80036; stroke-width: 1.5;" width="78" x="754.5" y="51"/><text fill="#000000" font-family="sans-serif" font-size="14" lengthAdjust="spacingAndGlyphs" textLength="64" x="761.5" y="70.9951">schedule</text><rect fill="#EEEEEE" height="3" style="stroke: #EEEEEE; stroke-width: 1.0;" width="838.5" x="3" y="112.8633"/><line style="stroke: #000000; stroke-width: 1.0;" x1="3" x2="841.5" y1="112.8633" y2="112.8633"/><line style="stroke: #000000; stroke-width: 1.0;" x1="3" x2="841.5" y1="115.8633" y2="115.8633"/><rect fill="#EEEEEE" height="23.1328" style="stroke: #000000; stroke-width: 2.0;" width="28" x="408.25" y="102.2969"/><text fill="#000000" font-family="sans-serif" font-size="13" font-weight="bold" lengthAdjust="spacingAndGlyphs" textLength="9" x="414.25" y="118.3638">0</text><polygon fill="#A80036" points="348.5,152.5625,358.5,156.5625,348.5,160.5625" style="stroke: #A80036; stroke-width: 1.0;"/><line style="stroke: #A80036; stroke-width: 1.0;" x1="150.5" x2="354.5" y1="156.5625" y2="156.5625"/><text fill="#000000" font-family="sans-serif" font-size="13" lengthAdjust="spacingAndGlyphs" textLength="59" x="157.5" y="151.4966">executed</text><line style="stroke: #A80036; stroke-width: 1.0;" x1="793.5" x2="783.5" y1="185.6953" y2="181.6953"/><line style="stroke: #A80036; stroke-width: 1.0;" x1="793.5" x2="783.5" y1="185.6953" y2="189.6953"/><line style="stroke: #A80036; stroke-width: 1.0;" x1="360.5" x2="794.5" y1="185.6953" y2="185.6953"/><text fill="#000000" font-family="sans-serif" font-size="13" lengthAdjust="spacingAndGlyphs" textLength="173" x="367.5" y="180.6294">USER_ADDED_TO_PROJECT</text><line style="stroke: #A80036; stroke-width: 1.0;" x1="717" x2="707" y1="214.8281" y2="210.8281"/><line style="stroke: #A80036; stroke-width: 1.0;" x1="717" x2="707" y1="214.8281" y2="218.8281"/><line style="stroke: #A80036; stroke-width: 1.0;" x1="360.5" x2="718" y1="214.8281" y2="214.8281"/><text fill="#000000" font-family="sans-serif" font-size="13" lengthAdjust="spacingAndGlyphs" textLength="173" x="367.5" y="209.7622">USER_ADDED_TO_PROJECT</text><rect fill="#EEEEEE" height="3" style="stroke: #EEEEEE; stroke-width: 1.0;" width="838.5" x="3" y="243.3945"/><line style="stroke: #000000; stroke-width: 1.0;" x1="3" x2="841.5" y1="243.3945" y2="243.3945"/><line style="stroke: #000000; stroke-width: 1.0;" x1="3" x2="841.5" y1="246.3945" y2="246.3945"/><rect fill="#EEEEEE" height="23.1328" style="stroke: #000000; stroke-width: 2.0;" width="28" x="408.25" y="232.8281"/><text fill="#000000" font-family="sans-serif" font-size="13" font-weight="bold" lengthAdjust="spacingAndGlyphs" textLength="9" x="414.25" y="248.895">1</text><line style="stroke: #A80036; stroke-width: 1.0;" x1="360.5" x2="402.5" y1="287.0938" y2="287.0938"/><line style="stroke: #A80036; stroke-width: 1.0;" x1="402.5" x2="402.5" y1="287.0938" y2="300.0938"/><line style="stroke: #A80036; stroke-width: 1.0;" x1="361.5" x2="402.5" y1="300.0938" y2="300.0938"/><line style="stroke: #A80036; stroke-width: 1.0;" x1="361.5" x2="371.5" y1="300.0938" y2="296.0938"/><line style="stroke: #A80036; stroke-width: 1.0;" x1="361.5" x2="371.5" y1="300.0938" y2="304.0938"/><text fill="#000000" font-family="sans-serif" font-size="13" lengthAdjust="spacingAndGlyphs" textLength="255" x="367.5" y="282.0278">REQUEST_USER_ROLE_RECALCULATION</text><rect fill="#EEEEEE" height="3" style="stroke: #EEEEEE; stroke-width: 1.0;" width="838.5" x="3" y="328.6602"/><line style="stroke: #000000; stroke-width: 1.0;" x1="3" x2="841.5" y1="328.6602" y2="328.6602"/><line style="stroke: #000000; stroke-width: 1.0;" x1="3" x2="841.5" y1="331.6602" y2="331.6602"/><rect fill="#EEEEEE" height="23.1328" style="stroke: #000000; stroke-width: 2.0;" width="28" x="408.25" y="318.0938"/><text fill="#000000" font-family="sans-serif" font-size="13" font-weight="bold" lengthAdjust="spacingAndGlyphs" textLength="9" x="414.25" y="334.1606">2</text><line style="stroke: #A80036; stroke-width: 1.0;" x1="627.5" x2="617.5" y1="372.3594" y2="368.3594"/><line style="stroke: #A80036; stroke-width: 1.0;" x1="627.5" x2="617.5" y1="372.3594" y2="376.3594"/><line style="stroke: #A80036; stroke-width: 1.0;" x1="360.5" x2="628.5" y1="372.3594" y2="372.3594"/><text fill="#000000" font-family="sans-serif" font-size="13" lengthAdjust="spacingAndGlyphs" textLength="157" x="367.5" y="367.2935">USER_ROLES_CHANGED</text><!--
@startuml
skinparam style strictuml
actor UC_ADMIN_ASSIGNS_USER_TO_PROJECT
collections administration
collections authorization
collections scan
collections schedule
== 0 ==
UC_ADMIN_ASSIGNS_USER_TO_PROJECT -> administration: executed
administration ->> schedule : USER_ADDED_TO_PROJECT
administration ->> scan : USER_ADDED_TO_PROJECT
== 1 ==
administration ->> administration : REQUEST_USER_ROLE_RECALCULATION
== 2 ==
administration ->> authorization : USER_ROLES_CHANGED
@enduml

PlantUML version 1.2018.13(Mon Nov 26 18:11:51 CET 2018)
(APACHE source distribution)
Java Runtime: OpenJDK Runtime Environment
JVM: OpenJDK 64-Bit Server VM
Java Version: 1.8.0_265-8u265-b01-0ubuntu2~20.04-b01
Operating System: Linux
OS Version: 5.4.0-48-generic
Default Encoding: UTF-8
Language: en
Country: US
--></g></svg>