<?xml version="1.0" encoding="UTF-8" standalone="no"?><svg xmlns="http://www.w3.org/2000/svg" xmlns:xlink="http://www.w3.org/1999/xlink" contentScriptType="application/ecmascript" contentStyleType="text/css" height="289px" preserveAspectRatio="none" style="width:618px;height:289px;" version="1.1" viewBox="0 0 618 289" width="618px" zoomAndPan="magnify"><defs/><g><line style="stroke: #A80036; stroke-width: 1.0; stroke-dasharray: 5.0,5.0;" x1="101" x2="101" y1="82.4883" y2="277.041"/><line style="stroke: #A80036; stroke-width: 1.0; stroke-dasharray: 5.0,5.0;" x1="263" x2="263" y1="82.4883" y2="277.041"/><line style="stroke: #A80036; stroke-width: 1.0; stroke-dasharray: 5.0,5.0;" x1="380" x2="380" y1="82.4883" y2="277.041"/><line style="stroke: #A80036; stroke-width: 1.0; stroke-dasharray: 5.0,5.0;" x1="561.5" x2="561.5" y1="82.4883" y2="277.041"/><text fill="#000000" font-family="sans-serif" font-size="14" lengthAdjust="spacingAndGlyphs" textLength="180" x="8" y="79.5352">UC_ADMIN_RESTARTS_JOB</text><ellipse cx="101" cy="13" fill="#FEFECE" rx="8" ry="8" style="stroke: #A80036; stroke-width: 2.0;"/><path d="M101,21 L101,48 M88,29 L114,29 M101,48 L88,63 M101,48 L114,63 " fill="none" style="stroke: #A80036; stroke-width: 2.0;"/><rect fill="#FEFECE" height="30.4883" style="stroke: #A80036; stroke-width: 1.5;" width="114" x="208" y="47"/><rect fill="#FEFECE" height="30.4883" style="stroke: #A80036; stroke-width: 1.5;" width="114" x="204" y="51"/><text fill="#000000" font-family="sans-serif" font-size="14" lengthAdjust="spacingAndGlyphs" textLength="100" x="211" y="71.5352">administration</text><rect fill="#FEFECE" height="30.4883" style="stroke: #A80036; stroke-width: 1.5;" width="92" x="336" y="47"/><rect fill="#FEFECE" height="30.4883" style="stroke: #A80036; stroke-width: 1.5;" width="92" x="332" y="51"/><text fill="#000000" font-family="sans-serif" font-size="14" lengthAdjust="spacingAndGlyphs" textLength="78" x="339" y="71.5352">notification</text><rect fill="#FEFECE" height="30.4883" style="stroke: #A80036; stroke-width: 1.5;" width="75" x="526.5" y="47"/><rect fill="#FEFECE" height="30.4883" style="stroke: #A80036; stroke-width: 1.5;" width="75" x="522.5" y="51"/><text fill="#000000" font-family="sans-serif" font-size="14" lengthAdjust="spacingAndGlyphs" textLength="61" x="529.5" y="71.5352">schedule</text><rect fill="#EEEEEE" height="3" style="stroke: #EEEEEE; stroke-width: 1.0;" width="603.5" x="3" y="113.1436"/><line style="stroke: #000000; stroke-width: 1.0;" x1="3" x2="606.5" y1="113.1436" y2="113.1436"/><line style="stroke: #000000; stroke-width: 1.0;" x1="3" x2="606.5" y1="116.1436" y2="116.1436"/><rect fill="#EEEEEE" height="23.3105" style="stroke: #000000; stroke-width: 2.0;" width="27" x="291.25" y="102.4883"/><text fill="#000000" font-family="sans-serif" font-size="13" font-weight="bold" lengthAdjust="spacingAndGlyphs" textLength="9" x="297.25" y="119.0566">0</text><polygon fill="#A80036" points="251,153.1094,261,157.1094,251,161.1094" style="stroke: #A80036; stroke-width: 1.0;"/><line style="stroke: #A80036; stroke-width: 1.0;" x1="101" x2="257" y1="157.1094" y2="157.1094"/><text fill="#000000" font-family="sans-serif" font-size="13" lengthAdjust="spacingAndGlyphs" textLength="57" x="108" y="152.3672">executed</text><line style="stroke: #A80036; stroke-width: 1.0;" x1="560" x2="550" y1="186.4199" y2="182.4199"/><line style="stroke: #A80036; stroke-width: 1.0;" x1="560" x2="550" y1="186.4199" y2="190.4199"/><line style="stroke: #A80036; stroke-width: 1.0;" x1="263" x2="561" y1="186.4199" y2="186.4199"/><text fill="#000000" font-family="sans-serif" font-size="13" lengthAdjust="spacingAndGlyphs" textLength="146" x="270" y="181.6777">REQUEST_JOB_RESTART</text><rect fill="#EEEEEE" height="3" style="stroke: #EEEEEE; stroke-width: 1.0;" width="603.5" x="3" y="215.0752"/><line style="stroke: #000000; stroke-width: 1.0;" x1="3" x2="606.5" y1="215.0752" y2="215.0752"/><line style="stroke: #000000; stroke-width: 1.0;" x1="3" x2="606.5" y1="218.0752" y2="218.0752"/><rect fill="#EEEEEE" height="23.3105" style="stroke: #000000; stroke-width: 2.0;" width="27" x="291.25" y="204.4199"/><text fill="#000000" font-family="sans-serif" font-size="13" font-weight="bold" lengthAdjust="spacingAndGlyphs" textLength="9" x="297.25" y="220.9883">1</text><line style="stroke: #A80036; stroke-width: 1.0;" x1="380" x2="390" y1="259.041" y2="255.041"/><line style="stroke: #A80036; stroke-width: 1.0;" x1="380" x2="390" y1="259.041" y2="263.041"/><line style="stroke: #A80036; stroke-width: 1.0;" x1="380" x2="561" y1="259.041" y2="259.041"/><text fill="#000000" font-family="sans-serif" font-size="13" lengthAdjust="spacingAndGlyphs" textLength="158" x="397" y="254.2988">JOB_RESTART_CANCELED</text><!--
@startuml
skinparam style strictuml
actor UC_ADMIN_RESTARTS_JOB
collections administration
collections notification
collections schedule
== 0 ==
UC_ADMIN_RESTARTS_JOB -> administration: executed
administration ->> schedule : REQUEST_JOB_RESTART
== 1 ==
schedule ->> notification : JOB_RESTART_CANCELED
@enduml

PlantUML version 1.2018.13(Mon Nov 26 18:11:51 CET 2018)
(APACHE source distribution)
Java Runtime: OpenJDK Runtime Environment
JVM: OpenJDK 64-Bit Server VM
Java Version: 1.8.0_265-b01
Operating System: Mac OS X
OS Version: 10.15.7
Default Encoding: UTF-8
Language: de
Country: DE
--></g></svg>