<?xml version="1.0" encoding="UTF-8" standalone="no"?><svg xmlns="http://www.w3.org/2000/svg" xmlns:xlink="http://www.w3.org/1999/xlink" contentScriptType="application/ecmascript" contentStyleType="text/css" height="318px" preserveAspectRatio="none" style="width:880px;height:318px;" version="1.1" viewBox="0 0 880 318" width="880px" zoomAndPan="magnify"><defs/><g><line style="stroke: #A80036; stroke-width: 1.0; stroke-dasharray: 5.0,5.0;" x1="185" x2="185" y1="82.4883" y2="306.3516"/><line style="stroke: #A80036; stroke-width: 1.0; stroke-dasharray: 5.0,5.0;" x1="432" x2="432" y1="82.4883" y2="306.3516"/><line style="stroke: #A80036; stroke-width: 1.0; stroke-dasharray: 5.0,5.0;" x1="549" x2="549" y1="82.4883" y2="306.3516"/><line style="stroke: #A80036; stroke-width: 1.0; stroke-dasharray: 5.0,5.0;" x1="823.5" x2="823.5" y1="82.4883" y2="306.3516"/><text fill="#000000" font-family="sans-serif" font-size="14" lengthAdjust="spacingAndGlyphs" textLength="349" x="8" y="79.5352">UC_ADMIN_ENABLES_SCHEDULER_JOB_PROCESSING</text><ellipse cx="185.5" cy="13" fill="#FEFECE" rx="8" ry="8" style="stroke: #A80036; stroke-width: 2.0;"/><path d="M185.5,21 L185.5,48 M172.5,29 L198.5,29 M185.5,48 L172.5,63 M185.5,48 L198.5,63 " fill="none" style="stroke: #A80036; stroke-width: 2.0;"/><rect fill="#FEFECE" height="30.4883" style="stroke: #A80036; stroke-width: 1.5;" width="114" x="377" y="47"/><rect fill="#FEFECE" height="30.4883" style="stroke: #A80036; stroke-width: 1.5;" width="114" x="373" y="51"/><text fill="#000000" font-family="sans-serif" font-size="14" lengthAdjust="spacingAndGlyphs" textLength="100" x="380" y="71.5352">administration</text><rect fill="#FEFECE" height="30.4883" style="stroke: #A80036; stroke-width: 1.5;" width="92" x="505" y="47"/><rect fill="#FEFECE" height="30.4883" style="stroke: #A80036; stroke-width: 1.5;" width="92" x="501" y="51"/><text fill="#000000" font-family="sans-serif" font-size="14" lengthAdjust="spacingAndGlyphs" textLength="78" x="508" y="71.5352">notification</text><rect fill="#FEFECE" height="30.4883" style="stroke: #A80036; stroke-width: 1.5;" width="75" x="788.5" y="47"/><rect fill="#FEFECE" height="30.4883" style="stroke: #A80036; stroke-width: 1.5;" width="75" x="784.5" y="51"/><text fill="#000000" font-family="sans-serif" font-size="14" lengthAdjust="spacingAndGlyphs" textLength="61" x="791.5" y="71.5352">schedule</text><rect fill="#EEEEEE" height="3" style="stroke: #EEEEEE; stroke-width: 1.0;" width="865.5" x="3" y="113.1436"/><line style="stroke: #000000; stroke-width: 1.0;" x1="3" x2="868.5" y1="113.1436" y2="113.1436"/><line style="stroke: #000000; stroke-width: 1.0;" x1="3" x2="868.5" y1="116.1436" y2="116.1436"/><rect fill="#EEEEEE" height="23.3105" style="stroke: #000000; stroke-width: 2.0;" width="27" x="422.25" y="102.4883"/><text fill="#000000" font-family="sans-serif" font-size="13" font-weight="bold" lengthAdjust="spacingAndGlyphs" textLength="9" x="428.25" y="119.0566">0</text><polygon fill="#A80036" points="420,153.1094,430,157.1094,420,161.1094" style="stroke: #A80036; stroke-width: 1.0;"/><line style="stroke: #A80036; stroke-width: 1.0;" x1="185.5" x2="426" y1="157.1094" y2="157.1094"/><text fill="#000000" font-family="sans-serif" font-size="13" lengthAdjust="spacingAndGlyphs" textLength="57" x="192.5" y="152.3672">executed</text><line style="stroke: #A80036; stroke-width: 1.0;" x1="822" x2="812" y1="186.4199" y2="182.4199"/><line style="stroke: #A80036; stroke-width: 1.0;" x1="822" x2="812" y1="186.4199" y2="190.4199"/><line style="stroke: #A80036; stroke-width: 1.0;" x1="432" x2="823" y1="186.4199" y2="186.4199"/><text fill="#000000" font-family="sans-serif" font-size="13" lengthAdjust="spacingAndGlyphs" textLength="304" x="439" y="181.6777">REQUEST_SCHEDULER_ENABLE_JOB_PROCESSING</text><rect fill="#EEEEEE" height="3" style="stroke: #EEEEEE; stroke-width: 1.0;" width="865.5" x="3" y="215.0752"/><line style="stroke: #000000; stroke-width: 1.0;" x1="3" x2="868.5" y1="215.0752" y2="215.0752"/><line style="stroke: #000000; stroke-width: 1.0;" x1="3" x2="868.5" y1="218.0752" y2="218.0752"/><rect fill="#EEEEEE" height="23.3105" style="stroke: #000000; stroke-width: 2.0;" width="27" x="422.25" y="204.4199"/><text fill="#000000" font-family="sans-serif" font-size="13" font-weight="bold" lengthAdjust="spacingAndGlyphs" textLength="9" x="428.25" y="220.9883">1</text><line style="stroke: #A80036; stroke-width: 1.0;" x1="432" x2="442" y1="259.041" y2="255.041"/><line style="stroke: #A80036; stroke-width: 1.0;" x1="432" x2="442" y1="259.041" y2="263.041"/><line style="stroke: #A80036; stroke-width: 1.0;" x1="432" x2="823" y1="259.041" y2="259.041"/><text fill="#000000" font-family="sans-serif" font-size="13" lengthAdjust="spacingAndGlyphs" textLength="251" x="449" y="254.2988">SCHEDULER_JOB_PROCESSING_ENABLED</text><line style="stroke: #A80036; stroke-width: 1.0;" x1="549" x2="559" y1="288.3516" y2="284.3516"/><line style="stroke: #A80036; stroke-width: 1.0;" x1="549" x2="559" y1="288.3516" y2="292.3516"/><line style="stroke: #A80036; stroke-width: 1.0;" x1="549" x2="823" y1="288.3516" y2="288.3516"/><text fill="#000000" font-family="sans-serif" font-size="13" lengthAdjust="spacingAndGlyphs" textLength="251" x="566" y="283.6094">SCHEDULER_JOB_PROCESSING_ENABLED</text><!--
@startuml
skinparam style strictuml
actor UC_ADMIN_ENABLES_SCHEDULER_JOB_PROCESSING
collections administration
collections notification
collections schedule
== 0 ==
UC_ADMIN_ENABLES_SCHEDULER_JOB_PROCESSING -> administration: executed
administration ->> schedule : REQUEST_SCHEDULER_ENABLE_JOB_PROCESSING
== 1 ==
schedule ->> administration : SCHEDULER_JOB_PROCESSING_ENABLED
schedule ->> notification : SCHEDULER_JOB_PROCESSING_ENABLED
@enduml

PlantUML version 1.2018.13(Mon Nov 26 18:11:51 CET 2018)
(APACHE source distribution)
Java Runtime: OpenJDK Runtime Environment
JVM: OpenJDK 64-Bit Server VM
Java Version: 1.8.0_265-b01
Operating System: Mac OS X
OS Version: 10.15.7
Default Encoding: UTF-8
Language: de
Country: DE
--></g></svg>