<?xml version="1.0" encoding="UTF-8" standalone="no"?><svg xmlns="http://www.w3.org/2000/svg" xmlns:xlink="http://www.w3.org/1999/xlink" contentScriptType="application/ecmascript" contentStyleType="text/css" height="177px" preserveAspectRatio="none" style="width:897px;height:177px;" version="1.1" viewBox="0 0 897 177" width="897px" zoomAndPan="magnify"><defs><filter height="300%" id="fuv5ook4sd2kv" width="300%" x="-1" y="-1"><feGaussianBlur result="blurOut" stdDeviation="2.0"/><feColorMatrix in="blurOut" result="blurOut2" type="matrix" values="0 0 0 0 0 0 0 0 0 0 0 0 0 0 0 0 0 0 .4 0"/><feOffset dx="4.0" dy="4.0" in="blurOut2" result="blurOut3"/><feBlend in="SourceGraphic" in2="blurOut3" mode="normal"/></filter></defs><g><!--cluster <prod>--><polygon fill="#FFFFFF" filter="url(#fuv5ook4sd2kv)" points="22,68,89,68,96,90.2969,126,90.2969,126,165,22,165,22,68" style="stroke: #000000; stroke-width: 1.5;"/><line style="stroke: #000000; stroke-width: 1.5;" x1="22" x2="96" y1="90.2969" y2="90.2969"/><text fill="#000000" font-family="sans-serif" font-size="14" font-weight="bold" lengthAdjust="spacingAndGlyphs" textLength="61" x="26" y="82.9951">&lt;prod&gt;</text><!--entity prod--><polygon fill="#FEFECE" filter="url(#fuv5ook4sd2kv)" points="38,113,48,103,110,103,110,139.2969,100,149.2969,38,149.2969,38,113" style="stroke: #000000; stroke-width: 1.5;"/><line style="stroke: #000000; stroke-width: 1.5;" x1="100" x2="109" y1="113" y2="104"/><line style="stroke: #000000; stroke-width: 1.5;" x1="38" x2="100" y1="113" y2="113"/><line style="stroke: #000000; stroke-width: 1.5;" x1="100" x2="100" y1="113" y2="149.2969"/><text fill="#000000" font-family="sans-serif" font-size="14" lengthAdjust="spacingAndGlyphs" textLength="32" x="53" y="135.9951">prod</text><!--entity real_products--><polygon fill="#FEFECE" filter="url(#fuv5ook4sd2kv)" points="501,113,511,103,635,103,635,139.2969,625,149.2969,501,149.2969,501,113" style="stroke: #000000; stroke-width: 1.5;"/><line style="stroke: #000000; stroke-width: 1.5;" x1="625" x2="634" y1="113" y2="104"/><line style="stroke: #000000; stroke-width: 1.5;" x1="501" x2="625" y1="113" y2="113"/><line style="stroke: #000000; stroke-width: 1.5;" x1="625" x2="625" y1="113" y2="149.2969"/><text fill="#000000" font-family="sans-serif" font-size="14" lengthAdjust="spacingAndGlyphs" textLength="94" x="516" y="135.9951">real_products</text><!--entity postgres--><polygon fill="#FEFECE" filter="url(#fuv5ook4sd2kv)" points="145,113,155,103,247,103,247,139.2969,237,149.2969,145,149.2969,145,113" style="stroke: #000000; stroke-width: 1.5;"/><line style="stroke: #000000; stroke-width: 1.5;" x1="237" x2="246" y1="113" y2="104"/><line style="stroke: #000000; stroke-width: 1.5;" x1="145" x2="237" y1="113" y2="113"/><line style="stroke: #000000; stroke-width: 1.5;" x1="237" x2="237" y1="113" y2="149.2969"/><text fill="#000000" font-family="sans-serif" font-size="14" lengthAdjust="spacingAndGlyphs" textLength="62" x="160" y="135.9951">postgres</text><!--entity server--><polygon fill="#FEFECE" filter="url(#fuv5ook4sd2kv)" points="670.5,113,680.5,103,753.5,103,753.5,139.2969,743.5,149.2969,670.5,149.2969,670.5,113" style="stroke: #000000; stroke-width: 1.5;"/><line style="stroke: #000000; stroke-width: 1.5;" x1="743.5" x2="752.5" y1="113" y2="104"/><line style="stroke: #000000; stroke-width: 1.5;" x1="670.5" x2="743.5" y1="113" y2="113"/><line style="stroke: #000000; stroke-width: 1.5;" x1="743.5" x2="743.5" y1="113" y2="149.2969"/><text fill="#000000" font-family="sans-serif" font-size="14" lengthAdjust="spacingAndGlyphs" textLength="43" x="685.5" y="135.9951">server</text><!--entity initial_admin_created--><polygon fill="#FEFECE" filter="url(#fuv5ook4sd2kv)" points="282.5,113,292.5,103,465.5,103,465.5,139.2969,455.5,149.2969,282.5,149.2969,282.5,113" style="stroke: #000000; stroke-width: 1.5;"/><line style="stroke: #000000; stroke-width: 1.5;" x1="455.5" x2="464.5" y1="113" y2="104"/><line style="stroke: #000000; stroke-width: 1.5;" x1="282.5" x2="455.5" y1="113" y2="113"/><line style="stroke: #000000; stroke-width: 1.5;" x1="455.5" x2="455.5" y1="113" y2="149.2969"/><text fill="#000000" font-family="sans-serif" font-size="14" lengthAdjust="spacingAndGlyphs" textLength="143" x="297.5" y="135.9951">initial_admin_created</text><!--entity default--><polygon fill="#FEFECE" filter="url(#fuv5ook4sd2kv)" points="788.5,113,798.5,103,875.5,103,875.5,139.2969,865.5,149.2969,788.5,149.2969,788.5,113" style="stroke: #000000; stroke-width: 1.5;"/><line style="stroke: #000000; stroke-width: 1.5;" x1="865.5" x2="874.5" y1="113" y2="104"/><line style="stroke: #000000; stroke-width: 1.5;" x1="788.5" x2="865.5" y1="113" y2="113"/><line style="stroke: #000000; stroke-width: 1.5;" x1="865.5" x2="865.5" y1="113" y2="149.2969"/><text fill="#000000" font-family="sans-serif" font-size="14" lengthAdjust="spacingAndGlyphs" textLength="47" x="803.5" y="135.9951">default</text><!--link prod to postgres--><path d="M110.22,126 C120.02,126 129.81,126 139.61,126 " fill="none" id="prod-postgres" style="stroke: #A80036; stroke-width: 1.0;"/><polygon fill="#A80036" points="144.73,126,135.73,122,139.73,126,135.73,130,144.73,126" style="stroke: #A80036; stroke-width: 1.0;"/><!--link prod to initial_admin_created--><path d="M83.67,102.79 C94.77,79.54 115.41,45.11 145.5,30 C186.01,9.66 204.53,15.54 247.5,30 C287.93,43.6 325.7,75.83 349.25,99.2 " fill="none" id="prod-initial_admin_created" style="stroke: #A80036; stroke-width: 1.0;"/><polygon fill="#A80036" points="352.91,102.87,349.393,93.6705,349.3816,99.3273,343.7248,99.3159,352.91,102.87" style="stroke: #A80036; stroke-width: 1.0;"/><!--link prod to real_products--><path d="M83.67,102.79 C94.77,79.54 115.41,45.11 145.5,30 C209.05,-1.91 399.37,3.87 465.5,30 C500.29,43.75 530.2,75.51 548.58,98.75 " fill="none" id="prod-real_products" style="stroke: #A80036; stroke-width: 1.0;"/><polygon fill="#A80036" points="551.88,102.98,549.5048,93.4219,548.8073,99.0355,543.1936,98.3381,551.88,102.98" style="stroke: #A80036; stroke-width: 1.0;"/><!--link prod to server--><path d="M83.67,102.79 C94.77,79.54 115.41,45.11 145.5,30 C194.16,5.57 586.45,6.37 635.5,30 C664.66,44.05 686.14,75.22 698.8,98.25 " fill="none" id="prod-server" style="stroke: #A80036; stroke-width: 1.0;"/><polygon fill="#A80036" points="701.21,102.74,700.4745,92.9186,698.8438,98.3354,693.427,96.7046,701.21,102.74" style="stroke: #A80036; stroke-width: 1.0;"/><!--link prod to default--><path d="M83.67,102.79 C94.77,79.54 115.41,45.11 145.5,30 C205.87,-0.31 692.46,1.06 753.5,30 C783.05,44.01 805.16,75.18 818.27,98.23 " fill="none" id="prod-default" style="stroke: #A80036; stroke-width: 1.0;"/><polygon fill="#A80036" points="820.77,102.72,819.8958,92.91,818.3418,98.3492,812.9026,96.7952,820.77,102.72" style="stroke: #A80036; stroke-width: 1.0;"/><!--
@startuml
node real_products
node postgres
node server
node initial_admin_created
package <prod>{
   node prod
}
node default
prod -> postgres
prod -> initial_admin_created
prod -> real_products
prod -> server
prod -> default
@enduml

PlantUML version 1.2018.13(Mon Nov 26 18:11:51 CET 2018)
(APACHE source distribution)
Java Runtime: OpenJDK Runtime Environment
JVM: OpenJDK 64-Bit Server VM
Java Version: 1.8.0_265-8u265-b01-0ubuntu2~20.04-b01
Operating System: Linux
OS Version: 5.4.0-48-generic
Default Encoding: UTF-8
Language: en
Country: US
--></g></svg>