<?xml version="1.0" encoding="UTF-8" standalone="no"?><svg xmlns="http://www.w3.org/2000/svg" xmlns:xlink="http://www.w3.org/1999/xlink" contentScriptType="application/ecmascript" contentStyleType="text/css" height="114px" preserveAspectRatio="none" style="width:1828px;height:114px;" version="1.1" viewBox="0 0 1828 114" width="1828px" zoomAndPan="magnify"><defs><filter height="300%" id="fwaanqh" width="300%" x="-1" y="-1"><feGaussianBlur result="blurOut" stdDeviation="2.0"/><feColorMatrix in="blurOut" result="blurOut2" type="matrix" values="0 0 0 0 0 0 0 0 0 0 0 0 0 0 0 0 0 0 .4 0"/><feOffset dx="4.0" dy="4.0" in="blurOut2" result="blurOut3"/><feBlend in="SourceGraphic" in2="blurOut3" mode="normal"/></filter></defs><g><!--entity demomode--><polygon fill="#FEFECE" filter="url(#fwaanqh)" points="6,73,16,63,126,63,126,99.2969,116,109.2969,6,109.2969,6,73" style="stroke: #000000; stroke-width: 1.5;"/><line style="stroke: #000000; stroke-width: 1.5;" x1="116" x2="125" y1="73" y2="64"/><line style="stroke: #000000; stroke-width: 1.5;" x1="6" x2="116" y1="73" y2="73"/><line style="stroke: #000000; stroke-width: 1.5;" x1="116" x2="116" y1="73" y2="109.2969"/><text fill="#000000" font-family="sans-serif" font-size="14" lengthAdjust="spacingAndGlyphs" textLength="80" x="21" y="95.9951">demomode</text><!--entity real_products--><polygon fill="#FEFECE" filter="url(#fwaanqh)" points="1328,73,1338,63,1462,63,1462,99.2969,1452,109.2969,1328,109.2969,1328,73" style="stroke: #000000; stroke-width: 1.5;"/><line style="stroke: #000000; stroke-width: 1.5;" x1="1452" x2="1461" y1="73" y2="64"/><line style="stroke: #000000; stroke-width: 1.5;" x1="1328" x2="1452" y1="73" y2="73"/><line style="stroke: #000000; stroke-width: 1.5;" x1="1452" x2="1452" y1="73" y2="109.2969"/><text fill="#000000" font-family="sans-serif" font-size="14" lengthAdjust="spacingAndGlyphs" textLength="94" x="1343" y="95.9951">real_products</text><!--entity postgres--><polygon fill="#FEFECE" filter="url(#fwaanqh)" points="1497,73,1507,63,1599,63,1599,99.2969,1589,109.2969,1497,109.2969,1497,73" style="stroke: #000000; stroke-width: 1.5;"/><line style="stroke: #000000; stroke-width: 1.5;" x1="1589" x2="1598" y1="73" y2="64"/><line style="stroke: #000000; stroke-width: 1.5;" x1="1497" x2="1589" y1="73" y2="73"/><line style="stroke: #000000; stroke-width: 1.5;" x1="1589" x2="1589" y1="73" y2="109.2969"/><text fill="#000000" font-family="sans-serif" font-size="14" lengthAdjust="spacingAndGlyphs" textLength="62" x="1512" y="95.9951">postgres</text><!--entity h2--><polygon fill="#FEFECE" filter="url(#fwaanqh)" points="161,73,171,63,219,63,219,99.2969,209,109.2969,161,109.2969,161,73" style="stroke: #000000; stroke-width: 1.5;"/><line style="stroke: #000000; stroke-width: 1.5;" x1="209" x2="218" y1="73" y2="64"/><line style="stroke: #000000; stroke-width: 1.5;" x1="161" x2="209" y1="73" y2="73"/><line style="stroke: #000000; stroke-width: 1.5;" x1="209" x2="209" y1="73" y2="109.2969"/><text fill="#000000" font-family="sans-serif" font-size="14" lengthAdjust="spacingAndGlyphs" textLength="18" x="176" y="95.9951">h2</text><!--entity server--><polygon fill="#FEFECE" filter="url(#fwaanqh)" points="1209.5,73,1219.5,63,1292.5,63,1292.5,99.2969,1282.5,109.2969,1209.5,109.2969,1209.5,73" style="stroke: #000000; stroke-width: 1.5;"/><line style="stroke: #000000; stroke-width: 1.5;" x1="1282.5" x2="1291.5" y1="73" y2="64"/><line style="stroke: #000000; stroke-width: 1.5;" x1="1209.5" x2="1282.5" y1="73" y2="73"/><line style="stroke: #000000; stroke-width: 1.5;" x1="1282.5" x2="1282.5" y1="73" y2="109.2969"/><text fill="#000000" font-family="sans-serif" font-size="14" lengthAdjust="spacingAndGlyphs" textLength="43" x="1224.5" y="95.9951">server</text><!--entity prod--><polygon fill="#FEFECE" filter="url(#fwaanqh)" points="1102,73,1112,63,1174,63,1174,99.2969,1164,109.2969,1102,109.2969,1102,73" style="stroke: #000000; stroke-width: 1.5;"/><line style="stroke: #000000; stroke-width: 1.5;" x1="1164" x2="1173" y1="73" y2="64"/><line style="stroke: #000000; stroke-width: 1.5;" x1="1102" x2="1164" y1="73" y2="73"/><line style="stroke: #000000; stroke-width: 1.5;" x1="1164" x2="1164" y1="73" y2="109.2969"/><text fill="#000000" font-family="sans-serif" font-size="14" lengthAdjust="spacingAndGlyphs" textLength="32" x="1117" y="95.9951">prod</text><!--entity localserver--><polygon fill="#FEFECE" filter="url(#fwaanqh)" points="953,73,963,63,1067,63,1067,99.2969,1057,109.2969,953,109.2969,953,73" style="stroke: #000000; stroke-width: 1.5;"/><line style="stroke: #000000; stroke-width: 1.5;" x1="1057" x2="1066" y1="73" y2="64"/><line style="stroke: #000000; stroke-width: 1.5;" x1="953" x2="1057" y1="73" y2="73"/><line style="stroke: #000000; stroke-width: 1.5;" x1="1057" x2="1057" y1="73" y2="109.2969"/><text fill="#000000" font-family="sans-serif" font-size="14" lengthAdjust="spacingAndGlyphs" textLength="74" x="968" y="95.9951">localserver</text><!--entity mocked_products--><polygon fill="#FEFECE" filter="url(#fwaanqh)" points="254.5,73,264.5,63,419.5,63,419.5,99.2969,409.5,109.2969,254.5,109.2969,254.5,73" style="stroke: #000000; stroke-width: 1.5;"/><line style="stroke: #000000; stroke-width: 1.5;" x1="409.5" x2="418.5" y1="73" y2="64"/><line style="stroke: #000000; stroke-width: 1.5;" x1="254.5" x2="409.5" y1="73" y2="73"/><line style="stroke: #000000; stroke-width: 1.5;" x1="409.5" x2="409.5" y1="73" y2="109.2969"/><text fill="#000000" font-family="sans-serif" font-size="14" lengthAdjust="spacingAndGlyphs" textLength="125" x="269.5" y="95.9951">mocked_products</text><!--entity integrationtest--><polygon fill="#FEFECE" filter="url(#fwaanqh)" points="454.5,73,464.5,63,595.5,63,595.5,99.2969,585.5,109.2969,454.5,109.2969,454.5,73" style="stroke: #000000; stroke-width: 1.5;"/><line style="stroke: #000000; stroke-width: 1.5;" x1="585.5" x2="594.5" y1="73" y2="64"/><line style="stroke: #000000; stroke-width: 1.5;" x1="454.5" x2="585.5" y1="73" y2="73"/><line style="stroke: #000000; stroke-width: 1.5;" x1="585.5" x2="585.5" y1="73" y2="109.2969"/><text fill="#000000" font-family="sans-serif" font-size="14" lengthAdjust="spacingAndGlyphs" textLength="101" x="469.5" y="95.9951">integrationtest</text><!--entity mocked_notifications--><polygon fill="#FEFECE" filter="url(#fwaanqh)" points="631,73,641,63,817,63,817,99.2969,807,109.2969,631,109.2969,631,73" style="stroke: #000000; stroke-width: 1.5;"/><line style="stroke: #000000; stroke-width: 1.5;" x1="807" x2="816" y1="73" y2="64"/><line style="stroke: #000000; stroke-width: 1.5;" x1="631" x2="807" y1="73" y2="73"/><line style="stroke: #000000; stroke-width: 1.5;" x1="807" x2="807" y1="73" y2="109.2969"/><text fill="#000000" font-family="sans-serif" font-size="14" lengthAdjust="spacingAndGlyphs" textLength="146" x="646" y="95.9951">mocked_notifications</text><!--entity default--><polygon fill="#FEFECE" filter="url(#fwaanqh)" points="1634.5,73,1644.5,63,1721.5,63,1721.5,99.2969,1711.5,109.2969,1634.5,109.2969,1634.5,73" style="stroke: #000000; stroke-width: 1.5;"/><line style="stroke: #000000; stroke-width: 1.5;" x1="1711.5" x2="1720.5" y1="73" y2="64"/><line style="stroke: #000000; stroke-width: 1.5;" x1="1634.5" x2="1711.5" y1="73" y2="73"/><line style="stroke: #000000; stroke-width: 1.5;" x1="1711.5" x2="1711.5" y1="73" y2="109.2969"/><text fill="#000000" font-family="sans-serif" font-size="14" lengthAdjust="spacingAndGlyphs" textLength="47" x="1649.5" y="95.9951">default</text><!--entity dev--><polygon fill="#FEFECE" filter="url(#fwaanqh)" points="852.5,73,862.5,63,917.5,63,917.5,99.2969,907.5,109.2969,852.5,109.2969,852.5,73" style="stroke: #000000; stroke-width: 1.5;"/><line style="stroke: #000000; stroke-width: 1.5;" x1="907.5" x2="916.5" y1="73" y2="64"/><line style="stroke: #000000; stroke-width: 1.5;" x1="852.5" x2="907.5" y1="73" y2="73"/><line style="stroke: #000000; stroke-width: 1.5;" x1="907.5" x2="907.5" y1="73" y2="109.2969"/><text fill="#000000" font-family="sans-serif" font-size="14" lengthAdjust="spacingAndGlyphs" textLength="25" x="867.5" y="95.9951">dev</text><!--entity test--><polygon fill="#FEFECE" filter="url(#fwaanqh)" points="1756.5,73,1766.5,63,1823.5,63,1823.5,99.2969,1813.5,109.2969,1756.5,109.2969,1756.5,73" style="stroke: #000000; stroke-width: 1.5;"/><line style="stroke: #000000; stroke-width: 1.5;" x1="1813.5" x2="1822.5" y1="73" y2="64"/><line style="stroke: #000000; stroke-width: 1.5;" x1="1756.5" x2="1813.5" y1="73" y2="73"/><line style="stroke: #000000; stroke-width: 1.5;" x1="1813.5" x2="1813.5" y1="73" y2="109.2969"/><text fill="#000000" font-family="sans-serif" font-size="14" lengthAdjust="spacingAndGlyphs" textLength="27" x="1771.5" y="95.9951">test</text><path d="M97.8321,62.9585 C115.6201,51.5119 138.7376,38.8929 161.5,33 C207.9437,20.9763 260.5384,41.4859 295.9395,60.3861 " fill="none" style="stroke: #A80036; stroke-width: 1.0;"/><polygon fill="#A80036" points="300.6017,62.919,294.6028,55.1079,296.2082,60.5322,290.7839,62.1375,300.6017,62.919" style="stroke: #A80036; stroke-width: 1.0;"/><path d="M97.8321,62.9585 C115.6201,51.5119 138.7376,38.8929 161.5,33 C242.8191,11.9474 836.3266,11.3927 917.5,33 C937.7721,38.3962 958.2258,49.4035 974.7264,59.9954 " fill="none" style="stroke: #A80036; stroke-width: 1.0;"/><polygon fill="#A80036" points="979.2721,62.9669,973.9276,54.6943,975.087,60.2311,969.5502,61.3905,979.2721,62.9669" style="stroke: #A80036; stroke-width: 1.0;"/><path d="M126.0625,86 C135.8459,86 145.6293,86 155.4127,86 " fill="none" style="stroke: #A80036; stroke-width: 1.0;"/><polygon fill="#A80036" points="160.5288,86,151.5288,82,155.5288,86,151.5288,90,160.5288,86" style="stroke: #A80036; stroke-width: 1.0;"/><path d="M97.8321,62.9585 C115.6201,51.5119 138.7376,38.8929 161.5,33 C254.8663,8.8285 500.8946,14.2558 595.5,33 C623.0186,38.4523 652.0425,49.8818 675.53,60.7357 " fill="none" style="stroke: #A80036; stroke-width: 1.0;"/><polygon fill="#A80036" points="680.1516,62.8969,673.6935,55.461,675.6224,60.7788,670.3046,62.7077,680.1516,62.8969" style="stroke: #A80036; stroke-width: 1.0;"/><path d="M1161.2303,62.7736 C1174.2422,51.4273 1191.453,38.9594 1209.5,33 C1316.2736,-2.2583 1354.3559,2.2004 1462.5,33 C1481.5377,38.422 1500.4778,49.4322 1515.6749,60.0195 " fill="none" style="stroke: #A80036; stroke-width: 1.0;"/><polygon fill="#A80036" points="1519.8589,62.9894,1514.8351,54.5182,1515.7816,60.0953,1510.2045,61.0418,1519.8589,62.9894" style="stroke: #A80036; stroke-width: 1.0;"/><path d="M1161.2303,62.7736 C1174.2422,51.4273 1191.453,38.9594 1209.5,33 C1244.5285,21.4331 1256.6562,24.2814 1292.5,33 C1314.7517,38.4125 1337.5689,49.5591 1356.0096,60.2396 " fill="none" style="stroke: #A80036; stroke-width: 1.0;"/><polygon fill="#A80036" points="1360.6007,62.9411,1354.8727,54.9292,1356.2915,60.4053,1350.8154,61.824,1360.6007,62.9411" style="stroke: #A80036; stroke-width: 1.0;"/><path d="M1174.1953,86 C1184.1592,86 1194.1231,86 1204.087,86 " fill="none" style="stroke: #A80036; stroke-width: 1.0;"/><polygon fill="#A80036" points="1209.2975,86,1200.2975,82,1204.2975,86,1200.2975,90,1209.2975,86" style="stroke: #A80036; stroke-width: 1.0;"/><path d="M560.8612,62.9325 C580.8043,51.4783 606.5703,38.8604 631.5,33 C755.2382,3.9121 794.6662,0.3032 917.5,33 C937.7721,38.3962 958.2258,49.4035 974.7264,59.9954 " fill="none" style="stroke: #A80036; stroke-width: 1.0;"/><polygon fill="#A80036" points="979.2721,62.9669,973.9276,54.6943,975.087,60.2311,969.5502,61.3905,979.2721,62.9669" style="stroke: #A80036; stroke-width: 1.0;"/><path d="M595.7383,86 C605.6935,86 615.6487,86 625.6039,86 " fill="none" style="stroke: #A80036; stroke-width: 1.0;"/><polygon fill="#A80036" points="630.8098,86,621.8098,82,625.8098,86,621.8098,90,630.8098,86" style="stroke: #A80036; stroke-width: 1.0;"/><path d="M917.7148,86 C927.6405,86 937.5661,86 947.4918,86 " fill="none" style="stroke: #A80036; stroke-width: 1.0;"/><polygon fill="#A80036" points="952.6823,86,943.6823,82,947.6823,86,943.6823,90,952.6823,86" style="stroke: #A80036; stroke-width: 1.0;"/></g></svg>