<?xml version="1.0" encoding="UTF-8" standalone="no"?><svg xmlns="http://www.w3.org/2000/svg" xmlns:xlink="http://www.w3.org/1999/xlink" contentScriptType="application/ecmascript" contentStyleType="text/css" height="216px" preserveAspectRatio="none" style="width:404px;height:216px;" version="1.1" viewBox="0 0 404 216" width="404px" zoomAndPan="magnify"><defs><filter height="300%" id="fe7vy8i" width="300%" x="-1" y="-1"><feGaussianBlur result="blurOut" stdDeviation="2.0"/><feColorMatrix in="blurOut" result="blurOut2" type="matrix" values="0 0 0 0 0 0 0 0 0 0 0 0 0 0 0 0 0 0 .4 0"/><feOffset dx="4.0" dy="4.0" in="blurOut2" result="blurOut3"/><feBlend in="SourceGraphic" in2="blurOut3" mode="normal"/></filter></defs><g><!--cluster <prod>--><polygon fill="#FFFFFF" filter="url(#fe7vy8i)" points="158,24,225,24,232,46.2969,262,46.2969,262,121,158,121,158,24" style="stroke: #000000; stroke-width: 2.0;"/><line style="stroke: #000000; stroke-width: 2.0;" x1="158" x2="232" y1="46.2969" y2="46.2969"/><text fill="#000000" font-family="sans-serif" font-size="14" font-weight="bold" lengthAdjust="spacingAndGlyphs" textLength="61" x="162" y="38.9951">&lt;prod&gt;</text><!--entity prod--><polygon fill="#FEFECE" filter="url(#fe7vy8i)" points="174,69,184,59,246,59,246,95.2969,236,105.2969,174,105.2969,174,69" style="stroke: #000000; stroke-width: 1.5;"/><line style="stroke: #000000; stroke-width: 1.5;" x1="236" x2="245" y1="69" y2="60"/><line style="stroke: #000000; stroke-width: 1.5;" x1="174" x2="236" y1="69" y2="69"/><line style="stroke: #000000; stroke-width: 1.5;" x1="236" x2="236" y1="69" y2="105.2969"/><text fill="#000000" font-family="sans-serif" font-size="14" lengthAdjust="spacingAndGlyphs" textLength="32" x="189" y="91.9951">prod</text><!--entity real_products--><polygon fill="#FEFECE" filter="url(#fe7vy8i)" points="143,175,153,165,277,165,277,201.2969,267,211.2969,143,211.2969,143,175" style="stroke: #000000; stroke-width: 1.5;"/><line style="stroke: #000000; stroke-width: 1.5;" x1="267" x2="276" y1="175" y2="166"/><line style="stroke: #000000; stroke-width: 1.5;" x1="143" x2="267" y1="175" y2="175"/><line style="stroke: #000000; stroke-width: 1.5;" x1="267" x2="267" y1="175" y2="211.2969"/><text fill="#000000" font-family="sans-serif" font-size="14" lengthAdjust="spacingAndGlyphs" textLength="94" x="158" y="197.9951">real_products</text><!--entity postgres--><polygon fill="#FEFECE" filter="url(#fe7vy8i)" points="6,175,16,165,108,165,108,201.2969,98,211.2969,6,211.2969,6,175" style="stroke: #000000; stroke-width: 1.5;"/><line style="stroke: #000000; stroke-width: 1.5;" x1="98" x2="107" y1="175" y2="166"/><line style="stroke: #000000; stroke-width: 1.5;" x1="6" x2="98" y1="175" y2="175"/><line style="stroke: #000000; stroke-width: 1.5;" x1="98" x2="98" y1="175" y2="211.2969"/><text fill="#000000" font-family="sans-serif" font-size="14" lengthAdjust="spacingAndGlyphs" textLength="62" x="21" y="197.9951">postgres</text><!--entity default--><polygon fill="#FEFECE" filter="url(#fe7vy8i)" points="312.5,175,322.5,165,399.5,165,399.5,201.2969,389.5,211.2969,312.5,211.2969,312.5,175" style="stroke: #000000; stroke-width: 1.5;"/><line style="stroke: #000000; stroke-width: 1.5;" x1="389.5" x2="398.5" y1="175" y2="166"/><line style="stroke: #000000; stroke-width: 1.5;" x1="312.5" x2="389.5" y1="175" y2="175"/><line style="stroke: #000000; stroke-width: 1.5;" x1="389.5" x2="389.5" y1="175" y2="211.2969"/><text fill="#000000" font-family="sans-serif" font-size="14" lengthAdjust="spacingAndGlyphs" textLength="47" x="327.5" y="197.9951">default</text><path d="M176.8013,105.0004 C152.6246,121.7503 119.8444,144.4607 94.6847,161.8917 " fill="none" style="stroke: #A80036; stroke-width: 1.0;"/><polygon fill="#A80036" points="90.3978,164.8617,100.0738,163.0243,94.5078,162.0143,95.5179,156.4483,90.3978,164.8617" style="stroke: #A80036; stroke-width: 1.0;"/><path d="M210,105.0004 C210,121.003 210,142.4461 210,159.528 " fill="none" style="stroke: #A80036; stroke-width: 1.0;"/><polygon fill="#A80036" points="210,164.6784,214,155.6784,210,159.6784,206,155.6784,210,164.6784" style="stroke: #A80036; stroke-width: 1.0;"/><path d="M241.6798,105.0004 C264.7504,121.7503 296.0308,144.4607 320.0395,161.8917 " fill="none" style="stroke: #A80036; stroke-width: 1.0;"/><polygon fill="#A80036" points="324.1302,164.8617,319.1973,156.3373,320.0841,161.9242,314.4972,162.811,324.1302,164.8617" style="stroke: #A80036; stroke-width: 1.0;"/></g></svg>