<?xml version="1.0" encoding="UTF-8" standalone="no"?><svg xmlns="http://www.w3.org/2000/svg" xmlns:xlink="http://www.w3.org/1999/xlink" contentScriptType="application/ecmascript" contentStyleType="text/css" height="268px" preserveAspectRatio="none" style="width:1354px;height:268px;" version="1.1" viewBox="0 0 1354 268" width="1354px" zoomAndPan="magnify"><defs><filter height="300%" id="f2pq6u8ku6xy" width="300%" x="-1" y="-1"><feGaussianBlur result="blurOut" stdDeviation="2.0"/><feColorMatrix in="blurOut" result="blurOut2" type="matrix" values="0 0 0 0 0 0 0 0 0 0 0 0 0 0 0 0 0 0 .4 0"/><feOffset dx="4.0" dy="4.0" in="blurOut2" result="blurOut3"/><feBlend in="SourceGraphic" in2="blurOut3" mode="normal"/></filter></defs><g><!--cluster <integrationtest>--><polygon fill="#FFFFFF" filter="url(#f2pq6u8ku6xy)" points="22,69,169,69,176,91.2969,196,91.2969,196,166,22,166,22,69" style="stroke: #000000; stroke-width: 1.5;"/><line style="stroke: #000000; stroke-width: 1.5;" x1="22" x2="176" y1="91.2969" y2="91.2969"/><text fill="#000000" font-family="sans-serif" font-size="14" font-weight="bold" lengthAdjust="spacingAndGlyphs" textLength="141" x="26" y="83.9951">&lt;integrationtest&gt;</text><!--entity integrationtest--><polygon fill="#FEFECE" filter="url(#f2pq6u8ku6xy)" points="38.5,114,48.5,104,179.5,104,179.5,140.2969,169.5,150.2969,38.5,150.2969,38.5,114" style="stroke: #000000; stroke-width: 1.5;"/><line style="stroke: #000000; stroke-width: 1.5;" x1="169.5" x2="178.5" y1="114" y2="105"/><line style="stroke: #000000; stroke-width: 1.5;" x1="38.5" x2="169.5" y1="114" y2="114"/><line style="stroke: #000000; stroke-width: 1.5;" x1="169.5" x2="169.5" y1="114" y2="150.2969"/><text fill="#000000" font-family="sans-serif" font-size="14" lengthAdjust="spacingAndGlyphs" textLength="101" x="53.5" y="136.9951">integrationtest</text><!--entity h2--><polygon fill="#FEFECE" filter="url(#f2pq6u8ku6xy)" points="1083,114,1093,104,1141,104,1141,140.2969,1131,150.2969,1083,150.2969,1083,114" style="stroke: #000000; stroke-width: 1.5;"/><line style="stroke: #000000; stroke-width: 1.5;" x1="1131" x2="1140" y1="114" y2="105"/><line style="stroke: #000000; stroke-width: 1.5;" x1="1083" x2="1131" y1="114" y2="114"/><line style="stroke: #000000; stroke-width: 1.5;" x1="1131" x2="1131" y1="114" y2="150.2969"/><text fill="#000000" font-family="sans-serif" font-size="14" lengthAdjust="spacingAndGlyphs" textLength="18" x="1098" y="136.9951">h2</text><!--entity localserver--><polygon fill="#FEFECE" filter="url(#f2pq6u8ku6xy)" points="215,114,225,104,329,104,329,140.2969,319,150.2969,215,150.2969,215,114" style="stroke: #000000; stroke-width: 1.5;"/><line style="stroke: #000000; stroke-width: 1.5;" x1="319" x2="328" y1="114" y2="105"/><line style="stroke: #000000; stroke-width: 1.5;" x1="215" x2="319" y1="114" y2="114"/><line style="stroke: #000000; stroke-width: 1.5;" x1="319" x2="319" y1="114" y2="150.2969"/><text fill="#000000" font-family="sans-serif" font-size="14" lengthAdjust="spacingAndGlyphs" textLength="74" x="230" y="136.9951">localserver</text><!--entity real_products--><polygon fill="#FEFECE" filter="url(#f2pq6u8ku6xy)" points="1176,114,1186,104,1310,104,1310,140.2969,1300,150.2969,1176,150.2969,1176,114" style="stroke: #000000; stroke-width: 1.5;"/><line style="stroke: #000000; stroke-width: 1.5;" x1="1300" x2="1309" y1="114" y2="105"/><line style="stroke: #000000; stroke-width: 1.5;" x1="1176" x2="1300" y1="114" y2="114"/><line style="stroke: #000000; stroke-width: 1.5;" x1="1300" x2="1300" y1="114" y2="150.2969"/><text fill="#000000" font-family="sans-serif" font-size="14" lengthAdjust="spacingAndGlyphs" textLength="94" x="1191" y="136.9951">real_products</text><!--entity admin_access--><polygon fill="#FEFECE" filter="url(#f2pq6u8ku6xy)" points="787,114,797,104,925,104,925,140.2969,915,150.2969,787,150.2969,787,114" style="stroke: #000000; stroke-width: 1.5;"/><line style="stroke: #000000; stroke-width: 1.5;" x1="915" x2="924" y1="114" y2="105"/><line style="stroke: #000000; stroke-width: 1.5;" x1="787" x2="915" y1="114" y2="114"/><line style="stroke: #000000; stroke-width: 1.5;" x1="915" x2="915" y1="114" y2="150.2969"/><text fill="#000000" font-family="sans-serif" font-size="14" lengthAdjust="spacingAndGlyphs" textLength="98" x="802" y="136.9951">admin_access</text><!--entity mocked_products--><polygon fill="#FEFECE" filter="url(#f2pq6u8ku6xy)" points="1029.5,220,1039.5,210,1194.5,210,1194.5,246.2969,1184.5,256.2969,1029.5,256.2969,1029.5,220" style="stroke: #000000; stroke-width: 1.5;"/><line style="stroke: #000000; stroke-width: 1.5;" x1="1184.5" x2="1193.5" y1="220" y2="211"/><line style="stroke: #000000; stroke-width: 1.5;" x1="1029.5" x2="1184.5" y1="220" y2="220"/><line style="stroke: #000000; stroke-width: 1.5;" x1="1184.5" x2="1184.5" y1="220" y2="256.2969"/><text fill="#000000" font-family="sans-serif" font-size="14" lengthAdjust="spacingAndGlyphs" textLength="125" x="1044.5" y="242.9951">mocked_products</text><!--entity default--><polygon fill="#FEFECE" filter="url(#f2pq6u8ku6xy)" points="960.5,114,970.5,104,1047.5,104,1047.5,140.2969,1037.5,150.2969,960.5,150.2969,960.5,114" style="stroke: #000000; stroke-width: 1.5;"/><line style="stroke: #000000; stroke-width: 1.5;" x1="1037.5" x2="1046.5" y1="114" y2="105"/><line style="stroke: #000000; stroke-width: 1.5;" x1="960.5" x2="1037.5" y1="114" y2="114"/><line style="stroke: #000000; stroke-width: 1.5;" x1="1037.5" x2="1037.5" y1="114" y2="150.2969"/><text fill="#000000" font-family="sans-serif" font-size="14" lengthAdjust="spacingAndGlyphs" textLength="47" x="975.5" y="136.9951">default</text><!--entity postgres--><polygon fill="#FEFECE" filter="url(#f2pq6u8ku6xy)" points="1230,220,1240,210,1332,210,1332,246.2969,1322,256.2969,1230,256.2969,1230,220" style="stroke: #000000; stroke-width: 1.5;"/><line style="stroke: #000000; stroke-width: 1.5;" x1="1322" x2="1331" y1="220" y2="211"/><line style="stroke: #000000; stroke-width: 1.5;" x1="1230" x2="1322" y1="220" y2="220"/><line style="stroke: #000000; stroke-width: 1.5;" x1="1322" x2="1322" y1="220" y2="256.2969"/><text fill="#000000" font-family="sans-serif" font-size="14" lengthAdjust="spacingAndGlyphs" textLength="62" x="1245" y="242.9951">postgres</text><!--entity initial_admin_static--><polygon fill="#FEFECE" filter="url(#f2pq6u8ku6xy)" points="364.5,114,374.5,104,531.5,104,531.5,140.2969,521.5,150.2969,364.5,150.2969,364.5,114" style="stroke: #000000; stroke-width: 1.5;"/><line style="stroke: #000000; stroke-width: 1.5;" x1="521.5" x2="530.5" y1="114" y2="105"/><line style="stroke: #000000; stroke-width: 1.5;" x1="364.5" x2="521.5" y1="114" y2="114"/><line style="stroke: #000000; stroke-width: 1.5;" x1="521.5" x2="521.5" y1="114" y2="150.2969"/><text fill="#000000" font-family="sans-serif" font-size="14" lengthAdjust="spacingAndGlyphs" textLength="127" x="379.5" y="136.9951">initial_admin_static</text><!--entity mocked_notifications--><polygon fill="#FEFECE" filter="url(#f2pq6u8ku6xy)" points="566,114,576,104,752,104,752,140.2969,742,150.2969,566,150.2969,566,114" style="stroke: #000000; stroke-width: 1.5;"/><line style="stroke: #000000; stroke-width: 1.5;" x1="742" x2="751" y1="114" y2="105"/><line style="stroke: #000000; stroke-width: 1.5;" x1="566" x2="742" y1="114" y2="114"/><line style="stroke: #000000; stroke-width: 1.5;" x1="742" x2="742" y1="114" y2="150.2969"/><text fill="#000000" font-family="sans-serif" font-size="14" lengthAdjust="spacingAndGlyphs" textLength="146" x="581" y="136.9951">mocked_notifications</text><!--link integrationtest to localserver--><path d="M179.68,127 C189.61,127 199.54,127 209.47,127 " fill="none" id="integrationtest-localserver" style="stroke: #A80036; stroke-width: 1.0;"/><polygon fill="#A80036" points="214.66,127,205.66,123,209.66,127,205.66,131,214.66,127" style="stroke: #A80036; stroke-width: 1.0;"/><!--link integrationtest to initial_admin_static--><path d="M125.75,103.96 C144.38,80.5 176.85,45.56 214.5,31 C261.75,12.72 280.71,14.18 328.5,31 C367.34,44.67 402.88,76.88 424.93,100.23 " fill="none" id="integrationtest-initial_admin_static" style="stroke: #A80036; stroke-width: 1.0;"/><polygon fill="#A80036" points="428.35,103.9,425.1321,94.5917,424.9379,100.2452,419.2844,100.051,428.35,103.9" style="stroke: #A80036; stroke-width: 1.0;"/><!--link integrationtest to mocked_notifications--><path d="M125.75,103.96 C144.38,80.5 176.85,45.56 214.5,31 C280.2,5.58 464.69,8.66 531.5,31 C572.16,44.6 610.24,76.82 634.01,100.2 " fill="none" id="integrationtest-mocked_notifications" style="stroke: #A80036; stroke-width: 1.0;"/><polygon fill="#A80036" points="637.7,103.87,634.1273,94.692,634.1502,100.3488,628.4934,100.3717,637.7,103.87" style="stroke: #A80036; stroke-width: 1.0;"/><!--link integrationtest to admin_access--><path d="M125.75,103.96 C144.38,80.5 176.85,45.56 214.5,31 C270.15,9.47 695.9,9.34 751.5,31 C786.87,44.78 817.52,76.75 836.32,100.02 " fill="none" id="integrationtest-admin_access" style="stroke: #A80036; stroke-width: 1.0;"/><polygon fill="#A80036" points="839.46,103.97,836.9867,94.4367,836.347,100.0573,830.7264,99.4176,839.46,103.97" style="stroke: #A80036; stroke-width: 1.0;"/><!--link integrationtest to default--><path d="M125.75,103.96 C144.38,80.5 176.85,45.56 214.5,31 C288.07,2.54 853.11,-2.57 924.5,31 C954.24,44.99 976.67,76.17 990,99.22 " fill="none" id="integrationtest-default" style="stroke: #A80036; stroke-width: 1.0;"/><polygon fill="#A80036" points="992.55,103.71,991.6133,93.9058,990.0939,99.3548,984.6449,97.8355,992.55,103.71" style="stroke: #A80036; stroke-width: 1.0;"/><!--link h2 to real_products--><!--link h2 to mocked_products--><!--link mocked_products to postgres--><!--
@startuml
node h2
node localserver
package <integrationtest>{
   node integrationtest
}
node real_products
node admin_access
node mocked_products
node default
node postgres
node initial_admin_static
node mocked_notifications
integrationtest -> localserver
integrationtest -> initial_admin_static
integrationtest -> mocked_notifications
integrationtest -> admin_access
integrationtest -> default
@enduml

PlantUML version 1.2018.13(Mon Nov 26 17:11:51 UTC 2018)
(APACHE source distribution)
Java Runtime: OpenJDK Runtime Environment
JVM: OpenJDK 64-Bit Server VM
Java Version: 1.8.0_302-b08
Operating System: Linux
OS Version: 5.8.0-1039-azure
Default Encoding: UTF-8
Language: en
Country: 
--></g></svg>