<?xml version="1.0" encoding="UTF-8" standalone="no"?><svg xmlns="http://www.w3.org/2000/svg" xmlns:xlink="http://www.w3.org/1999/xlink" contentScriptType="application/ecmascript" contentStyleType="text/css" height="223px" preserveAspectRatio="none" style="width:2402px;height:223px;" version="1.1" viewBox="0 0 2402 223" width="2402px" zoomAndPan="magnify"><defs><filter height="300%" id="f9sh6rg" width="300%" x="-1" y="-1"><feGaussianBlur result="blurOut" stdDeviation="2.0"/><feColorMatrix in="blurOut" result="blurOut2" type="matrix" values="0 0 0 0 0 0 0 0 0 0 0 0 0 0 0 0 0 0 .4 0"/><feOffset dx="4.0" dy="4.0" in="blurOut2" result="blurOut3"/><feBlend in="SourceGraphic" in2="blurOut3" mode="normal"/></filter></defs><g><!--entity real_products--><polygon fill="#FEFECE" filter="url(#f9sh6rg)" points="232,76,242,66,366,66,366,102.2969,356,112.2969,232,112.2969,232,76" style="stroke: #000000; stroke-width: 1.5;"/><line style="stroke: #000000; stroke-width: 1.5;" x1="356" x2="365" y1="76" y2="67"/><line style="stroke: #000000; stroke-width: 1.5;" x1="232" x2="356" y1="76" y2="76"/><line style="stroke: #000000; stroke-width: 1.5;" x1="356" x2="356" y1="76" y2="112.2969"/><text fill="#000000" font-family="sans-serif" font-size="14" lengthAdjust="spacingAndGlyphs" textLength="94" x="247" y="98.9951">real_products</text><!--entity postgres--><polygon fill="#FEFECE" filter="url(#f9sh6rg)" points="620,76,630,66,722,66,722,102.2969,712,112.2969,620,112.2969,620,76" style="stroke: #000000; stroke-width: 1.5;"/><line style="stroke: #000000; stroke-width: 1.5;" x1="712" x2="721" y1="76" y2="67"/><line style="stroke: #000000; stroke-width: 1.5;" x1="620" x2="712" y1="76" y2="76"/><line style="stroke: #000000; stroke-width: 1.5;" x1="712" x2="712" y1="76" y2="112.2969"/><text fill="#000000" font-family="sans-serif" font-size="14" lengthAdjust="spacingAndGlyphs" textLength="62" x="635" y="98.9951">postgres</text><!--entity h2--><polygon fill="#FEFECE" filter="url(#f9sh6rg)" points="2019,76,2029,66,2077,66,2077,102.2969,2067,112.2969,2019,112.2969,2019,76" style="stroke: #000000; stroke-width: 1.5;"/><line style="stroke: #000000; stroke-width: 1.5;" x1="2067" x2="2076" y1="76" y2="67"/><line style="stroke: #000000; stroke-width: 1.5;" x1="2019" x2="2067" y1="76" y2="76"/><line style="stroke: #000000; stroke-width: 1.5;" x1="2067" x2="2067" y1="76" y2="112.2969"/><text fill="#000000" font-family="sans-serif" font-size="14" lengthAdjust="spacingAndGlyphs" textLength="18" x="2034" y="98.9951">h2</text><!--entity server--><polygon fill="#FEFECE" filter="url(#f9sh6rg)" points="113.5,76,123.5,66,196.5,66,196.5,102.2969,186.5,112.2969,113.5,112.2969,113.5,76" style="stroke: #000000; stroke-width: 1.5;"/><line style="stroke: #000000; stroke-width: 1.5;" x1="186.5" x2="195.5" y1="76" y2="67"/><line style="stroke: #000000; stroke-width: 1.5;" x1="113.5" x2="186.5" y1="76" y2="76"/><line style="stroke: #000000; stroke-width: 1.5;" x1="186.5" x2="186.5" y1="76" y2="112.2969"/><text fill="#000000" font-family="sans-serif" font-size="14" lengthAdjust="spacingAndGlyphs" textLength="43" x="128.5" y="98.9951">server</text><!--entity initial_admin_created--><polygon fill="#FEFECE" filter="url(#f9sh6rg)" points="401.5,76,411.5,66,584.5,66,584.5,102.2969,574.5,112.2969,401.5,112.2969,401.5,76" style="stroke: #000000; stroke-width: 1.5;"/><line style="stroke: #000000; stroke-width: 1.5;" x1="574.5" x2="583.5" y1="76" y2="67"/><line style="stroke: #000000; stroke-width: 1.5;" x1="401.5" x2="574.5" y1="76" y2="76"/><line style="stroke: #000000; stroke-width: 1.5;" x1="574.5" x2="574.5" y1="76" y2="112.2969"/><text fill="#000000" font-family="sans-serif" font-size="14" lengthAdjust="spacingAndGlyphs" textLength="143" x="416.5" y="98.9951">initial_admin_created</text><!--entity admin_access--><polygon fill="#FEFECE" filter="url(#f9sh6rg)" points="1697,76,1707,66,1835,66,1835,102.2969,1825,112.2969,1697,112.2969,1697,76" style="stroke: #000000; stroke-width: 1.5;"/><line style="stroke: #000000; stroke-width: 1.5;" x1="1825" x2="1834" y1="76" y2="67"/><line style="stroke: #000000; stroke-width: 1.5;" x1="1697" x2="1825" y1="76" y2="76"/><line style="stroke: #000000; stroke-width: 1.5;" x1="1825" x2="1825" y1="76" y2="112.2969"/><text fill="#000000" font-family="sans-serif" font-size="14" lengthAdjust="spacingAndGlyphs" textLength="98" x="1712" y="98.9951">admin_access</text><!--entity prod--><polygon fill="#FEFECE" filter="url(#f9sh6rg)" points="6,76,16,66,78,66,78,102.2969,68,112.2969,6,112.2969,6,76" style="stroke: #000000; stroke-width: 1.5;"/><line style="stroke: #000000; stroke-width: 1.5;" x1="68" x2="77" y1="76" y2="67"/><line style="stroke: #000000; stroke-width: 1.5;" x1="6" x2="68" y1="76" y2="76"/><line style="stroke: #000000; stroke-width: 1.5;" x1="68" x2="68" y1="76" y2="112.2969"/><text fill="#000000" font-family="sans-serif" font-size="14" lengthAdjust="spacingAndGlyphs" textLength="32" x="21" y="98.9951">prod</text><!--entity localserver--><polygon fill="#FEFECE" filter="url(#f9sh6rg)" points="1870,76,1880,66,1984,66,1984,102.2969,1974,112.2969,1870,112.2969,1870,76" style="stroke: #000000; stroke-width: 1.5;"/><line style="stroke: #000000; stroke-width: 1.5;" x1="1974" x2="1983" y1="76" y2="67"/><line style="stroke: #000000; stroke-width: 1.5;" x1="1870" x2="1974" y1="76" y2="76"/><line style="stroke: #000000; stroke-width: 1.5;" x1="1974" x2="1974" y1="76" y2="112.2969"/><text fill="#000000" font-family="sans-serif" font-size="14" lengthAdjust="spacingAndGlyphs" textLength="74" x="1885" y="98.9951">localserver</text><!--entity initial_admin_static--><polygon fill="#FEFECE" filter="url(#f9sh6rg)" points="1154.5,76,1164.5,66,1321.5,66,1321.5,102.2969,1311.5,112.2969,1154.5,112.2969,1154.5,76" style="stroke: #000000; stroke-width: 1.5;"/><line style="stroke: #000000; stroke-width: 1.5;" x1="1311.5" x2="1320.5" y1="76" y2="67"/><line style="stroke: #000000; stroke-width: 1.5;" x1="1154.5" x2="1311.5" y1="76" y2="76"/><line style="stroke: #000000; stroke-width: 1.5;" x1="1311.5" x2="1311.5" y1="76" y2="112.2969"/><text fill="#000000" font-family="sans-serif" font-size="14" lengthAdjust="spacingAndGlyphs" textLength="127" x="1169.5" y="98.9951">initial_admin_static</text><!--entity mocked_products--><polygon fill="#FEFECE" filter="url(#f9sh6rg)" points="2112.5,76,2122.5,66,2277.5,66,2277.5,102.2969,2267.5,112.2969,2112.5,112.2969,2112.5,76" style="stroke: #000000; stroke-width: 1.5;"/><line style="stroke: #000000; stroke-width: 1.5;" x1="2267.5" x2="2276.5" y1="76" y2="67"/><line style="stroke: #000000; stroke-width: 1.5;" x1="2112.5" x2="2267.5" y1="76" y2="76"/><line style="stroke: #000000; stroke-width: 1.5;" x1="2267.5" x2="2267.5" y1="76" y2="112.2969"/><text fill="#000000" font-family="sans-serif" font-size="14" lengthAdjust="spacingAndGlyphs" textLength="125" x="2127.5" y="98.9951">mocked_products</text><!--entity integrationtest--><polygon fill="#FEFECE" filter="url(#f9sh6rg)" points="757.5,76,767.5,66,898.5,66,898.5,102.2969,888.5,112.2969,757.5,112.2969,757.5,76" style="stroke: #000000; stroke-width: 1.5;"/><line style="stroke: #000000; stroke-width: 1.5;" x1="888.5" x2="897.5" y1="76" y2="67"/><line style="stroke: #000000; stroke-width: 1.5;" x1="757.5" x2="888.5" y1="76" y2="76"/><line style="stroke: #000000; stroke-width: 1.5;" x1="888.5" x2="888.5" y1="76" y2="112.2969"/><text fill="#000000" font-family="sans-serif" font-size="14" lengthAdjust="spacingAndGlyphs" textLength="101" x="772.5" y="98.9951">integrationtest</text><!--entity debug--><polygon fill="#FEFECE" filter="url(#f9sh6rg)" points="2312.5,76,2322.5,66,2397.5,66,2397.5,102.2969,2387.5,112.2969,2312.5,112.2969,2312.5,76" style="stroke: #000000; stroke-width: 1.5;"/><line style="stroke: #000000; stroke-width: 1.5;" x1="2387.5" x2="2396.5" y1="76" y2="67"/><line style="stroke: #000000; stroke-width: 1.5;" x1="2312.5" x2="2387.5" y1="76" y2="76"/><line style="stroke: #000000; stroke-width: 1.5;" x1="2387.5" x2="2387.5" y1="76" y2="112.2969"/><text fill="#000000" font-family="sans-serif" font-size="14" lengthAdjust="spacingAndGlyphs" textLength="45" x="2327.5" y="98.9951">debug</text><!--entity mocked_notifications--><polygon fill="#FEFECE" filter="url(#f9sh6rg)" points="934,76,944,66,1120,66,1120,102.2969,1110,112.2969,934,112.2969,934,76" style="stroke: #000000; stroke-width: 1.5;"/><line style="stroke: #000000; stroke-width: 1.5;" x1="1110" x2="1119" y1="76" y2="67"/><line style="stroke: #000000; stroke-width: 1.5;" x1="934" x2="1110" y1="76" y2="76"/><line style="stroke: #000000; stroke-width: 1.5;" x1="1110" x2="1110" y1="76" y2="112.2969"/><text fill="#000000" font-family="sans-serif" font-size="14" lengthAdjust="spacingAndGlyphs" textLength="146" x="949" y="98.9951">mocked_notifications</text><!--entity default--><polygon fill="#FEFECE" filter="url(#f9sh6rg)" points="2004.5,182,2014.5,172,2091.5,172,2091.5,208.2969,2081.5,218.2969,2004.5,218.2969,2004.5,182" style="stroke: #000000; stroke-width: 1.5;"/><line style="stroke: #000000; stroke-width: 1.5;" x1="2081.5" x2="2090.5" y1="182" y2="173"/><line style="stroke: #000000; stroke-width: 1.5;" x1="2004.5" x2="2081.5" y1="182" y2="182"/><line style="stroke: #000000; stroke-width: 1.5;" x1="2081.5" x2="2081.5" y1="182" y2="218.2969"/><text fill="#000000" font-family="sans-serif" font-size="14" lengthAdjust="spacingAndGlyphs" textLength="47" x="2019.5" y="204.9951">default</text><!--entity initial_admin_predefined--><polygon fill="#FEFECE" filter="url(#f9sh6rg)" points="1456.5,76,1466.5,66,1661.5,66,1661.5,102.2969,1651.5,112.2969,1456.5,112.2969,1456.5,76" style="stroke: #000000; stroke-width: 1.5;"/><line style="stroke: #000000; stroke-width: 1.5;" x1="1651.5" x2="1660.5" y1="76" y2="67"/><line style="stroke: #000000; stroke-width: 1.5;" x1="1456.5" x2="1651.5" y1="76" y2="76"/><line style="stroke: #000000; stroke-width: 1.5;" x1="1651.5" x2="1651.5" y1="76" y2="112.2969"/><text fill="#000000" font-family="sans-serif" font-size="14" lengthAdjust="spacingAndGlyphs" textLength="165" x="1471.5" y="98.9951">initial_admin_predefined</text><!--entity dev--><polygon fill="#FEFECE" filter="url(#f9sh6rg)" points="1356.5,76,1366.5,66,1421.5,66,1421.5,102.2969,1411.5,112.2969,1356.5,112.2969,1356.5,76" style="stroke: #000000; stroke-width: 1.5;"/><line style="stroke: #000000; stroke-width: 1.5;" x1="1411.5" x2="1420.5" y1="76" y2="67"/><line style="stroke: #000000; stroke-width: 1.5;" x1="1356.5" x2="1411.5" y1="76" y2="76"/><line style="stroke: #000000; stroke-width: 1.5;" x1="1411.5" x2="1411.5" y1="76" y2="112.2969"/><text fill="#000000" font-family="sans-serif" font-size="14" lengthAdjust="spacingAndGlyphs" textLength="25" x="1371.5" y="98.9951">dev</text><!--entity test--><polygon fill="#FEFECE" filter="url(#f9sh6rg)" points="2126.5,182,2136.5,172,2193.5,172,2193.5,208.2969,2183.5,218.2969,2126.5,218.2969,2126.5,182" style="stroke: #000000; stroke-width: 1.5;"/><line style="stroke: #000000; stroke-width: 1.5;" x1="2183.5" x2="2192.5" y1="182" y2="173"/><line style="stroke: #000000; stroke-width: 1.5;" x1="2126.5" x2="2183.5" y1="182" y2="182"/><line style="stroke: #000000; stroke-width: 1.5;" x1="2183.5" x2="2183.5" y1="182" y2="218.2969"/><text fill="#000000" font-family="sans-serif" font-size="14" lengthAdjust="spacingAndGlyphs" textLength="27" x="2141.5" y="204.9951">test</text><path d="M65.2303,65.7736 C78.2422,54.4273 95.453,41.9594 113.5,36 C212.8881,3.1805 483.7622,7.5923 584.5,36 C603.7129,41.418 622.8691,52.4278 638.2526,63.0157 " fill="none" style="stroke: #A80036; stroke-width: 1.0;"/><polygon fill="#A80036" points="642.4884,65.9859,637.4159,57.5438,638.3945,63.1153,632.823,64.094,642.4884,65.9859" style="stroke: #A80036; stroke-width: 1.0;"/><path d="M65.2303,65.7736 C78.2422,54.4273 95.453,41.9594 113.5,36 C220.2736,0.7417 256.2608,13.8396 366.5,36 C393.638,41.4553 422.2145,52.8851 445.327,63.7384 " fill="none" style="stroke: #A80036; stroke-width: 1.0;"/><polygon fill="#A80036" points="449.8746,65.8995,443.4627,58.4237,445.3586,63.7534,440.0289,65.6492,449.8746,65.8995" style="stroke: #A80036; stroke-width: 1.0;"/><path d="M65.2303,65.7736 C78.2422,54.4273 95.453,41.9594 113.5,36 C148.5285,24.4331 160.6562,27.2814 196.5,36 C218.7517,41.4125 241.5689,52.5591 260.0096,63.2396 " fill="none" style="stroke: #A80036; stroke-width: 1.0;"/><polygon fill="#A80036" points="264.6007,65.9411,258.8727,57.9292,260.2915,63.4053,254.8154,64.824,264.6007,65.9411" style="stroke: #A80036; stroke-width: 1.0;"/><path d="M78.1953,89 C88.1592,89 98.1231,89 108.087,89 " fill="none" style="stroke: #A80036; stroke-width: 1.0;"/><polygon fill="#A80036" points="113.2975,89,104.2975,85,108.2975,89,104.2975,93,113.2975,89" style="stroke: #A80036; stroke-width: 1.0;"/><path d="M863.8612,65.9325 C883.8043,54.4783 909.5703,41.8604 934.5,36 C1031.9546,13.0908 1738.8184,10.0211 1835.5,36 C1855.5947,41.3996 1875.832,52.4073 1892.1466,62.9986 " fill="none" style="stroke: #A80036; stroke-width: 1.0;"/><polygon fill="#A80036" points="1896.6407,65.9699,1891.3392,57.6696,1892.4699,63.2123,1886.9271,64.343,1896.6407,65.9699" style="stroke: #A80036; stroke-width: 1.0;"/><path d="M863.8612,65.9325 C883.8043,54.4783 909.5703,41.8604 934.5,36 C1014.9731,17.0827 1039.6818,18.6162 1120.5,36 C1145.8273,41.4478 1172.2761,52.8067 1193.6528,63.6165 " fill="none" style="stroke: #A80036; stroke-width: 1.0;"/><polygon fill="#A80036" points="1198.1352,65.9125,1191.9486,58.2492,1193.6851,63.6329,1188.3013,65.3694,1198.1352,65.9125" style="stroke: #A80036; stroke-width: 1.0;"/><path d="M898.7383,89 C908.6935,89 918.6487,89 928.6039,89 " fill="none" style="stroke: #A80036; stroke-width: 1.0;"/><polygon fill="#A80036" points="933.8098,89,924.8098,85,928.8098,89,924.8098,93,933.8098,89" style="stroke: #A80036; stroke-width: 1.0;"/><path d="M863.8612,65.9325 C883.8043,54.4783 909.5703,41.8604 934.5,36 C1091.7686,-0.9701 1504.3731,-1.5678 1661.5,36 C1684.1164,41.4074 1707.3713,52.5534 1726.185,63.2349 " fill="none" style="stroke: #A80036; stroke-width: 1.0;"/><polygon fill="#A80036" points="1730.8693,65.9367,1725.0719,57.9749,1726.5382,63.4384,1721.0747,64.9047,1730.8693,65.9367" style="stroke: #A80036; stroke-width: 1.0;"/><path d="M1410.7013,65.7963 C1422.9203,54.4564 1439.1793,41.9874 1456.5,36 C1536.1005,8.4837 1754.163,14.1442 1835.5,36 C1855.5947,41.3996 1875.832,52.4073 1892.1466,62.9986 " fill="none" style="stroke: #A80036; stroke-width: 1.0;"/><polygon fill="#A80036" points="1896.6407,65.9699,1891.3392,57.6696,1892.4699,63.2123,1886.9271,64.343,1896.6407,65.9699" style="stroke: #A80036; stroke-width: 1.0;"/><path d="M1421.5391,89 C1431.4462,89 1441.3533,89 1451.2605,89 " fill="none" style="stroke: #A80036; stroke-width: 1.0;"/><polygon fill="#A80036" points="1456.4413,89,1447.4413,85,1451.4413,89,1447.4413,93,1456.4413,89" style="stroke: #A80036; stroke-width: 1.0;"/><path d="M1410.7013,65.7963 C1422.9203,54.4564 1439.1793,41.9874 1456.5,36 C1542.6113,6.233 1572.8865,14.8132 1661.5,36 C1684.1164,41.4074 1707.3713,52.5534 1726.185,63.2349 " fill="none" style="stroke: #A80036; stroke-width: 1.0;"/><polygon fill="#A80036" points="1730.8693,65.9367,1725.0719,57.9749,1726.5382,63.4384,1721.0747,64.9047,1730.8693,65.9367" style="stroke: #A80036; stroke-width: 1.0;"/></g></svg>