<?xml version="1.0" encoding="UTF-8" standalone="no"?><svg xmlns="http://www.w3.org/2000/svg" xmlns:xlink="http://www.w3.org/1999/xlink" contentScriptType="application/ecmascript" contentStyleType="text/css" height="220px" preserveAspectRatio="none" style="width:1622px;height:220px;" version="1.1" viewBox="0 0 1622 220" width="1622px" zoomAndPan="magnify"><defs><filter height="300%" id="f1m7ps9" width="300%" x="-1" y="-1"><feGaussianBlur result="blurOut" stdDeviation="2.0"/><feColorMatrix in="blurOut" result="blurOut2" type="matrix" values="0 0 0 0 0 0 0 0 0 0 0 0 0 0 0 0 0 0 .4 0"/><feOffset dx="4.0" dy="4.0" in="blurOut2" result="blurOut3"/><feBlend in="SourceGraphic" in2="blurOut3" mode="normal"/></filter></defs><g><!--entity real_products--><polygon fill="#FEFECE" filter="url(#f1m7ps9)" points="232,73,242,63,366,63,366,99.2969,356,109.2969,232,109.2969,232,73" style="stroke: #000000; stroke-width: 1.5;"/><line style="stroke: #000000; stroke-width: 1.5;" x1="356" x2="365" y1="73" y2="64"/><line style="stroke: #000000; stroke-width: 1.5;" x1="232" x2="356" y1="73" y2="73"/><line style="stroke: #000000; stroke-width: 1.5;" x1="356" x2="356" y1="73" y2="109.2969"/><text fill="#000000" font-family="sans-serif" font-size="14" lengthAdjust="spacingAndGlyphs" textLength="94" x="247" y="95.9951">real_products</text><!--entity postgres--><polygon fill="#FEFECE" filter="url(#f1m7ps9)" points="401,73,411,63,503,63,503,99.2969,493,109.2969,401,109.2969,401,73" style="stroke: #000000; stroke-width: 1.5;"/><line style="stroke: #000000; stroke-width: 1.5;" x1="493" x2="502" y1="73" y2="64"/><line style="stroke: #000000; stroke-width: 1.5;" x1="401" x2="493" y1="73" y2="73"/><line style="stroke: #000000; stroke-width: 1.5;" x1="493" x2="493" y1="73" y2="109.2969"/><text fill="#000000" font-family="sans-serif" font-size="14" lengthAdjust="spacingAndGlyphs" textLength="62" x="416" y="95.9951">postgres</text><!--entity h2--><polygon fill="#FEFECE" filter="url(#f1m7ps9)" points="1359,73,1369,63,1417,63,1417,99.2969,1407,109.2969,1359,109.2969,1359,73" style="stroke: #000000; stroke-width: 1.5;"/><line style="stroke: #000000; stroke-width: 1.5;" x1="1407" x2="1416" y1="73" y2="64"/><line style="stroke: #000000; stroke-width: 1.5;" x1="1359" x2="1407" y1="73" y2="73"/><line style="stroke: #000000; stroke-width: 1.5;" x1="1407" x2="1407" y1="73" y2="109.2969"/><text fill="#000000" font-family="sans-serif" font-size="14" lengthAdjust="spacingAndGlyphs" textLength="18" x="1374" y="95.9951">h2</text><!--entity server--><polygon fill="#FEFECE" filter="url(#f1m7ps9)" points="113.5,73,123.5,63,196.5,63,196.5,99.2969,186.5,109.2969,113.5,109.2969,113.5,73" style="stroke: #000000; stroke-width: 1.5;"/><line style="stroke: #000000; stroke-width: 1.5;" x1="186.5" x2="195.5" y1="73" y2="64"/><line style="stroke: #000000; stroke-width: 1.5;" x1="113.5" x2="186.5" y1="73" y2="73"/><line style="stroke: #000000; stroke-width: 1.5;" x1="186.5" x2="186.5" y1="73" y2="109.2969"/><text fill="#000000" font-family="sans-serif" font-size="14" lengthAdjust="spacingAndGlyphs" textLength="43" x="128.5" y="95.9951">server</text><!--entity admin_access--><polygon fill="#FEFECE" filter="url(#f1m7ps9)" points="1037,73,1047,63,1175,63,1175,99.2969,1165,109.2969,1037,109.2969,1037,73" style="stroke: #000000; stroke-width: 1.5;"/><line style="stroke: #000000; stroke-width: 1.5;" x1="1165" x2="1174" y1="73" y2="64"/><line style="stroke: #000000; stroke-width: 1.5;" x1="1037" x2="1165" y1="73" y2="73"/><line style="stroke: #000000; stroke-width: 1.5;" x1="1165" x2="1165" y1="73" y2="109.2969"/><text fill="#000000" font-family="sans-serif" font-size="14" lengthAdjust="spacingAndGlyphs" textLength="98" x="1052" y="95.9951">admin_access</text><!--entity prod--><polygon fill="#FEFECE" filter="url(#f1m7ps9)" points="6,73,16,63,78,63,78,99.2969,68,109.2969,6,109.2969,6,73" style="stroke: #000000; stroke-width: 1.5;"/><line style="stroke: #000000; stroke-width: 1.5;" x1="68" x2="77" y1="73" y2="64"/><line style="stroke: #000000; stroke-width: 1.5;" x1="6" x2="68" y1="73" y2="73"/><line style="stroke: #000000; stroke-width: 1.5;" x1="68" x2="68" y1="73" y2="109.2969"/><text fill="#000000" font-family="sans-serif" font-size="14" lengthAdjust="spacingAndGlyphs" textLength="32" x="21" y="95.9951">prod</text><!--entity localserver--><polygon fill="#FEFECE" filter="url(#f1m7ps9)" points="1210,73,1220,63,1324,63,1324,99.2969,1314,109.2969,1210,109.2969,1210,73" style="stroke: #000000; stroke-width: 1.5;"/><line style="stroke: #000000; stroke-width: 1.5;" x1="1314" x2="1323" y1="73" y2="64"/><line style="stroke: #000000; stroke-width: 1.5;" x1="1210" x2="1314" y1="73" y2="73"/><line style="stroke: #000000; stroke-width: 1.5;" x1="1314" x2="1314" y1="73" y2="109.2969"/><text fill="#000000" font-family="sans-serif" font-size="14" lengthAdjust="spacingAndGlyphs" textLength="74" x="1225" y="95.9951">localserver</text><!--entity mocked_products--><polygon fill="#FEFECE" filter="url(#f1m7ps9)" points="1452.5,73,1462.5,63,1617.5,63,1617.5,99.2969,1607.5,109.2969,1452.5,109.2969,1452.5,73" style="stroke: #000000; stroke-width: 1.5;"/><line style="stroke: #000000; stroke-width: 1.5;" x1="1607.5" x2="1616.5" y1="73" y2="64"/><line style="stroke: #000000; stroke-width: 1.5;" x1="1452.5" x2="1607.5" y1="73" y2="73"/><line style="stroke: #000000; stroke-width: 1.5;" x1="1607.5" x2="1607.5" y1="73" y2="109.2969"/><text fill="#000000" font-family="sans-serif" font-size="14" lengthAdjust="spacingAndGlyphs" textLength="125" x="1467.5" y="95.9951">mocked_products</text><!--entity integrationtest--><polygon fill="#FEFECE" filter="url(#f1m7ps9)" points="538.5,73,548.5,63,679.5,63,679.5,99.2969,669.5,109.2969,538.5,109.2969,538.5,73" style="stroke: #000000; stroke-width: 1.5;"/><line style="stroke: #000000; stroke-width: 1.5;" x1="669.5" x2="678.5" y1="73" y2="64"/><line style="stroke: #000000; stroke-width: 1.5;" x1="538.5" x2="669.5" y1="73" y2="73"/><line style="stroke: #000000; stroke-width: 1.5;" x1="669.5" x2="669.5" y1="73" y2="109.2969"/><text fill="#000000" font-family="sans-serif" font-size="14" lengthAdjust="spacingAndGlyphs" textLength="101" x="553.5" y="95.9951">integrationtest</text><!--entity mocked_notifications--><polygon fill="#FEFECE" filter="url(#f1m7ps9)" points="715,73,725,63,901,63,901,99.2969,891,109.2969,715,109.2969,715,73" style="stroke: #000000; stroke-width: 1.5;"/><line style="stroke: #000000; stroke-width: 1.5;" x1="891" x2="900" y1="73" y2="64"/><line style="stroke: #000000; stroke-width: 1.5;" x1="715" x2="891" y1="73" y2="73"/><line style="stroke: #000000; stroke-width: 1.5;" x1="891" x2="891" y1="73" y2="109.2969"/><text fill="#000000" font-family="sans-serif" font-size="14" lengthAdjust="spacingAndGlyphs" textLength="146" x="730" y="95.9951">mocked_notifications</text><!--entity default--><polygon fill="#FEFECE" filter="url(#f1m7ps9)" points="1344.5,179,1354.5,169,1431.5,169,1431.5,205.2969,1421.5,215.2969,1344.5,215.2969,1344.5,179" style="stroke: #000000; stroke-width: 1.5;"/><line style="stroke: #000000; stroke-width: 1.5;" x1="1421.5" x2="1430.5" y1="179" y2="170"/><line style="stroke: #000000; stroke-width: 1.5;" x1="1344.5" x2="1421.5" y1="179" y2="179"/><line style="stroke: #000000; stroke-width: 1.5;" x1="1421.5" x2="1421.5" y1="179" y2="215.2969"/><text fill="#000000" font-family="sans-serif" font-size="14" lengthAdjust="spacingAndGlyphs" textLength="47" x="1359.5" y="201.9951">default</text><!--entity dev--><polygon fill="#FEFECE" filter="url(#f1m7ps9)" points="936.5,73,946.5,63,1001.5,63,1001.5,99.2969,991.5,109.2969,936.5,109.2969,936.5,73" style="stroke: #000000; stroke-width: 1.5;"/><line style="stroke: #000000; stroke-width: 1.5;" x1="991.5" x2="1000.5" y1="73" y2="64"/><line style="stroke: #000000; stroke-width: 1.5;" x1="936.5" x2="991.5" y1="73" y2="73"/><line style="stroke: #000000; stroke-width: 1.5;" x1="991.5" x2="991.5" y1="73" y2="109.2969"/><text fill="#000000" font-family="sans-serif" font-size="14" lengthAdjust="spacingAndGlyphs" textLength="25" x="951.5" y="95.9951">dev</text><!--entity test--><polygon fill="#FEFECE" filter="url(#f1m7ps9)" points="1466.5,179,1476.5,169,1533.5,169,1533.5,205.2969,1523.5,215.2969,1466.5,215.2969,1466.5,179" style="stroke: #000000; stroke-width: 1.5;"/><line style="stroke: #000000; stroke-width: 1.5;" x1="1523.5" x2="1532.5" y1="179" y2="170"/><line style="stroke: #000000; stroke-width: 1.5;" x1="1466.5" x2="1523.5" y1="179" y2="179"/><line style="stroke: #000000; stroke-width: 1.5;" x1="1523.5" x2="1523.5" y1="179" y2="215.2969"/><text fill="#000000" font-family="sans-serif" font-size="14" lengthAdjust="spacingAndGlyphs" textLength="27" x="1481.5" y="201.9951">test</text><path d="M65.2303,62.7736 C78.2422,51.4273 95.453,38.9594 113.5,33 C220.2736,-2.2583 258.3559,2.2004 366.5,33 C385.5377,38.422 404.4778,49.4322 419.6749,60.0195 " fill="none" style="stroke: #A80036; stroke-width: 1.0;"/><polygon fill="#A80036" points="423.8589,62.9894,418.8351,54.5182,419.7816,60.0953,414.2045,61.0418,423.8589,62.9894" style="stroke: #A80036; stroke-width: 1.0;"/><path d="M65.2303,62.7736 C78.2422,51.4273 95.453,38.9594 113.5,33 C148.5285,21.4331 160.6562,24.2814 196.5,33 C218.7517,38.4125 241.5689,49.5591 260.0096,60.2396 " fill="none" style="stroke: #A80036; stroke-width: 1.0;"/><polygon fill="#A80036" points="264.6007,62.9411,258.8727,54.9292,260.2915,60.4053,254.8154,61.824,264.6007,62.9411" style="stroke: #A80036; stroke-width: 1.0;"/><path d="M78.1953,86 C88.1592,86 98.1231,86 108.087,86 " fill="none" style="stroke: #A80036; stroke-width: 1.0;"/><polygon fill="#A80036" points="113.2975,86,104.2975,82,108.2975,86,104.2975,90,113.2975,86" style="stroke: #A80036; stroke-width: 1.0;"/><path d="M644.8612,62.9325 C664.8043,51.4783 690.5703,38.8604 715.5,33 C815.0097,9.6077 1076.7796,6.4732 1175.5,33 C1195.5947,38.3996 1215.832,49.4073 1232.1466,59.9986 " fill="none" style="stroke: #A80036; stroke-width: 1.0;"/><polygon fill="#A80036" points="1236.6407,62.9699,1231.3392,54.6696,1232.4699,60.2123,1226.9271,61.343,1236.6407,62.9699" style="stroke: #A80036; stroke-width: 1.0;"/><path d="M679.7383,86 C689.6935,86 699.6487,86 709.6039,86 " fill="none" style="stroke: #A80036; stroke-width: 1.0;"/><polygon fill="#A80036" points="714.8098,86,705.8098,82,709.8098,86,705.8098,90,714.8098,86" style="stroke: #A80036; stroke-width: 1.0;"/><path d="M644.8612,62.9325 C664.8043,51.4783 690.5703,38.8604 715.5,33 C839.2382,3.9121 877.8733,3.4418 1001.5,33 C1024.1164,38.4074 1047.3713,49.5534 1066.185,60.2349 " fill="none" style="stroke: #A80036; stroke-width: 1.0;"/><polygon fill="#A80036" points="1070.8693,62.9367,1065.0719,54.9749,1066.5382,60.4384,1061.0747,61.9047,1070.8693,62.9367" style="stroke: #A80036; stroke-width: 1.0;"/><path d="M991.0843,62.7904 C1003.5018,51.4487 1019.9987,38.9801 1037.5,33 C1095.5387,13.1685 1116.2678,17.0839 1175.5,33 C1195.5947,38.3996 1215.832,49.4073 1232.1466,59.9986 " fill="none" style="stroke: #A80036; stroke-width: 1.0;"/><polygon fill="#A80036" points="1236.6407,62.9699,1231.3392,54.6696,1232.4699,60.2123,1226.9271,61.343,1236.6407,62.9699" style="stroke: #A80036; stroke-width: 1.0;"/><path d="M1001.6445,86 C1011.5956,86 1021.5466,86 1031.4977,86 " fill="none" style="stroke: #A80036; stroke-width: 1.0;"/><polygon fill="#A80036" points="1036.7014,86,1027.7014,82,1031.7014,86,1027.7014,90,1036.7014,86" style="stroke: #A80036; stroke-width: 1.0;"/></g></svg>