<?xml version="1.0" encoding="UTF-8" standalone="no"?><svg xmlns="http://www.w3.org/2000/svg" xmlns:xlink="http://www.w3.org/1999/xlink" contentScriptType="application/ecmascript" contentStyleType="text/css" height="216px" preserveAspectRatio="none" style="width:935px;height:216px;" version="1.1" viewBox="0 0 935 216" width="935px" zoomAndPan="magnify"><defs><filter height="300%" id="ff2ev2u" width="300%" x="-1" y="-1"><feGaussianBlur result="blurOut" stdDeviation="2.0"/><feColorMatrix in="blurOut" result="blurOut2" type="matrix" values="0 0 0 0 0 0 0 0 0 0 0 0 0 0 0 0 0 0 .4 0"/><feOffset dx="4.0" dy="4.0" in="blurOut2" result="blurOut3"/><feBlend in="SourceGraphic" in2="blurOut3" mode="normal"/></filter></defs><g><!--cluster <integrationtest>--><polygon fill="#FFFFFF" filter="url(#ff2ev2u)" points="259,24,406,24,413,46.2969,433,46.2969,433,121,259,121,259,24" style="stroke: #000000; stroke-width: 2.0;"/><line style="stroke: #000000; stroke-width: 2.0;" x1="259" x2="413" y1="46.2969" y2="46.2969"/><text fill="#000000" font-family="sans-serif" font-size="14" font-weight="bold" lengthAdjust="spacingAndGlyphs" textLength="141" x="263" y="38.9951">&lt;integrationtest&gt;</text><!--entity integrationtest--><polygon fill="#FEFECE" filter="url(#ff2ev2u)" points="275.5,69,285.5,59,416.5,59,416.5,95.2969,406.5,105.2969,275.5,105.2969,275.5,69" style="stroke: #000000; stroke-width: 1.5;"/><line style="stroke: #000000; stroke-width: 1.5;" x1="406.5" x2="415.5" y1="69" y2="60"/><line style="stroke: #000000; stroke-width: 1.5;" x1="275.5" x2="406.5" y1="69" y2="69"/><line style="stroke: #000000; stroke-width: 1.5;" x1="406.5" x2="406.5" y1="69" y2="105.2969"/><text fill="#000000" font-family="sans-serif" font-size="14" lengthAdjust="spacingAndGlyphs" textLength="101" x="290.5" y="91.9951">integrationtest</text><!--entity real_products--><polygon fill="#FEFECE" filter="url(#ff2ev2u)" points="634,69,644,59,768,59,768,95.2969,758,105.2969,634,105.2969,634,69" style="stroke: #000000; stroke-width: 1.5;"/><line style="stroke: #000000; stroke-width: 1.5;" x1="758" x2="767" y1="69" y2="60"/><line style="stroke: #000000; stroke-width: 1.5;" x1="634" x2="758" y1="69" y2="69"/><line style="stroke: #000000; stroke-width: 1.5;" x1="758" x2="758" y1="69" y2="105.2969"/><text fill="#000000" font-family="sans-serif" font-size="14" lengthAdjust="spacingAndGlyphs" textLength="94" x="649" y="91.9951">real_products</text><!--entity postgres--><polygon fill="#FEFECE" filter="url(#ff2ev2u)" points="803,69,813,59,905,59,905,95.2969,895,105.2969,803,105.2969,803,69" style="stroke: #000000; stroke-width: 1.5;"/><line style="stroke: #000000; stroke-width: 1.5;" x1="895" x2="904" y1="69" y2="60"/><line style="stroke: #000000; stroke-width: 1.5;" x1="803" x2="895" y1="69" y2="69"/><line style="stroke: #000000; stroke-width: 1.5;" x1="895" x2="895" y1="69" y2="105.2969"/><text fill="#000000" font-family="sans-serif" font-size="14" lengthAdjust="spacingAndGlyphs" textLength="62" x="818" y="91.9951">postgres</text><!--entity h2--><polygon fill="#FEFECE" filter="url(#ff2ev2u)" points="672,175,682,165,730,165,730,201.2969,720,211.2969,672,211.2969,672,175" style="stroke: #000000; stroke-width: 1.5;"/><line style="stroke: #000000; stroke-width: 1.5;" x1="720" x2="729" y1="175" y2="166"/><line style="stroke: #000000; stroke-width: 1.5;" x1="672" x2="720" y1="175" y2="175"/><line style="stroke: #000000; stroke-width: 1.5;" x1="720" x2="720" y1="175" y2="211.2969"/><text fill="#000000" font-family="sans-serif" font-size="14" lengthAdjust="spacingAndGlyphs" textLength="18" x="687" y="197.9951">h2</text><!--entity admin_access--><polygon fill="#FEFECE" filter="url(#ff2ev2u)" points="376,175,386,165,514,165,514,201.2969,504,211.2969,376,211.2969,376,175" style="stroke: #000000; stroke-width: 1.5;"/><line style="stroke: #000000; stroke-width: 1.5;" x1="504" x2="513" y1="175" y2="166"/><line style="stroke: #000000; stroke-width: 1.5;" x1="376" x2="504" y1="175" y2="175"/><line style="stroke: #000000; stroke-width: 1.5;" x1="504" x2="504" y1="175" y2="211.2969"/><text fill="#000000" font-family="sans-serif" font-size="14" lengthAdjust="spacingAndGlyphs" textLength="98" x="391" y="197.9951">admin_access</text><!--entity localserver--><polygon fill="#FEFECE" filter="url(#ff2ev2u)" points="6,175,16,165,120,165,120,201.2969,110,211.2969,6,211.2969,6,175" style="stroke: #000000; stroke-width: 1.5;"/><line style="stroke: #000000; stroke-width: 1.5;" x1="110" x2="119" y1="175" y2="166"/><line style="stroke: #000000; stroke-width: 1.5;" x1="6" x2="110" y1="175" y2="175"/><line style="stroke: #000000; stroke-width: 1.5;" x1="110" x2="110" y1="175" y2="211.2969"/><text fill="#000000" font-family="sans-serif" font-size="14" lengthAdjust="spacingAndGlyphs" textLength="74" x="21" y="197.9951">localserver</text><!--entity mocked_products--><polygon fill="#FEFECE" filter="url(#ff2ev2u)" points="765.5,175,775.5,165,930.5,165,930.5,201.2969,920.5,211.2969,765.5,211.2969,765.5,175" style="stroke: #000000; stroke-width: 1.5;"/><line style="stroke: #000000; stroke-width: 1.5;" x1="920.5" x2="929.5" y1="175" y2="166"/><line style="stroke: #000000; stroke-width: 1.5;" x1="765.5" x2="920.5" y1="175" y2="175"/><line style="stroke: #000000; stroke-width: 1.5;" x1="920.5" x2="920.5" y1="175" y2="211.2969"/><text fill="#000000" font-family="sans-serif" font-size="14" lengthAdjust="spacingAndGlyphs" textLength="125" x="780.5" y="197.9951">mocked_products</text><!--entity mocked_notifications--><polygon fill="#FEFECE" filter="url(#ff2ev2u)" points="155,175,165,165,341,165,341,201.2969,331,211.2969,155,211.2969,155,175" style="stroke: #000000; stroke-width: 1.5;"/><line style="stroke: #000000; stroke-width: 1.5;" x1="331" x2="340" y1="175" y2="166"/><line style="stroke: #000000; stroke-width: 1.5;" x1="155" x2="331" y1="175" y2="175"/><line style="stroke: #000000; stroke-width: 1.5;" x1="331" x2="331" y1="175" y2="211.2969"/><text fill="#000000" font-family="sans-serif" font-size="14" lengthAdjust="spacingAndGlyphs" textLength="146" x="170" y="197.9951">mocked_notifications</text><!--entity default--><polygon fill="#FEFECE" filter="url(#ff2ev2u)" points="549.5,175,559.5,165,636.5,165,636.5,201.2969,626.5,211.2969,549.5,211.2969,549.5,175" style="stroke: #000000; stroke-width: 1.5;"/><line style="stroke: #000000; stroke-width: 1.5;" x1="626.5" x2="635.5" y1="175" y2="166"/><line style="stroke: #000000; stroke-width: 1.5;" x1="549.5" x2="626.5" y1="175" y2="175"/><line style="stroke: #000000; stroke-width: 1.5;" x1="626.5" x2="626.5" y1="175" y2="211.2969"/><text fill="#000000" font-family="sans-serif" font-size="14" lengthAdjust="spacingAndGlyphs" textLength="47" x="564.5" y="197.9951">default</text><path d="M284.5932,105.0004 C237.4434,122.6608 172.6029,146.9473 125.2451,164.6856 " fill="none" style="stroke: #A80036; stroke-width: 1.0;"/><polygon fill="#A80036" points="120.4291,166.4895,130.2603,167.0784,125.1114,164.7356,127.4542,159.5867,120.4291,166.4895" style="stroke: #A80036; stroke-width: 1.0;"/><path d="M324.7355,105.0004 C309.558,121.4168 289.0871,143.5588 273.1061,160.8444 " fill="none" style="stroke: #A80036; stroke-width: 1.0;"/><polygon fill="#A80036" points="269.5615,164.6784,278.6083,160.7853,272.9557,161.007,272.734,155.3545,269.5615,164.6784" style="stroke: #A80036; stroke-width: 1.0;"/><path d="M367.4815,105.0004 C382.8138,121.4168 403.4936,143.5588 419.6377,160.8444 " fill="none" style="stroke: #A80036; stroke-width: 1.0;"/><polygon fill="#A80036" points="423.2185,164.6784,419.9987,155.3707,419.8057,161.0243,414.1521,160.8313,423.2185,164.6784" style="stroke: #A80036; stroke-width: 1.0;"/><path d="M399.5953,105.0004 C442.7669,123.5275 502.9315,149.3471 544.6448,167.2484 " fill="none" style="stroke: #A80036; stroke-width: 1.0;"/><polygon fill="#A80036" points="549.3833,169.2819,542.6902,162.0568,544.7885,167.3101,539.5353,169.4084,549.3833,169.2819" style="stroke: #A80036; stroke-width: 1.0;"/></g></svg>