<?xml version="1.0" encoding="UTF-8" standalone="no"?><svg xmlns="http://www.w3.org/2000/svg" xmlns:xlink="http://www.w3.org/1999/xlink" contentScriptType="application/ecmascript" contentStyleType="text/css" height="151px" preserveAspectRatio="none" style="width:881px;height:151px;" version="1.1" viewBox="0 0 881 151" width="881px" zoomAndPan="magnify"><defs><filter height="300%" id="f1tfitpjfet7hb" width="300%" x="-1" y="-1"><feGaussianBlur result="blurOut" stdDeviation="2.0"/><feColorMatrix in="blurOut" result="blurOut2" type="matrix" values="0 0 0 0 0 0 0 0 0 0 0 0 0 0 0 0 0 0 .4 0"/><feOffset dx="4.0" dy="4.0" in="blurOut2" result="blurOut3"/><feBlend in="SourceGraphic" in2="blurOut3" mode="normal"/></filter></defs><g><!--cluster <prod>--><polygon fill="#FFFFFF" filter="url(#f1tfitpjfet7hb)" points="14,58,81,58,88,80.2969,102,80.2969,102,139,14,139,14,58" style="stroke: #000000; stroke-width: 1.5;"/><line style="stroke: #000000; stroke-width: 1.5;" x1="14" x2="88" y1="80.2969" y2="80.2969"/><text fill="#000000" font-family="sans-serif" font-size="14" font-weight="bold" lengthAdjust="spacingAndGlyphs" textLength="61" x="18" y="72.9951">&lt;prod&gt;</text><!--entity prod--><polygon fill="#FEFECE" filter="url(#f1tfitpjfet7hb)" points="22,95,32,85,94,85,94,121.2969,84,131.2969,22,131.2969,22,95" style="stroke: #000000; stroke-width: 1.5;"/><line style="stroke: #000000; stroke-width: 1.5;" x1="84" x2="93" y1="95" y2="86"/><line style="stroke: #000000; stroke-width: 1.5;" x1="22" x2="84" y1="95" y2="95"/><line style="stroke: #000000; stroke-width: 1.5;" x1="84" x2="84" y1="95" y2="131.2969"/><text fill="#000000" font-family="sans-serif" font-size="14" lengthAdjust="spacingAndGlyphs" textLength="32" x="37" y="117.9951">prod</text><!--entity postgres--><polygon fill="#FEFECE" filter="url(#f1tfitpjfet7hb)" points="129,95,139,85,231,85,231,121.2969,221,131.2969,129,131.2969,129,95" style="stroke: #000000; stroke-width: 1.5;"/><line style="stroke: #000000; stroke-width: 1.5;" x1="221" x2="230" y1="95" y2="86"/><line style="stroke: #000000; stroke-width: 1.5;" x1="129" x2="221" y1="95" y2="95"/><line style="stroke: #000000; stroke-width: 1.5;" x1="221" x2="221" y1="95" y2="131.2969"/><text fill="#000000" font-family="sans-serif" font-size="14" lengthAdjust="spacingAndGlyphs" textLength="62" x="144" y="117.9951">postgres</text><!--entity real_products--><polygon fill="#FEFECE" filter="url(#f1tfitpjfet7hb)" points="485,95,495,85,619,85,619,121.2969,609,131.2969,485,131.2969,485,95" style="stroke: #000000; stroke-width: 1.5;"/><line style="stroke: #000000; stroke-width: 1.5;" x1="609" x2="618" y1="95" y2="86"/><line style="stroke: #000000; stroke-width: 1.5;" x1="485" x2="609" y1="95" y2="95"/><line style="stroke: #000000; stroke-width: 1.5;" x1="609" x2="609" y1="95" y2="131.2969"/><text fill="#000000" font-family="sans-serif" font-size="14" lengthAdjust="spacingAndGlyphs" textLength="94" x="500" y="117.9951">real_products</text><!--entity default--><polygon fill="#FEFECE" filter="url(#f1tfitpjfet7hb)" points="772.5,95,782.5,85,859.5,85,859.5,121.2969,849.5,131.2969,772.5,131.2969,772.5,95" style="stroke: #000000; stroke-width: 1.5;"/><line style="stroke: #000000; stroke-width: 1.5;" x1="849.5" x2="858.5" y1="95" y2="86"/><line style="stroke: #000000; stroke-width: 1.5;" x1="772.5" x2="849.5" y1="95" y2="95"/><line style="stroke: #000000; stroke-width: 1.5;" x1="849.5" x2="849.5" y1="95" y2="131.2969"/><text fill="#000000" font-family="sans-serif" font-size="14" lengthAdjust="spacingAndGlyphs" textLength="47" x="787.5" y="117.9951">default</text><!--entity server--><polygon fill="#FEFECE" filter="url(#f1tfitpjfet7hb)" points="654.5,95,664.5,85,737.5,85,737.5,121.2969,727.5,131.2969,654.5,131.2969,654.5,95" style="stroke: #000000; stroke-width: 1.5;"/><line style="stroke: #000000; stroke-width: 1.5;" x1="727.5" x2="736.5" y1="95" y2="86"/><line style="stroke: #000000; stroke-width: 1.5;" x1="654.5" x2="727.5" y1="95" y2="95"/><line style="stroke: #000000; stroke-width: 1.5;" x1="727.5" x2="727.5" y1="95" y2="131.2969"/><text fill="#000000" font-family="sans-serif" font-size="14" lengthAdjust="spacingAndGlyphs" textLength="43" x="669.5" y="117.9951">server</text><!--entity initial_admin_created--><polygon fill="#FEFECE" filter="url(#f1tfitpjfet7hb)" points="266.5,95,276.5,85,449.5,85,449.5,121.2969,439.5,131.2969,266.5,131.2969,266.5,95" style="stroke: #000000; stroke-width: 1.5;"/><line style="stroke: #000000; stroke-width: 1.5;" x1="439.5" x2="448.5" y1="95" y2="86"/><line style="stroke: #000000; stroke-width: 1.5;" x1="266.5" x2="439.5" y1="95" y2="95"/><line style="stroke: #000000; stroke-width: 1.5;" x1="439.5" x2="439.5" y1="95" y2="131.2969"/><text fill="#000000" font-family="sans-serif" font-size="14" lengthAdjust="spacingAndGlyphs" textLength="143" x="281.5" y="117.9951">initial_admin_created</text><!--link prod to postgres--><path d="M94.2188,108 C104.0156,108 113.8124,108 123.6092,108 " fill="none" id="prod-postgres" style="stroke: #A80036; stroke-width: 1.0;"/><polygon fill="#A80036" points="128.7323,108,119.7323,104,123.7323,108,119.7323,112,128.7323,108" style="stroke: #A80036; stroke-width: 1.0;"/><!--link prod to initial_admin_created--><path d="M71.0169,84.8437 C83.2945,65.5989 103.6551,39.564 129.5,28 C170.88,9.485 187.9567,15.3867 231.5,28 C267.5989,38.4569 303.286,62.6335 327.5041,81.6896 " fill="none" id="prod-initial_admin_created" style="stroke: #A80036; stroke-width: 1.0;"/><polygon fill="#A80036" points="331.5899,84.9418,327.0396,76.2071,327.678,81.8278,322.0572,82.4662,331.5899,84.9418" style="stroke: #A80036; stroke-width: 1.0;"/><!--link prod to real_products--><path d="M71.0169,84.8437 C83.2945,65.5989 103.6551,39.564 129.5,28 C194.4098,-1.0432 382.2574,4.8651 449.5,28 C479.9175,38.4651 508.2312,62.0675 527.3585,80.9391 " fill="none" id="prod-real_products" style="stroke: #A80036; stroke-width: 1.0;"/><polygon fill="#A80036" points="531.0594,84.6451,527.5302,75.4503,527.5263,81.1071,521.8694,81.1033,531.0594,84.6451" style="stroke: #A80036; stroke-width: 1.0;"/><!--link prod to server--><path d="M71.0169,84.8437 C83.2945,65.5989 103.6551,39.564 129.5,28 C179.1966,5.7638 569.436,6.604 619.5,28 C644.4711,38.672 665.1841,61.9386 678.731,80.6434 " fill="none" id="prod-server" style="stroke: #A80036; stroke-width: 1.0;"/><polygon fill="#A80036" points="681.6804,84.8017,679.7359,75.1467,678.7876,80.7235,673.2108,79.7752,681.6804,84.8017" style="stroke: #A80036; stroke-width: 1.0;"/><!--link prod to default--><path d="M71.0169,84.8437 C83.2945,65.5989 103.6551,39.564 129.5,28 C191.1643,0.409 675.2098,1.8526 737.5,28 C762.8542,38.6429 784.1367,61.9125 798.1171,80.6259 " fill="none" id="prod-default" style="stroke: #A80036; stroke-width: 1.0;"/><polygon fill="#A80036" points="801.1624,84.7862,799.0741,75.1613,798.2091,80.7516,792.6188,79.8866,801.1624,84.7862" style="stroke: #A80036; stroke-width: 1.0;"/><!--
@startuml
node postgres
package <prod>{
   node prod
}
node real_products
node default
node server
node initial_admin_created
prod -> postgres
prod -> initial_admin_created
prod -> real_products
prod -> server
prod -> default
@enduml

PlantUML version 1.2018.13(Mon Nov 26 17:11:51 UTC 2018)
(APACHE source distribution)
Java Runtime: OpenJDK Runtime Environment
JVM: OpenJDK 64-Bit Server VM
Java Version: 1.8.0_282-b08
Operating System: Linux
OS Version: 5.4.0-1036-azure
Default Encoding: UTF-8
Language: en
Country: 
--></g></svg>