<?xml version="1.0" encoding="UTF-8" standalone="no"?><svg xmlns="http://www.w3.org/2000/svg" xmlns:xlink="http://www.w3.org/1999/xlink" contentScriptType="application/ecmascript" contentStyleType="text/css" height="258px" preserveAspectRatio="none" style="width:1360px;height:258px;" version="1.1" viewBox="0 0 1360 258" width="1360px" zoomAndPan="magnify"><defs><filter height="300%" id="f19e27u838jlie" width="300%" x="-1" y="-1"><feGaussianBlur result="blurOut" stdDeviation="2.0"/><feColorMatrix in="blurOut" result="blurOut2" type="matrix" values="0 0 0 0 0 0 0 0 0 0 0 0 0 0 0 0 0 0 .4 0"/><feOffset dx="4.0" dy="4.0" in="blurOut2" result="blurOut3"/><feBlend in="SourceGraphic" in2="blurOut3" mode="normal"/></filter></defs><g><!--cluster <integrationtest>--><polygon fill="#FFFFFF" filter="url(#f19e27u838jlie)" points="14,67,161,67,168,89.2969,172,89.2969,172,148,14,148,14,67" style="stroke: #000000; stroke-width: 1.5;"/><line style="stroke: #000000; stroke-width: 1.5;" x1="14" x2="168" y1="89.2969" y2="89.2969"/><text fill="#000000" font-family="sans-serif" font-size="14" font-weight="bold" lengthAdjust="spacingAndGlyphs" textLength="141" x="18" y="81.9951">&lt;integrationtest&gt;</text><!--entity integrationtest--><polygon fill="#FEFECE" filter="url(#f19e27u838jlie)" points="22.5,104,32.5,94,163.5,94,163.5,130.2969,153.5,140.2969,22.5,140.2969,22.5,104" style="stroke: #000000; stroke-width: 1.5;"/><line style="stroke: #000000; stroke-width: 1.5;" x1="153.5" x2="162.5" y1="104" y2="95"/><line style="stroke: #000000; stroke-width: 1.5;" x1="22.5" x2="153.5" y1="104" y2="104"/><line style="stroke: #000000; stroke-width: 1.5;" x1="153.5" x2="153.5" y1="104" y2="140.2969"/><text fill="#000000" font-family="sans-serif" font-size="14" lengthAdjust="spacingAndGlyphs" textLength="101" x="37.5" y="126.9951">integrationtest</text><!--entity default--><polygon fill="#FEFECE" filter="url(#f19e27u838jlie)" points="944.5,104,954.5,94,1031.5,94,1031.5,130.2969,1021.5,140.2969,944.5,140.2969,944.5,104" style="stroke: #000000; stroke-width: 1.5;"/><line style="stroke: #000000; stroke-width: 1.5;" x1="1021.5" x2="1030.5" y1="104" y2="95"/><line style="stroke: #000000; stroke-width: 1.5;" x1="944.5" x2="1021.5" y1="104" y2="104"/><line style="stroke: #000000; stroke-width: 1.5;" x1="1021.5" x2="1021.5" y1="104" y2="140.2969"/><text fill="#000000" font-family="sans-serif" font-size="14" lengthAdjust="spacingAndGlyphs" textLength="47" x="959.5" y="126.9951">default</text><!--entity postgres--><polygon fill="#FEFECE" filter="url(#f19e27u838jlie)" points="1067,104,1077,94,1169,94,1169,130.2969,1159,140.2969,1067,140.2969,1067,104" style="stroke: #000000; stroke-width: 1.5;"/><line style="stroke: #000000; stroke-width: 1.5;" x1="1159" x2="1168" y1="104" y2="95"/><line style="stroke: #000000; stroke-width: 1.5;" x1="1067" x2="1159" y1="104" y2="104"/><line style="stroke: #000000; stroke-width: 1.5;" x1="1159" x2="1159" y1="104" y2="140.2969"/><text fill="#000000" font-family="sans-serif" font-size="14" lengthAdjust="spacingAndGlyphs" textLength="62" x="1082" y="126.9951">postgres</text><!--entity real_products--><polygon fill="#FEFECE" filter="url(#f19e27u838jlie)" points="1204,104,1214,94,1338,94,1338,130.2969,1328,140.2969,1204,140.2969,1204,104" style="stroke: #000000; stroke-width: 1.5;"/><line style="stroke: #000000; stroke-width: 1.5;" x1="1328" x2="1337" y1="104" y2="95"/><line style="stroke: #000000; stroke-width: 1.5;" x1="1204" x2="1328" y1="104" y2="104"/><line style="stroke: #000000; stroke-width: 1.5;" x1="1328" x2="1328" y1="104" y2="140.2969"/><text fill="#000000" font-family="sans-serif" font-size="14" lengthAdjust="spacingAndGlyphs" textLength="94" x="1219" y="126.9951">real_products</text><!--entity mocked_products--><polygon fill="#FEFECE" filter="url(#f19e27u838jlie)" points="1035.5,210,1045.5,200,1200.5,200,1200.5,236.2969,1190.5,246.2969,1035.5,246.2969,1035.5,210" style="stroke: #000000; stroke-width: 1.5;"/><line style="stroke: #000000; stroke-width: 1.5;" x1="1190.5" x2="1199.5" y1="210" y2="201"/><line style="stroke: #000000; stroke-width: 1.5;" x1="1035.5" x2="1190.5" y1="210" y2="210"/><line style="stroke: #000000; stroke-width: 1.5;" x1="1190.5" x2="1190.5" y1="210" y2="246.2969"/><text fill="#000000" font-family="sans-serif" font-size="14" lengthAdjust="spacingAndGlyphs" textLength="125" x="1050.5" y="232.9951">mocked_products</text><!--entity mocked_notifications--><polygon fill="#FEFECE" filter="url(#f19e27u838jlie)" points="550,104,560,94,736,94,736,130.2969,726,140.2969,550,140.2969,550,104" style="stroke: #000000; stroke-width: 1.5;"/><line style="stroke: #000000; stroke-width: 1.5;" x1="726" x2="735" y1="104" y2="95"/><line style="stroke: #000000; stroke-width: 1.5;" x1="550" x2="726" y1="104" y2="104"/><line style="stroke: #000000; stroke-width: 1.5;" x1="726" x2="726" y1="104" y2="140.2969"/><text fill="#000000" font-family="sans-serif" font-size="14" lengthAdjust="spacingAndGlyphs" textLength="146" x="565" y="126.9951">mocked_notifications</text><!--entity localserver--><polygon fill="#FEFECE" filter="url(#f19e27u838jlie)" points="199,104,209,94,313,94,313,130.2969,303,140.2969,199,140.2969,199,104" style="stroke: #000000; stroke-width: 1.5;"/><line style="stroke: #000000; stroke-width: 1.5;" x1="303" x2="312" y1="104" y2="95"/><line style="stroke: #000000; stroke-width: 1.5;" x1="199" x2="303" y1="104" y2="104"/><line style="stroke: #000000; stroke-width: 1.5;" x1="303" x2="303" y1="104" y2="140.2969"/><text fill="#000000" font-family="sans-serif" font-size="14" lengthAdjust="spacingAndGlyphs" textLength="74" x="214" y="126.9951">localserver</text><!--entity initial_admin_static--><polygon fill="#FEFECE" filter="url(#f19e27u838jlie)" points="348.5,104,358.5,94,515.5,94,515.5,130.2969,505.5,140.2969,348.5,140.2969,348.5,104" style="stroke: #000000; stroke-width: 1.5;"/><line style="stroke: #000000; stroke-width: 1.5;" x1="505.5" x2="514.5" y1="104" y2="95"/><line style="stroke: #000000; stroke-width: 1.5;" x1="348.5" x2="505.5" y1="104" y2="104"/><line style="stroke: #000000; stroke-width: 1.5;" x1="505.5" x2="505.5" y1="104" y2="140.2969"/><text fill="#000000" font-family="sans-serif" font-size="14" lengthAdjust="spacingAndGlyphs" textLength="127" x="363.5" y="126.9951">initial_admin_static</text><!--entity admin_access--><polygon fill="#FEFECE" filter="url(#f19e27u838jlie)" points="771,104,781,94,909,94,909,130.2969,899,140.2969,771,140.2969,771,104" style="stroke: #000000; stroke-width: 1.5;"/><line style="stroke: #000000; stroke-width: 1.5;" x1="899" x2="908" y1="104" y2="95"/><line style="stroke: #000000; stroke-width: 1.5;" x1="771" x2="899" y1="104" y2="104"/><line style="stroke: #000000; stroke-width: 1.5;" x1="899" x2="899" y1="104" y2="140.2969"/><text fill="#000000" font-family="sans-serif" font-size="14" lengthAdjust="spacingAndGlyphs" textLength="98" x="786" y="126.9951">admin_access</text><!--entity h2--><polygon fill="#FEFECE" filter="url(#f19e27u838jlie)" points="1236,210,1246,200,1294,200,1294,236.2969,1284,246.2969,1236,246.2969,1236,210" style="stroke: #000000; stroke-width: 1.5;"/><line style="stroke: #000000; stroke-width: 1.5;" x1="1284" x2="1293" y1="210" y2="201"/><line style="stroke: #000000; stroke-width: 1.5;" x1="1236" x2="1284" y1="210" y2="210"/><line style="stroke: #000000; stroke-width: 1.5;" x1="1284" x2="1284" y1="210" y2="246.2969"/><text fill="#000000" font-family="sans-serif" font-size="14" lengthAdjust="spacingAndGlyphs" textLength="18" x="1251" y="232.9951">h2</text><!--link integrationtest to localserver--><path d="M163.6758,117 C173.6056,117 183.5355,117 193.4653,117 " fill="none" id="integrationtest-localserver" style="stroke: #A80036; stroke-width: 1.0;"/><polygon fill="#A80036" points="198.658,117,189.658,113,193.658,117,189.658,121,198.658,117" style="stroke: #A80036; stroke-width: 1.0;"/><!--link integrationtest to initial_admin_static--><path d="M114.6911,93.632 C134.3995,74.2514 165.3829,48.1364 198.5,37 C246.5241,20.8508 264.0215,22.2708 312.5,37 C347.0501,47.4973 380.7041,71.6687 403.4464,90.7126 " fill="none" id="integrationtest-initial_admin_static" style="stroke: #A80036; stroke-width: 1.0;"/><polygon fill="#A80036" points="407.2819,93.9626,403.0014,85.0926,403.4672,90.7302,397.8296,91.196,407.2819,93.9626" style="stroke: #A80036; stroke-width: 1.0;"/><!--link integrationtest to mocked_notifications--><path d="M114.6911,93.632 C134.3995,74.2514 165.3829,48.1364 198.5,37 C265.2703,14.5469 447.8025,17.5201 515.5,37 C551.8215,47.4515 587.7989,71.6288 612.2274,90.6866 " fill="none" id="integrationtest-mocked_notifications" style="stroke: #A80036; stroke-width: 1.0;"/><polygon fill="#A80036" points="616.349,93.9391,611.7618,85.2238,612.4239,90.8417,606.806,91.5039,616.349,93.9391" style="stroke: #A80036; stroke-width: 1.0;"/><!--link integrationtest to admin_access--><path d="M114.6911,93.632 C134.3995,74.2514 165.3829,48.1364 198.5,37 C311.6094,-1.0356 622.4782,-1.2952 735.5,37 C766.3368,47.4485 795.2228,71.0527 814.775,89.9293 " fill="none" id="integrationtest-admin_access" style="stroke: #A80036; stroke-width: 1.0;"/><polygon fill="#A80036" points="818.5588,93.6363,814.9293,84.4806,814.9872,90.1372,809.3307,90.1951,818.5588,93.6363" style="stroke: #A80036; stroke-width: 1.0;"/><!--link integrationtest to default--><path d="M114.6911,93.632 C134.3995,74.2514 165.3829,48.1364 198.5,37 C273.2744,11.8554 835.6636,6.6963 908.5,37 C934.0469,47.6288 955.6141,70.8999 969.8109,89.6174 " fill="none" id="integrationtest-default" style="stroke: #A80036; stroke-width: 1.0;"/><polygon fill="#A80036" points="972.904,93.7787,970.7448,84.1694,969.921,89.766,964.3245,88.9422,972.904,93.7787" style="stroke: #A80036; stroke-width: 1.0;"/><!--link postgres to real_products--><!--link postgres to mocked_products--><!--link mocked_products to h2--><!--
@startuml
node default
node postgres
node real_products
node mocked_products
node mocked_notifications
node localserver
node initial_admin_static
node admin_access
package <integrationtest>{
   node integrationtest
}
node h2
integrationtest -> localserver
integrationtest -> initial_admin_static
integrationtest -> mocked_notifications
integrationtest -> admin_access
integrationtest -> default
@enduml

PlantUML version 1.2018.13(Mon Nov 26 17:11:51 UTC 2018)
(APACHE source distribution)
Java Runtime: OpenJDK Runtime Environment
JVM: OpenJDK 64-Bit Server VM
Java Version: 1.8.0_282-b08
Operating System: Linux
OS Version: 5.4.0-1039-azure
Default Encoding: UTF-8
Language: en
Country: 
--></g></svg>