<?xml version="1.0" encoding="UTF-8" standalone="no"?><svg xmlns="http://www.w3.org/2000/svg" xmlns:xlink="http://www.w3.org/1999/xlink" contentScriptType="application/ecmascript" contentStyleType="text/css" height="230px" preserveAspectRatio="none" style="width:2419px;height:230px;" version="1.1" viewBox="0 0 2419 230" width="2419px" zoomAndPan="magnify"><defs><filter height="300%" id="fcmvwvno6hy8c" width="300%" x="-1" y="-1"><feGaussianBlur result="blurOut" stdDeviation="2.0"/><feColorMatrix in="blurOut" result="blurOut2" type="matrix" values="0 0 0 0 0 0 0 0 0 0 0 0 0 0 0 0 0 0 .4 0"/><feOffset dx="4.0" dy="4.0" in="blurOut2" result="blurOut3"/><feBlend in="SourceGraphic" in2="blurOut3" mode="normal"/></filter></defs><g><!--entity postgres--><polygon fill="#FEFECE" filter="url(#fcmvwvno6hy8c)" points="1881.5,76,1891.5,66,1983.5,66,1983.5,102.2969,1973.5,112.2969,1881.5,112.2969,1881.5,76" style="stroke: #000000; stroke-width: 1.5;"/><line style="stroke: #000000; stroke-width: 1.5;" x1="1973.5" x2="1982.5" y1="76" y2="67"/><line style="stroke: #000000; stroke-width: 1.5;" x1="1881.5" x2="1973.5" y1="76" y2="76"/><line style="stroke: #000000; stroke-width: 1.5;" x1="1973.5" x2="1973.5" y1="76" y2="112.2969"/><text fill="#000000" font-family="sans-serif" font-size="14" lengthAdjust="spacingAndGlyphs" textLength="62" x="1896.5" y="98.9951">postgres</text><!--entity integrationtest--><polygon fill="#FEFECE" filter="url(#fcmvwvno6hy8c)" points="6,76,16,66,147,66,147,102.2969,137,112.2969,6,112.2969,6,76" style="stroke: #000000; stroke-width: 1.5;"/><line style="stroke: #000000; stroke-width: 1.5;" x1="137" x2="146" y1="76" y2="67"/><line style="stroke: #000000; stroke-width: 1.5;" x1="6" x2="137" y1="76" y2="76"/><line style="stroke: #000000; stroke-width: 1.5;" x1="137" x2="137" y1="76" y2="112.2969"/><text fill="#000000" font-family="sans-serif" font-size="14" lengthAdjust="spacingAndGlyphs" textLength="101" x="21" y="98.9951">integrationtest</text><!--entity initial_admin_created--><polygon fill="#FEFECE" filter="url(#fcmvwvno6hy8c)" points="1663,76,1673,66,1846,66,1846,102.2969,1836,112.2969,1663,112.2969,1663,76" style="stroke: #000000; stroke-width: 1.5;"/><line style="stroke: #000000; stroke-width: 1.5;" x1="1836" x2="1845" y1="76" y2="67"/><line style="stroke: #000000; stroke-width: 1.5;" x1="1663" x2="1836" y1="76" y2="76"/><line style="stroke: #000000; stroke-width: 1.5;" x1="1836" x2="1836" y1="76" y2="112.2969"/><text fill="#000000" font-family="sans-serif" font-size="14" lengthAdjust="spacingAndGlyphs" textLength="143" x="1678" y="98.9951">initial_admin_created</text><!--entity mocked_notifications--><polygon fill="#FEFECE" filter="url(#fcmvwvno6hy8c)" points="182.5,76,192.5,66,368.5,66,368.5,102.2969,358.5,112.2969,182.5,112.2969,182.5,76" style="stroke: #000000; stroke-width: 1.5;"/><line style="stroke: #000000; stroke-width: 1.5;" x1="358.5" x2="367.5" y1="76" y2="67"/><line style="stroke: #000000; stroke-width: 1.5;" x1="182.5" x2="358.5" y1="76" y2="76"/><line style="stroke: #000000; stroke-width: 1.5;" x1="358.5" x2="358.5" y1="76" y2="112.2969"/><text fill="#000000" font-family="sans-serif" font-size="14" lengthAdjust="spacingAndGlyphs" textLength="146" x="197.5" y="98.9951">mocked_notifications</text><!--entity admin_access--><polygon fill="#FEFECE" filter="url(#fcmvwvno6hy8c)" points="945.5,76,955.5,66,1083.5,66,1083.5,102.2969,1073.5,112.2969,945.5,112.2969,945.5,76" style="stroke: #000000; stroke-width: 1.5;"/><line style="stroke: #000000; stroke-width: 1.5;" x1="1073.5" x2="1082.5" y1="76" y2="67"/><line style="stroke: #000000; stroke-width: 1.5;" x1="945.5" x2="1073.5" y1="76" y2="76"/><line style="stroke: #000000; stroke-width: 1.5;" x1="1073.5" x2="1073.5" y1="76" y2="112.2969"/><text fill="#000000" font-family="sans-serif" font-size="14" lengthAdjust="spacingAndGlyphs" textLength="98" x="960.5" y="98.9951">admin_access</text><!--entity h2--><polygon fill="#FEFECE" filter="url(#fcmvwvno6hy8c)" points="2018.5,76,2028.5,66,2076.5,66,2076.5,102.2969,2066.5,112.2969,2018.5,112.2969,2018.5,76" style="stroke: #000000; stroke-width: 1.5;"/><line style="stroke: #000000; stroke-width: 1.5;" x1="2066.5" x2="2075.5" y1="76" y2="67"/><line style="stroke: #000000; stroke-width: 1.5;" x1="2018.5" x2="2066.5" y1="76" y2="76"/><line style="stroke: #000000; stroke-width: 1.5;" x1="2066.5" x2="2066.5" y1="76" y2="112.2969"/><text fill="#000000" font-family="sans-serif" font-size="14" lengthAdjust="spacingAndGlyphs" textLength="18" x="2033.5" y="98.9951">h2</text><!--entity debug--><polygon fill="#FEFECE" filter="url(#fcmvwvno6hy8c)" points="2112,76,2122,66,2197,66,2197,102.2969,2187,112.2969,2112,112.2969,2112,76" style="stroke: #000000; stroke-width: 1.5;"/><line style="stroke: #000000; stroke-width: 1.5;" x1="2187" x2="2196" y1="76" y2="67"/><line style="stroke: #000000; stroke-width: 1.5;" x1="2112" x2="2187" y1="76" y2="76"/><line style="stroke: #000000; stroke-width: 1.5;" x1="2187" x2="2187" y1="76" y2="112.2969"/><text fill="#000000" font-family="sans-serif" font-size="14" lengthAdjust="spacingAndGlyphs" textLength="45" x="2127" y="98.9951">debug</text><!--entity dev--><polygon fill="#FEFECE" filter="url(#fcmvwvno6hy8c)" points="605,76,615,66,670,66,670,102.2969,660,112.2969,605,112.2969,605,76" style="stroke: #000000; stroke-width: 1.5;"/><line style="stroke: #000000; stroke-width: 1.5;" x1="660" x2="669" y1="76" y2="67"/><line style="stroke: #000000; stroke-width: 1.5;" x1="605" x2="660" y1="76" y2="76"/><line style="stroke: #000000; stroke-width: 1.5;" x1="660" x2="660" y1="76" y2="112.2969"/><text fill="#000000" font-family="sans-serif" font-size="14" lengthAdjust="spacingAndGlyphs" textLength="25" x="620" y="98.9951">dev</text><!--entity localserver--><polygon fill="#FEFECE" filter="url(#fcmvwvno6hy8c)" points="1118.5,76,1128.5,66,1232.5,66,1232.5,102.2969,1222.5,112.2969,1118.5,112.2969,1118.5,76" style="stroke: #000000; stroke-width: 1.5;"/><line style="stroke: #000000; stroke-width: 1.5;" x1="1222.5" x2="1231.5" y1="76" y2="67"/><line style="stroke: #000000; stroke-width: 1.5;" x1="1118.5" x2="1222.5" y1="76" y2="76"/><line style="stroke: #000000; stroke-width: 1.5;" x1="1222.5" x2="1222.5" y1="76" y2="112.2969"/><text fill="#000000" font-family="sans-serif" font-size="14" lengthAdjust="spacingAndGlyphs" textLength="74" x="1133.5" y="98.9951">localserver</text><!--entity real_products--><polygon fill="#FEFECE" filter="url(#fcmvwvno6hy8c)" points="1493.5,76,1503.5,66,1627.5,66,1627.5,102.2969,1617.5,112.2969,1493.5,112.2969,1493.5,76" style="stroke: #000000; stroke-width: 1.5;"/><line style="stroke: #000000; stroke-width: 1.5;" x1="1617.5" x2="1626.5" y1="76" y2="67"/><line style="stroke: #000000; stroke-width: 1.5;" x1="1493.5" x2="1617.5" y1="76" y2="76"/><line style="stroke: #000000; stroke-width: 1.5;" x1="1617.5" x2="1617.5" y1="76" y2="112.2969"/><text fill="#000000" font-family="sans-serif" font-size="14" lengthAdjust="spacingAndGlyphs" textLength="94" x="1508.5" y="98.9951">real_products</text><!--entity initial_admin_predefined--><polygon fill="#FEFECE" filter="url(#fcmvwvno6hy8c)" points="705,76,715,66,910,66,910,102.2969,900,112.2969,705,112.2969,705,76" style="stroke: #000000; stroke-width: 1.5;"/><line style="stroke: #000000; stroke-width: 1.5;" x1="900" x2="909" y1="76" y2="67"/><line style="stroke: #000000; stroke-width: 1.5;" x1="705" x2="900" y1="76" y2="76"/><line style="stroke: #000000; stroke-width: 1.5;" x1="900" x2="900" y1="76" y2="112.2969"/><text fill="#000000" font-family="sans-serif" font-size="14" lengthAdjust="spacingAndGlyphs" textLength="165" x="720" y="98.9951">initial_admin_predefined</text><!--entity prod--><polygon fill="#FEFECE" filter="url(#fcmvwvno6hy8c)" points="1267.5,76,1277.5,66,1339.5,66,1339.5,102.2969,1329.5,112.2969,1267.5,112.2969,1267.5,76" style="stroke: #000000; stroke-width: 1.5;"/><line style="stroke: #000000; stroke-width: 1.5;" x1="1329.5" x2="1338.5" y1="76" y2="67"/><line style="stroke: #000000; stroke-width: 1.5;" x1="1267.5" x2="1329.5" y1="76" y2="76"/><line style="stroke: #000000; stroke-width: 1.5;" x1="1329.5" x2="1329.5" y1="76" y2="112.2969"/><text fill="#000000" font-family="sans-serif" font-size="14" lengthAdjust="spacingAndGlyphs" textLength="32" x="1282.5" y="98.9951">prod</text><!--entity mocked_products--><polygon fill="#FEFECE" filter="url(#fcmvwvno6hy8c)" points="2232,76,2242,66,2397,66,2397,102.2969,2387,112.2969,2232,112.2969,2232,76" style="stroke: #000000; stroke-width: 1.5;"/><line style="stroke: #000000; stroke-width: 1.5;" x1="2387" x2="2396" y1="76" y2="67"/><line style="stroke: #000000; stroke-width: 1.5;" x1="2232" x2="2387" y1="76" y2="76"/><line style="stroke: #000000; stroke-width: 1.5;" x1="2387" x2="2387" y1="76" y2="112.2969"/><text fill="#000000" font-family="sans-serif" font-size="14" lengthAdjust="spacingAndGlyphs" textLength="125" x="2247" y="98.9951">mocked_products</text><!--entity default--><polygon fill="#FEFECE" filter="url(#fcmvwvno6hy8c)" points="2004,182,2014,172,2091,172,2091,208.2969,2081,218.2969,2004,218.2969,2004,182" style="stroke: #000000; stroke-width: 1.5;"/><line style="stroke: #000000; stroke-width: 1.5;" x1="2081" x2="2090" y1="182" y2="173"/><line style="stroke: #000000; stroke-width: 1.5;" x1="2004" x2="2081" y1="182" y2="182"/><line style="stroke: #000000; stroke-width: 1.5;" x1="2081" x2="2081" y1="182" y2="218.2969"/><text fill="#000000" font-family="sans-serif" font-size="14" lengthAdjust="spacingAndGlyphs" textLength="47" x="2019" y="204.9951">default</text><!--entity server--><polygon fill="#FEFECE" filter="url(#fcmvwvno6hy8c)" points="1375,76,1385,66,1458,66,1458,102.2969,1448,112.2969,1375,112.2969,1375,76" style="stroke: #000000; stroke-width: 1.5;"/><line style="stroke: #000000; stroke-width: 1.5;" x1="1448" x2="1457" y1="76" y2="67"/><line style="stroke: #000000; stroke-width: 1.5;" x1="1375" x2="1448" y1="76" y2="76"/><line style="stroke: #000000; stroke-width: 1.5;" x1="1448" x2="1448" y1="76" y2="112.2969"/><text fill="#000000" font-family="sans-serif" font-size="14" lengthAdjust="spacingAndGlyphs" textLength="43" x="1390" y="98.9951">server</text><!--entity initial_admin_static--><polygon fill="#FEFECE" filter="url(#fcmvwvno6hy8c)" points="403,76,413,66,570,66,570,102.2969,560,112.2969,403,112.2969,403,76" style="stroke: #000000; stroke-width: 1.5;"/><line style="stroke: #000000; stroke-width: 1.5;" x1="560" x2="569" y1="76" y2="67"/><line style="stroke: #000000; stroke-width: 1.5;" x1="403" x2="560" y1="76" y2="76"/><line style="stroke: #000000; stroke-width: 1.5;" x1="560" x2="560" y1="76" y2="112.2969"/><text fill="#000000" font-family="sans-serif" font-size="14" lengthAdjust="spacingAndGlyphs" textLength="127" x="418" y="98.9951">initial_admin_static</text><!--entity test--><polygon fill="#FEFECE" filter="url(#fcmvwvno6hy8c)" points="2126,182,2136,172,2193,172,2193,208.2969,2183,218.2969,2126,218.2969,2126,182" style="stroke: #000000; stroke-width: 1.5;"/><line style="stroke: #000000; stroke-width: 1.5;" x1="2183" x2="2192" y1="182" y2="173"/><line style="stroke: #000000; stroke-width: 1.5;" x1="2126" x2="2183" y1="182" y2="182"/><line style="stroke: #000000; stroke-width: 1.5;" x1="2183" x2="2183" y1="182" y2="218.2969"/><text fill="#000000" font-family="sans-serif" font-size="14" lengthAdjust="spacingAndGlyphs" textLength="27" x="2141" y="204.9951">test</text><!--link integrationtest to localserver--><path d="M112.3612,65.9325 C132.3043,54.4783 158.0703,41.8604 183,36 C280.4546,13.0908 987.3184,10.0211 1084,36 C1104.0947,41.3996 1124.332,52.4073 1140.6466,62.9986 " fill="none" id="integrationtest-localserver" style="stroke: #A80036; stroke-width: 1.0;"/><polygon fill="#A80036" points="1145.1407,65.9699,1139.8392,57.6696,1140.9699,63.2123,1135.4271,64.343,1145.1407,65.9699" style="stroke: #A80036; stroke-width: 1.0;"/><!--link integrationtest to initial_admin_static--><path d="M112.3612,65.9325 C132.3043,54.4783 158.0703,41.8604 183,36 C263.4731,17.0827 288.1818,18.6162 369,36 C394.3273,41.4478 420.7761,52.8067 442.1528,63.6165 " fill="none" id="integrationtest-initial_admin_static" style="stroke: #A80036; stroke-width: 1.0;"/><polygon fill="#A80036" points="446.6352,65.9125,440.4486,58.2492,442.1851,63.6329,436.8013,65.3694,446.6352,65.9125" style="stroke: #A80036; stroke-width: 1.0;"/><!--link integrationtest to mocked_notifications--><path d="M147.2383,89 C157.1935,89 167.1487,89 177.1039,89 " fill="none" id="integrationtest-mocked_notifications" style="stroke: #A80036; stroke-width: 1.0;"/><polygon fill="#A80036" points="182.3098,89,173.3098,85,177.3098,89,173.3098,93,182.3098,89" style="stroke: #A80036; stroke-width: 1.0;"/><!--link integrationtest to admin_access--><path d="M112.3612,65.9325 C132.3043,54.4783 158.0703,41.8604 183,36 C340.2686,-0.9701 752.8731,-1.5678 910,36 C932.6164,41.4074 955.8713,52.5534 974.685,63.2349 " fill="none" id="integrationtest-admin_access" style="stroke: #A80036; stroke-width: 1.0;"/><polygon fill="#A80036" points="979.3693,65.9367,973.5719,57.9749,975.0382,63.4384,969.5747,64.9047,979.3693,65.9367" style="stroke: #A80036; stroke-width: 1.0;"/><!--link dev to localserver--><path d="M659.2013,65.7963 C671.4203,54.4564 687.6793,41.9874 705,36 C784.6005,8.4837 1002.663,14.1442 1084,36 C1104.0947,41.3996 1124.332,52.4073 1140.6466,62.9986 " fill="none" id="dev-localserver" style="stroke: #A80036; stroke-width: 1.0;"/><polygon fill="#A80036" points="1145.1407,65.9699,1139.8392,57.6696,1140.9699,63.2123,1135.4271,64.343,1145.1407,65.9699" style="stroke: #A80036; stroke-width: 1.0;"/><!--link dev to initial_admin_predefined--><path d="M670.0391,89 C679.9462,89 689.8533,89 699.7605,89 " fill="none" id="dev-initial_admin_predefined" style="stroke: #A80036; stroke-width: 1.0;"/><polygon fill="#A80036" points="704.9413,89,695.9413,85,699.9413,89,695.9413,93,704.9413,89" style="stroke: #A80036; stroke-width: 1.0;"/><!--link dev to admin_access--><path d="M659.2013,65.7963 C671.4203,54.4564 687.6793,41.9874 705,36 C791.1113,6.233 821.3865,14.8132 910,36 C932.6164,41.4074 955.8713,52.5534 974.685,63.2349 " fill="none" id="dev-admin_access" style="stroke: #A80036; stroke-width: 1.0;"/><polygon fill="#A80036" points="979.3693,65.9367,973.5719,57.9749,975.0382,63.4384,969.5747,64.9047,979.3693,65.9367" style="stroke: #A80036; stroke-width: 1.0;"/><!--link prod to postgres--><path d="M1326.7303,65.7736 C1339.7422,54.4273 1356.953,41.9594 1375,36 C1474.3881,3.1805 1745.2622,7.5923 1846,36 C1865.2129,41.418 1884.3691,52.4278 1899.7526,63.0157 " fill="none" id="prod-postgres" style="stroke: #A80036; stroke-width: 1.0;"/><polygon fill="#A80036" points="1903.9884,65.9859,1898.9159,57.5438,1899.8945,63.1153,1894.323,64.094,1903.9884,65.9859" style="stroke: #A80036; stroke-width: 1.0;"/><!--link prod to initial_admin_created--><path d="M1326.7303,65.7736 C1339.7422,54.4273 1356.953,41.9594 1375,36 C1481.7736,0.7417 1517.7608,13.8396 1628,36 C1655.138,41.4553 1683.7145,52.8851 1706.827,63.7384 " fill="none" id="prod-initial_admin_created" style="stroke: #A80036; stroke-width: 1.0;"/><polygon fill="#A80036" points="1711.3746,65.8995,1704.9627,58.4237,1706.8586,63.7534,1701.5289,65.6492,1711.3746,65.8995" style="stroke: #A80036; stroke-width: 1.0;"/><!--link prod to real_products--><path d="M1326.7303,65.7736 C1339.7422,54.4273 1356.953,41.9594 1375,36 C1410.0285,24.4331 1422.1562,27.2814 1458,36 C1480.2517,41.4125 1503.0689,52.5591 1521.5096,63.2396 " fill="none" id="prod-real_products" style="stroke: #A80036; stroke-width: 1.0;"/><polygon fill="#A80036" points="1526.1007,65.9411,1520.3727,57.9292,1521.7915,63.4053,1516.3154,64.824,1526.1007,65.9411" style="stroke: #A80036; stroke-width: 1.0;"/><!--link prod to server--><path d="M1339.6953,89 C1349.6592,89 1359.6231,89 1369.587,89 " fill="none" id="prod-server" style="stroke: #A80036; stroke-width: 1.0;"/><polygon fill="#A80036" points="1374.7975,89,1365.7975,85,1369.7975,89,1365.7975,93,1374.7975,89" style="stroke: #A80036; stroke-width: 1.0;"/><!--link h2 to debug--><!--link debug to mocked_products--><!--link h2 to default--><!--link default to test--><!--
@startuml
node postgres
node integrationtest
node initial_admin_created
node mocked_notifications
node admin_access
node h2
node debug
node dev
node localserver
node real_products
node initial_admin_predefined
node prod
node mocked_products
node default
node server
node initial_admin_static
node test
integrationtest -> localserver
integrationtest -> initial_admin_static
integrationtest -> mocked_notifications
integrationtest -> admin_access
dev -> localserver
dev -> initial_admin_predefined
dev -> admin_access
prod -> postgres
prod -> initial_admin_created
prod -> real_products
prod -> server
@enduml

PlantUML version 1.2018.13(Mon Nov 26 17:11:51 UTC 2018)
(APACHE source distribution)
Java Runtime: OpenJDK Runtime Environment
JVM: OpenJDK 64-Bit Server VM
Java Version: 1.8.0_275-b01
Operating System: Linux
OS Version: 5.4.0-1031-azure
Default Encoding: UTF-8
Language: en
Country: 
--></g></svg>