<?xml version="1.0" encoding="UTF-8" standalone="no"?><svg xmlns="http://www.w3.org/2000/svg" xmlns:xlink="http://www.w3.org/1999/xlink" contentScriptType="application/ecmascript" contentStyleType="text/css" height="216px" preserveAspectRatio="none" style="width:1137px;height:216px;" version="1.1" viewBox="0 0 1137 216" width="1137px" zoomAndPan="magnify"><defs><filter height="300%" id="fvbk3ra" width="300%" x="-1" y="-1"><feGaussianBlur result="blurOut" stdDeviation="2.0"/><feColorMatrix in="blurOut" result="blurOut2" type="matrix" values="0 0 0 0 0 0 0 0 0 0 0 0 0 0 0 0 0 0 .4 0"/><feOffset dx="4.0" dy="4.0" in="blurOut2" result="blurOut3"/><feBlend in="SourceGraphic" in2="blurOut3" mode="normal"/></filter></defs><g><!--cluster <integrationtest>--><polygon fill="#FFFFFF" filter="url(#fvbk3ra)" points="363,24,510,24,517,46.2969,537,46.2969,537,121,363,121,363,24" style="stroke: #000000; stroke-width: 2.0;"/><line style="stroke: #000000; stroke-width: 2.0;" x1="363" x2="517" y1="46.2969" y2="46.2969"/><text fill="#000000" font-family="sans-serif" font-size="14" font-weight="bold" lengthAdjust="spacingAndGlyphs" textLength="141" x="367" y="38.9951">&lt;integrationtest&gt;</text><!--entity integrationtest--><polygon fill="#FEFECE" filter="url(#fvbk3ra)" points="379.5,69,389.5,59,520.5,59,520.5,95.2969,510.5,105.2969,379.5,105.2969,379.5,69" style="stroke: #000000; stroke-width: 1.5;"/><line style="stroke: #000000; stroke-width: 1.5;" x1="510.5" x2="519.5" y1="69" y2="60"/><line style="stroke: #000000; stroke-width: 1.5;" x1="379.5" x2="510.5" y1="69" y2="69"/><line style="stroke: #000000; stroke-width: 1.5;" x1="510.5" x2="510.5" y1="69" y2="105.2969"/><text fill="#000000" font-family="sans-serif" font-size="14" lengthAdjust="spacingAndGlyphs" textLength="101" x="394.5" y="91.9951">integrationtest</text><!--entity real_products--><polygon fill="#FEFECE" filter="url(#fvbk3ra)" points="836,69,846,59,970,59,970,95.2969,960,105.2969,836,105.2969,836,69" style="stroke: #000000; stroke-width: 1.5;"/><line style="stroke: #000000; stroke-width: 1.5;" x1="960" x2="969" y1="69" y2="60"/><line style="stroke: #000000; stroke-width: 1.5;" x1="836" x2="960" y1="69" y2="69"/><line style="stroke: #000000; stroke-width: 1.5;" x1="960" x2="960" y1="69" y2="105.2969"/><text fill="#000000" font-family="sans-serif" font-size="14" lengthAdjust="spacingAndGlyphs" textLength="94" x="851" y="91.9951">real_products</text><!--entity postgres--><polygon fill="#FEFECE" filter="url(#fvbk3ra)" points="1005,69,1015,59,1107,59,1107,95.2969,1097,105.2969,1005,105.2969,1005,69" style="stroke: #000000; stroke-width: 1.5;"/><line style="stroke: #000000; stroke-width: 1.5;" x1="1097" x2="1106" y1="69" y2="60"/><line style="stroke: #000000; stroke-width: 1.5;" x1="1005" x2="1097" y1="69" y2="69"/><line style="stroke: #000000; stroke-width: 1.5;" x1="1097" x2="1097" y1="69" y2="105.2969"/><text fill="#000000" font-family="sans-serif" font-size="14" lengthAdjust="spacingAndGlyphs" textLength="62" x="1020" y="91.9951">postgres</text><!--entity h2--><polygon fill="#FEFECE" filter="url(#fvbk3ra)" points="874,175,884,165,932,165,932,201.2969,922,211.2969,874,211.2969,874,175" style="stroke: #000000; stroke-width: 1.5;"/><line style="stroke: #000000; stroke-width: 1.5;" x1="922" x2="931" y1="175" y2="166"/><line style="stroke: #000000; stroke-width: 1.5;" x1="874" x2="922" y1="175" y2="175"/><line style="stroke: #000000; stroke-width: 1.5;" x1="922" x2="922" y1="175" y2="211.2969"/><text fill="#000000" font-family="sans-serif" font-size="14" lengthAdjust="spacingAndGlyphs" textLength="18" x="889" y="197.9951">h2</text><!--entity admin_access--><polygon fill="#FEFECE" filter="url(#fvbk3ra)" points="578,175,588,165,716,165,716,201.2969,706,211.2969,578,211.2969,578,175" style="stroke: #000000; stroke-width: 1.5;"/><line style="stroke: #000000; stroke-width: 1.5;" x1="706" x2="715" y1="175" y2="166"/><line style="stroke: #000000; stroke-width: 1.5;" x1="578" x2="706" y1="175" y2="175"/><line style="stroke: #000000; stroke-width: 1.5;" x1="706" x2="706" y1="175" y2="211.2969"/><text fill="#000000" font-family="sans-serif" font-size="14" lengthAdjust="spacingAndGlyphs" textLength="98" x="593" y="197.9951">admin_access</text><!--entity localserver--><polygon fill="#FEFECE" filter="url(#fvbk3ra)" points="6,175,16,165,120,165,120,201.2969,110,211.2969,6,211.2969,6,175" style="stroke: #000000; stroke-width: 1.5;"/><line style="stroke: #000000; stroke-width: 1.5;" x1="110" x2="119" y1="175" y2="166"/><line style="stroke: #000000; stroke-width: 1.5;" x1="6" x2="110" y1="175" y2="175"/><line style="stroke: #000000; stroke-width: 1.5;" x1="110" x2="110" y1="175" y2="211.2969"/><text fill="#000000" font-family="sans-serif" font-size="14" lengthAdjust="spacingAndGlyphs" textLength="74" x="21" y="197.9951">localserver</text><!--entity initial_admin_static--><polygon fill="#FEFECE" filter="url(#fvbk3ra)" points="155.5,175,165.5,165,322.5,165,322.5,201.2969,312.5,211.2969,155.5,211.2969,155.5,175" style="stroke: #000000; stroke-width: 1.5;"/><line style="stroke: #000000; stroke-width: 1.5;" x1="312.5" x2="321.5" y1="175" y2="166"/><line style="stroke: #000000; stroke-width: 1.5;" x1="155.5" x2="312.5" y1="175" y2="175"/><line style="stroke: #000000; stroke-width: 1.5;" x1="312.5" x2="312.5" y1="175" y2="211.2969"/><text fill="#000000" font-family="sans-serif" font-size="14" lengthAdjust="spacingAndGlyphs" textLength="127" x="170.5" y="197.9951">initial_admin_static</text><!--entity mocked_products--><polygon fill="#FEFECE" filter="url(#fvbk3ra)" points="967.5,175,977.5,165,1132.5,165,1132.5,201.2969,1122.5,211.2969,967.5,211.2969,967.5,175" style="stroke: #000000; stroke-width: 1.5;"/><line style="stroke: #000000; stroke-width: 1.5;" x1="1122.5" x2="1131.5" y1="175" y2="166"/><line style="stroke: #000000; stroke-width: 1.5;" x1="967.5" x2="1122.5" y1="175" y2="175"/><line style="stroke: #000000; stroke-width: 1.5;" x1="1122.5" x2="1122.5" y1="175" y2="211.2969"/><text fill="#000000" font-family="sans-serif" font-size="14" lengthAdjust="spacingAndGlyphs" textLength="125" x="982.5" y="197.9951">mocked_products</text><!--entity mocked_notifications--><polygon fill="#FEFECE" filter="url(#fvbk3ra)" points="357,175,367,165,543,165,543,201.2969,533,211.2969,357,211.2969,357,175" style="stroke: #000000; stroke-width: 1.5;"/><line style="stroke: #000000; stroke-width: 1.5;" x1="533" x2="542" y1="175" y2="166"/><line style="stroke: #000000; stroke-width: 1.5;" x1="357" x2="533" y1="175" y2="175"/><line style="stroke: #000000; stroke-width: 1.5;" x1="533" x2="533" y1="175" y2="211.2969"/><text fill="#000000" font-family="sans-serif" font-size="14" lengthAdjust="spacingAndGlyphs" textLength="146" x="372" y="197.9951">mocked_notifications</text><!--entity default--><polygon fill="#FEFECE" filter="url(#fvbk3ra)" points="751.5,175,761.5,165,838.5,165,838.5,201.2969,828.5,211.2969,751.5,211.2969,751.5,175" style="stroke: #000000; stroke-width: 1.5;"/><line style="stroke: #000000; stroke-width: 1.5;" x1="828.5" x2="837.5" y1="175" y2="166"/><line style="stroke: #000000; stroke-width: 1.5;" x1="751.5" x2="828.5" y1="175" y2="175"/><line style="stroke: #000000; stroke-width: 1.5;" x1="828.5" x2="828.5" y1="175" y2="211.2969"/><text fill="#000000" font-family="sans-serif" font-size="14" lengthAdjust="spacingAndGlyphs" textLength="47" x="766.5" y="197.9951">default</text><path d="M379.4718,99.9557 C316.0994,116.2812 220.5811,141.3622 138,165 C133.8592,166.1853 129.5969,167.4287 125.3062,168.6978 " fill="none" style="stroke: #A80036; stroke-width: 1.0;"/><polygon fill="#A80036" points="120.262,170.1975,130.0288,171.4666,125.0546,168.7725,127.7487,163.7984,120.262,170.1975" style="stroke: #A80036; stroke-width: 1.0;"/><path d="M404.2161,105.0004 C370.4611,121.9579 324.5451,145.0247 289.6849,162.5375 " fill="none" style="stroke: #A80036; stroke-width: 1.0;"/><polygon fill="#A80036" points="285.0584,164.8617,294.8962,164.3959,289.5263,162.6172,291.305,157.2472,285.0584,164.8617" style="stroke: #A80036; stroke-width: 1.0;"/><path d="M450,105.0004 C450,121.003 450,142.4461 450,159.528 " fill="none" style="stroke: #A80036; stroke-width: 1.0;"/><polygon fill="#A80036" points="450,164.6784,454,155.6784,450,159.6784,446,155.6784,450,164.6784" style="stroke: #A80036; stroke-width: 1.0;"/><path d="M492.7461,105.0004 C524.1328,121.8887 566.7811,144.8365 599.2791,162.3227 " fill="none" style="stroke: #A80036; stroke-width: 1.0;"/><polygon fill="#A80036" points="603.9976,164.8617,597.9676,157.0746,599.5946,162.4924,594.1768,164.1194,603.9976,164.8617" style="stroke: #A80036; stroke-width: 1.0;"/><path d="M520.7822,101.0701 C578.5218,117.0127 662.0153,140.9491 734,165 C738.0893,166.3663 742.3122,167.8352 746.5386,169.346 " fill="none" style="stroke: #A80036; stroke-width: 1.0;"/><polygon fill="#A80036" points="751.4936,171.1351,744.3869,164.3164,746.7907,169.4371,741.6701,171.841,751.4936,171.1351" style="stroke: #A80036; stroke-width: 1.0;"/></g></svg>