<?xml version="1.0" encoding="UTF-8" standalone="no"?><svg xmlns="http://www.w3.org/2000/svg" xmlns:xlink="http://www.w3.org/1999/xlink" contentScriptType="application/ecmascript" contentStyleType="text/css" height="216px" preserveAspectRatio="none" style="width:741px;height:216px;" version="1.1" viewBox="0 0 741 216" width="741px" zoomAndPan="magnify"><defs><filter height="300%" id="fo4oa68" width="300%" x="-1" y="-1"><feGaussianBlur result="blurOut" stdDeviation="2.0"/><feColorMatrix in="blurOut" result="blurOut2" type="matrix" values="0 0 0 0 0 0 0 0 0 0 0 0 0 0 0 0 0 0 .4 0"/><feOffset dx="4.0" dy="4.0" in="blurOut2" result="blurOut3"/><feBlend in="SourceGraphic" in2="blurOut3" mode="normal"/></filter></defs><g><!--cluster <prod>--><polygon fill="#FFFFFF" filter="url(#fo4oa68)" points="377,24,444,24,451,46.2969,481,46.2969,481,121,377,121,377,24" style="stroke: #000000; stroke-width: 2.0;"/><line style="stroke: #000000; stroke-width: 2.0;" x1="377" x2="451" y1="46.2969" y2="46.2969"/><text fill="#000000" font-family="sans-serif" font-size="14" font-weight="bold" lengthAdjust="spacingAndGlyphs" textLength="61" x="381" y="38.9951">&lt;prod&gt;</text><!--entity prod--><polygon fill="#FEFECE" filter="url(#fo4oa68)" points="393,69,403,59,465,59,465,95.2969,455,105.2969,393,105.2969,393,69" style="stroke: #000000; stroke-width: 1.5;"/><line style="stroke: #000000; stroke-width: 1.5;" x1="455" x2="464" y1="69" y2="60"/><line style="stroke: #000000; stroke-width: 1.5;" x1="393" x2="455" y1="69" y2="69"/><line style="stroke: #000000; stroke-width: 1.5;" x1="455" x2="455" y1="69" y2="105.2969"/><text fill="#000000" font-family="sans-serif" font-size="14" lengthAdjust="spacingAndGlyphs" textLength="32" x="408" y="91.9951">prod</text><!--entity real_products--><polygon fill="#FEFECE" filter="url(#fo4oa68)" points="362,175,372,165,496,165,496,201.2969,486,211.2969,362,211.2969,362,175" style="stroke: #000000; stroke-width: 1.5;"/><line style="stroke: #000000; stroke-width: 1.5;" x1="486" x2="495" y1="175" y2="166"/><line style="stroke: #000000; stroke-width: 1.5;" x1="362" x2="486" y1="175" y2="175"/><line style="stroke: #000000; stroke-width: 1.5;" x1="486" x2="486" y1="175" y2="211.2969"/><text fill="#000000" font-family="sans-serif" font-size="14" lengthAdjust="spacingAndGlyphs" textLength="94" x="377" y="197.9951">real_products</text><!--entity postgres--><polygon fill="#FEFECE" filter="url(#fo4oa68)" points="6,175,16,165,108,165,108,201.2969,98,211.2969,6,211.2969,6,175" style="stroke: #000000; stroke-width: 1.5;"/><line style="stroke: #000000; stroke-width: 1.5;" x1="98" x2="107" y1="175" y2="166"/><line style="stroke: #000000; stroke-width: 1.5;" x1="6" x2="98" y1="175" y2="175"/><line style="stroke: #000000; stroke-width: 1.5;" x1="98" x2="98" y1="175" y2="211.2969"/><text fill="#000000" font-family="sans-serif" font-size="14" lengthAdjust="spacingAndGlyphs" textLength="62" x="21" y="197.9951">postgres</text><!--entity server--><polygon fill="#FEFECE" filter="url(#fo4oa68)" points="531.5,175,541.5,165,614.5,165,614.5,201.2969,604.5,211.2969,531.5,211.2969,531.5,175" style="stroke: #000000; stroke-width: 1.5;"/><line style="stroke: #000000; stroke-width: 1.5;" x1="604.5" x2="613.5" y1="175" y2="166"/><line style="stroke: #000000; stroke-width: 1.5;" x1="531.5" x2="604.5" y1="175" y2="175"/><line style="stroke: #000000; stroke-width: 1.5;" x1="604.5" x2="604.5" y1="175" y2="211.2969"/><text fill="#000000" font-family="sans-serif" font-size="14" lengthAdjust="spacingAndGlyphs" textLength="43" x="546.5" y="197.9951">server</text><!--entity initial_admin_created--><polygon fill="#FEFECE" filter="url(#fo4oa68)" points="143.5,175,153.5,165,326.5,165,326.5,201.2969,316.5,211.2969,143.5,211.2969,143.5,175" style="stroke: #000000; stroke-width: 1.5;"/><line style="stroke: #000000; stroke-width: 1.5;" x1="316.5" x2="325.5" y1="175" y2="166"/><line style="stroke: #000000; stroke-width: 1.5;" x1="143.5" x2="316.5" y1="175" y2="175"/><line style="stroke: #000000; stroke-width: 1.5;" x1="316.5" x2="316.5" y1="175" y2="211.2969"/><text fill="#000000" font-family="sans-serif" font-size="14" lengthAdjust="spacingAndGlyphs" textLength="143" x="158.5" y="197.9951">initial_admin_created</text><!--entity default--><polygon fill="#FEFECE" filter="url(#fo4oa68)" points="649.5,175,659.5,165,736.5,165,736.5,201.2969,726.5,211.2969,649.5,211.2969,649.5,175" style="stroke: #000000; stroke-width: 1.5;"/><line style="stroke: #000000; stroke-width: 1.5;" x1="726.5" x2="735.5" y1="175" y2="166"/><line style="stroke: #000000; stroke-width: 1.5;" x1="649.5" x2="726.5" y1="175" y2="175"/><line style="stroke: #000000; stroke-width: 1.5;" x1="726.5" x2="726.5" y1="175" y2="211.2969"/><text fill="#000000" font-family="sans-serif" font-size="14" lengthAdjust="spacingAndGlyphs" textLength="47" x="664.5" y="197.9951">default</text><path d="M392.9036,91.2089 C335.9278,105.897 221.7741,135.9436 126,165 C121.7406,166.2922 117.346,167.6647 112.9342,169.0707 " fill="none" style="stroke: #A80036; stroke-width: 1.0;"/><polygon fill="#A80036" points="108.1456,170.6075,117.9374,171.6658,112.9064,169.0795,115.4927,164.0485,108.1456,170.6075" style="stroke: #A80036; stroke-width: 1.0;"/><path d="M392.9647,101.6894 C361.6091,118.8218 315.9604,143.7639 281.7895,162.4346 " fill="none" style="stroke: #A80036; stroke-width: 1.0;"/><polygon fill="#A80036" points="277.2586,164.9102,287.0745,164.1051,281.6464,162.5128,283.2387,157.0847,277.2586,164.9102" style="stroke: #A80036; stroke-width: 1.0;"/><path d="M429,105.0004 C429,121.003 429,142.4461 429,159.528 " fill="none" style="stroke: #A80036; stroke-width: 1.0;"/><polygon fill="#A80036" points="429,164.6784,433,155.6784,429,159.6784,425,155.6784,429,164.6784" style="stroke: #A80036; stroke-width: 1.0;"/><path d="M460.2459,105.0004 C482.9222,121.6927 513.6404,144.3047 537.2877,161.7118 " fill="none" style="stroke: #A80036; stroke-width: 1.0;"/><polygon fill="#A80036" points="541.3179,164.6784,536.4412,156.1217,537.2912,161.7143,531.6986,162.5643,541.3179,164.6784" style="stroke: #A80036; stroke-width: 1.0;"/><path d="M465.1545,96.5166 C511.6678,115.1924 592.6296,147.6998 644.4683,168.5138 " fill="none" style="stroke: #A80036; stroke-width: 1.0;"/><polygon fill="#A80036" points="649.3919,170.4907,642.5304,163.4254,644.7519,168.6277,639.5496,170.8493,649.3919,170.4907" style="stroke: #A80036; stroke-width: 1.0;"/></g></svg>