<?xml version="1.0" encoding="UTF-8" standalone="no"?><svg xmlns="http://www.w3.org/2000/svg" xmlns:xlink="http://www.w3.org/1999/xlink" contentScriptType="application/ecmascript" contentStyleType="text/css" height="297px" preserveAspectRatio="none" style="width:414px;height:297px;" version="1.1" viewBox="0 0 414 297" width="414px" zoomAndPan="magnify"><defs/><g><text fill="#000000" font-family="sans-serif" font-size="14" font-weight="bold" lengthAdjust="spacingAndGlyphs" text-decoration="underline" textLength="178" x="15.5" y="22.9951">Communication details</text><line style="stroke: #000000; stroke-width: 1.0;" x1="15.5" x2="193.5" y1="24.9951" y2="24.9951"/><text fill="#000000" font-family="sans-serif" font-size="14" font-weight="bold" lengthAdjust="spacingAndGlyphs" textLength="16" x="203.5" y="22.9951">of</text><text fill="#000000" font-family="sans-serif" font-size="14" font-weight="bold" lengthAdjust="spacingAndGlyphs" textLength="177" x="224.5" y="22.9951">message START_SCAN</text><rect fill="#FFFFFF" height="90.2031" style="stroke: #000000; stroke-width: 2.0;" width="230" x="13" y="159.9922"/><rect fill="#FFFFFF" height="43.9375" style="stroke: none; stroke-width: 1.0;" width="230" x="13" y="206.2578"/><rect fill="#C8C8CF" height="256.0313" style="stroke: #A80036; stroke-width: 1.0;" width="106" x="131" y="34.2969"/><text fill="#000000" font-family="sans-serif" font-size="13" font-weight="bold" lengthAdjust="spacingAndGlyphs" textLength="34" x="167" y="46.3638">scan</text><rect fill="#F8F8FF" height="256.0313" style="stroke: #A80036; stroke-width: 1.0;" width="174" x="239" y="34.2969"/><text fill="#000000" font-family="sans-serif" font-size="13" font-weight="bold" lengthAdjust="spacingAndGlyphs" textLength="66" x="293" y="46.3638">schedule</text><line style="stroke: #A80036; stroke-width: 1.0; stroke-dasharray: 5.0,5.0;" x1="59" x2="59" y1="84.7266" y2="296.3281"/><line style="stroke: #A80036; stroke-width: 1.0; stroke-dasharray: 5.0,5.0;" x1="184" x2="184" y1="84.7266" y2="296.3281"/><line style="stroke: #A80036; stroke-width: 1.0; stroke-dasharray: 5.0,5.0;" x1="326" x2="326" y1="84.7266" y2="296.3281"/><text fill="#000000" font-family="sans-serif" font-size="14" lengthAdjust="spacingAndGlyphs" textLength="66" x="23" y="81.4248">EventBus</text><ellipse cx="59" cy="52.4297" fill="#FEFECE" rx="12" ry="12" style="stroke: #A80036; stroke-width: 2.0;"/><polygon fill="#A80036" points="55,40.4297,61,35.4297,59,40.4297,61,45.4297,55,40.4297" style="stroke: #A80036; stroke-width: 1.0;"/><rect fill="#FEFECE" height="30.2969" style="stroke: #A80036; stroke-width: 1.5;" width="98" x="135" y="53.4297"/><text fill="#000000" font-family="sans-serif" font-size="14" lengthAdjust="spacingAndGlyphs" textLength="84" x="142" y="73.4248">ScanService</text><rect fill="#FEFECE" height="30.2969" style="stroke: #A80036; stroke-width: 1.5;" width="166" x="243" y="53.4297"/><text fill="#000000" font-family="sans-serif" font-size="14" lengthAdjust="spacingAndGlyphs" textLength="152" x="250" y="73.4248">ScanExecutionTasklet</text><polygon fill="#A80036" points="70,111.7266,60,115.7266,70,119.7266" style="stroke: #A80036; stroke-width: 1.0;"/><line style="stroke: #A80036; stroke-width: 1.0;" x1="64" x2="325" y1="115.7266" y2="115.7266"/><text fill="#000000" font-family="sans-serif" font-size="13" font-weight="bold" lengthAdjust="spacingAndGlyphs" textLength="9" x="76" y="110.7935">1</text><text fill="#000000" font-family="sans-serif" font-size="13" lengthAdjust="spacingAndGlyphs" textLength="84" x="89" y="110.7935">START_SCAN</text><polygon fill="#A80036" points="172,140.8594,182,144.8594,172,148.8594" style="stroke: #A80036; stroke-width: 1.0;"/><line style="stroke: #A80036; stroke-width: 1.0;" x1="59" x2="178" y1="144.8594" y2="144.8594"/><text fill="#000000" font-family="sans-serif" font-size="13" font-weight="bold" lengthAdjust="spacingAndGlyphs" textLength="9" x="66" y="139.9263">2</text><text fill="#000000" font-family="sans-serif" font-size="13" lengthAdjust="spacingAndGlyphs" textLength="84" x="79" y="139.9263">START_SCAN</text><rect fill="none" height="90.2031" style="stroke: #000000; stroke-width: 2.0;" width="230" x="13" y="159.9922"/><polygon fill="#EEEEEE" points="13,159.9922,77,159.9922,77,166.9922,67,176.9922,13,176.9922,13,159.9922" style="stroke: #000000; stroke-width: 2.0;"/><text fill="#000000" font-family="sans-serif" font-size="13" font-weight="bold" lengthAdjust="spacingAndGlyphs" textLength="19" x="28" y="173.0591">alt</text><text fill="#000000" font-family="sans-serif" font-size="11" font-weight="bold" lengthAdjust="spacingAndGlyphs" textLength="61" x="92" y="172.2026">[success]</text><polygon fill="#A80036" points="70,194.125,60,198.125,70,202.125" style="stroke: #A80036; stroke-width: 1.0;"/><line style="stroke: #A80036; stroke-width: 1.0;" x1="64" x2="183" y1="198.125" y2="198.125"/><text fill="#000000" font-family="sans-serif" font-size="13" font-weight="bold" lengthAdjust="spacingAndGlyphs" textLength="9" x="76" y="193.1919">3</text><text fill="#000000" font-family="sans-serif" font-size="13" lengthAdjust="spacingAndGlyphs" textLength="82" x="89" y="193.1919">SCAN_DONE</text><line style="stroke: #000000; stroke-width: 1.0; stroke-dasharray: 2.0,2.0;" x1="13" x2="243" y1="207.2578" y2="207.2578"/><text fill="#000000" font-family="sans-serif" font-size="11" font-weight="bold" lengthAdjust="spacingAndGlyphs" textLength="52" x="18" y="217.4683">[failure]</text><polygon fill="#A80036" points="70,238.0625,60,242.0625,70,246.0625" style="stroke: #A80036; stroke-width: 1.0;"/><line style="stroke: #A80036; stroke-width: 1.0;" x1="64" x2="183" y1="242.0625" y2="242.0625"/><text fill="#000000" font-family="sans-serif" font-size="13" font-weight="bold" lengthAdjust="spacingAndGlyphs" textLength="9" x="76" y="237.1294">4</text><text fill="#000000" font-family="sans-serif" font-size="13" lengthAdjust="spacingAndGlyphs" textLength="88" x="89" y="237.1294">SCAN_FAILED</text><polygon fill="#A80036" points="314,274.1953,324,278.1953,314,282.1953" style="stroke: #A80036; stroke-width: 1.0;"/><line style="stroke: #A80036; stroke-width: 1.0; stroke-dasharray: 2.0,2.0;" x1="59" x2="320" y1="278.1953" y2="278.1953"/><text fill="#000000" font-family="sans-serif" font-size="13" font-weight="bold" lengthAdjust="spacingAndGlyphs" textLength="9" x="66" y="273.2622">5</text><text fill="#000000" font-family="sans-serif" font-size="13" lengthAdjust="spacingAndGlyphs" textLength="0" x="83" y="273.2622"/></g></svg>