<?xml version="1.0" encoding="UTF-8" standalone="no"?><svg xmlns="http://www.w3.org/2000/svg" xmlns:xlink="http://www.w3.org/1999/xlink" contentScriptType="application/ecmascript" contentStyleType="text/css" height="1692px" preserveAspectRatio="none" style="width:773px;height:1692px;" version="1.1" viewBox="0 0 773 1692" width="773px" zoomAndPan="magnify"><defs><filter height="300%" id="fxwb75w" width="300%" x="-1" y="-1"><feGaussianBlur result="blurOut" stdDeviation="2.0"/><feColorMatrix in="blurOut" result="blurOut2" type="matrix" values="0 0 0 0 0 0 0 0 0 0 0 0 0 0 0 0 0 0 .4 0"/><feOffset dx="4.0" dy="4.0" in="blurOut2" result="blurOut3"/><feBlend in="SourceGraphic" in2="blurOut3" mode="normal"/></filter></defs><g><text fill="#000000" font-family="sans-serif" font-size="14" font-weight="bold" lengthAdjust="spacingAndGlyphs" text-decoration="underline" textLength="75" x="264.25" y="22.9951">Overview</text><line style="stroke: #000000; stroke-width: 1.0;" x1="264.25" x2="339.25" y1="24.9951" y2="24.9951"/><text fill="#000000" font-family="sans-serif" font-size="14" font-weight="bold" lengthAdjust="spacingAndGlyphs" textLength="78" x="344.25" y="22.9951">of domain</text><text fill="#000000" font-family="sans-serif" font-size="14" font-weight="bold" lengthAdjust="spacingAndGlyphs" textLength="85" x="427.25" y="22.9951">messaging</text><rect fill="#FFFFFF" filter="url(#fxwb75w)" height="90.2031" style="stroke: #000000; stroke-width: 2.0;" width="327.5" x="13" y="163.9922"/><rect fill="#FFFFFF" height="43.9375" style="stroke: none; stroke-width: 1.0;" width="327.5" x="13" y="210.2578"/><rect fill="#C8C8CF" height="1657.4375" style="stroke: #A80036; stroke-width: 1.0;" width="59" x="275.5" y="34.2969"/><text fill="#000000" font-family="sans-serif" font-size="13" font-weight="bold" lengthAdjust="spacingAndGlyphs" textLength="34" x="288" y="46.3638">scan</text><rect fill="#F8F8FF" height="1657.4375" style="stroke: #A80036; stroke-width: 1.0;" width="123" x="336.5" y="34.2969"/><text fill="#000000" font-family="sans-serif" font-size="13" font-weight="bold" lengthAdjust="spacingAndGlyphs" textLength="107" x="344.5" y="46.3638">administration</text><rect fill="#C8C8CF" height="1657.4375" style="stroke: #A80036; stroke-width: 1.0;" width="90" x="461.5" y="34.2969"/><text fill="#000000" font-family="sans-serif" font-size="13" font-weight="bold" lengthAdjust="spacingAndGlyphs" textLength="66" x="473.5" y="46.3638">schedule</text><rect fill="#F8F8FF" height="1657.4375" style="stroke: #A80036; stroke-width: 1.0;" width="116" x="553.5" y="34.2969"/><text fill="#000000" font-family="sans-serif" font-size="13" font-weight="bold" lengthAdjust="spacingAndGlyphs" textLength="97" x="563" y="46.3638">authorization</text><rect fill="#C8C8CF" height="1657.4375" style="stroke: #A80036; stroke-width: 1.0;" width="101" x="671.5" y="34.2969"/><text fill="#000000" font-family="sans-serif" font-size="13" font-weight="bold" lengthAdjust="spacingAndGlyphs" textLength="83" x="680.5" y="46.3638">notification</text><line style="stroke: #A80036; stroke-width: 1.0; stroke-dasharray: 5.0,5.0;" x1="59" x2="59" y1="88.7266" y2="1640.4375"/><line style="stroke: #A80036; stroke-width: 1.0; stroke-dasharray: 5.0,5.0;" x1="304.5" x2="304.5" y1="88.7266" y2="1640.4375"/><line style="stroke: #A80036; stroke-width: 1.0; stroke-dasharray: 5.0,5.0;" x1="397.5" x2="397.5" y1="88.7266" y2="1640.4375"/><line style="stroke: #A80036; stroke-width: 1.0; stroke-dasharray: 5.0,5.0;" x1="506.5" x2="506.5" y1="88.7266" y2="1640.4375"/><line style="stroke: #A80036; stroke-width: 1.0; stroke-dasharray: 5.0,5.0;" x1="611.5" x2="611.5" y1="88.7266" y2="1640.4375"/><line style="stroke: #A80036; stroke-width: 1.0; stroke-dasharray: 5.0,5.0;" x1="721.5" x2="721.5" y1="88.7266" y2="1640.4375"/><text fill="#000000" font-family="sans-serif" font-size="14" lengthAdjust="spacingAndGlyphs" textLength="66" x="23" y="85.4248">EventBus</text><ellipse cx="59" cy="56.4297" fill="#FEFECE" filter="url(#fxwb75w)" rx="12" ry="12" style="stroke: #A80036; stroke-width: 2.0;"/><polygon fill="#A80036" points="55,44.4297,61,39.4297,59,44.4297,61,49.4297,55,44.4297" style="stroke: #A80036; stroke-width: 1.0;"/><text fill="#000000" font-family="sans-serif" font-size="14" lengthAdjust="spacingAndGlyphs" textLength="66" x="23" y="1652.4326">EventBus</text><ellipse cx="59" cy="1671.7344" fill="#FEFECE" filter="url(#fxwb75w)" rx="12" ry="12" style="stroke: #A80036; stroke-width: 2.0;"/><polygon fill="#A80036" points="55,1659.7344,61,1654.7344,59,1659.7344,61,1664.7344,55,1659.7344" style="stroke: #A80036; stroke-width: 1.0;"/><rect fill="#FEFECE" filter="url(#fxwb75w)" height="30.2969" style="stroke: #A80036; stroke-width: 1.5;" width="47" x="279.5" y="53.4297"/><text fill="#000000" font-family="sans-serif" font-size="14" lengthAdjust="spacingAndGlyphs" textLength="33" x="286.5" y="73.4248">scan</text><rect fill="#FEFECE" filter="url(#fxwb75w)" height="30.2969" style="stroke: #A80036; stroke-width: 1.5;" width="47" x="279.5" y="1639.4375"/><text fill="#000000" font-family="sans-serif" font-size="14" lengthAdjust="spacingAndGlyphs" textLength="33" x="286.5" y="1659.4326">scan</text><rect fill="#FEFECE" filter="url(#fxwb75w)" height="30.2969" style="stroke: #A80036; stroke-width: 1.5;" width="111" x="340.5" y="53.4297"/><text fill="#000000" font-family="sans-serif" font-size="14" lengthAdjust="spacingAndGlyphs" textLength="97" x="347.5" y="73.4248">administration</text><rect fill="#FEFECE" filter="url(#fxwb75w)" height="30.2969" style="stroke: #A80036; stroke-width: 1.5;" width="111" x="340.5" y="1639.4375"/><text fill="#000000" font-family="sans-serif" font-size="14" lengthAdjust="spacingAndGlyphs" textLength="97" x="347.5" y="1659.4326">administration</text><rect fill="#FEFECE" filter="url(#fxwb75w)" height="30.2969" style="stroke: #A80036; stroke-width: 1.5;" width="78" x="465.5" y="53.4297"/><text fill="#000000" font-family="sans-serif" font-size="14" lengthAdjust="spacingAndGlyphs" textLength="64" x="472.5" y="73.4248">schedule</text><rect fill="#FEFECE" filter="url(#fxwb75w)" height="30.2969" style="stroke: #A80036; stroke-width: 1.5;" width="78" x="465.5" y="1639.4375"/><text fill="#000000" font-family="sans-serif" font-size="14" lengthAdjust="spacingAndGlyphs" textLength="64" x="472.5" y="1659.4326">schedule</text><rect fill="#FEFECE" filter="url(#fxwb75w)" height="30.2969" style="stroke: #A80036; stroke-width: 1.5;" width="104" x="557.5" y="53.4297"/><text fill="#000000" font-family="sans-serif" font-size="14" lengthAdjust="spacingAndGlyphs" textLength="90" x="564.5" y="73.4248">authorization</text><rect fill="#FEFECE" filter="url(#fxwb75w)" height="30.2969" style="stroke: #A80036; stroke-width: 1.5;" width="104" x="557.5" y="1639.4375"/><text fill="#000000" font-family="sans-serif" font-size="14" lengthAdjust="spacingAndGlyphs" textLength="90" x="564.5" y="1659.4326">authorization</text><rect fill="#FEFECE" filter="url(#fxwb75w)" height="30.2969" style="stroke: #A80036; stroke-width: 1.5;" width="89" x="675.5" y="53.4297"/><text fill="#000000" font-family="sans-serif" font-size="14" lengthAdjust="spacingAndGlyphs" textLength="75" x="682.5" y="73.4248">notification</text><rect fill="#FEFECE" filter="url(#fxwb75w)" height="30.2969" style="stroke: #A80036; stroke-width: 1.5;" width="89" x="675.5" y="1639.4375"/><text fill="#000000" font-family="sans-serif" font-size="14" lengthAdjust="spacingAndGlyphs" textLength="75" x="682.5" y="1659.4326">notification</text><polygon fill="#A80036" points="70,115.7266,60,119.7266,70,123.7266,66,119.7266" style="stroke: #A80036; stroke-width: 1.0;"/><line style="stroke: #A80036; stroke-width: 1.0;" x1="64" x2="505.5" y1="119.7266" y2="119.7266"/><text fill="#000000" font-family="sans-serif" font-size="13" font-weight="bold" lengthAdjust="spacingAndGlyphs" textLength="9" x="76" y="114.7935">1</text><text fill="#000000" font-family="sans-serif" font-size="13" lengthAdjust="spacingAndGlyphs" textLength="84" x="89" y="114.7935">START_SCAN</text><polygon fill="#A80036" points="293,144.8594,303,148.8594,293,152.8594,297,148.8594" style="stroke: #A80036; stroke-width: 1.0;"/><line style="stroke: #A80036; stroke-width: 1.0;" x1="59" x2="299" y1="148.8594" y2="148.8594"/><text fill="#000000" font-family="sans-serif" font-size="13" font-weight="bold" lengthAdjust="spacingAndGlyphs" textLength="9" x="66" y="143.9263">2</text><text fill="#000000" font-family="sans-serif" font-size="13" lengthAdjust="spacingAndGlyphs" textLength="84" x="79" y="143.9263">START_SCAN</text><rect fill="none" height="90.2031" style="stroke: #000000; stroke-width: 2.0;" width="327.5" x="13" y="163.9922"/><polygon fill="#EEEEEE" points="13,163.9922,77,163.9922,77,170.9922,67,180.9922,13,180.9922,13,163.9922" style="stroke: #000000; stroke-width: 2.0;"/><text fill="#000000" font-family="sans-serif" font-size="13" font-weight="bold" lengthAdjust="spacingAndGlyphs" textLength="19" x="28" y="177.0591">alt</text><text fill="#000000" font-family="sans-serif" font-size="11" font-weight="bold" lengthAdjust="spacingAndGlyphs" textLength="61" x="92" y="176.2026">[success]</text><polygon fill="#A80036" points="70,198.125,60,202.125,70,206.125,66,202.125" style="stroke: #A80036; stroke-width: 1.0;"/><line style="stroke: #A80036; stroke-width: 1.0;" x1="64" x2="304" y1="202.125" y2="202.125"/><text fill="#000000" font-family="sans-serif" font-size="13" font-weight="bold" lengthAdjust="spacingAndGlyphs" textLength="9" x="76" y="197.1919">3</text><text fill="#000000" font-family="sans-serif" font-size="13" lengthAdjust="spacingAndGlyphs" textLength="82" x="89" y="197.1919">SCAN_DONE</text><line style="stroke: #000000; stroke-width: 1.0; stroke-dasharray: 2.0,2.0;" x1="13" x2="340.5" y1="211.2578" y2="211.2578"/><text fill="#000000" font-family="sans-serif" font-size="11" font-weight="bold" lengthAdjust="spacingAndGlyphs" textLength="52" x="18" y="221.4683">[failure]</text><polygon fill="#A80036" points="70,242.0625,60,246.0625,70,250.0625,66,246.0625" style="stroke: #A80036; stroke-width: 1.0;"/><line style="stroke: #A80036; stroke-width: 1.0;" x1="64" x2="304" y1="246.0625" y2="246.0625"/><text fill="#000000" font-family="sans-serif" font-size="13" font-weight="bold" lengthAdjust="spacingAndGlyphs" textLength="9" x="76" y="241.1294">4</text><text fill="#000000" font-family="sans-serif" font-size="13" lengthAdjust="spacingAndGlyphs" textLength="88" x="89" y="241.1294">SCAN_FAILED</text><polygon fill="#A80036" points="494.5,278.1953,504.5,282.1953,494.5,286.1953,498.5,282.1953" style="stroke: #A80036; stroke-width: 1.0;"/><line style="stroke: #A80036; stroke-width: 1.0; stroke-dasharray: 2.0,2.0;" x1="59" x2="500.5" y1="282.1953" y2="282.1953"/><text fill="#000000" font-family="sans-serif" font-size="13" font-weight="bold" lengthAdjust="spacingAndGlyphs" textLength="9" x="66" y="277.2622">5</text><text fill="#000000" font-family="sans-serif" font-size="13" lengthAdjust="spacingAndGlyphs" textLength="0" x="83" y="277.2622"/><line style="stroke: #A80036; stroke-width: 1.0;" x1="59" x2="69" y1="311.3281" y2="307.3281"/><line style="stroke: #A80036; stroke-width: 1.0;" x1="59" x2="69" y1="311.3281" y2="315.3281"/><line style="stroke: #A80036; stroke-width: 1.0;" x1="59" x2="397" y1="311.3281" y2="311.3281"/><text fill="#000000" font-family="sans-serif" font-size="13" font-weight="bold" lengthAdjust="spacingAndGlyphs" textLength="9" x="76" y="306.395">1</text><text fill="#000000" font-family="sans-serif" font-size="13" lengthAdjust="spacingAndGlyphs" textLength="101" x="89" y="306.395">USER_CREATED</text><line style="stroke: #A80036; stroke-width: 1.0;" x1="59" x2="69" y1="340.4609" y2="336.4609"/><line style="stroke: #A80036; stroke-width: 1.0;" x1="59" x2="69" y1="340.4609" y2="344.4609"/><line style="stroke: #A80036; stroke-width: 1.0;" x1="59" x2="397" y1="340.4609" y2="340.4609"/><text fill="#000000" font-family="sans-serif" font-size="13" font-weight="bold" lengthAdjust="spacingAndGlyphs" textLength="9" x="76" y="335.5278">2</text><text fill="#000000" font-family="sans-serif" font-size="13" lengthAdjust="spacingAndGlyphs" textLength="101" x="89" y="335.5278">USER_CREATED</text><line style="stroke: #A80036; stroke-width: 1.0;" x1="609.5" x2="599.5" y1="369.5938" y2="365.5938"/><line style="stroke: #A80036; stroke-width: 1.0;" x1="609.5" x2="599.5" y1="369.5938" y2="373.5938"/><line style="stroke: #A80036; stroke-width: 1.0;" x1="59" x2="610.5" y1="369.5938" y2="369.5938"/><text fill="#000000" font-family="sans-serif" font-size="13" font-weight="bold" lengthAdjust="spacingAndGlyphs" textLength="9" x="66" y="364.6606">3</text><text fill="#000000" font-family="sans-serif" font-size="13" lengthAdjust="spacingAndGlyphs" textLength="101" x="79" y="364.6606">USER_CREATED</text><line style="stroke: #A80036; stroke-width: 1.0;" x1="59" x2="69" y1="398.7266" y2="394.7266"/><line style="stroke: #A80036; stroke-width: 1.0;" x1="59" x2="69" y1="398.7266" y2="402.7266"/><line style="stroke: #A80036; stroke-width: 1.0;" x1="59" x2="397" y1="398.7266" y2="398.7266"/><text fill="#000000" font-family="sans-serif" font-size="13" font-weight="bold" lengthAdjust="spacingAndGlyphs" textLength="9" x="76" y="393.7935">1</text><text fill="#000000" font-family="sans-serif" font-size="13" lengthAdjust="spacingAndGlyphs" textLength="185" x="89" y="393.7935">USER_API_TOKEN_CHANGED</text><line style="stroke: #A80036; stroke-width: 1.0;" x1="59" x2="69" y1="427.8594" y2="423.8594"/><line style="stroke: #A80036; stroke-width: 1.0;" x1="59" x2="69" y1="427.8594" y2="431.8594"/><line style="stroke: #A80036; stroke-width: 1.0;" x1="59" x2="397" y1="427.8594" y2="427.8594"/><text fill="#000000" font-family="sans-serif" font-size="13" font-weight="bold" lengthAdjust="spacingAndGlyphs" textLength="9" x="76" y="422.9263">2</text><text fill="#000000" font-family="sans-serif" font-size="13" lengthAdjust="spacingAndGlyphs" textLength="185" x="89" y="422.9263">USER_API_TOKEN_CHANGED</text><line style="stroke: #A80036; stroke-width: 1.0;" x1="609.5" x2="599.5" y1="456.9922" y2="452.9922"/><line style="stroke: #A80036; stroke-width: 1.0;" x1="609.5" x2="599.5" y1="456.9922" y2="460.9922"/><line style="stroke: #A80036; stroke-width: 1.0;" x1="59" x2="610.5" y1="456.9922" y2="456.9922"/><text fill="#000000" font-family="sans-serif" font-size="13" font-weight="bold" lengthAdjust="spacingAndGlyphs" textLength="9" x="66" y="452.0591">3</text><text fill="#000000" font-family="sans-serif" font-size="13" lengthAdjust="spacingAndGlyphs" textLength="185" x="79" y="452.0591">USER_API_TOKEN_CHANGED</text><line style="stroke: #A80036; stroke-width: 1.0;" x1="720" x2="710" y1="486.125" y2="482.125"/><line style="stroke: #A80036; stroke-width: 1.0;" x1="720" x2="710" y1="486.125" y2="490.125"/><line style="stroke: #A80036; stroke-width: 1.0;" x1="59" x2="721" y1="486.125" y2="486.125"/><text fill="#000000" font-family="sans-serif" font-size="13" font-weight="bold" lengthAdjust="spacingAndGlyphs" textLength="9" x="66" y="481.1919">4</text><text fill="#000000" font-family="sans-serif" font-size="13" lengthAdjust="spacingAndGlyphs" textLength="185" x="79" y="481.1919">USER_API_TOKEN_CHANGED</text><line style="stroke: #A80036; stroke-width: 1.0;" x1="59" x2="69" y1="515.2578" y2="511.2578"/><line style="stroke: #A80036; stroke-width: 1.0;" x1="59" x2="69" y1="515.2578" y2="519.2578"/><line style="stroke: #A80036; stroke-width: 1.0;" x1="59" x2="397" y1="515.2578" y2="515.2578"/><text fill="#000000" font-family="sans-serif" font-size="13" font-weight="bold" lengthAdjust="spacingAndGlyphs" textLength="9" x="76" y="510.3247">1</text><text fill="#000000" font-family="sans-serif" font-size="13" lengthAdjust="spacingAndGlyphs" textLength="233" x="89" y="510.3247">USER_NEW_API_TOKEN_REQUESTED</text><line style="stroke: #A80036; stroke-width: 1.0;" x1="59" x2="69" y1="544.3906" y2="540.3906"/><line style="stroke: #A80036; stroke-width: 1.0;" x1="59" x2="69" y1="544.3906" y2="548.3906"/><line style="stroke: #A80036; stroke-width: 1.0;" x1="59" x2="397" y1="544.3906" y2="544.3906"/><text fill="#000000" font-family="sans-serif" font-size="13" font-weight="bold" lengthAdjust="spacingAndGlyphs" textLength="9" x="76" y="539.4575">2</text><text fill="#000000" font-family="sans-serif" font-size="13" lengthAdjust="spacingAndGlyphs" textLength="233" x="89" y="539.4575">USER_NEW_API_TOKEN_REQUESTED</text><line style="stroke: #A80036; stroke-width: 1.0;" x1="720" x2="710" y1="573.5234" y2="569.5234"/><line style="stroke: #A80036; stroke-width: 1.0;" x1="720" x2="710" y1="573.5234" y2="577.5234"/><line style="stroke: #A80036; stroke-width: 1.0;" x1="59" x2="721" y1="573.5234" y2="573.5234"/><text fill="#000000" font-family="sans-serif" font-size="13" font-weight="bold" lengthAdjust="spacingAndGlyphs" textLength="9" x="66" y="568.5903">3</text><text fill="#000000" font-family="sans-serif" font-size="13" lengthAdjust="spacingAndGlyphs" textLength="233" x="79" y="568.5903">USER_NEW_API_TOKEN_REQUESTED</text><line style="stroke: #A80036; stroke-width: 1.0;" x1="59" x2="69" y1="602.6563" y2="598.6563"/><line style="stroke: #A80036; stroke-width: 1.0;" x1="59" x2="69" y1="602.6563" y2="606.6563"/><line style="stroke: #A80036; stroke-width: 1.0;" x1="59" x2="397" y1="602.6563" y2="602.6563"/><text fill="#000000" font-family="sans-serif" font-size="13" font-weight="bold" lengthAdjust="spacingAndGlyphs" textLength="9" x="76" y="597.7231">1</text><text fill="#000000" font-family="sans-serif" font-size="13" lengthAdjust="spacingAndGlyphs" textLength="173" x="89" y="597.7231">USER_ADDED_TO_PROJECT</text><line style="stroke: #A80036; stroke-width: 1.0;" x1="303" x2="293" y1="631.7891" y2="627.7891"/><line style="stroke: #A80036; stroke-width: 1.0;" x1="303" x2="293" y1="631.7891" y2="635.7891"/><line style="stroke: #A80036; stroke-width: 1.0;" x1="59" x2="304" y1="631.7891" y2="631.7891"/><text fill="#000000" font-family="sans-serif" font-size="13" font-weight="bold" lengthAdjust="spacingAndGlyphs" textLength="9" x="66" y="626.856">2</text><text fill="#000000" font-family="sans-serif" font-size="13" lengthAdjust="spacingAndGlyphs" textLength="173" x="79" y="626.856">USER_ADDED_TO_PROJECT</text><line style="stroke: #A80036; stroke-width: 1.0;" x1="504.5" x2="494.5" y1="660.9219" y2="656.9219"/><line style="stroke: #A80036; stroke-width: 1.0;" x1="504.5" x2="494.5" y1="660.9219" y2="664.9219"/><line style="stroke: #A80036; stroke-width: 1.0;" x1="59" x2="505.5" y1="660.9219" y2="660.9219"/><text fill="#000000" font-family="sans-serif" font-size="13" font-weight="bold" lengthAdjust="spacingAndGlyphs" textLength="9" x="66" y="655.9888">3</text><text fill="#000000" font-family="sans-serif" font-size="13" lengthAdjust="spacingAndGlyphs" textLength="173" x="79" y="655.9888">USER_ADDED_TO_PROJECT</text><line style="stroke: #A80036; stroke-width: 1.0;" x1="59" x2="69" y1="690.0547" y2="686.0547"/><line style="stroke: #A80036; stroke-width: 1.0;" x1="59" x2="69" y1="690.0547" y2="694.0547"/><line style="stroke: #A80036; stroke-width: 1.0;" x1="59" x2="397" y1="690.0547" y2="690.0547"/><text fill="#000000" font-family="sans-serif" font-size="13" font-weight="bold" lengthAdjust="spacingAndGlyphs" textLength="9" x="76" y="685.1216">1</text><text fill="#000000" font-family="sans-serif" font-size="13" lengthAdjust="spacingAndGlyphs" textLength="209" x="89" y="685.1216">USER_REMOVED_FROM_PROJECT</text><line style="stroke: #A80036; stroke-width: 1.0;" x1="303" x2="293" y1="719.1875" y2="715.1875"/><line style="stroke: #A80036; stroke-width: 1.0;" x1="303" x2="293" y1="719.1875" y2="723.1875"/><line style="stroke: #A80036; stroke-width: 1.0;" x1="59" x2="304" y1="719.1875" y2="719.1875"/><text fill="#000000" font-family="sans-serif" font-size="13" font-weight="bold" lengthAdjust="spacingAndGlyphs" textLength="9" x="66" y="714.2544">2</text><text fill="#000000" font-family="sans-serif" font-size="13" lengthAdjust="spacingAndGlyphs" textLength="209" x="79" y="714.2544">USER_REMOVED_FROM_PROJECT</text><line style="stroke: #A80036; stroke-width: 1.0;" x1="504.5" x2="494.5" y1="748.3203" y2="744.3203"/><line style="stroke: #A80036; stroke-width: 1.0;" x1="504.5" x2="494.5" y1="748.3203" y2="752.3203"/><line style="stroke: #A80036; stroke-width: 1.0;" x1="59" x2="505.5" y1="748.3203" y2="748.3203"/><text fill="#000000" font-family="sans-serif" font-size="13" font-weight="bold" lengthAdjust="spacingAndGlyphs" textLength="9" x="66" y="743.3872">3</text><text fill="#000000" font-family="sans-serif" font-size="13" lengthAdjust="spacingAndGlyphs" textLength="209" x="79" y="743.3872">USER_REMOVED_FROM_PROJECT</text><line style="stroke: #A80036; stroke-width: 1.0;" x1="59" x2="69" y1="777.4531" y2="773.4531"/><line style="stroke: #A80036; stroke-width: 1.0;" x1="59" x2="69" y1="777.4531" y2="781.4531"/><line style="stroke: #A80036; stroke-width: 1.0;" x1="59" x2="397" y1="777.4531" y2="777.4531"/><text fill="#000000" font-family="sans-serif" font-size="13" font-weight="bold" lengthAdjust="spacingAndGlyphs" textLength="9" x="76" y="772.52">1</text><text fill="#000000" font-family="sans-serif" font-size="13" lengthAdjust="spacingAndGlyphs" textLength="157" x="89" y="772.52">USER_ROLES_CHANGED</text><line style="stroke: #A80036; stroke-width: 1.0;" x1="609.5" x2="599.5" y1="806.5859" y2="802.5859"/><line style="stroke: #A80036; stroke-width: 1.0;" x1="609.5" x2="599.5" y1="806.5859" y2="810.5859"/><line style="stroke: #A80036; stroke-width: 1.0;" x1="59" x2="610.5" y1="806.5859" y2="806.5859"/><text fill="#000000" font-family="sans-serif" font-size="13" font-weight="bold" lengthAdjust="spacingAndGlyphs" textLength="9" x="66" y="801.6528">2</text><text fill="#000000" font-family="sans-serif" font-size="13" lengthAdjust="spacingAndGlyphs" textLength="157" x="79" y="801.6528">USER_ROLES_CHANGED</text><line style="stroke: #A80036; stroke-width: 1.0;" x1="59" x2="69" y1="835.7188" y2="831.7188"/><line style="stroke: #A80036; stroke-width: 1.0;" x1="59" x2="69" y1="835.7188" y2="839.7188"/><line style="stroke: #A80036; stroke-width: 1.0;" x1="59" x2="397" y1="835.7188" y2="835.7188"/><text fill="#000000" font-family="sans-serif" font-size="13" font-weight="bold" lengthAdjust="spacingAndGlyphs" textLength="9" x="76" y="830.7856">1</text><text fill="#000000" font-family="sans-serif" font-size="13" lengthAdjust="spacingAndGlyphs" textLength="100" x="89" y="830.7856">USER_DELETED</text><line style="stroke: #A80036; stroke-width: 1.0;" x1="303" x2="293" y1="864.8516" y2="860.8516"/><line style="stroke: #A80036; stroke-width: 1.0;" x1="303" x2="293" y1="864.8516" y2="868.8516"/><line style="stroke: #A80036; stroke-width: 1.0;" x1="59" x2="304" y1="864.8516" y2="864.8516"/><text fill="#000000" font-family="sans-serif" font-size="13" font-weight="bold" lengthAdjust="spacingAndGlyphs" textLength="9" x="66" y="859.9185">2</text><text fill="#000000" font-family="sans-serif" font-size="13" lengthAdjust="spacingAndGlyphs" textLength="100" x="79" y="859.9185">USER_DELETED</text><line style="stroke: #A80036; stroke-width: 1.0;" x1="504.5" x2="494.5" y1="893.9844" y2="889.9844"/><line style="stroke: #A80036; stroke-width: 1.0;" x1="504.5" x2="494.5" y1="893.9844" y2="897.9844"/><line style="stroke: #A80036; stroke-width: 1.0;" x1="59" x2="505.5" y1="893.9844" y2="893.9844"/><text fill="#000000" font-family="sans-serif" font-size="13" font-weight="bold" lengthAdjust="spacingAndGlyphs" textLength="9" x="66" y="889.0513">3</text><text fill="#000000" font-family="sans-serif" font-size="13" lengthAdjust="spacingAndGlyphs" textLength="100" x="79" y="889.0513">USER_DELETED</text><line style="stroke: #A80036; stroke-width: 1.0;" x1="609.5" x2="599.5" y1="923.1172" y2="919.1172"/><line style="stroke: #A80036; stroke-width: 1.0;" x1="609.5" x2="599.5" y1="923.1172" y2="927.1172"/><line style="stroke: #A80036; stroke-width: 1.0;" x1="59" x2="610.5" y1="923.1172" y2="923.1172"/><text fill="#000000" font-family="sans-serif" font-size="13" font-weight="bold" lengthAdjust="spacingAndGlyphs" textLength="9" x="66" y="918.1841">4</text><text fill="#000000" font-family="sans-serif" font-size="13" lengthAdjust="spacingAndGlyphs" textLength="100" x="79" y="918.1841">USER_DELETED</text><line style="stroke: #A80036; stroke-width: 1.0;" x1="720" x2="710" y1="952.25" y2="948.25"/><line style="stroke: #A80036; stroke-width: 1.0;" x1="720" x2="710" y1="952.25" y2="956.25"/><line style="stroke: #A80036; stroke-width: 1.0;" x1="59" x2="721" y1="952.25" y2="952.25"/><text fill="#000000" font-family="sans-serif" font-size="13" font-weight="bold" lengthAdjust="spacingAndGlyphs" textLength="9" x="66" y="947.3169">5</text><text fill="#000000" font-family="sans-serif" font-size="13" lengthAdjust="spacingAndGlyphs" textLength="100" x="79" y="947.3169">USER_DELETED</text><line style="stroke: #A80036; stroke-width: 1.0;" x1="59" x2="69" y1="981.3828" y2="977.3828"/><line style="stroke: #A80036; stroke-width: 1.0;" x1="59" x2="69" y1="981.3828" y2="985.3828"/><line style="stroke: #A80036; stroke-width: 1.0;" x1="59" x2="397" y1="981.3828" y2="981.3828"/><text fill="#000000" font-family="sans-serif" font-size="13" font-weight="bold" lengthAdjust="spacingAndGlyphs" textLength="9" x="76" y="976.4497">1</text><text fill="#000000" font-family="sans-serif" font-size="13" lengthAdjust="spacingAndGlyphs" textLength="119" x="89" y="976.4497">PROJECT_CREATED</text><line style="stroke: #A80036; stroke-width: 1.0;" x1="504.5" x2="494.5" y1="1010.5156" y2="1006.5156"/><line style="stroke: #A80036; stroke-width: 1.0;" x1="504.5" x2="494.5" y1="1010.5156" y2="1014.5156"/><line style="stroke: #A80036; stroke-width: 1.0;" x1="59" x2="505.5" y1="1010.5156" y2="1010.5156"/><text fill="#000000" font-family="sans-serif" font-size="13" font-weight="bold" lengthAdjust="spacingAndGlyphs" textLength="9" x="66" y="1005.5825">2</text><text fill="#000000" font-family="sans-serif" font-size="13" lengthAdjust="spacingAndGlyphs" textLength="119" x="79" y="1005.5825">PROJECT_CREATED</text><line style="stroke: #A80036; stroke-width: 1.0;" x1="59" x2="69" y1="1039.6484" y2="1035.6484"/><line style="stroke: #A80036; stroke-width: 1.0;" x1="59" x2="69" y1="1039.6484" y2="1043.6484"/><line style="stroke: #A80036; stroke-width: 1.0;" x1="59" x2="397" y1="1039.6484" y2="1039.6484"/><text fill="#000000" font-family="sans-serif" font-size="13" font-weight="bold" lengthAdjust="spacingAndGlyphs" textLength="9" x="76" y="1034.7153">1</text><text fill="#000000" font-family="sans-serif" font-size="13" lengthAdjust="spacingAndGlyphs" textLength="194" x="89" y="1034.7153">PROJECT_WHITELIST_UPDATED</text><line style="stroke: #A80036; stroke-width: 1.0;" x1="504.5" x2="494.5" y1="1068.7813" y2="1064.7813"/><line style="stroke: #A80036; stroke-width: 1.0;" x1="504.5" x2="494.5" y1="1068.7813" y2="1072.7813"/><line style="stroke: #A80036; stroke-width: 1.0;" x1="59" x2="505.5" y1="1068.7813" y2="1068.7813"/><text fill="#000000" font-family="sans-serif" font-size="13" font-weight="bold" lengthAdjust="spacingAndGlyphs" textLength="9" x="66" y="1063.8481">2</text><text fill="#000000" font-family="sans-serif" font-size="13" lengthAdjust="spacingAndGlyphs" textLength="194" x="79" y="1063.8481">PROJECT_WHITELIST_UPDATED</text><line style="stroke: #A80036; stroke-width: 1.0;" x1="59" x2="69" y1="1097.9141" y2="1093.9141"/><line style="stroke: #A80036; stroke-width: 1.0;" x1="59" x2="69" y1="1097.9141" y2="1101.9141"/><line style="stroke: #A80036; stroke-width: 1.0;" x1="59" x2="505.5" y1="1097.9141" y2="1097.9141"/><text fill="#000000" font-family="sans-serif" font-size="13" font-weight="bold" lengthAdjust="spacingAndGlyphs" textLength="9" x="76" y="1092.981">1</text><text fill="#000000" font-family="sans-serif" font-size="13" lengthAdjust="spacingAndGlyphs" textLength="87" x="89" y="1092.981">JOB_STARTED</text><line style="stroke: #A80036; stroke-width: 1.0;" x1="396" x2="386" y1="1127.0469" y2="1123.0469"/><line style="stroke: #A80036; stroke-width: 1.0;" x1="396" x2="386" y1="1127.0469" y2="1131.0469"/><line style="stroke: #A80036; stroke-width: 1.0;" x1="59" x2="397" y1="1127.0469" y2="1127.0469"/><text fill="#000000" font-family="sans-serif" font-size="13" font-weight="bold" lengthAdjust="spacingAndGlyphs" textLength="9" x="66" y="1122.1138">2</text><text fill="#000000" font-family="sans-serif" font-size="13" lengthAdjust="spacingAndGlyphs" textLength="87" x="79" y="1122.1138">JOB_STARTED</text><line style="stroke: #A80036; stroke-width: 1.0;" x1="59" x2="69" y1="1156.1797" y2="1152.1797"/><line style="stroke: #A80036; stroke-width: 1.0;" x1="59" x2="69" y1="1156.1797" y2="1160.1797"/><line style="stroke: #A80036; stroke-width: 1.0;" x1="59" x2="505.5" y1="1156.1797" y2="1156.1797"/><text fill="#000000" font-family="sans-serif" font-size="13" font-weight="bold" lengthAdjust="spacingAndGlyphs" textLength="9" x="76" y="1151.2466">1</text><text fill="#000000" font-family="sans-serif" font-size="13" lengthAdjust="spacingAndGlyphs" textLength="67" x="89" y="1151.2466">JOB_DONE</text><line style="stroke: #A80036; stroke-width: 1.0;" x1="396" x2="386" y1="1185.3125" y2="1181.3125"/><line style="stroke: #A80036; stroke-width: 1.0;" x1="396" x2="386" y1="1185.3125" y2="1189.3125"/><line style="stroke: #A80036; stroke-width: 1.0;" x1="59" x2="397" y1="1185.3125" y2="1185.3125"/><text fill="#000000" font-family="sans-serif" font-size="13" font-weight="bold" lengthAdjust="spacingAndGlyphs" textLength="9" x="66" y="1180.3794">2</text><text fill="#000000" font-family="sans-serif" font-size="13" lengthAdjust="spacingAndGlyphs" textLength="67" x="79" y="1180.3794">JOB_DONE</text><line style="stroke: #A80036; stroke-width: 1.0;" x1="59" x2="69" y1="1214.4453" y2="1210.4453"/><line style="stroke: #A80036; stroke-width: 1.0;" x1="59" x2="69" y1="1214.4453" y2="1218.4453"/><line style="stroke: #A80036; stroke-width: 1.0;" x1="59" x2="397" y1="1214.4453" y2="1214.4453"/><text fill="#000000" font-family="sans-serif" font-size="13" font-weight="bold" lengthAdjust="spacingAndGlyphs" textLength="9" x="76" y="1209.5122">1</text><text fill="#000000" font-family="sans-serif" font-size="13" lengthAdjust="spacingAndGlyphs" textLength="177" x="89" y="1209.5122">USER_SIGNUP_REQUESTED</text><line style="stroke: #A80036; stroke-width: 1.0;" x1="720" x2="710" y1="1243.5781" y2="1239.5781"/><line style="stroke: #A80036; stroke-width: 1.0;" x1="720" x2="710" y1="1243.5781" y2="1247.5781"/><line style="stroke: #A80036; stroke-width: 1.0;" x1="59" x2="721" y1="1243.5781" y2="1243.5781"/><text fill="#000000" font-family="sans-serif" font-size="13" font-weight="bold" lengthAdjust="spacingAndGlyphs" textLength="9" x="66" y="1238.645">2</text><text fill="#000000" font-family="sans-serif" font-size="13" lengthAdjust="spacingAndGlyphs" textLength="177" x="79" y="1238.645">USER_SIGNUP_REQUESTED</text><line style="stroke: #A80036; stroke-width: 1.0;" x1="59" x2="69" y1="1272.7109" y2="1268.7109"/><line style="stroke: #A80036; stroke-width: 1.0;" x1="59" x2="69" y1="1272.7109" y2="1276.7109"/><line style="stroke: #A80036; stroke-width: 1.0;" x1="59" x2="505.5" y1="1272.7109" y2="1272.7109"/><text fill="#000000" font-family="sans-serif" font-size="13" font-weight="bold" lengthAdjust="spacingAndGlyphs" textLength="9" x="76" y="1267.7778">1</text><text fill="#000000" font-family="sans-serif" font-size="13" lengthAdjust="spacingAndGlyphs" textLength="73" x="89" y="1267.7778">JOB_FAILED</text><line style="stroke: #A80036; stroke-width: 1.0;" x1="396" x2="386" y1="1301.8438" y2="1297.8438"/><line style="stroke: #A80036; stroke-width: 1.0;" x1="396" x2="386" y1="1301.8438" y2="1305.8438"/><line style="stroke: #A80036; stroke-width: 1.0;" x1="59" x2="397" y1="1301.8438" y2="1301.8438"/><text fill="#000000" font-family="sans-serif" font-size="13" font-weight="bold" lengthAdjust="spacingAndGlyphs" textLength="9" x="66" y="1296.9106">2</text><text fill="#000000" font-family="sans-serif" font-size="13" lengthAdjust="spacingAndGlyphs" textLength="73" x="79" y="1296.9106">JOB_FAILED</text><line style="stroke: #A80036; stroke-width: 1.0;" x1="59" x2="69" y1="1330.9766" y2="1326.9766"/><line style="stroke: #A80036; stroke-width: 1.0;" x1="59" x2="69" y1="1330.9766" y2="1334.9766"/><line style="stroke: #A80036; stroke-width: 1.0;" x1="59" x2="397" y1="1330.9766" y2="1330.9766"/><text fill="#000000" font-family="sans-serif" font-size="13" font-weight="bold" lengthAdjust="spacingAndGlyphs" textLength="9" x="76" y="1326.0435">1</text><text fill="#000000" font-family="sans-serif" font-size="13" lengthAdjust="spacingAndGlyphs" textLength="255" x="89" y="1326.0435">REQUEST_USER_ROLE_RECALCULATION</text><line style="stroke: #A80036; stroke-width: 1.0;" x1="59" x2="69" y1="1360.1094" y2="1356.1094"/><line style="stroke: #A80036; stroke-width: 1.0;" x1="59" x2="69" y1="1360.1094" y2="1364.1094"/><line style="stroke: #A80036; stroke-width: 1.0;" x1="59" x2="397" y1="1360.1094" y2="1360.1094"/><text fill="#000000" font-family="sans-serif" font-size="13" font-weight="bold" lengthAdjust="spacingAndGlyphs" textLength="9" x="76" y="1355.1763">2</text><text fill="#000000" font-family="sans-serif" font-size="13" lengthAdjust="spacingAndGlyphs" textLength="255" x="89" y="1355.1763">REQUEST_USER_ROLE_RECALCULATION</text><line style="stroke: #A80036; stroke-width: 1.0;" x1="59" x2="69" y1="1389.2422" y2="1385.2422"/><line style="stroke: #A80036; stroke-width: 1.0;" x1="59" x2="69" y1="1389.2422" y2="1393.2422"/><line style="stroke: #A80036; stroke-width: 1.0;" x1="59" x2="397" y1="1389.2422" y2="1389.2422"/><text fill="#000000" font-family="sans-serif" font-size="13" font-weight="bold" lengthAdjust="spacingAndGlyphs" textLength="9" x="76" y="1384.3091">3</text><text fill="#000000" font-family="sans-serif" font-size="13" lengthAdjust="spacingAndGlyphs" textLength="255" x="89" y="1384.3091">REQUEST_USER_ROLE_RECALCULATION</text><line style="stroke: #A80036; stroke-width: 1.0;" x1="59" x2="69" y1="1418.375" y2="1414.375"/><line style="stroke: #A80036; stroke-width: 1.0;" x1="59" x2="69" y1="1418.375" y2="1422.375"/><line style="stroke: #A80036; stroke-width: 1.0;" x1="59" x2="397" y1="1418.375" y2="1418.375"/><text fill="#000000" font-family="sans-serif" font-size="13" font-weight="bold" lengthAdjust="spacingAndGlyphs" textLength="9" x="76" y="1413.4419">4</text><text fill="#000000" font-family="sans-serif" font-size="13" lengthAdjust="spacingAndGlyphs" textLength="255" x="89" y="1413.4419">REQUEST_USER_ROLE_RECALCULATION</text><line style="stroke: #A80036; stroke-width: 1.0;" x1="59" x2="69" y1="1447.5078" y2="1443.5078"/><line style="stroke: #A80036; stroke-width: 1.0;" x1="59" x2="69" y1="1447.5078" y2="1451.5078"/><line style="stroke: #A80036; stroke-width: 1.0;" x1="59" x2="397" y1="1447.5078" y2="1447.5078"/><text fill="#000000" font-family="sans-serif" font-size="13" font-weight="bold" lengthAdjust="spacingAndGlyphs" textLength="9" x="76" y="1442.5747">5</text><text fill="#000000" font-family="sans-serif" font-size="13" lengthAdjust="spacingAndGlyphs" textLength="255" x="89" y="1442.5747">REQUEST_USER_ROLE_RECALCULATION</text><line style="stroke: #A80036; stroke-width: 1.0;" x1="59" x2="69" y1="1476.6406" y2="1472.6406"/><line style="stroke: #A80036; stroke-width: 1.0;" x1="59" x2="69" y1="1476.6406" y2="1480.6406"/><line style="stroke: #A80036; stroke-width: 1.0;" x1="59" x2="610.5" y1="1476.6406" y2="1476.6406"/><text fill="#000000" font-family="sans-serif" font-size="13" font-weight="bold" lengthAdjust="spacingAndGlyphs" textLength="9" x="76" y="1471.7075">6</text><text fill="#000000" font-family="sans-serif" font-size="13" lengthAdjust="spacingAndGlyphs" textLength="255" x="89" y="1471.7075">REQUEST_USER_ROLE_RECALCULATION</text><line style="stroke: #A80036; stroke-width: 1.0;" x1="396" x2="386" y1="1505.7734" y2="1501.7734"/><line style="stroke: #A80036; stroke-width: 1.0;" x1="396" x2="386" y1="1505.7734" y2="1509.7734"/><line style="stroke: #A80036; stroke-width: 1.0;" x1="59" x2="397" y1="1505.7734" y2="1505.7734"/><text fill="#000000" font-family="sans-serif" font-size="13" font-weight="bold" lengthAdjust="spacingAndGlyphs" textLength="9" x="66" y="1500.8403">7</text><text fill="#000000" font-family="sans-serif" font-size="13" lengthAdjust="spacingAndGlyphs" textLength="255" x="79" y="1500.8403">REQUEST_USER_ROLE_RECALCULATION</text><line style="stroke: #A80036; stroke-width: 1.0;" x1="59" x2="69" y1="1534.9063" y2="1530.9063"/><line style="stroke: #A80036; stroke-width: 1.0;" x1="59" x2="69" y1="1534.9063" y2="1538.9063"/><line style="stroke: #A80036; stroke-width: 1.0;" x1="59" x2="397" y1="1534.9063" y2="1534.9063"/><text fill="#000000" font-family="sans-serif" font-size="13" font-weight="bold" lengthAdjust="spacingAndGlyphs" textLength="9" x="76" y="1529.9731">1</text><text fill="#000000" font-family="sans-serif" font-size="13" lengthAdjust="spacingAndGlyphs" textLength="199" x="89" y="1529.9731">USER_BECOMES_SUPERADMIN</text><line style="stroke: #A80036; stroke-width: 1.0;" x1="720" x2="710" y1="1564.0391" y2="1560.0391"/><line style="stroke: #A80036; stroke-width: 1.0;" x1="720" x2="710" y1="1564.0391" y2="1568.0391"/><line style="stroke: #A80036; stroke-width: 1.0;" x1="59" x2="721" y1="1564.0391" y2="1564.0391"/><text fill="#000000" font-family="sans-serif" font-size="13" font-weight="bold" lengthAdjust="spacingAndGlyphs" textLength="9" x="66" y="1559.106">2</text><text fill="#000000" font-family="sans-serif" font-size="13" lengthAdjust="spacingAndGlyphs" textLength="199" x="79" y="1559.106">USER_BECOMES_SUPERADMIN</text><line style="stroke: #A80036; stroke-width: 1.0;" x1="59" x2="69" y1="1593.1719" y2="1589.1719"/><line style="stroke: #A80036; stroke-width: 1.0;" x1="59" x2="69" y1="1593.1719" y2="1597.1719"/><line style="stroke: #A80036; stroke-width: 1.0;" x1="59" x2="397" y1="1593.1719" y2="1593.1719"/><text fill="#000000" font-family="sans-serif" font-size="13" font-weight="bold" lengthAdjust="spacingAndGlyphs" textLength="9" x="76" y="1588.2388">1</text><text fill="#000000" font-family="sans-serif" font-size="13" lengthAdjust="spacingAndGlyphs" textLength="215" x="89" y="1588.2388">USER_NO_LONGER_SUPERADMIN</text><line style="stroke: #A80036; stroke-width: 1.0;" x1="720" x2="710" y1="1622.3047" y2="1618.3047"/><line style="stroke: #A80036; stroke-width: 1.0;" x1="720" x2="710" y1="1622.3047" y2="1626.3047"/><line style="stroke: #A80036; stroke-width: 1.0;" x1="59" x2="721" y1="1622.3047" y2="1622.3047"/><text fill="#000000" font-family="sans-serif" font-size="13" font-weight="bold" lengthAdjust="spacingAndGlyphs" textLength="9" x="66" y="1617.3716">2</text><text fill="#000000" font-family="sans-serif" font-size="13" lengthAdjust="spacingAndGlyphs" textLength="215" x="79" y="1617.3716">USER_NO_LONGER_SUPERADMIN</text></g></svg>