<?xml version="1.0" encoding="UTF-8" standalone="no"?><svg xmlns="http://www.w3.org/2000/svg" xmlns:xlink="http://www.w3.org/1999/xlink" contentScriptType="application/ecmascript" contentStyleType="text/css" height="216px" preserveAspectRatio="none" style="width:762px;height:216px;" version="1.1" viewBox="0 0 762 216" width="762px" zoomAndPan="magnify"><defs><filter height="300%" id="f027zq0" width="300%" x="-1" y="-1"><feGaussianBlur result="blurOut" stdDeviation="2.0"/><feColorMatrix in="blurOut" result="blurOut2" type="matrix" values="0 0 0 0 0 0 0 0 0 0 0 0 0 0 0 0 0 0 .4 0"/><feOffset dx="4.0" dy="4.0" in="blurOut2" result="blurOut3"/><feBlend in="SourceGraphic" in2="blurOut3" mode="normal"/></filter></defs><g><!--cluster <integrationtest>--><polygon fill="#FFFFFF" filter="url(#f027zq0)" points="161,24,308,24,315,46.2969,335,46.2969,335,121,161,121,161,24" style="stroke: #000000; stroke-width: 2.0;"/><line style="stroke: #000000; stroke-width: 2.0;" x1="161" x2="315" y1="46.2969" y2="46.2969"/><text fill="#000000" font-family="sans-serif" font-size="14" font-weight="bold" lengthAdjust="spacingAndGlyphs" textLength="141" x="165" y="38.9951">&lt;integrationtest&gt;</text><!--entity integrationtest--><polygon fill="#FEFECE" filter="url(#f027zq0)" points="177.5,69,187.5,59,318.5,59,318.5,95.2969,308.5,105.2969,177.5,105.2969,177.5,69" style="stroke: #000000; stroke-width: 1.5;"/><line style="stroke: #000000; stroke-width: 1.5;" x1="308.5" x2="317.5" y1="69" y2="60"/><line style="stroke: #000000; stroke-width: 1.5;" x1="177.5" x2="308.5" y1="69" y2="69"/><line style="stroke: #000000; stroke-width: 1.5;" x1="308.5" x2="308.5" y1="69" y2="105.2969"/><text fill="#000000" font-family="sans-serif" font-size="14" lengthAdjust="spacingAndGlyphs" textLength="101" x="192.5" y="91.9951">integrationtest</text><!--entity real_products--><polygon fill="#FEFECE" filter="url(#f027zq0)" points="461,69,471,59,595,59,595,95.2969,585,105.2969,461,105.2969,461,69" style="stroke: #000000; stroke-width: 1.5;"/><line style="stroke: #000000; stroke-width: 1.5;" x1="585" x2="594" y1="69" y2="60"/><line style="stroke: #000000; stroke-width: 1.5;" x1="461" x2="585" y1="69" y2="69"/><line style="stroke: #000000; stroke-width: 1.5;" x1="585" x2="585" y1="69" y2="105.2969"/><text fill="#000000" font-family="sans-serif" font-size="14" lengthAdjust="spacingAndGlyphs" textLength="94" x="476" y="91.9951">real_products</text><!--entity postgres--><polygon fill="#FEFECE" filter="url(#f027zq0)" points="630,69,640,59,732,59,732,95.2969,722,105.2969,630,105.2969,630,69" style="stroke: #000000; stroke-width: 1.5;"/><line style="stroke: #000000; stroke-width: 1.5;" x1="722" x2="731" y1="69" y2="60"/><line style="stroke: #000000; stroke-width: 1.5;" x1="630" x2="722" y1="69" y2="69"/><line style="stroke: #000000; stroke-width: 1.5;" x1="722" x2="722" y1="69" y2="105.2969"/><text fill="#000000" font-family="sans-serif" font-size="14" lengthAdjust="spacingAndGlyphs" textLength="62" x="645" y="91.9951">postgres</text><!--entity h2--><polygon fill="#FEFECE" filter="url(#f027zq0)" points="499,175,509,165,557,165,557,201.2969,547,211.2969,499,211.2969,499,175" style="stroke: #000000; stroke-width: 1.5;"/><line style="stroke: #000000; stroke-width: 1.5;" x1="547" x2="556" y1="175" y2="166"/><line style="stroke: #000000; stroke-width: 1.5;" x1="499" x2="547" y1="175" y2="175"/><line style="stroke: #000000; stroke-width: 1.5;" x1="547" x2="547" y1="175" y2="211.2969"/><text fill="#000000" font-family="sans-serif" font-size="14" lengthAdjust="spacingAndGlyphs" textLength="18" x="514" y="197.9951">h2</text><!--entity localserver--><polygon fill="#FEFECE" filter="url(#f027zq0)" points="6,175,16,165,120,165,120,201.2969,110,211.2969,6,211.2969,6,175" style="stroke: #000000; stroke-width: 1.5;"/><line style="stroke: #000000; stroke-width: 1.5;" x1="110" x2="119" y1="175" y2="166"/><line style="stroke: #000000; stroke-width: 1.5;" x1="6" x2="110" y1="175" y2="175"/><line style="stroke: #000000; stroke-width: 1.5;" x1="110" x2="110" y1="175" y2="211.2969"/><text fill="#000000" font-family="sans-serif" font-size="14" lengthAdjust="spacingAndGlyphs" textLength="74" x="21" y="197.9951">localserver</text><!--entity mocked_products--><polygon fill="#FEFECE" filter="url(#f027zq0)" points="592.5,175,602.5,165,757.5,165,757.5,201.2969,747.5,211.2969,592.5,211.2969,592.5,175" style="stroke: #000000; stroke-width: 1.5;"/><line style="stroke: #000000; stroke-width: 1.5;" x1="747.5" x2="756.5" y1="175" y2="166"/><line style="stroke: #000000; stroke-width: 1.5;" x1="592.5" x2="747.5" y1="175" y2="175"/><line style="stroke: #000000; stroke-width: 1.5;" x1="747.5" x2="747.5" y1="175" y2="211.2969"/><text fill="#000000" font-family="sans-serif" font-size="14" lengthAdjust="spacingAndGlyphs" textLength="125" x="607.5" y="197.9951">mocked_products</text><!--entity mocked_notifications--><polygon fill="#FEFECE" filter="url(#f027zq0)" points="155,175,165,165,341,165,341,201.2969,331,211.2969,155,211.2969,155,175" style="stroke: #000000; stroke-width: 1.5;"/><line style="stroke: #000000; stroke-width: 1.5;" x1="331" x2="340" y1="175" y2="166"/><line style="stroke: #000000; stroke-width: 1.5;" x1="155" x2="331" y1="175" y2="175"/><line style="stroke: #000000; stroke-width: 1.5;" x1="331" x2="331" y1="175" y2="211.2969"/><text fill="#000000" font-family="sans-serif" font-size="14" lengthAdjust="spacingAndGlyphs" textLength="146" x="170" y="197.9951">mocked_notifications</text><!--entity default--><polygon fill="#FEFECE" filter="url(#f027zq0)" points="376.5,175,386.5,165,463.5,165,463.5,201.2969,453.5,211.2969,376.5,211.2969,376.5,175" style="stroke: #000000; stroke-width: 1.5;"/><line style="stroke: #000000; stroke-width: 1.5;" x1="453.5" x2="462.5" y1="175" y2="166"/><line style="stroke: #000000; stroke-width: 1.5;" x1="376.5" x2="453.5" y1="175" y2="175"/><line style="stroke: #000000; stroke-width: 1.5;" x1="453.5" x2="453.5" y1="175" y2="211.2969"/><text fill="#000000" font-family="sans-serif" font-size="14" lengthAdjust="spacingAndGlyphs" textLength="47" x="391.5" y="197.9951">default</text><path d="M207.8578,105.0004 C178.3829,121.8887 138.3325,144.8365 107.8141,162.3227 " fill="none" style="stroke: #A80036; stroke-width: 1.0;"/><polygon fill="#A80036" points="103.3829,164.8617,113.1805,163.8578,107.7212,162.3759,109.2031,156.9166,103.3829,164.8617" style="stroke: #A80036; stroke-width: 1.0;"/><path d="M248,105.0004 C248,121.003 248,142.4461 248,159.528 " fill="none" style="stroke: #A80036; stroke-width: 1.0;"/><polygon fill="#A80036" points="248,164.6784,252,155.6784,248,159.6784,244,155.6784,248,164.6784" style="stroke: #A80036; stroke-width: 1.0;"/><path d="M285.3214,105.0004 C312.6128,121.8195 349.6561,144.6485 377.9857,162.1075 " fill="none" style="stroke: #A80036; stroke-width: 1.0;"/><polygon fill="#A80036" points="382.4548,164.8617,376.8916,156.7345,378.1982,162.2384,372.6943,163.545,382.4548,164.8617" style="stroke: #A80036; stroke-width: 1.0;"/></g></svg>