<?xml version="1.0" encoding="UTF-8" standalone="no"?><svg xmlns="http://www.w3.org/2000/svg" xmlns:xlink="http://www.w3.org/1999/xlink" contentScriptType="application/ecmascript" contentStyleType="text/css" height="216px" preserveAspectRatio="none" style="width:522px;height:216px;" version="1.1" viewBox="0 0 522 216" width="522px" zoomAndPan="magnify"><defs><filter height="300%" id="fd0nf5k" width="300%" x="-1" y="-1"><feGaussianBlur result="blurOut" stdDeviation="2.0"/><feColorMatrix in="blurOut" result="blurOut2" type="matrix" values="0 0 0 0 0 0 0 0 0 0 0 0 0 0 0 0 0 0 .4 0"/><feOffset dx="4.0" dy="4.0" in="blurOut2" result="blurOut3"/><feBlend in="SourceGraphic" in2="blurOut3" mode="normal"/></filter></defs><g><!--cluster <prod>--><polygon fill="#FFFFFF" filter="url(#fd0nf5k)" points="230,24,297,24,304,46.2969,334,46.2969,334,121,230,121,230,24" style="stroke: #000000; stroke-width: 2.0;"/><line style="stroke: #000000; stroke-width: 2.0;" x1="230" x2="304" y1="46.2969" y2="46.2969"/><text fill="#000000" font-family="sans-serif" font-size="14" font-weight="bold" lengthAdjust="spacingAndGlyphs" textLength="61" x="234" y="38.9951">&lt;prod&gt;</text><!--entity prod--><polygon fill="#FEFECE" filter="url(#fd0nf5k)" points="246,69,256,59,318,59,318,95.2969,308,105.2969,246,105.2969,246,69" style="stroke: #000000; stroke-width: 1.5;"/><line style="stroke: #000000; stroke-width: 1.5;" x1="308" x2="317" y1="69" y2="60"/><line style="stroke: #000000; stroke-width: 1.5;" x1="246" x2="308" y1="69" y2="69"/><line style="stroke: #000000; stroke-width: 1.5;" x1="308" x2="308" y1="69" y2="105.2969"/><text fill="#000000" font-family="sans-serif" font-size="14" lengthAdjust="spacingAndGlyphs" textLength="32" x="261" y="91.9951">prod</text><!--entity real_products--><polygon fill="#FEFECE" filter="url(#fd0nf5k)" points="143,175,153,165,277,165,277,201.2969,267,211.2969,143,211.2969,143,175" style="stroke: #000000; stroke-width: 1.5;"/><line style="stroke: #000000; stroke-width: 1.5;" x1="267" x2="276" y1="175" y2="166"/><line style="stroke: #000000; stroke-width: 1.5;" x1="143" x2="267" y1="175" y2="175"/><line style="stroke: #000000; stroke-width: 1.5;" x1="267" x2="267" y1="175" y2="211.2969"/><text fill="#000000" font-family="sans-serif" font-size="14" lengthAdjust="spacingAndGlyphs" textLength="94" x="158" y="197.9951">real_products</text><!--entity postgres--><polygon fill="#FEFECE" filter="url(#fd0nf5k)" points="6,175,16,165,108,165,108,201.2969,98,211.2969,6,211.2969,6,175" style="stroke: #000000; stroke-width: 1.5;"/><line style="stroke: #000000; stroke-width: 1.5;" x1="98" x2="107" y1="175" y2="166"/><line style="stroke: #000000; stroke-width: 1.5;" x1="6" x2="98" y1="175" y2="175"/><line style="stroke: #000000; stroke-width: 1.5;" x1="98" x2="98" y1="175" y2="211.2969"/><text fill="#000000" font-family="sans-serif" font-size="14" lengthAdjust="spacingAndGlyphs" textLength="62" x="21" y="197.9951">postgres</text><!--entity server--><polygon fill="#FEFECE" filter="url(#fd0nf5k)" points="312.5,175,322.5,165,395.5,165,395.5,201.2969,385.5,211.2969,312.5,211.2969,312.5,175" style="stroke: #000000; stroke-width: 1.5;"/><line style="stroke: #000000; stroke-width: 1.5;" x1="385.5" x2="394.5" y1="175" y2="166"/><line style="stroke: #000000; stroke-width: 1.5;" x1="312.5" x2="385.5" y1="175" y2="175"/><line style="stroke: #000000; stroke-width: 1.5;" x1="385.5" x2="385.5" y1="175" y2="211.2969"/><text fill="#000000" font-family="sans-serif" font-size="14" lengthAdjust="spacingAndGlyphs" textLength="43" x="327.5" y="197.9951">server</text><!--entity default--><polygon fill="#FEFECE" filter="url(#fd0nf5k)" points="430.5,175,440.5,165,517.5,165,517.5,201.2969,507.5,211.2969,430.5,211.2969,430.5,175" style="stroke: #000000; stroke-width: 1.5;"/><line style="stroke: #000000; stroke-width: 1.5;" x1="507.5" x2="516.5" y1="175" y2="166"/><line style="stroke: #000000; stroke-width: 1.5;" x1="430.5" x2="507.5" y1="175" y2="175"/><line style="stroke: #000000; stroke-width: 1.5;" x1="507.5" x2="507.5" y1="175" y2="211.2969"/><text fill="#000000" font-family="sans-serif" font-size="14" lengthAdjust="spacingAndGlyphs" textLength="47" x="445.5" y="197.9951">default</text><path d="M245.8499,99.0307 C209.3678,116.2178 152.6036,142.9601 110.8279,162.6411 " fill="none" style="stroke: #A80036; stroke-width: 1.0;"/><polygon fill="#A80036" points="106.0666,164.8842,115.9131,164.6669,110.5897,162.7532,112.5035,157.4299,106.0666,164.8842" style="stroke: #A80036; stroke-width: 1.0;"/><path d="M266.3771,105.0004 C255.32,121.2789 240.439,143.1871 228.742,160.4076 " fill="none" style="stroke: #A80036; stroke-width: 1.0;"/><polygon fill="#A80036" points="225.8411,164.6784,234.2069,159.4809,228.6505,160.5423,227.5891,154.9859,225.8411,164.6784" style="stroke: #A80036; stroke-width: 1.0;"/><path d="M297.6229,105.0004 C308.68,121.2789 323.561,143.1871 335.258,160.4076 " fill="none" style="stroke: #A80036; stroke-width: 1.0;"/><polygon fill="#A80036" points="338.1589,164.6784,336.4109,154.9859,335.3495,160.5423,329.7931,159.4809,338.1589,164.6784" style="stroke: #A80036; stroke-width: 1.0;"/><path d="M318.1137,101.9378 C349.094,119.0415 393.9283,143.7937 427.5702,162.3669 " fill="none" style="stroke: #A80036; stroke-width: 1.0;"/><polygon fill="#A80036" points="432.0317,164.83,426.0859,156.9784,427.6545,162.4135,422.2194,163.982,432.0317,164.83" style="stroke: #A80036; stroke-width: 1.0;"/></g></svg>