<?xml version="1.0" encoding="UTF-8" standalone="no"?><svg xmlns="http://www.w3.org/2000/svg" xmlns:xlink="http://www.w3.org/1999/xlink" contentScriptType="application/ecmascript" contentStyleType="text/css" height="230px" preserveAspectRatio="none" style="width:2419px;height:230px;" version="1.1" viewBox="0 0 2419 230" width="2419px" zoomAndPan="magnify"><defs><filter height="300%" id="ftfyl8ix9jduo" width="300%" x="-1" y="-1"><feGaussianBlur result="blurOut" stdDeviation="2.0"/><feColorMatrix in="blurOut" result="blurOut2" type="matrix" values="0 0 0 0 0 0 0 0 0 0 0 0 0 0 0 0 0 0 .4 0"/><feOffset dx="4.0" dy="4.0" in="blurOut2" result="blurOut3"/><feBlend in="SourceGraphic" in2="blurOut3" mode="normal"/></filter></defs><g><!--entity real_products--><polygon fill="#FEFECE" filter="url(#ftfyl8ix9jduo)" points="232,76,242,66,366,66,366,102.2969,356,112.2969,232,112.2969,232,76" style="stroke: #000000; stroke-width: 1.5;"/><line style="stroke: #000000; stroke-width: 1.5;" x1="356" x2="365" y1="76" y2="67"/><line style="stroke: #000000; stroke-width: 1.5;" x1="232" x2="356" y1="76" y2="76"/><line style="stroke: #000000; stroke-width: 1.5;" x1="356" x2="356" y1="76" y2="112.2969"/><text fill="#000000" font-family="sans-serif" font-size="14" lengthAdjust="spacingAndGlyphs" textLength="94" x="247" y="98.9951">real_products</text><!--entity postgres--><polygon fill="#FEFECE" filter="url(#ftfyl8ix9jduo)" points="620,76,630,66,722,66,722,102.2969,712,112.2969,620,112.2969,620,76" style="stroke: #000000; stroke-width: 1.5;"/><line style="stroke: #000000; stroke-width: 1.5;" x1="712" x2="721" y1="76" y2="67"/><line style="stroke: #000000; stroke-width: 1.5;" x1="620" x2="712" y1="76" y2="76"/><line style="stroke: #000000; stroke-width: 1.5;" x1="712" x2="712" y1="76" y2="112.2969"/><text fill="#000000" font-family="sans-serif" font-size="14" lengthAdjust="spacingAndGlyphs" textLength="62" x="635" y="98.9951">postgres</text><!--entity h2--><polygon fill="#FEFECE" filter="url(#ftfyl8ix9jduo)" points="2019,76,2029,66,2077,66,2077,102.2969,2067,112.2969,2019,112.2969,2019,76" style="stroke: #000000; stroke-width: 1.5;"/><line style="stroke: #000000; stroke-width: 1.5;" x1="2067" x2="2076" y1="76" y2="67"/><line style="stroke: #000000; stroke-width: 1.5;" x1="2019" x2="2067" y1="76" y2="76"/><line style="stroke: #000000; stroke-width: 1.5;" x1="2067" x2="2067" y1="76" y2="112.2969"/><text fill="#000000" font-family="sans-serif" font-size="14" lengthAdjust="spacingAndGlyphs" textLength="18" x="2034" y="98.9951">h2</text><!--entity server--><polygon fill="#FEFECE" filter="url(#ftfyl8ix9jduo)" points="113.5,76,123.5,66,196.5,66,196.5,102.2969,186.5,112.2969,113.5,112.2969,113.5,76" style="stroke: #000000; stroke-width: 1.5;"/><line style="stroke: #000000; stroke-width: 1.5;" x1="186.5" x2="195.5" y1="76" y2="67"/><line style="stroke: #000000; stroke-width: 1.5;" x1="113.5" x2="186.5" y1="76" y2="76"/><line style="stroke: #000000; stroke-width: 1.5;" x1="186.5" x2="186.5" y1="76" y2="112.2969"/><text fill="#000000" font-family="sans-serif" font-size="14" lengthAdjust="spacingAndGlyphs" textLength="43" x="128.5" y="98.9951">server</text><!--entity initial_admin_created--><polygon fill="#FEFECE" filter="url(#ftfyl8ix9jduo)" points="401.5,76,411.5,66,584.5,66,584.5,102.2969,574.5,112.2969,401.5,112.2969,401.5,76" style="stroke: #000000; stroke-width: 1.5;"/><line style="stroke: #000000; stroke-width: 1.5;" x1="574.5" x2="583.5" y1="76" y2="67"/><line style="stroke: #000000; stroke-width: 1.5;" x1="401.5" x2="574.5" y1="76" y2="76"/><line style="stroke: #000000; stroke-width: 1.5;" x1="574.5" x2="574.5" y1="76" y2="112.2969"/><text fill="#000000" font-family="sans-serif" font-size="14" lengthAdjust="spacingAndGlyphs" textLength="143" x="416.5" y="98.9951">initial_admin_created</text><!--entity admin_access--><polygon fill="#FEFECE" filter="url(#ftfyl8ix9jduo)" points="1697,76,1707,66,1835,66,1835,102.2969,1825,112.2969,1697,112.2969,1697,76" style="stroke: #000000; stroke-width: 1.5;"/><line style="stroke: #000000; stroke-width: 1.5;" x1="1825" x2="1834" y1="76" y2="67"/><line style="stroke: #000000; stroke-width: 1.5;" x1="1697" x2="1825" y1="76" y2="76"/><line style="stroke: #000000; stroke-width: 1.5;" x1="1825" x2="1825" y1="76" y2="112.2969"/><text fill="#000000" font-family="sans-serif" font-size="14" lengthAdjust="spacingAndGlyphs" textLength="98" x="1712" y="98.9951">admin_access</text><!--entity prod--><polygon fill="#FEFECE" filter="url(#ftfyl8ix9jduo)" points="6,76,16,66,78,66,78,102.2969,68,112.2969,6,112.2969,6,76" style="stroke: #000000; stroke-width: 1.5;"/><line style="stroke: #000000; stroke-width: 1.5;" x1="68" x2="77" y1="76" y2="67"/><line style="stroke: #000000; stroke-width: 1.5;" x1="6" x2="68" y1="76" y2="76"/><line style="stroke: #000000; stroke-width: 1.5;" x1="68" x2="68" y1="76" y2="112.2969"/><text fill="#000000" font-family="sans-serif" font-size="14" lengthAdjust="spacingAndGlyphs" textLength="32" x="21" y="98.9951">prod</text><!--entity localserver--><polygon fill="#FEFECE" filter="url(#ftfyl8ix9jduo)" points="1870,76,1880,66,1984,66,1984,102.2969,1974,112.2969,1870,112.2969,1870,76" style="stroke: #000000; stroke-width: 1.5;"/><line style="stroke: #000000; stroke-width: 1.5;" x1="1974" x2="1983" y1="76" y2="67"/><line style="stroke: #000000; stroke-width: 1.5;" x1="1870" x2="1974" y1="76" y2="76"/><line style="stroke: #000000; stroke-width: 1.5;" x1="1974" x2="1974" y1="76" y2="112.2969"/><text fill="#000000" font-family="sans-serif" font-size="14" lengthAdjust="spacingAndGlyphs" textLength="74" x="1885" y="98.9951">localserver</text><!--entity initial_admin_static--><polygon fill="#FEFECE" filter="url(#ftfyl8ix9jduo)" points="1154.5,76,1164.5,66,1321.5,66,1321.5,102.2969,1311.5,112.2969,1154.5,112.2969,1154.5,76" style="stroke: #000000; stroke-width: 1.5;"/><line style="stroke: #000000; stroke-width: 1.5;" x1="1311.5" x2="1320.5" y1="76" y2="67"/><line style="stroke: #000000; stroke-width: 1.5;" x1="1154.5" x2="1311.5" y1="76" y2="76"/><line style="stroke: #000000; stroke-width: 1.5;" x1="1311.5" x2="1311.5" y1="76" y2="112.2969"/><text fill="#000000" font-family="sans-serif" font-size="14" lengthAdjust="spacingAndGlyphs" textLength="127" x="1169.5" y="98.9951">initial_admin_static</text><!--entity mocked_products--><polygon fill="#FEFECE" filter="url(#ftfyl8ix9jduo)" points="2112.5,76,2122.5,66,2277.5,66,2277.5,102.2969,2267.5,112.2969,2112.5,112.2969,2112.5,76" style="stroke: #000000; stroke-width: 1.5;"/><line style="stroke: #000000; stroke-width: 1.5;" x1="2267.5" x2="2276.5" y1="76" y2="67"/><line style="stroke: #000000; stroke-width: 1.5;" x1="2112.5" x2="2267.5" y1="76" y2="76"/><line style="stroke: #000000; stroke-width: 1.5;" x1="2267.5" x2="2267.5" y1="76" y2="112.2969"/><text fill="#000000" font-family="sans-serif" font-size="14" lengthAdjust="spacingAndGlyphs" textLength="125" x="2127.5" y="98.9951">mocked_products</text><!--entity integrationtest--><polygon fill="#FEFECE" filter="url(#ftfyl8ix9jduo)" points="757.5,76,767.5,66,898.5,66,898.5,102.2969,888.5,112.2969,757.5,112.2969,757.5,76" style="stroke: #000000; stroke-width: 1.5;"/><line style="stroke: #000000; stroke-width: 1.5;" x1="888.5" x2="897.5" y1="76" y2="67"/><line style="stroke: #000000; stroke-width: 1.5;" x1="757.5" x2="888.5" y1="76" y2="76"/><line style="stroke: #000000; stroke-width: 1.5;" x1="888.5" x2="888.5" y1="76" y2="112.2969"/><text fill="#000000" font-family="sans-serif" font-size="14" lengthAdjust="spacingAndGlyphs" textLength="101" x="772.5" y="98.9951">integrationtest</text><!--entity debug--><polygon fill="#FEFECE" filter="url(#ftfyl8ix9jduo)" points="2312.5,76,2322.5,66,2397.5,66,2397.5,102.2969,2387.5,112.2969,2312.5,112.2969,2312.5,76" style="stroke: #000000; stroke-width: 1.5;"/><line style="stroke: #000000; stroke-width: 1.5;" x1="2387.5" x2="2396.5" y1="76" y2="67"/><line style="stroke: #000000; stroke-width: 1.5;" x1="2312.5" x2="2387.5" y1="76" y2="76"/><line style="stroke: #000000; stroke-width: 1.5;" x1="2387.5" x2="2387.5" y1="76" y2="112.2969"/><text fill="#000000" font-family="sans-serif" font-size="14" lengthAdjust="spacingAndGlyphs" textLength="45" x="2327.5" y="98.9951">debug</text><!--entity mocked_notifications--><polygon fill="#FEFECE" filter="url(#ftfyl8ix9jduo)" points="934,76,944,66,1120,66,1120,102.2969,1110,112.2969,934,112.2969,934,76" style="stroke: #000000; stroke-width: 1.5;"/><line style="stroke: #000000; stroke-width: 1.5;" x1="1110" x2="1119" y1="76" y2="67"/><line style="stroke: #000000; stroke-width: 1.5;" x1="934" x2="1110" y1="76" y2="76"/><line style="stroke: #000000; stroke-width: 1.5;" x1="1110" x2="1110" y1="76" y2="112.2969"/><text fill="#000000" font-family="sans-serif" font-size="14" lengthAdjust="spacingAndGlyphs" textLength="146" x="949" y="98.9951">mocked_notifications</text><!--entity default--><polygon fill="#FEFECE" filter="url(#ftfyl8ix9jduo)" points="2004.5,182,2014.5,172,2091.5,172,2091.5,208.2969,2081.5,218.2969,2004.5,218.2969,2004.5,182" style="stroke: #000000; stroke-width: 1.5;"/><line style="stroke: #000000; stroke-width: 1.5;" x1="2081.5" x2="2090.5" y1="182" y2="173"/><line style="stroke: #000000; stroke-width: 1.5;" x1="2004.5" x2="2081.5" y1="182" y2="182"/><line style="stroke: #000000; stroke-width: 1.5;" x1="2081.5" x2="2081.5" y1="182" y2="218.2969"/><text fill="#000000" font-family="sans-serif" font-size="14" lengthAdjust="spacingAndGlyphs" textLength="47" x="2019.5" y="204.9951">default</text><!--entity initial_admin_predefined--><polygon fill="#FEFECE" filter="url(#ftfyl8ix9jduo)" points="1456.5,76,1466.5,66,1661.5,66,1661.5,102.2969,1651.5,112.2969,1456.5,112.2969,1456.5,76" style="stroke: #000000; stroke-width: 1.5;"/><line style="stroke: #000000; stroke-width: 1.5;" x1="1651.5" x2="1660.5" y1="76" y2="67"/><line style="stroke: #000000; stroke-width: 1.5;" x1="1456.5" x2="1651.5" y1="76" y2="76"/><line style="stroke: #000000; stroke-width: 1.5;" x1="1651.5" x2="1651.5" y1="76" y2="112.2969"/><text fill="#000000" font-family="sans-serif" font-size="14" lengthAdjust="spacingAndGlyphs" textLength="165" x="1471.5" y="98.9951">initial_admin_predefined</text><!--entity dev--><polygon fill="#FEFECE" filter="url(#ftfyl8ix9jduo)" points="1356.5,76,1366.5,66,1421.5,66,1421.5,102.2969,1411.5,112.2969,1356.5,112.2969,1356.5,76" style="stroke: #000000; stroke-width: 1.5;"/><line style="stroke: #000000; stroke-width: 1.5;" x1="1411.5" x2="1420.5" y1="76" y2="67"/><line style="stroke: #000000; stroke-width: 1.5;" x1="1356.5" x2="1411.5" y1="76" y2="76"/><line style="stroke: #000000; stroke-width: 1.5;" x1="1411.5" x2="1411.5" y1="76" y2="112.2969"/><text fill="#000000" font-family="sans-serif" font-size="14" lengthAdjust="spacingAndGlyphs" textLength="25" x="1371.5" y="98.9951">dev</text><!--entity test--><polygon fill="#FEFECE" filter="url(#ftfyl8ix9jduo)" points="2126.5,182,2136.5,172,2193.5,172,2193.5,208.2969,2183.5,218.2969,2126.5,218.2969,2126.5,182" style="stroke: #000000; stroke-width: 1.5;"/><line style="stroke: #000000; stroke-width: 1.5;" x1="2183.5" x2="2192.5" y1="182" y2="173"/><line style="stroke: #000000; stroke-width: 1.5;" x1="2126.5" x2="2183.5" y1="182" y2="182"/><line style="stroke: #000000; stroke-width: 1.5;" x1="2183.5" x2="2183.5" y1="182" y2="218.2969"/><text fill="#000000" font-family="sans-serif" font-size="14" lengthAdjust="spacingAndGlyphs" textLength="27" x="2141.5" y="204.9951">test</text><!--link prod to postgres--><path d="M65.23,65.77 C78.24,54.43 95.45,41.96 113.5,36 C212.89,3.18 483.76,7.59 584.5,36 C603.71,41.42 622.87,52.43 638.25,63.02 " fill="none" id="prod-postgres" style="stroke: #A80036; stroke-width: 1.0;"/><polygon fill="#A80036" points="642.49,65.99,637.4127,57.5507,638.3945,63.1217,632.8235,64.1035,642.49,65.99" style="stroke: #A80036; stroke-width: 1.0;"/><!--link prod to initial_admin_created--><path d="M65.23,65.77 C78.24,54.43 95.45,41.96 113.5,36 C220.27,0.74 256.26,13.84 366.5,36 C393.64,41.46 422.21,52.89 445.33,63.74 " fill="none" id="prod-initial_admin_created" style="stroke: #A80036; stroke-width: 1.0;"/><polygon fill="#A80036" points="449.87,65.9,443.4548,58.427,445.3531,63.7559,440.0242,65.6541,449.87,65.9" style="stroke: #A80036; stroke-width: 1.0;"/><!--link prod to real_products--><path d="M65.23,65.77 C78.24,54.43 95.45,41.96 113.5,36 C148.53,24.43 160.66,27.28 196.5,36 C218.75,41.41 241.57,52.56 260.01,63.24 " fill="none" id="prod-real_products" style="stroke: #A80036; stroke-width: 1.0;"/><polygon fill="#A80036" points="264.6,65.94,258.8893,57.9158,260.2962,63.3949,254.8171,64.8019,264.6,65.94" style="stroke: #A80036; stroke-width: 1.0;"/><!--link prod to server--><path d="M78.2,89 C88.16,89 98.12,89 108.09,89 " fill="none" id="prod-server" style="stroke: #A80036; stroke-width: 1.0;"/><polygon fill="#A80036" points="113.3,89,104.3,85,108.3,89,104.3,93,113.3,89" style="stroke: #A80036; stroke-width: 1.0;"/><!--link integrationtest to localserver--><path d="M863.86,65.93 C883.8,54.48 909.57,41.86 934.5,36 C1031.95,13.09 1738.82,10.02 1835.5,36 C1855.59,41.4 1875.83,52.41 1892.15,63 " fill="none" id="integrationtest-localserver" style="stroke: #A80036; stroke-width: 1.0;"/><polygon fill="#A80036" points="1896.64,65.97,1891.3572,57.6578,1892.4754,63.2031,1886.9301,64.3213,1896.64,65.97" style="stroke: #A80036; stroke-width: 1.0;"/><!--link integrationtest to initial_admin_static--><path d="M863.86,65.93 C883.8,54.48 909.57,41.86 934.5,36 C1014.97,17.08 1039.68,18.62 1120.5,36 C1145.83,41.45 1172.28,52.81 1193.65,63.62 " fill="none" id="integrationtest-initial_admin_static" style="stroke: #A80036; stroke-width: 1.0;"/><polygon fill="#A80036" points="1198.14,65.91,1191.9474,58.2516,1193.6881,63.6339,1188.3057,65.3746,1198.14,65.91" style="stroke: #A80036; stroke-width: 1.0;"/><!--link integrationtest to mocked_notifications--><path d="M898.74,89 C908.69,89 918.65,89 928.6,89 " fill="none" id="integrationtest-mocked_notifications" style="stroke: #A80036; stroke-width: 1.0;"/><polygon fill="#A80036" points="933.81,89,924.81,85,928.81,89,924.81,93,933.81,89" style="stroke: #A80036; stroke-width: 1.0;"/><!--link integrationtest to admin_access--><path d="M863.86,65.93 C883.8,54.48 909.57,41.86 934.5,36 C1091.77,-0.97 1504.37,-1.57 1661.5,36 C1684.12,41.41 1707.37,52.55 1726.18,63.23 " fill="none" id="integrationtest-admin_access" style="stroke: #A80036; stroke-width: 1.0;"/><polygon fill="#A80036" points="1730.87,65.94,1725.077,57.975,1726.5403,63.4393,1721.0759,64.9026,1730.87,65.94" style="stroke: #A80036; stroke-width: 1.0;"/><!--link dev to localserver--><path d="M1410.7,65.8 C1422.92,54.46 1439.18,41.99 1456.5,36 C1536.1,8.48 1754.16,14.14 1835.5,36 C1855.59,41.4 1875.83,52.41 1892.15,63 " fill="none" id="dev-localserver" style="stroke: #A80036; stroke-width: 1.0;"/><polygon fill="#A80036" points="1896.64,65.97,1891.3572,57.6578,1892.4754,63.2031,1886.9301,64.3213,1896.64,65.97" style="stroke: #A80036; stroke-width: 1.0;"/><!--link dev to initial_admin_predefined--><path d="M1421.54,89 C1431.45,89 1441.35,89 1451.26,89 " fill="none" id="dev-initial_admin_predefined" style="stroke: #A80036; stroke-width: 1.0;"/><polygon fill="#A80036" points="1456.44,89,1447.44,85,1451.44,89,1447.44,93,1456.44,89" style="stroke: #A80036; stroke-width: 1.0;"/><!--link dev to admin_access--><path d="M1410.7,65.8 C1422.92,54.46 1439.18,41.99 1456.5,36 C1542.61,6.23 1572.89,14.81 1661.5,36 C1684.12,41.41 1707.37,52.55 1726.18,63.23 " fill="none" id="dev-admin_access" style="stroke: #A80036; stroke-width: 1.0;"/><polygon fill="#A80036" points="1730.87,65.94,1725.077,57.975,1726.5403,63.4393,1721.0759,64.9026,1730.87,65.94" style="stroke: #A80036; stroke-width: 1.0;"/><!--link h2 to mocked_products--><!--link mocked_products to debug--><!--link h2 to default--><!--link default to test--><!--
@startuml
node real_products
node postgres
node h2
node server
node initial_admin_created
node admin_access
node prod
node localserver
node initial_admin_static
node mocked_products
node integrationtest
node debug
node mocked_notifications
node default
node initial_admin_predefined
node dev
node test
prod -> postgres
prod -> initial_admin_created
prod -> real_products
prod -> server
integrationtest -> localserver
integrationtest -> initial_admin_static
integrationtest -> mocked_notifications
integrationtest -> admin_access
dev -> localserver
dev -> initial_admin_predefined
dev -> admin_access
@enduml

PlantUML version 1.2018.13(Mon Nov 26 18:11:51 CET 2018)
(APACHE source distribution)
Java Runtime: OpenJDK Runtime Environment
JVM: OpenJDK 64-Bit Server VM
Java Version: 1.8.0_265-8u265-b01-0ubuntu2~20.04-b01
Operating System: Linux
OS Version: 5.4.0-48-generic
Default Encoding: UTF-8
Language: en
Country: US
--></g></svg>