<?xml version="1.0" encoding="UTF-8" standalone="no"?><svg xmlns="http://www.w3.org/2000/svg" xmlns:xlink="http://www.w3.org/1999/xlink" contentScriptType="application/ecmascript" contentStyleType="text/css" height="352px" preserveAspectRatio="none" style="width:420px;height:352px;" version="1.1" viewBox="0 0 420 352" width="420px" zoomAndPan="magnify"><defs><filter height="300%" id="f0lyu62" width="300%" x="-1" y="-1"><feGaussianBlur result="blurOut" stdDeviation="2.0"/><feColorMatrix in="blurOut" result="blurOut2" type="matrix" values="0 0 0 0 0 0 0 0 0 0 0 0 0 0 0 0 0 0 .4 0"/><feOffset dx="4.0" dy="4.0" in="blurOut2" result="blurOut3"/><feBlend in="SourceGraphic" in2="blurOut3" mode="normal"/></filter></defs><g><text fill="#000000" font-family="sans-serif" font-size="14" font-weight="bold" lengthAdjust="spacingAndGlyphs" text-decoration="underline" textLength="178" x="18.5" y="22.9951">Communication details</text><line style="stroke: #000000; stroke-width: 1.0;" x1="18.5" x2="196.5" y1="24.9951" y2="24.9951"/><text fill="#000000" font-family="sans-serif" font-size="14" font-weight="bold" lengthAdjust="spacingAndGlyphs" textLength="16" x="206.5" y="22.9951">of</text><text fill="#000000" font-family="sans-serif" font-size="14" font-weight="bold" lengthAdjust="spacingAndGlyphs" textLength="177" x="227.5" y="22.9951">message START_SCAN</text><rect fill="#FFFFFF" filter="url(#f0lyu62)" height="90.2031" style="stroke: #000000; stroke-width: 2.0;" width="232" x="13" y="163.9922"/><rect fill="#FFFFFF" height="43.9375" style="stroke: none; stroke-width: 1.0;" width="232" x="13" y="210.2578"/><rect fill="#C8C8CF" height="317.3281" style="stroke: #A80036; stroke-width: 1.0;" width="110" x="129" y="34.2969"/><text fill="#000000" font-family="sans-serif" font-size="13" font-weight="bold" lengthAdjust="spacingAndGlyphs" textLength="34" x="167" y="46.3638">scan</text><rect fill="#F8F8FF" height="317.3281" style="stroke: #A80036; stroke-width: 1.0;" width="178" x="241" y="34.2969"/><text fill="#000000" font-family="sans-serif" font-size="13" font-weight="bold" lengthAdjust="spacingAndGlyphs" textLength="66" x="297" y="46.3638">schedule</text><line style="stroke: #A80036; stroke-width: 1.0; stroke-dasharray: 5.0,5.0;" x1="59" x2="59" y1="88.7266" y2="300.3281"/><line style="stroke: #A80036; stroke-width: 1.0; stroke-dasharray: 5.0,5.0;" x1="184" x2="184" y1="88.7266" y2="300.3281"/><line style="stroke: #A80036; stroke-width: 1.0; stroke-dasharray: 5.0,5.0;" x1="330" x2="330" y1="88.7266" y2="300.3281"/><text fill="#000000" font-family="sans-serif" font-size="14" lengthAdjust="spacingAndGlyphs" textLength="66" x="23" y="85.4248">EventBus</text><ellipse cx="59" cy="56.4297" fill="#FEFECE" filter="url(#f0lyu62)" rx="12" ry="12" style="stroke: #A80036; stroke-width: 2.0;"/><polygon fill="#A80036" points="55,44.4297,61,39.4297,59,44.4297,61,49.4297,55,44.4297" style="stroke: #A80036; stroke-width: 1.0;"/><text fill="#000000" font-family="sans-serif" font-size="14" lengthAdjust="spacingAndGlyphs" textLength="66" x="23" y="312.3232">EventBus</text><ellipse cx="59" cy="331.625" fill="#FEFECE" filter="url(#f0lyu62)" rx="12" ry="12" style="stroke: #A80036; stroke-width: 2.0;"/><polygon fill="#A80036" points="55,319.625,61,314.625,59,319.625,61,324.625,55,319.625" style="stroke: #A80036; stroke-width: 1.0;"/><rect fill="#FEFECE" filter="url(#f0lyu62)" height="30.2969" style="stroke: #A80036; stroke-width: 1.5;" width="98" x="133" y="53.4297"/><text fill="#000000" font-family="sans-serif" font-size="14" lengthAdjust="spacingAndGlyphs" textLength="84" x="140" y="73.4248">ScanService</text><rect fill="#FEFECE" filter="url(#f0lyu62)" height="30.2969" style="stroke: #A80036; stroke-width: 1.5;" width="98" x="133" y="299.3281"/><text fill="#000000" font-family="sans-serif" font-size="14" lengthAdjust="spacingAndGlyphs" textLength="84" x="140" y="319.3232">ScanService</text><rect fill="#FEFECE" filter="url(#f0lyu62)" height="30.2969" style="stroke: #A80036; stroke-width: 1.5;" width="166" x="245" y="53.4297"/><text fill="#000000" font-family="sans-serif" font-size="14" lengthAdjust="spacingAndGlyphs" textLength="152" x="252" y="73.4248">ScanExecutionTasklet</text><rect fill="#FEFECE" filter="url(#f0lyu62)" height="30.2969" style="stroke: #A80036; stroke-width: 1.5;" width="166" x="245" y="299.3281"/><text fill="#000000" font-family="sans-serif" font-size="14" lengthAdjust="spacingAndGlyphs" textLength="152" x="252" y="319.3232">ScanExecutionTasklet</text><polygon fill="#A80036" points="70,115.7266,60,119.7266,70,123.7266,66,119.7266" style="stroke: #A80036; stroke-width: 1.0;"/><line style="stroke: #A80036; stroke-width: 1.0;" x1="64" x2="329" y1="119.7266" y2="119.7266"/><text fill="#000000" font-family="sans-serif" font-size="13" font-weight="bold" lengthAdjust="spacingAndGlyphs" textLength="9" x="76" y="114.7935">1</text><text fill="#000000" font-family="sans-serif" font-size="13" lengthAdjust="spacingAndGlyphs" textLength="84" x="89" y="114.7935">START_SCAN</text><polygon fill="#A80036" points="172,144.8594,182,148.8594,172,152.8594,176,148.8594" style="stroke: #A80036; stroke-width: 1.0;"/><line style="stroke: #A80036; stroke-width: 1.0;" x1="59" x2="178" y1="148.8594" y2="148.8594"/><text fill="#000000" font-family="sans-serif" font-size="13" font-weight="bold" lengthAdjust="spacingAndGlyphs" textLength="9" x="66" y="143.9263">2</text><text fill="#000000" font-family="sans-serif" font-size="13" lengthAdjust="spacingAndGlyphs" textLength="84" x="79" y="143.9263">START_SCAN</text><rect fill="none" height="90.2031" style="stroke: #000000; stroke-width: 2.0;" width="232" x="13" y="163.9922"/><polygon fill="#EEEEEE" points="13,163.9922,77,163.9922,77,170.9922,67,180.9922,13,180.9922,13,163.9922" style="stroke: #000000; stroke-width: 2.0;"/><text fill="#000000" font-family="sans-serif" font-size="13" font-weight="bold" lengthAdjust="spacingAndGlyphs" textLength="19" x="28" y="177.0591">alt</text><text fill="#000000" font-family="sans-serif" font-size="11" font-weight="bold" lengthAdjust="spacingAndGlyphs" textLength="61" x="92" y="176.2026">[success]</text><polygon fill="#A80036" points="70,198.125,60,202.125,70,206.125,66,202.125" style="stroke: #A80036; stroke-width: 1.0;"/><line style="stroke: #A80036; stroke-width: 1.0;" x1="64" x2="183" y1="202.125" y2="202.125"/><text fill="#000000" font-family="sans-serif" font-size="13" font-weight="bold" lengthAdjust="spacingAndGlyphs" textLength="9" x="76" y="197.1919">3</text><text fill="#000000" font-family="sans-serif" font-size="13" lengthAdjust="spacingAndGlyphs" textLength="82" x="89" y="197.1919">SCAN_DONE</text><line style="stroke: #000000; stroke-width: 1.0; stroke-dasharray: 2.0,2.0;" x1="13" x2="245" y1="211.2578" y2="211.2578"/><text fill="#000000" font-family="sans-serif" font-size="11" font-weight="bold" lengthAdjust="spacingAndGlyphs" textLength="52" x="18" y="221.4683">[failure]</text><polygon fill="#A80036" points="70,242.0625,60,246.0625,70,250.0625,66,246.0625" style="stroke: #A80036; stroke-width: 1.0;"/><line style="stroke: #A80036; stroke-width: 1.0;" x1="64" x2="183" y1="246.0625" y2="246.0625"/><text fill="#000000" font-family="sans-serif" font-size="13" font-weight="bold" lengthAdjust="spacingAndGlyphs" textLength="9" x="76" y="241.1294">4</text><text fill="#000000" font-family="sans-serif" font-size="13" lengthAdjust="spacingAndGlyphs" textLength="88" x="89" y="241.1294">SCAN_FAILED</text><polygon fill="#A80036" points="318,278.1953,328,282.1953,318,286.1953,322,282.1953" style="stroke: #A80036; stroke-width: 1.0;"/><line style="stroke: #A80036; stroke-width: 1.0; stroke-dasharray: 2.0,2.0;" x1="59" x2="324" y1="282.1953" y2="282.1953"/><text fill="#000000" font-family="sans-serif" font-size="13" font-weight="bold" lengthAdjust="spacingAndGlyphs" textLength="9" x="66" y="277.2622">5</text><text fill="#000000" font-family="sans-serif" font-size="13" lengthAdjust="spacingAndGlyphs" textLength="0" x="83" y="277.2622"/></g></svg>