<?xml version="1.0" encoding="UTF-8" standalone="no"?><svg xmlns="http://www.w3.org/2000/svg" xmlns:xlink="http://www.w3.org/1999/xlink" contentScriptType="application/ecmascript" contentStyleType="text/css" height="232px" preserveAspectRatio="none" style="width:2448px;height:232px;" version="1.1" viewBox="0 0 2448 232" width="2448px" zoomAndPan="magnify"><defs><filter height="300%" id="fwz6wfgjyzb1i" width="300%" x="-1" y="-1"><feGaussianBlur result="blurOut" stdDeviation="2.0"/><feColorMatrix in="blurOut" result="blurOut2" type="matrix" values="0 0 0 0 0 0 0 0 0 0 0 0 0 0 0 0 0 0 .4 0"/><feOffset dx="4.0" dy="4.0" in="blurOut2" result="blurOut3"/><feBlend in="SourceGraphic" in2="blurOut3" mode="normal"/></filter></defs><g><!--entity admin_access--><polygon fill="#FEFECE" filter="url(#fwz6wfgjyzb1i)" points="945.5,78,955.5,68,1083.5,68,1083.5,104.2969,1073.5,114.2969,945.5,114.2969,945.5,78" style="stroke: #000000; stroke-width: 1.5;"/><line style="stroke: #000000; stroke-width: 1.5;" x1="1073.5" x2="1082.5" y1="78" y2="69"/><line style="stroke: #000000; stroke-width: 1.5;" x1="945.5" x2="1073.5" y1="78" y2="78"/><line style="stroke: #000000; stroke-width: 1.5;" x1="1073.5" x2="1073.5" y1="78" y2="114.2969"/><text fill="#000000" font-family="sans-serif" font-size="14" lengthAdjust="spacingAndGlyphs" textLength="98" x="960.5" y="100.9951">admin_access</text><!--entity debug--><polygon fill="#FEFECE" filter="url(#fwz6wfgjyzb1i)" points="2019,78,2029,68,2104,68,2104,104.2969,2094,114.2969,2019,114.2969,2019,78" style="stroke: #000000; stroke-width: 1.5;"/><line style="stroke: #000000; stroke-width: 1.5;" x1="2094" x2="2103" y1="78" y2="69"/><line style="stroke: #000000; stroke-width: 1.5;" x1="2019" x2="2094" y1="78" y2="78"/><line style="stroke: #000000; stroke-width: 1.5;" x1="2094" x2="2094" y1="78" y2="114.2969"/><text fill="#000000" font-family="sans-serif" font-size="14" lengthAdjust="spacingAndGlyphs" textLength="45" x="2034" y="100.9951">debug</text><!--entity initial_admin_created--><polygon fill="#FEFECE" filter="url(#fwz6wfgjyzb1i)" points="1663,78,1673,68,1846,68,1846,104.2969,1836,114.2969,1663,114.2969,1663,78" style="stroke: #000000; stroke-width: 1.5;"/><line style="stroke: #000000; stroke-width: 1.5;" x1="1836" x2="1845" y1="78" y2="69"/><line style="stroke: #000000; stroke-width: 1.5;" x1="1663" x2="1836" y1="78" y2="78"/><line style="stroke: #000000; stroke-width: 1.5;" x1="1836" x2="1836" y1="78" y2="114.2969"/><text fill="#000000" font-family="sans-serif" font-size="14" lengthAdjust="spacingAndGlyphs" textLength="143" x="1678" y="100.9951">initial_admin_created</text><!--entity dev--><polygon fill="#FEFECE" filter="url(#fwz6wfgjyzb1i)" points="6,78,16,68,71,68,71,104.2969,61,114.2969,6,114.2969,6,78" style="stroke: #000000; stroke-width: 1.5;"/><line style="stroke: #000000; stroke-width: 1.5;" x1="61" x2="70" y1="78" y2="69"/><line style="stroke: #000000; stroke-width: 1.5;" x1="6" x2="61" y1="78" y2="78"/><line style="stroke: #000000; stroke-width: 1.5;" x1="61" x2="61" y1="78" y2="114.2969"/><text fill="#000000" font-family="sans-serif" font-size="14" lengthAdjust="spacingAndGlyphs" textLength="25" x="21" y="100.9951">dev</text><!--entity localserver--><polygon fill="#FEFECE" filter="url(#fwz6wfgjyzb1i)" points="1118.5,78,1128.5,68,1232.5,68,1232.5,104.2969,1222.5,114.2969,1118.5,114.2969,1118.5,78" style="stroke: #000000; stroke-width: 1.5;"/><line style="stroke: #000000; stroke-width: 1.5;" x1="1222.5" x2="1231.5" y1="78" y2="69"/><line style="stroke: #000000; stroke-width: 1.5;" x1="1118.5" x2="1222.5" y1="78" y2="78"/><line style="stroke: #000000; stroke-width: 1.5;" x1="1222.5" x2="1222.5" y1="78" y2="114.2969"/><text fill="#000000" font-family="sans-serif" font-size="14" lengthAdjust="spacingAndGlyphs" textLength="74" x="1133.5" y="100.9951">localserver</text><!--entity mocked_products--><polygon fill="#FEFECE" filter="url(#fwz6wfgjyzb1i)" points="2139,78,2149,68,2304,68,2304,104.2969,2294,114.2969,2139,114.2969,2139,78" style="stroke: #000000; stroke-width: 1.5;"/><line style="stroke: #000000; stroke-width: 1.5;" x1="2294" x2="2303" y1="78" y2="69"/><line style="stroke: #000000; stroke-width: 1.5;" x1="2139" x2="2294" y1="78" y2="78"/><line style="stroke: #000000; stroke-width: 1.5;" x1="2294" x2="2294" y1="78" y2="114.2969"/><text fill="#000000" font-family="sans-serif" font-size="14" lengthAdjust="spacingAndGlyphs" textLength="125" x="2154" y="100.9951">mocked_products</text><!--entity real_products--><polygon fill="#FEFECE" filter="url(#fwz6wfgjyzb1i)" points="1493.5,78,1503.5,68,1627.5,68,1627.5,104.2969,1617.5,114.2969,1493.5,114.2969,1493.5,78" style="stroke: #000000; stroke-width: 1.5;"/><line style="stroke: #000000; stroke-width: 1.5;" x1="1617.5" x2="1626.5" y1="78" y2="69"/><line style="stroke: #000000; stroke-width: 1.5;" x1="1493.5" x2="1617.5" y1="78" y2="78"/><line style="stroke: #000000; stroke-width: 1.5;" x1="1617.5" x2="1617.5" y1="78" y2="114.2969"/><text fill="#000000" font-family="sans-serif" font-size="14" lengthAdjust="spacingAndGlyphs" textLength="94" x="1508.5" y="100.9951">real_products</text><!--entity default--><polygon fill="#FEFECE" filter="url(#fwz6wfgjyzb1i)" points="2339,78,2349,68,2426,68,2426,104.2969,2416,114.2969,2339,114.2969,2339,78" style="stroke: #000000; stroke-width: 1.5;"/><line style="stroke: #000000; stroke-width: 1.5;" x1="2416" x2="2425" y1="78" y2="69"/><line style="stroke: #000000; stroke-width: 1.5;" x1="2339" x2="2416" y1="78" y2="78"/><line style="stroke: #000000; stroke-width: 1.5;" x1="2416" x2="2416" y1="78" y2="114.2969"/><text fill="#000000" font-family="sans-serif" font-size="14" lengthAdjust="spacingAndGlyphs" textLength="47" x="2354" y="100.9951">default</text><!--entity integrationtest--><polygon fill="#FEFECE" filter="url(#fwz6wfgjyzb1i)" points="346,78,356,68,487,68,487,104.2969,477,114.2969,346,114.2969,346,78" style="stroke: #000000; stroke-width: 1.5;"/><line style="stroke: #000000; stroke-width: 1.5;" x1="477" x2="486" y1="78" y2="69"/><line style="stroke: #000000; stroke-width: 1.5;" x1="346" x2="477" y1="78" y2="78"/><line style="stroke: #000000; stroke-width: 1.5;" x1="477" x2="477" y1="78" y2="114.2969"/><text fill="#000000" font-family="sans-serif" font-size="14" lengthAdjust="spacingAndGlyphs" textLength="101" x="361" y="100.9951">integrationtest</text><!--entity h2--><polygon fill="#FEFECE" filter="url(#fwz6wfgjyzb1i)" points="2032.5,184,2042.5,174,2090.5,174,2090.5,210.2969,2080.5,220.2969,2032.5,220.2969,2032.5,184" style="stroke: #000000; stroke-width: 1.5;"/><line style="stroke: #000000; stroke-width: 1.5;" x1="2080.5" x2="2089.5" y1="184" y2="175"/><line style="stroke: #000000; stroke-width: 1.5;" x1="2032.5" x2="2080.5" y1="184" y2="184"/><line style="stroke: #000000; stroke-width: 1.5;" x1="2080.5" x2="2080.5" y1="184" y2="220.2969"/><text fill="#000000" font-family="sans-serif" font-size="14" lengthAdjust="spacingAndGlyphs" textLength="18" x="2047.5" y="206.9951">h2</text><!--entity mocked_notifications--><polygon fill="#FEFECE" filter="url(#fwz6wfgjyzb1i)" points="522.5,78,532.5,68,708.5,68,708.5,104.2969,698.5,114.2969,522.5,114.2969,522.5,78" style="stroke: #000000; stroke-width: 1.5;"/><line style="stroke: #000000; stroke-width: 1.5;" x1="698.5" x2="707.5" y1="78" y2="69"/><line style="stroke: #000000; stroke-width: 1.5;" x1="522.5" x2="698.5" y1="78" y2="78"/><line style="stroke: #000000; stroke-width: 1.5;" x1="698.5" x2="698.5" y1="78" y2="114.2969"/><text fill="#000000" font-family="sans-serif" font-size="14" lengthAdjust="spacingAndGlyphs" textLength="146" x="537.5" y="100.9951">mocked_notifications</text><!--entity server--><polygon fill="#FEFECE" filter="url(#fwz6wfgjyzb1i)" points="1375,78,1385,68,1458,68,1458,104.2969,1448,114.2969,1375,114.2969,1375,78" style="stroke: #000000; stroke-width: 1.5;"/><line style="stroke: #000000; stroke-width: 1.5;" x1="1448" x2="1457" y1="78" y2="69"/><line style="stroke: #000000; stroke-width: 1.5;" x1="1375" x2="1448" y1="78" y2="78"/><line style="stroke: #000000; stroke-width: 1.5;" x1="1448" x2="1448" y1="78" y2="114.2969"/><text fill="#000000" font-family="sans-serif" font-size="14" lengthAdjust="spacingAndGlyphs" textLength="43" x="1390" y="100.9951">server</text><!--entity initial_admin_predefined--><polygon fill="#FEFECE" filter="url(#fwz6wfgjyzb1i)" points="106,78,116,68,311,68,311,104.2969,301,114.2969,106,114.2969,106,78" style="stroke: #000000; stroke-width: 1.5;"/><line style="stroke: #000000; stroke-width: 1.5;" x1="301" x2="310" y1="78" y2="69"/><line style="stroke: #000000; stroke-width: 1.5;" x1="106" x2="301" y1="78" y2="78"/><line style="stroke: #000000; stroke-width: 1.5;" x1="301" x2="301" y1="78" y2="114.2969"/><text fill="#000000" font-family="sans-serif" font-size="14" lengthAdjust="spacingAndGlyphs" textLength="165" x="121" y="100.9951">initial_admin_predefined</text><!--entity initial_admin_static--><polygon fill="#FEFECE" filter="url(#fwz6wfgjyzb1i)" points="743,78,753,68,910,68,910,104.2969,900,114.2969,743,114.2969,743,78" style="stroke: #000000; stroke-width: 1.5;"/><line style="stroke: #000000; stroke-width: 1.5;" x1="900" x2="909" y1="78" y2="69"/><line style="stroke: #000000; stroke-width: 1.5;" x1="743" x2="900" y1="78" y2="78"/><line style="stroke: #000000; stroke-width: 1.5;" x1="900" x2="900" y1="78" y2="114.2969"/><text fill="#000000" font-family="sans-serif" font-size="14" lengthAdjust="spacingAndGlyphs" textLength="127" x="758" y="100.9951">initial_admin_static</text><!--entity postgres--><polygon fill="#FEFECE" filter="url(#fwz6wfgjyzb1i)" points="1881.5,78,1891.5,68,1983.5,68,1983.5,104.2969,1973.5,114.2969,1881.5,114.2969,1881.5,78" style="stroke: #000000; stroke-width: 1.5;"/><line style="stroke: #000000; stroke-width: 1.5;" x1="1973.5" x2="1982.5" y1="78" y2="69"/><line style="stroke: #000000; stroke-width: 1.5;" x1="1881.5" x2="1973.5" y1="78" y2="78"/><line style="stroke: #000000; stroke-width: 1.5;" x1="1973.5" x2="1973.5" y1="78" y2="114.2969"/><text fill="#000000" font-family="sans-serif" font-size="14" lengthAdjust="spacingAndGlyphs" textLength="62" x="1896.5" y="100.9951">postgres</text><!--entity prod--><polygon fill="#FEFECE" filter="url(#fwz6wfgjyzb1i)" points="1267.5,78,1277.5,68,1339.5,68,1339.5,104.2969,1329.5,114.2969,1267.5,114.2969,1267.5,78" style="stroke: #000000; stroke-width: 1.5;"/><line style="stroke: #000000; stroke-width: 1.5;" x1="1329.5" x2="1338.5" y1="78" y2="69"/><line style="stroke: #000000; stroke-width: 1.5;" x1="1267.5" x2="1329.5" y1="78" y2="78"/><line style="stroke: #000000; stroke-width: 1.5;" x1="1329.5" x2="1329.5" y1="78" y2="114.2969"/><text fill="#000000" font-family="sans-serif" font-size="14" lengthAdjust="spacingAndGlyphs" textLength="32" x="1282.5" y="100.9951">prod</text><!--entity test--><polygon fill="#FEFECE" filter="url(#fwz6wfgjyzb1i)" points="2126,184,2136,174,2193,174,2193,210.2969,2183,220.2969,2126,220.2969,2126,184" style="stroke: #000000; stroke-width: 1.5;"/><line style="stroke: #000000; stroke-width: 1.5;" x1="2183" x2="2192" y1="184" y2="175"/><line style="stroke: #000000; stroke-width: 1.5;" x1="2126" x2="2183" y1="184" y2="184"/><line style="stroke: #000000; stroke-width: 1.5;" x1="2183" x2="2183" y1="184" y2="220.2969"/><text fill="#000000" font-family="sans-serif" font-size="14" lengthAdjust="spacingAndGlyphs" textLength="27" x="2141" y="206.9951">test</text><!--link dev to localserver--><path d="M60.2,67.8 C72.42,56.46 88.68,43.99 106,38 C208.7,2.5 979.06,9.8 1084,38 C1104.09,43.4 1124.33,54.41 1140.65,65 " fill="none" id="dev-localserver" style="stroke: #A80036; stroke-width: 1.0;"/><polygon fill="#A80036" points="1145.14,67.97,1139.8572,59.6578,1140.9754,65.2031,1135.4301,66.3213,1145.14,67.97" style="stroke: #A80036; stroke-width: 1.0;"/><!--link dev to initial_admin_predefined--><path d="M71.04,91 C80.95,91 90.85,91 100.76,91 " fill="none" id="dev-initial_admin_predefined" style="stroke: #A80036; stroke-width: 1.0;"/><polygon fill="#A80036" points="105.94,91,96.94,87,100.94,91,96.94,95,105.94,91" style="stroke: #A80036; stroke-width: 1.0;"/><!--link dev to admin_access--><path d="M60.2,67.8 C72.42,56.46 88.68,43.99 106,38 C190.43,8.81 823.12,17.23 910,38 C932.62,43.41 955.87,54.55 974.68,65.23 " fill="none" id="dev-admin_access" style="stroke: #A80036; stroke-width: 1.0;"/><polygon fill="#A80036" points="979.37,67.94,973.577,59.975,975.0403,65.4393,969.5759,66.9026,979.37,67.94" style="stroke: #A80036; stroke-width: 1.0;"/><!--link integrationtest to localserver--><path d="M452.36,67.93 C472.3,56.48 498.07,43.86 523,38 C644.36,9.47 963.6,5.65 1084,38 C1104.09,43.4 1124.33,54.41 1140.65,65 " fill="none" id="integrationtest-localserver" style="stroke: #A80036; stroke-width: 1.0;"/><polygon fill="#A80036" points="1145.14,67.97,1139.8572,59.6578,1140.9754,65.2031,1135.4301,66.3213,1145.14,67.97" style="stroke: #A80036; stroke-width: 1.0;"/><!--link integrationtest to initial_admin_static--><path d="M452.36,67.93 C472.3,56.48 498.07,43.86 523,38 C603.47,19.08 628.18,20.62 709,38 C734.33,43.45 760.78,54.81 782.15,65.62 " fill="none" id="integrationtest-initial_admin_static" style="stroke: #A80036; stroke-width: 1.0;"/><polygon fill="#A80036" points="786.64,67.91,780.4474,60.2516,782.1881,65.6339,776.8057,67.3746,786.64,67.91" style="stroke: #A80036; stroke-width: 1.0;"/><!--link integrationtest to mocked_notifications--><path d="M487.24,91 C497.19,91 507.15,91 517.1,91 " fill="none" id="integrationtest-mocked_notifications" style="stroke: #A80036; stroke-width: 1.0;"/><polygon fill="#A80036" points="522.31,91,513.31,87,517.31,91,513.31,95,522.31,91" style="stroke: #A80036; stroke-width: 1.0;"/><!--link integrationtest to admin_access--><path d="M452.36,67.93 C472.3,56.48 498.07,43.86 523,38 C690.44,-1.36 742.71,-2 910,38 C932.62,43.41 955.87,54.55 974.68,65.23 " fill="none" id="integrationtest-admin_access" style="stroke: #A80036; stroke-width: 1.0;"/><polygon fill="#A80036" points="979.37,67.94,973.577,59.975,975.0403,65.4393,969.5759,66.9026,979.37,67.94" style="stroke: #A80036; stroke-width: 1.0;"/><!--link prod to postgres--><path d="M1326.73,67.77 C1339.74,56.43 1356.95,43.96 1375,38 C1474.39,5.18 1745.26,9.59 1846,38 C1865.21,43.42 1884.37,54.43 1899.75,65.02 " fill="none" id="prod-postgres" style="stroke: #A80036; stroke-width: 1.0;"/><polygon fill="#A80036" points="1903.99,67.99,1898.9127,59.5507,1899.8945,65.1217,1894.3235,66.1035,1903.99,67.99" style="stroke: #A80036; stroke-width: 1.0;"/><!--link prod to initial_admin_created--><path d="M1326.73,67.77 C1339.74,56.43 1356.95,43.96 1375,38 C1481.77,2.74 1517.76,15.84 1628,38 C1655.14,43.46 1683.71,54.89 1706.83,65.74 " fill="none" id="prod-initial_admin_created" style="stroke: #A80036; stroke-width: 1.0;"/><polygon fill="#A80036" points="1711.37,67.9,1704.9548,60.427,1706.8531,65.7559,1701.5242,67.6541,1711.37,67.9" style="stroke: #A80036; stroke-width: 1.0;"/><!--link prod to real_products--><path d="M1326.73,67.77 C1339.74,56.43 1356.95,43.96 1375,38 C1410.03,26.43 1422.16,29.28 1458,38 C1480.25,43.41 1503.07,54.56 1521.51,65.24 " fill="none" id="prod-real_products" style="stroke: #A80036; stroke-width: 1.0;"/><polygon fill="#A80036" points="1526.1,67.94,1520.3893,59.9158,1521.7962,65.3949,1516.3171,66.8019,1526.1,67.94" style="stroke: #A80036; stroke-width: 1.0;"/><!--link prod to server--><path d="M1339.7,91 C1349.66,91 1359.62,91 1369.59,91 " fill="none" id="prod-server" style="stroke: #A80036; stroke-width: 1.0;"/><polygon fill="#A80036" points="1374.8,91,1365.8,87,1369.8,91,1365.8,95,1374.8,91" style="stroke: #A80036; stroke-width: 1.0;"/><!--link debug to mocked_products--><!--link mocked_products to default--><!--link debug to h2--><!--link h2 to test--><!--
@startuml
node admin_access
node debug
node initial_admin_created
node dev
node localserver
node mocked_products
node real_products
node default
node integrationtest
node h2
node mocked_notifications
node server
node initial_admin_predefined
node initial_admin_static
node postgres
node prod
node test
dev -> localserver
dev -> initial_admin_predefined
dev -> admin_access
integrationtest -> localserver
integrationtest -> initial_admin_static
integrationtest -> mocked_notifications
integrationtest -> admin_access
prod -> postgres
prod -> initial_admin_created
prod -> real_products
prod -> server
@enduml

PlantUML version 1.2018.13(Mon Nov 26 17:11:51 UTC 2018)
(APACHE source distribution)
Java Runtime: OpenJDK Runtime Environment
JVM: OpenJDK 64-Bit Server VM
Java Version: 1.8.0_292-b10
Operating System: Linux
OS Version: 5.8.0-1036-azure
Default Encoding: UTF-8
Language: en
Country: 
--></g></svg>