<?xml version="1.0" encoding="UTF-8" standalone="no"?><svg xmlns="http://www.w3.org/2000/svg" xmlns:xlink="http://www.w3.org/1999/xlink" contentScriptType="application/ecmascript" contentStyleType="text/css" height="112px" preserveAspectRatio="none" style="width:1709px;height:112px;" version="1.1" viewBox="0 0 1709 112" width="1709px" zoomAndPan="magnify"><defs><filter height="300%" id="fiq64o0" width="300%" x="-1" y="-1"><feGaussianBlur result="blurOut" stdDeviation="2.0"/><feColorMatrix in="blurOut" result="blurOut2" type="matrix" values="0 0 0 0 0 0 0 0 0 0 0 0 0 0 0 0 0 0 .4 0"/><feOffset dx="4.0" dy="4.0" in="blurOut2" result="blurOut3"/><feBlend in="SourceGraphic" in2="blurOut3" mode="normal"/></filter></defs><g><!--entity demomode--><polygon fill="#FEFECE" filter="url(#fiq64o0)" points="6,71,16,61,126,61,126,97.2969,116,107.2969,6,107.2969,6,71" style="stroke: #000000; stroke-width: 1.5;"/><line style="stroke: #000000; stroke-width: 1.5;" x1="116" x2="125" y1="71" y2="62"/><line style="stroke: #000000; stroke-width: 1.5;" x1="6" x2="116" y1="71" y2="71"/><line style="stroke: #000000; stroke-width: 1.5;" x1="116" x2="116" y1="71" y2="107.2969"/><text fill="#000000" font-family="sans-serif" font-size="14" lengthAdjust="spacingAndGlyphs" textLength="80" x="21" y="93.9951">demomode</text><!--entity real_products--><polygon fill="#FEFECE" filter="url(#fiq64o0)" points="1209,71,1219,61,1343,61,1343,97.2969,1333,107.2969,1209,107.2969,1209,71" style="stroke: #000000; stroke-width: 1.5;"/><line style="stroke: #000000; stroke-width: 1.5;" x1="1333" x2="1342" y1="71" y2="62"/><line style="stroke: #000000; stroke-width: 1.5;" x1="1209" x2="1333" y1="71" y2="71"/><line style="stroke: #000000; stroke-width: 1.5;" x1="1333" x2="1333" y1="71" y2="107.2969"/><text fill="#000000" font-family="sans-serif" font-size="14" lengthAdjust="spacingAndGlyphs" textLength="94" x="1224" y="93.9951">real_products</text><!--entity postgres--><polygon fill="#FEFECE" filter="url(#fiq64o0)" points="1378,71,1388,61,1480,61,1480,97.2969,1470,107.2969,1378,107.2969,1378,71" style="stroke: #000000; stroke-width: 1.5;"/><line style="stroke: #000000; stroke-width: 1.5;" x1="1470" x2="1479" y1="71" y2="62"/><line style="stroke: #000000; stroke-width: 1.5;" x1="1378" x2="1470" y1="71" y2="71"/><line style="stroke: #000000; stroke-width: 1.5;" x1="1470" x2="1470" y1="71" y2="107.2969"/><text fill="#000000" font-family="sans-serif" font-size="14" lengthAdjust="spacingAndGlyphs" textLength="62" x="1393" y="93.9951">postgres</text><!--entity h2--><polygon fill="#FEFECE" filter="url(#fiq64o0)" points="161,71,171,61,219,61,219,97.2969,209,107.2969,161,107.2969,161,71" style="stroke: #000000; stroke-width: 1.5;"/><line style="stroke: #000000; stroke-width: 1.5;" x1="209" x2="218" y1="71" y2="62"/><line style="stroke: #000000; stroke-width: 1.5;" x1="161" x2="209" y1="71" y2="71"/><line style="stroke: #000000; stroke-width: 1.5;" x1="209" x2="209" y1="71" y2="107.2969"/><text fill="#000000" font-family="sans-serif" font-size="14" lengthAdjust="spacingAndGlyphs" textLength="18" x="176" y="93.9951">h2</text><!--entity prod--><polygon fill="#FEFECE" filter="url(#fiq64o0)" points="1102,71,1112,61,1174,61,1174,97.2969,1164,107.2969,1102,107.2969,1102,71" style="stroke: #000000; stroke-width: 1.5;"/><line style="stroke: #000000; stroke-width: 1.5;" x1="1164" x2="1173" y1="71" y2="62"/><line style="stroke: #000000; stroke-width: 1.5;" x1="1102" x2="1164" y1="71" y2="71"/><line style="stroke: #000000; stroke-width: 1.5;" x1="1164" x2="1164" y1="71" y2="107.2969"/><text fill="#000000" font-family="sans-serif" font-size="14" lengthAdjust="spacingAndGlyphs" textLength="32" x="1117" y="93.9951">prod</text><!--entity localserver--><polygon fill="#FEFECE" filter="url(#fiq64o0)" points="953,71,963,61,1067,61,1067,97.2969,1057,107.2969,953,107.2969,953,71" style="stroke: #000000; stroke-width: 1.5;"/><line style="stroke: #000000; stroke-width: 1.5;" x1="1057" x2="1066" y1="71" y2="62"/><line style="stroke: #000000; stroke-width: 1.5;" x1="953" x2="1057" y1="71" y2="71"/><line style="stroke: #000000; stroke-width: 1.5;" x1="1057" x2="1057" y1="71" y2="107.2969"/><text fill="#000000" font-family="sans-serif" font-size="14" lengthAdjust="spacingAndGlyphs" textLength="74" x="968" y="93.9951">localserver</text><!--entity mocked_products--><polygon fill="#FEFECE" filter="url(#fiq64o0)" points="254.5,71,264.5,61,419.5,61,419.5,97.2969,409.5,107.2969,254.5,107.2969,254.5,71" style="stroke: #000000; stroke-width: 1.5;"/><line style="stroke: #000000; stroke-width: 1.5;" x1="409.5" x2="418.5" y1="71" y2="62"/><line style="stroke: #000000; stroke-width: 1.5;" x1="254.5" x2="409.5" y1="71" y2="71"/><line style="stroke: #000000; stroke-width: 1.5;" x1="409.5" x2="409.5" y1="71" y2="107.2969"/><text fill="#000000" font-family="sans-serif" font-size="14" lengthAdjust="spacingAndGlyphs" textLength="125" x="269.5" y="93.9951">mocked_products</text><!--entity integrationtest--><polygon fill="#FEFECE" filter="url(#fiq64o0)" points="454.5,71,464.5,61,595.5,61,595.5,97.2969,585.5,107.2969,454.5,107.2969,454.5,71" style="stroke: #000000; stroke-width: 1.5;"/><line style="stroke: #000000; stroke-width: 1.5;" x1="585.5" x2="594.5" y1="71" y2="62"/><line style="stroke: #000000; stroke-width: 1.5;" x1="454.5" x2="585.5" y1="71" y2="71"/><line style="stroke: #000000; stroke-width: 1.5;" x1="585.5" x2="585.5" y1="71" y2="107.2969"/><text fill="#000000" font-family="sans-serif" font-size="14" lengthAdjust="spacingAndGlyphs" textLength="101" x="469.5" y="93.9951">integrationtest</text><!--entity mocked_notifications--><polygon fill="#FEFECE" filter="url(#fiq64o0)" points="631,71,641,61,817,61,817,97.2969,807,107.2969,631,107.2969,631,71" style="stroke: #000000; stroke-width: 1.5;"/><line style="stroke: #000000; stroke-width: 1.5;" x1="807" x2="816" y1="71" y2="62"/><line style="stroke: #000000; stroke-width: 1.5;" x1="631" x2="807" y1="71" y2="71"/><line style="stroke: #000000; stroke-width: 1.5;" x1="807" x2="807" y1="71" y2="107.2969"/><text fill="#000000" font-family="sans-serif" font-size="14" lengthAdjust="spacingAndGlyphs" textLength="146" x="646" y="93.9951">mocked_notifications</text><!--entity default--><polygon fill="#FEFECE" filter="url(#fiq64o0)" points="1515.5,71,1525.5,61,1602.5,61,1602.5,97.2969,1592.5,107.2969,1515.5,107.2969,1515.5,71" style="stroke: #000000; stroke-width: 1.5;"/><line style="stroke: #000000; stroke-width: 1.5;" x1="1592.5" x2="1601.5" y1="71" y2="62"/><line style="stroke: #000000; stroke-width: 1.5;" x1="1515.5" x2="1592.5" y1="71" y2="71"/><line style="stroke: #000000; stroke-width: 1.5;" x1="1592.5" x2="1592.5" y1="71" y2="107.2969"/><text fill="#000000" font-family="sans-serif" font-size="14" lengthAdjust="spacingAndGlyphs" textLength="47" x="1530.5" y="93.9951">default</text><!--entity dev--><polygon fill="#FEFECE" filter="url(#fiq64o0)" points="852.5,71,862.5,61,917.5,61,917.5,97.2969,907.5,107.2969,852.5,107.2969,852.5,71" style="stroke: #000000; stroke-width: 1.5;"/><line style="stroke: #000000; stroke-width: 1.5;" x1="907.5" x2="916.5" y1="71" y2="62"/><line style="stroke: #000000; stroke-width: 1.5;" x1="852.5" x2="907.5" y1="71" y2="71"/><line style="stroke: #000000; stroke-width: 1.5;" x1="907.5" x2="907.5" y1="71" y2="107.2969"/><text fill="#000000" font-family="sans-serif" font-size="14" lengthAdjust="spacingAndGlyphs" textLength="25" x="867.5" y="93.9951">dev</text><!--entity test--><polygon fill="#FEFECE" filter="url(#fiq64o0)" points="1637.5,71,1647.5,61,1704.5,61,1704.5,97.2969,1694.5,107.2969,1637.5,107.2969,1637.5,71" style="stroke: #000000; stroke-width: 1.5;"/><line style="stroke: #000000; stroke-width: 1.5;" x1="1694.5" x2="1703.5" y1="71" y2="62"/><line style="stroke: #000000; stroke-width: 1.5;" x1="1637.5" x2="1694.5" y1="71" y2="71"/><line style="stroke: #000000; stroke-width: 1.5;" x1="1694.5" x2="1694.5" y1="71" y2="107.2969"/><text fill="#000000" font-family="sans-serif" font-size="14" lengthAdjust="spacingAndGlyphs" textLength="27" x="1652.5" y="93.9951">test</text><path d="M97.8321,60.9585 C115.6201,49.5119 138.7376,36.8929 161.5,31 C207.9437,18.9763 260.5384,39.4859 295.9395,58.3861 " fill="none" style="stroke: #A80036; stroke-width: 1.0;"/><polygon fill="#A80036" points="300.6017,60.919,294.6028,53.1079,296.2082,58.5322,290.7839,60.1375,300.6017,60.919" style="stroke: #A80036; stroke-width: 1.0;"/><path d="M97.8321,60.9585 C115.6201,49.5119 138.7376,36.8929 161.5,31 C242.8191,9.9474 836.3266,9.3927 917.5,31 C937.7721,36.3962 958.2258,47.4035 974.7264,57.9954 " fill="none" style="stroke: #A80036; stroke-width: 1.0;"/><polygon fill="#A80036" points="979.2721,60.9669,973.9276,52.6943,975.087,58.2311,969.5502,59.3905,979.2721,60.9669" style="stroke: #A80036; stroke-width: 1.0;"/><path d="M126.0625,84 C135.8459,84 145.6293,84 155.4127,84 " fill="none" style="stroke: #A80036; stroke-width: 1.0;"/><polygon fill="#A80036" points="160.5288,84,151.5288,80,155.5288,84,151.5288,88,160.5288,84" style="stroke: #A80036; stroke-width: 1.0;"/><path d="M97.8321,60.9585 C115.6201,49.5119 138.7376,36.8929 161.5,31 C254.8663,6.8285 500.8946,12.2558 595.5,31 C623.0186,36.4523 652.0425,47.8818 675.53,58.7357 " fill="none" style="stroke: #A80036; stroke-width: 1.0;"/><polygon fill="#A80036" points="680.1516,60.8969,673.6935,53.461,675.6224,58.7788,670.3046,60.7077,680.1516,60.8969" style="stroke: #A80036; stroke-width: 1.0;"/><path d="M1161.2303,60.7736 C1174.2422,49.4273 1191.453,36.9594 1209.5,31 C1266.052,12.3257 1286.2221,14.6872 1343.5,31 C1362.5377,36.422 1381.4778,47.4322 1396.6749,58.0195 " fill="none" style="stroke: #A80036; stroke-width: 1.0;"/><polygon fill="#A80036" points="1400.8589,60.9894,1395.8351,52.5182,1396.7816,58.0953,1391.2045,59.0418,1400.8589,60.9894" style="stroke: #A80036; stroke-width: 1.0;"/><path d="M1174.1172,84 C1183.9454,84 1193.7737,84 1203.6019,84 " fill="none" style="stroke: #A80036; stroke-width: 1.0;"/><polygon fill="#A80036" points="1208.7414,84,1199.7414,80,1203.7414,84,1199.7414,88,1208.7414,84" style="stroke: #A80036; stroke-width: 1.0;"/><path d="M560.8612,60.9325 C580.8043,49.4783 606.5703,36.8604 631.5,31 C755.2382,1.9121 794.6662,-1.6968 917.5,31 C937.7721,36.3962 958.2258,47.4035 974.7264,57.9954 " fill="none" style="stroke: #A80036; stroke-width: 1.0;"/><polygon fill="#A80036" points="979.2721,60.9669,973.9276,52.6943,975.087,58.2311,969.5502,59.3905,979.2721,60.9669" style="stroke: #A80036; stroke-width: 1.0;"/><path d="M595.7383,84 C605.6935,84 615.6487,84 625.6039,84 " fill="none" style="stroke: #A80036; stroke-width: 1.0;"/><polygon fill="#A80036" points="630.8098,84,621.8098,80,625.8098,84,621.8098,88,630.8098,84" style="stroke: #A80036; stroke-width: 1.0;"/><path d="M917.7148,84 C927.6405,84 937.5661,84 947.4918,84 " fill="none" style="stroke: #A80036; stroke-width: 1.0;"/><polygon fill="#A80036" points="952.6823,84,943.6823,80,947.6823,84,943.6823,88,952.6823,84" style="stroke: #A80036; stroke-width: 1.0;"/></g></svg>