<?xml version="1.0" encoding="UTF-8" standalone="no"?><svg xmlns="http://www.w3.org/2000/svg" xmlns:xlink="http://www.w3.org/1999/xlink" contentScriptType="application/ecmascript" contentStyleType="text/css" height="539px" preserveAspectRatio="none" style="width:986px;height:539px;" version="1.1" viewBox="0 0 986 539" width="986px" zoomAndPan="magnify"><defs><filter height="300%" id="fbkyxnvx45mxo" width="300%" x="-1" y="-1"><feGaussianBlur result="blurOut" stdDeviation="2.0"/><feColorMatrix in="blurOut" result="blurOut2" type="matrix" values="0 0 0 0 0 0 0 0 0 0 0 0 0 0 0 0 0 0 .4 0"/><feOffset dx="4.0" dy="4.0" in="blurOut2" result="blurOut3"/><feBlend in="SourceGraphic" in2="blurOut3" mode="normal"/></filter></defs><g><!--cluster Sechub CLI client--><polygon fill="#FFFFFF" filter="url(#fbkyxnvx45mxo)" points="14,16,156,16,163,38.2969,166,38.2969,166,87,14,87,14,16" style="stroke: #000000; stroke-width: 1.5;"/><line style="stroke: #000000; stroke-width: 1.5;" x1="14" x2="163" y1="38.2969" y2="38.2969"/><text fill="#000000" font-family="sans-serif" font-size="14" font-weight="bold" lengthAdjust="spacingAndGlyphs" textLength="136" x="18" y="30.9951">Sechub CLI client</text><!--cluster Kubernetes cluster--><path d="M126.7937,107.4166 C132.2481,92.8444 145.3278,90.1245 155.1051,102.9496 C164.7371,88.9976 174.218,88.7885 185.809,100.6164 C193.6421,88.1463 204.2525,88.5581 211.7708,100.9452 C220.1041,87.9904 232.7277,85.508 241.581,100.3882 C251.9325,82.5829 261.7701,84.6181 273.4004,99.1292 C280.6792,84.5174 295.0903,86.9302 302.3597,99.1393 C312.2863,86.8238 321.7033,83.4064 332.2533,98.4583 C342.2175,84.6557 352.7412,84.1316 363.4967,97.5501 C372.2319,81.2366 383.9857,84.7925 393.218,97.0325 C402.7769,80.6846 415.7823,83.7867 424.0138,98.3547 C434.2133,85.7425 443.7064,83.7751 453.3463,98.9455 C465.1739,85.212 478.391,86.4149 484.3371,104.6475 C494.9824,92.0208 507.0978,90.0828 515.7342,106.7972 C526.0301,91.3422 539.7875,95.3545 547,110 C549.327,110.3831 550.2621,111.9257 548.933,114.0527 C561.8303,122.2009 565.9236,136.1866 550.0222,145.3375 C563.5749,153.8989 566.3559,163.4524 553.0807,174.799 C569.8421,186.0735 565.2068,203.4859 548.529,210.4968 C563.234,219.1049 560.7303,229.8145 549.3192,239.1431 C562.6724,245.6007 565.8161,260.1004 552.9188,269.6549 C570.4346,279.8787 570.7548,290.7994 553.865,302.0288 C566.6418,313.9192 565.435,324.7431 550.6069,333.8029 C568.5084,342.5012 568.0899,356.1918 552.799,367.0768 C566.7613,377.6329 567.2017,394.0199 548.0335,399.7427 C563.9497,406.9524 564.7462,419.5747 552.1217,430.5695 C567.4326,441.799 565.8542,454.2177 551.5694,464.972 C565.3023,482.4292 559.6488,493.5685 540,500 C541.4529,498.6365 542.9062,499.3817 543.1054,501.2171 C535.6367,517.6954 526.4837,520.0644 513.935,506.0819 C504.0805,521.9495 494.7385,518.9547 484.2337,506.7704 C474.5115,521.5385 462.3451,522.7762 450.8159,508.8768 C441.8322,522.2582 433.6675,522.0715 425.0365,508.5388 C415.0226,521.1526 404.8187,519.9931 395.4036,507.8228 C390.0623,522.4892 376.2073,526.4166 366.0616,512.8087 C354.6704,527.2317 345.1822,523.751 335.6017,510.7943 C324.3974,522.3558 315.2153,524.12 305.4751,509.1329 C295.9146,521.4641 284.4579,522.0349 275.2916,508.6699 C267.2821,523.4583 253.2509,525.6379 242.8937,511.2795 C231.7326,521.9502 222.5252,521.6926 214.6208,507.5663 C203.8119,521.6279 193.872,520.5135 186.3052,504.5126 C174.6705,521.1756 163.0232,517.4343 153.0708,502.7302 C138.2588,516.2565 120.5061,515.8848 115,493 C118.6558,492.5195 120.0626,494.0026 119.1063,497.6207 C103.4746,487.7967 104.5833,472.5064 119.2084,462.7711 C101.9572,455.7612 99.1719,441.9457 114.4254,430.1673 C99.1375,420.1417 102.5198,406.7189 117.7941,400.1197 C99.7552,393.2322 100.8469,377.2658 115.3483,367.9076 C102.4742,359.729 98.868,348.0283 114.1193,338.6675 C94.6638,326.8214 97.3243,313.2268 114.2529,301.5116 C99.9615,292.6207 99.2466,283.1537 112.5502,272.6357 C98.4672,261.503 101.2725,250.5375 116.1251,242.8811 C99.9158,232.5403 101.225,218.7094 115.8183,208.0969 C102.6037,199.2352 102.3762,187.619 115.367,178.3596 C98.4816,166.4035 101.4414,150.4552 119.2704,142.252 C99.4323,128.3916 104.005,114.2295 122,103 C126.0693,101.8787 127.0531,103.8396 126.7937,107.4166 " fill="#FFFFFF" style="stroke: #000000; stroke-width: 1.5;"/><text fill="#000000" font-family="sans-serif" font-size="14" font-weight="bold" lengthAdjust="spacingAndGlyphs" textLength="153" x="254.5" y="120.9951">Kubernetes cluster</text><!--cluster Sechub Server POD (1..n)--><polygon fill="#FFFFFF" filter="url(#fbkyxnvx45mxo)" points="115,122,323,122,330,144.2969,384,144.2969,384,395,115,395,115,122" style="stroke: #000000; stroke-width: 1.5;"/><line style="stroke: #000000; stroke-width: 1.5;" x1="115" x2="330" y1="144.2969" y2="144.2969"/><text fill="#000000" font-family="sans-serif" font-size="14" font-weight="bold" lengthAdjust="spacingAndGlyphs" textLength="202" x="119" y="136.9951">Sechub Server POD (1..n)</text><!--cluster Database POD (1)--><polygon fill="#FFFFFF" filter="url(#fbkyxnvx45mxo)" points="256,420,400,420,407,442.2969,410,442.2969,410,500,256,500,256,420" style="stroke: #000000; stroke-width: 1.5;"/><line style="stroke: #000000; stroke-width: 1.5;" x1="256" x2="407" y1="442.2969" y2="442.2969"/><text fill="#000000" font-family="sans-serif" font-size="14" font-weight="bold" lengthAdjust="spacingAndGlyphs" textLength="138" x="260" y="434.9951">Database POD (1)</text><!--cluster Shared Volumes--><polygon fill="#FFFFFF" filter="url(#fbkyxnvx45mxo)" points="392,319,527,319,534,341.2969,537,341.2969,537,390,392,390,392,319" style="stroke: #000000; stroke-width: 1.5;"/><line style="stroke: #000000; stroke-width: 1.5;" x1="392" x2="534" y1="341.2969" y2="341.2969"/><text fill="#000000" font-family="sans-serif" font-size="14" font-weight="bold" lengthAdjust="spacingAndGlyphs" textLength="129" x="396" y="333.9951">Shared Volumes</text><!--cluster Hosted 3rdParty security products--><path d="M582.27,229.7686 C589.7927,216.8853 600.8084,215.5288 609.9805,227.9633 C617.7965,216.0221 631.9445,213.4728 639.0884,228.6838 C646.8794,216.8481 656.4302,213.1709 666.1026,226.6783 C673.56,216.0014 682.7923,215.026 691.4463,225.2254 C700.5252,216.6584 708.9802,215.523 714.9907,228.5681 C721.0444,216.727 731.2126,212.6797 740.758,224.8158 C749.5584,212.0428 761.8554,208.2448 771.5156,223.885 C781.8442,214.2679 789.2573,216.2411 795.4214,228.447 C801.6653,215.6806 813.4904,212.0545 823.3376,224.4493 C832.7735,213.6018 841.053,216.711 846.5784,228.4696 C856.3178,215.3997 865.2954,214.7376 874.969,228.5392 C882.1782,216.1442 892.3998,214.3566 901.238,226.8176 C909.6984,215.3809 918.8402,215.6399 927.4688,226.6206 C936.2929,214.1455 945.8784,217.0535 953.0313,228.4129 C969.5052,231.4322 971.4991,242.7645 961.4627,254.3887 C974.2887,266.8951 971.0585,276.0144 955.1107,281.87 C947.1823,294.4964 938.8727,296.674 929.1655,283.6706 C920.7042,298.7877 909.7022,297.504 899.3612,285.756 C894.3416,299.5621 882.8391,302.607 873.0892,290.5636 C864.6919,302.0088 853.3497,300.7446 847.288,288.0656 C842.3848,299.7439 832.2049,304.0049 823.3205,292.1141 C815.068,304.4971 804.5103,305.1925 796.126,292.2556 C791.3998,305.6134 781.0308,307.0542 771.4256,297.5202 C762.4663,310.1122 749.6026,306.828 743.0863,294.7176 C735.0309,306.7035 723.2099,305.4815 717.2549,292.541 C709.3043,307.4488 696.7258,303.2284 689.4922,291.7855 C680.1612,303.255 668.9663,301.531 664.5864,287.0362 C658.2393,297.4022 646.5232,299.977 639.5434,287.7372 C631.9874,300.7228 618.821,300.14 611.7191,287.249 C600.5006,298.2047 590.4363,298.8064 583.398,282.85 C567.95,279.3529 567.7559,267.9097 576.0913,257.5452 C563.998,245.6076 567.9183,235.8237 582.27,229.7686 " fill="#FFFFFF" style="stroke: #000000; stroke-width: 1.5;"/><text fill="#000000" font-family="sans-serif" font-size="14" font-weight="bold" lengthAdjust="spacingAndGlyphs" textLength="274" x="630" y="243.9951">Hosted 3rdParty security products</text><!--entity cli--><rect fill="#FEFECE" filter="url(#fbkyxnvx45mxo)" height="36.2969" style="stroke: #A80036; stroke-width: 1.5;" width="40" x="70" y="43"/><rect fill="#FEFECE" height="5" style="stroke: #A80036; stroke-width: 1.5;" width="10" x="65" y="48"/><rect fill="#FEFECE" height="5" style="stroke: #A80036; stroke-width: 1.5;" width="10" x="65" y="69.2969"/><text fill="#000000" font-family="sans-serif" font-size="14" lengthAdjust="spacingAndGlyphs" textLength="20" x="80" y="65.9951">CLI</text><!--entity job_engine--><rect fill="#FEFECE" filter="url(#fbkyxnvx45mxo)" height="36.2969" style="stroke: #A80036; stroke-width: 1.5;" width="85" x="201.5" y="149"/><rect fill="#FEFECE" height="5" style="stroke: #A80036; stroke-width: 1.5;" width="10" x="196.5" y="154"/><rect fill="#FEFECE" height="5" style="stroke: #A80036; stroke-width: 1.5;" width="10" x="196.5" y="175.2969"/><text fill="#000000" font-family="sans-serif" font-size="14" lengthAdjust="spacingAndGlyphs" textLength="65" x="211.5" y="171.9951">Schedule</text><!--entity source_upload--><rect fill="#FEFECE" filter="url(#fbkyxnvx45mxo)" height="36.2969" style="stroke: #A80036; stroke-width: 1.5;" width="121" x="254.5" y="346"/><rect fill="#FEFECE" height="5" style="stroke: #A80036; stroke-width: 1.5;" width="10" x="249.5" y="351"/><rect fill="#FEFECE" height="5" style="stroke: #A80036; stroke-width: 1.5;" width="10" x="249.5" y="372.2969"/><text fill="#000000" font-family="sans-serif" font-size="14" lengthAdjust="spacingAndGlyphs" textLength="101" x="264.5" y="368.9951">Source Upload</text><!--entity scan_engine--><rect fill="#FEFECE" filter="url(#fbkyxnvx45mxo)" height="36.2969" style="stroke: #A80036; stroke-width: 1.5;" width="54" x="322" y="149"/><rect fill="#FEFECE" height="5" style="stroke: #A80036; stroke-width: 1.5;" width="10" x="317" y="154"/><rect fill="#FEFECE" height="5" style="stroke: #A80036; stroke-width: 1.5;" width="10" x="317" y="175.2969"/><text fill="#000000" font-family="sans-serif" font-size="14" lengthAdjust="spacingAndGlyphs" textLength="34" x="332" y="171.9951">Scan</text><!--entity report_service--><rect fill="#FEFECE" filter="url(#fbkyxnvx45mxo)" height="36.2969" style="stroke: #A80036; stroke-width: 1.5;" width="67" x="130.5" y="245"/><rect fill="#FEFECE" height="5" style="stroke: #A80036; stroke-width: 1.5;" width="10" x="125.5" y="250"/><rect fill="#FEFECE" height="5" style="stroke: #A80036; stroke-width: 1.5;" width="10" x="125.5" y="271.2969"/><text fill="#000000" font-family="sans-serif" font-size="14" lengthAdjust="spacingAndGlyphs" textLength="47" x="140.5" y="267.9951">Report</text><!--entity sereco--><polygon fill="#FFFFFF" filter="url(#fbkyxnvx45mxo)" points="123,351,133,341,219,341,219,377.2969,209,387.2969,123,387.2969,123,351" style="stroke: #000000; stroke-width: 1.5;"/><line style="stroke: #000000; stroke-width: 1.5;" x1="209" x2="218" y1="351" y2="342"/><line style="stroke: #000000; stroke-width: 1.5;" x1="123" x2="209" y1="351" y2="351"/><line style="stroke: #000000; stroke-width: 1.5;" x1="209" x2="209" y1="351" y2="387.2969"/><text fill="#000000" font-family="sans-serif" font-size="14" lengthAdjust="spacingAndGlyphs" textLength="56" x="138" y="373.9951">SeReCo</text><!--entity db--><path d="M267,457 C267,447 308,447 308,447 C308,447 349,447 349,457 L349,482.2969 C349,492.2969 308,492.2969 308,492.2969 C308,492.2969 267,492.2969 267,482.2969 L267,457 " fill="#FFFFFF" filter="url(#fbkyxnvx45mxo)" style="stroke: #000000; stroke-width: 1.5;"/><path d="M267,457 C267,467 308,467 308,467 C308,467 349,467 349,457 " fill="none" style="stroke: #000000; stroke-width: 1.5;"/><text fill="#000000" font-family="sans-serif" font-size="14" lengthAdjust="spacingAndGlyphs" textLength="62" x="277" y="483.9951">Postgres</text><!--entity NFS--><rect fill="#FEFECE" filter="url(#fbkyxnvx45mxo)" height="36.2969" rx="35" ry="35" style="stroke: #000000; stroke-width: 1.5;" width="47" x="410.5" y="346"/><text fill="#000000" font-family="sans-serif" font-size="14" lengthAdjust="spacingAndGlyphs" textLength="27" x="420.5" y="368.9951">NFS</text><!--entity product1--><rect fill="#FEFECE" filter="url(#fbkyxnvx45mxo)" height="36.2969" style="stroke: #A80036; stroke-width: 1.5;" width="133" x="818.5" y="245"/><rect fill="#FEFECE" height="5" style="stroke: #A80036; stroke-width: 1.5;" width="10" x="813.5" y="250"/><rect fill="#FEFECE" height="5" style="stroke: #A80036; stroke-width: 1.5;" width="10" x="813.5" y="271.2969"/><text fill="#000000" font-family="sans-serif" font-size="14" lengthAdjust="spacingAndGlyphs" textLength="113" x="828.5" y="267.9951">Security Product</text><!--entity moreProducts--><rect fill="#FEFECE" filter="url(#fbkyxnvx45mxo)" height="36.2969" style="stroke: #A80036; stroke-width: 1.5;" width="32" x="751" y="245"/><rect fill="#FEFECE" height="5" style="stroke: #A80036; stroke-width: 1.5;" width="10" x="746" y="250"/><rect fill="#FEFECE" height="5" style="stroke: #A80036; stroke-width: 1.5;" width="10" x="746" y="271.2969"/><text fill="#000000" font-family="sans-serif" font-size="14" lengthAdjust="spacingAndGlyphs" textLength="12" x="761" y="267.9951">...</text><!--entity productn--><rect fill="#FEFECE" filter="url(#fbkyxnvx45mxo)" height="36.2969" style="stroke: #A80036; stroke-width: 1.5;" width="133" x="582.5" y="245"/><rect fill="#FEFECE" height="5" style="stroke: #A80036; stroke-width: 1.5;" width="10" x="577.5" y="250"/><rect fill="#FEFECE" height="5" style="stroke: #A80036; stroke-width: 1.5;" width="10" x="577.5" y="271.2969"/><text fill="#000000" font-family="sans-serif" font-size="14" lengthAdjust="spacingAndGlyphs" textLength="113" x="592.5" y="267.9951">Security Product</text><!--entity HTTPS--><ellipse cx="90" cy="167" fill="#FEFECE" filter="url(#fbkyxnvx45mxo)" rx="8" ry="8" style="stroke: #A80036; stroke-width: 2.0;"/><text fill="#000000" font-family="sans-serif" font-size="14" lengthAdjust="spacingAndGlyphs" textLength="46" x="67" y="196.9951">HTTPS</text><!--link HTTPS to job_engine--><path d="M99.0234,167 C131.3664,167 163.7094,167 196.0524,167 " fill="none" id="HTTPS-job_engine" style="stroke: #A80036; stroke-width: 1.0;"/><polygon fill="#A80036" points="201.2432,167,192.2432,163,196.2432,167,192.2432,171,201.2432,167" style="stroke: #A80036; stroke-width: 1.0;"/><!--link HTTPS to report_service--><path d="M97.0954,176.2049 C108.4906,190.9878 131.1886,220.4339 146.9685,240.9051 " fill="none" id="HTTPS-report_service" style="stroke: #A80036; stroke-width: 1.0;"/><polygon fill="#A80036" points="150.0268,244.8726,147.7003,235.3025,146.9743,240.9125,141.3642,240.1865,150.0268,244.8726" style="stroke: #A80036; stroke-width: 1.0;"/><!--link job_engine to source_upload--><path d="M242.7827,185.1802 C249.3964,221.2435 278.1656,301.7531 298.2923,341.2554 " fill="none" id="job_engine-source_upload" style="stroke: #A80036; stroke-width: 1.0;"/><polygon fill="#A80036" points="300.7018,345.8638,300.0761,336.0348,298.385,341.433,292.9868,339.7418,300.7018,345.8638" style="stroke: #A80036; stroke-width: 1.0;"/><!--link job_engine to source_upload--><!--link NFS to source_upload--><path d="M405.2735,364 C395.4805,364 385.6875,364 375.8945,364 " fill="none" id="NFS-source_upload" style="stroke: #A80036; stroke-width: 1.0;"/><polygon fill="#A80036" points="410.3947,364,401.3947,360,405.3947,364,401.3947,368,410.3947,364" style="stroke: #A80036; stroke-width: 1.0;"/><!--link scan_engine to NFS--><path d="M356.8442,185.1802 C372.4046,221.2435 407.1422,301.7531 424.1864,341.2554 " fill="none" id="scan_engine-NFS" style="stroke: #A80036; stroke-width: 1.0;"/><polygon fill="#A80036" points="426.1747,345.8638,426.2818,336.0155,424.1938,341.2729,418.9364,339.1849,426.1747,345.8638" style="stroke: #A80036; stroke-width: 1.0;"/><!--link job_engine to scan_engine--><path d="M286.6563,167 C296.6105,167 306.5648,167 316.5191,167 " fill="none" id="job_engine-scan_engine" style="stroke: #A80036; stroke-width: 1.0;"/><polygon fill="#A80036" points="321.7246,167,312.7246,163,316.7246,167,312.7246,171,321.7246,167" style="stroke: #A80036; stroke-width: 1.0;"/><!--link cli to HTTPS--><path d="M90,79.4638 C90,100.2132 90,133.4714 90,152.4598 " fill="none" id="cli-HTTPS" style="stroke: #A80036; stroke-width: 1.0;"/><polygon fill="#A80036" points="90,157.865,94,148.865,90,152.865,86,148.865,90,157.865" style="stroke: #A80036; stroke-width: 1.0;"/><!--link scan_engine to product1--><path d="M376.1773,168.7155 C461.1172,174.2883 720.7051,192.9785 801,218 C819.1791,223.665 837.9907,233.3319 853.1916,242.2572 " fill="none" id="scan_engine-product1" style="stroke: #A80036; stroke-width: 1.0;"/><polygon fill="#A80036" points="857.7886,244.9981,852.1068,236.9534,853.494,242.4375,848.0099,243.8247,857.7886,244.9981" style="stroke: #A80036; stroke-width: 1.0;"/><!--link scan_engine to productn--><path d="M376.1832,171.8924 C416.0949,179.4846 492.58,195.5971 555,218 C573.8349,224.76 593.9407,234.0783 610.7036,242.4827 " fill="none" id="scan_engine-productn" style="stroke: #A80036; stroke-width: 1.0;"/><polygon fill="#A80036" points="615.3391,244.826,609.1116,237.1959,610.8768,242.5703,605.5025,244.3355,615.3391,244.826" style="stroke: #A80036; stroke-width: 1.0;"/><!--link report_service to sereco--><path d="M165.2515,281.0568 C166.2992,296.1746 167.8132,318.0194 169.0245,335.4959 " fill="none" id="report_service-sereco" style="stroke: #A80036; stroke-width: 1.0;"/><polygon fill="#A80036" points="169.3898,340.7672,172.7577,331.5121,169.0439,335.7792,164.7768,332.0654,169.3898,340.7672" style="stroke: #A80036; stroke-width: 1.0;"/><!--link sereco to db--><path d="M201.0652,387.1524 C222.7173,403.8261 251.9442,426.333 274.3709,443.6031 " fill="none" id="sereco-db" style="stroke: #A80036; stroke-width: 1.0;"/><polygon fill="#A80036" points="278.4759,446.7643,273.7855,438.104,274.5143,443.7137,268.9046,444.4425,278.4759,446.7643" style="stroke: #A80036; stroke-width: 1.0;"/><!--link scan_engine to db--><path d="M376.2725,180.34 C442.8047,214.6574 603.5565,309.3216 541,395 C518.8339,425.359 415.91,449.3552 354.5151,461.2717 " fill="none" id="scan_engine-db" style="stroke: #A80036; stroke-width: 1.0;"/><polygon fill="#A80036" points="349.4384,462.2479,359.0319,464.4762,354.3484,461.3036,357.521,456.6202,349.4384,462.2479" style="stroke: #A80036; stroke-width: 1.0;"/><!--link job_engine to sereco--><!--
@startuml

package "Sechub CLI client" {
  [CLI] as cli
}

cloud "Kubernetes cluster"{

	package "Sechub Server POD (1..n)" {
	  	[Schedule] as job_engine
	    [Source Upload] as source_upload
	  	[Scan] as scan_engine
	  	[Report] as report_service


		node "SeReCo" as sereco {
		}

	}
    package "Database POD (1)" {
    	database "Postgres" as db {
    	}
    }

    package "Shared Volumes"{
	   storage "NFS"
    }


}

cloud "Hosted 3rdParty security products" {
  [Security Product] as product1
  [...] as moreProducts
  [Security Product] as productn
}

HTTPS -> job_engine
HTTPS -> report_service

job_engine -> source_upload

NFS <- source_upload
scan_engine -> NFS
job_engine -> scan_engine




cli - -> HTTPS
scan_engine - -> product1
scan_engine - -> productn
report_service - -> sereco
sereco - -> db
scan_engine - -> db

job_engine -[hidden]- -> sereco
job_engine -[hidden]- -> source_upload

@enduml

PlantUML version 1.2019.06(Fri May 24 19:10:25 CEST 2019)
(APACHE source distribution)
Java Runtime: OpenJDK Runtime Environment
JVM: OpenJDK 64-Bit Server VM
Java Version: 1.8.0_222-8u222-b10-1ubuntu1~18.04.1-b10
Operating System: Linux
OS Version: 4.15.0-64-generic
Default Encoding: UTF-8
Language: en
Country: US
--></g></svg>