<?xml version="1.0" encoding="UTF-8" standalone="no"?><svg xmlns="http://www.w3.org/2000/svg" xmlns:xlink="http://www.w3.org/1999/xlink" contentScriptType="application/ecmascript" contentStyleType="text/css" height="249px" preserveAspectRatio="none" style="width:1010px;height:249px;" version="1.1" viewBox="0 0 1010 249" width="1010px" zoomAndPan="magnify"><defs><filter height="300%" id="f1ori3igk6np90" width="300%" x="-1" y="-1"><feGaussianBlur result="blurOut" stdDeviation="2.0"/><feColorMatrix in="blurOut" result="blurOut2" type="matrix" values="0 0 0 0 0 0 0 0 0 0 0 0 0 0 0 0 0 0 .4 0"/><feOffset dx="4.0" dy="4.0" in="blurOut2" result="blurOut3"/><feBlend in="SourceGraphic" in2="blurOut3" mode="normal"/></filter></defs><g><!--cluster <integrationtest>--><polygon fill="#FFFFFF" filter="url(#f1ori3igk6np90)" points="14,58,161,58,168,80.2969,172,80.2969,172,139,14,139,14,58" style="stroke: #000000; stroke-width: 1.5;"/><line style="stroke: #000000; stroke-width: 1.5;" x1="14" x2="168" y1="80.2969" y2="80.2969"/><text fill="#000000" font-family="sans-serif" font-size="14" font-weight="bold" lengthAdjust="spacingAndGlyphs" textLength="141" x="18" y="72.9951">&lt;integrationtest&gt;</text><!--entity integrationtest--><polygon fill="#FEFECE" filter="url(#f1ori3igk6np90)" points="22.5,95,32.5,85,163.5,85,163.5,121.2969,153.5,131.2969,22.5,131.2969,22.5,95" style="stroke: #000000; stroke-width: 1.5;"/><line style="stroke: #000000; stroke-width: 1.5;" x1="153.5" x2="162.5" y1="95" y2="86"/><line style="stroke: #000000; stroke-width: 1.5;" x1="22.5" x2="153.5" y1="95" y2="95"/><line style="stroke: #000000; stroke-width: 1.5;" x1="153.5" x2="153.5" y1="95" y2="131.2969"/><text fill="#000000" font-family="sans-serif" font-size="14" lengthAdjust="spacingAndGlyphs" textLength="101" x="37.5" y="117.9951">integrationtest</text><!--entity real_products--><polygon fill="#FEFECE" filter="url(#f1ori3igk6np90)" points="692,95,702,85,826,85,826,121.2969,816,131.2969,692,131.2969,692,95" style="stroke: #000000; stroke-width: 1.5;"/><line style="stroke: #000000; stroke-width: 1.5;" x1="816" x2="825" y1="95" y2="86"/><line style="stroke: #000000; stroke-width: 1.5;" x1="692" x2="816" y1="95" y2="95"/><line style="stroke: #000000; stroke-width: 1.5;" x1="816" x2="816" y1="95" y2="131.2969"/><text fill="#000000" font-family="sans-serif" font-size="14" lengthAdjust="spacingAndGlyphs" textLength="94" x="707" y="117.9951">real_products</text><!--entity postgres--><polygon fill="#FEFECE" filter="url(#f1ori3igk6np90)" points="861,95,871,85,963,85,963,121.2969,953,131.2969,861,131.2969,861,95" style="stroke: #000000; stroke-width: 1.5;"/><line style="stroke: #000000; stroke-width: 1.5;" x1="953" x2="962" y1="95" y2="86"/><line style="stroke: #000000; stroke-width: 1.5;" x1="861" x2="953" y1="95" y2="95"/><line style="stroke: #000000; stroke-width: 1.5;" x1="953" x2="953" y1="95" y2="131.2969"/><text fill="#000000" font-family="sans-serif" font-size="14" lengthAdjust="spacingAndGlyphs" textLength="62" x="876" y="117.9951">postgres</text><!--entity h2--><polygon fill="#FEFECE" filter="url(#f1ori3igk6np90)" points="730,201,740,191,788,191,788,227.2969,778,237.2969,730,237.2969,730,201" style="stroke: #000000; stroke-width: 1.5;"/><line style="stroke: #000000; stroke-width: 1.5;" x1="778" x2="787" y1="201" y2="192"/><line style="stroke: #000000; stroke-width: 1.5;" x1="730" x2="778" y1="201" y2="201"/><line style="stroke: #000000; stroke-width: 1.5;" x1="778" x2="778" y1="201" y2="237.2969"/><text fill="#000000" font-family="sans-serif" font-size="14" lengthAdjust="spacingAndGlyphs" textLength="18" x="745" y="223.9951">h2</text><!--entity localserver--><polygon fill="#FEFECE" filter="url(#f1ori3igk6np90)" points="199,95,209,85,313,85,313,121.2969,303,131.2969,199,131.2969,199,95" style="stroke: #000000; stroke-width: 1.5;"/><line style="stroke: #000000; stroke-width: 1.5;" x1="303" x2="312" y1="95" y2="86"/><line style="stroke: #000000; stroke-width: 1.5;" x1="199" x2="303" y1="95" y2="95"/><line style="stroke: #000000; stroke-width: 1.5;" x1="303" x2="303" y1="95" y2="131.2969"/><text fill="#000000" font-family="sans-serif" font-size="14" lengthAdjust="spacingAndGlyphs" textLength="74" x="214" y="117.9951">localserver</text><!--entity mocked_products--><polygon fill="#FEFECE" filter="url(#f1ori3igk6np90)" points="823.5,201,833.5,191,988.5,191,988.5,227.2969,978.5,237.2969,823.5,237.2969,823.5,201" style="stroke: #000000; stroke-width: 1.5;"/><line style="stroke: #000000; stroke-width: 1.5;" x1="978.5" x2="987.5" y1="201" y2="192"/><line style="stroke: #000000; stroke-width: 1.5;" x1="823.5" x2="978.5" y1="201" y2="201"/><line style="stroke: #000000; stroke-width: 1.5;" x1="978.5" x2="978.5" y1="201" y2="237.2969"/><text fill="#000000" font-family="sans-serif" font-size="14" lengthAdjust="spacingAndGlyphs" textLength="125" x="838.5" y="223.9951">mocked_products</text><!--entity mocked_notifications--><polygon fill="#FEFECE" filter="url(#f1ori3igk6np90)" points="348,95,358,85,534,85,534,121.2969,524,131.2969,348,131.2969,348,95" style="stroke: #000000; stroke-width: 1.5;"/><line style="stroke: #000000; stroke-width: 1.5;" x1="524" x2="533" y1="95" y2="86"/><line style="stroke: #000000; stroke-width: 1.5;" x1="348" x2="524" y1="95" y2="95"/><line style="stroke: #000000; stroke-width: 1.5;" x1="524" x2="524" y1="95" y2="131.2969"/><text fill="#000000" font-family="sans-serif" font-size="14" lengthAdjust="spacingAndGlyphs" textLength="146" x="363" y="117.9951">mocked_notifications</text><!--entity default--><polygon fill="#FEFECE" filter="url(#f1ori3igk6np90)" points="569.5,95,579.5,85,656.5,85,656.5,121.2969,646.5,131.2969,569.5,131.2969,569.5,95" style="stroke: #000000; stroke-width: 1.5;"/><line style="stroke: #000000; stroke-width: 1.5;" x1="646.5" x2="655.5" y1="95" y2="86"/><line style="stroke: #000000; stroke-width: 1.5;" x1="569.5" x2="646.5" y1="95" y2="95"/><line style="stroke: #000000; stroke-width: 1.5;" x1="646.5" x2="646.5" y1="95" y2="131.2969"/><text fill="#000000" font-family="sans-serif" font-size="14" lengthAdjust="spacingAndGlyphs" textLength="47" x="584.5" y="117.9951">default</text><!--link integrationtest to localserver--><path d="M163.6758,108 C173.6056,108 183.5355,108 193.4653,108 " fill="none" id="integrationtest-localserver" style="stroke: #A80036; stroke-width: 1.0;"/><polygon fill="#A80036" points="198.658,108,189.658,104,193.658,108,189.658,112,198.658,108" style="stroke: #A80036; stroke-width: 1.0;"/><!--link integrationtest to mocked_notifications--><path d="M114.6911,84.632 C134.3995,65.2514 165.3829,39.1364 198.5,28 C246.5241,11.8508 263.7845,14.0747 312.5,28 C349.0446,38.4462 385.3122,62.6243 409.951,81.6836 " fill="none" id="integrationtest-mocked_notifications" style="stroke: #A80036; stroke-width: 1.0;"/><polygon fill="#A80036" points="414.1082,84.9363,409.485,76.24,410.1704,81.8552,404.5552,82.5405,414.1082,84.9363" style="stroke: #A80036; stroke-width: 1.0;"/><!--link integrationtest to default--><path d="M114.6911,84.632 C134.3995,65.2514 165.3829,39.1364 198.5,28 C269.0617,4.272 464.767,-0.5964 533.5,28 C559.0469,38.6288 580.6141,61.8999 594.8109,80.6174 " fill="none" id="integrationtest-default" style="stroke: #A80036; stroke-width: 1.0;"/><polygon fill="#A80036" points="597.904,84.7787,595.7448,75.1694,594.921,80.766,589.3245,79.9422,597.904,84.7787" style="stroke: #A80036; stroke-width: 1.0;"/><!--link real_products to postgres--><!--link real_products to h2--><!--link h2 to mocked_products--><!--
@startuml
node real_products
node postgres
node h2
node localserver
node mocked_products
package <integrationtest>{
   node integrationtest
}
node mocked_notifications
node default
integrationtest -> localserver
integrationtest -> mocked_notifications
integrationtest -> default
@enduml

PlantUML version 1.2019.06(Fri May 24 19:10:25 CEST 2019)
(APACHE source distribution)
Java Runtime: OpenJDK Runtime Environment
JVM: OpenJDK 64-Bit Server VM
Java Version: 1.8.0_222-8u222-b10-1ubuntu1~18.04.1-b10
Operating System: Linux
OS Version: 4.15.0-64-generic
Default Encoding: UTF-8
Language: en
Country: US
--></g></svg>