<?xml version="1.0" encoding="UTF-8" standalone="no"?><svg xmlns="http://www.w3.org/2000/svg" xmlns:xlink="http://www.w3.org/1999/xlink" contentScriptType="application/ecmascript" contentStyleType="text/css" height="149px" preserveAspectRatio="none" style="width:544px;height:149px;" version="1.1" viewBox="0 0 544 149" width="544px" zoomAndPan="magnify"><defs><filter height="300%" id="f1jt9fo6j1ii5f" width="300%" x="-1" y="-1"><feGaussianBlur result="blurOut" stdDeviation="2.0"/><feColorMatrix in="blurOut" result="blurOut2" type="matrix" values="0 0 0 0 0 0 0 0 0 0 0 0 0 0 0 0 0 0 .4 0"/><feOffset dx="4.0" dy="4.0" in="blurOut2" result="blurOut3"/><feBlend in="SourceGraphic" in2="blurOut3" mode="normal"/></filter></defs><g><!--cluster <prod>--><polygon fill="#FFFFFF" filter="url(#f1jt9fo6j1ii5f)" points="14,56,81,56,88,78.2969,102,78.2969,102,137,14,137,14,56" style="stroke: #000000; stroke-width: 1.5;"/><line style="stroke: #000000; stroke-width: 1.5;" x1="14" x2="88" y1="78.2969" y2="78.2969"/><text fill="#000000" font-family="sans-serif" font-size="14" font-weight="bold" lengthAdjust="spacingAndGlyphs" textLength="61" x="18" y="70.9951">&lt;prod&gt;</text><!--entity prod--><polygon fill="#FEFECE" filter="url(#f1jt9fo6j1ii5f)" points="22,93,32,83,94,83,94,119.2969,84,129.2969,22,129.2969,22,93" style="stroke: #000000; stroke-width: 1.5;"/><line style="stroke: #000000; stroke-width: 1.5;" x1="84" x2="93" y1="93" y2="84"/><line style="stroke: #000000; stroke-width: 1.5;" x1="22" x2="84" y1="93" y2="93"/><line style="stroke: #000000; stroke-width: 1.5;" x1="84" x2="84" y1="93" y2="129.2969"/><text fill="#000000" font-family="sans-serif" font-size="14" lengthAdjust="spacingAndGlyphs" textLength="32" x="37" y="115.9951">prod</text><!--entity real_products--><polygon fill="#FEFECE" filter="url(#f1jt9fo6j1ii5f)" points="266,93,276,83,400,83,400,119.2969,390,129.2969,266,129.2969,266,93" style="stroke: #000000; stroke-width: 1.5;"/><line style="stroke: #000000; stroke-width: 1.5;" x1="390" x2="399" y1="93" y2="84"/><line style="stroke: #000000; stroke-width: 1.5;" x1="266" x2="390" y1="93" y2="93"/><line style="stroke: #000000; stroke-width: 1.5;" x1="390" x2="390" y1="93" y2="129.2969"/><text fill="#000000" font-family="sans-serif" font-size="14" lengthAdjust="spacingAndGlyphs" textLength="94" x="281" y="115.9951">real_products</text><!--entity postgres--><polygon fill="#FEFECE" filter="url(#f1jt9fo6j1ii5f)" points="129,93,139,83,231,83,231,119.2969,221,129.2969,129,129.2969,129,93" style="stroke: #000000; stroke-width: 1.5;"/><line style="stroke: #000000; stroke-width: 1.5;" x1="221" x2="230" y1="93" y2="84"/><line style="stroke: #000000; stroke-width: 1.5;" x1="129" x2="221" y1="93" y2="93"/><line style="stroke: #000000; stroke-width: 1.5;" x1="221" x2="221" y1="93" y2="129.2969"/><text fill="#000000" font-family="sans-serif" font-size="14" lengthAdjust="spacingAndGlyphs" textLength="62" x="144" y="115.9951">postgres</text><!--entity default--><polygon fill="#FEFECE" filter="url(#f1jt9fo6j1ii5f)" points="435.5,93,445.5,83,522.5,83,522.5,119.2969,512.5,129.2969,435.5,129.2969,435.5,93" style="stroke: #000000; stroke-width: 1.5;"/><line style="stroke: #000000; stroke-width: 1.5;" x1="512.5" x2="521.5" y1="93" y2="84"/><line style="stroke: #000000; stroke-width: 1.5;" x1="435.5" x2="512.5" y1="93" y2="93"/><line style="stroke: #000000; stroke-width: 1.5;" x1="512.5" x2="512.5" y1="93" y2="129.2969"/><text fill="#000000" font-family="sans-serif" font-size="14" lengthAdjust="spacingAndGlyphs" textLength="47" x="450.5" y="115.9951">default</text><!--link prod to postgres--><path d="M94.2188,106 C104.0156,106 113.8124,106 123.6092,106 " fill="none" id="prod-postgres" style="stroke: #A80036; stroke-width: 1.0;"/><polygon fill="#A80036" points="128.7323,106,119.7323,102,123.7323,106,119.7323,110,128.7323,106" style="stroke: #A80036; stroke-width: 1.0;"/><!--link prod to real_products--><path d="M71.0169,82.8437 C83.2945,63.5989 103.6551,37.564 129.5,26 C170.88,7.485 188.6681,11.1495 231.5,26 C261.7086,36.4738 289.7361,60.0752 308.6507,78.9442 " fill="none" id="prod-real_products" style="stroke: #A80036; stroke-width: 1.0;"/><polygon fill="#A80036" points="312.3101,82.6496,308.832,73.4353,308.7967,79.0921,303.14,79.0567,312.3101,82.6496" style="stroke: #A80036; stroke-width: 1.0;"/><!--link prod to default--><path d="M71.0169,82.8437 C83.2945,63.5989 103.6551,37.564 129.5,26 C184.4705,1.404 344.9716,2.6909 400.5,26 C425.8542,36.6429 447.1367,59.9125 461.1171,78.6259 " fill="none" id="prod-default" style="stroke: #A80036; stroke-width: 1.0;"/><polygon fill="#A80036" points="464.1624,82.7862,462.0741,73.1613,461.2091,78.7516,455.6188,77.8866,464.1624,82.7862" style="stroke: #A80036; stroke-width: 1.0;"/><!--
@startuml
node real_products
node postgres
package <prod>{
   node prod
}
node default
prod -> postgres
prod -> real_products
prod -> default
@enduml

PlantUML version 1.2019.06(Fri May 24 19:10:25 CEST 2019)
(APACHE source distribution)
Java Runtime: OpenJDK Runtime Environment
JVM: OpenJDK 64-Bit Server VM
Java Version: 1.8.0_222-8u222-b10-1ubuntu1~18.04.1-b10
Operating System: Linux
OS Version: 4.15.0-64-generic
Default Encoding: UTF-8
Language: en
Country: US
--></g></svg>